<?xml version="1.0" standalone="no"?>
<!DOCTYPE svg PUBLIC "-//W3C//DTD SVG 1.1//EN" "http://www.w3.org/Graphics/SVG/1.1/DTD/svg11.dtd" >
<svg xmlns="http://www.w3.org/2000/svg" xmlns:xlink="http://www.w3.org/1999/xlink" version="1.1">
<metadata>
Created by FontForge 20190801 at Wed Apr 17 13:04:59 2019
 By Jimmy Wärting
Copyright (c) 2018 ParaType Inc., ParaType Ltd. All rights reserved.
</metadata>
<defs>
<font id="SBSansText-Thin" horiz-adv-x="450" >
  <font-face 
    font-family="SB Sans Text Thin"
    font-weight="250"
    font-stretch="normal"
    units-per-em="1000"
    panose-1="2 11 1 3 4 5 4 2 2 4"
    ascent="801"
    descent="-199"
    x-height="510"
    cap-height="700"
    bbox="-300 -250 1179 932"
    underline-thickness="50"
    underline-position="-102"
    stemh="35"
    stemv="38"
    unicode-range="U+0020-FEFF"
  />
<missing-glyph horiz-adv-x="500" 
 />
    <glyph glyph-name="f_f" unicode="ff" horiz-adv-x="648" 
d="M433 0v476h-268v-476h-38v476h-94v35h94v116c0 92 41 131 128 131c25 0 44 -4 65 -12v-45c-21 15 -47 22 -73 22c-67 0 -82 -33 -82 -107v-105h268v116c0 92 41 131 127 131c26 0 45 -4 66 -12v-45c-21 15 -47 22 -73 22c-67 0 -82 -33 -82 -107v-105h155v-35h-155v-476
h-38z" />
    <glyph glyph-name="fi" unicode="fi" horiz-adv-x="578" 
d="M419 681c0 19 12 32 33 32c19 0 33 -13 33 -32c0 -20 -14 -34 -33 -34c-21 0 -33 14 -33 34zM127 511v116c0 92 41 131 127 131c25 0 45 -4 65 -12v-45c-21 15 -47 22 -73 22c-66 0 -81 -33 -81 -107v-105h306v-511h-38v476h-268v-476h-38v476h-94v35h94z" />
    <glyph glyph-name="fl" unicode="fl" horiz-adv-x="619" 
d="M127 511v98c0 104 43 149 132 149c58 0 105 -8 182 -8h30v-648c0 -56 22 -71 65 -71c22 0 43 8 56 16v-42c-13 -5 -35 -11 -60 -11c-76 0 -99 41 -99 102v622c-70 1 -110 6 -172 6c-78 0 -96 -42 -96 -126v-87h155v-35h-155v-476h-38v476h-94v35h94z" />
    <glyph glyph-name="f_f_i" unicode="ffi" horiz-adv-x="884" 
d="M127 0v476h-94v35h94v116c0 92 41 131 128 131c25 0 44 -4 65 -12v-45c-21 15 -47 22 -73 22c-67 0 -82 -33 -82 -107v-105h268v116c0 92 41 131 127 131c24 0 44 -4 65 -12v-45c-21 15 -47 22 -73 22c-66 0 -81 -33 -81 -107v-105h306v-511h-39v476h-267v-476h-38v476
h-268v-476h-38zM724 681c0 19 12 32 34 32c19 0 33 -13 33 -32c0 -20 -14 -34 -33 -34c-22 0 -34 14 -34 34z" />
    <glyph glyph-name="f_f_l" unicode="ffl" horiz-adv-x="925" 
d="M127 0v476h-94v35h94v116c0 92 41 131 128 131c25 0 44 -4 65 -12v-45c-21 15 -47 22 -73 22c-67 0 -82 -33 -82 -107v-105h268v98c0 104 43 149 132 149c58 0 105 -8 182 -8h30v-648c0 -56 21 -71 65 -71c22 0 43 8 55 16v-42c-12 -5 -34 -11 -59 -11
c-76 0 -100 41 -100 102v622c-70 1 -110 6 -171 6c-78 0 -96 -42 -96 -126v-87h155v-35h-155v-476h-38v476h-268v-476h-38z" />
    <glyph glyph-name=".notdef" horiz-adv-x="500" 
 />
    <glyph glyph-name="space" unicode=" " horiz-adv-x="296" 
 />
    <glyph glyph-name="exclam" unicode="!" horiz-adv-x="369" 
d="M148 27c0 22 14 36 38 36c23 0 38 -14 38 -36s-14 -36 -38 -36c-23 0 -38 15 -38 36zM165 210v490h41v-490h-41z" />
    <glyph glyph-name="quotedbl" unicode="&#x22;" horiz-adv-x="437" 
d="M115 447v253h37v-253h-37zM283 447v253h37v-253h-37z" />
    <glyph glyph-name="numbersign" unicode="#" horiz-adv-x="667" 
d="M137 0l34 222h-102l2 34h107l28 188h-106l2 35h110l34 221h35l-33 -221h213l33 221h35l-33 -221h102l-2 -35h-106l-29 -188h104l-1 -34h-109l-34 -222h-35l34 222h-213l-34 -222h-36zM213 256h213l28 188h-213z" />
    <glyph glyph-name="dollar" unicode="$" horiz-adv-x="581" 
d="M446 179c0 222 -360 106 -360 362c0 110 63 160 183 168v91h32v-90h3c69 0 131 -19 154 -31v-55c-34 28 -98 48 -158 48c-111 0 -173 -32 -173 -129c0 -220 362 -102 362 -361c0 -112 -56 -183 -188 -191v-111h-32v110c-81 1 -145 22 -181 46v63c28 -30 101 -71 177 -71
c137 0 181 58 181 151z" />
    <glyph glyph-name="percent" unicode="%" horiz-adv-x="818" 
d="M139 0l501 700h39l-499 -700h-41zM447 153c0 95 51 163 151 163c102 0 153 -66 153 -163s-53 -164 -154 -164c-100 0 -150 66 -150 164zM711 153c0 82 -34 127 -114 127c-76 0 -111 -46 -111 -127c0 -83 36 -128 111 -128c80 0 114 45 114 128zM68 547
c0 96 51 163 151 163c102 0 153 -65 153 -163c0 -97 -52 -163 -153 -163s-151 65 -151 163zM332 547c0 82 -33 127 -113 127c-76 0 -112 -46 -112 -127c0 -82 37 -128 112 -128c79 0 113 45 113 128z" />
    <glyph glyph-name="ampersand" unicode="&#x26;" horiz-adv-x="873" 
d="M705 511h39c-1 -157 -65 -299 -161 -395c57 -40 113 -70 162 -85v-41c-62 17 -128 53 -191 98c-73 -62 -160 -99 -249 -99c-124 0 -207 73 -207 189c0 111 76 165 164 207c-47 71 -76 137 -76 187c0 77 50 138 167 138c88 0 158 -46 158 -140c0 -108 -97 -151 -196 -197
c58 -78 136 -157 238 -236c102 100 152 240 152 374zM523 111c-104 82 -184 164 -242 246c-77 -38 -142 -84 -142 -175c0 -76 47 -157 171 -157c69 0 138 27 213 86zM296 400c91 41 174 78 174 168c0 60 -37 107 -119 107c-69 0 -124 -36 -124 -104c0 -48 27 -108 69 -171z
" />
    <glyph glyph-name="quotesingle" unicode="'" horiz-adv-x="268" 
d="M115 447v253h37v-253h-37z" />
    <glyph glyph-name="parenleft" unicode="(" horiz-adv-x="318" 
d="M270 -170l-21 -20c-131 129 -171 326 -171 475c0 148 40 346 171 475l19 -21c-98 -110 -150 -262 -150 -454c0 -177 56 -346 152 -455z" />
    <glyph glyph-name="parenright" unicode=")" horiz-adv-x="318" 
d="M48 -170c95 109 151 278 151 455c0 192 -51 344 -150 454l20 21c131 -129 171 -327 171 -475c0 -149 -41 -346 -171 -475z" />
    <glyph glyph-name="asterisk" unicode="*" horiz-adv-x="480" 
d="M123 411l97 115l-142 47l12 38l139 -60l-8 149h39l-7 -149l137 60l13 -38l-142 -48l97 -114l-33 -22l-85 122l-85 -122z" />
    <glyph glyph-name="plus" unicode="+" horiz-adv-x="581" 
d="M69 307v36h203v201h36v-201h203v-36h-203v-201h-36v201h-203z" />
    <glyph glyph-name="comma" unicode="," horiz-adv-x="269" 
d="M63 -109c45 21 72 51 77 99c-26 0 -44 11 -44 37c0 20 11 37 40 37c25 0 41 -16 41 -55c0 -45 -22 -109 -85 -142z" />
    <glyph glyph-name="hyphen" unicode="-" horiz-adv-x="469" 
d="M107 269v36h254v-36h-254z" />
    <glyph glyph-name="period" unicode="." horiz-adv-x="268" 
d="M96 27c0 23 14 37 39 37c22 0 37 -15 37 -37c0 -21 -14 -35 -37 -35c-24 0 -39 14 -39 35z" />
    <glyph glyph-name="slash" unicode="/" horiz-adv-x="380" 
d="M7 -180l328 880h38l-328 -880h-38z" />
    <glyph glyph-name="zero" unicode="0" horiz-adv-x="581" 
d="M56 350c0 252 68 360 233 360c182 0 236 -109 236 -360c0 -260 -64 -360 -235 -360s-234 111 -234 360zM98 350c0 -232 49 -322 196 -322c144 0 189 90 189 322c0 235 -44 322 -195 322c-140 0 -190 -92 -190 -322z" />
    <glyph glyph-name="one" unicode="1" horiz-adv-x="581" 
d="M102 0v38h204v619l-204 -129v44l214 134h29v-668h152v-38h-395z" />
    <glyph glyph-name="two" unicode="2" horiz-adv-x="581" 
d="M63 0v39c309 296 398 335 398 471c0 110 -56 161 -183 161c-68 0 -147 -30 -188 -64v59c58 30 142 44 194 44c142 0 219 -59 219 -199c0 -152 -116 -213 -389 -473h399v-38h-450z" />
    <glyph glyph-name="three" unicode="3" horiz-adv-x="581" 
d="M180 345v37h95c120 0 185 60 185 144c0 107 -53 145 -179 145c-103 0 -164 -31 -198 -51v57c50 19 135 33 206 33c165 0 213 -66 213 -175c0 -108 -62 -154 -149 -169c115 -12 166 -68 166 -183c0 -137 -91 -193 -239 -193c-70 0 -158 14 -208 37v57
c44 -28 108 -54 202 -54c181 0 203 73 203 166c0 98 -72 149 -200 149h-97z" />
    <glyph glyph-name="four" unicode="4" horiz-adv-x="581" 
d="M39 190v35l366 475h44v-471h100v-39h-100v-190h-39v190h-371zM410 229v420l-321 -420h321z" />
    <glyph glyph-name="five" unicode="5" horiz-adv-x="581" 
d="M90 361l21 339h382v-39h-347l-16 -256c35 5 88 10 163 10c146 0 227 -53 227 -194c0 -139 -60 -231 -256 -231c-72 0 -142 14 -185 33v54c58 -38 117 -48 184 -48c146 0 215 53 215 187c0 119 -66 162 -197 162c-77 0 -144 -8 -191 -17z" />
    <glyph glyph-name="six" unicode="6" horiz-adv-x="581" 
d="M303 -10c-163 0 -241 94 -241 319c0 275 89 401 279 401c57 0 97 -9 130 -23v-54c-34 23 -74 38 -133 38c-141 0 -239 -86 -239 -328c0 -15 1 -29 2 -43c34 85 112 141 214 141c139 0 213 -66 213 -219c0 -162 -104 -232 -225 -232zM109 272c0 -164 66 -244 196 -244
c105 0 182 57 182 191c0 140 -69 185 -177 185c-132 0 -186 -83 -201 -132z" />
    <glyph glyph-name="seven" unicode="7" horiz-adv-x="581" 
d="M176 0l304 659h-422v41h466v-35l-305 -665h-43z" />
    <glyph glyph-name="eight" unicode="8" horiz-adv-x="581" 
d="M59 181c0 99 36 168 166 186c-115 13 -149 81 -149 174c0 104 79 169 219 169c146 0 212 -53 212 -162c0 -93 -34 -157 -145 -179c128 -12 166 -86 166 -186c0 -115 -71 -193 -232 -193c-164 0 -237 68 -237 191zM98 186c0 -101 55 -157 199 -157c131 0 192 54 192 155
c0 116 -70 170 -191 166c-166 -6 -200 -71 -200 -164zM116 530c0 -97 59 -153 187 -148c135 6 164 73 164 153c0 94 -47 137 -174 137c-135 0 -177 -61 -177 -142z" />
    <glyph glyph-name="nine" unicode="9" horiz-adv-x="581" 
d="M281 710c176 0 241 -94 241 -332c0 -262 -88 -388 -279 -388c-57 0 -97 9 -130 23v54c34 -23 75 -38 133 -38c141 0 235 86 239 328c0 15 0 29 -1 43c-31 -91 -113 -141 -215 -141c-139 0 -213 66 -213 219c0 162 104 232 225 232zM478 439c-1 147 -55 233 -199 233
c-105 0 -182 -57 -182 -191c0 -140 69 -185 178 -185c138 0 190 84 203 143z" />
    <glyph glyph-name="colon" unicode=":" horiz-adv-x="268" 
d="M96 27c0 23 14 37 39 37c22 0 37 -15 37 -37c0 -21 -14 -35 -37 -35c-24 0 -39 14 -39 35zM96 478c0 23 14 37 39 37c22 0 37 -15 37 -37c0 -21 -14 -35 -37 -35c-24 0 -39 14 -39 35z" />
    <glyph glyph-name="semicolon" unicode=";" horiz-adv-x="269" 
d="M96 478c0 23 14 37 39 37c22 0 37 -15 37 -37c0 -21 -14 -35 -37 -35c-24 0 -39 14 -39 35zM63 -109c45 21 72 51 77 99c-26 0 -44 11 -44 37c0 20 11 37 40 37c25 0 41 -16 41 -55c0 -45 -22 -109 -85 -142z" />
    <glyph glyph-name="less" unicode="&#x3c;" horiz-adv-x="581" 
d="M73 300v33l445 175v-38l-396 -152v-2l396 -152v-39z" />
    <glyph glyph-name="equal" unicode="=" horiz-adv-x="581" 
d="M69 210v37h442v-37h-442zM69 401v37h442v-37h-442z" />
    <glyph glyph-name="greater" unicode="&#x3e;" horiz-adv-x="581" 
d="M63 125v39l395 152v2l-395 152v38l445 -175v-33z" />
    <glyph glyph-name="question" unicode="?" horiz-adv-x="490" 
d="M186 188c0 204 200 166 200 341c0 110 -53 142 -154 142c-76 0 -127 -23 -167 -53v56c60 29 119 36 160 36c141 0 202 -50 202 -180c0 -197 -203 -156 -203 -342h-38zM168 27c0 22 14 36 37 36c24 0 38 -14 38 -36s-14 -36 -38 -36c-23 0 -37 15 -37 36z" />
    <glyph glyph-name="at" unicode="@" horiz-adv-x="977" 
d="M721 62c-61 0 -92 19 -93 112c-18 -75 -61 -112 -163 -112c-138 0 -169 89 -169 220c0 167 78 227 178 227c109 0 137 -37 154 -106l6 97h31v-323c0 -51 7 -82 58 -82c58 0 123 53 123 245c0 208 -125 329 -348 329c-234 0 -364 -149 -364 -393c0 -252 143 -379 376 -379
c59 0 127 12 171 32v-34c-43 -17 -111 -30 -168 -30c-272 0 -414 150 -414 411c0 251 141 425 401 425c240 0 378 -137 378 -358c0 -232 -87 -281 -157 -281zM335 281c0 -110 21 -184 138 -184c113 0 154 52 154 170v50c0 98 -43 157 -140 157c-100 0 -152 -43 -152 -193z
" />
    <glyph glyph-name="A" unicode="A" horiz-adv-x="633" 
d="M558 0l-78 212h-328l-78 -212h-42l267 700h40l262 -700h-43zM317 656l-151 -407h300z" />
    <glyph glyph-name="B" unicode="B" horiz-adv-x="616" 
d="M108 0v700c72 3 126 5 199 5c172 0 217 -53 217 -181c0 -90 -35 -139 -133 -159c105 -10 153 -66 153 -159c0 -126 -56 -211 -246 -211c-70 0 -123 2 -190 5zM148 38c54 -3 95 -5 149 -5c159 0 205 64 205 170c0 98 -59 141 -178 141h-176v-306zM148 379h150
c140 0 186 48 186 140c0 110 -30 148 -181 148c-57 0 -99 -2 -155 -5v-283z" />
    <glyph glyph-name="C" unicode="C" horiz-adv-x="637" 
d="M540 686v-47c-44 20 -103 33 -163 33c-168 0 -262 -91 -262 -323c0 -230 96 -321 266 -321c59 0 121 16 161 36v-45c-39 -16 -97 -29 -167 -29c-193 0 -302 103 -302 352c0 263 106 368 306 368c78 0 128 -13 161 -24z" />
    <glyph glyph-name="D" unicode="D" horiz-adv-x="690" 
d="M108 0v700c69 3 101 5 174 5c262 0 335 -109 335 -341c0 -261 -96 -369 -347 -369c-68 0 -98 2 -162 5zM148 38c49 -3 69 -5 119 -5c238 0 307 106 307 328c0 217 -56 306 -296 306c-54 0 -77 -2 -130 -5v-624z" />
    <glyph glyph-name="E" unicode="E" horiz-adv-x="590" 
d="M108 0v700h400v-38h-360v-284h333v-37h-333v-303h360v-38h-400z" />
    <glyph glyph-name="F" unicode="F" horiz-adv-x="556" 
d="M108 0v700h390v-38h-350v-299h337v-37h-337v-326h-40z" />
    <glyph glyph-name="G" unicode="G" horiz-adv-x="668" 
d="M378 303v38h208v-311c-41 -20 -113 -40 -188 -40c-220 0 -325 107 -325 352c0 255 105 368 332 368c64 0 117 -15 149 -27v-48c-34 21 -103 37 -152 37c-200 0 -287 -100 -287 -323c0 -228 88 -321 287 -321c49 0 104 10 145 26v249h-169z" />
    <glyph glyph-name="H" unicode="H" horiz-adv-x="733" 
d="M108 0v700h40v-321h437v321h40v-700h-40v341h-437v-341h-40z" />
    <glyph glyph-name="I" unicode="I" horiz-adv-x="267" 
d="M113 0v700h40v-700h-40z" />
    <glyph glyph-name="J" unicode="J" horiz-adv-x="388" 
d="M240 175v525h40v-533c0 -115 -51 -177 -162 -177c-55 0 -85 10 -100 16v47c24 -14 66 -25 99 -25c82 0 123 43 123 147z" />
    <glyph glyph-name="K" unicode="K" horiz-adv-x="656" 
d="M108 0v700h40v-318h51l353 318h52l-372 -333l388 -367h-55l-368 349h-49v-349h-40z" />
    <glyph glyph-name="L" unicode="L" horiz-adv-x="540" 
d="M108 0v700h40v-662h346v-38h-386z" />
    <glyph glyph-name="M" unicode="M" horiz-adv-x="822" 
d="M108 0v700h47l257 -449l257 449h45v-700h-40v553c0 3 0 79 1 83c-2 -4 -43 -78 -44 -80l-200 -351h-39l-200 349c-1 3 -43 78 -45 82c1 -4 1 -81 1 -84v-552h-40z" />
    <glyph glyph-name="N" unicode="N" horiz-adv-x="724" 
d="M108 0v700h47l354 -531c2 -3 66 -99 67 -101v102v530h39v-700h-41l-366 549c-2 2 -59 89 -61 92c1 -3 1 -86 1 -89v-552h-40z" />
    <glyph glyph-name="O" unicode="O" horiz-adv-x="735" 
d="M73 350c0 237 101 360 292 360c215 0 297 -126 297 -360c0 -250 -107 -360 -295 -360c-198 0 -294 122 -294 360zM115 350c0 -214 78 -322 255 -322c168 0 250 102 250 322c0 213 -69 322 -256 322c-169 0 -249 -111 -249 -322z" />
    <glyph glyph-name="P" unicode="P" horiz-adv-x="599" 
d="M108 0v700c64 3 103 5 168 5c184 0 251 -58 251 -209c0 -145 -59 -226 -254 -226c-48 0 -77 1 -125 4v-274h-40zM148 312c48 -4 77 -5 125 -5c159 0 212 50 212 187c0 96 -22 173 -211 173c-49 0 -78 -1 -126 -5v-350z" />
    <glyph glyph-name="Q" unicode="Q" horiz-adv-x="735" 
d="M73 350c0 237 101 360 292 360c215 0 297 -126 297 -360c0 -225 -86 -336 -240 -356l141 -122h-56l-135 118h-5c-198 0 -294 122 -294 360zM115 350c0 -214 78 -322 255 -322c168 0 250 102 250 322c0 213 -69 322 -256 322c-169 0 -249 -111 -249 -322z" />
    <glyph glyph-name="R" unicode="R" horiz-adv-x="639" 
d="M148 0h-40v699c70 4 114 6 185 6c163 0 227 -63 227 -186c0 -112 -52 -174 -161 -194l215 -325h-47l-213 319h-166v-319zM148 357h146c144 0 185 74 185 158c0 98 -42 152 -187 152c-56 0 -88 1 -144 -3v-307z" />
    <glyph glyph-name="S" unicode="S" horiz-adv-x="544" 
d="M433 179c0 222 -360 106 -360 362c0 120 75 169 219 169c68 0 131 -19 153 -31v-55c-34 28 -97 48 -157 48c-111 0 -173 -32 -173 -129c0 -220 361 -102 361 -361c0 -119 -63 -192 -213 -192c-85 0 -151 22 -188 46v63c28 -30 101 -71 177 -71c137 0 181 58 181 151z" />
    <glyph glyph-name="T" unicode="T" horiz-adv-x="557" 
d="M258 0v662h-230v38h501v-38h-231v-662h-40z" />
    <glyph glyph-name="U" unicode="U" horiz-adv-x="703" 
d="M99 266v434h39v-432c0 -206 87 -241 214 -241c130 0 213 34 213 242v431h40v-430c0 -203 -72 -280 -253 -280c-182 0 -253 77 -253 276z" />
    <glyph glyph-name="V" unicode="V" horiz-adv-x="617" 
d="M286 0l-254 700h44l236 -658l232 658h41l-249 -700h-50z" />
    <glyph glyph-name="W" unicode="W" horiz-adv-x="889" 
d="M211 0l-158 700h42l105 -475c1 -3 33 -149 33 -153c1 4 44 149 45 153l141 475h50l140 -475c1 -3 44 -150 45 -153c1 3 34 150 34 153l108 475h40l-162 -700h-37l-194 649l-194 -649h-38z" />
    <glyph glyph-name="X" unicode="X" horiz-adv-x="601" 
d="M28 0l246 366l-224 334h50l200 -306l202 306h47l-224 -333l248 -367h-50l-224 335l-223 -335h-48z" />
    <glyph glyph-name="Y" unicode="Y" horiz-adv-x="574" 
d="M268 0v291l-241 409h47l214 -368l211 368h48l-239 -409v-291h-40z" />
    <glyph glyph-name="Z" unicode="Z" horiz-adv-x="566" 
d="M43 0v37l428 625h-416v38h462v-37l-426 -625h432v-38h-480z" />
    <glyph glyph-name="bracketleft" unicode="[" horiz-adv-x="344" 
d="M121 -180v930h179v-32h-140v-866h140v-32h-179z" />
    <glyph glyph-name="backslash" unicode="\" horiz-adv-x="380" 
d="M336 -180l-329 930h38l328 -930h-37z" />
    <glyph glyph-name="bracketright" unicode="]" horiz-adv-x="344" 
d="M44 -180v32h140v866h-140v32h179v-930h-179z" />
    <glyph glyph-name="asciicircum" unicode="^" horiz-adv-x="581" 
d="M81 364l192 336h36l192 -336h-41l-169 297l-170 -297h-40z" />
    <glyph glyph-name="underscore" unicode="_" horiz-adv-x="502" 
d="M7 -207v32h488v-32h-488z" />
    <glyph glyph-name="grave" unicode="`" horiz-adv-x="581" 
d="M311 608h-36l-104 130h56z" />
    <glyph glyph-name="a" unicode="a" horiz-adv-x="525" 
d="M407 0l-7 122c-22 -81 -74 -132 -173 -132c-116 0 -169 51 -169 152c0 99 51 145 213 145h127v62c0 96 -46 137 -147 137c-63 0 -126 -28 -158 -54v50c29 17 94 38 162 38c137 0 182 -60 182 -179v-341h-30zM98 146c0 -78 37 -121 139 -121c95 0 161 67 161 179v51h-123
c-145 0 -177 -38 -177 -109z" />
    <glyph glyph-name="b" unicode="b" horiz-adv-x="599" 
d="M93 0v750h38v-356c28 93 102 126 197 126c141 0 206 -76 206 -255c0 -183 -66 -275 -213 -275c-94 0 -164 43 -191 131l-7 -121h-30zM131 280v-44c0 -99 50 -211 184 -211c131 0 180 85 180 239c0 152 -45 222 -173 222c-119 0 -191 -71 -191 -206z" />
    <glyph glyph-name="c" unicode="c" horiz-adv-x="500" 
d="M432 497v-45c-27 16 -77 33 -127 33c-141 0 -201 -80 -201 -223c0 -152 64 -237 208 -237c44 0 105 18 130 37v-46c-25 -11 -81 -26 -139 -26c-171 0 -238 103 -238 270c0 164 73 260 236 260c57 0 108 -14 131 -23z" />
    <glyph glyph-name="d" unicode="d" horiz-adv-x="599" 
d="M474 0l-6 123c-28 -90 -89 -133 -193 -133c-140 0 -210 92 -210 262c0 193 81 268 218 268c110 0 167 -56 185 -125v355h38v-750h-32zM283 25c116 0 185 59 185 212v51c0 99 -42 198 -182 198c-127 0 -182 -71 -182 -235c0 -149 60 -226 179 -226z" />
    <glyph glyph-name="e" unicode="e" horiz-adv-x="551" 
d="M488 251h-384c1 -151 59 -226 196 -226c67 0 120 21 155 52v-45c-28 -21 -85 -42 -156 -42c-162 0 -234 89 -234 271c0 183 85 259 216 259c158 0 207 -91 207 -251v-18zM282 487c-114 0 -173 -68 -178 -203h344c1 108 -28 203 -166 203z" />
    <glyph glyph-name="f" unicode="f" horiz-adv-x="343" 
d="M127 0v475h-94v35h94v119c0 92 41 131 128 131c25 0 44 -4 65 -12v-45c-21 15 -47 22 -73 22c-67 0 -82 -33 -82 -107v-108h155v-35h-155v-475h-38z" />
    <glyph glyph-name="g" unicode="g" horiz-adv-x="599" 
d="M115 -151v52c26 -28 92 -56 174 -56c138 0 179 56 179 160v119c-28 -90 -90 -134 -193 -134c-140 0 -210 93 -210 262c0 193 81 268 219 268c108 0 166 -56 184 -125l6 116h32v-502c0 -148 -75 -199 -215 -199c-78 0 -138 17 -176 39zM283 25c116 0 185 60 185 213v49
c0 101 -44 199 -182 199c-126 0 -182 -71 -182 -235c0 -148 61 -226 179 -226z" />
    <glyph glyph-name="h" unicode="h" horiz-adv-x="592" 
d="M93 0v750h38v-356c21 81 91 126 189 126c141 0 184 -63 184 -196v-324h-38v315c0 131 -45 171 -159 171c-128 0 -176 -78 -176 -173v-313h-38z" />
    <glyph glyph-name="i" unicode="i" horiz-adv-x="253" 
d="M107 0v510h38v-510h-38zM94 670c0 20 12 32 32 32s32 -12 32 -32s-12 -32 -32 -32s-32 12 -32 32z" />
    <glyph glyph-name="j" unicode="j" horiz-adv-x="226" 
d="M94 -59v569h38v-574c0 -67 -22 -121 -110 -121c-26 0 -46 2 -59 7v47c13 -9 32 -17 58 -17c44 0 73 16 73 89zM81 670c0 20 12 32 32 32s32 -12 32 -32s-12 -32 -32 -32s-32 12 -32 32z" />
    <glyph glyph-name="k" unicode="k" horiz-adv-x="502" 
d="M93 750h38v-452h32l249 212h50l-269 -226l281 -284h-49l-264 266h-30v-266h-38v750z" />
    <glyph glyph-name="l" unicode="l" horiz-adv-x="280" 
d="M131 98c0 -56 22 -71 66 -71c22 0 43 8 55 16v-42c-12 -5 -34 -11 -59 -11c-77 0 -100 41 -100 102v658h38v-652z" />
    <glyph glyph-name="m" unicode="m" horiz-adv-x="847" 
d="M93 0v510h30l7 -117c17 84 79 127 161 127c94 0 138 -39 147 -127c19 95 88 127 167 127c118 0 154 -61 154 -157v-363h-38v352c0 89 -31 133 -132 133c-98 0 -144 -68 -144 -153v-332h-38v334c0 106 -31 151 -126 151c-112 0 -150 -83 -150 -160v-325h-38z" />
    <glyph glyph-name="n" unicode="n" horiz-adv-x="592" 
d="M93 0v510h32l6 -116c29 80 89 126 185 126c126 0 188 -48 188 -191v-329h-38v324c0 124 -48 162 -157 162c-115 0 -178 -72 -178 -180v-306h-38z" />
    <glyph glyph-name="o" unicode="o" horiz-adv-x="579" 
d="M65 256c0 166 66 264 225 264c163 0 224 -92 224 -264c0 -166 -69 -266 -225 -266c-162 0 -224 95 -224 266zM104 259v-3c0 -154 54 -231 186 -231c131 0 185 79 185 232v3c0 148 -47 226 -186 226c-131 0 -185 -78 -185 -227z" />
    <glyph glyph-name="p" unicode="p" horiz-adv-x="599" 
d="M93 -180v690h31l7 -117c28 94 103 127 197 127c142 0 206 -77 206 -255c0 -183 -66 -275 -213 -275c-94 0 -163 44 -190 131v-301h-38zM131 234c0 -101 50 -209 184 -209c131 0 180 85 180 239c0 151 -45 222 -173 222c-119 0 -191 -71 -191 -205v-47z" />
    <glyph glyph-name="q" unicode="q" horiz-adv-x="599" 
d="M468 -180v302c-28 -89 -90 -132 -192 -132c-141 0 -211 92 -211 261c0 194 81 269 219 269c108 0 166 -56 184 -125l6 115h32v-690h-38zM283 25c116 0 185 59 185 210v53c0 99 -43 198 -182 198c-127 0 -182 -71 -182 -235c0 -150 60 -226 179 -226z" />
    <glyph glyph-name="r" unicode="r" horiz-adv-x="388" 
d="M93 0v510h29l7 -115c20 95 85 125 164 125c20 0 49 -5 62 -12v-46c-17 15 -45 22 -76 22c-91 0 -148 -55 -148 -183v-301h-38z" />
    <glyph glyph-name="s" unicode="s" horiz-adv-x="441" 
d="M350 496v-51c-31 23 -72 41 -124 41c-91 0 -127 -33 -127 -94c0 -164 279 -49 279 -258c0 -96 -58 -144 -180 -144c-54 0 -105 12 -134 29v52c32 -29 87 -46 136 -46c92 0 138 32 138 107c0 170 -279 66 -279 258c0 69 34 130 169 130c56 0 105 -15 122 -24z" />
    <glyph glyph-name="t" unicode="t" horiz-adv-x="386" 
d="M137 118v358h-105v34h105v109l38 15v-124h159v-34h-159v-359c0 -68 25 -92 76 -92c38 0 71 15 88 25v-43c-18 -11 -49 -17 -83 -17c-83 0 -119 33 -119 128z" />
    <glyph glyph-name="u" unicode="u" horiz-adv-x="584" 
d="M459 0l-6 122c-27 -98 -101 -132 -192 -132c-125 0 -173 68 -173 170v350h38v-348c0 -100 49 -137 141 -137c123 0 186 78 186 179v306h38v-510h-32z" />
    <glyph glyph-name="v" unicode="v" horiz-adv-x="506" 
d="M232 0l-199 510h42l178 -466l180 466h40l-199 -510h-42z" />
    <glyph glyph-name="w" unicode="w" horiz-adv-x="767" 
d="M183 0l-136 510h40l122 -473l152 473h47l148 -472l126 472h37l-139 -510h-49l-148 474l-152 -474h-48z" />
    <glyph glyph-name="x" unicode="x" horiz-adv-x="494" 
d="M32 0l193 268l-174 242h46l152 -214l152 214h43l-174 -241l192 -269h-46l-170 238l-169 -238h-45z" />
    <glyph glyph-name="y" unicode="y" horiz-adv-x="519" 
d="M157 -151c68 0 78 75 105 146l-225 515h42l203 -468l165 468h40l-201 -552c-38 -106 -65 -144 -136 -144c-23 0 -39 4 -52 10v43c12 -10 29 -18 59 -18z" />
    <glyph glyph-name="z" unicode="z" horiz-adv-x="475" 
d="M52 0v36l323 440h-314v34h358v-35l-323 -440h327v-35h-371z" />
    <glyph glyph-name="braceleft" unicode="{" horiz-adv-x="357" 
d="M162 -41v195c0 64 -31 109 -91 114v34c60 5 91 51 91 114v195c0 46 7 139 121 139h35v-32h-31c-76 0 -88 -61 -88 -112v-193c0 -60 -25 -113 -86 -127c61 -14 86 -70 86 -129v-193c0 -51 12 -112 88 -112h31v-32h-35c-114 0 -121 92 -121 139z" />
    <glyph glyph-name="bar" unicode="|" horiz-adv-x="281" 
d="M123 -180v930h38v-930h-38z" />
    <glyph glyph-name="braceright" unicode="}" horiz-adv-x="357" 
d="M195 -41c0 -47 -7 -139 -121 -139h-35v32h32c77 0 87 61 87 112v203c0 59 26 113 86 127c-60 14 -86 69 -86 129v183c0 51 -10 112 -87 112h-32v32h35c114 0 121 -93 121 -139v-185c0 -64 32 -110 90 -115v-33c-58 -6 -90 -52 -90 -115v-204z" />
    <glyph glyph-name="asciitilde" unicode="~" horiz-adv-x="581" 
d="M89 282v54c24 28 58 40 102 40c70 0 137 -69 202 -69c51 0 84 32 100 58v-54c-23 -28 -58 -40 -99 -40c-79 0 -146 69 -204 69c-52 0 -83 -32 -101 -58z" />
    <glyph glyph-name="uni00A0" unicode="&#xa0;" horiz-adv-x="296" 
 />
    <glyph glyph-name="exclamdown" unicode="&#xa1;" horiz-adv-x="369" 
d="M148 485c0 21 15 36 38 36c24 0 38 -14 38 -36s-15 -36 -38 -36c-24 0 -38 14 -38 36zM165 302h41v-490h-41v490z" />
    <glyph glyph-name="cent" unicode="&#xa2;" horiz-adv-x="557" 
d="M309 -120v113c-153 9 -212 111 -212 267c0 155 66 250 212 258v92h28v-91c54 -1 104 -15 125 -22v-45c-26 16 -75 32 -124 32c-141 0 -201 -80 -201 -221c0 -152 64 -236 207 -236c43 0 104 18 128 35v-44c-25 -11 -80 -26 -135 -26v-112h-28z" />
    <glyph glyph-name="sterling" unicode="&#xa3;" horiz-adv-x="585" 
d="M82 0v38h97v322h-97v28h97v85c0 79 26 237 218 237c51 0 97 -10 122 -19v-38c-41 13 -74 20 -126 20c-120 0 -174 -89 -174 -203v-82h212v-28h-212v-322h305v-38h-442z" />
    <glyph glyph-name="currency" unicode="&#xa4;" horiz-adv-x="560" 
d="M83 130l-24 23l70 71c-29 31 -47 76 -47 126s18 94 47 126l-70 70l24 25l70 -70c32 28 76 46 127 46c50 0 96 -18 127 -46l71 70l23 -24l-69 -71c26 -31 45 -76 45 -126c0 -49 -19 -94 -45 -126l69 -71l-24 -24l-70 70c-32 -28 -77 -46 -127 -46c-51 0 -95 18 -127 46z
M115 350c0 -91 75 -166 165 -166c91 0 165 75 165 166c0 92 -74 166 -165 166c-90 0 -165 -75 -165 -166z" />
    <glyph glyph-name="yen" unicode="&#xa5;" horiz-adv-x="612" 
d="M126 177v28h160v95l-3 5h-157v28h139l-223 367h48l217 -359l216 359h47l-224 -367h141v-28h-158l-2 -5v-95h160v-28h-160v-177h-41v177h-160z" />
    <glyph glyph-name="brokenbar" unicode="&#xa6;" horiz-adv-x="283" 
d="M124 -180v390h37v-390h-37zM124 360v390h37v-390h-37z" />
    <glyph glyph-name="section" unicode="&#xa7;" horiz-adv-x="557" 
d="M428 683v-41c-40 19 -82 31 -131 31c-78 0 -130 -35 -130 -94c0 -44 28 -70 112 -112c12 -6 62 -32 75 -37c62 -31 110 -65 110 -140c0 -57 -42 -113 -105 -164c52 -33 74 -64 74 -111c0 -90 -83 -133 -171 -133c-58 0 -109 14 -141 29v42c41 -21 82 -35 139 -35
c79 0 131 37 131 96c0 54 -45 80 -120 119c-12 6 -65 33 -77 40c-59 29 -100 67 -100 138c0 60 38 106 111 153c-54 30 -81 66 -81 114c0 95 91 132 176 132c55 0 105 -16 128 -27zM135 318c0 -55 24 -86 90 -120c21 -12 83 -44 107 -57c48 42 91 87 91 143
c0 51 -24 81 -87 115c-19 11 -73 35 -102 51c-57 -37 -99 -77 -99 -132z" />
    <glyph glyph-name="dieresis" unicode="&#xa8;" horiz-adv-x="586" 
d="M182 670c0 20 12 32 32 32s32 -12 32 -32s-12 -32 -32 -32s-32 12 -32 32zM338 670c0 20 12 32 32 32s32 -12 32 -32s-12 -32 -32 -32s-32 12 -32 32z" />
    <glyph glyph-name="copyright" unicode="&#xa9;" horiz-adv-x="915" 
d="M92 343c0 202 152 363 364 363c214 0 365 -161 365 -363c0 -200 -151 -361 -365 -361c-212 0 -364 161 -364 361zM123 343c0 -183 138 -331 333 -331c197 0 335 148 335 331c0 185 -138 333 -335 333c-195 0 -333 -148 -333 -333zM554 533v-30c-27 9 -56 12 -83 12
c-102 0 -157 -59 -157 -170c0 -119 60 -170 156 -170c27 0 58 3 86 15l-1 -32c-26 -8 -54 -13 -88 -13c-128 0 -188 76 -188 198c0 131 68 201 189 201c37 0 64 -5 86 -11z" />
    <glyph glyph-name="ordfeminine" unicode="&#xaa;" horiz-adv-x="395" 
d="M286 373l-3 65h-1c-15 -36 -55 -70 -114 -70c-73 0 -110 36 -110 96c0 65 42 100 125 100h97v34c0 57 -29 85 -97 85c-33 0 -66 -12 -95 -29v35c29 12 62 21 100 21c93 0 126 -41 126 -119v-218h-28zM91 466c0 -43 31 -70 85 -70c61 0 104 42 104 104v39h-94
c-68 0 -95 -25 -95 -73z" />
    <glyph glyph-name="guillemotleft" unicode="&#xab;" horiz-adv-x="522" 
d="M223 76l-138 193l138 193h42l-136 -193l136 -193h-42zM405 76l-138 193l138 193h42l-136 -193l136 -193h-42z" />
    <glyph glyph-name="logicalnot" unicode="&#xac;" horiz-adv-x="702" 
d="M67 346v35h538v-210h-36v175h-502z" />
    <glyph glyph-name="uni00AD" unicode="&#xad;" horiz-adv-x="469" 
d="M107 269v36h254v-36h-254z" />
    <glyph glyph-name="registered" unicode="&#xae;" horiz-adv-x="598" 
d="M50 520c0 148 100 246 249 246s249 -98 249 -246s-100 -246 -249 -246s-249 98 -249 246zM81 520c0 -129 90 -217 218 -217s218 88 218 217s-90 217 -218 217s-218 -88 -218 -217zM206 392v271h92c39 0 102 -6 102 -82c0 -41 -23 -67 -52 -77l70 -112h-40l-65 106h-72
v-106h-35zM241 528h60c32 0 63 11 63 53c0 44 -28 52 -64 52h-59v-105z" />
    <glyph glyph-name="macron" unicode="&#xaf;" horiz-adv-x="581" 
d="M165 653v34h250v-34h-250z" />
    <glyph glyph-name="degree" unicode="&#xb0;" horiz-adv-x="421" 
d="M67 568c0 81 57 142 143 142c87 0 143 -61 143 -142c0 -82 -56 -143 -143 -143c-86 0 -143 61 -143 143zM97 567c0 -61 43 -112 112 -112c72 0 114 50 114 112s-42 113 -114 113c-70 0 -112 -51 -112 -113z" />
    <glyph glyph-name="plusminus" unicode="&#xb1;" horiz-adv-x="590" 
d="M74 107v36h442v-36h-442zM74 408v36h203v179h36v-179h203v-36h-203v-180h-36v180h-203z" />
    <glyph glyph-name="twosuperior" unicode="&#xb2;" 
d="M60 382v36l115 85c94 69 152 119 152 183c0 67 -53 89 -117 89c-50 0 -100 -11 -133 -26v34c44 18 93 25 139 25c89 0 150 -34 150 -115c0 -76 -57 -133 -167 -213l-89 -64v-1h263v-33h-313z" />
    <glyph glyph-name="threesuperior" unicode="&#xb3;" 
d="M143 586v28h67c81 0 126 34 126 80c0 63 -48 81 -124 81c-48 0 -99 -6 -132 -20v33c40 15 93 20 142 20c102 0 152 -40 152 -106c0 -57 -46 -88 -109 -99v-2c87 -10 120 -55 120 -101c0 -92 -91 -124 -174 -124c-48 0 -96 4 -138 22v33c36 -17 87 -23 135 -23
c104 0 138 48 138 92c0 58 -48 86 -133 86h-70z" />
    <glyph glyph-name="acute" unicode="&#xb4;" horiz-adv-x="581" 
d="M282 605l84 130h56l-104 -130h-36z" />
    <glyph glyph-name="mu" unicode="&#xb5;" horiz-adv-x="586" 
d="M460 0l-6 122c-27 -98 -101 -130 -192 -130c-64 0 -109 18 -136 49v-251h-38v721h39v-349c0 -100 49 -135 141 -135c123 0 186 77 186 177v307h39v-511h-33z" />
    <glyph glyph-name="mu" unicode="&#x3bc;" horiz-adv-x="586" 
d="M460 0l-6 122c-27 -98 -101 -130 -192 -130c-64 0 -109 18 -136 49v-251h-38v721h39v-349c0 -100 49 -135 141 -135c123 0 186 77 186 177v307h39v-511h-33z" />
    <glyph glyph-name="paragraph" unicode="&#xb6;" horiz-adv-x="520" 
d="M226 -210v618c-116 0 -166 67 -166 145c0 102 85 147 175 147h178v-910h-32v881h-122v-881h-33z" />
    <glyph glyph-name="periodcentered" unicode="&#xb7;" horiz-adv-x="183" 
d="M57 346c0 21 12 34 34 34c21 0 36 -14 36 -34c0 -22 -14 -35 -36 -35s-34 14 -34 35z" />
    <glyph glyph-name="cedilla" unicode="&#xb8;" horiz-adv-x="432" 
d="M178 -75l11 75h26l-6 -51c65 0 100 -21 100 -71c0 -44 -37 -78 -94 -78c-26 0 -46 5 -64 14l4 25c20 -9 35 -12 58 -12c38 0 62 20 62 53c0 37 -38 47 -68 47c-8 0 -21 0 -29 -2z" />
    <glyph glyph-name="onesuperior" unicode="&#xb9;" 
d="M252 382v375l-133 -74l-17 28l159 89h30v-418h-39z" />
    <glyph glyph-name="ordmasculine" unicode="&#xba;" horiz-adv-x="397" 
d="M46 539c0 106 59 171 153 171c95 0 152 -61 152 -171c0 -105 -61 -171 -152 -171c-96 0 -153 61 -153 171zM81 539c0 -94 47 -142 118 -142c70 0 117 51 117 142c0 86 -38 142 -117 142c-73 0 -118 -51 -118 -142z" />
    <glyph glyph-name="guillemotright" unicode="&#xbb;" horiz-adv-x="522" 
d="M437 269l-138 -193h-42l136 193l-136 193h42zM255 269l-138 -193h-42l136 193l-136 193h42z" />
    <glyph glyph-name="onequarter" unicode="&#xbc;" horiz-adv-x="950" 
d="M189 -21l457 740h36l-457 -740h-36zM223 282v375l-133 -74l-17 28l159 89h30v-418h-39zM499 108v29l270 281h49v-279h54v-31h-54v-108h-38v108h-281zM780 139v246h-1l-234 -246h235z" />
    <glyph glyph-name="onehalf" unicode="&#xbd;" horiz-adv-x="950" 
d="M170 -21l457 740h36l-457 -740h-36zM223 282v375l-133 -74l-17 28l159 89h30v-418h-39zM549 0v36l115 85c94 69 152 119 152 183c0 67 -53 89 -117 89c-50 0 -100 -11 -133 -26v34c44 18 93 25 139 25c89 0 150 -34 150 -115c0 -76 -57 -133 -167 -213l-89 -64v-1h263
v-33h-313z" />
    <glyph glyph-name="threequarters" unicode="&#xbe;" horiz-adv-x="950" 
d="M242 -21l457 740h36l-457 -740h-36zM500 108v29l270 281h49v-279h54v-31h-54v-108h-38v108h-281zM781 139v246h-1l-234 -246h235zM146 486v28h67c81 0 126 34 126 80c0 63 -48 81 -124 81c-48 0 -99 -6 -132 -20v33c40 15 93 20 142 20c102 0 152 -40 152 -106
c0 -57 -46 -88 -109 -99v-2c87 -10 120 -55 120 -101c0 -92 -91 -124 -174 -124c-48 0 -96 4 -138 22v33c36 -17 87 -23 135 -23c104 0 138 48 138 92c0 58 -48 86 -133 86h-70z" />
    <glyph glyph-name="questiondown" unicode="&#xbf;" horiz-adv-x="490" 
d="M306 324c0 -204 -200 -166 -200 -341c0 -110 53 -142 154 -142c76 0 127 24 167 53v-55c-60 -30 -120 -37 -160 -37c-141 0 -202 51 -202 180c0 197 203 157 203 342h38zM324 485c0 -22 -14 -36 -37 -36c-24 0 -38 14 -38 36s14 36 38 36c23 0 37 -15 37 -36z" />
    <glyph glyph-name="Agrave" unicode="&#xc0;" horiz-adv-x="633" 
d="M558 0l-78 212h-328l-78 -212h-42l267 700h40l262 -700h-43zM317 656l-151 -407h300zM186 910h58l92 -140h-38z" />
    <glyph glyph-name="Aacute" unicode="&#xc1;" horiz-adv-x="633" 
d="M558 0l-78 212h-328l-78 -212h-42l267 700h40l262 -700h-43zM317 656l-151 -407h300zM298 770l92 140h58l-112 -140h-38z" />
    <glyph glyph-name="Acircumflex" unicode="&#xc2;" horiz-adv-x="633" 
d="M558 0l-78 212h-328l-78 -212h-42l267 700h40l262 -700h-43zM317 656l-151 -407h300zM166 770l127 140h48l125 -140h-41l-108 110l-108 -110h-43z" />
    <glyph glyph-name="Atilde" unicode="&#xc3;" horiz-adv-x="633" 
d="M558 0l-78 212h-328l-78 -212h-42l267 700h40l262 -700h-43zM317 656l-151 -407h300zM206 802l-30 8c7 39 35 71 74 71c24 0 43 -11 71 -25c26 -12 43 -24 62 -24c20 0 35 14 43 45l30 -8c-10 -43 -40 -70 -74 -70c-19 0 -33 7 -70 25c-25 12 -38 24 -59 24
s-37 -14 -47 -46z" />
    <glyph glyph-name="Adieresis" unicode="&#xc4;" horiz-adv-x="633" 
d="M558 0l-78 212h-328l-78 -212h-42l267 700h40l262 -700h-43zM317 656l-151 -407h300zM176 840c0 22 12 34 34 34s34 -12 34 -34s-12 -34 -34 -34s-34 12 -34 34zM388 840c0 22 12 34 34 34s34 -12 34 -34s-12 -34 -34 -34s-34 12 -34 34z" />
    <glyph glyph-name="Aring" unicode="&#xc5;" horiz-adv-x="633" 
d="M558 0l-78 212h-328l-78 -212h-42l267 700h40l262 -700h-43zM317 656l-151 -407h300zM224 840c0 53 29 92 92 92s92 -39 92 -92c0 -54 -29 -92 -92 -92s-92 38 -92 92zM256 840c0 -38 22 -60 60 -60s60 22 60 60s-22 60 -60 60s-60 -22 -60 -60z" />
    <glyph glyph-name="AE" unicode="&#xc6;" horiz-adv-x="954" 
d="M494 0v212h-288l-135 -212h-46l447 700h412v-38h-351v-284h325v-37h-325v-303h352v-38h-391zM229 249h265v416z" />
    <glyph glyph-name="Ccedilla" unicode="&#xc7;" horiz-adv-x="637" 
d="M335 -85l10 76c-174 10 -272 115 -272 351c0 263 106 368 306 368c78 0 128 -13 161 -24v-47c-44 20 -103 33 -163 33c-168 0 -262 -91 -262 -323c0 -230 96 -321 266 -321c59 0 121 16 161 36v-45c-39 -16 -97 -29 -167 -29h-1l-7 -48c72 -1 115 -23 115 -79
c0 -53 -46 -83 -104 -83c-34 0 -56 5 -76 16l4 26c22 -11 39 -14 69 -14c37 0 71 15 71 55c0 41 -42 54 -81 54c-8 0 -23 0 -30 -2z" />
    <glyph glyph-name="Egrave" unicode="&#xc8;" horiz-adv-x="590" 
d="M108 0v700h400v-38h-360v-284h333v-37h-333v-303h360v-38h-400zM175 910h58l92 -140h-38z" />
    <glyph glyph-name="Eacute" unicode="&#xc9;" horiz-adv-x="590" 
d="M108 0v700h400v-38h-360v-284h333v-37h-333v-303h360v-38h-400zM288 770l92 140h58l-112 -140h-38z" />
    <glyph glyph-name="Ecircumflex" unicode="&#xca;" horiz-adv-x="590" 
d="M108 0v700h400v-38h-360v-284h333v-37h-333v-303h360v-38h-400zM158 770l127 140h48l125 -140h-41l-108 110l-108 -110h-43z" />
    <glyph glyph-name="Edieresis" unicode="&#xcb;" horiz-adv-x="590" 
d="M108 0v700h400v-38h-360v-284h333v-37h-333v-303h360v-38h-400zM168 840c0 22 12 34 34 34s34 -12 34 -34s-12 -34 -34 -34s-34 12 -34 34zM380 840c0 22 12 34 34 34s34 -12 34 -34s-12 -34 -34 -34s-34 12 -34 34z" />
    <glyph glyph-name="Igrave" unicode="&#xcc;" horiz-adv-x="267" 
d="M113 0v700h40v-700h-40zM3 910h58l92 -140h-38z" />
    <glyph glyph-name="Iacute" unicode="&#xcd;" horiz-adv-x="267" 
d="M113 0v700h40v-700h-40zM115 770l92 140h58l-112 -140h-38z" />
    <glyph glyph-name="Icircumflex" unicode="&#xce;" horiz-adv-x="267" 
d="M113 0v700h40v-700h-40zM-17 770l127 140h48l125 -140h-41l-108 110l-108 -110h-43z" />
    <glyph glyph-name="Idieresis" unicode="&#xcf;" horiz-adv-x="267" 
d="M113 0v700h40v-700h-40zM-7 840c0 22 12 34 34 34s34 -12 34 -34s-12 -34 -34 -34s-34 12 -34 34zM205 840c0 22 12 34 34 34s34 -12 34 -34s-12 -34 -34 -34s-34 12 -34 34z" />
    <glyph glyph-name="Eth" unicode="&#xd0;" horiz-adv-x="699" 
d="M12 340v36h106v324c69 3 100 4 174 4c261 0 334 -108 334 -340c0 -261 -96 -368 -347 -368c-67 0 -98 1 -161 4v340h-106zM157 38c50 -3 69 -4 119 -4c239 0 308 105 308 327c0 217 -57 305 -296 305c-54 0 -77 -1 -131 -4v-286h216v-36h-216v-302z" />
    <glyph glyph-name="Ntilde" unicode="&#xd1;" horiz-adv-x="724" 
d="M108 0v700h47l354 -531l67 -101v632h39v-700h-41l-366 549c-2 2 -59 89 -61 92c1 -3 1 -86 1 -89v-552h-40zM251 802l-30 8c7 39 35 71 74 71c24 0 43 -11 71 -25c26 -12 43 -24 62 -24c20 0 35 14 43 45l30 -8c-10 -43 -40 -70 -74 -70c-19 0 -33 7 -70 25
c-25 12 -38 24 -59 24s-37 -14 -47 -46z" />
    <glyph glyph-name="Ograve" unicode="&#xd2;" horiz-adv-x="735" 
d="M73 350c0 237 101 360 292 360c215 0 297 -126 297 -360c0 -250 -107 -360 -295 -360c-198 0 -294 122 -294 360zM115 350c0 -214 78 -322 255 -322c168 0 250 102 250 322c0 213 -69 322 -256 322c-169 0 -249 -111 -249 -322zM237 910h58l92 -140h-38z" />
    <glyph glyph-name="Oacute" unicode="&#xd3;" horiz-adv-x="735" 
d="M73 350c0 237 101 360 292 360c215 0 297 -126 297 -360c0 -250 -107 -360 -295 -360c-198 0 -294 122 -294 360zM115 350c0 -214 78 -322 255 -322c168 0 250 102 250 322c0 213 -69 322 -256 322c-169 0 -249 -111 -249 -322zM349 770l92 140h58l-112 -140h-38z" />
    <glyph glyph-name="Ocircumflex" unicode="&#xd4;" horiz-adv-x="735" 
d="M73 350c0 237 101 360 292 360c215 0 297 -126 297 -360c0 -250 -107 -360 -295 -360c-198 0 -294 122 -294 360zM115 350c0 -214 78 -322 255 -322c168 0 250 102 250 322c0 213 -69 322 -256 322c-169 0 -249 -111 -249 -322zM217 770l127 140h48l125 -140h-41
l-108 110l-108 -110h-43z" />
    <glyph glyph-name="Otilde" unicode="&#xd5;" horiz-adv-x="735" 
d="M73 350c0 237 101 360 292 360c215 0 297 -126 297 -360c0 -250 -107 -360 -295 -360c-198 0 -294 122 -294 360zM115 350c0 -214 78 -322 255 -322c168 0 250 102 250 322c0 213 -69 322 -256 322c-169 0 -249 -111 -249 -322zM257 802l-30 8c7 39 35 71 74 71
c24 0 43 -11 71 -25c26 -12 43 -24 62 -24c20 0 35 14 43 45l30 -8c-10 -43 -40 -70 -74 -70c-19 0 -33 7 -70 25c-25 12 -38 24 -59 24s-37 -14 -47 -46z" />
    <glyph glyph-name="Odieresis" unicode="&#xd6;" horiz-adv-x="735" 
d="M73 350c0 237 101 360 292 360c215 0 297 -126 297 -360c0 -250 -107 -360 -295 -360c-198 0 -294 122 -294 360zM115 350c0 -214 78 -322 255 -322c168 0 250 102 250 322c0 213 -69 322 -256 322c-169 0 -249 -111 -249 -322zM227 840c0 22 12 34 34 34s34 -12 34 -34
s-12 -34 -34 -34s-34 12 -34 34zM439 840c0 22 12 34 34 34s34 -12 34 -34s-12 -34 -34 -34s-34 12 -34 34z" />
    <glyph glyph-name="multiply" unicode="&#xd7;" horiz-adv-x="530" 
d="M84 168l157 156l-157 156l26 25l155 -156l156 156l25 -25l-156 -156l156 -156l-25 -25l-156 156l-155 -156z" />
    <glyph glyph-name="Oslash" unicode="&#xd8;" horiz-adv-x="735" 
d="M73 350c0 237 101 360 292 360c98 0 169 -27 216 -78l70 88l24 -18l-74 -94c42 -60 61 -147 61 -258c0 -250 -107 -360 -295 -360c-86 0 -153 23 -201 68l-63 -79l-24 16l67 85c-49 61 -73 150 -73 270zM115 350c0 -104 18 -183 57 -237l383 486c-41 49 -103 73 -191 73
c-169 0 -249 -111 -249 -322zM620 350c0 96 -14 170 -47 224l-381 -483c41 -42 100 -63 178 -63c168 0 250 102 250 322z" />
    <glyph glyph-name="Ugrave" unicode="&#xd9;" horiz-adv-x="703" 
d="M99 266v434h39v-432c0 -206 87 -241 214 -241c130 0 213 34 213 242v431h40v-430c0 -203 -72 -280 -253 -280c-182 0 -253 77 -253 276zM221 910h58l92 -140h-38z" />
    <glyph glyph-name="Uacute" unicode="&#xda;" horiz-adv-x="703" 
d="M99 266v434h39v-432c0 -206 87 -241 214 -241c130 0 213 34 213 242v431h40v-430c0 -203 -72 -280 -253 -280c-182 0 -253 77 -253 276zM333 770l92 140h58l-112 -140h-38z" />
    <glyph glyph-name="Ucircumflex" unicode="&#xdb;" horiz-adv-x="703" 
d="M99 266v434h39v-432c0 -206 87 -241 214 -241c130 0 213 34 213 242v431h40v-430c0 -203 -72 -280 -253 -280c-182 0 -253 77 -253 276zM202 770l127 140h48l125 -140h-41l-108 110l-108 -110h-43z" />
    <glyph glyph-name="Udieresis" unicode="&#xdc;" horiz-adv-x="703" 
d="M99 266v434h39v-432c0 -206 87 -241 214 -241c130 0 213 34 213 242v431h40v-430c0 -203 -72 -280 -253 -280c-182 0 -253 77 -253 276zM212 840c0 22 12 34 34 34s34 -12 34 -34s-12 -34 -34 -34s-34 12 -34 34zM424 840c0 22 12 34 34 34s34 -12 34 -34
s-12 -34 -34 -34s-34 12 -34 34z" />
    <glyph glyph-name="Yacute" unicode="&#xdd;" horiz-adv-x="574" 
d="M268 0v291l-241 409h47l214 -368l211 368h48l-239 -409v-291h-40zM269 770l92 140h58l-112 -140h-38z" />
    <glyph glyph-name="Thorn" unicode="&#xde;" horiz-adv-x="589" 
d="M108 0v700h40v-109h139c155 0 246 -51 246 -201c0 -140 -80 -215 -250 -215h-135v-175h-40zM148 212h135c172 0 208 89 208 178c0 91 -36 163 -208 163h-135v-341z" />
    <glyph glyph-name="germandbls" unicode="&#xdf;" horiz-adv-x="591" 
d="M90 0v513c0 132 43 245 214 245c92 0 187 -47 187 -177c0 -85 -40 -147 -114 -171v-2c109 -12 153 -94 153 -193c0 -157 -102 -223 -209 -223c-21 0 -50 1 -72 7v35c23 -5 41 -7 69 -7c71 0 172 36 172 186c0 137 -83 173 -167 173h-59v35h50c65 0 138 47 138 157
c0 82 -49 145 -151 145c-137 0 -172 -99 -172 -205v-518h-39z" />
    <glyph glyph-name="agrave" unicode="&#xe0;" horiz-adv-x="525" 
d="M407 0l-7 122c-22 -81 -74 -132 -173 -132c-116 0 -169 51 -169 152c0 99 51 145 213 145h127v62c0 96 -46 137 -147 137c-63 0 -126 -28 -158 -54v50c29 17 94 38 162 38c137 0 182 -60 182 -179v-341h-30zM98 146c0 -78 37 -121 139 -121c95 0 161 67 161 179v51h-123
c-145 0 -177 -38 -177 -109zM280 608h-36l-104 130h56z" />
    <glyph glyph-name="aacute" unicode="&#xe1;" horiz-adv-x="525" 
d="M407 0l-7 122c-22 -81 -74 -132 -173 -132c-116 0 -169 51 -169 152c0 99 51 145 213 145h127v62c0 96 -46 137 -147 137c-63 0 -126 -28 -158 -54v50c29 17 94 38 162 38c137 0 182 -60 182 -179v-341h-30zM98 146c0 -78 37 -121 139 -121c95 0 161 67 161 179v51h-123
c-145 0 -177 -38 -177 -109zM245 605l84 130h56l-104 -130h-36z" />
    <glyph glyph-name="acircumflex" unicode="&#xe2;" horiz-adv-x="525" 
d="M407 0l-7 122c-22 -81 -74 -132 -173 -132c-116 0 -169 51 -169 152c0 99 51 145 213 145h127v62c0 96 -46 137 -147 137c-63 0 -126 -28 -158 -54v50c29 17 94 38 162 38c137 0 182 -60 182 -179v-341h-30zM98 146c0 -78 37 -121 139 -121c95 0 161 67 161 179v51h-123
c-145 0 -177 -38 -177 -109zM122 605l118 130h44l118 -130h-38l-102 100l-103 -100h-37z" />
    <glyph glyph-name="atilde" unicode="&#xe3;" horiz-adv-x="525" 
d="M407 0l-7 122c-22 -81 -74 -132 -173 -132c-116 0 -169 51 -169 152c0 99 51 145 213 145h127v62c0 96 -46 137 -147 137c-63 0 -126 -28 -158 -54v50c29 17 94 38 162 38c137 0 182 -60 182 -179v-341h-30zM98 146c0 -78 37 -121 139 -121c95 0 161 67 161 179v51h-123
c-145 0 -177 -38 -177 -109zM155 636l-28 7c6 38 30 65 69 65c23 0 43 -9 71 -22c26 -11 46 -23 63 -23c20 0 32 11 40 41l27 -8c-8 -41 -33 -64 -67 -64c-20 0 -34 5 -72 23c-22 11 -43 21 -61 21c-20 0 -33 -9 -42 -40z" />
    <glyph glyph-name="adieresis" unicode="&#xe4;" horiz-adv-x="525" 
d="M407 0l-7 122c-22 -81 -74 -132 -173 -132c-116 0 -169 51 -169 152c0 99 51 145 213 145h127v62c0 96 -46 137 -147 137c-63 0 -126 -28 -158 -54v50c29 17 94 38 162 38c137 0 182 -60 182 -179v-341h-30zM98 146c0 -78 37 -121 139 -121c95 0 161 67 161 179v51h-123
c-145 0 -177 -38 -177 -109zM151 670c0 20 12 32 32 32s32 -12 32 -32s-12 -32 -32 -32s-32 12 -32 32zM307 670c0 20 12 32 32 32s32 -12 32 -32s-12 -32 -32 -32s-32 12 -32 32z" />
    <glyph glyph-name="aring" unicode="&#xe5;" horiz-adv-x="525" 
d="M407 0l-7 122c-22 -81 -74 -132 -173 -132c-116 0 -169 51 -169 152c0 99 51 145 213 145h127v62c0 96 -46 137 -147 137c-63 0 -126 -28 -158 -54v50c29 17 94 38 162 38c137 0 182 -60 182 -179v-341h-30zM98 146c0 -78 37 -121 139 -121c95 0 161 67 161 179v51h-123
c-145 0 -177 -38 -177 -109zM172 670c0 51 29 90 90 90s90 -39 90 -90c0 -53 -29 -90 -90 -90s-90 37 -90 90zM202 670c0 -38 22 -60 60 -60s60 22 60 60s-22 60 -60 60s-60 -22 -60 -60z" />
    <glyph glyph-name="ae" unicode="&#xe6;" horiz-adv-x="885" 
d="M822 251h-384c1 -151 59 -224 195 -224c67 0 120 21 156 52v-45c-28 -21 -85 -42 -156 -42c-111 0 -179 41 -212 124c-29 -77 -87 -124 -193 -124c-116 0 -170 49 -170 150c0 99 51 145 214 145h127v62c0 96 -47 136 -148 136c-62 0 -126 -27 -158 -53v50
c29 17 95 37 163 37c105 0 155 -35 173 -104c35 73 101 104 186 104c157 0 207 -90 207 -250v-18zM616 486c-114 0 -172 -67 -178 -202h344c1 108 -28 202 -166 202zM98 146c0 -78 37 -119 139 -119c96 0 162 65 162 177v51h-123c-145 0 -178 -38 -178 -109z" />
    <glyph glyph-name="ccedilla" unicode="&#xe7;" horiz-adv-x="500" 
d="M274 -75l9 66c-156 8 -218 108 -218 269c0 164 73 260 236 260c57 0 108 -14 131 -23v-45c-27 16 -77 33 -127 33c-141 0 -201 -80 -201 -223c0 -152 64 -237 208 -237c44 0 105 18 130 37v-46c-24 -11 -77 -25 -132 -26l-5 -41c65 0 100 -21 100 -71
c0 -44 -37 -78 -94 -78c-26 0 -46 5 -64 14l4 25c20 -9 35 -12 58 -12c38 0 62 20 62 53c0 37 -38 47 -68 47c-8 0 -21 0 -29 -2z" />
    <glyph glyph-name="egrave" unicode="&#xe8;" horiz-adv-x="551" 
d="M488 251h-384c1 -151 59 -226 196 -226c67 0 120 21 155 52v-45c-28 -21 -85 -42 -156 -42c-162 0 -234 89 -234 271c0 183 85 259 216 259c158 0 207 -91 207 -251v-18zM282 487c-114 0 -173 -68 -178 -203h344c1 108 -28 203 -166 203zM294 608h-36l-104 130h56z" />
    <glyph glyph-name="eacute" unicode="&#xe9;" horiz-adv-x="551" 
d="M488 251h-384c1 -151 59 -226 196 -226c67 0 120 21 155 52v-45c-28 -21 -85 -42 -156 -42c-162 0 -234 89 -234 271c0 183 85 259 216 259c158 0 207 -91 207 -251v-18zM282 487c-114 0 -173 -68 -178 -203h344c1 108 -28 203 -166 203zM259 605l84 130h56l-104 -130
h-36z" />
    <glyph glyph-name="ecircumflex" unicode="&#xea;" horiz-adv-x="551" 
d="M488 251h-384c1 -151 59 -226 196 -226c67 0 120 21 155 52v-45c-28 -21 -85 -42 -156 -42c-162 0 -234 89 -234 271c0 183 85 259 216 259c158 0 207 -91 207 -251v-18zM282 487c-114 0 -173 -68 -178 -203h344c1 108 -28 203 -166 203zM136 605l118 130h44l118 -130
h-38l-102 100l-103 -100h-37z" />
    <glyph glyph-name="edieresis" unicode="&#xeb;" horiz-adv-x="551" 
d="M488 251h-384c1 -151 59 -226 196 -226c67 0 120 21 155 52v-45c-28 -21 -85 -42 -156 -42c-162 0 -234 89 -234 271c0 183 85 259 216 259c158 0 207 -91 207 -251v-18zM282 487c-114 0 -173 -68 -178 -203h344c1 108 -28 203 -166 203zM171 670c0 20 12 32 32 32
s32 -12 32 -32s-12 -32 -32 -32s-32 12 -32 32zM327 670c0 20 12 32 32 32s32 -12 32 -32s-12 -32 -32 -32s-32 12 -32 32z" />
    <glyph glyph-name="igrave" unicode="&#xec;" horiz-adv-x="253" 
d="M107 0v510h38v-510h-38zM144 608h-36l-104 130h56z" />
    <glyph glyph-name="iacute" unicode="&#xed;" horiz-adv-x="253" 
d="M107 0v510h38v-510h-38zM109 605l84 130h56l-104 -130h-36z" />
    <glyph glyph-name="icircumflex" unicode="&#xee;" horiz-adv-x="253" 
d="M107 0v510h38v-510h-38zM-14 605l118 130h44l118 -130h-38l-102 100l-103 -100h-37z" />
    <glyph glyph-name="idieresis" unicode="&#xef;" horiz-adv-x="253" 
d="M107 0v510h38v-510h-38zM16 670c0 20 12 32 32 32s32 -12 32 -32s-12 -32 -32 -32s-32 12 -32 32zM172 670c0 20 12 32 32 32s32 -12 32 -32s-12 -32 -32 -32s-32 12 -32 32z" />
    <glyph glyph-name="eth" unicode="&#xf0;" horiz-adv-x="581" 
d="M199 586l-13 24l110 53c-61 36 -111 52 -152 58l15 32c63 -11 116 -32 176 -71l128 61l13 -24l-116 -56c124 -111 157 -268 157 -409c0 -153 -83 -262 -227 -262c-143 0 -229 92 -229 262c0 165 88 261 222 261c54 0 132 -16 173 -104l2 1c-21 101 -62 173 -136 232z
M100 253c0 -161 84 -226 189 -226c102 0 189 67 189 226c0 151 -65 227 -189 227c-110 0 -189 -70 -189 -227z" />
    <glyph glyph-name="ntilde" unicode="&#xf1;" horiz-adv-x="592" 
d="M93 0v510h32l6 -116c29 80 89 126 185 126c126 0 188 -48 188 -191v-329h-38v324c0 124 -48 162 -157 162c-115 0 -178 -72 -178 -180v-306h-38zM190 636l-28 7c6 38 30 65 69 65c23 0 43 -9 71 -22c26 -11 46 -23 63 -23c20 0 32 11 40 41l27 -8c-8 -41 -33 -64 -67 -64
c-20 0 -34 5 -72 23c-22 11 -43 21 -61 21c-20 0 -33 -9 -42 -40z" />
    <glyph glyph-name="ograve" unicode="&#xf2;" horiz-adv-x="579" 
d="M65 256c0 166 66 264 225 264c163 0 224 -92 224 -264c0 -166 -69 -266 -225 -266c-162 0 -224 95 -224 266zM104 259v-3c0 -154 54 -231 186 -231c131 0 185 79 185 232v3c0 148 -47 226 -186 226c-131 0 -185 -78 -185 -227zM307 608h-36l-104 130h56z" />
    <glyph glyph-name="oacute" unicode="&#xf3;" horiz-adv-x="579" 
d="M65 256c0 166 66 264 225 264c163 0 224 -92 224 -264c0 -166 -69 -266 -225 -266c-162 0 -224 95 -224 266zM104 259v-3c0 -154 54 -231 186 -231c131 0 185 79 185 232v3c0 148 -47 226 -186 226c-131 0 -185 -78 -185 -227zM271 605l84 130h56l-104 -130h-36z" />
    <glyph glyph-name="ocircumflex" unicode="&#xf4;" horiz-adv-x="579" 
d="M65 256c0 166 66 264 225 264c163 0 224 -92 224 -264c0 -166 -69 -266 -225 -266c-162 0 -224 95 -224 266zM104 259v-3c0 -154 54 -231 186 -231c131 0 185 79 185 232v3c0 148 -47 226 -186 226c-131 0 -185 -78 -185 -227zM149 605l118 130h44l118 -130h-38l-102 100
l-103 -100h-37z" />
    <glyph glyph-name="otilde" unicode="&#xf5;" horiz-adv-x="579" 
d="M65 256c0 166 66 264 225 264c163 0 224 -92 224 -264c0 -166 -69 -266 -225 -266c-162 0 -224 95 -224 266zM104 259v-3c0 -154 54 -231 186 -231c131 0 185 79 185 232v3c0 148 -47 226 -186 226c-131 0 -185 -78 -185 -227zM182 636l-28 7c6 38 30 65 69 65
c23 0 43 -9 71 -22c26 -11 46 -23 63 -23c20 0 32 11 40 41l27 -8c-8 -41 -33 -64 -67 -64c-20 0 -34 5 -72 23c-22 11 -43 21 -61 21c-20 0 -33 -9 -42 -40z" />
    <glyph glyph-name="odieresis" unicode="&#xf6;" horiz-adv-x="579" 
d="M65 256c0 166 66 264 225 264c163 0 224 -92 224 -264c0 -166 -69 -266 -225 -266c-162 0 -224 95 -224 266zM104 259v-3c0 -154 54 -231 186 -231c131 0 185 79 185 232v3c0 148 -47 226 -186 226c-131 0 -185 -78 -185 -227zM179 670c0 20 12 32 32 32s32 -12 32 -32
s-12 -32 -32 -32s-32 12 -32 32zM335 670c0 20 12 32 32 32s32 -12 32 -32s-12 -32 -32 -32s-32 12 -32 32z" />
    <glyph glyph-name="divide" unicode="&#xf7;" horiz-adv-x="588" 
d="M256 161c0 24 15 37 38 37s38 -14 38 -37c0 -22 -14 -37 -38 -37c-23 0 -38 15 -38 37zM256 486c0 23 15 37 38 37s38 -14 38 -37s-14 -37 -38 -37c-23 0 -38 14 -38 37zM73 305v37h442v-37h-442z" />
    <glyph glyph-name="oslash" unicode="&#xf8;" horiz-adv-x="579" 
d="M65 256c0 166 66 263 225 263c69 0 120 -17 155 -49l53 66l21 -15l-56 -70c36 -44 51 -110 51 -195c0 -166 -69 -264 -225 -264c-69 0 -120 16 -156 49l-52 -66l-21 15l56 70c-36 44 -51 110 -51 196zM104 259v-3c0 -72 11 -127 37 -165l281 350c-30 29 -73 44 -133 44
c-131 0 -185 -77 -185 -226zM475 260c0 70 -11 124 -36 161l-281 -349c30 -30 73 -45 132 -45c131 0 185 77 185 230v3z" />
    <glyph glyph-name="ugrave" unicode="&#xf9;" horiz-adv-x="584" 
d="M459 0l-6 122c-27 -98 -101 -132 -192 -132c-125 0 -173 68 -173 170v350h38v-348c0 -100 49 -137 141 -137c123 0 186 78 186 179v306h38v-510h-32zM310 608h-36l-104 130h56z" />
    <glyph glyph-name="uacute" unicode="&#xfa;" horiz-adv-x="584" 
d="M459 0l-6 122c-27 -98 -101 -132 -192 -132c-125 0 -173 68 -173 170v350h38v-348c0 -100 49 -137 141 -137c123 0 186 78 186 179v306h38v-510h-32zM274 605l84 130h56l-104 -130h-36z" />
    <glyph glyph-name="ucircumflex" unicode="&#xfb;" horiz-adv-x="584" 
d="M459 0l-6 122c-27 -98 -101 -132 -192 -132c-125 0 -173 68 -173 170v350h38v-348c0 -100 49 -137 141 -137c123 0 186 78 186 179v306h38v-510h-32zM149 605l118 130h44l118 -130h-38l-102 100l-103 -100h-37z" />
    <glyph glyph-name="udieresis" unicode="&#xfc;" horiz-adv-x="584" 
d="M459 0l-6 122c-27 -98 -101 -132 -192 -132c-125 0 -173 68 -173 170v350h38v-348c0 -100 49 -137 141 -137c123 0 186 78 186 179v306h38v-510h-32zM179 670c0 20 12 32 32 32s32 -12 32 -32s-12 -32 -32 -32s-32 12 -32 32zM335 670c0 20 12 32 32 32s32 -12 32 -32
s-12 -32 -32 -32s-32 12 -32 32z" />
    <glyph glyph-name="yacute" unicode="&#xfd;" horiz-adv-x="519" 
d="M157 -151c68 0 78 75 105 146l-225 515h42l203 -468l165 468h40l-201 -552c-38 -106 -65 -144 -136 -144c-23 0 -39 4 -52 10v43c12 -10 29 -18 59 -18zM242 605l84 130h56l-104 -130h-36z" />
    <glyph glyph-name="thorn" unicode="&#xfe;" horiz-adv-x="599" 
d="M93 -180v883h38v-310c28 94 103 126 197 126c142 0 206 -76 206 -254c0 -183 -66 -273 -213 -273c-94 0 -163 42 -190 129v-301h-38zM131 234c0 -101 50 -207 184 -207c131 0 180 83 180 237c0 151 -45 221 -173 221c-119 0 -191 -70 -191 -204v-47z" />
    <glyph glyph-name="ydieresis" unicode="&#xff;" horiz-adv-x="519" 
d="M157 -151c68 0 78 75 105 146l-225 515h42l203 -468l165 468h40l-201 -552c-38 -106 -65 -144 -136 -144c-23 0 -39 4 -52 10v43c12 -10 29 -18 59 -18zM152 670c0 20 12 32 32 32s32 -12 32 -32s-12 -32 -32 -32s-32 12 -32 32zM308 670c0 20 12 32 32 32s32 -12 32 -32
s-12 -32 -32 -32s-32 12 -32 32z" />
    <glyph glyph-name="Amacron" unicode="&#x100;" horiz-adv-x="633" 
d="M558 0l-78 212h-328l-78 -212h-42l267 700h40l262 -700h-43zM317 656l-151 -407h300zM181 823v34h270v-34h-270z" />
    <glyph glyph-name="amacron" unicode="&#x101;" horiz-adv-x="525" 
d="M407 0l-7 122c-22 -81 -74 -132 -173 -132c-116 0 -169 51 -169 152c0 99 51 145 213 145h127v62c0 96 -46 137 -147 137c-63 0 -126 -28 -158 -54v50c29 17 94 38 162 38c137 0 182 -60 182 -179v-341h-30zM98 146c0 -78 37 -121 139 -121c95 0 161 67 161 179v51h-123
c-145 0 -177 -38 -177 -109zM137 653v34h250v-34h-250z" />
    <glyph glyph-name="Abreve" unicode="&#x102;" horiz-adv-x="633" 
d="M558 0l-78 212h-328l-78 -212h-42l267 700h40l262 -700h-43zM317 656l-151 -407h300zM176 890l30 10c15 -50 45 -86 110 -86s95 36 110 86l30 -10c-20 -68 -65 -110 -140 -110s-120 42 -140 110z" />
    <glyph glyph-name="abreve" unicode="&#x103;" horiz-adv-x="525" 
d="M407 0l-7 122c-22 -81 -74 -132 -173 -132c-116 0 -169 51 -169 152c0 99 51 145 213 145h127v62c0 96 -46 137 -147 137c-63 0 -126 -28 -158 -54v50c29 17 94 38 162 38c137 0 182 -60 182 -179v-341h-30zM98 146c0 -78 37 -121 139 -121c95 0 161 67 161 179v51h-123
c-145 0 -177 -38 -177 -109zM122 720l28 10c15 -50 47 -88 112 -88s97 38 112 88l28 -10c-20 -68 -65 -110 -140 -110s-120 42 -140 110z" />
    <glyph glyph-name="Aogonek" unicode="&#x104;" horiz-adv-x="633" 
d="M558 0l-78 212h-328l-78 -212h-42l267 700h40l262 -700h-6c-43 -34 -86 -76 -86 -134c0 -34 18 -56 66 -56c23 0 50 6 68 18v-30c-19 -11 -50 -18 -77 -18c-65 0 -93 34 -93 81c0 53 37 101 90 139h-5zM317 656l-151 -407h300z" />
    <glyph glyph-name="aogonek" unicode="&#x105;" horiz-adv-x="525" 
d="M469 -154v-28c-19 -11 -39 -18 -66 -18c-55 0 -83 34 -83 76c0 45 31 89 87 127l-7 119c-22 -81 -74 -132 -173 -132c-116 0 -169 51 -169 152c0 99 51 145 213 145h127v62c0 96 -46 137 -147 137c-63 0 -126 -28 -158 -54v50c29 17 94 38 162 38c137 0 182 -60 182 -179
v-341h-3c-44 -34 -78 -71 -78 -119c0 -29 18 -53 56 -53c23 0 39 6 57 18zM98 146c0 -78 37 -121 139 -121c95 0 161 67 161 179v51h-123c-145 0 -177 -38 -177 -109z" />
    <glyph glyph-name="Cacute" unicode="&#x106;" horiz-adv-x="637" 
d="M540 686v-47c-44 20 -103 33 -163 33c-168 0 -262 -91 -262 -323c0 -230 96 -321 266 -321c59 0 121 16 161 36v-45c-39 -16 -97 -29 -167 -29c-193 0 -302 103 -302 352c0 263 106 368 306 368c78 0 128 -13 161 -24zM341 770l92 140h58l-112 -140h-38z" />
    <glyph glyph-name="cacute" unicode="&#x107;" horiz-adv-x="500" 
d="M432 497v-45c-27 16 -77 33 -127 33c-141 0 -201 -80 -201 -223c0 -152 64 -237 208 -237c44 0 105 18 130 37v-46c-25 -11 -81 -26 -139 -26c-171 0 -238 103 -238 270c0 164 73 260 236 260c57 0 108 -14 131 -23zM263 605l84 130h56l-104 -130h-36z" />
    <glyph glyph-name="Ccircumflex" unicode="&#x108;" horiz-adv-x="637" 
d="M540 686v-47c-44 20 -103 33 -163 33c-168 0 -262 -91 -262 -323c0 -230 96 -321 266 -321c59 0 121 16 161 36v-45c-39 -16 -97 -29 -167 -29c-193 0 -302 103 -302 352c0 263 106 368 306 368c78 0 128 -13 161 -24zM209 770l127 140h48l125 -140h-41l-108 110
l-108 -110h-43z" />
    <glyph glyph-name="ccircumflex" unicode="&#x109;" horiz-adv-x="500" 
d="M432 497v-45c-27 16 -77 33 -127 33c-141 0 -201 -80 -201 -223c0 -152 64 -237 208 -237c44 0 105 18 130 37v-46c-25 -11 -81 -26 -139 -26c-171 0 -238 103 -238 270c0 164 73 260 236 260c57 0 108 -14 131 -23zM140 605l118 130h44l118 -130h-38l-102 100l-103 -100
h-37z" />
    <glyph glyph-name="Cdotaccent" unicode="&#x10a;" horiz-adv-x="637" 
d="M540 686v-47c-44 20 -103 33 -163 33c-168 0 -262 -91 -262 -323c0 -230 96 -321 266 -321c59 0 121 16 161 36v-45c-39 -16 -97 -29 -167 -29c-193 0 -302 103 -302 352c0 263 106 368 306 368c78 0 128 -13 161 -24zM326 840c0 22 12 34 34 34s34 -12 34 -34
s-12 -34 -34 -34s-34 12 -34 34z" />
    <glyph glyph-name="cdotaccent" unicode="&#x10b;" horiz-adv-x="500" 
d="M432 497v-45c-27 16 -77 33 -127 33c-141 0 -201 -80 -201 -223c0 -152 64 -237 208 -237c44 0 105 18 130 37v-46c-25 -11 -81 -26 -139 -26c-171 0 -238 103 -238 270c0 164 73 260 236 260c57 0 108 -14 131 -23zM249 670c0 20 12 32 32 32s32 -12 32 -32
s-12 -32 -32 -32s-32 12 -32 32z" />
    <glyph glyph-name="Ccaron" unicode="&#x10c;" horiz-adv-x="637" 
d="M540 686v-47c-44 20 -103 33 -163 33c-168 0 -262 -91 -262 -323c0 -230 96 -321 266 -321c59 0 121 16 161 36v-45c-39 -16 -97 -29 -167 -29c-193 0 -302 103 -302 352c0 263 106 368 306 368c78 0 128 -13 161 -24zM336 770l-127 140h43l108 -110l107 110h42
l-125 -140h-48z" />
    <glyph glyph-name="ccaron" unicode="&#x10d;" horiz-adv-x="500" 
d="M432 497v-45c-27 16 -77 33 -127 33c-141 0 -201 -80 -201 -223c0 -152 64 -237 208 -237c44 0 105 18 130 37v-46c-25 -11 -81 -26 -139 -26c-171 0 -238 103 -238 270c0 164 73 260 236 260c57 0 108 -14 131 -23zM258 605l-118 130h37l103 -100l102 100h38l-118 -130
h-44z" />
    <glyph glyph-name="Dcaron" unicode="&#x10e;" horiz-adv-x="690" 
d="M108 0v700c69 3 101 5 174 5c262 0 335 -109 335 -341c0 -261 -96 -369 -347 -369c-68 0 -98 2 -162 5zM148 38c49 -3 69 -5 119 -5c238 0 307 106 307 328c0 217 -56 306 -296 306c-54 0 -77 -2 -130 -5v-624zM312 770l-127 140h43l108 -110l107 110h42l-125 -140h-48z
" />
    <glyph glyph-name="dcaron" unicode="&#x10f;" horiz-adv-x="662" 
d="M474 0l-6 123c-28 -90 -89 -133 -193 -133c-140 0 -210 92 -210 262c0 193 81 268 218 268c110 0 167 -56 185 -125v355h38v-750h-32zM283 25c116 0 185 59 185 212v51c0 99 -42 198 -182 198c-127 0 -182 -71 -182 -235c0 -149 60 -226 179 -226zM616 570l46 180h44
l-56 -180h-34z" />
    <glyph glyph-name="Dcroat" unicode="&#x110;" horiz-adv-x="708" 
d="M21 340v36h106v324c69 3 101 4 174 4c262 0 335 -108 335 -340c0 -261 -96 -368 -347 -368c-68 0 -98 1 -162 4v340h-106zM167 38c49 -3 69 -4 118 -4c239 0 308 105 308 327c0 217 -56 305 -296 305c-54 0 -77 -1 -130 -4v-286h215v-36h-215v-302z" />
    <glyph glyph-name="dcroat" unicode="&#x111;" horiz-adv-x="616" 
d="M474 0l-6 123c-28 -90 -89 -131 -193 -131c-140 0 -210 90 -210 260c0 193 81 267 218 267c110 0 167 -55 185 -124v213h-225v30h225v112h38v-112h101v-30h-101v-608h-32zM283 27c116 0 185 57 185 210v51c0 99 -42 197 -182 197c-127 0 -182 -70 -182 -234
c0 -149 60 -224 179 -224z" />
    <glyph glyph-name="Emacron" unicode="&#x112;" horiz-adv-x="590" 
d="M108 0v700h400v-38h-360v-284h333v-37h-333v-303h360v-38h-400zM170 823v34h270v-34h-270z" />
    <glyph glyph-name="emacron" unicode="&#x113;" horiz-adv-x="551" 
d="M488 251h-384c1 -151 59 -226 196 -226c67 0 120 21 155 52v-45c-28 -21 -85 -42 -156 -42c-162 0 -234 89 -234 271c0 183 85 259 216 259c158 0 207 -91 207 -251v-18zM282 487c-114 0 -173 -68 -178 -203h344c1 108 -28 203 -166 203zM151 653v34h250v-34h-250z" />
    <glyph glyph-name="Edotaccent" unicode="&#x116;" horiz-adv-x="590" 
d="M108 0v700h400v-38h-360v-284h333v-37h-333v-303h360v-38h-400zM273 840c0 22 12 34 34 34s34 -12 34 -34s-12 -34 -34 -34s-34 12 -34 34z" />
    <glyph glyph-name="edotaccent" unicode="&#x117;" horiz-adv-x="551" 
d="M488 251h-384c1 -151 59 -226 196 -226c67 0 120 21 155 52v-45c-28 -21 -85 -42 -156 -42c-162 0 -234 89 -234 271c0 183 85 259 216 259c158 0 207 -91 207 -251v-18zM282 487c-114 0 -173 -68 -178 -203h344c1 108 -28 203 -166 203zM245 670c0 20 12 32 32 32
s32 -12 32 -32s-12 -32 -32 -32s-32 12 -32 32z" />
    <glyph glyph-name="Eogonek" unicode="&#x118;" horiz-adv-x="590" 
d="M108 0v700h400v-38h-360v-284h333v-37h-333v-303h360v-38h-6c-43 -34 -86 -76 -86 -134c0 -34 18 -56 66 -56c23 0 50 6 68 18v-30c-19 -11 -50 -18 -77 -18c-65 0 -93 34 -93 81c0 53 37 101 90 139h-362z" />
    <glyph glyph-name="eogonek" unicode="&#x119;" horiz-adv-x="551" 
d="M394 -154v-28c-19 -11 -39 -18 -66 -18c-55 0 -83 34 -83 76c0 40 24 79 68 114h-14c-162 0 -234 89 -234 271c0 183 85 259 216 259c158 0 207 -91 207 -251v-18h-384c1 -151 59 -226 196 -226c67 0 120 21 155 52v-45c-21 -16 -58 -32 -104 -38
c-40 -32 -70 -68 -70 -113c0 -29 18 -53 56 -53c23 0 39 6 57 18zM282 487c-114 0 -173 -68 -178 -203h344c1 108 -28 203 -166 203z" />
    <glyph glyph-name="Ecaron" unicode="&#x11a;" horiz-adv-x="590" 
d="M108 0v700h400v-38h-360v-284h333v-37h-333v-303h360v-38h-400zM282 770l-127 140h43l108 -110l107 110h42l-125 -140h-48z" />
    <glyph glyph-name="ecaron" unicode="&#x11b;" horiz-adv-x="551" 
d="M488 251h-384c1 -151 59 -226 196 -226c67 0 120 21 155 52v-45c-28 -21 -85 -42 -156 -42c-162 0 -234 89 -234 271c0 183 85 259 216 259c158 0 207 -91 207 -251v-18zM282 487c-114 0 -173 -68 -178 -203h344c1 108 -28 203 -166 203zM254 605l-118 130h37l103 -100
l102 100h38l-118 -130h-44z" />
    <glyph glyph-name="Gcircumflex" unicode="&#x11c;" horiz-adv-x="668" 
d="M378 303v38h208v-311c-41 -20 -113 -40 -188 -40c-220 0 -325 107 -325 352c0 255 105 368 332 368c64 0 117 -15 149 -27v-48c-34 21 -103 37 -152 37c-200 0 -287 -100 -287 -323c0 -228 88 -321 287 -321c49 0 104 10 145 26v249h-169zM235 770l127 140h48l125 -140
h-41l-108 110l-108 -110h-43z" />
    <glyph glyph-name="gcircumflex" unicode="&#x11d;" horiz-adv-x="599" 
d="M115 -151v52c26 -28 92 -56 174 -56c138 0 179 56 179 160v119c-28 -90 -90 -134 -193 -134c-140 0 -210 93 -210 262c0 193 81 268 219 268c108 0 166 -56 184 -125l6 116h32v-502c0 -148 -75 -199 -215 -199c-78 0 -138 17 -176 39zM283 25c116 0 185 60 185 213v49
c0 101 -44 199 -182 199c-126 0 -182 -71 -182 -235c0 -148 61 -226 179 -226zM159 605l118 130h44l118 -130h-38l-102 100l-103 -100h-37z" />
    <glyph glyph-name="Gbreve" unicode="&#x11e;" horiz-adv-x="668" 
d="M378 303v38h208v-311c-41 -20 -113 -40 -188 -40c-220 0 -325 107 -325 352c0 255 105 368 332 368c64 0 117 -15 149 -27v-48c-34 21 -103 37 -152 37c-200 0 -287 -100 -287 -323c0 -228 88 -321 287 -321c49 0 104 10 145 26v249h-169zM240 890l30 10
c15 -50 45 -86 110 -86s95 36 110 86l30 -10c-20 -68 -65 -110 -140 -110s-120 42 -140 110z" />
    <glyph glyph-name="gbreve" unicode="&#x11f;" horiz-adv-x="599" 
d="M115 -151v52c26 -28 92 -56 174 -56c138 0 179 56 179 160v119c-28 -90 -90 -134 -193 -134c-140 0 -210 93 -210 262c0 193 81 268 219 268c108 0 166 -56 184 -125l6 116h32v-502c0 -148 -75 -199 -215 -199c-78 0 -138 17 -176 39zM283 25c116 0 185 60 185 213v49
c0 101 -44 199 -182 199c-126 0 -182 -71 -182 -235c0 -148 61 -226 179 -226zM145 720l28 10c15 -50 47 -88 112 -88s97 38 112 88l28 -10c-20 -68 -65 -110 -140 -110s-120 42 -140 110z" />
    <glyph glyph-name="Gdotaccent" unicode="&#x120;" horiz-adv-x="668" 
d="M378 303v38h208v-311c-41 -20 -113 -40 -188 -40c-220 0 -325 107 -325 352c0 255 105 368 332 368c64 0 117 -15 149 -27v-48c-34 21 -103 37 -152 37c-200 0 -287 -100 -287 -323c0 -228 88 -321 287 -321c49 0 104 10 145 26v249h-169zM351 840c0 22 12 34 34 34
s34 -12 34 -34s-12 -34 -34 -34s-34 12 -34 34z" />
    <glyph glyph-name="gdotaccent" unicode="&#x121;" horiz-adv-x="599" 
d="M115 -151v52c26 -28 92 -56 174 -56c138 0 179 56 179 160v119c-28 -90 -90 -134 -193 -134c-140 0 -210 93 -210 262c0 193 81 268 219 268c108 0 166 -56 184 -125l6 116h32v-502c0 -148 -75 -199 -215 -199c-78 0 -138 17 -176 39zM283 25c116 0 185 60 185 213v49
c0 101 -44 199 -182 199c-126 0 -182 -71 -182 -235c0 -148 61 -226 179 -226zM268 670c0 20 12 32 32 32s32 -12 32 -32s-12 -32 -32 -32s-32 12 -32 32z" />
    <glyph glyph-name="Gcommaaccent" unicode="&#x122;" horiz-adv-x="668" 
d="M378 303v38h208v-311c-41 -20 -113 -40 -188 -40c-220 0 -325 107 -325 352c0 255 105 368 332 368c64 0 117 -15 149 -27v-48c-34 21 -103 37 -152 37c-200 0 -287 -100 -287 -323c0 -228 88 -321 287 -321c49 0 104 10 145 26v249h-169zM339 -226c30 19 51 49 55 95
c-31 0 -42 16 -42 35s11 36 40 36c23 0 40 -15 40 -53c0 -40 -23 -107 -79 -137z" />
    <glyph glyph-name="gcommaaccent" unicode="&#x123;" horiz-adv-x="599" 
d="M115 -151v52c26 -28 92 -56 174 -56c138 0 179 56 179 160v119c-28 -90 -90 -134 -193 -134c-140 0 -210 93 -210 262c0 193 81 268 219 268c108 0 166 -56 184 -125l6 116h32v-502c0 -148 -75 -199 -215 -199c-78 0 -138 17 -176 39zM283 25c116 0 185 60 185 213v49
c0 101 -44 199 -182 199c-126 0 -182 -71 -182 -235c0 -148 61 -226 179 -226zM342 750c-29 -19 -48 -44 -53 -89c31 0 41 -16 41 -34s-11 -35 -39 -35c-23 0 -40 15 -40 51c0 39 23 100 77 129z" />
    <glyph glyph-name="Hcircumflex" unicode="&#x124;" horiz-adv-x="733" 
d="M108 0v700h40v-321h437v321h40v-700h-40v341h-437v-341h-40zM216 770l127 140h48l125 -140h-41l-108 110l-108 -110h-43z" />
    <glyph glyph-name="hcircumflex" unicode="&#x125;" horiz-adv-x="592" 
d="M93 0v750h38v-356c21 81 91 126 189 126c141 0 184 -63 184 -196v-324h-38v315c0 131 -45 171 -159 171c-128 0 -176 -78 -176 -173v-313h-38zM-28 776l118 130h44l118 -130h-38l-102 100l-103 -100h-37z" />
    <glyph glyph-name="Hbar" unicode="&#x126;" horiz-adv-x="752" 
d="M118 0v533h-92v33h92v134h39v-134h438v134h39v-134h93v-33h-93v-533h-39v341h-438v-341h-39zM157 379h438v154h-438v-154z" />
    <glyph glyph-name="hbar" unicode="&#x127;" horiz-adv-x="608" 
d="M109 0v608h-100v30h100v112h38v-112h239v-30h-239v-245c21 82 91 126 189 126c141 0 184 -62 184 -195v-294h-38v285c0 130 -46 169 -159 169c-128 0 -176 -77 -176 -171v-283h-38z" />
    <glyph glyph-name="Imacron" unicode="&#x12a;" horiz-adv-x="267" 
d="M113 0v700h40v-700h-40zM-2 823v34h270v-34h-270z" />
    <glyph glyph-name="imacron" unicode="&#x12b;" horiz-adv-x="253" 
d="M107 0v510h38v-510h-38zM1 653v34h250v-34h-250z" />
    <glyph glyph-name="Iogonek" unicode="&#x12e;" horiz-adv-x="267" 
d="M113 0v700h40v-700h-7c-43 -34 -86 -76 -86 -134c0 -34 18 -56 66 -56c23 0 50 6 68 18v-30c-19 -11 -50 -18 -77 -18c-65 0 -93 34 -93 81c0 53 37 101 90 139h-1z" />
    <glyph glyph-name="iogonek" unicode="&#x12f;" horiz-adv-x="253" 
d="M107 0v510h38v-510h-5c-44 -34 -78 -71 -78 -119c0 -29 18 -53 56 -53c23 0 39 6 57 18v-28c-19 -11 -39 -18 -66 -18c-55 0 -83 34 -83 76c0 44 29 87 82 124h-1zM94 670c0 20 12 32 32 32s32 -12 32 -32s-12 -32 -32 -32s-32 12 -32 32z" />
    <glyph glyph-name="Idotaccent" unicode="&#x130;" horiz-adv-x="267" 
d="M113 0v700h40v-700h-40zM99 840c0 22 12 34 34 34s34 -12 34 -34s-12 -34 -34 -34s-34 12 -34 34z" />
    <glyph glyph-name="dotlessi" unicode="&#x131;" horiz-adv-x="253" 
d="M107 0v510h38v-510h-38z" />
    <glyph glyph-name="Jcircumflex" unicode="&#x134;" horiz-adv-x="388" 
d="M240 175v525h40v-533c0 -115 -51 -177 -162 -177c-55 0 -85 10 -100 16v47c24 -14 66 -25 99 -25c82 0 123 43 123 147zM110 770l127 140h48l125 -140h-41l-108 110l-108 -110h-43z" />
    <glyph glyph-name="jcircumflex" unicode="&#x135;" horiz-adv-x="226" 
d="M94 -59v569h38v-574c0 -67 -22 -121 -110 -121c-26 0 -46 2 -59 7v47c13 -9 32 -17 58 -17c44 0 73 16 73 89zM-27 605l118 130h44l118 -130h-38l-102 100l-103 -100h-37z" />
    <glyph glyph-name="Kcommaaccent" unicode="&#x136;" horiz-adv-x="656" 
d="M108 0v700h40v-318h51l353 318h52l-372 -333l388 -367h-55l-368 349h-49v-349h-40zM282 -226c30 19 51 49 55 95c-31 0 -42 16 -42 35s11 36 40 36c23 0 40 -15 40 -53c0 -40 -23 -107 -79 -137z" />
    <glyph glyph-name="kcommaaccent" unicode="&#x137;" horiz-adv-x="502" 
d="M93 750h38v-452h32l249 212h50l-269 -226l281 -284h-49l-264 266h-30v-266h-38v750zM203 -218c29 19 48 44 53 89c-31 0 -41 16 -41 34s11 35 39 35c23 0 40 -15 40 -51c0 -39 -23 -100 -77 -129z" />
    <glyph glyph-name="Lacute" unicode="&#x139;" horiz-adv-x="540" 
d="M108 0v700h40v-662h346v-38h-386zM111 770l92 140h58l-112 -140h-38z" />
    <glyph glyph-name="lacute" unicode="&#x13a;" horiz-adv-x="280" 
d="M131 98c0 -56 22 -71 66 -71c22 0 43 8 55 16v-42c-12 -5 -34 -11 -59 -11c-77 0 -100 41 -100 102v658h38v-652zM97 795l84 130h56l-104 -130h-36z" />
    <glyph glyph-name="Lcommaaccent" unicode="&#x13b;" horiz-adv-x="540" 
d="M108 0v700h40v-662h346v-38h-386zM225 -226c30 19 51 49 55 95c-31 0 -42 16 -42 35s11 36 40 36c23 0 40 -15 40 -53c0 -40 -23 -107 -79 -137z" />
    <glyph glyph-name="lcommaaccent" unicode="&#x13c;" horiz-adv-x="280" 
d="M131 98c0 -56 22 -71 66 -71c22 0 43 8 55 16v-42c-12 -5 -34 -11 -59 -11c-77 0 -100 41 -100 102v658h38v-652zM114 -218c29 19 48 44 53 89c-31 0 -41 16 -41 34s11 35 39 35c23 0 40 -15 40 -51c0 -39 -23 -100 -77 -129z" />
    <glyph glyph-name="Lcaron" unicode="&#x13d;" horiz-adv-x="540" 
d="M108 0v700h40v-662h346v-38h-386zM338 520l46 180h44l-56 -180h-34z" />
    <glyph glyph-name="lcaron" unicode="&#x13e;" horiz-adv-x="302" 
d="M131 98c0 -56 22 -71 66 -71c22 0 43 8 55 16v-42c-12 -5 -34 -11 -59 -11c-77 0 -100 41 -100 102v658h38v-652zM241 570l46 180h44l-56 -180h-34z" />
    <glyph glyph-name="Ldot" unicode="&#x13f;" horiz-adv-x="540" 
d="M108 0v700h40v-662h346v-38h-386zM361 346c0 21 12 34 34 34c21 0 36 -14 36 -34c0 -22 -14 -35 -36 -35s-34 14 -34 35z" />
    <glyph glyph-name="ldot" unicode="&#x140;" horiz-adv-x="294" 
d="M131 98c0 -56 22 -71 66 -71c22 0 43 8 55 16v-42c-12 -5 -34 -11 -59 -11c-77 0 -100 41 -100 102v658h38v-652zM219 346c0 21 12 34 34 34c21 0 36 -14 36 -34c0 -22 -14 -35 -36 -35s-34 14 -34 35z" />
    <glyph glyph-name="Lslash" unicode="&#x141;" horiz-adv-x="584" 
d="M152 0v286l-106 -69v37l106 69v377h40v-351l192 126v-37l-192 -126v-274h346v-38h-386z" />
    <glyph glyph-name="lslash" unicode="&#x142;" horiz-adv-x="299" 
d="M150 102c0 -56 22 -71 66 -71c21 0 43 8 55 16v-42c-12 -5 -34 -11 -59 -11c-77 0 -100 41 -100 102v272l-102 -65v35l102 65v347h38v-323l108 69v-35l-108 -69v-290z" />
    <glyph glyph-name="Nacute" unicode="&#x143;" horiz-adv-x="724" 
d="M108 0v700h47l354 -531c2 -3 63 -94 67 -101v632h39v-700h-41l-366 549c-2 2 -59 89 -61 92c1 -3 1 -86 1 -89v-552h-40zM344 770l92 140h58l-112 -140h-38z" />
    <glyph glyph-name="nacute" unicode="&#x144;" horiz-adv-x="592" 
d="M93 0v510h32l6 -116c29 80 89 126 185 126c126 0 188 -48 188 -191v-329h-38v324c0 124 -48 162 -157 162c-115 0 -178 -72 -178 -180v-306h-38zM280 605l84 130h56l-104 -130h-36z" />
    <glyph glyph-name="Ncommaaccent" unicode="&#x145;" horiz-adv-x="724" 
d="M108 0v700h47l354 -531l67 -101v632h39v-700h-41l-366 549c-2 2 -59 89 -61 92c1 -3 1 -86 1 -89v-552h-40zM316 -226c30 19 51 49 55 95c-31 0 -42 16 -42 35s11 36 40 36c23 0 40 -15 40 -53c0 -40 -23 -107 -79 -137z" />
    <glyph glyph-name="ncommaaccent" unicode="&#x146;" horiz-adv-x="592" 
d="M93 0v510h32l6 -116c29 80 89 126 185 126c126 0 188 -48 188 -191v-329h-38v324c0 124 -48 162 -157 162c-115 0 -178 -72 -178 -180v-306h-38zM248 -218c29 19 48 44 53 89c-31 0 -41 16 -41 34s11 35 39 35c23 0 40 -15 40 -51c0 -39 -23 -100 -77 -129z" />
    <glyph glyph-name="Ncaron" unicode="&#x147;" horiz-adv-x="724" 
d="M108 0v700h47l354 -531l67 -101v632h39v-700h-41l-366 549c-2 2 -59 89 -61 92c1 -3 1 -86 1 -89v-552h-40zM338 770l-127 140h43l108 -110l107 110h42l-125 -140h-48z" />
    <glyph glyph-name="ncaron" unicode="&#x148;" horiz-adv-x="592" 
d="M93 0v510h32l6 -116c29 80 89 126 185 126c126 0 188 -48 188 -191v-329h-38v324c0 124 -48 162 -157 162c-115 0 -178 -72 -178 -180v-306h-38zM275 605l-118 130h37l103 -100l102 100h38l-118 -130h-44z" />
    <glyph glyph-name="Omacron" unicode="&#x14c;" horiz-adv-x="735" 
d="M73 350c0 237 101 360 292 360c215 0 297 -126 297 -360c0 -250 -107 -360 -295 -360c-198 0 -294 122 -294 360zM115 350c0 -214 78 -322 255 -322c168 0 250 102 250 322c0 213 -69 322 -256 322c-169 0 -249 -111 -249 -322zM232 823v34h270v-34h-270z" />
    <glyph glyph-name="omacron" unicode="&#x14d;" horiz-adv-x="579" 
d="M65 256c0 166 66 264 225 264c163 0 224 -92 224 -264c0 -166 -69 -266 -225 -266c-162 0 -224 95 -224 266zM104 259v-3c0 -154 54 -231 186 -231c131 0 185 79 185 232v3c0 148 -47 226 -186 226c-131 0 -185 -78 -185 -227zM164 653v34h250v-34h-250z" />
    <glyph glyph-name="Ohungarumlaut" unicode="&#x150;" horiz-adv-x="735" 
d="M73 350c0 237 101 360 292 360c215 0 297 -126 297 -360c0 -250 -107 -360 -295 -360c-198 0 -294 122 -294 360zM115 350c0 -214 78 -322 255 -322c168 0 250 102 250 322c0 213 -69 322 -256 322c-169 0 -249 -111 -249 -322zM276 775l84 130h52l-100 -130h-36z
M420 775l100 130h56l-118 -130h-38z" />
    <glyph glyph-name="ohungarumlaut" unicode="&#x151;" horiz-adv-x="579" 
d="M65 256c0 166 66 264 225 264c163 0 224 -92 224 -264c0 -166 -69 -266 -225 -266c-162 0 -224 95 -224 266zM104 259v-3c0 -154 54 -231 186 -231c131 0 185 79 185 232v3c0 148 -47 226 -186 226c-131 0 -185 -78 -185 -227zM208 605l84 130h50l-100 -130h-34zM334 605
l100 130h54l-118 -130h-36z" />
    <glyph glyph-name="OE" unicode="&#x152;" horiz-adv-x="924" 
d="M365 710c35 0 70 -3 101 -10h388v-38h-351v-284h325v-37h-325v-303h352v-38h-387c-31 -7 -68 -10 -101 -10c-198 0 -294 122 -294 360c0 237 101 360 292 360zM370 28c32 0 66 2 94 10v624c-29 8 -64 10 -100 10c-169 0 -249 -111 -249 -322c0 -214 78 -322 255 -322z
" />
    <glyph glyph-name="oe" unicode="&#x153;" horiz-adv-x="961" 
d="M65 256c0 166 66 263 225 263c112 0 176 -44 205 -127c32 89 103 127 196 127c158 0 208 -90 208 -250v-18h-385c1 -151 59 -224 196 -224c67 0 120 21 155 52v-45c-28 -21 -85 -42 -155 -42c-116 0 -185 44 -216 133c-30 -85 -95 -133 -205 -133
c-162 0 -224 93 -224 264zM692 486c-113 0 -172 -67 -178 -202h345c0 108 -29 202 -167 202zM104 259v-3c0 -154 54 -229 186 -229c131 0 185 77 185 230v3c0 148 -47 225 -186 225c-131 0 -185 -77 -185 -226z" />
    <glyph glyph-name="Racute" unicode="&#x154;" horiz-adv-x="639" 
d="M148 0h-40v699c70 4 114 6 185 6c163 0 227 -63 227 -186c0 -112 -52 -174 -161 -194l215 -325h-47l-213 319h-166v-319zM148 357h146c144 0 185 74 185 158c0 98 -42 152 -187 152c-56 0 -88 1 -144 -3v-307zM301 770l92 140h58l-112 -140h-38z" />
    <glyph glyph-name="racute" unicode="&#x155;" horiz-adv-x="388" 
d="M93 0v510h29l7 -115c20 95 85 125 164 125c20 0 49 -5 62 -12v-46c-17 15 -45 22 -76 22c-91 0 -148 -55 -148 -183v-301h-38zM178 605l84 130h56l-104 -130h-36z" />
    <glyph glyph-name="Rcommaaccent" unicode="&#x156;" horiz-adv-x="639" 
d="M148 0h-40v699c70 4 114 6 185 6c163 0 227 -63 227 -186c0 -112 -52 -174 -161 -194l215 -325h-47l-213 319h-166v-319zM148 357h146c144 0 185 74 185 158c0 98 -42 152 -187 152c-56 0 -88 1 -144 -3v-307zM273 -226c30 19 51 49 55 95c-31 0 -42 16 -42 35
s11 36 40 36c23 0 40 -15 40 -53c0 -40 -23 -107 -79 -137z" />
    <glyph glyph-name="rcommaaccent" unicode="&#x157;" horiz-adv-x="388" 
d="M93 0v510h29l7 -115c20 95 85 125 164 125c20 0 49 -5 62 -12v-46c-17 15 -45 22 -76 22c-91 0 -148 -55 -148 -183v-301h-38zM142 -218c29 19 48 44 53 89c-31 0 -41 16 -41 34s11 35 39 35c23 0 40 -15 40 -51c0 -39 -23 -100 -77 -129z" />
    <glyph glyph-name="Rcaron" unicode="&#x158;" horiz-adv-x="639" 
d="M148 0h-40v699c70 4 114 6 185 6c163 0 227 -63 227 -186c0 -112 -52 -174 -161 -194l215 -325h-47l-213 319h-166v-319zM148 357h146c144 0 185 74 185 158c0 98 -42 152 -187 152c-56 0 -88 1 -144 -3v-307zM296 770l-127 140h43l108 -110l107 110h42l-125 -140h-48z
" />
    <glyph glyph-name="rcaron" unicode="&#x159;" horiz-adv-x="388" 
d="M93 0v510h29l7 -115c20 95 85 125 164 125c20 0 49 -5 62 -12v-46c-17 15 -45 22 -76 22c-91 0 -148 -55 -148 -183v-301h-38zM173 605l-118 130h37l103 -100l102 100h38l-118 -130h-44z" />
    <glyph glyph-name="Sacute" unicode="&#x15a;" horiz-adv-x="544" 
d="M433 179c0 222 -360 106 -360 362c0 120 75 169 219 169c68 0 131 -19 153 -31v-55c-34 28 -97 48 -157 48c-111 0 -173 -32 -173 -129c0 -220 361 -102 361 -361c0 -119 -63 -192 -213 -192c-85 0 -151 22 -188 46v63c28 -30 101 -71 177 -71c137 0 181 58 181 151z
M255 770l92 140h58l-112 -140h-38z" />
    <glyph glyph-name="sacute" unicode="&#x15b;" horiz-adv-x="441" 
d="M350 496v-51c-31 23 -72 41 -124 41c-91 0 -127 -33 -127 -94c0 -164 279 -49 279 -258c0 -96 -58 -144 -180 -144c-54 0 -105 12 -134 29v52c32 -29 87 -46 136 -46c92 0 138 32 138 107c0 170 -279 66 -279 258c0 69 34 130 169 130c56 0 105 -15 122 -24zM204 605
l84 130h56l-104 -130h-36z" />
    <glyph glyph-name="Scircumflex" unicode="&#x15c;" horiz-adv-x="544" 
d="M433 179c0 222 -360 106 -360 362c0 120 75 169 219 169c68 0 131 -19 153 -31v-55c-34 28 -97 48 -157 48c-111 0 -173 -32 -173 -129c0 -220 361 -102 361 -361c0 -119 -63 -192 -213 -192c-85 0 -151 22 -188 46v63c28 -30 101 -71 177 -71c137 0 181 58 181 151z
M123 770l127 140h48l125 -140h-41l-108 110l-108 -110h-43z" />
    <glyph glyph-name="scircumflex" unicode="&#x15d;" horiz-adv-x="441" 
d="M350 496v-51c-31 23 -72 41 -124 41c-91 0 -127 -33 -127 -94c0 -164 279 -49 279 -258c0 -96 -58 -144 -180 -144c-54 0 -105 12 -134 29v52c32 -29 87 -46 136 -46c92 0 138 32 138 107c0 170 -279 66 -279 258c0 69 34 130 169 130c56 0 105 -15 122 -24zM81 605
l118 130h44l118 -130h-38l-102 100l-103 -100h-37z" />
    <glyph glyph-name="Scedilla" unicode="&#x15e;" horiz-adv-x="544" 
d="M245 -85l10 75c-81 2 -144 22 -180 46v63c28 -30 101 -71 177 -71c137 0 181 58 181 151c0 222 -360 106 -360 362c0 120 75 169 219 169c68 0 131 -19 153 -31v-55c-34 28 -97 48 -157 48c-111 0 -173 -32 -173 -129c0 -220 361 -102 361 -361
c0 -113 -57 -185 -192 -191l-7 -49c72 -1 115 -23 115 -79c0 -53 -46 -83 -104 -83c-34 0 -56 5 -76 16l4 26c22 -11 39 -14 69 -14c37 0 71 15 71 55c0 41 -42 54 -81 54c-8 0 -23 0 -30 -2z" />
    <glyph glyph-name="scedilla" unicode="&#x15f;" horiz-adv-x="441" 
d="M194 -75l9 65h-5c-54 0 -105 12 -134 29v52c32 -29 87 -46 136 -46c92 0 138 32 138 107c0 170 -279 66 -279 258c0 69 34 130 169 130c56 0 105 -15 122 -24v-51c-31 23 -72 41 -124 41c-91 0 -127 -33 -127 -94c0 -164 279 -49 279 -258c0 -87 -48 -134 -148 -142
l-5 -43c65 0 100 -21 100 -71c0 -44 -37 -78 -94 -78c-26 0 -46 5 -64 14l4 25c20 -9 35 -12 58 -12c38 0 62 20 62 53c0 37 -38 47 -68 47c-8 0 -21 0 -29 -2z" />
    <glyph glyph-name="Scaron" unicode="&#x160;" horiz-adv-x="544" 
d="M433 179c0 222 -360 106 -360 362c0 120 75 169 219 169c68 0 131 -19 153 -31v-55c-34 28 -97 48 -157 48c-111 0 -173 -32 -173 -129c0 -220 361 -102 361 -361c0 -119 -63 -192 -213 -192c-85 0 -151 22 -188 46v63c28 -30 101 -71 177 -71c137 0 181 58 181 151z
M250 770l-127 140h43l108 -110l107 110h42l-125 -140h-48z" />
    <glyph glyph-name="scaron" unicode="&#x161;" horiz-adv-x="441" 
d="M350 496v-51c-31 23 -72 41 -124 41c-91 0 -127 -33 -127 -94c0 -164 279 -49 279 -258c0 -96 -58 -144 -180 -144c-54 0 -105 12 -134 29v52c32 -29 87 -46 136 -46c92 0 138 32 138 107c0 170 -279 66 -279 258c0 69 34 130 169 130c56 0 105 -15 122 -24zM199 605
l-118 130h37l103 -100l102 100h38l-118 -130h-44z" />
    <glyph glyph-name="Tcedilla" unicode="&#x162;" horiz-adv-x="557" 
d="M258 0v662h-230v38h501v-38h-231v-662h-5l-9 -58c72 -1 115 -23 115 -79c0 -53 -46 -83 -104 -83c-34 0 -56 5 -76 16l4 26c22 -11 39 -14 69 -14c37 0 71 15 71 55c0 41 -42 54 -81 54c-8 0 -23 0 -30 -2l12 85h-6z" />
    <glyph glyph-name="tcedilla" unicode="&#x163;" horiz-adv-x="386" 
d="M218 -75l9 67c-63 7 -90 42 -90 126v358h-105v34h105v109l38 15v-124h159v-34h-159v-359c0 -68 25 -92 76 -92c38 0 71 15 88 25v-43c-18 -11 -49 -17 -83 -17h-2l-5 -41c65 0 100 -21 100 -71c0 -44 -37 -78 -94 -78c-26 0 -46 5 -64 14l4 25c20 -9 35 -12 58 -12
c38 0 62 20 62 53c0 37 -38 47 -68 47c-8 0 -21 0 -29 -2z" />
    <glyph glyph-name="Tcaron" unicode="&#x164;" horiz-adv-x="557" 
d="M258 0v662h-230v38h501v-38h-231v-662h-40zM255 770l-127 140h43l108 -110l107 110h42l-125 -140h-48z" />
    <glyph glyph-name="tcaron" unicode="&#x165;" horiz-adv-x="386" 
d="M137 118v358h-105v34h105v109l38 15v-124h159v-34h-159v-359c0 -68 25 -92 76 -92c38 0 71 15 88 25v-43c-18 -11 -49 -17 -83 -17c-83 0 -119 33 -119 128zM285 620l46 180h44l-56 -180h-34z" />
    <glyph glyph-name="Umacron" unicode="&#x16a;" horiz-adv-x="703" 
d="M99 266v434h39v-432c0 -206 87 -241 214 -241c130 0 213 34 213 242v431h40v-430c0 -203 -72 -280 -253 -280c-182 0 -253 77 -253 276zM216 823v34h270v-34h-270z" />
    <glyph glyph-name="umacron" unicode="&#x16b;" horiz-adv-x="584" 
d="M459 0l-6 122c-27 -98 -101 -132 -192 -132c-125 0 -173 68 -173 170v350h38v-348c0 -100 49 -137 141 -137c123 0 186 78 186 179v306h38v-510h-32zM167 653v34h250v-34h-250z" />
    <glyph glyph-name="Ubreve" unicode="&#x16c;" horiz-adv-x="703" 
d="M99 266v434h39v-432c0 -206 87 -241 214 -241c130 0 213 34 213 242v431h40v-430c0 -203 -72 -280 -253 -280c-182 0 -253 77 -253 276zM212 890l30 10c15 -50 45 -86 110 -86s95 36 110 86l30 -10c-20 -68 -65 -110 -140 -110s-120 42 -140 110z" />
    <glyph glyph-name="ubreve" unicode="&#x16d;" horiz-adv-x="584" 
d="M459 0l-6 122c-27 -98 -101 -132 -192 -132c-125 0 -173 68 -173 170v350h38v-348c0 -100 49 -137 141 -137c123 0 186 78 186 179v306h38v-510h-32zM149 720l28 10c15 -50 47 -88 112 -88s97 38 112 88l28 -10c-20 -68 -65 -110 -140 -110s-120 42 -140 110z" />
    <glyph glyph-name="Uring" unicode="&#x16e;" horiz-adv-x="703" 
d="M99 266v434h39v-432c0 -206 87 -241 214 -241c130 0 213 34 213 242v431h40v-430c0 -203 -72 -280 -253 -280c-182 0 -253 77 -253 276zM260 840c0 53 29 92 92 92s92 -39 92 -92c0 -54 -29 -92 -92 -92s-92 38 -92 92zM292 840c0 -38 22 -60 60 -60s60 22 60 60
s-22 60 -60 60s-60 -22 -60 -60z" />
    <glyph glyph-name="uring" unicode="&#x16f;" horiz-adv-x="584" 
d="M459 0l-6 122c-27 -98 -101 -132 -192 -132c-125 0 -173 68 -173 170v350h38v-348c0 -100 49 -137 141 -137c123 0 186 78 186 179v306h38v-510h-32zM199 670c0 51 29 90 90 90s90 -39 90 -90c0 -53 -29 -90 -90 -90s-90 37 -90 90zM229 670c0 -38 22 -60 60 -60
s60 22 60 60s-22 60 -60 60s-60 -22 -60 -60z" />
    <glyph glyph-name="Uhungarumlaut" unicode="&#x170;" horiz-adv-x="703" 
d="M99 266v434h39v-432c0 -206 87 -241 214 -241c130 0 213 34 213 242v431h40v-430c0 -203 -72 -280 -253 -280c-182 0 -253 77 -253 276zM261 775l84 130h52l-100 -130h-36zM405 775l100 130h56l-118 -130h-38z" />
    <glyph glyph-name="uhungarumlaut" unicode="&#x171;" horiz-adv-x="584" 
d="M459 0l-6 122c-27 -98 -101 -132 -192 -132c-125 0 -173 68 -173 170v350h38v-348c0 -100 49 -137 141 -137c123 0 186 78 186 179v306h38v-510h-32zM208 605l84 130h50l-100 -130h-34zM334 605l100 130h54l-118 -130h-36z" />
    <glyph glyph-name="Uogonek" unicode="&#x172;" horiz-adv-x="703" 
d="M479 -172v-30c-19 -11 -50 -18 -77 -18c-65 0 -93 34 -93 81c0 48 32 94 78 130c-11 0 -23 -1 -35 -1c-182 0 -253 77 -253 276v434h39v-432c0 -206 87 -241 214 -241c130 0 213 34 213 242v431h40v-430c0 -173 -53 -254 -180 -274c-41 -33 -80 -75 -80 -130
c0 -34 18 -56 66 -56c23 0 50 6 68 18z" />
    <glyph glyph-name="uogonek" unicode="&#x173;" horiz-adv-x="584" 
d="M524 -154v-28c-19 -11 -39 -18 -66 -18c-55 0 -83 34 -83 76c0 44 30 88 84 125l-6 121c-27 -98 -101 -132 -192 -132c-125 0 -173 68 -173 170v350h38v-348c0 -100 49 -137 141 -137c123 0 186 78 186 179v306h38v-510h-2c-44 -34 -78 -71 -78 -119c0 -29 18 -53 56 -53
c23 0 39 6 57 18z" />
    <glyph glyph-name="Ydieresis" unicode="&#x178;" horiz-adv-x="574" 
d="M268 0v291l-241 409h47l214 -368l211 368h48l-239 -409v-291h-40zM147 840c0 22 12 34 34 34s34 -12 34 -34s-12 -34 -34 -34s-34 12 -34 34zM359 840c0 22 12 34 34 34s34 -12 34 -34s-12 -34 -34 -34s-34 12 -34 34z" />
    <glyph glyph-name="Zacute" unicode="&#x179;" horiz-adv-x="566" 
d="M43 0v37l428 625h-416v38h462v-37l-426 -625h432v-38h-480zM265 770l92 140h58l-112 -140h-38z" />
    <glyph glyph-name="zacute" unicode="&#x17a;" horiz-adv-x="475" 
d="M52 0v36l323 440h-314v34h358v-35l-323 -440h327v-35h-371zM220 605l84 130h56l-104 -130h-36z" />
    <glyph glyph-name="Zdotaccent" unicode="&#x17b;" horiz-adv-x="566" 
d="M43 0v37l428 625h-416v38h462v-37l-426 -625h432v-38h-480zM250 840c0 22 12 34 34 34s34 -12 34 -34s-12 -34 -34 -34s-34 12 -34 34z" />
    <glyph glyph-name="zdotaccent" unicode="&#x17c;" horiz-adv-x="475" 
d="M52 0v36l323 440h-314v34h358v-35l-323 -440h327v-35h-371zM206 670c0 20 12 32 32 32s32 -12 32 -32s-12 -32 -32 -32s-32 12 -32 32z" />
    <glyph glyph-name="Zcaron" unicode="&#x17d;" horiz-adv-x="566" 
d="M43 0v37l428 625h-416v38h462v-37l-426 -625h432v-38h-480zM260 770l-127 140h43l108 -110l107 110h42l-125 -140h-48z" />
    <glyph glyph-name="zcaron" unicode="&#x17e;" horiz-adv-x="475" 
d="M52 0v36l323 440h-314v34h358v-35l-323 -440h327v-35h-371zM216 605l-118 130h37l103 -100l102 100h38l-118 -130h-44z" />
    <glyph glyph-name="uni018F" unicode="&#x18f;" horiz-adv-x="692" 
d="M71 370h506c0 169 -74 302 -277 302c-56 0 -111 -8 -159 -27v38c46 17 100 27 163 27c208 0 317 -122 317 -354c0 -198 -81 -366 -282 -366c-166 0 -268 111 -268 337v43zM113 310c3 -183 79 -282 226 -282c141 0 234 106 238 305h-464v-23z" />
    <glyph glyph-name="florin" unicode="&#x192;" horiz-adv-x="504" 
d="M-31 -210l9 37c10 -3 19 -4 28 -4c60 0 96 37 115 132l109 520h-103l8 35h102l20 89c24 118 85 159 167 159c16 0 32 -1 53 -7l-6 -35c-12 4 -28 7 -52 7c-73 0 -107 -45 -126 -138l-17 -75h151l-7 -35h-151l-107 -512c-23 -108 -56 -177 -160 -177c-8 0 -21 1 -33 4z
" />
    <glyph glyph-name="uni01DD" unicode="&#x1dd;" horiz-adv-x="551" 
d="M63 260h384c-1 152 -59 225 -195 225c-67 0 -121 -22 -156 -53v45c28 21 85 42 156 42c162 0 235 -87 235 -269c0 -183 -85 -258 -217 -258c-158 0 -207 91 -207 250v18zM269 26c114 0 173 67 178 202h-344c-1 -108 28 -202 166 -202z" />
    <glyph glyph-name="Gcaron" unicode="&#x1e6;" horiz-adv-x="668" 
d="M378 303v38h208v-311c-41 -20 -113 -40 -188 -40c-220 0 -325 107 -325 352c0 255 105 368 332 368c64 0 117 -15 149 -27v-48c-34 21 -103 37 -152 37c-200 0 -287 -100 -287 -323c0 -228 88 -321 287 -321c49 0 104 10 145 26v249h-169zM362 770l-127 140h43l108 -110
l107 110h42l-125 -140h-48z" />
    <glyph glyph-name="gcaron" unicode="&#x1e7;" horiz-adv-x="599" 
d="M115 -151v52c26 -28 92 -56 174 -56c138 0 179 56 179 160v119c-28 -90 -90 -134 -193 -134c-140 0 -210 93 -210 262c0 193 81 268 219 268c108 0 166 -56 184 -125l6 116h32v-502c0 -148 -75 -199 -215 -199c-78 0 -138 17 -176 39zM283 25c116 0 185 60 185 213v49
c0 101 -44 199 -182 199c-126 0 -182 -71 -182 -235c0 -148 61 -226 179 -226zM265 605l-118 130h37l103 -100l102 100h38l-118 -130h-44z" />
    <glyph glyph-name="Scommaaccent" unicode="&#x218;" horiz-adv-x="544" 
d="M433 179c0 222 -360 106 -360 362c0 120 75 169 219 169c68 0 131 -19 153 -31v-55c-34 28 -97 48 -157 48c-111 0 -173 -32 -173 -129c0 -220 361 -102 361 -361c0 -119 -63 -192 -213 -192c-85 0 -151 22 -188 46v63c28 -30 101 -71 177 -71c137 0 181 58 181 151z
M224 -226c30 19 51 49 55 95c-31 0 -42 16 -42 35s11 36 40 36c23 0 40 -15 40 -53c0 -40 -23 -107 -79 -137z" />
    <glyph glyph-name="scommaaccent" unicode="&#x219;" horiz-adv-x="441" 
d="M350 496v-51c-31 23 -72 41 -124 41c-91 0 -127 -33 -127 -94c0 -164 279 -49 279 -258c0 -96 -58 -144 -180 -144c-54 0 -105 12 -134 29v52c32 -29 87 -46 136 -46c92 0 138 32 138 107c0 170 -279 66 -279 258c0 69 34 130 169 130c56 0 105 -15 122 -24zM172 -218
c29 19 48 44 53 89c-31 0 -41 16 -41 34s11 35 39 35c23 0 40 -15 40 -51c0 -39 -23 -100 -77 -129z" />
    <glyph glyph-name="Tcommaaccent" unicode="&#x21a;" horiz-adv-x="557" 
d="M258 0v662h-230v38h501v-38h-231v-662h-40zM231 -226c30 19 51 49 55 95c-31 0 -42 16 -42 35s11 36 40 36c23 0 40 -15 40 -53c0 -40 -23 -107 -79 -137z" />
    <glyph glyph-name="tcommaaccent" unicode="&#x21b;" horiz-adv-x="386" 
d="M137 118v358h-105v34h105v109l38 15v-124h159v-34h-159v-359c0 -68 25 -92 76 -92c38 0 71 15 88 25v-43c-18 -11 -49 -17 -83 -17c-83 0 -119 33 -119 128zM196 -218c29 19 48 44 53 89c-31 0 -41 16 -41 34s11 35 39 35c23 0 40 -15 40 -51c0 -39 -23 -100 -77 -129z
" />
    <glyph glyph-name="uni0237" unicode="&#x237;" horiz-adv-x="226" 
d="M94 -59v569h38v-574c0 -67 -22 -121 -110 -121c-26 0 -46 2 -59 7v47c13 -9 32 -17 58 -17c44 0 73 16 73 89z" />
    <glyph glyph-name="uni0259" unicode="&#x259;" horiz-adv-x="551" 
d="M63 260h384c-1 152 -59 225 -195 225c-67 0 -121 -22 -156 -53v45c28 21 85 42 156 42c162 0 235 -87 235 -269c0 -183 -85 -258 -217 -258c-158 0 -207 91 -207 250v18zM269 26c114 0 173 67 178 202h-344c-1 -108 28 -202 166 -202z" />
    <glyph glyph-name="afii57929" unicode="&#x2bc;" horiz-adv-x="165" 
d="M45 520l46 180h44l-56 -180h-34z" />
    <glyph glyph-name="circumflex" unicode="&#x2c6;" horiz-adv-x="581" 
d="M150 605l118 130h44l118 -130h-38l-102 100l-103 -100h-37z" />
    <glyph glyph-name="caron" unicode="&#x2c7;" horiz-adv-x="581" 
d="M268 605l-118 130h37l103 -100l102 100h38l-118 -130h-44z" />
    <glyph glyph-name="breve" unicode="&#x2d8;" horiz-adv-x="581" 
d="M150 720l28 10c15 -50 47 -88 112 -88s97 38 112 88l28 -10c-20 -68 -65 -110 -140 -110s-120 42 -140 110z" />
    <glyph glyph-name="dotaccent" unicode="&#x2d9;" horiz-adv-x="252" 
d="M94 670c0 20 12 32 32 32s32 -12 32 -32s-12 -32 -32 -32s-32 12 -32 32z" />
    <glyph glyph-name="ring" unicode="&#x2da;" horiz-adv-x="581" 
d="M200 670c0 51 29 90 90 90s90 -39 90 -90c0 -53 -29 -90 -90 -90s-90 37 -90 90zM230 670c0 -38 22 -60 60 -60s60 22 60 60s-22 60 -60 60s-60 -22 -60 -60z" />
    <glyph glyph-name="ogonek" unicode="&#x2db;" horiz-adv-x="567" 
d="M451 -154v-28c-19 -11 -39 -18 -66 -18c-55 0 -83 34 -83 76c0 46 33 92 92 131l22 -7c-44 -34 -78 -71 -78 -119c0 -29 18 -53 56 -53c23 0 39 6 57 18z" />
    <glyph glyph-name="tilde" unicode="&#x2dc;" horiz-adv-x="581" 
d="M183 636l-28 7c6 38 30 65 69 65c23 0 43 -9 71 -22c26 -11 46 -23 63 -23c20 0 32 11 40 41l27 -8c-8 -41 -33 -64 -67 -64c-20 0 -34 5 -72 23c-22 11 -43 21 -61 21c-20 0 -33 -9 -42 -40z" />
    <glyph glyph-name="hungarumlaut" unicode="&#x2dd;" horiz-adv-x="581" 
d="M204 605l84 130h50l-100 -130h-34zM330 605l100 130h54l-118 -130h-36z" />
    <glyph glyph-name="acutecomb" unicode="&#x301;" horiz-adv-x="0" 
d="M-300 605l84 130h56l-104 -130h-36z" />
    <glyph glyph-name="uni0394" unicode="&#x394;" horiz-adv-x="648" 
d="M25 0l281 705h40l278 -705h-599zM80 38h487l-240 618h-2z" />
    <glyph glyph-name="uni0394" unicode="&#x2206;" horiz-adv-x="648" 
d="M25 0l281 705h40l278 -705h-599zM80 38h487l-240 618h-2z" />
    <glyph glyph-name="uni03A9" unicode="&#x3a9;" horiz-adv-x="767" 
d="M73 0v38h204v84c-128 35 -204 133 -204 285c0 178 117 303 311 303c193 0 310 -125 310 -303c0 -152 -76 -250 -203 -285v-84h203v-38h-242v150c121 22 200 115 200 257s-93 265 -268 265c-177 0 -268 -123 -268 -265s79 -235 199 -257v-150h-242z" />
    <glyph glyph-name="uni03A9" unicode="&#x2126;" horiz-adv-x="767" 
d="M73 0v38h204v84c-128 35 -204 133 -204 285c0 178 117 303 311 303c193 0 310 -125 310 -303c0 -152 -76 -250 -203 -285v-84h203v-38h-242v150c121 22 200 115 200 257s-93 265 -268 265c-177 0 -268 -123 -268 -265s79 -235 199 -257v-150h-242z" />
    <glyph glyph-name="pi" unicode="&#x3c0;" horiz-adv-x="631" 
d="M139 0v474c-38 0 -78 -15 -100 -31l-16 33c25 16 65 34 142 34h419v-35h-84v-355c0 -61 11 -92 48 -92c7 0 17 2 24 3l1 -37c-8 -1 -23 -3 -33 -3c-60 0 -78 51 -78 127v357h-284v-475h-39z" />
    <glyph glyph-name="afii10023" unicode="&#x401;" horiz-adv-x="590" 
d="M108 0v700h400v-38h-360v-284h333v-37h-333v-303h360v-38h-400zM168 840c0 22 12 34 34 34s34 -12 34 -34s-12 -34 -34 -34s-34 12 -34 34zM380 840c0 22 12 34 34 34s34 -12 34 -34s-12 -34 -34 -34s-34 12 -34 34z" />
    <glyph glyph-name="afii10051" unicode="&#x402;" horiz-adv-x="787" 
d="M258 0v662h-230v38h501v-38h-231v-278c44 19 104 44 199 44c153 0 225 -83 225 -202v-16c0 -124 -73 -220 -215 -220c-24 0 -50 2 -74 9v38c24 -7 47 -10 73 -10c116 0 174 82 174 183v11c0 80 -41 170 -193 170c-83 0 -152 -24 -189 -44v-347h-40z" />
    <glyph glyph-name="afii10052" unicode="&#x403;" horiz-adv-x="531" 
d="M108 0v700h371v-38h-331v-662h-40zM251 770l92 140h58l-112 -140h-38z" />
    <glyph glyph-name="afii10053" unicode="&#x404;" horiz-adv-x="611" 
d="M382 28c73 0 120 16 161 42v-54c-33 -12 -84 -26 -159 -26c-227 0 -311 128 -311 371c0 235 86 349 306 349c73 0 127 -15 165 -31v-54c-46 30 -96 47 -164 47c-202 0 -261 -111 -265 -291h323v-37h-323c4 -189 59 -316 267 -316z" />
    <glyph glyph-name="afii10054" unicode="&#x405;" horiz-adv-x="544" 
d="M433 179c0 222 -360 106 -360 362c0 120 75 169 219 169c68 0 131 -19 153 -31v-55c-34 28 -97 48 -157 48c-111 0 -173 -32 -173 -129c0 -220 361 -102 361 -361c0 -119 -63 -192 -213 -192c-85 0 -151 22 -188 46v63c28 -30 101 -71 177 -71c137 0 181 58 181 151z" />
    <glyph glyph-name="afii10055" unicode="&#x406;" horiz-adv-x="267" 
d="M113 0v700h40v-700h-40z" />
    <glyph glyph-name="afii10056" unicode="&#x407;" horiz-adv-x="267" 
d="M113 0v700h40v-700h-40zM-7 840c0 22 12 34 34 34s34 -12 34 -34s-12 -34 -34 -34s-34 12 -34 34zM205 840c0 22 12 34 34 34s34 -12 34 -34s-12 -34 -34 -34s-34 12 -34 34z" />
    <glyph glyph-name="afii10057" unicode="&#x408;" horiz-adv-x="388" 
d="M240 175v525h40v-533c0 -115 -51 -177 -162 -177c-55 0 -85 10 -100 16v47c24 -14 66 -25 99 -25c82 0 123 43 123 147z" />
    <glyph glyph-name="afii10058" unicode="&#x409;" horiz-adv-x="1020" 
d="M18 -6v47c10 -5 19 -10 40 -10c72 0 114 108 129 544l4 125h392v-317c50 4 78 5 127 5c174 0 238 -55 238 -185c0 -149 -91 -208 -253 -208c-57 0 -93 1 -151 5v662h-315l-2 -57c-19 -537 -73 -615 -177 -615c-9 0 -21 1 -32 4zM583 38c44 -4 70 -5 113 -5
c184 0 210 84 210 169c0 78 -19 149 -198 149c-49 0 -76 -1 -125 -5v-308z" />
    <glyph glyph-name="afii10059" unicode="&#x40a;" horiz-adv-x="1062" 
d="M108 0v700h40v-321h437v321h40v-317c49 4 77 5 126 5c175 0 238 -55 238 -185c0 -149 -90 -208 -253 -208c-57 0 -93 1 -151 5v341h-437v-341h-40zM625 38c43 -4 70 -5 113 -5c183 0 210 84 210 169c0 78 -20 149 -199 149c-49 0 -76 -1 -124 -5v-308z" />
    <glyph glyph-name="afii10060" unicode="&#x40b;" horiz-adv-x="787" 
d="M258 0v662h-230v38h501v-38h-231v-274c44 17 98 40 193 40c139 0 213 -53 213 -193v-235h-40v221c0 85 -21 170 -183 170c-76 0 -147 -22 -183 -39v-352h-40z" />
    <glyph glyph-name="afii10061" unicode="&#x40c;" horiz-adv-x="656" 
d="M108 0v700h40v-318h51l353 318h52l-372 -333l388 -367h-55l-368 349h-49v-349h-40zM308 770l92 140h58l-112 -140h-38z" />
    <glyph glyph-name="afii10062" unicode="&#x40e;" horiz-adv-x="621" 
d="M138 5l2 48c17 -12 38 -25 71 -25c58 0 92 71 113 122l-287 550h46l262 -506l212 506h42l-246 -576c-40 -93 -83 -134 -147 -134c-25 0 -48 6 -68 15zM173 905h40c10 -75 50 -96 105 -96s97 21 107 96h38c-10 -95 -70 -130 -145 -130s-135 35 -145 130z" />
    <glyph glyph-name="afii10145" unicode="&#x40f;" horiz-adv-x="700" 
d="M330 -130v130h-222v700h40v-662h404v662h40v-700h-222v-130h-40z" />
    <glyph glyph-name="afii10017" unicode="&#x410;" horiz-adv-x="633" 
d="M558 0l-78 212h-328l-78 -212h-42l267 700h40l262 -700h-43zM317 656l-151 -407h300z" />
    <glyph glyph-name="afii10018" unicode="&#x411;" horiz-adv-x="611" 
d="M108 0v700h382v-38h-342v-260c63 2 108 3 157 3c165 0 234 -54 234 -200c0 -154 -98 -210 -246 -210c-68 0 -118 1 -185 5zM148 38c53 -5 92 -5 146 -5c174 0 202 81 202 169c0 90 -23 165 -198 165c-46 0 -90 -1 -150 -3v-326z" />
    <glyph glyph-name="afii10019" unicode="&#x412;" horiz-adv-x="616" 
d="M108 0v700c72 3 126 5 199 5c172 0 217 -53 217 -181c0 -90 -35 -139 -133 -159c105 -10 153 -66 153 -159c0 -126 -56 -211 -246 -211c-70 0 -123 2 -190 5zM148 38c54 -3 95 -5 149 -5c159 0 205 64 205 170c0 98 -59 141 -178 141h-176v-306zM148 379h150
c140 0 186 48 186 140c0 110 -30 148 -181 148c-57 0 -99 -2 -155 -5v-283z" />
    <glyph glyph-name="afii10020" unicode="&#x413;" horiz-adv-x="531" 
d="M108 0v700h371v-38h-331v-662h-40z" />
    <glyph glyph-name="afii10021" unicode="&#x414;" horiz-adv-x="697" 
d="M22 -130v168h63c83 141 103 378 103 594l1 68h374v-662h82v-168h-39v130h-545v-130h-39zM524 38v624h-297v-49c0 -194 -28 -450 -100 -575h397z" />
    <glyph glyph-name="afii10022" unicode="&#x415;" horiz-adv-x="590" 
d="M108 0v700h400v-38h-360v-284h333v-37h-333v-303h360v-38h-400z" />
    <glyph glyph-name="afii10024" unicode="&#x416;" horiz-adv-x="849" 
d="M101 700l236 -319h68v319h39v-319h68l235 319h47l-246 -332l265 -368h-50l-250 350h-69v-350h-39v350h-69l-252 -350h-48l264 367l-246 333h47z" />
    <glyph glyph-name="afii10025" unicode="&#x417;" horiz-adv-x="564" 
d="M167 343v37h78c109 0 180 50 180 145c0 77 -27 147 -167 147c-64 0 -129 -17 -184 -49v55c61 22 120 32 188 32c131 0 206 -51 206 -179c0 -93 -57 -147 -140 -164c111 -13 164 -75 164 -168c0 -147 -86 -209 -248 -209c-77 0 -145 16 -186 39v57c47 -42 123 -58 191 -58
c178 0 201 90 201 171c0 92 -67 144 -190 144h-93z" />
    <glyph glyph-name="afii10026" unicode="&#x418;" horiz-adv-x="732" 
d="M108 0v700h40v-532c0 -3 0 -108 -1 -111c2 2 63 94 65 96l367 547h45v-700h-40v531c0 3 0 108 1 112c-2 -3 -65 -98 -66 -100l-366 -543h-45z" />
    <glyph glyph-name="afii10027" unicode="&#x419;" horiz-adv-x="732" 
d="M108 0v700h40v-532c0 -3 0 -108 -1 -111c2 2 63 94 65 96l367 547h45v-700h-40v531c0 3 0 108 1 112l-66 -100l-366 -543h-45zM221 905h40c10 -75 50 -96 105 -96s97 21 107 96h38c-10 -95 -70 -130 -145 -130s-135 35 -145 130z" />
    <glyph glyph-name="afii10028" unicode="&#x41a;" horiz-adv-x="656" 
d="M108 0v700h40v-318h51l353 318h52l-372 -333l388 -367h-55l-368 349h-49v-349h-40z" />
    <glyph glyph-name="afii10029" unicode="&#x41b;" horiz-adv-x="692" 
d="M18 -6v47c10 -5 19 -10 40 -10c72 0 114 108 129 544l4 125h392v-700h-39v662h-315l-2 -57c-19 -537 -73 -615 -177 -615c-9 0 -21 1 -32 4z" />
    <glyph glyph-name="afii10030" unicode="&#x41c;" horiz-adv-x="822" 
d="M108 0v700h47l257 -449l257 449h45v-700h-40v553c0 3 0 76 1 82l-44 -79l-200 -351h-39l-200 349c-1 3 -41 74 -45 81c1 -6 1 -80 1 -83v-552h-40z" />
    <glyph glyph-name="afii10031" unicode="&#x41d;" horiz-adv-x="733" 
d="M108 0v700h40v-321h437v321h40v-700h-40v341h-437v-341h-40z" />
    <glyph glyph-name="afii10032" unicode="&#x41e;" horiz-adv-x="735" 
d="M73 350c0 237 101 360 292 360c215 0 297 -126 297 -360c0 -250 -107 -360 -295 -360c-198 0 -294 122 -294 360zM115 350c0 -214 78 -322 255 -322c168 0 250 102 250 322c0 213 -69 322 -256 322c-169 0 -249 -111 -249 -322z" />
    <glyph glyph-name="afii10033" unicode="&#x41f;" horiz-adv-x="717" 
d="M108 0v700h501v-700h-39v662h-422v-662h-40z" />
    <glyph glyph-name="afii10034" unicode="&#x420;" horiz-adv-x="599" 
d="M108 0v700c64 3 103 5 168 5c184 0 251 -58 251 -209c0 -145 -59 -226 -254 -226c-48 0 -77 1 -125 4v-274h-40zM148 312c48 -4 77 -5 125 -5c159 0 212 50 212 187c0 96 -22 173 -211 173c-49 0 -78 -1 -126 -5v-350z" />
    <glyph glyph-name="afii10035" unicode="&#x421;" horiz-adv-x="637" 
d="M540 686v-47c-44 20 -103 33 -163 33c-168 0 -262 -91 -262 -323c0 -230 96 -321 266 -321c59 0 121 16 161 36v-45c-39 -16 -97 -29 -167 -29c-193 0 -302 103 -302 352c0 263 106 368 306 368c78 0 128 -13 161 -24z" />
    <glyph glyph-name="afii10036" unicode="&#x422;" horiz-adv-x="557" 
d="M258 0v662h-230v38h501v-38h-231v-662h-40z" />
    <glyph glyph-name="afii10037" unicode="&#x423;" horiz-adv-x="621" 
d="M138 5l2 48c17 -12 38 -25 71 -25c58 0 92 71 113 122l-287 550h46l262 -506l212 506h42l-246 -576c-40 -93 -83 -134 -147 -134c-25 0 -48 6 -68 15z" />
    <glyph glyph-name="afii10038" unicode="&#x424;" horiz-adv-x="834" 
d="M397 -20v83h-25c-220 0 -304 97 -304 292c0 194 83 291 305 291h24v74h41v-74h25c225 0 304 -95 304 -291c0 -195 -85 -292 -304 -292h-25v-83h-41zM397 100v509h-25c-209 0 -262 -90 -262 -253c0 -165 59 -256 263 -256h24zM438 100h25c207 0 262 92 262 255
c0 166 -51 254 -262 254h-25v-509z" />
    <glyph glyph-name="afii10039" unicode="&#x425;" horiz-adv-x="601" 
d="M28 0l246 366l-224 334h50l200 -306l202 306h47l-224 -333l248 -367h-50l-224 335l-223 -335h-48z" />
    <glyph glyph-name="afii10040" unicode="&#x426;" horiz-adv-x="721" 
d="M108 0v700h40v-662h404v662h40v-662h77v-168h-39v130h-522z" />
    <glyph glyph-name="afii10041" unicode="&#x427;" horiz-adv-x="630" 
d="M483 0v323c-36 -24 -108 -40 -186 -40c-140 0 -214 53 -214 192v225h39v-211c0 -123 52 -169 182 -169c74 0 143 20 179 40v340h39v-700h-39z" />
    <glyph glyph-name="afii10042" unicode="&#x428;" horiz-adv-x="894" 
d="M108 0v700h40v-662h279v662h40v-662h279v662h40v-700h-678z" />
    <glyph glyph-name="afii10043" unicode="&#x429;" horiz-adv-x="916" 
d="M108 0v700h40v-662h279v662h40v-662h279v662h40v-662h78v-168h-39v130h-717z" />
    <glyph glyph-name="afii10044" unicode="&#x42a;" horiz-adv-x="669" 
d="M192 0v662h-155v38h195v-281c49 4 77 5 126 5c175 0 238 -63 238 -212c0 -155 -90 -217 -253 -217c-57 0 -93 1 -151 5zM232 38c43 -4 70 -5 113 -5c183 0 209 88 209 179s-19 175 -198 175c-49 0 -75 -1 -124 -5v-344z" />
    <glyph glyph-name="afii10045" unicode="&#x42b;" horiz-adv-x="782" 
d="M108 0v700h40v-281c49 3 77 5 139 5c161 0 225 -64 225 -212c0 -155 -90 -217 -252 -217c-58 0 -94 2 -152 5zM148 38c44 -3 70 -5 114 -5c182 0 208 88 208 179c0 90 -19 175 -190 175c-57 0 -83 -1 -132 -5v-344zM634 0v700h40v-700h-40z" />
    <glyph glyph-name="afii10046" unicode="&#x42c;" horiz-adv-x="585" 
d="M108 0v700h40v-281c49 4 77 5 126 5c175 0 238 -63 238 -212c0 -155 -90 -217 -253 -217c-56 0 -93 1 -151 5zM148 38c43 -4 70 -5 113 -5c183 0 210 88 210 179s-20 175 -199 175c-49 0 -75 -1 -124 -5v-344z" />
    <glyph glyph-name="afii10047" unicode="&#x42d;" horiz-adv-x="611" 
d="M229 28c208 0 263 127 267 316h-323v37h323c-4 180 -63 291 -265 291c-68 0 -118 -17 -164 -47v54c38 16 92 31 165 31c220 0 306 -114 306 -349c0 -243 -84 -371 -311 -371c-75 0 -126 14 -159 26v54c41 -26 88 -42 161 -42z" />
    <glyph glyph-name="afii10048" unicode="&#x42e;" horiz-adv-x="934" 
d="M587 710c194 0 275 -113 275 -360c0 -267 -102 -360 -284 -360c-201 0 -270 141 -273 351h-157v-341h-40v700h40v-322h157c5 214 87 332 282 332zM344 353c0 -227 74 -325 237 -325c165 0 239 88 239 322c0 228 -63 322 -234 322c-162 0 -242 -96 -242 -319z" />
    <glyph glyph-name="afii10049" unicode="&#x42f;" horiz-adv-x="627" 
d="M52 0l193 293c-108 15 -158 79 -158 198c0 149 77 214 272 214c44 0 88 -1 160 -5v-700h-40v288h-194l-186 -288h-47zM479 326v336c-61 4 -88 5 -132 5c-177 0 -218 -69 -218 -177c0 -118 56 -164 166 -164h184z" />
    <glyph glyph-name="afii10065" unicode="&#x430;" horiz-adv-x="525" 
d="M407 0l-7 122c-22 -81 -74 -132 -173 -132c-116 0 -169 51 -169 152c0 99 51 145 213 145h127v62c0 96 -46 137 -147 137c-63 0 -126 -28 -158 -54v50c29 17 94 38 162 38c137 0 182 -60 182 -179v-341h-30zM98 146c0 -78 37 -121 139 -121c95 0 161 67 161 179v51h-123
c-145 0 -177 -38 -177 -109z" />
    <glyph glyph-name="afii10066" unicode="&#x431;" horiz-adv-x="583" 
d="M481 760v-43c-31 -9 -56 -12 -164 -27c-130 -17 -210 -25 -211 -334h1c26 96 79 164 211 164c139 0 200 -73 200 -261c0 -177 -80 -269 -222 -269c-160 0 -226 97 -226 297c0 360 54 414 241 441c73 10 129 19 170 32zM298 25c118 0 181 73 181 234
c0 169 -56 227 -170 227c-144 0 -196 -102 -196 -232c0 -154 60 -229 185 -229z" />
    <glyph glyph-name="afii10067" unicode="&#x432;" horiz-adv-x="530" 
d="M93 0v511c64 4 103 4 170 4c148 0 187 -40 187 -132c0 -56 -24 -101 -97 -116c82 -6 119 -54 119 -124c0 -105 -59 -148 -197 -148c-71 0 -115 2 -182 5zM131 34c54 -3 89 -5 145 -5c131 0 156 42 156 117c0 77 -51 103 -146 103h-155v-215zM131 282h157
c78 0 124 24 124 96c0 63 -19 103 -146 103c-53 0 -84 0 -135 -4v-195z" />
    <glyph glyph-name="afii10068" unicode="&#x433;" horiz-adv-x="436" 
d="M93 0v510h305v-35h-267v-475h-38z" />
    <glyph glyph-name="afii10069" unicode="&#x434;" horiz-adv-x="569" 
d="M23 -130v165h53c44 76 72 217 78 408l2 67h300v-475h71v-165h-38v130h-428v-130h-38zM418 35v440h-227l-1 -35c-4 -151 -30 -324 -75 -405h303z" />
    <glyph glyph-name="afii10070" unicode="&#x435;" horiz-adv-x="551" 
d="M488 251h-384c1 -151 59 -226 196 -226c67 0 120 21 155 52v-45c-28 -21 -85 -42 -156 -42c-162 0 -234 89 -234 271c0 183 85 259 216 259c158 0 207 -91 207 -251v-18zM282 487c-114 0 -173 -68 -178 -203h344c1 108 -28 203 -166 203z" />
    <glyph glyph-name="afii10072" unicode="&#x436;" horiz-adv-x="715" 
d="M78 0h-45l197 264l-190 246h46l175 -231h77v231h38v-231h78l175 231h45l-189 -246l197 -264h-46l-184 248h-76v-248h-38v248h-75z" />
    <glyph glyph-name="afii10073" unicode="&#x437;" horiz-adv-x="491" 
d="M53 26v52c35 -28 91 -53 177 -53c113 0 159 42 159 115c0 63 -36 109 -145 109h-88v32h90c92 0 124 47 124 108c0 63 -35 97 -146 97c-67 0 -117 -19 -157 -48v51c43 18 98 31 154 31c144 0 189 -47 189 -125c0 -76 -40 -116 -112 -127c88 -4 131 -48 131 -125
c0 -91 -60 -153 -201 -153c-65 0 -127 12 -175 36z" />
    <glyph glyph-name="afii10074" unicode="&#x438;" horiz-adv-x="588" 
d="M93 0v510h38v-394c0 -4 -1 -57 -1 -59h1c2 3 35 50 37 52l291 401h36v-510h-38v394c0 5 1 57 1 59h-1c-1 -2 -33 -48 -35 -51l-293 -402h-36z" />
    <glyph glyph-name="afii10075" unicode="&#x439;" horiz-adv-x="588" 
d="M93 0v510h38v-394c0 -4 -1 -57 -1 -59h1l37 52l291 401h36v-510h-38v394c0 5 1 57 1 59h-1l-35 -51l-293 -402h-36zM154 730h38c10 -70 52 -88 102 -88s94 18 104 88h36c-10 -90 -70 -120 -140 -120s-130 30 -140 120z" />
    <glyph glyph-name="afii10076" unicode="&#x43a;" horiz-adv-x="521" 
d="M437 0l-244 248h-62v-248h-38v510h38v-231h60l233 231h51l-249 -244l263 -266h-52z" />
    <glyph glyph-name="afii10077" unicode="&#x43b;" horiz-adv-x="568" 
d="M23 -4v48c9 -4 16 -6 26 -6c74 0 102 101 102 424v48h323v-510h-38v475h-248v-42c-1 -317 -37 -440 -140 -440c-10 0 -16 1 -25 3z" />
    <glyph glyph-name="afii10078" unicode="&#x43c;" horiz-adv-x="651" 
d="M93 0v510h51l183 -344l180 344h51v-510h-38v393v74c-2 -4 -32 -68 -34 -71l-143 -268h-35l-144 270c-1 3 -31 65 -33 69v-74v-393h-38z" />
    <glyph glyph-name="afii10079" unicode="&#x43d;" horiz-adv-x="588" 
d="M93 0v510h38v-230h326v230h38v-510h-38v245h-326v-245h-38z" />
    <glyph glyph-name="afii10080" unicode="&#x43e;" horiz-adv-x="579" 
d="M65 256c0 166 66 264 225 264c163 0 224 -92 224 -264c0 -166 -69 -266 -225 -266c-162 0 -224 95 -224 266zM104 259v-3c0 -154 54 -231 186 -231c131 0 185 79 185 232v3c0 148 -47 226 -186 226c-131 0 -185 -78 -185 -227z" />
    <glyph glyph-name="afii10081" unicode="&#x43f;" horiz-adv-x="577" 
d="M93 0v510h390v-510h-38v475h-314v-475h-38z" />
    <glyph glyph-name="afii10082" unicode="&#x440;" horiz-adv-x="599" 
d="M93 -180v690h31l7 -117c28 94 103 127 197 127c142 0 206 -77 206 -255c0 -183 -66 -275 -213 -275c-94 0 -163 44 -190 131v-301h-38zM131 234c0 -101 50 -209 184 -209c131 0 180 85 180 239c0 151 -45 222 -173 222c-119 0 -191 -71 -191 -205v-47z" />
    <glyph glyph-name="afii10083" unicode="&#x441;" horiz-adv-x="500" 
d="M432 497v-45c-27 16 -77 33 -127 33c-141 0 -201 -80 -201 -223c0 -152 64 -237 208 -237c44 0 105 18 130 37v-46c-25 -11 -81 -26 -139 -26c-171 0 -238 103 -238 270c0 164 73 260 236 260c57 0 108 -14 131 -23z" />
    <glyph glyph-name="afii10084" unicode="&#x442;" horiz-adv-x="459" 
d="M211 0v475h-179v35h395v-35h-178v-475h-38z" />
    <glyph glyph-name="afii10085" unicode="&#x443;" horiz-adv-x="519" 
d="M157 -151c68 0 78 75 105 146l-225 515h42l203 -468l165 468h40l-201 -552c-38 -106 -65 -144 -136 -144c-23 0 -39 4 -52 10v43c12 -10 29 -18 59 -18z" />
    <glyph glyph-name="afii10086" unicode="&#x444;" horiz-adv-x="714" 
d="M376 -180h-38v177c-15 -2 -34 -2 -53 -2c-162 0 -220 83 -220 259c0 170 59 260 226 260c17 0 34 0 47 -2v238h38v-238c15 1 30 3 50 3c163 0 223 -80 223 -257c0 -170 -63 -263 -229 -263c-17 0 -33 1 -44 2v-177zM289 29c21 0 36 0 49 2v447c-11 2 -29 4 -46 4
c-149 0 -188 -84 -188 -228c0 -142 35 -225 185 -225zM376 30c13 -1 26 -1 43 -1c150 0 191 86 191 230c0 143 -37 223 -189 223c-17 0 -29 -1 -45 -3v-449z" />
    <glyph glyph-name="afii10087" unicode="&#x445;" horiz-adv-x="494" 
d="M32 0l193 268l-174 242h46l152 -214l152 214h43l-174 -241l192 -269h-46l-170 238l-169 -238h-45z" />
    <glyph glyph-name="afii10088" unicode="&#x446;" horiz-adv-x="590" 
d="M93 0v510h38v-475h306v475h38v-475h72v-165h-38v130h-416z" />
    <glyph glyph-name="afii10089" unicode="&#x447;" horiz-adv-x="521" 
d="M72 329v181h39v-174c0 -75 34 -105 135 -105c62 0 114 11 143 22v257h39v-510h-39v219c-19 -7 -80 -22 -146 -22c-112 0 -171 28 -171 132z" />
    <glyph glyph-name="afii10090" unicode="&#x448;" horiz-adv-x="765" 
d="M93 0v510h38v-475h232v475h38v-475h232v475h38v-510h-578z" />
    <glyph glyph-name="afii10091" unicode="&#x449;" horiz-adv-x="784" 
d="M93 0v510h38v-475h232v475h38v-475h232v475h38v-475h71v-165h-38v130h-611z" />
    <glyph glyph-name="afii10092" unicode="&#x44a;" horiz-adv-x="569" 
d="M156 0v475h-124v35h162v-195c48 3 77 5 127 5c135 0 196 -38 196 -162c0 -112 -59 -163 -208 -163c-49 0 -88 1 -153 5zM194 35c49 -4 78 -5 116 -5c121 0 168 32 168 129c0 105 -53 126 -161 126c-48 0 -75 -2 -123 -5v-245z" />
    <glyph glyph-name="afii10093" unicode="&#x44b;" horiz-adv-x="671" 
d="M131 315c43 4 67 5 110 5c145 0 196 -38 196 -162c0 -111 -63 -163 -203 -163c-46 0 -82 1 -141 5v510h38v-195zM131 35c44 -4 68 -5 105 -5c115 0 161 33 161 129c0 104 -46 126 -159 126c-42 0 -65 -1 -107 -5v-245zM539 0v510h38v-510h-38z" />
    <glyph glyph-name="afii10094" unicode="&#x44c;" horiz-adv-x="506" 
d="M93 0v510h38v-195c49 4 68 5 117 5c151 0 205 -38 205 -162c0 -112 -71 -163 -198 -163c-67 0 -97 1 -162 5zM131 35c50 -4 70 -5 121 -5c103 0 162 32 162 129c0 105 -48 126 -169 126c-48 0 -65 -1 -114 -5v-245z" />
    <glyph glyph-name="afii10095" unicode="&#x44d;" horiz-adv-x="503" 
d="M201 25c145 0 194 66 197 223h-261v34h261c-2 125 -34 204 -197 204c-65 0 -109 -23 -138 -43v48c26 14 72 29 142 29c174 0 233 -89 233 -256c0 -186 -62 -274 -236 -274c-71 0 -117 15 -144 26v50c28 -22 80 -41 143 -41z" />
    <glyph glyph-name="afii10096" unicode="&#x44e;" horiz-adv-x="753" 
d="M472 520c145 0 217 -72 217 -264c0 -191 -79 -266 -215 -266c-138 0 -210 78 -213 252h-130v-242h-38v510h38v-233h130c5 137 51 243 211 243zM300 256c0 -156 52 -231 172 -231c113 0 177 60 177 230c0 164 -48 231 -178 231c-122 0 -171 -64 -171 -230z" />
    <glyph glyph-name="afii10097" unicode="&#x44f;" horiz-adv-x="537" 
d="M52 0l146 211c-82 13 -124 58 -124 147c0 108 62 157 215 157c49 0 99 -2 155 -5v-510h-38v205h-169l-140 -205h-45zM406 239v237c-42 3 -80 5 -117 5c-124 0 -175 -31 -175 -124c0 -99 70 -118 154 -118h138z" />
    <glyph glyph-name="afii10071" unicode="&#x451;" horiz-adv-x="551" 
d="M488 251h-384c1 -151 59 -226 196 -226c67 0 120 21 155 52v-45c-28 -21 -85 -42 -156 -42c-162 0 -234 89 -234 271c0 183 85 259 216 259c158 0 207 -91 207 -251v-18zM282 487c-114 0 -173 -68 -178 -203h344c1 108 -28 203 -166 203zM171 670c0 20 12 32 32 32
s32 -12 32 -32s-12 -32 -32 -32s-32 12 -32 32zM327 670c0 20 12 32 32 32s32 -12 32 -32s-12 -32 -32 -32s-32 12 -32 32z" />
    <glyph glyph-name="afii10099" unicode="&#x452;" horiz-adv-x="605" 
d="M386 608h-239v-245c21 82 91 126 189 126c141 0 184 -62 184 -195v-42c0 -162 -40 -333 -193 -424l-26 20c133 81 181 218 181 404v33c0 130 -46 169 -159 169c-128 0 -176 -77 -176 -171v-283h-38v608h-100v30h100v112h38v-112h239v-30z" />
    <glyph glyph-name="afii10100" unicode="&#x453;" horiz-adv-x="436" 
d="M93 0v510h305v-35h-267v-475h-38zM203 605l84 130h56l-104 -130h-36z" />
    <glyph glyph-name="afii10101" unicode="&#x454;" horiz-adv-x="503" 
d="M302 25c63 0 115 19 143 41v-50c-27 -11 -73 -26 -144 -26c-174 0 -236 88 -236 274c0 167 59 256 233 256c70 0 116 -15 142 -29v-48c-29 20 -73 43 -138 43c-163 0 -195 -79 -197 -204h261v-34h-261c3 -157 52 -223 197 -223z" />
    <glyph glyph-name="afii10102" unicode="&#x455;" horiz-adv-x="441" 
d="M350 496v-51c-31 23 -72 41 -124 41c-91 0 -127 -33 -127 -94c0 -164 279 -49 279 -258c0 -96 -58 -144 -180 -144c-54 0 -105 12 -134 29v52c32 -29 87 -46 136 -46c92 0 138 32 138 107c0 170 -279 66 -279 258c0 69 34 130 169 130c56 0 105 -15 122 -24z" />
    <glyph glyph-name="afii10103" unicode="&#x456;" horiz-adv-x="253" 
d="M107 0v510h38v-510h-38zM94 670c0 20 12 32 32 32s32 -12 32 -32s-12 -32 -32 -32s-32 12 -32 32z" />
    <glyph glyph-name="afii10104" unicode="&#x457;" horiz-adv-x="253" 
d="M107 0v510h38v-510h-38zM16 670c0 20 12 32 32 32s32 -12 32 -32s-12 -32 -32 -32s-32 12 -32 32zM172 670c0 20 12 32 32 32s32 -12 32 -32s-12 -32 -32 -32s-32 12 -32 32z" />
    <glyph glyph-name="afii10105" unicode="&#x458;" horiz-adv-x="226" 
d="M94 -59v569h38v-574c0 -67 -22 -121 -110 -121c-26 0 -46 2 -59 7v47c13 -9 32 -17 58 -17c44 0 73 16 73 89zM81 670c0 20 12 32 32 32s32 -12 32 -32s-12 -32 -32 -32s-32 12 -32 32z" />
    <glyph glyph-name="afii10106" unicode="&#x459;" horiz-adv-x="849" 
d="M23 -7v48c9 -4 16 -6 26 -6c74 0 102 104 102 427v48h323v-224c49 4 68 5 117 5c151 0 206 -34 206 -145c0 -104 -72 -151 -199 -151c-66 0 -97 1 -162 5v475h-248v-42c-1 -317 -37 -443 -140 -443c-10 0 -16 1 -25 3zM474 35c50 -4 70 -5 121 -5c103 0 162 29 162 117
c0 90 -48 109 -169 109c-48 0 -65 -1 -114 -5v-216z" />
    <glyph glyph-name="afii10107" unicode="&#x45a;" horiz-adv-x="870" 
d="M93 0v510h38v-230h326v230h38v-224c49 4 68 5 117 5c151 0 205 -34 205 -145c0 -104 -71 -151 -198 -151c-67 0 -97 1 -162 5v245h-326v-245h-38zM495 35c50 -4 70 -5 120 -5c104 0 163 29 163 117c0 90 -49 109 -169 109c-48 0 -65 -1 -114 -5v-216z" />
    <glyph glyph-name="afii10108" unicode="&#x45b;" horiz-adv-x="608" 
d="M109 0v608h-100v30h100v112h38v-112h239v-30h-239v-245c21 82 91 126 189 126c141 0 184 -62 184 -195v-294h-38v285c0 130 -46 169 -159 169c-128 0 -176 -77 -176 -171v-283h-38z" />
    <glyph glyph-name="afii10109" unicode="&#x45c;" horiz-adv-x="521" 
d="M437 0l-244 248h-62v-248h-38v510h38v-231h60l233 231h51l-249 -244l263 -266h-52zM245 605l84 130h56l-104 -130h-36z" />
    <glyph glyph-name="afii10110" unicode="&#x45e;" horiz-adv-x="519" 
d="M157 -151c68 0 78 75 105 146l-225 515h42l203 -468l165 468h40l-201 -552c-38 -106 -65 -144 -136 -144c-23 0 -39 4 -52 10v43c12 -10 29 -18 59 -18zM122 730h38c10 -70 52 -88 102 -88s94 18 104 88h36c-10 -90 -70 -120 -140 -120s-130 30 -140 120z" />
    <glyph glyph-name="afii10193" unicode="&#x45f;" horiz-adv-x="568" 
d="M265 -130v130h-172v510h38v-475h306v475h38v-510h-172v-130h-38z" />
    <glyph glyph-name="afii10050" unicode="&#x490;" horiz-adv-x="531" 
d="M108 0v700h334v130h37v-168h-331v-662h-40z" />
    <glyph glyph-name="afii10098" unicode="&#x491;" horiz-adv-x="436" 
d="M93 0v510h269v130h36v-165h-267v-475h-38z" />
    <glyph glyph-name="uni0492" unicode="&#x492;" horiz-adv-x="578" 
d="M30 345v37h125v318h371v-38h-331v-280h247v-37h-247v-345h-40v345h-125z" />
    <glyph glyph-name="uni0493" unicode="&#x493;" horiz-adv-x="466" 
d="M124 0v233h-96v34h96v244h305v-35h-267v-209h172v-34h-172v-233h-38z" />
    <glyph glyph-name="uni049A" unicode="&#x49a;" horiz-adv-x="666" 
d="M108 0v700h40v-318h51l353 318h52l-372 -333l349 -330h69v-167h-39v130h-46l-368 349h-49v-349h-40z" />
    <glyph glyph-name="uni049B" unicode="&#x49b;" horiz-adv-x="532" 
d="M437 0l-244 248h-62v-248h-38v511h38v-232h60l233 232h51l-249 -245l228 -231h66v-165h-38v130h-45z" />
    <glyph glyph-name="uni04A2" unicode="&#x4a2;" horiz-adv-x="754" 
d="M108 0v700h40v-321h437v321h40v-662h77v-168h-39v130h-78v341h-437v-341h-40z" />
    <glyph glyph-name="uni04A3" unicode="&#x4a3;" horiz-adv-x="610" 
d="M93 0v511h38v-231h326v231h38v-476h73v-165h-38v130h-73v245h-326v-245h-38z" />
    <glyph glyph-name="uni04AE" unicode="&#x4ae;" horiz-adv-x="574" 
d="M268 0v291l-241 409h47l214 -368l211 368h48l-239 -409v-291h-40z" />
    <glyph glyph-name="uni04AF" unicode="&#x4af;" horiz-adv-x="504" 
d="M234 -6l-201 517h42l178 -466l179 466h39l-200 -517v-204h-37v204z" />
    <glyph glyph-name="uni04B0" unicode="&#x4b0;" horiz-adv-x="574" 
d="M87 264v36h175l-235 400h47l214 -368l211 368h48l-234 -400h175v-36h-180v-264h-40v264h-181z" />
    <glyph glyph-name="uni04B1" unicode="&#x4b1;" horiz-adv-x="504" 
d="M422 -34h-151v-176h-37v176h-151v34h148l-198 511h42l178 -466l179 466h39l-198 -511h149v-34z" />
    <glyph glyph-name="uni04BA" unicode="&#x4ba;" horiz-adv-x="639" 
d="M109 0v700h39v-311c45 17 100 39 195 39c140 0 214 -53 214 -193v-235h-41v221c0 85 -21 170 -182 170c-78 0 -149 -21 -186 -38v-353h-39z" />
    <glyph glyph-name="uni04BB" unicode="&#x4bb;" horiz-adv-x="592" 
d="M93 0v750h38v-356c21 81 91 126 189 126c141 0 184 -63 184 -196v-324h-38v315c0 131 -45 171 -159 171c-128 0 -176 -78 -176 -173v-313h-38z" />
    <glyph glyph-name="uni04C0" unicode="&#x4c0;" horiz-adv-x="267" 
d="M113 0v700h40v-700h-40z" />
    <glyph glyph-name="uni04CF" unicode="&#x4cf;" horiz-adv-x="226" 
d="M132 0h-38v750h38v-750z" />
    <glyph glyph-name="uni04D8" unicode="&#x4d8;" horiz-adv-x="692" 
d="M71 370h506c0 169 -74 302 -277 302c-56 0 -111 -8 -159 -27v38c46 17 100 27 163 27c208 0 317 -122 317 -354c0 -198 -81 -366 -282 -366c-166 0 -268 111 -268 337v43zM113 310c3 -183 79 -282 226 -282c141 0 234 106 238 305h-464v-23z" />
    <glyph glyph-name="afii10846" unicode="&#x4d9;" horiz-adv-x="551" 
d="M63 260h384c-1 152 -59 225 -195 225c-67 0 -121 -22 -156 -53v45c28 21 85 42 156 42c162 0 235 -87 235 -269c0 -183 -85 -258 -217 -258c-158 0 -207 91 -207 250v18zM269 26c114 0 173 67 178 202h-344c-1 -108 28 -202 166 -202z" />
    <glyph glyph-name="uni04E8" unicode="&#x4e8;" horiz-adv-x="735" 
d="M73 350c0 237 101 360 292 360c215 0 297 -126 297 -360c0 -250 -107 -360 -295 -360c-198 0 -294 122 -294 360zM370 28c163 0 246 96 250 305h-505c4 -203 82 -305 255 -305zM364 672c-164 0 -244 -105 -249 -303h505c-4 200 -75 303 -256 303z" />
    <glyph glyph-name="uni04E9" unicode="&#x4e9;" horiz-adv-x="579" 
d="M65 256c0 166 66 263 225 263c163 0 224 -91 224 -263c0 -166 -69 -264 -225 -264c-162 0 -224 93 -224 264zM289 485c-127 0 -182 -72 -185 -211h371c-3 139 -52 211 -186 211zM290 27c126 0 180 71 184 212h-370c4 -143 59 -212 186 -212z" />
    <glyph glyph-name="uni1E9E" unicode="&#x1e9e;" horiz-adv-x="646" 
d="M108 0v473c0 146 76 237 223 237c92 0 167 -43 211 -124l-178 -190v-1c192 -2 215 -119 215 -191c0 -124 -82 -214 -226 -214c-27 0 -55 3 -81 9v39c29 -8 57 -10 82 -10c117 0 182 69 182 176c0 103 -59 160 -198 160h-24v23l178 189c-26 62 -87 96 -161 96
c-142 0 -183 -102 -183 -210v-462h-40z" />
    <glyph glyph-name="figuredash" unicode="&#x2012;" horiz-adv-x="727" 
d="M99 337v35h528v-35h-528z" />
    <glyph glyph-name="endash" unicode="&#x2013;" horiz-adv-x="727" 
d="M99 270v35h528v-35h-528z" />
    <glyph glyph-name="emdash" unicode="&#x2014;" horiz-adv-x="896" 
d="M99 270v35h697v-35h-697z" />
    <glyph glyph-name="quoteleft" unicode="&#x2018;" horiz-adv-x="269" 
d="M206 688c-45 -21 -72 -51 -77 -99c26 0 44 -11 44 -37c0 -20 -11 -37 -40 -37c-25 0 -41 16 -41 55c0 45 22 109 85 142z" />
    <glyph glyph-name="quoteright" unicode="&#x2019;" horiz-adv-x="269" 
d="M63 539c45 21 72 51 77 99c-26 0 -44 11 -44 37c0 20 11 37 40 37c25 0 41 -16 41 -55c0 -45 -22 -109 -85 -142z" />
    <glyph glyph-name="quotesinglbase" unicode="&#x201a;" horiz-adv-x="288" 
d="M63 -109c45 21 72 51 77 99c-26 0 -44 11 -44 37c0 20 11 37 40 37c25 0 41 -16 41 -55c0 -45 -22 -109 -85 -142z" />
    <glyph glyph-name="quotedblleft" unicode="&#x201c;" horiz-adv-x="418" 
d="M206 688c-45 -21 -72 -51 -77 -99c26 0 44 -11 44 -37c0 -20 -11 -37 -40 -37c-25 0 -41 16 -41 55c0 45 22 109 85 142zM355 688c-45 -21 -72 -51 -77 -99c26 0 44 -11 44 -37c0 -20 -11 -37 -40 -37c-25 0 -41 16 -41 55c0 45 22 109 85 142z" />
    <glyph glyph-name="quotedblright" unicode="&#x201d;" horiz-adv-x="418" 
d="M63 539c45 21 72 51 77 99c-26 0 -44 11 -44 37c0 20 11 37 40 37c25 0 41 -16 41 -55c0 -45 -22 -109 -85 -142zM212 539c45 21 72 51 77 99c-26 0 -44 11 -44 37c0 20 11 37 40 37c25 0 41 -16 41 -55c0 -45 -22 -109 -85 -142z" />
    <glyph glyph-name="quotedblbase" unicode="&#x201e;" horiz-adv-x="436" 
d="M210 -109c45 21 72 51 77 99c-26 0 -44 11 -44 37c0 20 11 37 40 37c25 0 41 -16 41 -55c0 -45 -22 -109 -85 -142zM63 -109c45 21 72 51 77 99c-26 0 -44 11 -44 37c0 20 11 37 40 37c25 0 41 -16 41 -55c0 -45 -22 -109 -85 -142z" />
    <glyph glyph-name="dagger" unicode="&#x2020;" horiz-adv-x="533" 
d="M247 0v477h-187v33h187v190h40v-190h187v-33h-187v-477h-40z" />
    <glyph glyph-name="daggerdbl" unicode="&#x2021;" horiz-adv-x="533" 
d="M60 190v33h187v254h-187v33h187v190h40v-190h187v-33h-187v-254h187v-33h-187v-190h-40v190h-187z" />
    <glyph glyph-name="bullet" unicode="&#x2022;" horiz-adv-x="339" 
d="M86 352c0 46 36 83 84 83c47 0 84 -37 84 -83c0 -45 -37 -83 -84 -83c-48 0 -84 38 -84 83z" />
    <glyph glyph-name="ellipsis" unicode="&#x2026;" horiz-adv-x="873" 
d="M96 27c0 23 14 37 39 37c22 0 37 -15 37 -37c0 -21 -14 -35 -37 -35c-24 0 -39 14 -39 35zM399 27c0 23 14 37 39 37c22 0 37 -15 37 -37c0 -21 -14 -35 -37 -35c-24 0 -39 14 -39 35zM701 27c0 23 14 37 39 37c22 0 37 -15 37 -37c0 -21 -14 -35 -37 -35
c-24 0 -39 14 -39 35z" />
    <glyph glyph-name="perthousand" unicode="&#x2030;" horiz-adv-x="1197" 
d="M137 0l504 700h36l-502 -700h-38zM445 153c0 95 51 163 151 163c102 0 153 -66 153 -163s-53 -164 -154 -164c-100 0 -150 66 -150 164zM479 153c0 -83 41 -134 116 -134c80 0 120 51 120 134c0 82 -40 133 -120 133c-76 0 -116 -52 -116 -133zM828 153
c0 95 52 163 152 163c102 0 153 -66 153 -163s-52 -164 -154 -164c-99 0 -151 66 -151 164zM863 153c0 -83 41 -134 117 -134c79 0 118 51 118 134c0 82 -38 133 -118 133c-78 0 -117 -52 -117 -133zM66 547c0 96 51 163 151 163c102 0 153 -65 153 -163
c0 -97 -52 -163 -153 -163s-151 65 -151 163zM99 547c0 -82 43 -133 118 -133c79 0 119 50 119 133c0 82 -39 133 -119 133c-76 0 -118 -52 -118 -133z" />
    <glyph glyph-name="guilsinglleft" unicode="&#x2039;" horiz-adv-x="340" 
d="M223 76l-138 193l138 193h42l-136 -193l136 -193h-42z" />
    <glyph glyph-name="guilsinglright" unicode="&#x203a;" horiz-adv-x="340" 
d="M75 76l136 193l-136 193h41l139 -193l-139 -193h-41z" />
    <glyph glyph-name="fraction" unicode="&#x2044;" horiz-adv-x="183" 
d="M-155 -21l457 740h36l-457 -740h-36z" />
    <glyph glyph-name="uni2070" unicode="&#x2070;" 
d="M45 592c0 152 72 216 180 216c120 0 181 -64 181 -216c0 -156 -70 -216 -180 -216c-114 0 -181 66 -181 216zM84 592c0 -133 53 -185 144 -185c86 0 139 52 139 185c0 134 -51 185 -142 185c-85 0 -141 -53 -141 -185z" />
    <glyph glyph-name="uni2074" unicode="&#x2074;" 
d="M42 490v29l270 281h49v-279h54v-31h-54v-108h-38v108h-281zM323 521v246h-1l-234 -246h235z" />
    <glyph glyph-name="uni2075" unicode="&#x2075;" 
d="M86 603l12 197h273v-33h-244l-8 -132c31 2 60 5 107 5c100 0 160 -39 160 -124c0 -84 -56 -140 -163 -140c-46 0 -105 0 -144 17v34c51 -21 92 -19 144 -19c70 0 124 31 124 104c0 68 -40 97 -127 97c-48 0 -86 -2 -134 -6z" />
    <glyph glyph-name="uni2076" unicode="&#x2076;" 
d="M232 376c-108 0 -170 71 -170 201s58 231 199 231c34 0 68 -3 100 -13v-33c-31 12 -71 13 -101 13c-100 0 -159 -61 -168 -186c32 34 86 62 157 62c81 0 151 -36 151 -126c0 -96 -69 -149 -168 -149zM94 558c0 -75 46 -152 139 -152c68 0 129 33 129 118
c0 75 -62 97 -121 97s-113 -28 -147 -63z" />
    <glyph glyph-name="uni2077" unicode="&#x2077;" 
d="M152 382l199 385h-294v33h335v-26l-201 -392h-39z" />
    <glyph glyph-name="uni2078" unicode="&#x2078;" 
d="M225 376c-122 0 -177 43 -177 118c0 59 48 101 117 108c-65 11 -107 47 -107 97c0 66 54 109 167 109s167 -43 167 -109c0 -50 -42 -86 -107 -97c69 -7 117 -49 117 -108c0 -75 -55 -118 -177 -118zM225 407c116 0 139 50 139 88c0 54 -52 90 -139 90s-139 -36 -139 -90
c0 -38 23 -88 139 -88zM225 777c-99 0 -129 -36 -129 -79c0 -55 59 -80 129 -80s129 25 129 80c0 43 -30 79 -129 79z" />
    <glyph glyph-name="uni2079" unicode="&#x2079;" 
d="M219 808c111 0 178 -60 178 -184c0 -136 -52 -248 -179 -248c-62 0 -86 8 -127 17v33c39 -12 70 -18 127 -18c89 0 140 73 149 204c-32 -35 -85 -71 -154 -71c-82 0 -154 37 -154 130c0 89 67 137 160 137zM365 643c-1 70 -48 135 -146 135c-62 0 -122 -29 -122 -106
c0 -78 59 -101 120 -101c59 0 114 36 148 72z" />
    <glyph glyph-name="uni2080" unicode="&#x2080;" 
d="M45 112c0 152 72 216 180 216c120 0 181 -64 181 -216c0 -156 -70 -216 -180 -216c-114 0 -181 66 -181 216zM84 112c0 -133 53 -185 144 -185c86 0 139 52 139 185c0 134 -51 185 -142 185c-85 0 -141 -53 -141 -185z" />
    <glyph glyph-name="uni2081" unicode="&#x2081;" 
d="M252 -98v375l-133 -74l-17 28l159 89h30v-418h-39z" />
    <glyph glyph-name="uni2082" unicode="&#x2082;" 
d="M60 -98v36l115 85c94 69 152 119 152 183c0 67 -53 89 -117 89c-50 0 -100 -11 -133 -26v34c44 18 93 25 139 25c89 0 150 -34 150 -115c0 -76 -57 -133 -167 -213l-89 -64v-1h263v-33h-313z" />
    <glyph glyph-name="uni2083" unicode="&#x2083;" 
d="M143 106v28h67c81 0 126 34 126 80c0 63 -48 81 -124 81c-48 0 -99 -6 -132 -20v33c40 15 93 20 142 20c102 0 152 -40 152 -106c0 -57 -46 -88 -109 -99v-2c87 -10 120 -55 120 -101c0 -92 -91 -124 -174 -124c-48 0 -96 4 -138 22v33c36 -17 87 -23 135 -23
c104 0 138 48 138 92c0 58 -48 86 -133 86h-70z" />
    <glyph glyph-name="uni2084" unicode="&#x2084;" 
d="M42 10v29l270 281h49v-279h54v-31h-54v-108h-38v108h-281zM323 41v246h-1l-234 -246h235z" />
    <glyph glyph-name="uni2085" unicode="&#x2085;" 
d="M86 123l12 197h273v-33h-244l-8 -132c31 2 60 5 107 5c100 0 160 -39 160 -124c0 -84 -56 -140 -163 -140c-46 0 -105 0 -144 17v34c51 -21 92 -19 144 -19c70 0 124 31 124 104c0 68 -40 97 -127 97c-48 0 -86 -2 -134 -6z" />
    <glyph glyph-name="uni2086" unicode="&#x2086;" 
d="M232 -104c-108 0 -170 71 -170 201s58 231 199 231c34 0 68 -3 100 -13v-33c-31 12 -71 13 -101 13c-100 0 -159 -61 -168 -186c32 34 86 62 157 62c81 0 151 -36 151 -126c0 -96 -69 -149 -168 -149zM94 78c0 -75 46 -152 139 -152c68 0 129 33 129 118
c0 75 -62 97 -121 97s-113 -28 -147 -63z" />
    <glyph glyph-name="uni2087" unicode="&#x2087;" 
d="M152 -98l199 385h-294v33h335v-26l-201 -392h-39z" />
    <glyph glyph-name="uni2088" unicode="&#x2088;" 
d="M225 -104c-122 0 -177 43 -177 118c0 59 48 101 117 108c-65 11 -107 47 -107 97c0 66 54 109 167 109s167 -43 167 -109c0 -50 -42 -86 -107 -97c69 -7 117 -49 117 -108c0 -75 -55 -118 -177 -118zM225 -73c116 0 139 50 139 88c0 54 -52 90 -139 90s-139 -36 -139 -90
c0 -38 23 -88 139 -88zM225 297c-99 0 -129 -36 -129 -79c0 -55 59 -80 129 -80s129 25 129 80c0 43 -30 79 -129 79z" />
    <glyph glyph-name="uni2089" unicode="&#x2089;" 
d="M219 328c111 0 178 -60 178 -184c0 -136 -52 -248 -179 -248c-62 0 -86 8 -127 17v33c39 -12 70 -18 127 -18c89 0 140 73 149 204c-32 -35 -85 -71 -154 -71c-82 0 -154 37 -154 130c0 89 67 137 160 137zM365 163c-1 70 -48 135 -146 135c-62 0 -122 -29 -122 -106
c0 -78 59 -101 120 -101c59 0 114 36 148 72z" />
    <glyph glyph-name="Euro" unicode="&#x20ac;" horiz-adv-x="580" 
d="M378 710c71 0 117 -13 147 -23v-47c-41 19 -94 32 -149 32c-130 0 -209 -70 -228 -241h310l-7 -30h-306c-1 -17 -2 -33 -2 -52c0 -18 0 -34 1 -49h279l-7 -30h-269c19 -172 101 -242 233 -242c52 0 110 15 148 34v-43c-37 -16 -90 -29 -154 -29c-155 0 -250 84 -268 280
h-73l7 30h63c-1 13 -1 27 -1 42c0 20 1 40 2 59h-71l8 30h66c20 197 114 279 271 279z" />
    <glyph glyph-name="uni20B4" unicode="&#x20b4;" horiz-adv-x="572" 
d="M79 279v28h113c19 16 103 84 122 100h-235v28h267c68 54 97 92 97 143c0 74 -65 94 -135 94c-55 0 -102 -8 -157 -27v39c50 17 119 26 156 26c140 0 178 -60 178 -129c0 -56 -30 -98 -87 -146h95v-28h-125c-18 -16 -104 -84 -123 -100h248v-28h-277
c-51 -42 -66 -88 -66 -130c0 -55 39 -121 170 -121c41 0 98 4 147 26v-39c-56 -20 -112 -25 -152 -25c-148 0 -208 76 -208 155c0 54 16 96 59 134h-87z" />
    <glyph glyph-name="uni20B8" unicode="&#x20b8;" horiz-adv-x="562" 
d="M261 0v547h-229v33h498v-33h-229v-547h-40zM32 666v34h498v-34h-498z" />
    <glyph glyph-name="uni20BD" unicode="&#x20bd;" horiz-adv-x="581" 
d="M273 312h-112v-102h218v-34h-218v-176h-39v176h-77v34h77v102h-77v33h77v355c58 4 94 5 154 5c181 0 239 -51 239 -191c0 -144 -52 -202 -242 -202zM274 669c-44 0 -69 -2 -113 -5v-319h112c158 0 201 47 201 168c0 100 -33 156 -200 156z" />
    <glyph glyph-name="afii61352" unicode="&#x2116;" horiz-adv-x="1049" 
d="M107 0v700h46l353 -531c2 -2 65 -98 66 -100v101v530h40v-700h-42l-363 548c-2 3 -59 89 -60 92v-88v-552h-40zM724 261v32h253v-32h-253zM716 547c0 94 40 163 134 163c93 0 134 -69 134 -163s-42 -164 -134 -164c-93 0 -134 70 -134 164zM751 547
c0 -74 30 -133 99 -133s99 58 99 133s-29 133 -99 133s-99 -59 -99 -133z" />
    <glyph glyph-name="uni2120" unicode="&#x2120;" horiz-adv-x="863" 
d="M432 376v324h41l117 -198l116 198h41v-324h-34v273l-114 -191h-20l-112 191h-1v-273h-34zM328 690v-40c-22 15 -54 26 -93 26c-68 0 -95 -17 -95 -52c0 -91 207 -31 207 -153c0 -68 -42 -100 -132 -100c-42 0 -85 6 -108 18v43c24 -19 69 -29 110 -29c64 0 96 20 96 65
c0 93 -206 33 -206 156c0 43 25 82 129 82c42 0 79 -9 92 -16z" />
    <glyph glyph-name="trademark" unicode="&#x2122;" horiz-adv-x="806" 
d="M374 376v324h41l117 -198l116 198h42v-324h-34v273l-114 -191h-20l-113 191h-1v-273h-34zM167 376v292h-109v32h253v-32h-110v-292h-34z" />
    <glyph glyph-name="onethird" unicode="&#x2153;" horiz-adv-x="950" 
d="M175 -21l457 740h36l-457 -740h-36zM222 282v375l-133 -74l-17 28l159 89h30v-418h-39zM636 204v28h67c81 0 126 34 126 80c0 63 -48 81 -124 81c-48 0 -99 -6 -132 -20v33c40 15 93 20 142 20c102 0 152 -40 152 -106c0 -57 -46 -88 -109 -99v-2
c87 -10 120 -55 120 -101c0 -92 -91 -124 -174 -124c-48 0 -96 4 -138 22v33c36 -17 87 -23 135 -23c104 0 138 48 138 92c0 58 -48 86 -133 86h-70z" />
    <glyph glyph-name="twothirds" unicode="&#x2154;" horiz-adv-x="950" 
d="M226 -21l457 740h36l-457 -740h-36zM40 282v36l115 85c94 69 152 119 152 183c0 67 -53 89 -117 89c-50 0 -100 -11 -133 -26v34c44 18 93 25 139 25c89 0 150 -34 150 -115c0 -76 -57 -133 -167 -213l-89 -64v-1h263v-33h-313zM654 204v28h67c81 0 126 34 126 80
c0 63 -48 81 -124 81c-48 0 -99 -6 -132 -20v33c40 15 93 20 142 20c102 0 152 -40 152 -106c0 -57 -46 -88 -109 -99v-2c87 -10 120 -55 120 -101c0 -92 -91 -124 -174 -124c-48 0 -96 4 -138 22v33c36 -17 87 -23 135 -23c104 0 138 48 138 92c0 58 -48 86 -133 86h-70z
" />
    <glyph glyph-name="oneeighth" unicode="&#x215b;" horiz-adv-x="950" 
d="M173 -21l457 740h36l-457 -740h-36zM221 282v375l-133 -74l-17 28l159 89h30v-418h-39zM715 -6c-122 0 -177 43 -177 118c0 59 48 101 117 108c-65 11 -107 47 -107 97c0 66 54 109 167 109s167 -43 167 -109c0 -50 -42 -86 -107 -97c69 -7 117 -49 117 -108
c0 -75 -55 -118 -177 -118zM715 25c116 0 139 50 139 88c0 54 -52 90 -139 90s-139 -36 -139 -90c0 -38 23 -88 139 -88zM715 395c-99 0 -129 -36 -129 -79c0 -55 59 -80 129 -80s129 25 129 80c0 43 -30 79 -129 79z" />
    <glyph glyph-name="threeeighths" unicode="&#x215c;" horiz-adv-x="950" 
d="M214 -21l457 740h36l-457 -740h-36zM728 -6c-122 0 -177 43 -177 118c0 59 48 101 117 108c-65 11 -107 47 -107 97c0 66 54 109 167 109s167 -43 167 -109c0 -50 -42 -86 -107 -97c69 -7 117 -49 117 -108c0 -75 -55 -118 -177 -118zM728 25c116 0 139 50 139 88
c0 54 -52 90 -139 90s-139 -36 -139 -90c0 -38 23 -88 139 -88zM728 395c-99 0 -129 -36 -129 -79c0 -55 59 -80 129 -80s129 25 129 80c0 43 -30 79 -129 79zM143 486v28h67c81 0 126 34 126 80c0 63 -48 81 -124 81c-48 0 -99 -6 -132 -20v33c40 15 93 20 142 20
c102 0 152 -40 152 -106c0 -57 -46 -88 -109 -99v-2c87 -10 120 -55 120 -101c0 -92 -91 -124 -174 -124c-48 0 -96 4 -138 22v33c36 -17 87 -23 135 -23c104 0 138 48 138 92c0 58 -48 86 -133 86h-70z" />
    <glyph glyph-name="fiveeighths" unicode="&#x215d;" horiz-adv-x="950" 
d="M209 -21l457 740h36l-457 -740h-36zM78 503l12 197h273v-33h-244l-8 -132c31 2 60 5 107 5c100 0 160 -39 160 -124c0 -84 -56 -140 -163 -140c-46 0 -105 0 -144 17v34c51 -21 92 -19 144 -19c70 0 124 31 124 104c0 68 -40 97 -127 97c-48 0 -86 -2 -134 -6zM724 -6
c-122 0 -177 43 -177 118c0 59 48 101 117 108c-65 11 -107 47 -107 97c0 66 54 109 167 109s167 -43 167 -109c0 -50 -42 -86 -107 -97c69 -7 117 -49 117 -108c0 -75 -55 -118 -177 -118zM724 25c116 0 139 50 139 88c0 54 -52 90 -139 90s-139 -36 -139 -90
c0 -38 23 -88 139 -88zM724 395c-99 0 -129 -36 -129 -79c0 -55 59 -80 129 -80s129 25 129 80c0 43 -30 79 -129 79z" />
    <glyph glyph-name="seveneighths" unicode="&#x215e;" horiz-adv-x="950" 
d="M173 -21l457 740h36l-457 -740h-36zM710 -6c-122 0 -177 43 -177 118c0 59 48 101 117 108c-65 11 -107 47 -107 97c0 66 54 109 167 109s167 -43 167 -109c0 -50 -42 -86 -107 -97c69 -7 117 -49 117 -108c0 -75 -55 -118 -177 -118zM710 25c116 0 139 50 139 88
c0 54 -52 90 -139 90s-139 -36 -139 -90c0 -38 23 -88 139 -88zM710 395c-99 0 -129 -36 -129 -79c0 -55 59 -80 129 -80s129 25 129 80c0 43 -30 79 -129 79zM171 282l199 385h-294v33h335v-26l-201 -392h-39z" />
    <glyph glyph-name="minus" unicode="&#x2212;" horiz-adv-x="586" 
d="M72 305v37h442v-37h-442z" />
    <glyph glyph-name="infinity" unicode="&#x221e;" horiz-adv-x="749" 
d="M439 269l-64 62l-64 -63c-42 -40 -81 -48 -116 -48c-97 0 -134 73 -134 133c0 58 37 133 134 133c33 0 73 -8 116 -50l64 -61l64 63c41 40 80 48 116 48c96 0 134 -72 134 -133c0 -59 -37 -133 -134 -133c-34 0 -74 8 -116 49zM397 353l63 -61c26 -23 52 -39 93 -39
c75 0 102 55 102 100c0 49 -31 100 -101 100c-40 0 -70 -16 -99 -45zM353 353l-64 59c-25 25 -51 41 -92 41c-75 0 -102 -56 -102 -100c0 -49 31 -100 101 -100c39 0 69 16 98 44z" />
    <glyph glyph-name="approxequal" unicode="&#x2248;" horiz-adv-x="586" 
d="M93 182l-17 32c23 38 62 73 117 73c73 0 140 -68 200 -68c51 0 84 43 100 69l16 -31c-21 -39 -63 -74 -114 -74c-76 0 -141 68 -202 68c-52 0 -83 -44 -100 -69zM93 359l-17 31c23 38 62 73 117 73c73 0 140 -67 200 -67c51 0 84 43 100 68l16 -31
c-21 -39 -63 -73 -114 -73c-76 0 -141 67 -202 67c-52 0 -83 -43 -100 -68z" />
    <glyph glyph-name="notequal" unicode="&#x2260;" horiz-adv-x="581" 
d="M69 402v36h276l71 117h35l-71 -117h131v-36h-152l-94 -156h246v-36h-268l-70 -117h-36l70 117h-138v36h160l94 156h-254z" />
    <glyph glyph-name="lessequal" unicode="&#x2264;" horiz-adv-x="590" 
d="M73 92v37h445v-37h-445zM73 380v32l445 175v-38l-396 -152v-2l396 -152v-38z" />
    <glyph glyph-name="greaterequal" unicode="&#x2265;" horiz-adv-x="590" 
d="M72 92v37h445v-37h-445zM72 205v38l395 152v2l-395 152v38l445 -175v-32z" />
    <glyph glyph-name="lozenge" unicode="&#x25ca;" horiz-adv-x="638" 
d="M318 -10l-246 360l246 360l248 -360zM318 54l202 296l-202 295l-200 -295z" />
    <glyph glyph-name="uniF406" unicode="&#xf406;" horiz-adv-x="739" 
d="M229 890l30 10c15 -50 45 -86 110 -86s95 36 110 86l30 -10c-20 -68 -65 -110 -140 -110s-120 42 -140 110z" />
    <glyph glyph-name="uniF407" unicode="&#xf407;" horiz-adv-x="581" 
d="M269 -85l12 85h29l-9 -58c72 -1 115 -23 115 -79c0 -53 -46 -83 -104 -83c-34 0 -56 5 -76 16l4 26c22 -11 39 -14 69 -14c37 0 71 15 71 55c0 41 -42 54 -81 54c-8 0 -23 0 -30 -2z" />
    <glyph glyph-name="uniF408" unicode="&#xf408;" horiz-adv-x="739" 
d="M219 770l127 140h48l125 -140h-41l-108 110l-108 -110h-43z" />
    <glyph glyph-name="uniF409" unicode="&#xf409;" horiz-adv-x="634" 
d="M270 -226c30 19 51 49 55 95c-31 0 -42 16 -42 35s11 36 40 36c23 0 40 -15 40 -53c0 -40 -23 -107 -79 -137z" />
    <glyph glyph-name="uniF40A" unicode="&#xf40a;" horiz-adv-x="172" 
d="M52 520l46 180h44l-56 -180h-34z" />
    <glyph glyph-name="uniF40B" unicode="&#xf40b;" horiz-adv-x="466" 
d="M199 840c0 22 12 34 34 34s34 -12 34 -34s-12 -34 -34 -34s-34 12 -34 34z" />
    <glyph glyph-name="uniF40C" unicode="&#xf40c;" horiz-adv-x="739" 
d="M277 840c0 53 29 92 92 92s92 -39 92 -92c0 -54 -29 -92 -92 -92s-92 38 -92 92zM309 840c0 -38 22 -60 60 -60s60 22 60 60s-22 60 -60 60s-60 -22 -60 -60z" />
    <glyph glyph-name="uniF40D" unicode="&#xf40d;" horiz-adv-x="739" 
d="M259 802l-30 8c7 39 35 71 74 71c24 0 43 -11 71 -25c26 -12 43 -24 62 -24c20 0 35 14 43 45l30 -8c-10 -43 -40 -70 -74 -70c-19 0 -33 7 -70 25c-25 12 -38 24 -59 24s-37 -14 -47 -46z" />
    <glyph glyph-name="uniF40E" unicode="&#xf40e;" horiz-adv-x="692" 
d="M499 -172v-30c-19 -11 -50 -18 -77 -18c-65 0 -93 34 -93 81c0 56 43 108 102 147l22 -7c-44 -34 -88 -77 -88 -135c0 -34 18 -56 66 -56c23 0 50 6 68 18z" />
    <glyph glyph-name="zero.tab" unicode="&#xf4e0;" horiz-adv-x="650" 
d="M90 350c0 252 68 360 233 360c182 0 236 -109 236 -360c0 -260 -64 -360 -235 -360s-234 111 -234 360zM132 350c0 -232 49 -322 196 -322c144 0 189 90 189 322c0 235 -44 322 -195 322c-140 0 -190 -92 -190 -322z" />
    <glyph glyph-name="one.tab" unicode="&#xf4e1;" horiz-adv-x="650" 
d="M142 0v38h204v619l-204 -129v44l214 134h29v-668h152v-38h-395z" />
    <glyph glyph-name="two.tab" unicode="&#xf4e2;" horiz-adv-x="650" 
d="M101 0v39c309 296 398 335 398 471c0 110 -56 161 -183 161c-68 0 -147 -30 -188 -64v59c58 30 142 44 194 44c142 0 219 -59 219 -199c0 -152 -116 -213 -389 -473h399v-38h-450z" />
    <glyph glyph-name="three.tab" unicode="&#xf4e3;" horiz-adv-x="650" 
d="M215 345v37h95c120 0 185 60 185 144c0 107 -53 145 -179 145c-103 0 -164 -31 -198 -51v57c50 19 135 33 206 33c165 0 213 -66 213 -175c0 -108 -62 -154 -149 -169c115 -12 166 -68 166 -183c0 -137 -91 -193 -239 -193c-70 0 -158 14 -208 37v57
c44 -28 108 -54 202 -54c181 0 203 73 203 166c0 98 -72 149 -200 149h-97z" />
    <glyph glyph-name="four.tab" unicode="&#xf4e4;" horiz-adv-x="650" 
d="M67 190v35l366 475h44v-471h100v-39h-100v-190h-39v190h-371zM438 229v420l-321 -420h321z" />
    <glyph glyph-name="five.tab" unicode="&#xf4e5;" horiz-adv-x="650" 
d="M114 361l21 339h382v-39h-347l-16 -256c35 5 88 10 163 10c146 0 227 -53 227 -194c0 -139 -60 -231 -256 -231c-72 0 -142 14 -185 33v54c58 -38 117 -48 184 -48c146 0 215 53 215 187c0 119 -66 162 -197 162c-77 0 -144 -8 -191 -17z" />
    <glyph glyph-name="six.tab" unicode="&#xf4e6;" horiz-adv-x="650" 
d="M337 -10c-163 0 -241 94 -241 319c0 275 89 401 279 401c57 0 97 -9 130 -23v-54c-34 23 -74 38 -133 38c-141 0 -239 -86 -239 -328c0 -15 1 -29 2 -43c34 85 112 141 214 141c139 0 213 -66 213 -219c0 -162 -104 -232 -225 -232zM143 272c0 -164 66 -244 196 -244
c105 0 182 57 182 191c0 140 -69 185 -177 185c-132 0 -186 -83 -201 -132z" />
    <glyph glyph-name="seven.tab" unicode="&#xf4e7;" horiz-adv-x="650" 
d="M214 0l304 659h-422v41h466v-35l-305 -665h-43z" />
    <glyph glyph-name="eight.tab" unicode="&#xf4e8;" horiz-adv-x="650" 
d="M91 181c0 99 36 168 166 186c-115 13 -149 81 -149 174c0 104 79 169 219 169c146 0 212 -53 212 -162c0 -93 -34 -157 -145 -179c128 -12 166 -86 166 -186c0 -115 -71 -193 -232 -193c-164 0 -237 68 -237 191zM130 186c0 -101 55 -157 199 -157c131 0 192 54 192 155
c0 116 -70 170 -191 166c-166 -6 -200 -71 -200 -164zM148 530c0 -97 59 -153 187 -148c135 6 164 73 164 153c0 94 -47 137 -174 137c-135 0 -177 -61 -177 -142z" />
    <glyph glyph-name="nine.tab" unicode="&#xf4e9;" horiz-adv-x="650" 
d="M316 710c176 0 241 -94 241 -332c0 -262 -88 -388 -279 -388c-57 0 -97 9 -130 23v54c34 -23 75 -38 133 -38c141 0 235 86 239 328c0 15 0 29 -1 43c-31 -91 -113 -141 -215 -141c-139 0 -213 66 -213 219c0 162 104 232 225 232zM513 439c-1 147 -55 233 -199 233
c-105 0 -182 -57 -182 -191c0 -140 69 -185 178 -185c138 0 190 84 203 143z" />
    <glyph glyph-name="dollar.tab" unicode="&#xf4ec;" horiz-adv-x="650" 
d="M493 179c0 222 -360 106 -360 362c0 110 63 160 183 168v91h32v-90h3c69 0 131 -19 154 -31v-55c-34 28 -98 48 -158 48c-111 0 -173 -32 -173 -129c0 -220 362 -102 362 -361c0 -112 -56 -183 -188 -191v-111h-32v110c-81 1 -145 22 -181 46v63c28 -30 101 -71 177 -71
c137 0 181 58 181 151z" />
    <glyph glyph-name="Euro.tab" unicode="&#xf4ed;" horiz-adv-x="650" 
d="M404 710c71 0 117 -13 147 -23v-47c-41 19 -94 32 -149 32c-130 0 -209 -70 -228 -241h310l-7 -30h-306c-1 -17 -2 -33 -2 -52c0 -18 0 -34 1 -49h279l-7 -30h-269c19 -172 101 -242 233 -242c52 0 110 15 148 34v-43c-37 -16 -90 -29 -154 -29c-155 0 -250 84 -268 280
h-73l7 30h63c-1 13 -1 27 -1 42c0 20 1 40 2 59h-71l8 30h66c20 197 114 279 271 279z" />
    <glyph glyph-name="cent.tab" unicode="&#xf4ee;" horiz-adv-x="650" 
d="M334 -120v113c-153 9 -212 111 -212 267c0 155 66 250 212 258v92h28v-91c54 -1 104 -15 125 -22v-45c-26 16 -75 32 -124 32c-141 0 -201 -80 -201 -221c0 -152 64 -236 207 -236c43 0 104 18 128 35v-44c-25 -11 -80 -26 -135 -26v-112h-28z" />
    <glyph glyph-name="sterling.tab" unicode="&#xf4ef;" horiz-adv-x="650" 
d="M108 0v38h97v322h-97v28h97v85c0 79 26 237 218 237c51 0 97 -10 122 -19v-38c-41 13 -74 20 -126 20c-120 0 -174 -89 -174 -203v-82h212v-28h-212v-322h305v-38h-442z" />
    <glyph glyph-name="yen.tab" unicode="&#xf4fa;" horiz-adv-x="650" 
d="M146 177v28h160v95l-3 5h-157v28h139l-223 367h48l217 -359l216 359h47l-224 -367h141v-28h-158l-2 -5v-95h160v-28h-160v-177h-41v177h-160z" />
    <glyph glyph-name="florin.tab" unicode="&#xf4fb;" horiz-adv-x="650" 
d="M44 -210l9 37c10 -3 19 -4 28 -4c60 0 96 37 115 132l109 520h-103l8 35h102l20 89c24 118 85 159 167 159c16 0 32 -1 53 -7l-6 -35c-12 4 -28 7 -52 7c-73 0 -107 -45 -126 -138l-17 -75h151l-7 -35h-151l-107 -512c-23 -108 -56 -177 -160 -177c-8 0 -21 1 -33 4z" />
    <glyph glyph-name="uni20B4.tab" unicode="&#xf4fc;" horiz-adv-x="650" 
d="M108 279v28h113l122 100h-235v28h267c68 54 97 92 97 143c0 74 -65 94 -135 94c-55 0 -102 -8 -157 -27v39c50 17 119 26 156 26c140 0 178 -60 178 -129c0 -56 -30 -98 -87 -146h95v-28h-125c-18 -16 -104 -84 -123 -100h248v-28h-277c-51 -42 -66 -88 -66 -130
c0 -55 39 -121 170 -121c41 0 98 4 147 26v-39c-56 -20 -112 -25 -152 -25c-148 0 -208 76 -208 155c0 54 16 96 59 134h-87z" />
    <glyph glyph-name="uni20BD.tab" unicode="&#xf4fd;" horiz-adv-x="650" 
d="M308 312h-112v-102h218v-34h-218v-176h-39v176h-77v34h77v102h-77v33h77v355c58 4 94 5 154 5c181 0 239 -51 239 -191c0 -144 -52 -202 -242 -202zM309 669c-44 0 -69 -2 -113 -5v-319h112c158 0 201 47 201 168c0 100 -33 156 -200 156z" />
    <glyph glyph-name="uni20B8.tab" unicode="&#xf5f3;" horiz-adv-x="650" 
d="M305 0v547h-229v33h498v-33h-229v-547h-40zM76 666v34h498v-34h-498z" />
    <glyph glyph-name="zero.denominator" unicode="&#xf655;" 
d="M45 211c0 152 72 216 180 216c120 0 181 -64 181 -216c0 -156 -70 -216 -180 -216c-114 0 -181 66 -181 216zM84 211c0 -133 53 -185 144 -185c86 0 139 52 139 185c0 134 -51 185 -142 185c-85 0 -141 -53 -141 -185z" />
    <glyph glyph-name="one.denominator" unicode="&#xf656;" 
d="M252 1v375l-133 -74l-17 28l159 89h30v-418h-39z" />
    <glyph glyph-name="two.denominator" unicode="&#xf657;" 
d="M60 1v36l115 85c94 69 152 119 152 183c0 67 -53 89 -117 89c-50 0 -100 -11 -133 -26v34c44 18 93 25 139 25c89 0 150 -34 150 -115c0 -76 -57 -133 -167 -213l-89 -64v-1h263v-33h-313z" />
    <glyph glyph-name="three.denominator" unicode="&#xf658;" 
d="M143 205v28h67c81 0 126 34 126 80c0 63 -48 81 -124 81c-48 0 -99 -6 -132 -20v33c40 15 93 20 142 20c102 0 152 -40 152 -106c0 -57 -46 -88 -109 -99v-2c87 -10 120 -55 120 -101c0 -92 -91 -124 -174 -124c-48 0 -96 4 -138 22v33c36 -17 87 -23 135 -23
c104 0 138 48 138 92c0 58 -48 86 -133 86h-70z" />
    <glyph glyph-name="four.denominator" unicode="&#xf659;" 
d="M42 109v29l270 281h49v-279h54v-31h-54v-108h-38v108h-281zM323 140v246h-1l-234 -246h235z" />
    <glyph glyph-name="five.denominator" unicode="&#xf65a;" 
d="M86 222l12 197h273v-33h-244l-8 -132c31 2 60 5 107 5c100 0 160 -39 160 -124c0 -84 -56 -140 -163 -140c-46 0 -105 0 -144 17v34c51 -21 92 -19 144 -19c70 0 124 31 124 104c0 68 -40 97 -127 97c-48 0 -86 -2 -134 -6z" />
    <glyph glyph-name="six.denominator" unicode="&#xf65b;" 
d="M232 -5c-108 0 -170 71 -170 201s58 231 199 231c34 0 68 -3 100 -13v-33c-31 12 -71 13 -101 13c-100 0 -159 -61 -168 -186c32 34 86 62 157 62c81 0 151 -36 151 -126c0 -96 -69 -149 -168 -149zM94 177c0 -75 46 -152 139 -152c68 0 129 33 129 118
c0 75 -62 97 -121 97s-113 -28 -147 -63z" />
    <glyph glyph-name="seven.denominator" unicode="&#xf65c;" 
d="M152 1l199 385h-294v33h335v-26l-201 -392h-39z" />
    <glyph glyph-name="eight.denominator" unicode="&#xf65d;" 
d="M225 -5c-122 0 -177 43 -177 118c0 59 48 101 117 108c-65 11 -107 47 -107 97c0 66 54 109 167 109s167 -43 167 -109c0 -50 -42 -86 -107 -97c69 -7 117 -49 117 -108c0 -75 -55 -118 -177 -118zM225 26c116 0 139 50 139 88c0 54 -52 90 -139 90s-139 -36 -139 -90
c0 -38 23 -88 139 -88zM225 396c-99 0 -129 -36 -129 -79c0 -55 59 -80 129 -80s129 25 129 80c0 43 -30 79 -129 79z" />
    <glyph glyph-name="nine.denominator" unicode="&#xf65e;" 
d="M219 427c111 0 178 -60 178 -184c0 -136 -52 -248 -179 -248c-62 0 -86 8 -127 17v33c39 -12 70 -18 127 -18c89 0 140 73 149 204c-32 -35 -85 -71 -154 -71c-82 0 -154 37 -154 130c0 89 67 137 160 137zM365 262c-1 70 -48 135 -146 135c-62 0 -122 -29 -122 -106
c0 -78 59 -101 120 -101c59 0 114 36 148 72z" />
    <glyph glyph-name="zero.numerator" unicode="&#xf661;" 
d="M45 492c0 152 72 216 180 216c120 0 181 -64 181 -216c0 -156 -70 -216 -180 -216c-114 0 -181 66 -181 216zM84 492c0 -133 53 -185 144 -185c86 0 139 52 139 185c0 134 -51 185 -142 185c-85 0 -141 -53 -141 -185z" />
    <glyph glyph-name="one.numerator" unicode="&#xf662;" 
d="M252 282v375l-133 -74l-17 28l159 89h30v-418h-39z" />
    <glyph glyph-name="two.numerator" unicode="&#xf663;" 
d="M60 282v36l115 85c94 69 152 119 152 183c0 67 -53 89 -117 89c-50 0 -100 -11 -133 -26v34c44 18 93 25 139 25c89 0 150 -34 150 -115c0 -76 -57 -133 -167 -213l-89 -64v-1h263v-33h-313z" />
    <glyph glyph-name="three.numerator" unicode="&#xf664;" 
d="M143 486v28h67c81 0 126 34 126 80c0 63 -48 81 -124 81c-48 0 -99 -6 -132 -20v33c40 15 93 20 142 20c102 0 152 -40 152 -106c0 -57 -46 -88 -109 -99v-2c87 -10 120 -55 120 -101c0 -92 -91 -124 -174 -124c-48 0 -96 4 -138 22v33c36 -17 87 -23 135 -23
c104 0 138 48 138 92c0 58 -48 86 -133 86h-70z" />
    <glyph glyph-name="four.numerator" unicode="&#xf665;" 
d="M42 390v29l270 281h49v-279h54v-31h-54v-108h-38v108h-281zM323 421v246h-1l-234 -246h235z" />
    <glyph glyph-name="five.numerator" unicode="&#xf666;" 
d="M86 503l12 197h273v-33h-244l-8 -132c31 2 60 5 107 5c100 0 160 -39 160 -124c0 -84 -56 -140 -163 -140c-46 0 -105 0 -144 17v34c51 -21 92 -19 144 -19c70 0 124 31 124 104c0 68 -40 97 -127 97c-48 0 -86 -2 -134 -6z" />
    <glyph glyph-name="six.numerator" unicode="&#xf667;" 
d="M232 276c-108 0 -170 71 -170 201s58 231 199 231c34 0 68 -3 100 -13v-33c-31 12 -71 13 -101 13c-100 0 -159 -61 -168 -186c32 34 86 62 157 62c81 0 151 -36 151 -126c0 -96 -69 -149 -168 -149zM94 458c0 -75 46 -152 139 -152c68 0 129 33 129 118
c0 75 -62 97 -121 97s-113 -28 -147 -63z" />
    <glyph glyph-name="seven.numerator" unicode="&#xf668;" 
d="M152 282l199 385h-294v33h335v-26l-201 -392h-39z" />
    <glyph glyph-name="eight.numerator" unicode="&#xf669;" 
d="M225 276c-122 0 -177 43 -177 118c0 59 48 101 117 108c-65 11 -107 47 -107 97c0 66 54 109 167 109s167 -43 167 -109c0 -50 -42 -86 -107 -97c69 -7 117 -49 117 -108c0 -75 -55 -118 -177 -118zM225 307c116 0 139 50 139 88c0 54 -52 90 -139 90s-139 -36 -139 -90
c0 -38 23 -88 139 -88zM225 677c-99 0 -129 -36 -129 -79c0 -55 59 -80 129 -80s129 25 129 80c0 43 -30 79 -129 79z" />
    <glyph glyph-name="nine.numerator" unicode="&#xf66a;" 
d="M219 708c111 0 178 -60 178 -184c0 -136 -52 -248 -179 -248c-62 0 -86 8 -127 17v33c39 -12 70 -18 127 -18c89 0 140 73 149 204c-32 -35 -85 -71 -154 -71c-82 0 -154 37 -154 130c0 89 67 137 160 137zM365 543c-1 70 -48 135 -146 135c-62 0 -122 -29 -122 -106
c0 -78 59 -101 120 -101c59 0 114 36 148 72z" />
    <glyph glyph-name="uniF6BA" unicode="&#xf6ba;" horiz-adv-x="469" 
d="M107 337v36h254v-36h-254z" />
    <glyph glyph-name="uniF6BB" unicode="&#xf6bb;" horiz-adv-x="727" 
d="M99 337v35h528v-35h-528z" />
    <glyph glyph-name="uniF6BC" unicode="&#xf6bc;" horiz-adv-x="896" 
d="M99 337v35h697v-35h-697z" />
    <glyph glyph-name="uniF6C3" unicode="&#xf6c3;" horiz-adv-x="568" 
d="M236 -218c29 19 48 44 53 89c-31 0 -41 16 -41 34s11 35 39 35c23 0 40 -15 40 -51c0 -39 -23 -100 -77 -129z" />
    <glyph glyph-name="uniF6C9" unicode="&#xf6c9;" horiz-adv-x="778" 
d="M352 770l92 140h58l-112 -140h-38z" />
    <glyph glyph-name="uniF6CA" unicode="&#xf6ca;" horiz-adv-x="739" 
d="M346 770l-127 140h43l108 -110l107 110h42l-125 -140h-48z" />
    <glyph glyph-name="uniF6CB" unicode="&#xf6cb;" horiz-adv-x="780" 
d="M249 840c0 22 12 34 34 34s34 -12 34 -34s-12 -34 -34 -34s-34 12 -34 34zM461 840c0 22 12 34 34 34s34 -12 34 -34s-12 -34 -34 -34s-34 12 -34 34z" />
    <glyph glyph-name="uniF6CE" unicode="&#xf6ce;" horiz-adv-x="739" 
d="M249 910h58l92 -140h-38z" />
    <glyph glyph-name="uniF6CF" unicode="&#xf6cf;" horiz-adv-x="739" 
d="M306 775l84 130h52l-100 -130h-36zM450 775l100 130h56l-118 -130h-38z" />
    <glyph glyph-name="uniF6D0" unicode="&#xf6d0;" horiz-adv-x="739" 
d="M234 823v34h270v-34h-270z" />
    <glyph glyph-name="uniF6D1" unicode="&#xf6d1;" horiz-adv-x="598" 
d="M154 905h40c10 -75 50 -96 105 -96s97 21 107 96h38c-10 -95 -70 -130 -145 -130s-135 35 -145 130z" />
    <glyph glyph-name="uniF6D4" unicode="&#xf6d4;" horiz-adv-x="582" 
d="M150 730h38c10 -70 52 -88 102 -88s94 18 104 88h36c-10 -90 -70 -120 -140 -120s-130 30 -140 120z" />
    <glyph glyph-name="uniFEFF" unicode="&#xfeff;" horiz-adv-x="15" 
 />
    <glyph glyph-name="percent.tab" horiz-adv-x="650" 
d="M56 0l499 700h39l-498 -700h-40zM28 547c0 96 43 163 129 163c88 0 132 -65 132 -163s-44 -163 -131 -163s-130 64 -130 163zM249 547c0 83 -27 127 -91 127c-61 0 -90 -45 -90 -127c0 -83 29 -128 90 -128c63 0 91 44 91 128zM363 153c0 96 43 163 128 163
c89 0 132 -64 132 -163c0 -97 -45 -163 -132 -163c-85 0 -128 65 -128 163zM583 153c0 83 -27 128 -92 128c-61 0 -89 -46 -89 -128c0 -83 29 -127 89 -127c65 0 92 44 92 127z" />
    <glyph glyph-name="plus.tab" horiz-adv-x="650" 
d="M103 307v36h203v201h36v-201h203v-36h-203v-201h-36v201h-203z" />
    <glyph glyph-name="less.tab" horiz-adv-x="650" 
d="M108 300v33l445 175v-38l-396 -152v-2l396 -152v-39z" />
    <glyph glyph-name="equal.tab" horiz-adv-x="650" 
d="M103 210v37h442v-37h-442zM103 401v37h442v-37h-442z" />
    <glyph glyph-name="greater.tab" horiz-adv-x="650" 
d="M97 125v39l395 152v2l-395 152v38l445 -175v-33z" />
    <glyph glyph-name="multiply.tab" horiz-adv-x="650" 
d="M144 168l157 156l-157 156l26 25l155 -156l156 156l25 -25l-156 -156l156 -156l-25 -25l-156 156l-155 -156z" />
    <glyph glyph-name="divide.tab" horiz-adv-x="650" 
d="M287 161c0 24 15 37 38 37s38 -14 38 -37c0 -22 -14 -37 -38 -37c-23 0 -38 15 -38 37zM287 486c0 23 15 37 38 37s38 -14 38 -37s-14 -37 -38 -37c-23 0 -38 14 -38 37zM104 305v37h442v-37h-442z" />
    <glyph glyph-name="perthousand.tab" horiz-adv-x="650" 
d="M515 483l-468 -212l-13 27l468 211zM26 567c0 90 40 143 120 143c81 0 121 -51 121 -143c0 -91 -41 -143 -121 -143s-120 51 -120 143zM65 567c0 -77 27 -108 81 -108c57 0 81 31 81 108c0 76 -23 107 -81 107c-54 0 -81 -32 -81 -107zM117 133c0 90 40 143 119 143
c82 0 122 -51 122 -143c0 -91 -41 -143 -121 -143s-120 51 -120 143zM156 133c0 -76 26 -107 81 -107c57 0 81 30 81 107c0 76 -23 108 -81 108c-55 0 -81 -32 -81 -108zM395 133c0 90 41 143 120 143c81 0 122 -51 122 -143c0 -91 -41 -143 -122 -143
c-79 0 -120 51 -120 143zM435 133c0 -76 26 -107 80 -107c57 0 82 30 82 107c0 76 -24 108 -82 108c-54 0 -80 -32 -80 -108z" />
    <glyph glyph-name="minus.tab" horiz-adv-x="650" 
d="M103 305v37h442v-37h-442z" />
    <glyph glyph-name="f_b" horiz-adv-x="938" 
d="M433 0v718c-71 1 -111 6 -172 6c-78 0 -96 -42 -96 -126v-87h155v-35h-155v-476h-38v476h-94v35h94v98c0 104 43 149 132 149c57 0 104 -7 174 -8h2h25h11v-356c28 93 101 125 196 125c142 0 207 -75 207 -254c0 -183 -67 -273 -214 -273c-94 0 -163 41 -190 129l-7 -121
h-30zM471 280v-44c0 -99 49 -209 183 -209c131 0 180 83 180 237c0 152 -45 221 -173 221c-119 0 -190 -70 -190 -205z" />
    <glyph glyph-name="f_f_b" horiz-adv-x="1244" 
d="M127 0v476h-94v35h94v116c0 92 41 131 128 131c25 0 44 -4 65 -12v-45c-21 15 -47 22 -73 22c-67 0 -82 -33 -82 -107v-105h268v98c0 104 43 149 132 149c63 0 115 -8 200 -8h12v-356c28 93 101 125 196 125c142 0 206 -75 206 -254c0 -183 -66 -273 -213 -273
c-94 0 -164 41 -191 129l-7 -121h-30v718c-70 1 -110 6 -171 6c-78 0 -96 -42 -96 -126v-87h155v-35h-155v-476h-38v476h-268v-476h-38zM776 280v-44c0 -99 50 -209 184 -209c131 0 180 83 180 237c0 152 -45 221 -173 221c-119 0 -191 -70 -191 -205z" />
    <glyph glyph-name="f_f_h" horiz-adv-x="1237" 
d="M127 0v476h-94v35h94v116c0 92 41 131 128 131c25 0 44 -4 65 -12v-45c-21 15 -47 22 -73 22c-67 0 -82 -33 -82 -107v-105h268v98c0 104 43 149 132 149c56 0 103 -7 173 -8h2h25h12v-356c20 81 90 125 188 125c141 0 184 -62 184 -195v-324h-38v315
c0 131 -45 170 -159 170c-127 0 -175 -77 -175 -172v-313h-39v718c-70 1 -110 6 -171 6c-78 0 -96 -42 -96 -126v-87h155v-35h-155v-476h-38v476h-268v-476h-38z" />
    <glyph glyph-name="f_f_j" horiz-adv-x="871" 
d="M127 0v476h-94v35h94v116c0 92 41 131 128 131c25 0 44 -4 65 -12v-45c-21 15 -47 22 -73 22c-67 0 -82 -33 -82 -107v-105h268v116c0 92 41 131 127 131c24 0 44 -4 65 -12v-45c-21 15 -47 22 -73 22c-66 0 -81 -33 -81 -107v-105h306v-576c0 -67 -23 -121 -111 -121
c-25 0 -46 2 -58 7v47c13 -9 31 -17 57 -17c45 0 73 16 73 89v536h-267v-476h-38v476h-268v-476h-38zM724 681c0 19 12 32 34 32c19 0 33 -13 33 -32c0 -20 -14 -34 -33 -34c-22 0 -34 14 -34 34z" />
    <glyph glyph-name="f_f_k" horiz-adv-x="1147" 
d="M127 0v476h-94v35h94v116c0 92 41 131 128 131c25 0 44 -4 65 -12v-45c-21 15 -47 22 -73 22c-67 0 -82 -33 -82 -107v-105h268v98c0 104 43 149 132 149c56 0 103 -7 173 -8h2h25h12v-452h32l248 213h50l-269 -227l281 -284h-49l-264 266h-29v-266h-39v718
c-70 1 -110 6 -171 6c-78 0 -96 -42 -96 -126v-87h155v-35h-155v-476h-38v476h-268v-476h-38z" />
    <glyph glyph-name="f_h" horiz-adv-x="931" 
d="M433 0v718c-71 1 -111 6 -172 6c-78 0 -96 -42 -96 -126v-87h155v-35h-155v-476h-38v476h-94v35h94v98c0 104 43 149 132 149c57 0 105 -7 176 -8h36v-356c20 81 90 125 189 125c140 0 183 -62 183 -195v-324h-38v315c0 131 -45 170 -159 170c-127 0 -175 -77 -175 -172
v-313h-38z" />
    <glyph glyph-name="f_j" horiz-adv-x="565" 
d="M419 681c0 19 12 32 33 32c19 0 33 -13 33 -32c0 -20 -14 -34 -33 -34c-21 0 -33 14 -33 34zM433 -60v536h-268v-476h-38v476h-94v35h94v116c0 92 41 131 127 131c25 0 45 -4 65 -12v-45c-21 15 -47 22 -73 22c-66 0 -81 -33 -81 -107v-105h306v-576
c0 -67 -23 -121 -110 -121c-26 0 -47 2 -59 7v47c13 -9 31 -17 58 -17c44 0 73 16 73 89z" />
    <glyph glyph-name="f_k" horiz-adv-x="841" 
d="M460 750h11v-452h32l248 213h50l-268 -227l280 -284h-49l-264 266h-29v-266h-38v718c-71 1 -111 6 -172 6c-78 0 -96 -42 -96 -126v-87h155v-35h-155v-476h-38v476h-94v35h94v98c0 104 43 149 132 149c64 0 116 -8 201 -8z" />
    </font>
</defs>
</svg>
