<?xml version="1.0" standalone="no"?>
<!DOCTYPE svg PUBLIC "-//W3C//DTD SVG 1.1//EN" "http://www.w3.org/Graphics/SVG/1.1/DTD/svg11.dtd" >
<svg xmlns="http://www.w3.org/2000/svg" xmlns:xlink="http://www.w3.org/1999/xlink" version="1.1">
<metadata>
Created by FontForge 20190801 at Wed Apr 17 13:05:09 2019
 By Jimmy Wärting
Copyright (c) 2018 ParaType Inc., ParaType Ltd. All rights reserved.
</metadata>
<defs>
<font id="SBSansText-SemiboldItalic" horiz-adv-x="618" >
  <font-face 
    font-family="SB Sans Text Semibold"
    font-weight="600"
    font-style="italic"
    font-stretch="normal"
    units-per-em="1000"
    panose-1="2 11 7 3 4 5 4 2 9 4"
    ascent="801"
    descent="-199"
    x-height="540"
    cap-height="700"
    bbox="-256 -254 1432 944"
    underline-thickness="50"
    underline-position="-113"
    slope="-12"
    stemh="110"
    stemv="94"
    unicode-range="U+0020-FEFF"
  />
<missing-glyph horiz-adv-x="322" 
 />
    <glyph glyph-name="f_f" unicode="ff" horiz-adv-x="851" 
d="M476 0l93 430h-225l-93 -430h-130l93 430h-89l24 110h88l12 58c26 121 90 168 221 168c43 0 73 -5 96 -10l-24 -113c-14 6 -40 13 -74 13c-55 0 -79 -13 -92 -73l-9 -43h225l12 58c26 121 90 168 221 168c43 0 73 -5 96 -10l-24 -113c-14 6 -40 13 -74 13
c-55 0 -79 -13 -92 -73l-9 -43h150l-24 -110h-149l-93 -430h-130z" />
    <glyph glyph-name="fi" unicode="fi" horiz-adv-x="684" 
d="M603 0h-130l91 430h-221l-92 -430h-130l92 430h-89l24 110h88l13 58c26 121 90 168 216 168c33 0 64 -4 87 -10l-24 -113c-17 8 -45 13 -68 13c-47 0 -71 -13 -84 -73l-10 -43h352zM686 625c-54 0 -79 26 -79 69s25 69 79 69c53 0 79 -26 79 -69s-26 -69 -79 -69z" />
    <glyph glyph-name="fl" unicode="fl" horiz-adv-x="748" 
d="M628 -6c-84 0 -132 26 -132 94c0 14 2 31 6 50l110 513c-55 2 -100 5 -141 5c-58 0 -82 -13 -95 -73l-9 -43h110l-23 -110h-110l-93 -430h-130l93 430h-89l24 110h88l12 58c26 121 90 168 224 168c58 0 129 -5 250 -6h42l-127 -598c-2 -10 -4 -18 -4 -25
c0 -26 15 -33 47 -33c21 0 41 4 63 11l-23 -106c-16 -7 -51 -15 -93 -15z" />
    <glyph glyph-name="f_f_i" unicode="ffi" horiz-adv-x="1039" 
d="M476 0l92 430h-225l-92 -430h-130l92 430h-89l24 110h88l13 58c26 121 90 168 221 168c43 0 73 -5 96 -10l-24 -113c-14 6 -40 13 -74 13c-55 0 -79 -13 -92 -73l-10 -43h225l13 58c26 121 90 168 216 168c33 0 64 -4 87 -10l-24 -113c-17 8 -45 13 -68 13
c-47 0 -71 -13 -84 -73l-10 -43h352l-115 -540h-130l91 430h-221l-92 -430h-130zM1041 625c-53 0 -79 26 -79 69s26 69 79 69c54 0 79 -26 79 -69s-25 -69 -79 -69z" />
    <glyph glyph-name="f_f_l" unicode="ffl" horiz-adv-x="1103" 
d="M476 0l93 430h-225l-93 -430h-130l93 430h-89l24 110h88l12 58c26 121 90 168 221 168c43 0 73 -5 96 -10l-24 -113c-14 6 -40 13 -74 13c-55 0 -79 -13 -92 -73l-9 -43h225l12 58c26 121 90 168 224 168c65 0 145 -6 292 -6l-127 -598c-2 -10 -4 -18 -4 -25
c0 -26 15 -33 47 -33c21 0 41 4 63 11l-23 -106c-16 -7 -51 -15 -93 -15c-84 0 -132 26 -132 94c0 14 2 31 6 50l110 513c-55 2 -100 5 -141 5c-58 0 -82 -13 -95 -73l-9 -43h110l-23 -110h-110l-93 -430h-130z" />
    <glyph glyph-name=".notdef" horiz-adv-x="322" 
 />
    <glyph glyph-name="space" unicode=" " horiz-adv-x="275" 
 />
    <glyph glyph-name="exclam" unicode="!" horiz-adv-x="394" 
d="M187 230l87 470h144l-112 -470h-119zM213 -6c-57 0 -85 27 -85 83c0 55 28 83 85 83c58 0 85 -28 85 -83c0 -56 -27 -83 -85 -83z" />
    <glyph glyph-name="quotedbl" unicode="&#x22;" horiz-adv-x="531" 
d="M302 426h-102l58 274h102zM513 426h-102l58 274h102z" />
    <glyph glyph-name="numbersign" unicode="#" horiz-adv-x="689" 
d="M414 0l40 188h-139l-40 -188h-102l40 188h-112l20 93h112l29 137h-112l20 93h112l40 189h102l-40 -189h139l40 189h101l-40 -189h113l-20 -93h-113l-29 -137h113l-20 -93h-113l-40 -188h-101zM364 418l-29 -137h139l29 137h-139z" />
    <glyph glyph-name="dollar" unicode="$" 
d="M235 -120l24 110c-70 7 -145 29 -184 56l29 135c49 -51 128 -81 207 -81c100 0 154 35 154 100c0 130 -297 81 -297 290c0 124 95 209 245 221l19 89h103l-19 -91c61 -7 121 -23 155 -42l-28 -133c-47 39 -116 66 -189 66c-94 0 -142 -27 -142 -84
c0 -132 296 -88 296 -295c0 -134 -89 -216 -246 -231l-24 -110h-103z" />
    <glyph glyph-name="percent" unicode="%" horiz-adv-x="933" 
d="M689 -6c-86 0 -156 43 -156 135c0 129 96 205 220 205c85 0 152 -43 152 -133c0 -128 -91 -207 -216 -207zM702 73c71 0 109 46 109 113c0 45 -26 69 -72 69c-72 0 -112 -44 -112 -113c0 -44 28 -69 75 -69zM332 366c-86 0 -156 43 -156 135c0 129 96 205 220 205
c85 0 152 -43 152 -133c0 -128 -91 -207 -216 -207zM345 445c71 0 109 46 109 113c0 45 -26 69 -72 69c-72 0 -112 -44 -112 -113c0 -44 28 -69 75 -69zM283 0h-110l625 700h110z" />
    <glyph glyph-name="ampersand" unicode="&#x26;" horiz-adv-x="864" 
d="M810 104l-25 -116c-73 5 -147 34 -203 83c-69 -58 -150 -83 -246 -83c-133 0 -215 86 -215 201c0 118 87 192 208 224c-14 35 -21 73 -21 105c0 127 79 194 212 194c111 0 162 -61 162 -132c0 -116 -109 -171 -226 -206c33 -71 73 -129 139 -181c79 66 137 175 161 293
h113c-25 -125 -101 -259 -193 -340c36 -24 90 -38 134 -42zM249 200c0 -67 44 -109 121 -109c52 0 99 13 139 41c-67 55 -117 127 -148 202c-73 -19 -112 -66 -112 -134zM413 523c0 -22 5 -51 13 -70c83 28 143 53 143 114c0 29 -19 52 -63 52c-64 0 -93 -33 -93 -96z" />
    <glyph glyph-name="quotesingle" unicode="'" horiz-adv-x="320" 
d="M302 426h-102l58 274h102z" />
    <glyph glyph-name="parenleft" unicode="(" horiz-adv-x="381" 
d="M263 -192c-68 61 -146 199 -146 368c0 243 146 469 334 596l56 -60c-137 -118 -271 -309 -271 -536c0 -135 45 -251 90 -313z" />
    <glyph glyph-name="parenright" unicode=")" horiz-adv-x="381" 
d="M240 772c68 -61 146 -200 146 -369c0 -243 -146 -468 -334 -595l-56 60c137 118 271 308 271 535c0 135 -45 252 -90 314z" />
    <glyph glyph-name="asterisk" unicode="*" horiz-adv-x="551" 
d="M223 366l104 113l-148 33l30 99l141 -62l-17 151h102l-16 -151l140 62l29 -99l-147 -33l104 -113l-83 -57l-78 130l-78 -130z" />
    <glyph glyph-name="plus" unicode="+" 
d="M323 103v169h-169v110h169v169h110v-169h169v-110h-169v-169h-110z" />
    <glyph glyph-name="comma" unicode="," horiz-adv-x="345" 
d="M37 -106c61 10 114 50 133 100c-45 0 -71 29 -71 78c0 57 33 88 94 88c52 0 86 -34 86 -88c0 -118 -79 -219 -195 -252z" />
    <glyph glyph-name="hyphen" unicode="-" horiz-adv-x="484" 
d="M140 227l21 104h302l-21 -104h-302z" />
    <glyph glyph-name="period" unicode="." horiz-adv-x="345" 
d="M189 -6c-58 0 -85 27 -85 83c0 55 27 83 85 83c57 0 85 -28 85 -83c0 -56 -28 -83 -85 -83z" />
    <glyph glyph-name="slash" unicode="/" horiz-adv-x="395" 
d="M-28 -180l461 940h116l-461 -940h-116z" />
    <glyph glyph-name="zero" unicode="0" 
d="M306 -12c-141 0 -204 84 -204 219c0 110 36 275 109 379c63 89 141 126 251 126c143 0 202 -81 202 -214c0 -115 -35 -248 -87 -341c-71 -127 -154 -169 -271 -169zM331 95c59 0 94 34 129 105c40 80 71 210 71 286c0 71 -25 119 -96 119c-60 0 -92 -37 -127 -104
c-40 -77 -73 -195 -73 -286c0 -73 26 -120 96 -120z" />
    <glyph glyph-name="one" unicode="1" 
d="M95 110h210l94 440l-235 -118l26 124l281 144h92l-125 -590h146l-23 -110h-489z" />
    <glyph glyph-name="two" unicode="2" 
d="M60 0l18 87c93 63 209 147 275 198c126 96 171 142 171 209c0 77 -34 106 -137 106c-76 0 -147 -32 -206 -70l28 135c62 28 141 47 228 47c151 0 218 -74 218 -184c0 -126 -65 -189 -219 -305c-41 -31 -94 -71 -153 -107h296l-25 -116h-494z" />
    <glyph glyph-name="three" unicode="3" 
d="M61 40l29 123c42 -34 114 -65 200 -65c106 0 180 26 180 126c0 52 -40 78 -140 78h-75l22 106h67c115 0 176 36 176 110c0 57 -34 84 -127 84c-80 0 -162 -24 -218 -55l29 123c69 27 160 42 243 42c154 0 206 -67 206 -151c0 -107 -65 -176 -178 -204
c88 -14 128 -56 128 -139c0 -86 -43 -149 -112 -188c-61 -35 -125 -42 -211 -42s-167 24 -219 52z" />
    <glyph glyph-name="four" unicode="4" 
d="M59 169l16 73l398 458h168l-90 -420h86l-23 -111h-86l-36 -169h-130l36 169h-339zM240 280h183l60 281z" />
    <glyph glyph-name="five" unicode="5" 
d="M152 325l105 375h410l-24 -110h-304l-44 -152c25 4 71 7 110 7c140 0 209 -64 209 -177c0 -195 -146 -280 -330 -280c-78 0 -152 16 -205 39l27 124c40 -28 109 -53 185 -53c98 0 190 39 190 146c0 87 -78 98 -162 98c-55 0 -123 -8 -167 -17z" />
    <glyph glyph-name="six" unicode="6" 
d="M671 680l-28 -122c-29 21 -73 44 -153 44c-157 0 -233 -109 -258 -252c48 64 105 108 208 108c123 0 193 -73 193 -188c0 -176 -121 -282 -304 -282c-150 0 -230 82 -230 233c0 164 61 336 178 424c67 50 144 67 237 67c60 0 117 -13 157 -32zM338 98
c100 0 162 61 162 152c0 69 -39 105 -111 105c-91 0 -157 -56 -157 -142c0 -72 35 -115 106 -115z" />
    <glyph glyph-name="seven" unicode="7" 
d="M135 0l394 590h-356l24 110h517l-16 -71l-410 -629h-153z" />
    <glyph glyph-name="eight" unicode="8" 
d="M299 -12c-117 0 -222 48 -222 181c0 115 75 187 183 206c-66 21 -94 59 -94 125c0 156 148 212 282 212c115 0 227 -45 227 -163c0 -97 -61 -156 -159 -181c75 -16 108 -69 108 -141c0 -85 -38 -153 -109 -194c-58 -33 -140 -45 -216 -45zM330 97c86 0 161 35 161 129
c0 74 -59 97 -121 97c-80 0 -160 -37 -160 -126c0 -69 54 -100 120 -100zM436 602c-75 0 -137 -29 -137 -112c0 -55 44 -82 100 -82c77 0 143 29 143 114c0 62 -51 80 -106 80z" />
    <glyph glyph-name="nine" unicode="9" 
d="M257 -12c-60 0 -127 16 -164 34l27 125c23 -18 86 -49 160 -49c159 0 227 113 251 253c-38 -65 -106 -109 -204 -109c-118 0 -198 70 -198 186c0 86 33 157 83 206c53 52 117 78 213 78c168 0 242 -94 242 -257c0 -144 -48 -272 -104 -337c-72 -86 -161 -130 -306 -130z
M372 346c94 0 162 51 162 143c0 72 -45 113 -116 113c-104 0 -156 -71 -156 -158c0 -66 46 -98 110 -98z" />
    <glyph glyph-name="colon" unicode=":" horiz-adv-x="359" 
d="M196 -6c-58 0 -85 27 -85 83c0 55 27 83 85 83c57 0 85 -28 85 -83c0 -56 -28 -83 -85 -83zM274 360c-58 0 -85 27 -85 83c0 55 27 83 85 83c57 0 85 -28 85 -83c0 -56 -28 -83 -85 -83z" />
    <glyph glyph-name="semicolon" unicode=";" horiz-adv-x="359" 
d="M44 -107c61 10 114 51 133 101c-45 0 -71 29 -71 78c0 57 33 88 94 88c52 0 86 -34 86 -88c0 -118 -79 -220 -195 -253zM274 360c-58 0 -85 27 -85 83c0 55 27 83 85 83c57 0 85 -28 85 -83c0 -56 -28 -83 -85 -83z" />
    <glyph glyph-name="less" unicode="&#x3c;" 
d="M583 106l-448 166v109l448 167v-112l-300 -106v-2l300 -106v-116z" />
    <glyph glyph-name="equal" unicode="=" 
d="M154 275h448v-110h-448v110zM154 489h448v-110h-448v110z" />
    <glyph glyph-name="greater" unicode="&#x3e;" 
d="M172 106v111l300 106v2l-300 106v117l448 -167v-110z" />
    <glyph glyph-name="question" unicode="?" horiz-adv-x="568" 
d="M349 230h-120c30 180 249 156 249 295c0 43 -31 70 -99 70c-79 0 -134 -20 -182 -45l26 125c49 19 120 37 199 37c133 0 200 -62 200 -153c0 -219 -249 -197 -273 -329zM257 -6c-58 0 -85 27 -85 83c0 55 27 83 85 83c57 0 85 -28 85 -83c0 -56 -28 -83 -85 -83z" />
    <glyph glyph-name="at" unicode="@" horiz-adv-x="996" 
d="M582 -132c-284 0 -430 177 -430 417c0 236 149 427 427 427c241 0 401 -144 401 -380c0 -155 -88 -268 -210 -268c-91 0 -125 33 -133 92c-28 -64 -75 -92 -145 -92c-90 0 -138 58 -138 147c0 87 29 212 109 272c30 23 67 34 108 34c70 0 102 -30 109 -76l25 66h90
l-53 -251c-8 -39 -13 -59 -13 -69c0 -30 17 -42 50 -42c70 0 119 69 119 185c0 189 -113 307 -320 307c-230 0 -344 -148 -344 -353c0 -184 100 -341 348 -341c66 0 141 17 185 46v-86c-53 -21 -116 -35 -185 -35zM457 215c0 -38 18 -68 62 -68c48 0 81 23 104 79
c18 43 34 104 34 146c0 45 -24 62 -64 62c-29 0 -53 -8 -73 -26c-44 -42 -63 -141 -63 -193z" />
    <glyph glyph-name="A" unicode="A" horiz-adv-x="688" 
d="M16 0l399 700h155l102 -700h-133l-22 163h-271l-90 -163h-140zM465 559l-157 -283h194z" />
    <glyph glyph-name="B" unicode="B" horiz-adv-x="679" 
d="M96 2l148 698c91 4 164 6 216 6c122 0 250 -15 250 -151c0 -105 -42 -170 -154 -196c74 -13 115 -51 115 -136c0 -87 -37 -151 -103 -187c-68 -35 -184 -42 -241 -42c-55 0 -158 1 -231 8zM295 308l-42 -197c34 -3 70 -4 100 -4c124 0 175 31 175 121
c0 60 -24 80 -137 80h-96zM315 403h112c94 0 139 36 139 113c0 56 -25 77 -112 77c-31 0 -60 -1 -100 -3z" />
    <glyph glyph-name="C" unicode="C" horiz-adv-x="650" 
d="M735 670l-28 -130c-47 33 -103 55 -178 55c-66 0 -114 -17 -156 -52c-68 -58 -109 -187 -109 -282c0 -107 65 -156 176 -156c84 0 153 28 192 51l-27 -130c-53 -22 -114 -38 -202 -38c-164 0 -283 71 -283 252c0 121 54 309 171 400c65 50 150 72 243 72
c88 0 157 -20 201 -42z" />
    <glyph glyph-name="D" unicode="D" horiz-adv-x="755" 
d="M304 -6c-84 0 -146 4 -208 9l148 697c77 5 138 6 231 6c189 0 302 -85 302 -257c0 -151 -47 -280 -125 -352c-81 -74 -185 -103 -348 -103zM253 116c29 -3 49 -5 78 -5c85 0 152 14 200 51c60 46 102 144 102 263c0 111 -59 164 -184 164c-35 0 -64 0 -96 -3z" />
    <glyph glyph-name="E" unicode="E" horiz-adv-x="622" 
d="M96 0l147 700h467l-25 -117h-331l-36 -171h295l-24 -110h-296l-39 -185h332l-25 -117h-465z" />
    <glyph glyph-name="F" unicode="F" horiz-adv-x="602" 
d="M96 0l149 700h449l-25 -117h-315l-41 -191h301l-25 -117h-301l-58 -275h-134z" />
    <glyph glyph-name="G" unicode="G" horiz-adv-x="708" 
d="M428 -12c-191 0 -305 80 -305 271c0 145 70 307 166 380c74 56 155 73 266 73c85 0 167 -25 201 -43l-28 -128c-38 27 -111 54 -186 54c-67 0 -121 -12 -169 -52c-62 -51 -106 -172 -106 -267c0 -129 68 -171 182 -171c46 0 85 8 114 17l32 151h-139l24 110h257l-73 -345
c-38 -18 -127 -50 -236 -50z" />
    <glyph glyph-name="H" unicode="H" horiz-adv-x="788" 
d="M96 0l149 700h134l-60 -282h328l60 282h134l-149 -700h-134l64 302h-328l-64 -302h-134z" />
    <glyph glyph-name="I" unicode="I" horiz-adv-x="336" 
d="M101 0l149 700h134l-149 -700h-134z" />
    <glyph glyph-name="J" unicode="J" horiz-adv-x="439" 
d="M150 -6c-43 0 -85 11 -121 28l26 125c32 -23 59 -36 94 -36c59 0 90 29 106 106l103 484h134l-107 -501c-31 -148 -99 -206 -235 -206z" />
    <glyph glyph-name="K" unicode="K" horiz-adv-x="715" 
d="M545 0l-175 298h-77l-63 -298h-134l148 700h134l-61 -285h62l276 285h160l-336 -341l212 -359h-146z" />
    <glyph glyph-name="L" unicode="L" horiz-adv-x="576" 
d="M96 0l149 700h134l-125 -583h318l-24 -117h-452z" />
    <glyph glyph-name="M" unicode="M" horiz-adv-x="917" 
d="M96 0l148 700h178l98 -398l262 398h187l-148 -700h-131l89 423c8 37 21 86 32 128c-28 -44 -60 -95 -80 -127l-184 -273h-111l-68 272c-8 35 -20 86 -29 129c-6 -42 -14 -91 -21 -128l-91 -424h-131z" />
    <glyph glyph-name="N" unicode="N" horiz-adv-x="786" 
d="M97 0l148 700h138l176 -417c16 -38 31 -69 43 -111c3 42 7 72 15 112l88 416h134l-148 -700h-138l-177 416c-16 40 -28 70 -39 112c-5 -42 -9 -72 -18 -112l-88 -416h-134z" />
    <glyph glyph-name="O" unicode="O" horiz-adv-x="795" 
d="M397 -12c-162 0 -275 88 -275 256c0 131 48 298 157 388c73 61 162 80 263 80c167 0 279 -80 279 -256c0 -140 -54 -306 -149 -383c-81 -65 -173 -85 -275 -85zM425 105c67 0 119 17 159 59c57 61 93 173 93 268c0 109 -51 163 -159 163c-58 0 -106 -13 -146 -47
c-70 -61 -106 -189 -106 -284c0 -109 56 -159 159 -159z" />
    <glyph glyph-name="P" unicode="P" horiz-adv-x="662" 
d="M96 0l148 698c60 5 129 8 221 8c176 0 251 -69 251 -194c0 -120 -48 -204 -125 -253c-56 -37 -136 -50 -233 -50c-28 0 -59 3 -82 6l-46 -215h-134zM299 331c30 -4 51 -5 83 -5c56 0 104 3 138 30c34 28 52 78 52 137c0 62 -31 96 -132 96c-31 0 -54 0 -86 -3z" />
    <glyph glyph-name="Q" unicode="Q" horiz-adv-x="795" 
d="M397 -12c-162 0 -275 88 -275 256c0 131 48 298 157 388c73 61 162 80 263 80c167 0 279 -80 279 -256c0 -140 -53 -307 -149 -383c-39 -31 -79 -52 -122 -65l122 -168h-155l-107 148h-13zM425 105c67 0 119 17 159 59c57 61 93 173 93 268c0 109 -51 163 -159 163
c-58 0 -106 -13 -146 -47c-70 -61 -106 -189 -106 -284c0 -109 56 -159 159 -159z" />
    <glyph glyph-name="R" unicode="R" horiz-adv-x="685" 
d="M97 0l148 698c78 6 143 8 210 8c147 0 242 -47 242 -192c0 -120 -58 -214 -173 -242l134 -272h-145l-122 253h-106l-54 -253h-134zM308 363h86c104 0 159 37 159 136c0 65 -47 90 -108 90c-31 0 -58 -1 -90 -4z" />
    <glyph glyph-name="S" unicode="S" 
d="M305 -12c-80 0 -181 25 -229 59l29 135c49 -51 128 -81 207 -81c101 0 154 35 154 100c0 130 -297 79 -297 288c0 135 112 223 284 223c80 0 174 -20 220 -46l-29 -134c-46 40 -115 67 -188 67c-94 0 -143 -27 -143 -85c0 -131 297 -85 297 -292
c0 -149 -112 -234 -305 -234z" />
    <glyph glyph-name="T" unicode="T" horiz-adv-x="605" 
d="M236 0l124 583h-210l24 117h555l-24 -117h-211l-124 -583h-134z" />
    <glyph glyph-name="U" unicode="U" horiz-adv-x="744" 
d="M374 -12c-143 0 -231 68 -231 197c0 38 8 97 22 160l75 355h134l-79 -370c-14 -63 -16 -103 -16 -125c0 -73 50 -100 118 -100c103 0 153 38 183 179l88 416h134l-90 -422c-48 -225 -142 -290 -338 -290z" />
    <glyph glyph-name="V" unicode="V" horiz-adv-x="682" 
d="M258 0l-86 700h138l60 -552l291 552h147l-381 -700h-169z" />
    <glyph glyph-name="W" unicode="W" horiz-adv-x="987" 
d="M186 0l-1 700h139l-5 -401c0 -42 -2 -87 -5 -129c18 42 38 88 58 128l194 402h149l22 -398c2 -42 3 -89 4 -132c14 43 32 89 50 131l164 399h145l-299 -700h-164l-31 524l-254 -524h-166z" />
    <glyph glyph-name="X" unicode="X" horiz-adv-x="686" 
d="M23 0l297 362l-130 338h146l94 -246l201 246h166l-282 -340l148 -360h-150l-112 269l-214 -269h-164z" />
    <glyph glyph-name="Y" unicode="Y" horiz-adv-x="649" 
d="M258 0l55 260l-149 440h144l98 -294l219 294h159l-337 -439l-55 -261h-134z" />
    <glyph glyph-name="Z" unicode="Z" horiz-adv-x="632" 
d="M53 0l17 79l448 504h-330l25 117h517l-17 -79l-448 -504h349l-25 -117h-536z" />
    <glyph glyph-name="bracketleft" unicode="[" horiz-adv-x="381" 
d="M48 -180l199 940h266l-20 -96h-149l-159 -748h149l-20 -96h-266z" />
    <glyph glyph-name="backslash" unicode="\" horiz-adv-x="395" 
d="M337 -180l-270 940h108l270 -940h-108z" />
    <glyph glyph-name="bracketright" unicode="]" horiz-adv-x="381" 
d="M-9 -180l20 96h149l159 748h-149l21 96h265l-199 -940h-266z" />
    <glyph glyph-name="asciicircum" unicode="^" 
d="M140 350l184 350h118l186 -350h-107l-137 262l-137 -262h-107z" />
    <glyph glyph-name="underscore" unicode="_" horiz-adv-x="450" 
d="M-29 -98h450v-82h-450v82z" />
    <glyph glyph-name="grave" unicode="`" horiz-adv-x="303" 
d="M426 625h-100l-150 150h158z" />
    <glyph glyph-name="a" unicode="a" horiz-adv-x="671" 
d="M477 0l4 89c-37 -57 -90 -101 -187 -101c-123 0 -194 73 -194 201c0 179 80 363 287 363c103 0 151 -47 169 -109l39 97h110l-115 -540h-113zM233 214c0 -83 49 -116 120 -116c90 0 139 53 159 147l8 40c4 18 5 36 5 49c0 74 -40 108 -116 108
c-127 0 -176 -114 -176 -228z" />
    <glyph glyph-name="b" unicode="b" horiz-adv-x="668" 
d="M81 0l161 760h130l-63 -295c39 50 93 87 186 87c118 0 188 -72 188 -201c0 -176 -78 -363 -287 -363c-95 0 -154 57 -169 114l-36 -102h-110zM376 98c122 0 174 118 174 229c0 82 -47 115 -117 115c-90 0 -141 -56 -159 -147l-8 -40c-20 -100 32 -157 110 -157z" />
    <glyph glyph-name="c" unicode="c" horiz-adv-x="560" 
d="M542 151l-26 -115c-34 -22 -94 -48 -179 -48c-140 0 -237 69 -237 215c0 221 123 349 334 349c81 0 137 -19 166 -38l-29 -120c-29 24 -81 48 -145 48c-124 0 -193 -78 -193 -217c0 -76 51 -127 150 -127c62 0 117 24 159 53z" />
    <glyph glyph-name="d" unicode="d" horiz-adv-x="670" 
d="M476 0l5 89c-36 -57 -89 -101 -186 -101c-124 0 -196 72 -196 204c0 181 80 360 289 360c102 0 151 -42 166 -102l67 310h130l-162 -760h-113zM232 217c0 -86 49 -119 122 -119c88 0 138 54 157 147l8 40c20 100 -22 157 -110 157c-129 0 -177 -113 -177 -225z" />
    <glyph glyph-name="e" unicode="e" horiz-adv-x="595" 
d="M338 -12c-161 0 -239 83 -239 209c0 207 121 355 324 355c155 0 208 -63 208 -144c0 -88 -63 -172 -295 -172h-105c-1 -9 -3 -22 -3 -36c0 -71 43 -110 140 -110c74 0 157 27 205 68l-23 -112c-38 -29 -122 -58 -212 -58zM351 314c122 0 147 37 147 75
c0 33 -17 61 -84 61c-95 0 -145 -47 -167 -136h104z" />
    <glyph glyph-name="f" unicode="f" horiz-adv-x="433" 
d="M124 430l24 110h89l12 57c26 122 90 169 221 169c43 0 73 -5 96 -10l-24 -113c-14 6 -40 13 -74 13c-55 0 -80 -14 -92 -73l-9 -43h149l-24 -110h-149l-92 -430h-130l92 430h-89z" />
    <glyph glyph-name="g" unicode="g" horiz-adv-x="669" 
d="M260 -202c-88 0 -157 17 -193 34l27 124c27 -22 89 -50 189 -50c117 0 171 57 188 140l15 76c-36 -57 -87 -104 -185 -104c-124 0 -199 59 -199 197c0 157 77 337 287 337c102 0 150 -43 166 -102l38 90h110l-103 -486c-39 -182 -150 -256 -340 -256zM360 126
c97 0 140 65 153 129l8 40c21 100 -23 149 -112 149c-124 0 -168 -99 -168 -204c0 -79 42 -114 119 -114z" />
    <glyph glyph-name="h" unicode="h" horiz-adv-x="658" 
d="M81 0l162 760h131l-66 -304c42 62 106 96 198 96c110 0 161 -41 161 -126c0 -22 -3 -44 -9 -71l-75 -355h-130l69 326c4 18 5 34 5 47c0 51 -30 69 -96 69c-90 0 -137 -47 -154 -130l-66 -312h-130z" />
    <glyph glyph-name="i" unicode="i" horiz-adv-x="308" 
d="M219 0h-130l115 540h130zM302 631c-54 0 -79 26 -79 69s25 69 79 69c53 0 79 -26 79 -69s-26 -69 -79 -69z" />
    <glyph glyph-name="j" unicode="j" horiz-adv-x="308" 
d="M-68 -173l24 111c13 -8 33 -13 57 -13c43 0 63 18 73 64l118 551h130l-118 -553c-27 -123 -84 -173 -198 -173c-45 0 -73 7 -86 13zM302 631c-54 0 -79 26 -79 69s25 69 79 69c53 0 79 -26 79 -69s-26 -69 -79 -69z" />
    <glyph glyph-name="k" unicode="k" horiz-adv-x="610" 
d="M81 0l161 760h130l-90 -425h45l194 205h160l-257 -265l163 -275h-152l-132 225h-44l-48 -225h-130z" />
    <glyph glyph-name="l" unicode="l" horiz-adv-x="356" 
d="M236 -6c-84 0 -132 26 -132 94c0 15 3 32 6 51l132 621h130l-126 -597c-3 -10 -4 -19 -4 -25c0 -27 15 -34 47 -34c21 0 41 4 63 11l-23 -105c-16 -7 -51 -16 -93 -16z" />
    <glyph glyph-name="m" unicode="m" horiz-adv-x="940" 
d="M81 0l115 540h113l-5 -87c41 67 106 99 185 99c85 0 128 -38 129 -108c43 76 112 108 198 108c95 0 136 -40 136 -116c0 -18 -2 -39 -7 -61l-79 -375h-130l71 339c4 15 6 28 6 40c0 44 -24 63 -81 63c-67 0 -109 -38 -124 -113l-70 -329h-130l72 339c3 15 5 28 5 40
c0 46 -26 63 -78 63c-71 0 -111 -40 -126 -113l-70 -329h-130z" />
    <glyph glyph-name="n" unicode="n" horiz-adv-x="658" 
d="M81 0l115 540h113l-2 -83c47 68 117 95 199 95c104 0 161 -35 161 -127c0 -19 -3 -42 -8 -68l-76 -357h-130l67 316c4 22 7 41 7 56c0 53 -29 70 -97 70c-86 0 -136 -45 -153 -130l-66 -312h-130z" />
    <glyph glyph-name="o" unicode="o" horiz-adv-x="650" 
d="M100 209c0 197 117 343 327 343c128 0 236 -64 236 -213c0 -207 -107 -351 -317 -351c-163 0 -246 89 -246 221zM234 219c0 -73 35 -121 124 -121c122 0 171 126 171 232c0 74 -40 112 -115 112c-118 0 -180 -102 -180 -223z" />
    <glyph glyph-name="p" unicode="p" horiz-adv-x="671" 
d="M42 -180l155 720h112l-5 -87c36 57 89 99 186 99c125 0 195 -72 195 -200c0 -179 -79 -364 -289 -364c-95 0 -150 47 -166 102l-58 -270h-130zM376 98c122 0 176 119 176 231c0 82 -48 113 -120 113c-88 0 -139 -59 -159 -147l-9 -40c-22 -99 35 -157 112 -157z" />
    <glyph glyph-name="q" unicode="q" horiz-adv-x="670" 
d="M421 -180l58 269c-36 -57 -87 -101 -185 -101c-124 0 -195 73 -195 201c0 179 80 363 289 363c103 0 151 -42 168 -101l38 89h110l-153 -720h-130zM232 214c0 -83 48 -116 121 -116c88 0 144 58 160 147l8 40c19 102 -24 157 -112 157c-129 0 -177 -117 -177 -228z" />
    <glyph glyph-name="r" unicode="r" horiz-adv-x="451" 
d="M81 0l115 540h113l-2 -82c39 62 97 94 167 94c21 0 40 -3 57 -7l-28 -128c-17 16 -42 25 -82 25c-82 0 -126 -47 -146 -142l-64 -300h-130z" />
    <glyph glyph-name="s" unicode="s" horiz-adv-x="533" 
d="M64 23l27 127c34 -33 98 -58 171 -58c81 0 117 25 117 74c0 82 -242 37 -242 189c0 141 106 197 260 197c59 0 118 -9 157 -24l-26 -124c-37 28 -82 45 -149 45c-75 0 -109 -23 -109 -63c0 -81 242 -30 242 -186c0 -154 -120 -212 -270 -212c-60 0 -127 11 -178 35z" />
    <glyph glyph-name="t" unicode="t" horiz-adv-x="480" 
d="M302 -6c-100 0 -147 33 -147 112c0 19 4 36 9 61l55 263h-100l23 110h100l20 91l139 44l-29 -135h172l-23 -110h-172l-52 -245c-3 -14 -4 -25 -4 -35c0 -38 21 -46 62 -46c42 0 78 12 106 28l-24 -112c-24 -12 -75 -26 -135 -26z" />
    <glyph glyph-name="u" unicode="u" horiz-adv-x="649" 
d="M256 -12c-100 0 -149 41 -149 126c0 21 2 44 8 70l76 356h130l-69 -326c-4 -17 -6 -32 -6 -46c0 -49 28 -70 91 -70c84 0 131 44 149 131l67 311h130l-115 -540h-113v85c-49 -67 -112 -97 -199 -97z" />
    <glyph glyph-name="v" unicode="v" horiz-adv-x="580" 
d="M358 0h-136l-90 540h141l48 -391l211 391h144z" />
    <glyph glyph-name="w" unicode="w" horiz-adv-x="867" 
d="M162 0l-17 540h131l3 -396l203 396h125l36 -395l169 395h138l-249 -540h-155l-33 377l-195 -377h-156z" />
    <glyph glyph-name="x" unicode="x" horiz-adv-x="587" 
d="M24 0l241 279l-114 261h141l76 -179l152 179h147l-226 -259l124 -281h-142l-86 195l-166 -195h-147z" />
    <glyph glyph-name="y" unicode="y" horiz-adv-x="576" 
d="M76 -179l25 116c14 -9 36 -19 60 -19c35 0 57 24 86 79l-115 543h143l63 -384l195 384h139l-298 -535c-91 -161 -144 -197 -225 -197c-28 0 -58 5 -73 13z" />
    <glyph glyph-name="z" unicode="z" horiz-adv-x="553" 
d="M44 0l18 83l352 347h-272l24 110h447l-17 -83l-352 -347h287l-23 -110h-464z" />
    <glyph glyph-name="braceleft" unicode="{" horiz-adv-x="408" 
d="M341 -180h-81c-122 0 -150 61 -150 119c0 18 5 44 9 64l28 133c2 10 6 29 6 42c0 45 -30 66 -75 69l18 87c56 3 102 43 116 111l30 142c20 92 65 173 215 173h83l-20 -96h-68c-53 0 -81 -20 -94 -83l-31 -145c-15 -71 -52 -131 -131 -149c56 -12 73 -46 73 -95
c0 -15 -2 -34 -5 -50l-28 -135c-4 -18 -6 -34 -6 -43c0 -38 17 -48 58 -48h73z" />
    <glyph glyph-name="bar" unicode="|" horiz-adv-x="300" 
d="M170 -180h-116l199 940h116z" />
    <glyph glyph-name="braceright" unicode="}" horiz-adv-x="408" 
d="M-9 -180l20 96h68c53 0 81 20 94 83l30 145c15 71 53 131 132 149c-56 12 -73 46 -73 95c0 15 2 34 5 50l28 135c4 18 6 34 6 43c0 38 -17 48 -58 48h-73l20 96h81c122 0 150 -61 150 -119c0 -18 -5 -44 -9 -64l-28 -133c-2 -10 -6 -29 -6 -42c0 -45 30 -66 75 -69
l-18 -87c-56 -3 -102 -43 -116 -111l-30 -142c-20 -92 -65 -173 -215 -173h-83z" />
    <glyph glyph-name="asciitilde" unicode="~" 
d="M490 232c-85 0 -150 76 -221 76c-45 0 -92 -27 -115 -54v111c29 32 72 53 117 53c84 0 157 -76 229 -76c37 0 76 17 102 49v-112c-24 -26 -65 -47 -112 -47z" />
    <glyph glyph-name="uni00A0" unicode="&#xa0;" horiz-adv-x="275" 
 />
    <glyph glyph-name="exclamdown" unicode="&#xa1;" horiz-adv-x="394" 
d="M322 310l-92 -490h-144l117 490h119zM294 380c-58 0 -85 27 -85 83c0 55 27 83 85 83c57 0 85 -28 85 -83c0 -56 -28 -83 -85 -83z" />
    <glyph glyph-name="cent" unicode="&#xa2;" 
d="M581 150l-26 -114c-31 -21 -82 -44 -162 -48l-23 -108h-98l24 113c-110 18 -177 88 -177 210c0 204 106 327 296 345l19 92h98l-19 -92c63 -6 104 -22 127 -36l-28 -120c-30 24 -81 48 -156 48c-133 0 -204 -76 -204 -215c0 -76 51 -128 160 -128c72 0 127 24 169 53z
" />
    <glyph glyph-name="sterling" unicode="&#xa3;" 
d="M140 319l18 90h86l15 67c35 158 132 236 293 236c49 0 101 -7 142 -19l-25 -117c-45 14 -79 19 -118 19c-96 0 -141 -37 -161 -129l-12 -57h166l-18 -90h-168l-43 -203h256l-24 -116h-475l24 116h85l44 203h-85z" />
    <glyph glyph-name="currency" unicode="&#xa4;" 
d="M193 107l-55 56l63 65c-23 33 -38 76 -38 128s15 95 39 128l-64 66l55 56l64 -65c32 23 76 39 127 39c52 0 96 -17 126 -39l65 66l56 -56l-64 -67c22 -32 39 -77 39 -128s-17 -95 -39 -128l64 -65l-56 -56l-64 64c-32 -23 -76 -39 -127 -39c-52 0 -96 16 -128 39z
M248 356c0 -82 63 -139 136 -139c74 0 137 57 137 139c0 80 -63 139 -137 139c-73 0 -136 -59 -136 -139z" />
    <glyph glyph-name="yen" unicode="&#xa5;" 
d="M132 280l20 94h120l-108 326h145l89 -284l196 284h159l-245 -326h120l-20 -94h-171l-15 -69h171l-20 -94h-171l-25 -117h-134l25 117h-170l19 94h171l15 69h-171z" />
    <glyph glyph-name="brokenbar" unicode="&#xa6;" horiz-adv-x="300" 
d="M54 -180l84 395h116l-84 -395h-116zM169 365l84 395h116l-84 -395h-116z" />
    <glyph glyph-name="section" unicode="&#xa7;" horiz-adv-x="528" 
d="M589 687l-21 -100c-61 24 -99 29 -137 29c-47 0 -113 -12 -113 -71c0 -27 23 -43 80 -72l46 -23c52 -26 103 -58 103 -122c0 -73 -57 -131 -115 -168c25 -21 41 -47 41 -82c0 -130 -141 -190 -262 -190c-55 0 -111 9 -162 28l22 104c56 -28 96 -36 146 -36
c55 0 123 16 123 74c0 25 -20 39 -92 78l-46 25c-52 27 -92 60 -92 118c0 76 55 132 119 166c-30 20 -44 49 -44 83c0 134 141 184 254 184c65 0 117 -14 150 -25zM299 406c-35 -21 -70 -53 -70 -95c0 -36 33 -59 83 -85l53 -27c29 23 63 59 63 98c0 33 -28 55 -73 79z" />
    <glyph glyph-name="dieresis" unicode="&#xa8;" horiz-adv-x="370" 
d="M233 634c-50 0 -72 22 -72 66s22 66 72 66c49 0 72 -22 72 -66s-23 -66 -72 -66zM435 634c-50 0 -72 22 -72 66s22 66 72 66c49 0 72 -22 72 -66s-23 -66 -72 -66z" />
    <glyph glyph-name="copyright" unicode="&#xa9;" horiz-adv-x="874" 
d="M505 -52c-216 0 -375 159 -375 371c0 214 159 373 375 373c217 0 376 -159 376 -373c0 -212 -159 -371 -376 -371zM504 17c175 0 304 129 304 302c0 175 -129 304 -304 304c-173 0 -302 -129 -302 -304c0 -173 129 -302 302 -302zM521 128c-135 0 -191 75 -191 194
c0 128 65 197 193 197c38 0 70 -7 89 -14v-73c-23 9 -54 13 -77 13c-78 0 -120 -36 -120 -120c0 -89 45 -122 120 -122c25 0 54 5 79 16v-75c-22 -9 -53 -16 -93 -16z" />
    <glyph glyph-name="ordfeminine" unicode="&#xaa;" horiz-adv-x="359" 
d="M217 374c-59 0 -85 27 -85 71c0 99 70 127 163 127h64l3 15c2 6 3 12 3 16c0 23 -16 33 -59 33c-41 0 -88 -11 -113 -24l16 77c29 9 76 17 125 17c83 0 120 -22 120 -78c0 -12 -2 -26 -5 -41l-45 -207h-77l5 50c-20 -29 -57 -56 -115 -56zM262 440c42 0 75 25 82 63l4 18
h-53c-39 0 -70 -9 -70 -48c0 -24 12 -33 37 -33z" />
    <glyph glyph-name="guillemotleft" unicode="&#xab;" horiz-adv-x="606" 
d="M205 68l-89 212l174 212h126l-180 -219l89 -205h-120zM441 68l-89 212l174 212h126l-180 -219l89 -205h-120z" />
    <glyph glyph-name="logicalnot" unicode="&#xac;" 
d="M154 382h448v-260h-110v150h-338v110z" />
    <glyph glyph-name="uni00AD" unicode="&#xad;" horiz-adv-x="484" 
d="M140 227l21 104h302l-21 -104h-302z" />
    <glyph glyph-name="registered" unicode="&#xae;" horiz-adv-x="600" 
d="M411 266c-149 0 -253 108 -253 252s104 254 253 254c150 0 252 -110 252 -254s-102 -252 -252 -252zM411 319c118 0 198 85 198 199c0 115 -80 201 -198 201c-117 0 -198 -86 -198 -201c0 -114 81 -199 198 -199zM311 391v266h108c46 0 97 -14 97 -87
c0 -38 -20 -66 -47 -76l64 -103h-69l-55 93h-35v-93h-63zM373 535h39c21 0 39 7 39 34c0 29 -17 34 -40 34h-38v-68z" />
    <glyph glyph-name="macron" unicode="&#xaf;" horiz-adv-x="365" 
d="M172 658v84h316v-84h-316z" />
    <glyph glyph-name="degree" unicode="&#xb0;" horiz-adv-x="400" 
d="M320 413c-90 0 -154 64 -154 150s63 149 154 149c90 0 153 -63 153 -149s-64 -150 -153 -150zM320 487c44 0 76 32 76 76c0 43 -32 75 -76 75c-45 0 -76 -32 -76 -75c0 -44 31 -76 76 -76z" />
    <glyph glyph-name="plusminus" unicode="&#xb1;" 
d="M330 240v138h-169v110h169v169h110v-169h169v-110h-169v-138h-110zM161 166h448v-110h-448v110z" />
    <glyph glyph-name="twosuperior" unicode="&#xb2;" horiz-adv-x="450" 
d="M131 380l18 86l146 83c99 56 134 88 134 128c0 32 -27 47 -82 47c-41 0 -93 -8 -133 -26l18 85c52 17 99 23 145 23c106 0 158 -33 158 -102c0 -70 -54 -123 -202 -204l-66 -36v-1h223l-18 -83h-341z" />
    <glyph glyph-name="threesuperior" unicode="&#xb3;" horiz-adv-x="450" 
d="M272 374c-36 0 -92 3 -138 19l17 83c42 -19 89 -21 131 -21c47 0 117 6 117 63c0 33 -23 43 -78 43h-83l15 69h74c39 0 99 7 99 54c0 31 -24 42 -87 42c-45 0 -94 -6 -131 -19l17 80c49 16 111 19 162 19c109 0 146 -38 146 -91c0 -69 -64 -99 -127 -115v-2
c73 -11 94 -41 94 -84c0 -106 -135 -140 -228 -140z" />
    <glyph glyph-name="acute" unicode="&#xb4;" horiz-adv-x="271" 
d="M143 625l124 150h158l-182 -150h-100z" />
    <glyph glyph-name="mu" unicode="&#xb5;" horiz-adv-x="654" 
d="M173 -180h-130l153 720h130l-69 -326c-5 -25 -6 -36 -6 -46c0 -49 28 -70 91 -70c84 0 131 44 149 131l67 311h130l-115 -540h-113v85c-49 -67 -112 -97 -198 -97c-19 0 -37 4 -52 8z" />
    <glyph glyph-name="mu" unicode="&#x3bc;" horiz-adv-x="654" 
d="M173 -180h-130l153 720h130l-69 -326c-5 -25 -6 -36 -6 -46c0 -49 28 -70 91 -70c84 0 131 44 149 131l67 311h130l-115 -540h-113v85c-49 -67 -112 -97 -198 -97c-19 0 -37 4 -52 8z" />
    <glyph glyph-name="paragraph" unicode="&#xb6;" horiz-adv-x="644" 
d="M190 -180l111 526c-94 0 -142 51 -142 128c0 146 115 226 252 226h285l-186 -880h-116l163 770h-88l-163 -770h-116z" />
    <glyph glyph-name="periodcentered" unicode="&#xb7;" horiz-adv-x="345" 
d="M247 267c-58 0 -85 27 -85 83c0 55 27 83 85 83c57 0 85 -28 85 -83c0 -56 -28 -83 -85 -83z" />
    <glyph glyph-name="cedilla" unicode="&#xb8;" horiz-adv-x="234" 
d="M22 -98l37 98h69l-21 -51c51 -1 91 -18 91 -66c0 -74 -74 -124 -148 -124c-36 0 -66 6 -88 16l22 57c17 -7 34 -12 56 -12c29 0 65 18 65 54c0 23 -25 29 -51 29c-8 0 -23 0 -32 -1z" />
    <glyph glyph-name="onesuperior" unicode="&#xb9;" horiz-adv-x="450" 
d="M299 380l67 316l-126 -59l-24 70l191 93h81l-90 -420h-99z" />
    <glyph glyph-name="ordmasculine" unicode="&#xba;" horiz-adv-x="425" 
d="M145 497c0 128 67 209 216 209c94 0 149 -45 149 -123c0 -136 -73 -209 -217 -209c-89 0 -148 48 -148 123zM345 631c-69 0 -101 -46 -101 -120c0 -43 27 -62 67 -62c64 0 101 45 101 121c0 43 -26 61 -67 61z" />
    <glyph glyph-name="guillemotright" unicode="&#xbb;" horiz-adv-x="606" 
d="M72 68l180 221l-88 203h120l88 -211l-175 -213h-125zM309 68l180 221l-88 203h120l88 -211l-175 -213h-125z" />
    <glyph glyph-name="onequarter" unicode="&#xbc;" horiz-adv-x="950" 
d="M283 0h-110l626 700h110zM225 280l67 316l-126 -59l-24 70l191 93h81l-90 -420h-99zM525 87l15 75l290 258h114l-55 -254h57l-16 -79h-57l-19 -87h-95l19 87h-253zM795 166l37 172h-1l-195 -172h159z" />
    <glyph glyph-name="onehalf" unicode="&#xbd;" horiz-adv-x="950" 
d="M253 0h-110l626 700h110zM225 280l67 316l-126 -59l-24 70l191 93h81l-90 -420h-99zM582 0l18 86l146 83c99 56 134 88 134 128c0 32 -27 47 -82 47c-41 0 -93 -8 -133 -26l18 85c52 17 99 23 145 23c106 0 158 -33 158 -102c0 -70 -54 -123 -202 -204l-66 -36v-1h223
l-18 -83h-341z" />
    <glyph glyph-name="threequarters" unicode="&#xbe;" horiz-adv-x="950" 
d="M305 0h-110l626 700h110zM231 274c-36 0 -92 3 -138 19l17 83c42 -19 89 -21 131 -21c47 0 117 6 117 63c0 33 -23 43 -78 43h-83l15 69h74c39 0 99 7 99 54c0 31 -24 42 -87 42c-45 0 -94 -6 -131 -19l17 80c49 16 111 19 162 19c109 0 146 -38 146 -91
c0 -69 -64 -99 -127 -115v-2c73 -11 94 -41 94 -84c0 -106 -135 -140 -228 -140zM525 87l15 75l290 258h114l-55 -254h57l-16 -79h-57l-19 -87h-95l19 87h-253zM795 166l37 172h-1l-195 -172h159z" />
    <glyph glyph-name="questiondown" unicode="&#xbf;" horiz-adv-x="565" 
d="M227 -192c-134 0 -200 62 -200 153c0 219 254 217 277 349h120c-30 -180 -254 -176 -254 -315c0 -43 31 -70 100 -70c78 0 133 21 182 46l-27 -125c-49 -19 -119 -38 -198 -38zM395 380c-58 0 -85 27 -85 83c0 55 27 83 85 83c57 0 85 -28 85 -83c0 -56 -28 -83 -85 -83z
" />
    <glyph glyph-name="Agrave" unicode="&#xc0;" horiz-adv-x="688" 
d="M16 0l399 700h155l102 -700h-133l-22 163h-271l-90 -163h-140zM465 559l-157 -283h194zM456 760l-112 160h159l53 -160h-100z" />
    <glyph glyph-name="Aacute" unicode="&#xc1;" horiz-adv-x="688" 
d="M16 0l399 700h155l102 -700h-133l-22 163h-271l-90 -163h-140zM465 559l-157 -283h194zM455 760l134 160h160l-192 -160h-102z" />
    <glyph glyph-name="Acircumflex" unicode="&#xc2;" horiz-adv-x="688" 
d="M16 0l399 700h155l102 -700h-133l-22 163h-271l-90 -163h-140zM465 559l-157 -283h194zM317 760l155 160h134l87 -160h-98l-64 96l-108 -96h-106z" />
    <glyph glyph-name="Atilde" unicode="&#xc3;" horiz-adv-x="688" 
d="M16 0l399 700h155l102 -700h-133l-22 163h-271l-90 -163h-140zM465 559l-157 -283h194zM412 776l-69 12c4 75 49 116 105 116c28 0 50 -11 82 -25s44 -21 61 -21c21 0 38 15 43 46l69 -13c-5 -72 -50 -115 -105 -115c-29 0 -44 5 -82 24c-28 13 -42 23 -60 23
s-38 -15 -44 -47z" />
    <glyph glyph-name="Adieresis" unicode="&#xc4;" horiz-adv-x="688" 
d="M16 0l399 700h155l102 -700h-133l-22 163h-271l-90 -163h-140zM465 559l-157 -283h194zM415 772c-51 0 -74 23 -74 68s23 68 74 68c50 0 74 -23 74 -68s-24 -68 -74 -68zM631 772c-51 0 -74 23 -74 68s23 68 74 68c50 0 74 -23 74 -68s-24 -68 -74 -68z" />
    <glyph glyph-name="Aring" unicode="&#xc5;" horiz-adv-x="688" 
d="M16 0l399 700h155l102 -700h-133l-22 163h-271l-90 -163h-140zM465 559l-157 -283h194zM522 736c-66 0 -110 44 -110 104s44 104 110 104s110 -44 110 -104s-44 -104 -110 -104zM522 795c28 0 46 19 46 45c0 27 -18 45 -46 45s-46 -18 -46 -45c0 -26 18 -45 46 -45z" />
    <glyph glyph-name="AE" unicode="&#xc6;" horiz-adv-x="1023" 
d="M498 0l34 163h-247l-129 -163h-140l560 700h536l-24 -117h-332l-37 -172h296l-24 -109h-296l-39 -185h332l-25 -117h-465zM374 276h182l67 313z" />
    <glyph glyph-name="Ccedilla" unicode="&#xc7;" horiz-adv-x="650" 
d="M354 -254c-42 0 -69 6 -92 17l23 60c18 -9 37 -13 62 -13c32 0 70 15 70 53c0 25 -29 32 -56 32c-10 0 -25 0 -35 -2l35 97c-142 11 -241 84 -241 250c0 121 54 309 171 400c65 50 150 72 243 72c88 0 157 -20 201 -42l-28 -130c-47 33 -103 55 -178 55
c-66 0 -114 -17 -156 -52c-68 -58 -109 -187 -109 -282c0 -107 65 -156 176 -156c84 0 153 28 192 51l-27 -130c-47 -20 -99 -34 -171 -37l-17 -43c54 0 97 -19 97 -70c0 -84 -84 -130 -160 -130z" />
    <glyph glyph-name="Egrave" unicode="&#xc8;" horiz-adv-x="622" 
d="M96 0l147 700h467l-25 -117h-331l-36 -171h295l-24 -110h-296l-39 -185h332l-25 -117h-465zM442 760l-112 160h159l53 -160h-100z" />
    <glyph glyph-name="Eacute" unicode="&#xc9;" horiz-adv-x="622" 
d="M96 0l147 700h467l-25 -117h-331l-36 -171h295l-24 -110h-296l-39 -185h332l-25 -117h-465zM439 760l134 160h160l-192 -160h-102z" />
    <glyph glyph-name="Ecircumflex" unicode="&#xca;" horiz-adv-x="622" 
d="M96 0l147 700h467l-25 -117h-331l-36 -171h295l-24 -110h-296l-39 -185h332l-25 -117h-465zM302 760l155 160h134l87 -160h-98l-64 96l-108 -96h-106z" />
    <glyph glyph-name="Edieresis" unicode="&#xcb;" horiz-adv-x="622" 
d="M96 0l147 700h467l-25 -117h-331l-36 -171h295l-24 -110h-296l-39 -185h332l-25 -117h-465zM395 772c-51 0 -74 23 -74 68s23 68 74 68c50 0 74 -23 74 -68s-24 -68 -74 -68zM611 772c-51 0 -74 23 -74 68s23 68 74 68c50 0 74 -23 74 -68s-24 -68 -74 -68z" />
    <glyph glyph-name="Igrave" unicode="&#xcc;" horiz-adv-x="336" 
d="M101 0l149 700h134l-149 -700h-134zM280 760l-112 160h159l53 -160h-100z" />
    <glyph glyph-name="Iacute" unicode="&#xcd;" horiz-adv-x="336" 
d="M101 0l149 700h134l-149 -700h-134zM281 760l134 160h160l-192 -160h-102z" />
    <glyph glyph-name="Icircumflex" unicode="&#xce;" horiz-adv-x="336" 
d="M101 0l149 700h134l-149 -700h-134zM141 760l155 160h134l87 -160h-98l-64 96l-108 -96h-106z" />
    <glyph glyph-name="Idieresis" unicode="&#xcf;" horiz-adv-x="336" 
d="M101 0l149 700h134l-149 -700h-134zM239 772c-51 0 -74 23 -74 68s23 68 74 68c50 0 74 -23 74 -68s-24 -68 -74 -68zM455 772c-51 0 -74 23 -74 68s23 68 74 68c50 0 74 -23 74 -68s-24 -68 -74 -68z" />
    <glyph glyph-name="Eth" unicode="&#xd0;" horiz-adv-x="765" 
d="M88 313l20 94h84l62 293c77 5 138 6 231 6c189 0 302 -85 302 -257c0 -151 -47 -280 -125 -352c-81 -74 -185 -103 -348 -103c-84 0 -146 4 -208 9l66 310h-84zM263 116c29 -3 49 -5 78 -5c85 0 152 14 200 51c60 46 102 144 102 263c0 111 -59 164 -184 164
c-35 0 -64 0 -96 -3l-38 -179h150l-19 -94h-151z" />
    <glyph glyph-name="Ntilde" unicode="&#xd1;" horiz-adv-x="786" 
d="M97 0l148 700h138l176 -417c16 -38 31 -69 43 -111c3 42 7 72 15 112l88 416h134l-148 -700h-138l-177 416c-16 40 -28 70 -39 112c-5 -42 -9 -72 -18 -112l-88 -416h-134zM461 776l-69 12c4 75 49 116 105 116c28 0 50 -11 82 -25s44 -21 61 -21c21 0 38 15 43 46
l69 -13c-5 -72 -50 -115 -105 -115c-29 0 -44 5 -82 24c-28 13 -42 23 -60 23s-38 -15 -44 -47z" />
    <glyph glyph-name="Ograve" unicode="&#xd2;" horiz-adv-x="795" 
d="M397 -12c-162 0 -275 88 -275 256c0 131 48 298 157 388c73 61 162 80 263 80c167 0 279 -80 279 -256c0 -140 -54 -306 -149 -383c-81 -65 -173 -85 -275 -85zM425 105c67 0 119 17 159 59c57 61 93 173 93 268c0 109 -51 163 -159 163c-58 0 -106 -13 -146 -47
c-70 -61 -106 -189 -106 -284c0 -109 56 -159 159 -159zM507 760l-112 160h159l53 -160h-100z" />
    <glyph glyph-name="Oacute" unicode="&#xd3;" horiz-adv-x="795" 
d="M397 -12c-162 0 -275 88 -275 256c0 131 48 298 157 388c73 61 162 80 263 80c167 0 279 -80 279 -256c0 -140 -54 -306 -149 -383c-81 -65 -173 -85 -275 -85zM425 105c67 0 119 17 159 59c57 61 93 173 93 268c0 109 -51 163 -159 163c-58 0 -106 -13 -146 -47
c-70 -61 -106 -189 -106 -284c0 -109 56 -159 159 -159zM506 760l134 160h160l-192 -160h-102z" />
    <glyph glyph-name="Ocircumflex" unicode="&#xd4;" horiz-adv-x="795" 
d="M397 -12c-162 0 -275 88 -275 256c0 131 48 298 157 388c73 61 162 80 263 80c167 0 279 -80 279 -256c0 -140 -54 -306 -149 -383c-81 -65 -173 -85 -275 -85zM425 105c67 0 119 17 159 59c57 61 93 173 93 268c0 109 -51 163 -159 163c-58 0 -106 -13 -146 -47
c-70 -61 -106 -189 -106 -284c0 -109 56 -159 159 -159zM369 760l155 160h134l87 -160h-98l-64 96l-108 -96h-106z" />
    <glyph glyph-name="Otilde" unicode="&#xd5;" horiz-adv-x="795" 
d="M397 -12c-162 0 -275 88 -275 256c0 131 48 298 157 388c73 61 162 80 263 80c167 0 279 -80 279 -256c0 -140 -54 -306 -149 -383c-81 -65 -173 -85 -275 -85zM425 105c67 0 119 17 159 59c57 61 93 173 93 268c0 109 -51 163 -159 163c-58 0 -106 -13 -146 -47
c-70 -61 -106 -189 -106 -284c0 -109 56 -159 159 -159zM463 776l-69 12c4 75 49 116 105 116c28 0 50 -11 82 -25s44 -21 61 -21c21 0 38 15 43 46l69 -13c-5 -72 -50 -115 -105 -115c-29 0 -44 5 -82 24c-28 13 -42 23 -60 23s-38 -15 -44 -47z" />
    <glyph glyph-name="Odieresis" unicode="&#xd6;" horiz-adv-x="795" 
d="M397 -12c-162 0 -275 88 -275 256c0 131 48 298 157 388c73 61 162 80 263 80c167 0 279 -80 279 -256c0 -140 -54 -306 -149 -383c-81 -65 -173 -85 -275 -85zM425 105c67 0 119 17 159 59c57 61 93 173 93 268c0 109 -51 163 -159 163c-58 0 -106 -13 -146 -47
c-70 -61 -106 -189 -106 -284c0 -109 56 -159 159 -159zM466 772c-51 0 -74 23 -74 68s23 68 74 68c50 0 74 -23 74 -68s-24 -68 -74 -68zM682 772c-51 0 -74 23 -74 68s23 68 74 68c50 0 74 -23 74 -68s-24 -68 -74 -68z" />
    <glyph glyph-name="multiply" unicode="&#xd7;" 
d="M248 126l-71 71l129 130l-129 129l71 72l130 -130l129 130l72 -72l-130 -129l130 -130l-72 -71l-129 129z" />
    <glyph glyph-name="Oslash" unicode="&#xd8;" horiz-adv-x="795" 
d="M397 -12c-70 0 -131 15 -177 48l-78 -81l-53 45l81 84c-31 41 -48 94 -48 160c0 131 48 299 157 389c73 61 162 79 263 79c74 0 138 -15 185 -49l75 78l53 -46l-78 -81c28 -40 44 -92 44 -158c0 -140 -53 -308 -149 -384c-81 -66 -173 -84 -275 -84zM266 264
c0 -27 3 -50 10 -70l354 368c-26 23 -63 33 -112 33c-58 0 -106 -12 -146 -46c-70 -61 -106 -190 -106 -285zM425 105c67 0 119 16 159 58c57 61 93 174 93 269c0 26 -3 49 -9 69l-353 -366c27 -21 63 -30 110 -30z" />
    <glyph glyph-name="Ugrave" unicode="&#xd9;" horiz-adv-x="744" 
d="M374 -12c-143 0 -231 68 -231 197c0 38 8 97 22 160l75 355h134l-79 -370c-14 -63 -16 -103 -16 -125c0 -73 50 -100 118 -100c103 0 153 38 183 179l88 416h134l-90 -422c-48 -225 -142 -290 -338 -290zM484 760l-112 160h159l53 -160h-100z" />
    <glyph glyph-name="Uacute" unicode="&#xda;" horiz-adv-x="744" 
d="M374 -12c-143 0 -231 68 -231 197c0 38 8 97 22 160l75 355h134l-79 -370c-14 -63 -16 -103 -16 -125c0 -73 50 -100 118 -100c103 0 153 38 183 179l88 416h134l-90 -422c-48 -225 -142 -290 -338 -290zM483 760l134 160h160l-192 -160h-102z" />
    <glyph glyph-name="Ucircumflex" unicode="&#xdb;" horiz-adv-x="744" 
d="M374 -12c-143 0 -231 68 -231 197c0 38 8 97 22 160l75 355h134l-79 -370c-14 -63 -16 -103 -16 -125c0 -73 50 -100 118 -100c103 0 153 38 183 179l88 416h134l-90 -422c-48 -225 -142 -290 -338 -290zM346 760l155 160h134l87 -160h-98l-64 96l-108 -96h-106z" />
    <glyph glyph-name="Udieresis" unicode="&#xdc;" horiz-adv-x="744" 
d="M374 -12c-143 0 -231 68 -231 197c0 38 8 97 22 160l75 355h134l-79 -370c-14 -63 -16 -103 -16 -125c0 -73 50 -100 118 -100c103 0 153 38 183 179l88 416h134l-90 -422c-48 -225 -142 -290 -338 -290zM443 772c-51 0 -74 23 -74 68s23 68 74 68c50 0 74 -23 74 -68
s-24 -68 -74 -68zM659 772c-51 0 -74 23 -74 68s23 68 74 68c50 0 74 -23 74 -68s-24 -68 -74 -68z" />
    <glyph glyph-name="Yacute" unicode="&#xdd;" horiz-adv-x="649" 
d="M258 0l55 260l-149 440h144l98 -294l219 294h159l-337 -439l-55 -261h-134zM435 760l134 160h160l-192 -160h-102z" />
    <glyph glyph-name="Thorn" unicode="&#xde;" horiz-adv-x="663" 
d="M96 0l149 700h134l-21 -99c26 2 55 3 86 3c175 0 250 -70 250 -195c0 -211 -124 -302 -357 -302c-32 0 -61 1 -84 3l-23 -110h-134zM278 226c26 -3 49 -3 83 -3c129 0 190 41 190 162c0 66 -31 102 -132 102c-31 0 -58 -1 -86 -3z" />
    <glyph glyph-name="germandbls" unicode="&#xdf;" horiz-adv-x="670" 
d="M81 0l109 512c36 172 130 260 321 260c126 0 197 -59 197 -153c0 -100 -62 -179 -158 -209l-1 -3c70 -11 116 -52 116 -133c0 -160 -123 -286 -286 -286c-35 0 -63 4 -88 12l22 107c18 -6 40 -9 67 -9c99 0 152 77 152 168c0 69 -47 83 -107 83h-46l21 101h39
c80 0 135 66 135 140c0 52 -40 72 -94 72c-98 0 -141 -56 -160 -146l-109 -516h-130z" />
    <glyph glyph-name="agrave" unicode="&#xe0;" horiz-adv-x="671" 
d="M477 0l4 89c-37 -57 -90 -101 -187 -101c-123 0 -194 73 -194 201c0 179 80 363 287 363c103 0 151 -47 169 -109l39 97h110l-115 -540h-113zM233 214c0 -83 49 -116 120 -116c90 0 139 53 159 147l8 40c4 18 5 36 5 49c0 74 -40 108 -116 108
c-127 0 -176 -114 -176 -228zM501 625h-100l-150 150h158z" />
    <glyph glyph-name="aacute" unicode="&#xe1;" horiz-adv-x="671" 
d="M477 0l4 89c-37 -57 -90 -101 -187 -101c-123 0 -194 73 -194 201c0 179 80 363 287 363c103 0 151 -47 169 -109l39 97h110l-115 -540h-113zM233 214c0 -83 49 -116 120 -116c90 0 139 53 159 147l8 40c4 18 5 36 5 49c0 74 -40 108 -116 108
c-127 0 -176 -114 -176 -228zM401 625l124 150h158l-182 -150h-100z" />
    <glyph glyph-name="acircumflex" unicode="&#xe2;" horiz-adv-x="671" 
d="M477 0l4 89c-37 -57 -90 -101 -187 -101c-123 0 -194 73 -194 201c0 179 80 363 287 363c103 0 151 -47 169 -109l39 97h110l-115 -540h-113zM233 214c0 -83 49 -116 120 -116c90 0 139 53 159 147l8 40c4 18 5 36 5 49c0 74 -40 108 -116 108
c-127 0 -176 -114 -176 -228zM275 625l143 150h131l79 -150h-98l-55 86l-95 -86h-105z" />
    <glyph glyph-name="atilde" unicode="&#xe3;" horiz-adv-x="671" 
d="M477 0l4 89c-37 -57 -90 -101 -187 -101c-123 0 -194 73 -194 201c0 179 80 363 287 363c103 0 151 -47 169 -109l39 97h110l-115 -540h-113zM233 214c0 -83 49 -116 120 -116c90 0 139 53 159 147l8 40c4 18 5 36 5 49c0 74 -40 108 -116 108
c-127 0 -176 -114 -176 -228zM361 636l-69 12c4 75 45 116 101 116c27 0 50 -11 81 -25c33 -14 44 -21 62 -21c20 0 33 15 38 46l68 -13c-4 -72 -45 -115 -99 -115c-30 0 -45 5 -83 24c-28 13 -40 23 -59 23c-18 0 -34 -15 -40 -47z" />
    <glyph glyph-name="adieresis" unicode="&#xe4;" horiz-adv-x="671" 
d="M477 0l4 89c-37 -57 -90 -101 -187 -101c-123 0 -194 73 -194 201c0 179 80 363 287 363c103 0 151 -47 169 -109l39 97h110l-115 -540h-113zM233 214c0 -83 49 -116 120 -116c90 0 139 53 159 147l8 40c4 18 5 36 5 49c0 74 -40 108 -116 108
c-127 0 -176 -114 -176 -228zM366 634c-50 0 -72 22 -72 66s22 66 72 66c49 0 72 -22 72 -66s-23 -66 -72 -66zM568 634c-50 0 -72 22 -72 66s22 66 72 66c49 0 72 -22 72 -66s-23 -66 -72 -66z" />
    <glyph glyph-name="aring" unicode="&#xe5;" horiz-adv-x="671" 
d="M477 0l4 89c-37 -57 -90 -101 -187 -101c-123 0 -194 73 -194 201c0 179 80 363 287 363c103 0 151 -47 169 -109l39 97h110l-115 -540h-113zM233 214c0 -83 49 -116 120 -116c90 0 139 53 159 147l8 40c4 18 5 36 5 49c0 74 -40 108 -116 108
c-127 0 -176 -114 -176 -228zM467 596c-65 0 -108 44 -108 104c0 61 43 104 108 104c64 0 108 -43 108 -104c0 -60 -44 -104 -108 -104zM467 654c27 0 46 19 46 46s-19 46 -46 46s-46 -19 -46 -46s19 -46 46 -46z" />
    <glyph glyph-name="ae" unicode="&#xe6;" horiz-adv-x="939" 
d="M676 237h-102c-2 -14 -2 -25 -2 -38c0 -73 46 -109 138 -109c76 0 158 29 206 68l-23 -112c-59 -42 -139 -58 -220 -58c-97 0 -165 36 -199 95c-66 -64 -125 -95 -228 -95c-93 0 -174 26 -174 133c0 138 104 196 274 196h113l7 28c3 10 5 24 5 36c0 48 -32 70 -101 70
c-73 0 -155 -29 -199 -59l27 122c59 27 130 38 225 38c84 0 130 -19 154 -59c52 40 122 59 200 59c131 0 198 -52 198 -143c0 -118 -111 -172 -299 -172zM754 451c-86 0 -142 -43 -164 -134h102c104 0 150 26 150 70c0 49 -36 64 -88 64zM346 238c-88 0 -137 -20 -137 -87
c0 -41 25 -61 80 -61c86 0 137 47 149 115l6 33h-98z" />
    <glyph glyph-name="ccedilla" unicode="&#xe7;" horiz-adv-x="560" 
d="M267 -98l32 88c-119 11 -199 80 -199 213c0 221 123 349 334 349c81 0 137 -19 166 -38l-29 -120c-29 24 -81 48 -145 48c-124 0 -193 -78 -193 -217c0 -76 51 -127 150 -127c62 0 117 24 159 53l-26 -115c-30 -19 -80 -41 -148 -47l-16 -40c51 -1 91 -18 91 -66
c0 -74 -74 -124 -148 -124c-36 0 -66 6 -88 16l22 57c17 -7 34 -12 56 -12c29 0 65 18 65 54c0 23 -25 29 -51 29c-8 0 -23 0 -32 -1z" />
    <glyph glyph-name="egrave" unicode="&#xe8;" horiz-adv-x="595" 
d="M338 -12c-161 0 -239 83 -239 209c0 207 121 355 324 355c155 0 208 -63 208 -144c0 -88 -63 -172 -295 -172h-105c-1 -9 -3 -22 -3 -36c0 -71 43 -110 140 -110c74 0 157 27 205 68l-23 -112c-38 -29 -122 -58 -212 -58zM351 314c122 0 147 37 147 75
c0 33 -17 61 -84 61c-95 0 -145 -47 -167 -136h104zM480 625h-100l-150 150h158z" />
    <glyph glyph-name="eacute" unicode="&#xe9;" horiz-adv-x="595" 
d="M338 -12c-161 0 -239 83 -239 209c0 207 121 355 324 355c155 0 208 -63 208 -144c0 -88 -63 -172 -295 -172h-105c-1 -9 -3 -22 -3 -36c0 -71 43 -110 140 -110c74 0 157 27 205 68l-23 -112c-38 -29 -122 -58 -212 -58zM351 314c122 0 147 37 147 75
c0 33 -17 61 -84 61c-95 0 -145 -47 -167 -136h104zM380 625l124 150h158l-182 -150h-100z" />
    <glyph glyph-name="ecircumflex" unicode="&#xea;" horiz-adv-x="595" 
d="M338 -12c-161 0 -239 83 -239 209c0 207 121 355 324 355c155 0 208 -63 208 -144c0 -88 -63 -172 -295 -172h-105c-1 -9 -3 -22 -3 -36c0 -71 43 -110 140 -110c74 0 157 27 205 68l-23 -112c-38 -29 -122 -58 -212 -58zM351 314c122 0 147 37 147 75
c0 33 -17 61 -84 61c-95 0 -145 -47 -167 -136h104zM252 625l143 150h131l79 -150h-98l-55 86l-95 -86h-105z" />
    <glyph glyph-name="edieresis" unicode="&#xeb;" horiz-adv-x="595" 
d="M338 -12c-161 0 -239 83 -239 209c0 207 121 355 324 355c155 0 208 -63 208 -144c0 -88 -63 -172 -295 -172h-105c-1 -9 -3 -22 -3 -36c0 -71 43 -110 140 -110c74 0 157 27 205 68l-23 -112c-38 -29 -122 -58 -212 -58zM351 314c122 0 147 37 147 75
c0 33 -17 61 -84 61c-95 0 -145 -47 -167 -136h104zM345 634c-50 0 -72 22 -72 66s22 66 72 66c49 0 72 -22 72 -66s-23 -66 -72 -66zM547 634c-50 0 -72 22 -72 66s22 66 72 66c49 0 72 -22 72 -66s-23 -66 -72 -66z" />
    <glyph glyph-name="igrave" unicode="&#xec;" horiz-adv-x="308" 
d="M219 0h-130l115 540h130zM337 625h-100l-150 150h158z" />
    <glyph glyph-name="iacute" unicode="&#xed;" horiz-adv-x="308" 
d="M219 0h-130l115 540h130zM237 625l124 150h158l-182 -150h-100z" />
    <glyph glyph-name="icircumflex" unicode="&#xee;" horiz-adv-x="308" 
d="M219 0h-130l115 540h130zM110 625l143 150h131l79 -150h-98l-55 86l-95 -86h-105z" />
    <glyph glyph-name="idieresis" unicode="&#xef;" horiz-adv-x="308" 
d="M219 0h-130l115 540h130zM203 634c-50 0 -72 22 -72 66s22 66 72 66c49 0 72 -22 72 -66s-23 -66 -72 -66zM405 634c-50 0 -72 22 -72 66s22 66 72 66c49 0 72 -22 72 -66s-23 -66 -72 -66z" />
    <glyph glyph-name="eth" unicode="&#xf0;" horiz-adv-x="638" 
d="M311 559l-19 55l98 45c-36 20 -77 34 -122 43l63 85c70 -14 130 -39 179 -74l147 67l19 -54l-117 -54c66 -67 103 -158 103 -268c0 -253 -140 -416 -353 -416c-141 0 -216 63 -216 185c0 203 128 349 307 349c49 0 99 -17 131 -62l4 2c-6 61 -38 116 -89 159zM338 98
c103 0 181 95 181 222c0 64 -39 99 -111 99c-107 0 -182 -91 -182 -219c0 -68 42 -102 112 -102z" />
    <glyph glyph-name="ntilde" unicode="&#xf1;" horiz-adv-x="658" 
d="M81 0l115 540h113l-2 -83c47 68 117 95 199 95c104 0 161 -35 161 -127c0 -19 -3 -42 -8 -68l-76 -357h-130l67 316c4 22 7 41 7 56c0 53 -29 70 -97 70c-86 0 -136 -45 -153 -130l-66 -312h-130zM375 636l-69 12c4 75 45 116 101 116c27 0 50 -11 81 -25
c33 -14 44 -21 62 -21c20 0 33 15 38 46l68 -13c-4 -72 -45 -115 -99 -115c-30 0 -45 5 -83 24c-28 13 -40 23 -59 23c-18 0 -34 -15 -40 -47z" />
    <glyph glyph-name="ograve" unicode="&#xf2;" horiz-adv-x="650" 
d="M100 209c0 197 117 343 327 343c128 0 236 -64 236 -213c0 -207 -107 -351 -317 -351c-163 0 -246 89 -246 221zM234 219c0 -73 35 -121 124 -121c122 0 171 126 171 232c0 74 -40 112 -115 112c-118 0 -180 -102 -180 -223zM507 625h-100l-150 150h158z" />
    <glyph glyph-name="oacute" unicode="&#xf3;" horiz-adv-x="650" 
d="M100 209c0 197 117 343 327 343c128 0 236 -64 236 -213c0 -207 -107 -351 -317 -351c-163 0 -246 89 -246 221zM234 219c0 -73 35 -121 124 -121c122 0 171 126 171 232c0 74 -40 112 -115 112c-118 0 -180 -102 -180 -223zM407 625l124 150h158l-182 -150h-100z" />
    <glyph glyph-name="ocircumflex" unicode="&#xf4;" horiz-adv-x="650" 
d="M100 209c0 197 117 343 327 343c128 0 236 -64 236 -213c0 -207 -107 -351 -317 -351c-163 0 -246 89 -246 221zM234 219c0 -73 35 -121 124 -121c122 0 171 126 171 232c0 74 -40 112 -115 112c-118 0 -180 -102 -180 -223zM281 625l143 150h131l79 -150h-98l-55 86
l-95 -86h-105z" />
    <glyph glyph-name="otilde" unicode="&#xf5;" horiz-adv-x="650" 
d="M100 209c0 197 117 343 327 343c128 0 236 -64 236 -213c0 -207 -107 -351 -317 -351c-163 0 -246 89 -246 221zM234 219c0 -73 35 -121 124 -121c122 0 171 126 171 232c0 74 -40 112 -115 112c-118 0 -180 -102 -180 -223zM367 636l-69 12c4 75 45 116 101 116
c27 0 50 -11 81 -25c33 -14 44 -21 62 -21c20 0 33 15 38 46l68 -13c-4 -72 -45 -115 -99 -115c-30 0 -45 5 -83 24c-28 13 -40 23 -59 23c-18 0 -34 -15 -40 -47z" />
    <glyph glyph-name="odieresis" unicode="&#xf6;" horiz-adv-x="650" 
d="M100 209c0 197 117 343 327 343c128 0 236 -64 236 -213c0 -207 -107 -351 -317 -351c-163 0 -246 89 -246 221zM234 219c0 -73 35 -121 124 -121c122 0 171 126 171 232c0 74 -40 112 -115 112c-118 0 -180 -102 -180 -223zM372 634c-50 0 -72 22 -72 66s22 66 72 66
c49 0 72 -22 72 -66s-23 -66 -72 -66zM574 634c-50 0 -72 22 -72 66s22 66 72 66c49 0 72 -22 72 -66s-23 -66 -72 -66z" />
    <glyph glyph-name="divide" unicode="&#xf7;" 
d="M154 382h448v-110h-448v110zM378 52c-58 0 -85 27 -85 83c0 55 27 82 85 82c57 0 85 -27 85 -82c0 -56 -28 -83 -85 -83zM378 437c-58 0 -85 27 -85 83c0 55 27 82 85 82c57 0 85 -27 85 -82c0 -56 -28 -83 -85 -83z" />
    <glyph glyph-name="oslash" unicode="&#xf8;" horiz-adv-x="650" 
d="M100 209c0 197 117 343 327 343c60 0 110 -14 149 -39l70 72l47 -40l-71 -73c27 -33 41 -76 41 -133c0 -207 -107 -351 -317 -351c-65 0 -116 14 -156 39l-73 -76l-46 40l74 76c-30 37 -45 86 -45 142zM529 330c0 16 -1 28 -5 41l-246 -254c19 -12 45 -19 80 -19
c122 0 171 126 171 232zM234 219c0 -19 2 -38 7 -53l249 258c-20 12 -47 18 -76 18c-118 0 -180 -102 -180 -223z" />
    <glyph glyph-name="ugrave" unicode="&#xf9;" horiz-adv-x="649" 
d="M256 -12c-100 0 -149 41 -149 126c0 21 2 44 8 70l76 356h130l-69 -326c-4 -17 -6 -32 -6 -46c0 -49 28 -70 91 -70c84 0 131 44 149 131l67 311h130l-115 -540h-113v85c-49 -67 -112 -97 -199 -97zM505 625h-100l-150 150h158z" />
    <glyph glyph-name="uacute" unicode="&#xfa;" horiz-adv-x="649" 
d="M256 -12c-100 0 -149 41 -149 126c0 21 2 44 8 70l76 356h130l-69 -326c-4 -17 -6 -32 -6 -46c0 -49 28 -70 91 -70c84 0 131 44 149 131l67 311h130l-115 -540h-113v85c-49 -67 -112 -97 -199 -97zM405 625l124 150h158l-182 -150h-100z" />
    <glyph glyph-name="ucircumflex" unicode="&#xfb;" horiz-adv-x="649" 
d="M256 -12c-100 0 -149 41 -149 126c0 21 2 44 8 70l76 356h130l-69 -326c-4 -17 -6 -32 -6 -46c0 -49 28 -70 91 -70c84 0 131 44 149 131l67 311h130l-115 -540h-113v85c-49 -67 -112 -97 -199 -97zM279 625l143 150h131l79 -150h-98l-55 86l-95 -86h-105z" />
    <glyph glyph-name="udieresis" unicode="&#xfc;" horiz-adv-x="649" 
d="M256 -12c-100 0 -149 41 -149 126c0 21 2 44 8 70l76 356h130l-69 -326c-4 -17 -6 -32 -6 -46c0 -49 28 -70 91 -70c84 0 131 44 149 131l67 311h130l-115 -540h-113v85c-49 -67 -112 -97 -199 -97zM369 634c-50 0 -72 22 -72 66s22 66 72 66c49 0 72 -22 72 -66
s-23 -66 -72 -66zM571 634c-50 0 -72 22 -72 66s22 66 72 66c49 0 72 -22 72 -66s-23 -66 -72 -66z" />
    <glyph glyph-name="yacute" unicode="&#xfd;" horiz-adv-x="576" 
d="M76 -179l25 116c14 -9 36 -19 60 -19c35 0 57 24 86 79l-115 543h143l63 -384l195 384h139l-298 -535c-91 -161 -144 -197 -225 -197c-28 0 -58 5 -73 13zM371 625l124 150h158l-182 -150h-100z" />
    <glyph glyph-name="thorn" unicode="&#xfe;" horiz-adv-x="671" 
d="M42 -180l201 940h129l-66 -306c36 57 87 98 184 98c125 0 195 -72 195 -200c0 -179 -79 -364 -289 -364c-95 0 -150 47 -166 102l-58 -270h-130zM376 98c122 0 176 119 176 231c0 82 -48 113 -120 113c-88 0 -139 -59 -159 -147l-9 -40c-22 -100 35 -157 112 -157z" />
    <glyph glyph-name="ydieresis" unicode="&#xff;" horiz-adv-x="576" 
d="M76 -179l25 116c14 -9 36 -19 60 -19c35 0 57 24 86 79l-115 543h143l63 -384l195 384h139l-298 -535c-91 -161 -144 -197 -225 -197c-28 0 -58 5 -73 13zM336 634c-50 0 -72 22 -72 66s22 66 72 66c49 0 72 -22 72 -66s-23 -66 -72 -66zM538 634c-50 0 -72 22 -72 66
s22 66 72 66c49 0 72 -22 72 -66s-23 -66 -72 -66z" />
    <glyph glyph-name="Amacron" unicode="&#x100;" horiz-adv-x="688" 
d="M16 0l399 700h155l102 -700h-133l-22 163h-271l-90 -163h-140zM465 559l-157 -283h194zM358 796v88h330v-88h-330z" />
    <glyph glyph-name="amacron" unicode="&#x101;" horiz-adv-x="671" 
d="M477 0l4 89c-37 -57 -90 -101 -187 -101c-123 0 -194 73 -194 201c0 179 80 363 287 363c103 0 151 -47 169 -109l39 97h110l-115 -540h-113zM233 214c0 -83 49 -116 120 -116c90 0 139 53 159 147l8 40c4 18 5 36 5 49c0 74 -40 108 -116 108
c-127 0 -176 -114 -176 -228zM308 658v84h316v-84h-316z" />
    <glyph glyph-name="Abreve" unicode="&#x102;" horiz-adv-x="688" 
d="M16 0l399 700h155l102 -700h-133l-22 163h-271l-90 -163h-140zM465 559l-157 -283h194zM365 899l83 21c4 -50 29 -76 75 -76s81 26 108 76l74 -21c-44 -91 -111 -139 -200 -139s-136 48 -140 139z" />
    <glyph glyph-name="abreve" unicode="&#x103;" horiz-adv-x="671" 
d="M477 0l4 89c-37 -57 -90 -101 -187 -101c-123 0 -194 73 -194 201c0 179 80 363 287 363c103 0 151 -47 169 -109l39 97h110l-115 -540h-113zM233 214c0 -83 49 -116 120 -116c90 0 139 53 159 147l8 40c4 18 5 36 5 49c0 74 -40 108 -116 108
c-127 0 -176 -114 -176 -228zM309 759l81 21c5 -50 31 -78 77 -78s85 28 110 78l72 -21c-44 -91 -110 -139 -199 -139s-136 48 -141 139z" />
    <glyph glyph-name="Aogonek" unicode="&#x104;" horiz-adv-x="688" 
d="M535 -254c-77 0 -104 36 -104 78c0 79 76 140 141 176h-33l-22 163h-271l-90 -163h-140l399 700h155l102 -700h-27c-48 -28 -114 -83 -114 -144c0 -26 20 -40 50 -40c23 0 44 5 66 17l-14 -66c-25 -11 -58 -21 -98 -21zM465 559l-157 -283h194z" />
    <glyph glyph-name="aogonek" unicode="&#x105;" horiz-adv-x="671" 
d="M477 0l4 89c-37 -57 -90 -101 -187 -101c-123 0 -194 73 -194 201c0 179 80 363 287 363c103 0 151 -47 169 -109l39 97h110l-115 -540h-26c-46 -27 -106 -76 -106 -136c0 -24 17 -39 45 -39c21 0 42 5 63 16l-13 -62c-24 -10 -53 -20 -91 -20c-76 0 -102 37 -102 78
c0 73 70 130 132 163h-15zM233 214c0 -83 49 -116 120 -116c90 0 139 53 159 147l8 40c4 18 5 36 5 49c0 74 -40 108 -116 108c-127 0 -176 -114 -176 -228z" />
    <glyph glyph-name="Cacute" unicode="&#x106;" horiz-adv-x="650" 
d="M735 670l-28 -130c-47 33 -103 55 -178 55c-66 0 -114 -17 -156 -52c-68 -58 -109 -187 -109 -282c0 -107 65 -156 176 -156c84 0 153 28 192 51l-27 -130c-53 -22 -114 -38 -202 -38c-164 0 -283 71 -283 252c0 121 54 309 171 400c65 50 150 72 243 72
c88 0 157 -20 201 -42zM495 760l134 160h160l-192 -160h-102z" />
    <glyph glyph-name="cacute" unicode="&#x107;" horiz-adv-x="560" 
d="M542 151l-26 -115c-34 -22 -94 -48 -179 -48c-140 0 -237 69 -237 215c0 221 123 349 334 349c81 0 137 -19 166 -38l-29 -120c-29 24 -81 48 -145 48c-124 0 -193 -78 -193 -217c0 -76 51 -127 150 -127c62 0 117 24 159 53zM399 625l124 150h158l-182 -150h-100z" />
    <glyph glyph-name="Ccircumflex" unicode="&#x108;" horiz-adv-x="650" 
d="M735 670l-28 -130c-47 33 -103 55 -178 55c-66 0 -114 -17 -156 -52c-68 -58 -109 -187 -109 -282c0 -107 65 -156 176 -156c84 0 153 28 192 51l-27 -130c-53 -22 -114 -38 -202 -38c-164 0 -283 71 -283 252c0 121 54 309 171 400c65 50 150 72 243 72
c88 0 157 -20 201 -42zM355 760l155 160h134l87 -160h-98l-64 96l-108 -96h-106z" />
    <glyph glyph-name="ccircumflex" unicode="&#x109;" horiz-adv-x="560" 
d="M542 151l-26 -115c-34 -22 -94 -48 -179 -48c-140 0 -237 69 -237 215c0 221 123 349 334 349c81 0 137 -19 166 -38l-29 -120c-29 24 -81 48 -145 48c-124 0 -193 -78 -193 -217c0 -76 51 -127 150 -127c62 0 117 24 159 53zM272 625l143 150h131l79 -150h-98l-55 86
l-95 -86h-105z" />
    <glyph glyph-name="Cdotaccent" unicode="&#x10a;" horiz-adv-x="650" 
d="M735 670l-28 -130c-47 33 -103 55 -178 55c-66 0 -114 -17 -156 -52c-68 -58 -109 -187 -109 -282c0 -107 65 -156 176 -156c84 0 153 28 192 51l-27 -130c-53 -22 -114 -38 -202 -38c-164 0 -283 71 -283 252c0 121 54 309 171 400c65 50 150 72 243 72
c88 0 157 -20 201 -42zM561 769c-52 0 -76 25 -76 71s24 71 76 71s76 -25 76 -71s-24 -71 -76 -71z" />
    <glyph glyph-name="cdotaccent" unicode="&#x10b;" horiz-adv-x="560" 
d="M542 151l-26 -115c-34 -22 -94 -48 -179 -48c-140 0 -237 69 -237 215c0 221 123 349 334 349c81 0 137 -19 166 -38l-29 -120c-29 24 -81 48 -145 48c-124 0 -193 -78 -193 -217c0 -76 51 -127 150 -127c62 0 117 24 159 53zM466 631c-54 0 -79 26 -79 69s25 69 79 69
c53 0 79 -26 79 -69s-26 -69 -79 -69z" />
    <glyph glyph-name="Ccaron" unicode="&#x10c;" horiz-adv-x="650" 
d="M735 670l-28 -130c-47 33 -103 55 -178 55c-66 0 -114 -17 -156 -52c-68 -58 -109 -187 -109 -282c0 -107 65 -156 176 -156c84 0 153 28 192 51l-27 -130c-53 -22 -114 -38 -202 -38c-164 0 -283 71 -283 252c0 121 54 309 171 400c65 50 150 72 243 72
c88 0 157 -20 201 -42zM476 760l-87 160h98l66 -97l107 97h105l-155 -160h-134z" />
    <glyph glyph-name="ccaron" unicode="&#x10d;" horiz-adv-x="560" 
d="M542 151l-26 -115c-34 -22 -94 -48 -179 -48c-140 0 -237 69 -237 215c0 221 123 349 334 349c81 0 137 -19 166 -38l-29 -120c-29 24 -81 48 -145 48c-124 0 -193 -78 -193 -217c0 -76 51 -127 150 -127c62 0 117 24 159 53zM385 625l-79 150h98l56 -87l95 87h105
l-145 -150h-130z" />
    <glyph glyph-name="Dcaron" unicode="&#x10e;" horiz-adv-x="755" 
d="M304 -6c-84 0 -146 4 -208 9l148 697c77 5 138 6 231 6c189 0 302 -85 302 -257c0 -151 -47 -280 -125 -352c-81 -74 -185 -103 -348 -103zM253 116c29 -3 49 -5 78 -5c85 0 152 14 200 51c60 46 102 144 102 263c0 111 -59 164 -184 164c-35 0 -64 0 -96 -3zM437 760
l-87 160h98l66 -97l107 97h105l-155 -160h-134z" />
    <glyph glyph-name="dcaron" unicode="&#x10f;" horiz-adv-x="772" 
d="M476 0l5 89c-36 -57 -89 -101 -186 -101c-124 0 -196 72 -196 204c0 181 80 360 289 360c102 0 151 -42 166 -102l67 310h130l-162 -760h-113zM232 217c0 -86 49 -119 122 -119c88 0 138 54 157 147l8 40c20 100 -22 157 -110 157c-129 0 -177 -113 -177 -225zM790 543
l100 214h122l-134 -214h-88z" />
    <glyph glyph-name="Dcroat" unicode="&#x110;" horiz-adv-x="765" 
d="M88 313l20 94h84l62 293c77 5 138 6 231 6c189 0 302 -85 302 -257c0 -151 -47 -280 -125 -352c-81 -74 -185 -103 -348 -103c-84 0 -146 4 -208 9l66 310h-84zM263 116c29 -3 49 -5 78 -5c85 0 152 14 200 51c60 46 102 144 102 263c0 111 -59 164 -184 164
c-35 0 -64 0 -96 -3l-38 -179h150l-19 -94h-151z" />
    <glyph glyph-name="dcroat" unicode="&#x111;" horiz-adv-x="670" 
d="M390 593l19 88h195l17 79h130l-17 -79h86l-19 -88h-86l-126 -593h-113l5 89c-36 -57 -89 -101 -186 -101c-124 0 -196 72 -196 204c0 181 80 360 289 360c102 0 151 -42 166 -102l31 143h-195zM232 217c0 -86 49 -119 122 -119c88 0 138 54 157 147l8 40
c20 100 -22 157 -110 157c-129 0 -177 -113 -177 -225z" />
    <glyph glyph-name="Emacron" unicode="&#x112;" horiz-adv-x="622" 
d="M96 0l147 700h467l-25 -117h-331l-36 -171h295l-24 -110h-296l-39 -185h332l-25 -117h-465zM341 796v88h330v-88h-330z" />
    <glyph glyph-name="emacron" unicode="&#x113;" horiz-adv-x="595" 
d="M338 -12c-161 0 -239 83 -239 209c0 207 121 355 324 355c155 0 208 -63 208 -144c0 -88 -63 -172 -295 -172h-105c-1 -9 -3 -22 -3 -36c0 -71 43 -110 140 -110c74 0 157 27 205 68l-23 -112c-38 -29 -122 -58 -212 -58zM351 314c122 0 147 37 147 75
c0 33 -17 61 -84 61c-95 0 -145 -47 -167 -136h104zM287 658v84h316v-84h-316z" />
    <glyph glyph-name="Edotaccent" unicode="&#x116;" horiz-adv-x="622" 
d="M96 0l147 700h467l-25 -117h-331l-36 -171h295l-24 -110h-296l-39 -185h332l-25 -117h-465zM506 769c-52 0 -76 25 -76 71s24 71 76 71s76 -25 76 -71s-24 -71 -76 -71z" />
    <glyph glyph-name="edotaccent" unicode="&#x117;" horiz-adv-x="595" 
d="M338 -12c-161 0 -239 83 -239 209c0 207 121 355 324 355c155 0 208 -63 208 -144c0 -88 -63 -172 -295 -172h-105c-1 -9 -3 -22 -3 -36c0 -71 43 -110 140 -110c74 0 157 27 205 68l-23 -112c-38 -29 -122 -58 -212 -58zM351 314c122 0 147 37 147 75
c0 33 -17 61 -84 61c-95 0 -145 -47 -167 -136h104zM446 631c-54 0 -79 26 -79 69s25 69 79 69c53 0 79 -26 79 -69s-26 -69 -79 -69z" />
    <glyph glyph-name="Eogonek" unicode="&#x118;" horiz-adv-x="622" 
d="M96 0l149 700h465l-24 -117h-332l-36 -171h295l-24 -110h-296l-39 -185h332l-25 -117h-38c-48 -28 -114 -83 -114 -144c0 -26 20 -40 50 -40c23 0 44 5 66 17l-14 -66c-25 -11 -58 -21 -98 -21c-77 0 -104 36 -104 78c0 79 76 140 141 176h-354z" />
    <glyph glyph-name="eogonek" unicode="&#x119;" horiz-adv-x="595" 
d="M327 -241c-76 0 -102 37 -102 78c0 65 55 117 111 151c-160 1 -237 83 -237 209c0 207 121 355 324 355c155 0 208 -63 208 -144c0 -88 -63 -172 -295 -172h-105c-1 -9 -3 -22 -3 -36c0 -71 43 -110 140 -110c74 0 157 27 205 68l-23 -112c-26 -20 -72 -40 -127 -50
c-46 -28 -100 -75 -100 -132c0 -24 17 -39 45 -39c21 0 42 5 63 16l-13 -62c-24 -10 -53 -20 -91 -20zM351 314c122 0 147 37 147 75c0 33 -17 61 -84 61c-95 0 -145 -47 -167 -136h104z" />
    <glyph glyph-name="Ecaron" unicode="&#x11a;" horiz-adv-x="622" 
d="M96 0l147 700h467l-25 -117h-331l-36 -171h295l-24 -110h-296l-39 -185h332l-25 -117h-465zM423 760l-87 160h98l66 -97l107 97h105l-155 -160h-134z" />
    <glyph glyph-name="ecaron" unicode="&#x11b;" horiz-adv-x="595" 
d="M338 -12c-161 0 -239 83 -239 209c0 207 121 355 324 355c155 0 208 -63 208 -144c0 -88 -63 -172 -295 -172h-105c-1 -9 -3 -22 -3 -36c0 -71 43 -110 140 -110c74 0 157 27 205 68l-23 -112c-38 -29 -122 -58 -212 -58zM351 314c122 0 147 37 147 75
c0 33 -17 61 -84 61c-95 0 -145 -47 -167 -136h104zM365 625l-79 150h98l56 -87l95 87h105l-145 -150h-130z" />
    <glyph glyph-name="Gcircumflex" unicode="&#x11c;" horiz-adv-x="708" 
d="M428 -12c-191 0 -305 80 -305 271c0 145 70 307 166 380c74 56 155 73 266 73c85 0 167 -25 201 -43l-28 -128c-38 27 -111 54 -186 54c-67 0 -121 -12 -169 -52c-62 -51 -106 -172 -106 -267c0 -129 68 -171 182 -171c46 0 85 8 114 17l32 151h-139l24 110h257l-73 -345
c-38 -18 -127 -50 -236 -50zM371 760l155 160h134l87 -160h-98l-64 96l-108 -96h-106z" />
    <glyph glyph-name="gcircumflex" unicode="&#x11d;" horiz-adv-x="669" 
d="M260 -202c-88 0 -157 17 -193 34l27 124c27 -22 89 -50 189 -50c117 0 171 57 188 140l15 76c-36 -57 -87 -104 -185 -104c-124 0 -199 59 -199 197c0 157 77 337 287 337c102 0 150 -43 166 -102l38 90h110l-103 -486c-39 -182 -150 -256 -340 -256zM360 126
c97 0 140 65 153 129l8 40c21 100 -23 149 -112 149c-124 0 -168 -99 -168 -204c0 -79 42 -114 119 -114zM272 625l143 150h131l79 -150h-98l-55 86l-95 -86h-105z" />
    <glyph glyph-name="Gbreve" unicode="&#x11e;" horiz-adv-x="708" 
d="M428 -12c-191 0 -305 80 -305 271c0 145 70 307 166 380c74 56 155 73 266 73c85 0 167 -25 201 -43l-28 -128c-38 27 -111 54 -186 54c-67 0 -121 -12 -169 -52c-62 -51 -106 -172 -106 -267c0 -129 68 -171 182 -171c46 0 85 8 114 17l32 151h-139l24 110h257l-73 -345
c-38 -18 -127 -50 -236 -50zM419 899l83 21c4 -50 29 -76 75 -76s81 26 108 76l74 -21c-44 -91 -111 -139 -200 -139s-136 48 -140 139z" />
    <glyph glyph-name="gbreve" unicode="&#x11f;" horiz-adv-x="669" 
d="M260 -202c-88 0 -157 17 -193 34l27 124c27 -22 89 -50 189 -50c117 0 171 57 188 140l15 76c-36 -57 -87 -104 -185 -104c-124 0 -199 59 -199 197c0 157 77 337 287 337c102 0 150 -43 166 -102l38 90h110l-103 -486c-39 -182 -150 -256 -340 -256zM360 126
c97 0 140 65 153 129l8 40c21 100 -23 149 -112 149c-124 0 -168 -99 -168 -204c0 -79 42 -114 119 -114zM306 759l81 21c5 -50 31 -78 77 -78s85 28 110 78l72 -21c-44 -91 -110 -139 -199 -139s-136 48 -141 139z" />
    <glyph glyph-name="Gdotaccent" unicode="&#x120;" horiz-adv-x="708" 
d="M428 -12c-191 0 -305 80 -305 271c0 145 70 307 166 380c74 56 155 73 266 73c85 0 167 -25 201 -43l-28 -128c-38 27 -111 54 -186 54c-67 0 -121 -12 -169 -52c-62 -51 -106 -172 -106 -267c0 -129 68 -171 182 -171c46 0 85 8 114 17l32 151h-139l24 110h257l-73 -345
c-38 -18 -127 -50 -236 -50zM577 769c-52 0 -76 25 -76 71s24 71 76 71s76 -25 76 -71s-24 -71 -76 -71z" />
    <glyph glyph-name="gdotaccent" unicode="&#x121;" horiz-adv-x="669" 
d="M260 -202c-88 0 -157 17 -193 34l27 124c27 -22 89 -50 189 -50c117 0 171 57 188 140l15 76c-36 -57 -87 -104 -185 -104c-124 0 -199 59 -199 197c0 157 77 337 287 337c102 0 150 -43 166 -102l38 90h110l-103 -486c-39 -182 -150 -256 -340 -256zM360 126
c97 0 140 65 153 129l8 40c21 100 -23 149 -112 149c-124 0 -168 -99 -168 -204c0 -79 42 -114 119 -114zM466 631c-54 0 -79 26 -79 69s25 69 79 69c53 0 79 -26 79 -69s-26 -69 -79 -69z" />
    <glyph glyph-name="Gcommaaccent" unicode="&#x122;" horiz-adv-x="708" 
d="M428 -12c-191 0 -305 80 -305 271c0 145 70 307 166 380c74 56 155 73 266 73c85 0 167 -25 201 -43l-28 -128c-38 27 -111 54 -186 54c-67 0 -121 -12 -169 -52c-62 -51 -106 -172 -106 -267c0 -129 68 -171 182 -171c46 0 85 8 114 17l32 151h-139l24 110h257l-73 -345
c-38 -18 -127 -50 -236 -50zM278 -246l11 50c42 3 75 14 86 48c-6 -1 -12 -1 -17 -1c-42 0 -64 14 -64 40c0 46 45 62 93 62c41 0 69 -19 69 -57c0 -76 -73 -138 -178 -142z" />
    <glyph glyph-name="gcommaaccent" unicode="&#x123;" horiz-adv-x="669" 
d="M260 -202c-88 0 -157 17 -193 34l27 124c27 -22 89 -50 189 -50c117 0 171 57 188 140l15 76c-36 -57 -87 -104 -185 -104c-124 0 -199 59 -199 197c0 157 77 337 287 337c102 0 150 -43 166 -102l38 90h110l-103 -486c-39 -182 -150 -256 -340 -256zM360 126
c97 0 140 65 153 129l8 40c21 100 -23 149 -112 149c-124 0 -168 -99 -168 -204c0 -79 42 -114 119 -114zM553 817l-7 -47c-40 -3 -73 -16 -83 -49c7 1 13 1 18 1c37 0 59 -13 59 -40c0 -41 -51 -57 -89 -57c-39 0 -65 17 -65 59c0 85 94 129 167 133z" />
    <glyph glyph-name="Hcircumflex" unicode="&#x124;" horiz-adv-x="788" 
d="M96 0l149 700h134l-60 -282h328l60 282h134l-149 -700h-134l64 302h-328l-64 -302h-134zM367 760l155 160h134l87 -160h-98l-64 96l-108 -96h-106z" />
    <glyph glyph-name="hcircumflex" unicode="&#x125;" horiz-adv-x="658" 
d="M81 0l162 760h131l-66 -304c42 62 106 96 198 96c110 0 161 -41 161 -126c0 -22 -3 -44 -9 -71l-75 -355h-130l69 326c4 18 5 34 5 47c0 51 -30 69 -96 69c-90 0 -137 -47 -154 -130l-66 -312h-130zM137 785l143 150h131l79 -150h-98l-55 86l-95 -86h-105z" />
    <glyph glyph-name="Hbar" unicode="&#x126;" horiz-adv-x="814" 
d="M130 503l20 94h85l22 103h134l-22 -103h328l22 103h134l-22 -103h86l-20 -94h-86l-107 -503h-134l64 302h-328l-64 -302h-134l107 503h-85zM331 418h328l18 85h-328z" />
    <glyph glyph-name="hbar" unicode="&#x127;" horiz-adv-x="658" 
d="M122 593l19 88h85l17 79h131l-18 -79h196l-19 -88h-196l-29 -137c42 62 106 96 198 96c110 0 161 -41 161 -126c0 -22 -3 -44 -9 -71l-75 -355h-130l69 326c4 18 5 34 5 47c0 51 -30 69 -96 69c-90 0 -137 -47 -154 -130l-66 -312h-130l126 593h-85z" />
    <glyph glyph-name="Imacron" unicode="&#x12a;" horiz-adv-x="336" 
d="M101 0l149 700h134l-149 -700h-134zM183 796v88h330v-88h-330z" />
    <glyph glyph-name="imacron" unicode="&#x12b;" horiz-adv-x="308" 
d="M219 0h-130l115 540h130zM144 658v84h316v-84h-316z" />
    <glyph glyph-name="Iogonek" unicode="&#x12e;" horiz-adv-x="336" 
d="M101 0l149 700h134l-149 -700h-30c-48 -28 -114 -83 -114 -144c0 -26 20 -40 50 -40c23 0 44 5 66 17l-14 -66c-25 -11 -58 -21 -98 -21c-77 0 -104 36 -104 78c0 79 76 140 141 176h-31z" />
    <glyph glyph-name="iogonek" unicode="&#x12f;" horiz-adv-x="308" 
d="M89 -241c-76 0 -102 37 -102 78c0 73 70 130 132 163h-30l115 540h130l-115 -540h-28c-46 -27 -106 -76 -106 -136c0 -24 17 -39 45 -39c21 0 42 5 63 16l-13 -62c-24 -10 -53 -20 -91 -20zM302 631c-54 0 -79 26 -79 69s25 69 79 69c53 0 79 -26 79 -69s-26 -69 -79 -69
z" />
    <glyph glyph-name="Idotaccent" unicode="&#x130;" horiz-adv-x="336" 
d="M101 0l149 700h134l-149 -700h-134zM346 769c-52 0 -76 25 -76 71s24 71 76 71s76 -25 76 -71s-24 -71 -76 -71z" />
    <glyph glyph-name="dotlessi" unicode="&#x131;" horiz-adv-x="308" 
d="M219 0h-130l115 540h130z" />
    <glyph glyph-name="Jcircumflex" unicode="&#x134;" horiz-adv-x="439" 
d="M150 -6c-43 0 -85 11 -121 28l26 125c32 -23 59 -36 94 -36c59 0 90 29 106 106l103 484h134l-107 -501c-31 -148 -99 -206 -235 -206zM249 760l155 160h134l87 -160h-98l-64 96l-108 -96h-106z" />
    <glyph glyph-name="jcircumflex" unicode="&#x135;" horiz-adv-x="308" 
d="M-68 -173l24 111c13 -8 33 -13 57 -13c43 0 63 18 73 64l118 551h130l-118 -553c-27 -123 -84 -173 -198 -173c-45 0 -73 7 -86 13zM110 625l143 150h131l79 -150h-98l-55 86l-95 -86h-105z" />
    <glyph glyph-name="Kcommaaccent" unicode="&#x136;" horiz-adv-x="715" 
d="M545 0l-175 298h-77l-63 -298h-134l148 700h134l-61 -285h62l276 285h160l-336 -341l212 -359h-146zM273 -246l11 50c42 3 75 14 86 48c-6 -1 -12 -1 -17 -1c-42 0 -64 14 -64 40c0 46 45 62 93 62c41 0 69 -19 69 -57c0 -76 -73 -138 -178 -142z" />
    <glyph glyph-name="kcommaaccent" unicode="&#x137;" horiz-adv-x="610" 
d="M81 0l161 760h130l-90 -425h45l194 205h160l-257 -265l163 -275h-152l-132 225h-44l-48 -225h-130zM212 -239l7 47c40 3 73 16 83 49c-7 -1 -13 -1 -18 -1c-37 0 -59 13 -59 40c0 41 51 57 89 57c39 0 65 -17 65 -59c0 -85 -94 -129 -167 -133z" />
    <glyph glyph-name="Lacute" unicode="&#x139;" horiz-adv-x="576" 
d="M96 0l149 700h134l-125 -583h318l-24 -117h-452zM272 760l134 160h160l-192 -160h-102z" />
    <glyph glyph-name="lacute" unicode="&#x13a;" horiz-adv-x="356" 
d="M236 -6c-84 0 -132 26 -132 94c0 15 3 32 6 51l132 621h130l-126 -597c-3 -10 -4 -19 -4 -25c0 -27 15 -34 47 -34c21 0 41 4 63 11l-23 -105c-16 -7 -51 -16 -93 -16zM257 778l124 150h158l-182 -150h-100z" />
    <glyph glyph-name="Lcommaaccent" unicode="&#x13b;" horiz-adv-x="576" 
d="M96 0l149 700h134l-125 -583h318l-24 -117h-452zM202 -246l11 50c42 3 75 14 86 48c-6 -1 -12 -1 -17 -1c-42 0 -64 14 -64 40c0 46 45 62 93 62c41 0 69 -19 69 -57c0 -76 -73 -138 -178 -142z" />
    <glyph glyph-name="lcommaaccent" unicode="&#x13c;" horiz-adv-x="356" 
d="M236 -6c-84 0 -132 26 -132 94c0 15 3 32 6 51l132 621h130l-126 -597c-3 -10 -4 -19 -4 -25c0 -27 15 -34 47 -34c21 0 41 4 63 11l-23 -105c-16 -7 -51 -16 -93 -16zM90 -239l7 47c40 3 73 16 83 49c-7 -1 -13 -1 -18 -1c-37 0 -59 13 -59 40c0 41 51 57 89 57
c39 0 65 -17 65 -59c0 -85 -94 -129 -167 -133z" />
    <glyph glyph-name="Lcaron" unicode="&#x13d;" horiz-adv-x="576" 
d="M96 0l149 700h134l-125 -583h318l-24 -117h-452zM419 486l100 214h122l-134 -214h-88z" />
    <glyph glyph-name="lcaron" unicode="&#x13e;" horiz-adv-x="393" 
d="M236 -6c-84 0 -132 26 -132 94c0 15 3 32 6 51l132 621h130l-126 -597c-3 -10 -4 -19 -4 -25c0 -27 15 -34 47 -34c21 0 41 4 63 11l-23 -105c-16 -7 -51 -16 -93 -16zM411 543l100 214h122l-134 -214h-88z" />
    <glyph glyph-name="Ldot" unicode="&#x13f;" horiz-adv-x="576" 
d="M96 0l149 700h134l-125 -583h318l-24 -117h-452zM532 296c-58 0 -85 27 -85 83c0 55 27 83 85 83c57 0 85 -28 85 -83c0 -56 -28 -83 -85 -83z" />
    <glyph glyph-name="ldot" unicode="&#x140;" horiz-adv-x="414" 
d="M236 -6c-84 0 -132 26 -132 94c0 15 3 32 6 51l132 621h130l-126 -597c-3 -10 -4 -19 -4 -25c0 -27 15 -34 47 -34c21 0 41 4 63 11l-23 -105c-16 -7 -51 -16 -93 -16zM434 297c-58 0 -85 27 -85 83c0 55 27 83 85 83c57 0 85 -28 85 -83c0 -56 -28 -83 -85 -83z" />
    <glyph glyph-name="Lslash" unicode="&#x141;" horiz-adv-x="590" 
d="M74 235l22 103l96 50l67 312h134l-51 -235l159 82l-22 -103l-159 -82l-52 -245h318l-24 -117h-452l60 285z" />
    <glyph glyph-name="lslash" unicode="&#x142;" horiz-adv-x="398" 
d="M78 257l21 98l110 56l75 349h130l-58 -273l116 60l-20 -99l-117 -60l-48 -225c-2 -10 -4 -19 -4 -25c0 -27 15 -34 47 -34c21 0 41 4 63 11l-23 -105c-16 -7 -51 -16 -93 -16c-84 0 -132 26 -132 94c0 15 2 32 6 51l37 174z" />
    <glyph glyph-name="Nacute" unicode="&#x143;" horiz-adv-x="786" 
d="M97 0l148 700h138l176 -417c16 -38 31 -69 43 -111c3 42 7 72 15 112l88 416h134l-148 -700h-138l-177 416c-16 40 -28 70 -39 112c-5 -42 -9 -72 -18 -112l-88 -416h-134zM504 760l134 160h160l-192 -160h-102z" />
    <glyph glyph-name="nacute" unicode="&#x144;" horiz-adv-x="658" 
d="M81 0l115 540h113l-2 -83c47 68 117 95 199 95c104 0 161 -35 161 -127c0 -19 -3 -42 -8 -68l-76 -357h-130l67 316c4 22 7 41 7 56c0 53 -29 70 -97 70c-86 0 -136 -45 -153 -130l-66 -312h-130zM415 625l124 150h158l-182 -150h-100z" />
    <glyph glyph-name="Ncommaaccent" unicode="&#x145;" horiz-adv-x="786" 
d="M97 0l148 700h138l176 -417c16 -38 31 -69 43 -111c3 42 7 72 15 112l88 416h134l-148 -700h-138l-177 416c-16 40 -28 70 -39 112c-5 -42 -9 -72 -18 -112l-88 -416h-134zM273 -246l11 50c42 3 75 14 86 48c-6 -1 -12 -1 -17 -1c-42 0 -64 14 -64 40c0 46 45 62 93 62
c41 0 69 -19 69 -57c0 -76 -73 -138 -178 -142z" />
    <glyph glyph-name="ncommaaccent" unicode="&#x146;" horiz-adv-x="658" 
d="M81 0l115 540h113l-2 -83c47 68 117 95 199 95c104 0 161 -35 161 -127c0 -19 -3 -42 -8 -68l-76 -357h-130l67 316c4 22 7 41 7 56c0 53 -29 70 -97 70c-86 0 -136 -45 -153 -130l-66 -312h-130zM219 -239l7 47c40 3 73 16 83 49c-7 -1 -13 -1 -18 -1
c-37 0 -59 13 -59 40c0 41 51 57 89 57c39 0 65 -17 65 -59c0 -85 -94 -129 -167 -133z" />
    <glyph glyph-name="Ncaron" unicode="&#x147;" horiz-adv-x="786" 
d="M97 0l148 700h138l176 -417c16 -38 31 -69 43 -111c3 42 7 72 15 112l88 416h134l-148 -700h-138l-177 416c-16 40 -28 70 -39 112c-5 -42 -9 -72 -18 -112l-88 -416h-134zM488 760l-87 160h98l66 -97l107 97h105l-155 -160h-134z" />
    <glyph glyph-name="ncaron" unicode="&#x148;" horiz-adv-x="658" 
d="M81 0l115 540h113l-2 -83c47 68 117 95 199 95c104 0 161 -35 161 -127c0 -19 -3 -42 -8 -68l-76 -357h-130l67 316c4 22 7 41 7 56c0 53 -29 70 -97 70c-86 0 -136 -45 -153 -130l-66 -312h-130zM399 625l-79 150h98l56 -87l95 87h105l-145 -150h-130z" />
    <glyph glyph-name="Omacron" unicode="&#x14c;" horiz-adv-x="795" 
d="M397 -12c-162 0 -275 88 -275 256c0 131 48 298 157 388c73 61 162 80 263 80c167 0 279 -80 279 -256c0 -140 -54 -306 -149 -383c-81 -65 -173 -85 -275 -85zM425 105c67 0 119 17 159 59c57 61 93 173 93 268c0 109 -51 163 -159 163c-58 0 -106 -13 -146 -47
c-70 -61 -106 -189 -106 -284c0 -109 56 -159 159 -159zM409 796v88h330v-88h-330z" />
    <glyph glyph-name="omacron" unicode="&#x14d;" horiz-adv-x="650" 
d="M100 209c0 197 117 343 327 343c128 0 236 -64 236 -213c0 -207 -107 -351 -317 -351c-163 0 -246 89 -246 221zM234 219c0 -73 35 -121 124 -121c122 0 171 126 171 232c0 74 -40 112 -115 112c-118 0 -180 -102 -180 -223zM314 658v84h316v-84h-316z" />
    <glyph glyph-name="Ohungarumlaut" unicode="&#x150;" horiz-adv-x="795" 
d="M397 -12c-162 0 -275 88 -275 256c0 131 48 298 157 388c73 61 162 80 263 80c167 0 279 -80 279 -256c0 -140 -54 -306 -149 -383c-81 -65 -173 -85 -275 -85zM425 105c67 0 119 17 159 59c57 61 93 173 93 268c0 109 -51 163 -159 163c-58 0 -106 -13 -146 -47
c-70 -61 -106 -189 -106 -284c0 -109 56 -159 159 -159zM405 760l90 160h145l-133 -160h-102zM597 760l133 160h161l-184 -160h-110z" />
    <glyph glyph-name="ohungarumlaut" unicode="&#x151;" horiz-adv-x="650" 
d="M100 209c0 197 117 343 327 343c128 0 236 -64 236 -213c0 -207 -107 -351 -317 -351c-163 0 -246 89 -246 221zM234 219c0 -73 35 -121 124 -121c122 0 171 126 171 232c0 74 -40 112 -115 112c-118 0 -180 -102 -180 -223zM314 625l87 150h144l-131 -150h-100zM488 625
l131 150h159l-182 -150h-108z" />
    <glyph glyph-name="OE" unicode="&#x152;" horiz-adv-x="968" 
d="M908 0h-391c-33 -8 -70 -12 -114 -12c-164 0 -283 71 -283 252c0 121 54 310 170 400c65 50 150 72 243 72c40 0 77 -4 109 -12h415l-25 -117h-297l-36 -172h260l-23 -109h-261l-39 -185h296zM439 105c21 0 42 1 61 4l102 478c-23 6 -48 8 -74 8c-66 0 -114 -17 -156 -52
c-68 -58 -109 -187 -109 -282c0 -107 65 -156 176 -156z" />
    <glyph glyph-name="oe" unicode="&#x153;" horiz-adv-x="1022" 
d="M763 238h-105c-2 -9 -3 -24 -3 -38c0 -70 42 -110 139 -110c74 0 158 27 206 68l-24 -112c-37 -28 -121 -58 -212 -58c-98 0 -162 31 -197 83c-51 -53 -124 -83 -221 -83c-163 0 -246 88 -246 220c0 197 117 344 327 344c85 0 157 -28 196 -90c54 57 130 90 227 90
c155 0 208 -62 208 -144c0 -87 -63 -170 -295 -170zM233 218c0 -73 36 -120 125 -120c122 0 171 126 171 232c0 74 -40 112 -116 112c-117 0 -180 -103 -180 -224zM778 317c121 0 147 35 147 74c0 32 -18 59 -88 59c-90 0 -140 -44 -162 -133h103z" />
    <glyph glyph-name="Racute" unicode="&#x154;" horiz-adv-x="685" 
d="M97 0l148 698c78 6 143 8 210 8c147 0 242 -47 242 -192c0 -120 -58 -214 -173 -242l134 -272h-145l-122 253h-106l-54 -253h-134zM308 363h86c104 0 159 37 159 136c0 65 -47 90 -108 90c-31 0 -58 -1 -90 -4zM431 760l134 160h160l-192 -160h-102z" />
    <glyph glyph-name="racute" unicode="&#x155;" horiz-adv-x="451" 
d="M81 0l115 540h113l-2 -82c39 62 97 94 167 94c21 0 40 -3 57 -7l-28 -128c-17 16 -42 25 -82 25c-82 0 -126 -47 -146 -142l-64 -300h-130zM331 625l124 150h158l-182 -150h-100z" />
    <glyph glyph-name="Rcommaaccent" unicode="&#x156;" horiz-adv-x="685" 
d="M97 0l148 698c78 6 143 8 210 8c147 0 242 -47 242 -192c0 -120 -58 -214 -173 -242l134 -272h-145l-122 253h-106l-54 -253h-134zM308 363h86c104 0 159 37 159 136c0 65 -47 90 -108 90c-31 0 -58 -1 -90 -4zM256 -246l11 50c42 3 75 14 86 48c-6 -1 -12 -1 -17 -1
c-42 0 -64 14 -64 40c0 46 45 62 93 62c41 0 69 -19 69 -57c0 -76 -73 -138 -178 -142z" />
    <glyph glyph-name="rcommaaccent" unicode="&#x157;" horiz-adv-x="451" 
d="M81 0l115 540h113l-2 -82c39 62 97 94 167 94c21 0 40 -3 57 -7l-28 -128c-17 16 -42 25 -82 25c-82 0 -126 -47 -146 -142l-64 -300h-130zM31 -239l7 47c40 3 73 16 83 49c-7 -1 -13 -1 -18 -1c-37 0 -59 13 -59 40c0 41 51 57 89 57c39 0 65 -17 65 -59
c0 -85 -94 -129 -167 -133z" />
    <glyph glyph-name="Rcaron" unicode="&#x158;" horiz-adv-x="685" 
d="M97 0l148 698c78 6 143 8 210 8c147 0 242 -47 242 -192c0 -120 -58 -214 -173 -242l134 -272h-145l-122 253h-106l-54 -253h-134zM308 363h86c104 0 159 37 159 136c0 65 -47 90 -108 90c-31 0 -58 -1 -90 -4zM404 760l-87 160h98l66 -97l107 97h105l-155 -160h-134z
" />
    <glyph glyph-name="rcaron" unicode="&#x159;" horiz-adv-x="451" 
d="M81 0l115 540h113l-2 -82c39 62 97 94 167 94c21 0 40 -3 57 -7l-28 -128c-17 16 -42 25 -82 25c-82 0 -126 -47 -146 -142l-64 -300h-130zM316 625l-79 150h98l56 -87l95 87h105l-145 -150h-130z" />
    <glyph glyph-name="Sacute" unicode="&#x15a;" 
d="M305 -12c-80 0 -181 25 -229 59l29 135c49 -51 128 -81 207 -81c101 0 154 35 154 100c0 130 -297 79 -297 288c0 135 112 223 284 223c80 0 174 -20 220 -46l-29 -134c-46 40 -115 67 -188 67c-94 0 -143 -27 -143 -85c0 -131 297 -85 297 -292
c0 -149 -112 -234 -305 -234zM401 760l134 160h160l-192 -160h-102z" />
    <glyph glyph-name="sacute" unicode="&#x15b;" horiz-adv-x="533" 
d="M64 23l27 127c34 -33 98 -58 171 -58c81 0 117 25 117 74c0 82 -242 37 -242 189c0 141 106 197 260 197c59 0 118 -9 157 -24l-26 -124c-37 28 -82 45 -149 45c-75 0 -109 -23 -109 -63c0 -81 242 -30 242 -186c0 -154 -120 -212 -270 -212c-60 0 -127 11 -178 35z
M349 625l124 150h158l-182 -150h-100z" />
    <glyph glyph-name="Scircumflex" unicode="&#x15c;" 
d="M305 -12c-80 0 -181 25 -229 59l29 135c49 -51 128 -81 207 -81c101 0 154 35 154 100c0 130 -297 79 -297 288c0 135 112 223 284 223c80 0 174 -20 220 -46l-29 -134c-46 40 -115 67 -188 67c-94 0 -143 -27 -143 -85c0 -131 297 -85 297 -292
c0 -149 -112 -234 -305 -234zM286 760l155 160h134l87 -160h-98l-64 96l-108 -96h-106z" />
    <glyph glyph-name="scircumflex" unicode="&#x15d;" horiz-adv-x="533" 
d="M64 23l27 127c34 -33 98 -58 171 -58c81 0 117 25 117 74c0 82 -242 37 -242 189c0 141 106 197 260 197c59 0 118 -9 157 -24l-26 -124c-37 28 -82 45 -149 45c-75 0 -109 -23 -109 -63c0 -81 242 -30 242 -186c0 -154 -120 -212 -270 -212c-60 0 -127 11 -178 35z
M222 625l143 150h131l79 -150h-98l-55 86l-95 -86h-105z" />
    <glyph glyph-name="Scedilla" unicode="&#x15e;" 
d="M261 -254c-42 0 -69 6 -92 17l23 60c18 -9 37 -13 62 -13c32 0 70 15 70 53c0 25 -29 32 -56 32c-10 0 -25 0 -35 -2l35 97c-72 6 -151 28 -192 57l29 135c49 -51 128 -81 207 -81c101 0 154 34 154 99c0 130 -297 81 -297 290c0 135 112 222 284 222
c80 0 174 -20 220 -46l-29 -134c-46 40 -115 67 -188 67c-94 0 -143 -26 -143 -84c0 -131 297 -87 297 -294c0 -140 -98 -222 -269 -232l-17 -43c54 0 97 -19 97 -70c0 -84 -84 -130 -160 -130z" />
    <glyph glyph-name="scedilla" unicode="&#x15f;" horiz-adv-x="533" 
d="M194 -98l32 86c-56 2 -116 13 -162 35l27 127c34 -33 98 -58 171 -58c81 0 117 25 117 74c0 82 -242 37 -242 189c0 141 106 197 260 197c59 0 118 -9 157 -24l-26 -124c-37 28 -82 45 -149 45c-75 0 -109 -23 -109 -63c0 -81 242 -30 242 -186
c0 -135 -92 -196 -216 -209l-17 -42c51 -1 91 -18 91 -66c0 -74 -74 -124 -148 -124c-36 0 -66 6 -88 16l22 57c17 -7 34 -12 56 -12c29 0 65 18 65 54c0 23 -25 29 -51 29c-8 0 -23 0 -32 -1z" />
    <glyph glyph-name="Scaron" unicode="&#x160;" 
d="M305 -12c-80 0 -181 25 -229 59l29 135c49 -51 128 -81 207 -81c101 0 154 35 154 100c0 130 -297 79 -297 288c0 135 112 223 284 223c80 0 174 -20 220 -46l-29 -134c-46 40 -115 67 -188 67c-94 0 -143 -27 -143 -85c0 -131 297 -85 297 -292
c0 -149 -112 -234 -305 -234zM407 760l-87 160h98l66 -97l107 97h105l-155 -160h-134z" />
    <glyph glyph-name="scaron" unicode="&#x161;" horiz-adv-x="533" 
d="M64 23l27 127c34 -33 98 -58 171 -58c81 0 117 25 117 74c0 82 -242 37 -242 189c0 141 106 197 260 197c59 0 118 -9 157 -24l-26 -124c-37 28 -82 45 -149 45c-75 0 -109 -23 -109 -63c0 -81 242 -30 242 -186c0 -154 -120 -212 -270 -212c-60 0 -127 11 -178 35z
M334 625l-79 150h98l56 -87l95 87h105l-145 -150h-130z" />
    <glyph glyph-name="Tcedilla" unicode="&#x162;" horiz-adv-x="605" 
d="M236 0l124 583h-210l24 117h555l-24 -117h-211l-124 -583h-30l-22 -54c54 0 97 -19 97 -70c0 -84 -84 -130 -160 -130c-42 0 -69 6 -92 17l23 60c18 -9 37 -13 62 -13c32 0 70 15 70 53c0 25 -29 32 -56 32c-10 0 -25 0 -35 -2l40 107h-31z" />
    <glyph glyph-name="tcedilla" unicode="&#x163;" horiz-adv-x="480" 
d="M228 -98l35 94c-73 8 -108 42 -108 110c0 19 4 36 9 61l55 263h-100l23 110h100l20 91l139 44l-29 -135h172l-23 -110h-172l-52 -245c-3 -14 -4 -25 -4 -35c0 -38 21 -46 62 -46c42 0 78 12 106 28l-24 -112c-20 -10 -59 -21 -105 -25l-19 -46c51 -1 91 -18 91 -66
c0 -74 -74 -124 -148 -124c-36 0 -66 6 -88 16l22 57c17 -7 34 -12 56 -12c29 0 65 18 65 54c0 23 -25 29 -51 29c-8 0 -23 0 -32 -1z" />
    <glyph glyph-name="Tcaron" unicode="&#x164;" horiz-adv-x="605" 
d="M236 0l124 583h-210l24 117h555l-24 -117h-211l-124 -583h-134zM396 760l-87 160h98l66 -97l107 97h105l-155 -160h-134z" />
    <glyph glyph-name="tcaron" unicode="&#x165;" horiz-adv-x="480" 
d="M302 -6c-100 0 -147 33 -147 112c0 19 4 36 9 61l55 263h-100l23 110h100l20 91l139 44l-29 -135h172l-23 -110h-172l-52 -245c-3 -14 -4 -25 -4 -35c0 -38 21 -46 62 -46c42 0 78 12 106 28l-24 -112c-24 -12 -75 -26 -135 -26zM465 584l100 214h122l-134 -214h-88z" />
    <glyph glyph-name="Umacron" unicode="&#x16a;" horiz-adv-x="744" 
d="M374 -12c-143 0 -231 68 -231 197c0 38 8 97 22 160l75 355h134l-79 -370c-14 -63 -16 -103 -16 -125c0 -73 50 -100 118 -100c103 0 153 38 183 179l88 416h134l-90 -422c-48 -225 -142 -290 -338 -290zM386 796v88h330v-88h-330z" />
    <glyph glyph-name="umacron" unicode="&#x16b;" horiz-adv-x="649" 
d="M256 -12c-100 0 -149 41 -149 126c0 21 2 44 8 70l76 356h130l-69 -326c-4 -17 -6 -32 -6 -46c0 -49 28 -70 91 -70c84 0 131 44 149 131l67 311h130l-115 -540h-113v85c-49 -67 -112 -97 -199 -97zM311 658v84h316v-84h-316z" />
    <glyph glyph-name="Ubreve" unicode="&#x16c;" horiz-adv-x="744" 
d="M374 -12c-143 0 -231 68 -231 197c0 38 8 97 22 160l75 355h134l-79 -370c-14 -63 -16 -103 -16 -125c0 -73 50 -100 118 -100c103 0 153 38 183 179l88 416h134l-90 -422c-48 -225 -142 -290 -338 -290zM393 899l83 21c4 -50 29 -76 75 -76s81 26 108 76l74 -21
c-44 -91 -111 -139 -200 -139s-136 48 -140 139z" />
    <glyph glyph-name="ubreve" unicode="&#x16d;" horiz-adv-x="649" 
d="M256 -12c-100 0 -149 41 -149 126c0 21 2 44 8 70l76 356h130l-69 -326c-4 -17 -6 -32 -6 -46c0 -49 28 -70 91 -70c84 0 131 44 149 131l67 311h130l-115 -540h-113v85c-49 -67 -112 -97 -199 -97zM312 759l81 21c5 -50 31 -78 77 -78s85 28 110 78l72 -21
c-44 -91 -110 -139 -199 -139s-136 48 -141 139z" />
    <glyph glyph-name="Uring" unicode="&#x16e;" horiz-adv-x="744" 
d="M374 -12c-143 0 -231 68 -231 197c0 38 8 97 22 160l75 355h134l-79 -370c-14 -63 -16 -103 -16 -125c0 -73 50 -100 118 -100c103 0 153 38 183 179l88 416h134l-90 -422c-48 -225 -142 -290 -338 -290zM550 736c-66 0 -110 44 -110 104s44 104 110 104
s110 -44 110 -104s-44 -104 -110 -104zM550 795c28 0 46 19 46 45c0 27 -18 45 -46 45s-46 -18 -46 -45c0 -26 18 -45 46 -45z" />
    <glyph glyph-name="uring" unicode="&#x16f;" horiz-adv-x="649" 
d="M256 -12c-100 0 -149 41 -149 126c0 21 2 44 8 70l76 356h130l-69 -326c-4 -17 -6 -32 -6 -46c0 -49 28 -70 91 -70c84 0 131 44 149 131l67 311h130l-115 -540h-113v85c-49 -67 -112 -97 -199 -97zM472 596c-65 0 -108 44 -108 104c0 61 43 104 108 104
c64 0 108 -43 108 -104c0 -60 -44 -104 -108 -104zM472 654c27 0 46 19 46 46s-19 46 -46 46s-46 -19 -46 -46s19 -46 46 -46z" />
    <glyph glyph-name="Uhungarumlaut" unicode="&#x170;" horiz-adv-x="744" 
d="M374 -12c-143 0 -231 68 -231 197c0 38 8 97 22 160l75 355h134l-79 -370c-14 -63 -16 -103 -16 -125c0 -73 50 -100 118 -100c103 0 153 38 183 179l88 416h134l-90 -422c-48 -225 -142 -290 -338 -290zM399 791l87 150h144l-131 -150h-100zM573 791l131 150h159
l-182 -150h-108z" />
    <glyph glyph-name="uhungarumlaut" unicode="&#x171;" horiz-adv-x="649" 
d="M256 -12c-100 0 -149 41 -149 126c0 21 2 44 8 70l76 356h130l-69 -326c-4 -17 -6 -32 -6 -46c0 -49 28 -70 91 -70c84 0 131 44 149 131l67 311h130l-115 -540h-113v85c-49 -67 -112 -97 -199 -97zM314 625l87 150h144l-131 -150h-100zM488 625l131 150h159l-182 -150
h-108z" />
    <glyph glyph-name="Uogonek" unicode="&#x172;" horiz-adv-x="744" 
d="M357 -241c-76 0 -102 37 -102 78c0 64 54 117 109 151c-137 3 -221 70 -221 196c0 38 8 98 22 161l75 355h134l-79 -370c-14 -63 -16 -104 -16 -126c0 -73 50 -99 118 -99c103 0 153 38 183 179l88 416h134l-90 -422c-42 -196 -119 -271 -268 -286
c-43 -29 -91 -75 -91 -128c0 -24 17 -39 45 -39c21 0 42 5 63 16l-13 -62c-24 -10 -53 -20 -91 -20z" />
    <glyph glyph-name="uogonek" unicode="&#x173;" horiz-adv-x="649" 
d="M438 -241c-76 0 -102 37 -102 78c0 73 70 130 132 163h-13v85c-49 -67 -112 -97 -199 -97c-100 0 -149 41 -149 126c0 21 3 44 8 70l76 356h130l-69 -326c-4 -17 -6 -32 -6 -46c0 -49 28 -70 91 -70c84 0 130 44 149 131l67 311h130l-115 -540h-28
c-46 -27 -106 -76 -106 -136c0 -24 17 -39 45 -39c21 0 42 5 63 16l-13 -62c-24 -10 -53 -20 -91 -20z" />
    <glyph glyph-name="Ydieresis" unicode="&#x178;" horiz-adv-x="649" 
d="M258 0l55 260l-149 440h144l98 -294l219 294h159l-337 -439l-55 -261h-134zM395 772c-51 0 -74 23 -74 68s23 68 74 68c50 0 74 -23 74 -68s-24 -68 -74 -68zM611 772c-51 0 -74 23 -74 68s23 68 74 68c50 0 74 -23 74 -68s-24 -68 -74 -68z" />
    <glyph glyph-name="Zacute" unicode="&#x179;" horiz-adv-x="632" 
d="M53 0l17 79l448 504h-330l25 117h517l-17 -79l-448 -504h349l-25 -117h-536zM431 760l134 160h160l-192 -160h-102z" />
    <glyph glyph-name="zacute" unicode="&#x17a;" horiz-adv-x="553" 
d="M44 0l18 83l352 347h-272l24 110h447l-17 -83l-352 -347h287l-23 -110h-464zM359 625l124 150h158l-182 -150h-100z" />
    <glyph glyph-name="Zdotaccent" unicode="&#x17b;" horiz-adv-x="632" 
d="M53 0l17 79l448 504h-330l25 117h517l-17 -79l-448 -504h349l-25 -117h-536zM499 769c-52 0 -76 25 -76 71s24 71 76 71s76 -25 76 -71s-24 -71 -76 -71z" />
    <glyph glyph-name="zdotaccent" unicode="&#x17c;" horiz-adv-x="553" 
d="M44 0l18 83l352 347h-272l24 110h447l-17 -83l-352 -347h287l-23 -110h-464zM425 631c-54 0 -79 26 -79 69s25 69 79 69c53 0 79 -26 79 -69s-26 -69 -79 -69z" />
    <glyph glyph-name="Zcaron" unicode="&#x17d;" horiz-adv-x="632" 
d="M53 0l17 79l448 504h-330l25 117h517l-17 -79l-448 -504h349l-25 -117h-536zM415 760l-87 160h98l66 -97l107 97h105l-155 -160h-134z" />
    <glyph glyph-name="zcaron" unicode="&#x17e;" horiz-adv-x="553" 
d="M44 0l18 83l352 347h-272l24 110h447l-17 -83l-352 -347h287l-23 -110h-464zM344 625l-79 150h98l56 -87l95 87h105l-145 -150h-130z" />
    <glyph glyph-name="uni018F" unicode="&#x18f;" horiz-adv-x="723" 
d="M349 -12c-147 0 -233 73 -233 231c0 57 11 111 24 168h466c4 18 6 36 6 55c0 79 -38 153 -179 153c-69 0 -136 -11 -192 -34l25 123c70 18 138 28 206 28c216 0 282 -104 282 -239c0 -234 -141 -485 -405 -485zM372 99c93 0 179 55 214 191h-333c-5 -21 -9 -46 -9 -70
c0 -78 42 -121 128 -121z" />
    <glyph glyph-name="florin" unicode="&#x192;" 
d="M224 430l22 110h101l9 41c25 116 84 185 209 185c29 0 57 -4 84 -8l-22 -102c-9 2 -31 6 -55 6c-61 0 -82 -27 -99 -105l-4 -17h132l-23 -110h-132l-87 -413c-30 -143 -88 -203 -212 -203c-23 0 -41 3 -54 6l21 104c9 -2 17 -3 29 -3c43 0 75 10 93 94l87 415h-99z" />
    <glyph glyph-name="uni01DD" unicode="&#x1dd;" horiz-adv-x="595" 
d="M373 302h105c1 9 3 24 3 38c0 70 -43 110 -139 110c-75 0 -158 -27 -206 -68l23 112c38 28 122 58 212 58c161 0 239 -84 239 -210c0 -207 -121 -354 -324 -354c-155 0 -209 62 -209 143c0 88 63 171 296 171zM358 223c-121 0 -147 -35 -147 -73c0 -33 18 -60 84 -60
c95 0 145 44 167 133h-104z" />
    <glyph glyph-name="Gcaron" unicode="&#x1e6;" horiz-adv-x="708" 
d="M428 -12c-191 0 -305 80 -305 271c0 145 70 307 166 380c74 56 155 73 266 73c85 0 167 -25 201 -43l-28 -128c-38 27 -111 54 -186 54c-67 0 -121 -12 -169 -52c-62 -51 -106 -172 -106 -267c0 -129 68 -171 182 -171c46 0 85 8 114 17l32 151h-139l24 110h257l-73 -345
c-38 -18 -127 -50 -236 -50zM492 760l-87 160h98l66 -97l107 97h105l-155 -160h-134z" />
    <glyph glyph-name="gcaron" unicode="&#x1e7;" horiz-adv-x="669" 
d="M260 -202c-88 0 -157 17 -193 34l27 124c27 -22 89 -50 189 -50c117 0 171 57 188 140l15 76c-36 -57 -87 -104 -185 -104c-124 0 -199 59 -199 197c0 157 77 337 287 337c102 0 150 -43 166 -102l38 90h110l-103 -486c-39 -182 -150 -256 -340 -256zM360 126
c97 0 140 65 153 129l8 40c21 100 -23 149 -112 149c-124 0 -168 -99 -168 -204c0 -79 42 -114 119 -114zM384 625l-79 150h98l56 -87l95 87h105l-145 -150h-130z" />
    <glyph glyph-name="Scommaaccent" unicode="&#x218;" 
d="M305 -12c-80 0 -181 25 -229 59l29 135c49 -51 128 -81 207 -81c101 0 154 35 154 100c0 130 -297 79 -297 288c0 135 112 223 284 223c80 0 174 -20 220 -46l-29 -134c-46 40 -115 67 -188 67c-94 0 -143 -27 -143 -85c0 -131 297 -85 297 -292
c0 -149 -112 -234 -305 -234zM193 -246l11 50c42 3 75 14 86 48c-6 -1 -12 -1 -17 -1c-42 0 -64 14 -64 40c0 46 45 62 93 62c41 0 69 -19 69 -57c0 -76 -73 -138 -178 -142z" />
    <glyph glyph-name="scommaaccent" unicode="&#x219;" horiz-adv-x="533" 
d="M64 23l27 127c34 -33 98 -58 171 -58c81 0 117 25 117 74c0 82 -242 37 -242 189c0 141 106 197 260 197c59 0 118 -9 157 -24l-26 -124c-37 28 -82 45 -149 45c-75 0 -109 -23 -109 -63c0 -81 242 -30 242 -186c0 -154 -120 -212 -270 -212c-60 0 -127 11 -178 35z
M153 -239l7 47c40 3 73 16 83 49c-7 -1 -13 -1 -18 -1c-37 0 -59 13 -59 40c0 41 51 57 89 57c39 0 65 -17 65 -59c0 -85 -94 -129 -167 -133z" />
    <glyph glyph-name="Tcommaaccent" unicode="&#x21a;" horiz-adv-x="605" 
d="M236 0l124 583h-210l24 117h555l-24 -117h-211l-124 -583h-134zM183 -246l11 50c42 3 75 14 86 48c-6 -1 -12 -1 -17 -1c-42 0 -64 14 -64 40c0 46 45 62 93 62c41 0 69 -19 69 -57c0 -76 -73 -138 -178 -142z" />
    <glyph glyph-name="tcommaaccent" unicode="&#x21b;" horiz-adv-x="480" 
d="M302 -6c-100 0 -147 33 -147 112c0 19 4 36 9 61l55 263h-100l23 110h100l20 91l139 44l-29 -135h172l-23 -110h-172l-52 -245c-3 -14 -4 -25 -4 -35c0 -38 21 -46 62 -46c42 0 78 12 106 28l-24 -112c-24 -12 -75 -26 -135 -26zM186 -239l7 47c40 3 73 16 83 49
c-7 -1 -13 -1 -18 -1c-37 0 -59 13 -59 40c0 41 51 57 89 57c39 0 65 -17 65 -59c0 -85 -94 -129 -167 -133z" />
    <glyph glyph-name="uni0237" unicode="&#x237;" horiz-adv-x="308" 
d="M-68 -173l24 111c13 -8 33 -13 57 -13c43 0 63 18 73 64l118 551h130l-118 -553c-27 -123 -84 -173 -198 -173c-45 0 -73 7 -86 13z" />
    <glyph glyph-name="uni0259" unicode="&#x259;" horiz-adv-x="595" 
d="M373 302h105c1 9 3 24 3 38c0 70 -43 110 -139 110c-75 0 -158 -27 -206 -68l23 112c38 28 122 58 212 58c161 0 239 -84 239 -210c0 -207 -121 -354 -324 -354c-155 0 -209 62 -209 143c0 88 63 171 296 171zM358 223c-121 0 -147 -35 -147 -73c0 -33 18 -60 84 -60
c95 0 145 44 167 133h-104z" />
    <glyph glyph-name="afii57929" unicode="&#x2bc;" horiz-adv-x="260" 
d="M145 486l100 214h122l-134 -214h-88z" />
    <glyph glyph-name="circumflex" unicode="&#x2c6;" horiz-adv-x="373" 
d="M142 625l143 150h131l79 -150h-98l-55 86l-95 -86h-105z" />
    <glyph glyph-name="caron" unicode="&#x2c7;" horiz-adv-x="373" 
d="M254 625l-79 150h98l56 -87l95 87h105l-145 -150h-130z" />
    <glyph glyph-name="breve" unicode="&#x2d8;" horiz-adv-x="359" 
d="M170 759l81 21c5 -50 31 -78 77 -78s85 28 110 78l72 -21c-44 -91 -110 -139 -199 -139s-136 48 -141 139z" />
    <glyph glyph-name="dotaccent" unicode="&#x2d9;" horiz-adv-x="183" 
d="M240 631c-54 0 -79 26 -79 69s25 69 79 69c53 0 79 -26 79 -69s-26 -69 -79 -69z" />
    <glyph glyph-name="ring" unicode="&#x2da;" horiz-adv-x="242" 
d="M271 596c-65 0 -108 44 -108 104c0 61 43 104 108 104c64 0 108 -43 108 -104c0 -60 -44 -104 -108 -104zM271 654c27 0 46 19 46 46s-19 46 -46 46s-46 -19 -46 -46s19 -46 46 -46z" />
    <glyph glyph-name="ogonek" unicode="&#x2db;" horiz-adv-x="228" 
d="M80 -241c-76 0 -102 37 -102 78c0 81 87 142 152 173l56 -8c-47 -27 -110 -77 -110 -138c0 -24 17 -39 45 -39c21 0 42 5 63 16l-13 -62c-24 -10 -53 -20 -91 -20z" />
    <glyph glyph-name="tilde" unicode="&#x2dc;" horiz-adv-x="354" 
d="M218 636l-69 12c4 75 45 116 101 116c27 0 50 -11 81 -25c33 -14 44 -21 62 -21c20 0 33 15 38 46l68 -13c-4 -72 -45 -115 -99 -115c-30 0 -45 5 -83 24c-28 13 -40 23 -59 23c-18 0 -34 -15 -40 -47z" />
    <glyph glyph-name="hungarumlaut" unicode="&#x2dd;" horiz-adv-x="452" 
d="M142 625l87 150h144l-131 -150h-100zM316 625l131 150h159l-182 -150h-108z" />
    <glyph glyph-name="acutecomb" unicode="&#x301;" horiz-adv-x="0" 
d="M-256 625l124 150h158l-182 -150h-100z" />
    <glyph glyph-name="uni0394" unicode="&#x394;" horiz-adv-x="643" 
d="M16 0l234 700h145l232 -700h-611zM180 116h278l-137 439h-2z" />
    <glyph glyph-name="uni0394" unicode="&#x2206;" horiz-adv-x="643" 
d="M16 0l234 700h145l232 -700h-611zM180 116h278l-137 439h-2z" />
    <glyph glyph-name="uni03A9" unicode="&#x3a9;" horiz-adv-x="885" 
d="M185 0v111h158v48c-86 36 -171 113 -171 257c0 173 130 296 325 296c196 0 324 -121 324 -296c0 -142 -87 -221 -169 -257v-48h157v-111h-270v226c108 20 149 101 149 176c0 115 -79 194 -191 194c-113 0 -192 -79 -192 -194c0 -76 40 -156 151 -176v-226h-271z" />
    <glyph glyph-name="uni03A9" unicode="&#x2126;" horiz-adv-x="885" 
d="M185 0v111h158v48c-86 36 -171 113 -171 257c0 173 130 296 325 296c196 0 324 -121 324 -296c0 -142 -87 -221 -169 -257v-48h157v-111h-270v226c108 20 149 101 149 176c0 115 -79 194 -191 194c-113 0 -192 -79 -192 -194c0 -76 40 -156 151 -176v-226h-271z" />
    <glyph glyph-name="pi" unicode="&#x3c0;" horiz-adv-x="717" 
d="M146 0l89 425c-37 0 -72 -18 -96 -33l-17 106c30 19 85 42 184 42h476l-24 -113h-79l-53 -249c-4 -16 -5 -28 -5 -37c0 -25 10 -33 32 -33c7 0 20 1 29 4l-23 -111c-20 -4 -47 -7 -72 -7c-69 0 -106 26 -106 91c0 15 2 34 6 54l62 288h-184l-90 -427h-129z" />
    <glyph glyph-name="afii10023" unicode="&#x401;" horiz-adv-x="622" 
d="M96 0l147 700h467l-25 -117h-331l-36 -171h295l-24 -110h-296l-39 -185h332l-25 -117h-465zM398 772c-51 0 -74 23 -74 68s23 68 74 68c50 0 74 -23 74 -68s-24 -68 -74 -68zM614 772c-51 0 -74 23 -74 68s23 68 74 68c50 0 74 -23 74 -68s-24 -68 -74 -68z" />
    <glyph glyph-name="afii10051" unicode="&#x402;" horiz-adv-x="822" 
d="M235 0l124 583h-210l25 117h553l-24 -117h-210l-33 -156c48 17 102 30 177 30c141 0 185 -77 185 -156c0 -17 -2 -35 -6 -53l-11 -57c-24 -126 -108 -203 -246 -203c-28 0 -61 5 -80 10l22 104c11 -7 30 -12 54 -12c57 0 94 30 108 95l8 37c3 12 7 36 7 45
c0 50 -32 73 -99 73c-60 0 -106 -11 -143 -26l-67 -314h-134z" />
    <glyph glyph-name="afii10052" unicode="&#x403;" horiz-adv-x="572" 
d="M96 0l148 700h446l-25 -117h-311l-124 -583h-134zM428 760l134 160h160l-192 -160h-102z" />
    <glyph glyph-name="afii10053" unicode="&#x404;" horiz-adv-x="676" 
d="M754 670l-28 -130c-47 33 -123 55 -198 55c-66 0 -114 -18 -156 -53c-36 -31 -65 -79 -83 -134h305l-22 -103h-307c-1 -16 -2 -30 -2 -44c0 -107 65 -156 177 -156c83 0 169 28 209 51l-27 -130c-53 -22 -132 -38 -219 -38c-164 0 -283 71 -283 252c0 121 54 309 170 399
c65 50 151 73 243 73c88 0 177 -20 221 -42z" />
    <glyph glyph-name="afii10054" unicode="&#x405;" 
d="M305 -12c-80 0 -181 25 -229 59l29 135c49 -51 128 -81 207 -81c101 0 154 35 154 100c0 130 -297 79 -297 288c0 135 112 223 284 223c80 0 174 -20 220 -46l-29 -134c-46 40 -115 67 -188 67c-94 0 -143 -27 -143 -85c0 -131 297 -85 297 -292
c0 -149 -112 -234 -305 -234z" />
    <glyph glyph-name="afii10055" unicode="&#x406;" horiz-adv-x="336" 
d="M101 0l149 700h134l-149 -700h-134z" />
    <glyph glyph-name="afii10056" unicode="&#x407;" horiz-adv-x="336" 
d="M101 0l149 700h134l-149 -700h-134zM239 772c-51 0 -74 23 -74 68s23 68 74 68c50 0 74 -23 74 -68s-24 -68 -74 -68zM455 772c-51 0 -74 23 -74 68s23 68 74 68c50 0 74 -23 74 -68s-24 -68 -74 -68z" />
    <glyph glyph-name="afii10057" unicode="&#x408;" horiz-adv-x="439" 
d="M150 -6c-43 0 -85 11 -121 28l26 125c32 -23 59 -36 94 -36c59 0 90 29 106 106l103 484h134l-107 -501c-31 -148 -99 -206 -235 -206z" />
    <glyph glyph-name="afii10058" unicode="&#x409;" horiz-adv-x="1058" 
d="M68 -6c-14 0 -35 3 -48 8l29 136c7 -4 19 -7 28 -7c67 0 113 54 202 418l37 151h473l-50 -235c38 4 70 6 105 6c147 0 222 -64 222 -173c0 -237 -149 -304 -357 -304c-73 0 -143 3 -202 10l123 579h-215l-23 -86c-108 -416 -174 -503 -324 -503zM664 113
c21 -2 50 -3 76 -3c115 0 182 38 182 161c0 66 -45 84 -125 84c-31 0 -53 -2 -81 -5z" />
    <glyph glyph-name="afii10059" unicode="&#x40a;" horiz-adv-x="1088" 
d="M738 -6c-73 0 -143 3 -201 10l63 298h-306l-64 -302h-134l149 700h134l-60 -282h306l60 282h134l-50 -235c37 4 69 6 105 6c146 0 221 -64 221 -173c0 -237 -148 -304 -357 -304zM694 113c21 -2 50 -3 76 -3c114 0 182 38 182 161c0 66 -45 84 -125 84
c-31 0 -53 -2 -82 -5z" />
    <glyph glyph-name="afii10060" unicode="&#x40b;" horiz-adv-x="824" 
d="M235 0l124 583h-210l25 117h553l-24 -117h-210l-33 -153c53 20 101 30 164 30c121 0 196 -61 196 -158c0 -28 -8 -79 -16 -116l-39 -186h-134l36 169c8 39 14 77 14 95c0 57 -43 79 -111 79c-48 0 -86 -7 -134 -26l-67 -317h-134z" />
    <glyph glyph-name="afii10061" unicode="&#x40c;" horiz-adv-x="715" 
d="M545 0l-175 298h-77l-63 -298h-134l148 700h134l-61 -285h62l276 285h160l-336 -341l212 -359h-146zM470 760l134 160h160l-192 -160h-102z" />
    <glyph glyph-name="afii10062" unicode="&#x40e;" horiz-adv-x="685" 
d="M151 11l27 122c17 -14 41 -28 72 -28c29 0 61 32 83 70l-161 525h148l107 -389l234 389h150l-347 -550c-79 -127 -132 -162 -224 -162c-31 0 -68 11 -89 23zM505 760c-88 0 -149 36 -149 119c0 12 1 26 5 41h98c-2 -10 -3 -22 -3 -30c0 -39 21 -56 65 -56
c53 0 83 26 98 86h97c-27 -112 -111 -160 -211 -160z" />
    <glyph glyph-name="afii10145" unicode="&#x40f;" horiz-adv-x="761" 
d="M96 0l149 700h135l-124 -583h300l124 583h134l-149 -700h-224l-27 -130h-123l27 130h-222z" />
    <glyph glyph-name="afii10017" unicode="&#x410;" horiz-adv-x="688" 
d="M16 0l399 700h155l102 -700h-133l-22 163h-271l-90 -163h-140zM465 559l-157 -283h194z" />
    <glyph glyph-name="afii10018" unicode="&#x411;" horiz-adv-x="675" 
d="M311 -6c-70 0 -135 3 -214 8l149 698h463l-26 -117h-329l-33 -156c45 4 85 6 120 6c125 0 225 -35 225 -166c0 -208 -155 -273 -355 -273zM252 116c33 -3 57 -5 89 -5c127 0 181 42 181 141c0 55 -38 78 -130 78c-27 0 -61 -2 -95 -6z" />
    <glyph glyph-name="afii10019" unicode="&#x412;" horiz-adv-x="679" 
d="M96 2l148 698c91 4 164 6 216 6c122 0 250 -15 250 -151c0 -105 -42 -170 -154 -196c74 -13 115 -51 115 -136c0 -87 -37 -151 -103 -187c-68 -35 -184 -42 -241 -42c-55 0 -158 1 -231 8zM295 308l-42 -197c34 -3 70 -4 100 -4c124 0 175 31 175 121
c0 60 -24 80 -137 80h-96zM315 403h112c94 0 139 36 139 113c0 56 -25 77 -112 77c-31 0 -60 -1 -100 -3z" />
    <glyph glyph-name="afii10020" unicode="&#x413;" horiz-adv-x="572" 
d="M96 0l148 700h446l-25 -117h-311l-124 -583h-134z" />
    <glyph glyph-name="afii10021" unicode="&#x414;" horiz-adv-x="765" 
d="M2 -130l53 247h68c77 106 140 288 184 478l25 105h459l-124 -583h87l-53 -247h-119l28 130h-461l-28 -130h-119zM533 117l99 466h-201l-11 -47c-36 -152 -92 -310 -161 -419h274z" />
    <glyph glyph-name="afii10022" unicode="&#x415;" horiz-adv-x="622" 
d="M96 0l147 700h467l-25 -117h-331l-36 -171h295l-24 -110h-296l-39 -185h332l-25 -117h-465z" />
    <glyph glyph-name="afii10024" unicode="&#x416;" horiz-adv-x="957" 
d="M23 0l299 366l-135 335h143l112 -286h60l60 286h134l-60 -286h47l234 286h150l-272 -337l139 -364h-149l-113 305h-59l-66 -305h-134l66 305h-49l-246 -305h-161z" />
    <glyph glyph-name="afii10025" unicode="&#x417;" horiz-adv-x="608" 
d="M71 38l28 132c43 -35 112 -65 200 -65c52 0 90 12 115 28c31 21 47 53 47 96c0 47 -34 76 -122 76h-93l22 100h82c85 0 158 25 158 111c0 45 -32 79 -115 79c-72 0 -138 -19 -201 -53l28 134c57 20 128 36 218 36c153 0 214 -63 214 -150c0 -111 -66 -179 -170 -206
c76 -10 123 -57 123 -126c0 -84 -39 -155 -113 -197c-51 -29 -121 -45 -211 -45c-83 0 -170 27 -210 50z" />
    <glyph glyph-name="afii10026" unicode="&#x418;" horiz-adv-x="788" 
d="M97 0l148 700h134l-82 -386c-8 -39 -20 -91 -32 -134c27 40 59 83 90 120l344 400h142l-149 -700h-134l82 387c8 37 20 90 32 133c-27 -38 -57 -80 -88 -117l-345 -403h-142z" />
    <glyph glyph-name="afii10027" unicode="&#x419;" horiz-adv-x="788" 
d="M97 0l148 700h134l-82 -386c-8 -39 -20 -91 -32 -134c27 40 59 83 90 120l344 400h142l-149 -700h-134l82 387c8 37 20 90 32 133c-27 -38 -57 -80 -88 -117l-345 -403h-142zM556 760c-88 0 -149 36 -149 119c0 12 1 26 5 41h98c-2 -10 -3 -22 -3 -30
c0 -39 21 -56 65 -56c53 0 83 26 98 86h97c-27 -112 -111 -160 -211 -160z" />
    <glyph glyph-name="afii10028" unicode="&#x41a;" horiz-adv-x="715" 
d="M545 0l-175 298h-77l-63 -298h-134l148 700h134l-61 -285h62l276 285h160l-336 -341l212 -359h-146z" />
    <glyph glyph-name="afii10029" unicode="&#x41b;" horiz-adv-x="737" 
d="M68 -6c-14 0 -35 3 -48 8l29 135c6 -3 19 -6 27 -6c68 0 114 53 203 418l37 151h474l-149 -700h-134l124 583h-217l-22 -86c-109 -416 -174 -503 -324 -503z" />
    <glyph glyph-name="afii10030" unicode="&#x41c;" horiz-adv-x="917" 
d="M96 0l148 700h178l98 -398l262 398h187l-148 -700h-131l89 423c8 37 21 86 32 128c-28 -44 -60 -95 -80 -127l-184 -273h-111l-68 272c-8 35 -20 86 -29 129c-6 -42 -14 -91 -21 -128l-91 -424h-131z" />
    <glyph glyph-name="afii10031" unicode="&#x41d;" horiz-adv-x="788" 
d="M96 0l149 700h134l-60 -282h328l60 282h134l-149 -700h-134l64 302h-328l-64 -302h-134z" />
    <glyph glyph-name="afii10032" unicode="&#x41e;" horiz-adv-x="795" 
d="M397 -12c-162 0 -275 88 -275 256c0 131 48 298 157 388c73 61 162 80 263 80c167 0 279 -80 279 -256c0 -140 -54 -306 -149 -383c-81 -65 -173 -85 -275 -85zM425 105c67 0 119 17 159 59c57 61 93 173 93 268c0 109 -51 163 -159 163c-58 0 -106 -13 -146 -47
c-70 -61 -106 -189 -106 -284c0 -109 56 -159 159 -159z" />
    <glyph glyph-name="afii10033" unicode="&#x41f;" horiz-adv-x="771" 
d="M96 0l149 700h579l-149 -700h-135l124 583h-310l-124 -583h-134z" />
    <glyph glyph-name="afii10034" unicode="&#x420;" horiz-adv-x="662" 
d="M96 0l148 698c60 5 129 8 221 8c176 0 251 -69 251 -194c0 -120 -48 -204 -125 -253c-56 -37 -136 -50 -233 -50c-28 0 -59 3 -82 6l-46 -215h-134zM299 331c30 -4 51 -5 83 -5c56 0 104 3 138 30c34 28 52 78 52 137c0 62 -31 96 -132 96c-31 0 -54 0 -86 -3z" />
    <glyph glyph-name="afii10035" unicode="&#x421;" horiz-adv-x="650" 
d="M735 670l-28 -130c-47 33 -103 55 -178 55c-66 0 -114 -17 -156 -52c-68 -58 -109 -187 -109 -282c0 -107 65 -156 176 -156c84 0 153 28 192 51l-27 -130c-53 -22 -114 -38 -202 -38c-164 0 -283 71 -283 252c0 121 54 309 171 400c65 50 150 72 243 72
c88 0 157 -20 201 -42z" />
    <glyph glyph-name="afii10036" unicode="&#x422;" horiz-adv-x="605" 
d="M236 0l124 583h-210l24 117h555l-24 -117h-211l-124 -583h-134z" />
    <glyph glyph-name="afii10037" unicode="&#x423;" horiz-adv-x="685" 
d="M151 11l27 122c17 -14 41 -28 72 -28c29 0 61 32 83 70l-161 525h148l107 -389l234 389h150l-347 -550c-79 -127 -132 -162 -224 -162c-31 0 -68 11 -89 23z" />
    <glyph glyph-name="afii10038" unicode="&#x424;" horiz-adv-x="943" 
d="M400 -20l17 81h-17c-181 0 -275 74 -275 211s62 261 142 317c64 44 146 68 256 68h19l15 63h134l-15 -63h16c145 0 276 -52 276 -223c0 -108 -40 -234 -123 -302c-66 -54 -154 -71 -276 -71h-17l-18 -81h-134zM572 178h18c92 0 124 6 154 31c50 42 81 120 81 206
c0 91 -56 125 -157 125h-18zM444 178l78 362h-17c-70 0 -122 -8 -161 -44c-39 -35 -75 -121 -75 -206c0 -90 61 -112 157 -112h18z" />
    <glyph glyph-name="afii10039" unicode="&#x425;" horiz-adv-x="686" 
d="M23 0l297 362l-130 338h146l94 -246l201 246h166l-282 -340l148 -360h-150l-112 269l-214 -269h-164z" />
    <glyph glyph-name="afii10040" unicode="&#x426;" horiz-adv-x="784" 
d="M96 0l149 700h134l-124 -583h296l125 583h134l-124 -583h88l-53 -247h-120l29 130h-534z" />
    <glyph glyph-name="afii10041" unicode="&#x427;" horiz-adv-x="686" 
d="M456 0l57 271c-36 -17 -88 -31 -164 -31c-121 0 -195 61 -195 158c0 28 8 79 15 116l40 186h134l-37 -169c-8 -39 -14 -76 -14 -95c0 -57 44 -79 111 -79c58 0 100 10 134 27l68 316h134l-149 -700h-134z" />
    <glyph glyph-name="afii10042" unicode="&#x428;" horiz-adv-x="1000" 
d="M96 0l149 700h134l-124 -583h203l124 583h134l-124 -583h203l124 583h134l-149 -700h-808z" />
    <glyph glyph-name="afii10043" unicode="&#x429;" horiz-adv-x="1027" 
d="M96 0l149 700h134l-124 -583h203l124 583h134l-124 -583h203l124 583h134l-124 -583h86l-52 -247h-120l28 130h-775z" />
    <glyph glyph-name="afii10044" unicode="&#x42a;" horiz-adv-x="720" 
d="M149 583l25 117h277l-51 -235c38 4 70 6 105 6c147 0 222 -64 222 -173c0 -237 -148 -304 -357 -304c-73 0 -143 3 -201 10l123 579h-143zM326 113c21 -2 50 -3 75 -3c115 0 183 38 183 161c0 66 -45 84 -125 84c-31 0 -54 -2 -82 -5z" />
    <glyph glyph-name="afii10045" unicode="&#x42b;" horiz-adv-x="904" 
d="M674 0l149 700h134l-149 -700h-134zM298 -6c-73 0 -143 4 -201 11l148 695h134l-50 -234c37 4 69 6 105 6c146 0 222 -65 222 -174c0 -237 -149 -304 -358 -304zM254 113c21 -2 50 -2 76 -2c114 0 182 38 182 160c0 66 -45 84 -125 84c-31 0 -53 -2 -82 -5z" />
    <glyph glyph-name="afii10046" unicode="&#x42c;" horiz-adv-x="648" 
d="M298 -6c-73 0 -143 4 -201 11l148 695h134l-50 -234c37 4 69 6 105 6c146 0 222 -65 222 -174c0 -237 -149 -304 -358 -304zM254 113c21 -2 50 -2 76 -2c114 0 182 38 182 160c0 66 -45 84 -125 84c-31 0 -53 -2 -82 -5z" />
    <glyph glyph-name="afii10047" unicode="&#x42d;" horiz-adv-x="679" 
d="M231 305l22 102h306c1 12 1 23 1 33c0 105 -54 155 -168 155c-82 0 -153 -20 -217 -55l28 134c52 19 128 38 222 38c88 0 160 -22 204 -62c51 -44 75 -113 75 -193c0 -173 -63 -313 -142 -381c-83 -72 -173 -88 -290 -88c-92 0 -166 27 -201 45l28 131
c39 -28 100 -59 192 -59c70 0 126 15 170 50c41 31 66 90 81 150h-311z" />
    <glyph glyph-name="afii10048" unicode="&#x42e;" horiz-adv-x="1058" 
d="M672 -12c-171 0 -264 88 -264 248c0 20 1 41 3 62h-117l-63 -298h-134l148 700h134l-61 -285h116c26 90 71 169 128 216c68 58 143 81 253 81c182 0 269 -89 269 -249c0 -172 -67 -331 -171 -408c-63 -47 -139 -67 -241 -67zM698 105c144 0 243 136 243 336
c0 107 -48 154 -151 154c-66 0 -120 -25 -155 -68c-54 -64 -88 -166 -88 -268s49 -154 151 -154z" />
    <glyph glyph-name="afii10049" unicode="&#x42f;" horiz-adv-x="687" 
d="M39 0l225 261c-58 21 -96 77 -96 148c0 95 38 194 120 248c59 38 143 49 246 49c76 0 155 -3 206 -7l-148 -699h-134l51 239h-113l-200 -239h-157zM533 349l51 237c-35 3 -59 3 -87 3c-56 0 -97 -8 -126 -25c-43 -26 -59 -75 -59 -132s35 -83 114 -83h107z" />
    <glyph glyph-name="afii10065" unicode="&#x430;" horiz-adv-x="671" 
d="M477 0l4 89c-37 -57 -90 -101 -187 -101c-123 0 -194 73 -194 201c0 179 80 363 287 363c103 0 151 -47 169 -109l39 97h110l-115 -540h-113zM233 214c0 -83 49 -116 120 -116c90 0 139 53 159 147l8 40c4 18 5 36 5 49c0 74 -40 108 -116 108
c-127 0 -176 -114 -176 -228z" />
    <glyph glyph-name="afii10066" unicode="&#x431;" horiz-adv-x="662" 
d="M360 -12c-150 0 -244 59 -244 216c0 33 0 70 9 112c63 336 193 409 392 431c92 10 166 17 212 35l-27 -126c-29 -13 -81 -21 -181 -30c-145 -12 -234 -43 -272 -196l-8 -33c58 81 135 125 250 125c116 0 185 -64 185 -183c0 -204 -110 -351 -316 -351zM364 98
c122 0 179 94 179 204c0 76 -46 110 -113 110c-120 0 -181 -81 -181 -198c0 -76 36 -116 115 -116z" />
    <glyph glyph-name="afii10067" unicode="&#x432;" horiz-adv-x="609" 
d="M107 124l89 416c53 3 150 6 223 6c175 0 213 -45 200 -127c-11 -71 -53 -118 -122 -135c64 -10 105 -48 92 -126c-20 -125 -124 -164 -302 -164c-155 0 -200 38 -180 130zM261 236l-19 -93c-7 -34 13 -50 84 -50c90 0 125 21 131 81c7 47 -17 62 -85 62h-111zM278 315h99
c66 0 103 20 110 75c6 41 -14 57 -92 57c-39 0 -65 -1 -89 -3z" />
    <glyph glyph-name="afii10068" unicode="&#x433;" horiz-adv-x="495" 
d="M81 0l115 540h379l-24 -114h-249l-90 -426h-131z" />
    <glyph glyph-name="afii10069" unicode="&#x434;" horiz-adv-x="659" 
d="M347 -12c-163 0 -246 86 -246 218c0 201 110 330 284 330c101 0 168 -48 187 -108c3 16 3 29 3 39c0 137 -87 195 -258 201l22 94c243 -4 348 -102 348 -275c0 -75 -10 -146 -32 -232c-44 -180 -144 -267 -308 -267zM353 98c128 0 178 125 178 213c0 78 -51 115 -126 115
c-116 0 -171 -88 -171 -208c0 -69 36 -120 119 -120z" />
    <glyph glyph-name="afii10070" unicode="&#x435;" horiz-adv-x="595" 
d="M338 -12c-161 0 -239 83 -239 209c0 207 121 355 324 355c155 0 208 -63 208 -144c0 -88 -63 -172 -295 -172h-105c-1 -9 -3 -22 -3 -36c0 -71 43 -110 140 -110c74 0 157 27 205 68l-23 -112c-38 -29 -122 -58 -212 -58zM351 314c122 0 147 37 147 75
c0 33 -17 61 -84 61c-95 0 -145 -47 -167 -136h104z" />
    <glyph glyph-name="afii10072" unicode="&#x436;" horiz-adv-x="845" 
d="M23 0l233 299l-106 241h137l85 -210h55l45 210h130l-45 -210h57l165 210h145l-214 -275l112 -265h-146l-84 220h-58l-46 -220h-130l46 220h-54l-173 -220h-154z" />
    <glyph glyph-name="afii10073" unicode="&#x437;" horiz-adv-x="552" 
d="M61 25l27 126c37 -30 103 -57 182 -57c91 0 128 32 128 85c0 37 -23 54 -102 54h-82l18 84h91c73 0 106 30 106 78c0 35 -21 51 -99 51c-65 0 -125 -19 -183 -53l26 123c60 23 127 36 210 36c134 0 188 -35 188 -108c0 -77 -42 -141 -129 -160c66 -7 98 -40 98 -91
c0 -124 -101 -205 -289 -205c-60 0 -141 10 -190 37z" />
    <glyph glyph-name="afii10074" unicode="&#x438;" horiz-adv-x="649" 
d="M256 -12c-100 0 -149 41 -149 126c0 21 2 44 8 70l76 356h130l-69 -326c-4 -17 -6 -32 -6 -46c0 -49 28 -70 91 -70c84 0 131 44 149 131l67 311h130l-115 -540h-113v85c-49 -67 -112 -97 -199 -97z" />
    <glyph glyph-name="afii10075" unicode="&#x439;" horiz-adv-x="649" 
d="M256 -12c-100 0 -149 41 -149 126c0 21 2 44 8 70l76 356h130l-69 -326c-4 -17 -6 -32 -6 -46c0 -49 28 -70 91 -70c84 0 131 44 149 131l67 311h130l-115 -540h-113v85c-49 -67 -112 -97 -199 -97zM455 620c-80 0 -139 37 -139 120c0 12 1 26 3 40h98
c-2 -10 -3 -20 -3 -28c0 -40 20 -59 57 -59c44 0 79 29 93 87h94c-26 -111 -111 -160 -203 -160z" />
    <glyph glyph-name="afii10076" unicode="&#x43a;" horiz-adv-x="620" 
d="M81 0l115 540h130l-45 -210h65l187 210h156l-238 -267l146 -273h-158l-110 220h-72l-46 -220h-130z" />
    <glyph glyph-name="afii10077" unicode="&#x43b;" horiz-adv-x="639" 
d="M27 1l28 134c9 -4 15 -5 23 -5c60 0 100 70 162 337l17 73h417l-116 -540h-130l91 430h-168l-8 -36c-67 -296 -144 -400 -267 -400c-20 0 -37 2 -49 7z" />
    <glyph glyph-name="afii10078" unicode="&#x43c;" horiz-adv-x="774" 
d="M81 0l115 540h168l78 -288l198 288h168l-115 -540h-125l67 315c7 36 19 69 29 107c-23 -36 -48 -75 -66 -100l-144 -207h-83l-55 206c-7 26 -17 66 -26 101c-5 -36 -9 -72 -17 -109l-67 -313h-125z" />
    <glyph glyph-name="afii10079" unicode="&#x43d;" horiz-adv-x="661" 
d="M81 0l115 540h130l-46 -215h239l46 215h130l-115 -540h-130l45 215h-239l-45 -215h-130z" />
    <glyph glyph-name="afii10080" unicode="&#x43e;" horiz-adv-x="650" 
d="M100 209c0 197 117 343 327 343c128 0 236 -64 236 -213c0 -207 -107 -351 -317 -351c-163 0 -246 89 -246 221zM234 219c0 -73 35 -121 124 -121c122 0 171 126 171 232c0 74 -40 112 -115 112c-118 0 -180 -102 -180 -223z" />
    <glyph glyph-name="afii10081" unicode="&#x43f;" horiz-adv-x="658" 
d="M81 0l115 540h113l-2 -83c47 68 117 95 199 95c104 0 161 -35 161 -127c0 -19 -3 -42 -8 -68l-76 -357h-130l67 316c4 22 7 41 7 56c0 53 -29 70 -97 70c-86 0 -136 -45 -153 -130l-66 -312h-130z" />
    <glyph glyph-name="afii10082" unicode="&#x440;" horiz-adv-x="671" 
d="M42 -180l155 720h112l-5 -87c36 57 89 99 186 99c125 0 195 -72 195 -200c0 -179 -79 -364 -289 -364c-95 0 -150 47 -166 102l-58 -270h-130zM376 98c122 0 176 119 176 231c0 82 -48 113 -120 113c-88 0 -139 -59 -159 -147l-9 -40c-22 -99 35 -157 112 -157z" />
    <glyph glyph-name="afii10083" unicode="&#x441;" horiz-adv-x="560" 
d="M542 151l-26 -115c-34 -22 -94 -48 -179 -48c-140 0 -237 69 -237 215c0 221 123 349 334 349c81 0 137 -19 166 -38l-29 -120c-29 24 -81 48 -145 48c-124 0 -193 -78 -193 -217c0 -76 51 -127 150 -127c62 0 117 24 159 53z" />
    <glyph glyph-name="afii10084" unicode="&#x442;" horiz-adv-x="940" 
d="M81 0l115 540h113l-5 -87c41 67 106 99 185 99c85 0 128 -38 129 -108c43 76 112 108 198 108c95 0 136 -40 136 -116c0 -18 -2 -39 -7 -61l-79 -375h-130l71 339c4 15 6 28 6 40c0 44 -24 63 -81 63c-67 0 -109 -38 -124 -113l-70 -329h-130l72 339c3 15 5 28 5 40
c0 46 -26 63 -78 63c-71 0 -111 -40 -126 -113l-70 -329h-130z" />
    <glyph glyph-name="afii10085" unicode="&#x443;" horiz-adv-x="576" 
d="M76 -179l25 116c14 -9 36 -19 60 -19c35 0 57 24 86 79l-115 543h143l63 -384l195 384h139l-298 -535c-91 -161 -144 -197 -225 -197c-28 0 -58 5 -73 13z" />
    <glyph glyph-name="afii10086" unicode="&#x444;" horiz-adv-x="820" 
d="M305 -180l37 173c-20 -4 -39 -5 -60 -5c-130 0 -187 61 -187 179c0 236 119 385 314 385c20 0 36 -2 50 -5l45 213h130l-45 -213c20 3 38 5 60 5c131 0 191 -52 191 -169c0 -237 -122 -395 -317 -395c-19 0 -36 1 -51 4l-37 -172h-130zM567 440l-72 -340
c9 -2 17 -2 29 -2c111 0 178 101 178 257c0 66 -31 87 -104 87c-12 0 -22 -1 -31 -2zM364 99l72 341c-6 1 -18 2 -30 2c-109 0 -175 -94 -175 -247c0 -65 30 -97 98 -97c13 0 23 0 35 1z" />
    <glyph glyph-name="afii10087" unicode="&#x445;" horiz-adv-x="587" 
d="M24 0l241 279l-114 261h141l76 -179l152 179h147l-226 -259l124 -281h-142l-86 195l-166 -195h-147z" />
    <glyph glyph-name="afii10088" unicode="&#x446;" horiz-adv-x="673" 
d="M81 0l115 540h129l-91 -430h219l90 430h130l-90 -430h80l-51 -240h-121l27 130h-437z" />
    <glyph glyph-name="afii10089" unicode="&#x447;" horiz-adv-x="603" 
d="M392 0l41 198c-33 -13 -92 -23 -138 -23c-106 0 -172 31 -172 118c0 14 2 31 6 49l42 198h130l-36 -164c-3 -11 -4 -20 -4 -30c0 -42 29 -61 90 -61c41 0 77 7 104 17l51 238h130l-114 -540h-130z" />
    <glyph glyph-name="afii10090" unicode="&#x448;" horiz-adv-x="874" 
d="M81 0l115 540h130l-91 -430h161l90 430h130l-90 -430h161l91 430h130l-115 -540h-712z" />
    <glyph glyph-name="afii10091" unicode="&#x449;" horiz-adv-x="908" 
d="M81 0l115 540h130l-91 -430h161l90 430h130l-90 -430h161l91 430h130l-92 -430h82l-52 -240h-122l29 130h-672z" />
    <glyph glyph-name="afii10092" unicode="&#x44a;" horiz-adv-x="666" 
d="M116 430l23 110h267l-36 -164c37 3 59 3 98 3c145 0 202 -40 202 -130c0 -173 -100 -255 -319 -255c-125 0 -172 24 -172 80c0 9 2 19 4 30l70 326h-137zM385 97c96 0 152 29 152 120c0 44 -31 59 -121 59c-23 0 -41 -1 -69 -4l-27 -127c-1 -6 -2 -11 -2 -16
c0 -22 16 -32 67 -32z" />
    <glyph glyph-name="afii10093" unicode="&#x44b;" horiz-adv-x="800" 
d="M261 -6c-117 0 -161 24 -161 80c0 9 1 20 3 30l93 436h130l-35 -164c36 3 52 3 87 3c135 0 193 -41 193 -130c0 -173 -101 -255 -310 -255zM295 97c86 0 142 29 142 120c0 44 -31 59 -111 59c-19 0 -34 -1 -59 -4l-27 -127c-1 -6 -2 -11 -2 -16c0 -22 13 -32 57 -32z
M719 0h-130l115 540h130z" />
    <glyph glyph-name="afii10094" unicode="&#x44c;" horiz-adv-x="585" 
d="M271 -6c-125 0 -172 24 -172 80c0 9 2 19 4 30l93 436h130l-36 -164c37 3 59 3 98 3c145 0 202 -40 202 -130c0 -173 -100 -255 -319 -255zM305 97c96 0 152 29 152 120c0 44 -31 59 -121 59c-23 0 -41 -1 -69 -4l-27 -127c-1 -6 -2 -11 -2 -16c0 -22 16 -32 67 -32z" />
    <glyph glyph-name="afii10095" unicode="&#x44d;" horiz-adv-x="570" 
d="M207 232l18 86h225c-1 78 -39 123 -148 123c-62 0 -127 -21 -170 -51l24 113c37 24 108 49 193 49c135 0 234 -65 234 -212c0 -225 -127 -352 -333 -352c-79 0 -147 19 -177 38l25 119c33 -27 99 -47 165 -47c98 0 157 48 178 134h-234z" />
    <glyph glyph-name="afii10096" unicode="&#x44e;" horiz-adv-x="878" 
d="M81 0l115 540h130l-44 -210h83c37 132 139 222 301 222c127 0 226 -67 226 -211c0 -207 -112 -353 -306 -353c-163 0 -236 87 -236 225l1 7h-93l-47 -220h-130zM589 98c120 0 170 121 170 232c0 67 -32 112 -107 112c-118 0 -176 -99 -176 -220c0 -77 36 -124 113 -124z
" />
    <glyph glyph-name="afii10097" unicode="&#x44f;" horiz-adv-x="616" 
d="M38 0l176 194c-52 17 -77 56 -77 113c0 184 127 239 318 239c131 0 176 -17 176 -78c0 -12 -2 -27 -6 -44l-90 -424h-130l38 175h-110l-153 -175h-142zM465 271l24 117c1 7 2 13 2 19c0 24 -16 33 -68 33c-93 0 -153 -19 -153 -110c0 -45 32 -59 93 -59h102z" />
    <glyph glyph-name="afii10071" unicode="&#x451;" horiz-adv-x="595" 
d="M338 -12c-161 0 -239 83 -239 209c0 207 121 355 324 355c155 0 208 -63 208 -144c0 -88 -63 -172 -295 -172h-105c-1 -9 -3 -22 -3 -36c0 -71 43 -110 140 -110c74 0 157 27 205 68l-23 -112c-38 -29 -122 -58 -212 -58zM351 314c122 0 147 37 147 75
c0 33 -17 61 -84 61c-95 0 -145 -47 -167 -136h104zM353 634c-50 0 -72 22 -72 66s22 66 72 66c49 0 72 -22 72 -66s-23 -66 -72 -66zM555 634c-50 0 -72 22 -72 66s22 66 72 66c49 0 72 -22 72 -66s-23 -66 -72 -66z" />
    <glyph glyph-name="afii10099" unicode="&#x452;" horiz-adv-x="677" 
d="M122 452l19 88h87l46 220h131l-46 -220h193l-19 -88h-193l-37 -175c41 62 105 95 198 95c109 0 157 -40 157 -125c0 -22 -3 -44 -9 -71l-9 -40c-32 -143 -122 -249 -264 -314l-74 63c115 66 181 152 202 230l8 30c3 12 6 28 6 49c0 51 -27 68 -93 68
c-90 0 -135 -47 -154 -129l-28 -133h-130l96 452h-87z" />
    <glyph glyph-name="afii10100" unicode="&#x453;" horiz-adv-x="495" 
d="M81 0l115 540h379l-24 -114h-249l-90 -426h-131zM353 625l124 150h158l-182 -150h-100z" />
    <glyph glyph-name="afii10101" unicode="&#x454;" horiz-adv-x="575" 
d="M557 151l-26 -114c-36 -24 -110 -49 -194 -49c-138 0 -237 68 -237 215c0 225 128 349 334 349c80 0 151 -19 181 -38l-29 -120c-32 27 -100 48 -161 48c-91 0 -154 -44 -179 -124h234l-17 -86h-230v-7c0 -80 55 -127 148 -127c62 0 132 23 176 53z" />
    <glyph glyph-name="afii10102" unicode="&#x455;" horiz-adv-x="533" 
d="M64 23l27 127c34 -33 98 -58 171 -58c81 0 117 25 117 74c0 82 -242 37 -242 189c0 141 106 197 260 197c59 0 118 -9 157 -24l-26 -124c-37 28 -82 45 -149 45c-75 0 -109 -23 -109 -63c0 -81 242 -30 242 -186c0 -154 -120 -212 -270 -212c-60 0 -127 11 -178 35z" />
    <glyph glyph-name="afii10103" unicode="&#x456;" horiz-adv-x="308" 
d="M219 0h-130l115 540h130zM302 631c-54 0 -79 26 -79 69s25 69 79 69c53 0 79 -26 79 -69s-26 -69 -79 -69z" />
    <glyph glyph-name="afii10104" unicode="&#x457;" horiz-adv-x="308" 
d="M219 0h-130l115 540h130zM202 634c-50 0 -72 22 -72 66s22 66 72 66c49 0 72 -22 72 -66s-23 -66 -72 -66zM404 634c-50 0 -72 22 -72 66s22 66 72 66c49 0 72 -22 72 -66s-23 -66 -72 -66z" />
    <glyph glyph-name="afii10105" unicode="&#x458;" horiz-adv-x="308" 
d="M-68 -173l24 111c13 -8 33 -13 57 -13c43 0 63 18 73 64l118 551h130l-118 -553c-27 -123 -84 -173 -198 -173c-45 0 -73 7 -86 13zM302 631c-54 0 -79 26 -79 69s25 69 79 69c53 0 79 -26 79 -69s-26 -69 -79 -69z" />
    <glyph glyph-name="afii10106" unicode="&#x459;" horiz-adv-x="928" 
d="M615 -6c-125 0 -172 24 -172 80c0 9 2 20 4 30l69 326h-166l-8 -36c-67 -296 -143 -400 -266 -400c-20 0 -37 2 -49 6l28 134c9 -3 15 -5 23 -5c60 0 99 70 161 338l17 73h413l-35 -164c36 3 59 3 97 3c146 0 203 -41 203 -130c0 -173 -100 -255 -319 -255zM648 97
c97 0 153 29 153 120c0 44 -32 59 -121 59c-23 0 -41 -1 -69 -4l-27 -127c-1 -6 -2 -11 -2 -16c0 -22 16 -32 66 -32z" />
    <glyph glyph-name="afii10107" unicode="&#x45a;" horiz-adv-x="934" 
d="M620 -6c-124 0 -171 24 -171 80c0 9 1 20 3 30l24 116h-219l-46 -220h-130l115 540h130l-45 -210h219l45 210h130l-35 -164c36 3 59 3 97 3c145 0 203 -41 203 -130c0 -173 -101 -255 -320 -255zM654 97c96 0 152 29 152 120c0 44 -31 59 -121 59c-22 0 -41 -1 -69 -4
l-27 -127c-1 -6 -2 -11 -2 -16c0 -22 16 -32 67 -32z" />
    <glyph glyph-name="afii10108" unicode="&#x45b;" horiz-adv-x="680" 
d="M122 452l19 88h87l47 220h130l-47 -220h194l-19 -88h-193l-37 -175c41 62 105 95 198 95c109 0 160 -40 160 -125c0 -22 -2 -44 -8 -71l-38 -176h-130l31 147c4 17 5 34 5 47c0 51 -30 68 -96 68c-90 0 -135 -47 -154 -129l-28 -133h-130l96 452h-87z" />
    <glyph glyph-name="afii10109" unicode="&#x45c;" horiz-adv-x="620" 
d="M81 0l115 540h130l-45 -210h65l187 210h156l-238 -267l146 -273h-158l-110 220h-72l-46 -220h-130zM396 625l124 150h158l-182 -150h-100z" />
    <glyph glyph-name="afii10110" unicode="&#x45e;" horiz-adv-x="576" 
d="M76 -179l25 116c14 -9 36 -19 60 -19c35 0 57 24 86 79l-115 543h143l63 -384l195 384h139l-298 -535c-91 -161 -144 -197 -225 -197c-28 0 -58 5 -73 13zM421 620c-80 0 -139 37 -139 120c0 12 1 26 3 40h98c-2 -10 -3 -20 -3 -28c0 -40 20 -59 57 -59c44 0 79 29 93 87
h94c-26 -111 -111 -160 -203 -160z" />
    <glyph glyph-name="afii10193" unicode="&#x45f;" horiz-adv-x="651" 
d="M81 0l115 540h130l-91 -430h229l91 430h130l-115 -540h-187l-28 -130h-114l27 130h-187z" />
    <glyph glyph-name="afii10050" unicode="&#x490;" horiz-adv-x="572" 
d="M96 0l148 700h323l28 130h123l-53 -247h-311l-124 -583h-134z" />
    <glyph glyph-name="afii10098" unicode="&#x491;" horiz-adv-x="495" 
d="M81 0l115 540h264l28 130h115l-52 -244h-249l-90 -426h-131z" />
    <glyph glyph-name="uni0492" unicode="&#x492;" horiz-adv-x="585" 
d="M88 303l19 94h86l64 303h446l-25 -117h-311l-40 -186h200l-19 -94h-201l-64 -303h-134l64 303h-85z" />
    <glyph glyph-name="uni0493" unicode="&#x493;" horiz-adv-x="520" 
d="M67 223l19 88h85l49 229h379l-24 -114h-249l-24 -115h150l-19 -88h-150l-47 -223h-131l47 223h-85z" />
    <glyph glyph-name="uni049A" unicode="&#x49a;" horiz-adv-x="735" 
d="M96 0l148 700h134l-61 -285h62l276 285h160l-336 -341l143 -242h136l-53 -247h-120l28 130h-68l-175 298h-77l-63 -298h-134z" />
    <glyph glyph-name="uni049B" unicode="&#x49b;" horiz-adv-x="640" 
d="M81 0l115 540h130l-45 -210h65l187 210h156l-238 -266l87 -164h114l-52 -240h-122l29 130h-68l-110 220h-72l-46 -220h-130z" />
    <glyph glyph-name="uni04A2" unicode="&#x4a2;" horiz-adv-x="815" 
d="M96 0l149 700h134l-60 -282h328l60 282h134l-124 -583h88l-53 -247h-120l28 130h-102l64 302h-328l-64 -302h-134z" />
    <glyph glyph-name="uni04A3" unicode="&#x4a3;" horiz-adv-x="695" 
d="M81 0l115 540h130l-46 -216h239l46 216h130l-92 -430h79l-52 -240h-122l29 130h-87l45 214h-239l-45 -214h-130z" />
    <glyph glyph-name="uni04AE" unicode="&#x4ae;" horiz-adv-x="649" 
d="M258 0l55 260l-149 440h144l98 -294l219 294h159l-337 -439l-55 -261h-134z" />
    <glyph glyph-name="uni04AF" unicode="&#x4af;" horiz-adv-x="580" 
d="M317 -180h-130l38 180l-93 540h141l49 -389l211 389h143l-320 -539z" />
    <glyph glyph-name="uni04B0" unicode="&#x4b0;" horiz-adv-x="649" 
d="M150 211l20 93h128l-134 396h144l98 -294l219 294h159l-304 -396h126l-19 -93h-151l-44 -211h-134l44 211h-152z" />
    <glyph glyph-name="uni04B1" unicode="&#x4b1;" horiz-adv-x="580" 
d="M86 -37l19 87h112l-85 490h141l49 -389l211 389h143l-291 -490h114l-18 -87h-133l-31 -143h-130l31 143h-132z" />
    <glyph glyph-name="uni04BA" unicode="&#x4ba;" horiz-adv-x="686" 
d="M379 700l-57 -271c36 17 88 31 164 31c120 0 195 -61 195 -158c0 -28 -8 -79 -16 -116l-39 -186h-134l36 169c9 39 15 77 15 95c0 57 -44 79 -112 79c-57 0 -100 -10 -134 -27l-67 -316h-134l149 700h134z" />
    <glyph glyph-name="uni04BB" unicode="&#x4bb;" horiz-adv-x="658" 
d="M81 0l162 760h131l-66 -304c42 62 106 96 198 96c110 0 161 -41 161 -126c0 -22 -3 -44 -9 -71l-75 -355h-130l69 326c4 18 5 34 5 47c0 51 -30 69 -96 69c-90 0 -137 -47 -154 -130l-66 -312h-130z" />
    <glyph glyph-name="uni04C0" unicode="&#x4c0;" horiz-adv-x="336" 
d="M101 0l149 700h134l-149 -700h-134z" />
    <glyph glyph-name="uni04CF" unicode="&#x4cf;" horiz-adv-x="308" 
d="M220 0h-130l161 760h130z" />
    <glyph glyph-name="uni04D8" unicode="&#x4d8;" horiz-adv-x="723" 
d="M349 -12c-147 0 -233 73 -233 231c0 57 11 111 24 168h466c4 18 6 36 6 55c0 79 -38 153 -179 153c-69 0 -136 -11 -192 -34l25 123c70 18 138 28 206 28c216 0 282 -104 282 -239c0 -234 -141 -485 -405 -485zM372 99c93 0 179 55 214 191h-333c-5 -21 -9 -46 -9 -70
c0 -78 42 -121 128 -121z" />
    <glyph glyph-name="afii10846" unicode="&#x4d9;" horiz-adv-x="595" 
d="M373 302h105c1 9 3 24 3 38c0 70 -43 110 -139 110c-75 0 -158 -27 -206 -68l23 112c38 28 122 58 212 58c161 0 239 -84 239 -210c0 -207 -121 -354 -324 -354c-155 0 -209 62 -209 143c0 88 63 171 296 171zM358 223c-121 0 -147 -35 -147 -73c0 -33 18 -60 84 -60
c95 0 145 44 167 133h-104z" />
    <glyph glyph-name="uni04E8" unicode="&#x4e8;" horiz-adv-x="795" 
d="M397 -12c-162 0 -275 88 -275 256c0 131 48 298 157 388c73 61 162 80 263 80c167 0 279 -80 279 -256c0 -140 -54 -306 -149 -383c-81 -65 -173 -85 -275 -85zM425 105c67 0 119 17 159 59c33 36 59 88 75 146h-391c-1 -16 -2 -32 -2 -46c0 -109 56 -159 159 -159z
M372 548c-39 -34 -67 -87 -85 -145h389c0 10 1 19 1 29c0 109 -51 163 -159 163c-58 0 -106 -13 -146 -47z" />
    <glyph glyph-name="uni04E9" unicode="&#x4e9;" horiz-adv-x="649" 
d="M100 209c0 197 117 343 327 343c128 0 236 -64 236 -213c0 -207 -107 -351 -317 -351c-163 0 -246 89 -246 221zM414 442c-85 0 -141 -54 -166 -128h281v16c0 74 -40 112 -115 112zM234 219c0 -73 35 -121 124 -121c82 0 131 58 154 128h-278v-7z" />
    <glyph glyph-name="uni1E9E" unicode="&#x1e9e;" horiz-adv-x="712" 
d="M90 0l98 465c37 174 165 247 312 247c97 0 181 -38 235 -125l-182 -179v-1c122 -10 149 -75 149 -140c0 -166 -132 -279 -294 -279c-34 0 -64 2 -92 10l24 115c24 -7 45 -8 64 -8c93 0 154 43 154 141c0 53 -38 78 -125 78h-32l14 68l163 166c-24 27 -53 37 -101 37
c-91 0 -141 -61 -157 -138l-96 -457h-134z" />
    <glyph glyph-name="figuredash" unicode="&#x2012;" 
d="M158 409h449l-18 -105h-450z" />
    <glyph glyph-name="endash" unicode="&#x2013;" horiz-adv-x="720" 
d="M169 333h523l-21 -105h-524z" />
    <glyph glyph-name="emdash" unicode="&#x2014;" horiz-adv-x="883" 
d="M165 333h693l-22 -105h-693z" />
    <glyph glyph-name="quoteleft" unicode="&#x2018;" horiz-adv-x="345" 
d="M420 638c-61 -10 -114 -50 -133 -100c45 0 71 -29 71 -78c0 -57 -33 -88 -94 -88c-52 0 -86 34 -86 88c0 118 79 219 195 252z" />
    <glyph glyph-name="quoteright" unicode="&#x2019;" horiz-adv-x="345" 
d="M154 446c61 10 114 50 133 100c-45 0 -71 29 -71 78c0 57 33 88 94 88c52 0 86 -34 86 -88c0 -118 -79 -219 -195 -252z" />
    <glyph glyph-name="quotesinglbase" unicode="&#x201a;" horiz-adv-x="345" 
d="M37 -106c61 10 114 50 133 100c-45 0 -71 29 -71 78c0 57 33 88 94 88c52 0 86 -34 86 -88c0 -118 -79 -219 -195 -252z" />
    <glyph glyph-name="quotedblleft" unicode="&#x201c;" horiz-adv-x="615" 
d="M420 638c-61 -10 -114 -50 -133 -100c45 0 71 -29 71 -78c0 -57 -33 -88 -94 -88c-52 0 -86 34 -86 88c0 118 79 219 195 252zM690 638c-61 -10 -114 -50 -133 -100c45 0 71 -29 71 -78c0 -57 -33 -88 -94 -88c-52 0 -86 34 -86 88c0 118 79 219 195 252z" />
    <glyph glyph-name="quotedblright" unicode="&#x201d;" horiz-adv-x="615" 
d="M154 446c61 10 114 50 133 100c-45 0 -71 29 -71 78c0 57 33 88 94 88c52 0 86 -34 86 -88c0 -118 -79 -219 -195 -252zM424 446c61 10 114 50 133 100c-45 0 -71 29 -71 78c0 57 33 88 94 88c52 0 86 -34 86 -88c0 -118 -79 -219 -195 -252z" />
    <glyph glyph-name="quotedblbase" unicode="&#x201e;" horiz-adv-x="615" 
d="M37 -106c61 10 114 50 133 100c-45 0 -71 29 -71 78c0 57 33 88 94 88c52 0 86 -34 86 -88c0 -118 -79 -219 -195 -252zM307 -106c61 10 114 50 133 100c-45 0 -71 29 -71 78c0 57 33 88 94 88c52 0 86 -34 86 -88c0 -118 -79 -219 -195 -252z" />
    <glyph glyph-name="dagger" unicode="&#x2020;" horiz-adv-x="548" 
d="M133 440l22 100h176l34 160h116l-34 -160h178l-22 -100h-177l-94 -440h-116l94 440h-177z" />
    <glyph glyph-name="daggerdbl" unicode="&#x2021;" horiz-adv-x="548" 
d="M133 440l22 100h176l34 160h116l-34 -160h178l-22 -100h-177l-39 -180h177l-22 -100h-177l-33 -160h-116l33 160h-177l22 100h177l39 180h-177z" />
    <glyph glyph-name="bullet" unicode="&#x2022;" horiz-adv-x="426" 
d="M287 218c-78 0 -132 54 -132 132s54 132 132 132s132 -54 132 -132s-54 -132 -132 -132z" />
    <glyph glyph-name="ellipsis" unicode="&#x2026;" horiz-adv-x="1048" 
d="M189 -6c-58 0 -85 27 -85 83c0 55 27 83 85 83c57 0 85 -28 85 -83c0 -56 -28 -83 -85 -83zM540 -6c-58 0 -85 27 -85 83c0 55 27 83 85 83c57 0 85 -28 85 -83c0 -56 -28 -83 -85 -83zM891 -6c-58 0 -85 27 -85 83c0 55 27 83 85 83c57 0 85 -28 85 -83
c0 -56 -28 -83 -85 -83z" />
    <glyph glyph-name="perthousand" unicode="&#x2030;" horiz-adv-x="1351" 
d="M689 -6c-86 0 -156 43 -156 135c0 129 96 205 220 205c85 0 152 -43 152 -133c0 -128 -91 -207 -216 -207zM702 73c71 0 109 46 109 113c0 45 -26 69 -72 69c-72 0 -112 -44 -112 -113c0 -44 28 -69 75 -69zM332 366c-86 0 -156 43 -156 135c0 129 96 205 220 205
c85 0 152 -43 152 -133c0 -128 -91 -207 -216 -207zM345 445c71 0 109 46 109 113c0 45 -26 69 -72 69c-72 0 -112 -44 -112 -113c0 -44 28 -69 75 -69zM283 0h-110l625 700h110zM1106 -6c-86 0 -156 43 -156 135c0 129 96 205 220 205c85 0 152 -43 152 -133
c0 -128 -91 -207 -216 -207zM1119 73c71 0 109 46 109 113c0 45 -26 69 -72 69c-72 0 -112 -44 -112 -113c0 -44 28 -69 75 -69z" />
    <glyph glyph-name="guilsinglleft" unicode="&#x2039;" horiz-adv-x="369" 
d="M205 68l-89 212l174 212h126l-180 -219l89 -205h-120z" />
    <glyph glyph-name="guilsinglright" unicode="&#x203a;" horiz-adv-x="369" 
d="M72 68l180 221l-88 203h120l88 -211l-175 -213h-125z" />
    <glyph glyph-name="fraction" unicode="&#x2044;" horiz-adv-x="257" 
d="M-54 0h-110l626 700h110z" />
    <glyph glyph-name="uni2070" unicode="&#x2070;" horiz-adv-x="450" 
d="M305 374c-108 0 -160 45 -160 137c0 25 4 55 11 85c33 149 112 210 241 210c108 0 159 -42 159 -136c0 -23 -3 -49 -11 -81c-33 -149 -112 -215 -240 -215zM321 452c65 0 100 37 122 134c7 31 10 50 10 68c0 52 -22 74 -74 74c-64 0 -98 -35 -121 -126
c-8 -33 -11 -57 -11 -75c0 -52 24 -75 74 -75z" />
    <glyph glyph-name="uni2074" unicode="&#x2074;" horiz-adv-x="450" 
d="M119 467l15 75l290 258h114l-55 -254h57l-16 -79h-57l-19 -87h-95l19 87h-253zM389 546l37 172h-1l-195 -172h159z" />
    <glyph glyph-name="uni2075" unicode="&#x2075;" horiz-adv-x="450" 
d="M280 374c-41 0 -93 4 -137 18l17 81c41 -14 77 -18 131 -18c53 0 118 19 118 75c0 36 -26 53 -93 53c-50 0 -96 -2 -132 -4l60 221h304l-18 -79h-231l-20 -71c28 1 59 2 94 2c99 0 140 -36 140 -104c0 -104 -95 -174 -233 -174z" />
    <glyph glyph-name="uni2076" unicode="&#x2076;" horiz-adv-x="450" 
d="M307 374c-102 0 -155 47 -155 138c0 176 114 294 278 294c46 0 83 -4 115 -12l-17 -80c-34 9 -68 13 -116 13c-78 0 -135 -41 -154 -115c43 27 91 43 147 43c81 0 125 -34 125 -100c0 -107 -91 -181 -223 -181zM325 447c59 0 105 36 105 85c0 35 -24 53 -70 53
c-40 0 -82 -13 -112 -34c-2 -10 -3 -19 -3 -27c0 -49 29 -77 80 -77z" />
    <glyph glyph-name="uni2077" unicode="&#x2077;" horiz-adv-x="450" 
d="M195 380l255 341h-254l18 79h363l-15 -65l-260 -355h-107z" />
    <glyph glyph-name="uni2078" unicode="&#x2078;" horiz-adv-x="450" 
d="M304 374c-114 0 -169 33 -169 100c0 62 48 114 119 126c-43 10 -65 37 -65 78c0 79 82 128 212 128c103 0 157 -31 157 -91c0 -55 -44 -101 -108 -115c50 -9 76 -38 76 -85c0 -88 -85 -141 -222 -141zM320 447c65 0 110 29 110 71c0 33 -26 49 -82 49
c-71 0 -111 -25 -111 -67c0 -35 26 -53 83 -53zM384 734c-65 0 -104 -23 -104 -62c0 -29 25 -44 75 -44c65 0 105 23 105 61c0 30 -25 45 -76 45z" />
    <glyph glyph-name="uni2079" unicode="&#x2079;" horiz-adv-x="450" 
d="M289 374c-57 0 -93 3 -141 14l17 82c42 -13 74 -17 129 -17c76 0 133 45 152 118c-43 -31 -94 -48 -146 -48c-81 0 -129 40 -129 112c0 100 95 171 224 171c103 0 157 -45 157 -134c0 -173 -112 -298 -263 -298zM341 592c38 0 79 15 116 43c1 6 2 16 2 24
c0 48 -31 75 -83 75c-61 0 -105 -35 -105 -85c0 -38 26 -57 70 -57z" />
    <glyph glyph-name="uni2080" unicode="&#x2080;" horiz-adv-x="450" 
d="M204 -106c-108 0 -160 45 -160 137c0 25 4 55 11 85c33 149 112 210 241 210c108 0 159 -42 159 -136c0 -23 -3 -49 -11 -81c-33 -149 -112 -215 -240 -215zM220 -28c65 0 100 37 122 134c7 31 10 50 10 68c0 52 -22 74 -74 74c-64 0 -98 -35 -121 -126
c-8 -33 -11 -57 -11 -75c0 -52 24 -75 74 -75z" />
    <glyph glyph-name="uni2081" unicode="&#x2081;" horiz-adv-x="450" 
d="M197 -100l67 316l-126 -59l-24 70l191 93h81l-90 -420h-99z" />
    <glyph glyph-name="uni2082" unicode="&#x2082;" horiz-adv-x="450" 
d="M29 -100l18 86l146 83c99 56 134 88 134 128c0 32 -27 47 -82 47c-41 0 -93 -8 -133 -26l18 85c52 17 99 23 145 23c106 0 158 -33 158 -102c0 -70 -54 -123 -202 -204l-66 -36v-1h223l-18 -83h-341z" />
    <glyph glyph-name="uni2083" unicode="&#x2083;" horiz-adv-x="450" 
d="M170 -106c-36 0 -92 3 -138 19l17 83c42 -19 89 -21 131 -21c47 0 117 6 117 63c0 33 -23 43 -78 43h-83l15 69h74c39 0 99 7 99 54c0 31 -24 42 -87 42c-45 0 -94 -6 -131 -19l17 80c49 16 111 19 162 19c109 0 146 -38 146 -91c0 -69 -64 -99 -127 -115v-2
c73 -11 94 -41 94 -84c0 -106 -135 -140 -228 -140z" />
    <glyph glyph-name="uni2084" unicode="&#x2084;" horiz-adv-x="450" 
d="M21 -13l15 75l290 258h114l-55 -254h57l-16 -79h-57l-19 -87h-95l19 87h-253zM291 66l37 172h-1l-195 -172h159z" />
    <glyph glyph-name="uni2085" unicode="&#x2085;" horiz-adv-x="450" 
d="M178 -106c-41 0 -93 4 -137 18l17 81c41 -14 77 -18 131 -18c53 0 118 19 118 75c0 36 -26 53 -93 53c-50 0 -96 -2 -132 -4l60 221h304l-18 -79h-231l-20 -71c28 1 59 2 94 2c99 0 140 -36 140 -104c0 -104 -95 -174 -233 -174z" />
    <glyph glyph-name="uni2086" unicode="&#x2086;" horiz-adv-x="450" 
d="M208 -106c-102 0 -155 47 -155 138c0 176 114 294 278 294c46 0 83 -4 115 -12l-17 -80c-34 9 -68 13 -116 13c-78 0 -135 -41 -154 -115c43 27 91 43 147 43c81 0 125 -34 125 -100c0 -107 -91 -181 -223 -181zM226 -33c59 0 105 36 105 85c0 35 -24 53 -70 53
c-40 0 -82 -13 -112 -34c-2 -10 -3 -19 -3 -27c0 -49 29 -77 80 -77z" />
    <glyph glyph-name="uni2087" unicode="&#x2087;" horiz-adv-x="450" 
d="M93 -100l255 341h-254l18 79h363l-15 -65l-260 -355h-107z" />
    <glyph glyph-name="uni2088" unicode="&#x2088;" horiz-adv-x="450" 
d="M202 -106c-114 0 -169 33 -169 100c0 62 48 114 119 126c-43 10 -65 37 -65 78c0 79 82 128 212 128c103 0 157 -31 157 -91c0 -55 -44 -101 -108 -115c50 -9 76 -38 76 -85c0 -88 -85 -141 -222 -141zM218 -33c65 0 110 29 110 71c0 33 -26 49 -82 49
c-71 0 -111 -25 -111 -67c0 -35 26 -53 83 -53zM282 254c-65 0 -104 -23 -104 -62c0 -29 25 -44 75 -44c65 0 105 23 105 61c0 30 -25 45 -76 45z" />
    <glyph glyph-name="uni2089" unicode="&#x2089;" horiz-adv-x="450" 
d="M209 -106c-57 0 -93 3 -141 14l17 82c42 -13 74 -17 129 -17c76 0 133 45 152 118c-43 -31 -94 -48 -146 -48c-81 0 -129 40 -129 112c0 100 95 171 224 171c103 0 157 -45 157 -134c0 -173 -112 -298 -263 -298zM261 112c38 0 79 15 116 43c1 6 2 16 2 24
c0 48 -31 75 -83 75c-61 0 -105 -35 -105 -85c0 -38 26 -57 70 -57z" />
    <glyph glyph-name="Euro" unicode="&#x20ac;" 
d="M105 388l47 94h56c60 143 178 230 330 230c82 0 128 -11 188 -45l-52 -107c-40 24 -82 35 -129 35c-84 0 -151 -41 -193 -113h283l-45 -94h-276c-5 -22 -9 -46 -11 -70h253l-46 -94h-208c10 -82 55 -119 146 -119c73 0 129 25 168 48l-27 -130c-53 -22 -101 -35 -180 -35
c-150 0 -240 88 -246 236h-91l46 94h49c2 24 6 47 11 70h-73z" />
    <glyph glyph-name="uni20B4" unicode="&#x20b4;" 
d="M150 391l21 94h289c26 24 43 49 43 73c0 36 -39 47 -80 47c-59 0 -100 -6 -161 -23l23 109c57 13 133 21 186 21c113 0 175 -42 175 -117c0 -40 -16 -76 -42 -110h49l-20 -94h-125c-31 -24 -63 -47 -94 -69h205l-21 -95h-297c-20 -23 -32 -46 -32 -70
c0 -41 42 -62 112 -62c51 0 108 9 156 27l-23 -110c-63 -18 -125 -24 -190 -24c-123 0 -199 53 -199 140c0 35 11 68 31 99h-40l20 95h108c30 24 61 47 92 69h-186z" />
    <glyph glyph-name="uni20B8" unicode="&#x20b8;" 
d="M242 0l94 442h-211l20 94h555l-20 -94h-210l-94 -442h-134zM160 606l20 94h555l-20 -94h-555z" />
    <glyph glyph-name="uni20BD" unicode="&#x20bd;" 
d="M54 111l19 94h79l15 69h-79l26 118h78l66 308c88 5 127 6 210 6c152 0 225 -57 225 -178c0 -173 -99 -254 -310 -254h-82l-15 -69h207l-20 -94h-207l-23 -111h-134l23 111h-78zM368 586l-42 -194h76c102 0 147 35 147 114c0 57 -33 83 -103 83c-31 0 -48 0 -78 -3z" />
    <glyph glyph-name="afii61352" unicode="&#x2116;" horiz-adv-x="1163" 
d="M826 199l20 96h305l-20 -96h-305zM97 0l148 700h138l176 -417c16 -38 31 -69 43 -111c3 42 7 72 15 112l88 416h134l-148 -700h-138l-177 416c-17 40 -28 70 -39 112c-5 -42 -9 -72 -18 -112l-88 -416h-134zM869 497c0 128 67 209 216 209c94 0 149 -45 149 -123
c0 -136 -73 -209 -217 -209c-89 0 -148 48 -148 123zM1069 631c-69 0 -101 -46 -101 -120c0 -43 27 -62 67 -62c64 0 101 45 101 121c0 43 -26 61 -67 61z" />
    <glyph glyph-name="uni2120" unicode="&#x2120;" horiz-adv-x="857" 
d="M306 374c-34 0 -81 6 -117 19v79c24 -18 68 -32 116 -32c53 0 73 9 73 36c0 58 -194 11 -194 136c0 62 35 94 154 94c34 0 76 -6 103 -16v-74c-25 15 -59 26 -103 26c-53 0 -69 -8 -69 -28c0 -60 193 -8 193 -134c0 -70 -38 -106 -156 -106zM518 380v320h90l94 -172h1
l92 172h91v-320h-78v208h-1l-80 -141h-51l-80 141h-1v-208h-77z" />
    <glyph glyph-name="trademark" unicode="&#x2122;" horiz-adv-x="831" 
d="M282 380v249h-101v71h285v-71h-102v-249h-82zM513 380v320h90l93 -172h2l92 172h90v-320h-77v208h-1l-80 -141h-51l-80 141h-1v-208h-77z" />
    <glyph glyph-name="onethird" unicode="&#x2153;" horiz-adv-x="950" 
d="M243 0h-110l626 700h110zM225 280l67 316l-126 -59l-24 70l191 93h81l-90 -420h-99zM705 -6c-36 0 -92 3 -138 19l17 83c42 -19 89 -21 131 -21c47 0 117 6 117 63c0 33 -23 43 -78 43h-83l15 69h74c39 0 99 7 99 54c0 31 -24 42 -87 42c-45 0 -94 -6 -131 -19l17 80
c49 16 111 19 162 19c109 0 146 -38 146 -91c0 -69 -64 -99 -127 -115v-2c73 -11 94 -41 94 -84c0 -106 -135 -140 -228 -140z" />
    <glyph glyph-name="twothirds" unicode="&#x2154;" horiz-adv-x="950" 
d="M299 0h-110l626 700h110zM73 280l18 86l146 83c99 56 134 88 134 128c0 32 -27 47 -82 47c-41 0 -93 -8 -133 -26l18 85c52 17 99 23 145 23c106 0 158 -33 158 -102c0 -70 -54 -123 -202 -204l-66 -36v-1h223l-18 -83h-341zM731 -6c-36 0 -92 3 -138 19l17 83
c42 -19 89 -21 131 -21c47 0 117 6 117 63c0 33 -23 43 -78 43h-83l15 69h74c39 0 99 7 99 54c0 31 -24 42 -87 42c-45 0 -94 -6 -131 -19l17 80c49 16 111 19 162 19c109 0 146 -38 146 -91c0 -69 -64 -99 -127 -115v-2c73 -11 94 -41 94 -84c0 -106 -135 -140 -228 -140z
" />
    <glyph glyph-name="oneeighth" unicode="&#x215b;" horiz-adv-x="950" 
d="M246 0h-110l626 700h110zM228 280l67 316l-126 -59l-24 70l191 93h81l-90 -420h-99zM722 -6c-114 0 -169 33 -169 100c0 62 48 114 119 126c-43 10 -65 37 -65 78c0 79 82 128 212 128c103 0 157 -31 157 -91c0 -55 -44 -101 -108 -115c50 -9 76 -38 76 -85
c0 -88 -85 -141 -222 -141zM738 67c65 0 110 29 110 71c0 33 -26 49 -82 49c-71 0 -111 -25 -111 -67c0 -35 26 -53 83 -53zM802 354c-65 0 -104 -23 -104 -62c0 -29 25 -44 75 -44c65 0 105 23 105 61c0 30 -25 45 -76 45z" />
    <glyph glyph-name="threeeighths" unicode="&#x215c;" horiz-adv-x="950" 
d="M269 0h-110l626 700h110zM224 274c-36 0 -92 3 -138 19l17 83c42 -19 89 -21 131 -21c47 0 117 6 117 63c0 33 -23 43 -78 43h-83l15 69h74c39 0 99 7 99 54c0 31 -24 42 -87 42c-45 0 -94 -6 -131 -19l17 80c49 16 111 19 162 19c109 0 146 -38 146 -91
c0 -69 -64 -99 -127 -115v-2c73 -11 94 -41 94 -84c0 -106 -135 -140 -228 -140zM722 -6c-114 0 -169 33 -169 100c0 62 48 114 119 126c-43 10 -65 37 -65 78c0 79 82 128 212 128c103 0 157 -31 157 -91c0 -55 -44 -101 -108 -115c50 -9 76 -38 76 -85
c0 -88 -85 -141 -222 -141zM738 67c65 0 110 29 110 71c0 33 -26 49 -82 49c-71 0 -111 -25 -111 -67c0 -35 26 -53 83 -53zM802 354c-65 0 -104 -23 -104 -62c0 -29 25 -44 75 -44c65 0 105 23 105 61c0 30 -25 45 -76 45z" />
    <glyph glyph-name="fiveeighths" unicode="&#x215d;" horiz-adv-x="950" 
d="M264 0h-110l626 700h110zM227 274c-41 0 -93 4 -137 18l17 81c41 -14 77 -18 131 -18c53 0 118 19 118 75c0 36 -26 53 -93 53c-50 0 -96 -2 -132 -4l60 221h304l-18 -79h-231l-20 -71c28 1 59 2 94 2c99 0 140 -36 140 -104c0 -104 -95 -174 -233 -174zM719 -6
c-114 0 -169 33 -169 100c0 62 48 114 119 126c-43 10 -65 37 -65 78c0 79 82 128 212 128c103 0 157 -31 157 -91c0 -55 -44 -101 -108 -115c50 -9 76 -38 76 -85c0 -88 -85 -141 -222 -141zM735 67c65 0 110 29 110 71c0 33 -26 49 -82 49c-71 0 -111 -25 -111 -67
c0 -35 26 -53 83 -53zM799 354c-65 0 -104 -23 -104 -62c0 -29 25 -44 75 -44c65 0 105 23 105 61c0 30 -25 45 -76 45z" />
    <glyph glyph-name="seveneighths" unicode="&#x215e;" horiz-adv-x="950" 
d="M222 0h-110l626 700h110zM160 280l255 341h-254l18 79h363l-15 -65l-260 -355h-107zM715 -6c-114 0 -169 33 -169 100c0 62 48 114 119 126c-43 10 -65 37 -65 78c0 79 82 128 212 128c103 0 157 -31 157 -91c0 -55 -44 -101 -108 -115c50 -9 76 -38 76 -85
c0 -88 -85 -141 -222 -141zM731 67c65 0 110 29 110 71c0 33 -26 49 -82 49c-71 0 -111 -25 -111 -67c0 -35 26 -53 83 -53zM795 354c-65 0 -104 -23 -104 -62c0 -29 25 -44 75 -44c65 0 105 23 105 61c0 30 -25 45 -76 45z" />
    <glyph glyph-name="minus" unicode="&#x2212;" 
d="M154 382h448v-110h-448v110z" />
    <glyph glyph-name="infinity" unicode="&#x221e;" horiz-adv-x="718" 
d="M486 236l-52 53l-52 -54c-35 -38 -78 -49 -119 -49c-105 0 -150 88 -150 163c0 74 45 166 150 166c37 0 82 -11 120 -50l51 -54l54 56c32 34 76 48 117 48c99 0 150 -79 150 -166c0 -73 -44 -163 -151 -163c-39 0 -81 12 -118 50zM486 349l44 -44c20 -20 41 -31 68 -31
c42 0 67 33 67 75c0 47 -29 77 -66 77c-26 0 -50 -7 -76 -37zM383 349l-46 47c-20 22 -38 30 -66 30c-47 0 -67 -38 -67 -77c0 -47 29 -74 65 -74c24 0 50 9 76 35z" />
    <glyph glyph-name="approxequal" unicode="&#x2248;" 
d="M490 125c-85 0 -150 76 -221 76c-45 0 -92 -27 -115 -54v111c29 32 72 53 117 53c84 0 157 -76 229 -76c37 0 76 17 102 49v-112c-24 -26 -65 -47 -112 -47zM490 339c-85 0 -150 76 -221 76c-45 0 -92 -27 -115 -54v111c29 32 72 53 117 53c84 0 157 -76 229 -76
c37 0 76 17 102 49v-112c-24 -26 -65 -47 -112 -47z" />
    <glyph glyph-name="notequal" unicode="&#x2260;" 
d="M154 489h264l50 96h88l-50 -96h96v-110h-153l-54 -104h207v-110h-264l-50 -96h-88l50 96h-96v110h153l54 104h-207v110z" />
    <glyph glyph-name="lessequal" unicode="&#x2264;" 
d="M589 206l-448 166v109l448 167v-112l-300 -106v-2l300 -106v-116zM142 162h448v-110h-448v110z" />
    <glyph glyph-name="greaterequal" unicode="&#x2265;" 
d="M159 206v111l300 106v2l-300 106v117l448 -167v-110zM160 162h448v-110h-448v110z" />
    <glyph glyph-name="lozenge" unicode="&#x25ca;" 
d="M383 -12l-262 362l262 362l263 -362zM383 158l140 192l-140 191l-140 -191z" />
    <glyph glyph-name="uniF406" unicode="&#xf406;" horiz-adv-x="359" 
d="M201 899l83 21c4 -50 29 -76 75 -76s81 26 108 76l74 -21c-44 -91 -111 -139 -200 -139s-136 48 -140 139z" />
    <glyph glyph-name="uniF407" unicode="&#xf407;" horiz-adv-x="250" 
d="M51 -254c-42 0 -69 6 -92 17l23 60c18 -9 37 -13 62 -13c32 0 70 15 70 53c0 25 -29 32 -56 32c-10 0 -25 0 -35 -2l40 107h73l-22 -54c54 0 97 -19 97 -70c0 -84 -84 -130 -160 -130z" />
    <glyph glyph-name="uniF408" unicode="&#xf408;" horiz-adv-x="396" 
d="M171 760l155 160h134l87 -160h-98l-64 96l-108 -96h-106z" />
    <glyph glyph-name="uniF409" unicode="&#xf409;" horiz-adv-x="185" 
d="M-28 -246l11 50c42 3 75 14 86 48c-6 -1 -12 -1 -17 -1c-42 0 -64 14 -64 40c0 46 45 62 93 62c41 0 69 -19 69 -57c0 -76 -73 -138 -178 -142z" />
    <glyph glyph-name="uniF40A" unicode="&#xf40a;" horiz-adv-x="260" 
d="M145 486l100 214h122l-134 -214h-88z" />
    <glyph glyph-name="uniF40B" unicode="&#xf40b;" horiz-adv-x="177" 
d="M267 769c-52 0 -76 25 -76 71s24 71 76 71s76 -25 76 -71s-24 -71 -76 -71z" />
    <glyph glyph-name="uniF40C" unicode="&#xf40c;" horiz-adv-x="246" 
d="M302 736c-66 0 -110 44 -110 104s44 104 110 104s110 -44 110 -104s-44 -104 -110 -104zM302 795c28 0 46 19 46 45c0 27 -18 45 -46 45s-46 -18 -46 -45c0 -26 18 -45 46 -45z" />
    <glyph glyph-name="uniF40D" unicode="&#xf40d;" horiz-adv-x="363" 
d="M249 776l-69 12c4 75 49 116 105 116c28 0 50 -11 82 -25s44 -21 61 -21c21 0 38 15 43 46l69 -13c-5 -72 -50 -115 -105 -115c-29 0 -44 5 -82 24c-28 13 -42 23 -60 23s-38 -15 -44 -47z" />
    <glyph glyph-name="uniF40E" unicode="&#xf40e;" horiz-adv-x="237" 
d="M79 -254c-77 0 -104 36 -104 78c0 86 92 151 160 186l58 -8c-48 -28 -118 -84 -118 -146c0 -26 20 -40 50 -40c23 0 44 5 66 17l-14 -66c-25 -11 -58 -21 -98 -21z" />
    <glyph glyph-name="zero.tab" unicode="&#xf4e0;" horiz-adv-x="638" 
d="M314 -12c-141 0 -204 84 -204 219c0 110 36 275 109 379c63 89 141 126 251 126c143 0 202 -81 202 -214c0 -115 -35 -248 -87 -341c-71 -127 -154 -169 -271 -169zM339 95c59 0 94 34 129 105c40 80 71 210 71 286c0 71 -25 119 -96 119c-60 0 -92 -37 -127 -104
c-40 -77 -73 -195 -73 -286c0 -73 26 -120 96 -120z" />
    <glyph glyph-name="one.tab" unicode="&#xf4e1;" horiz-adv-x="638" 
d="M76 110h210l94 440l-235 -118l26 124l281 144h92l-125 -590h146l-23 -110h-489z" />
    <glyph glyph-name="two.tab" unicode="&#xf4e2;" horiz-adv-x="638" 
d="M69 0l18 87c93 63 209 147 275 198c126 96 171 142 171 209c0 77 -34 106 -137 106c-76 0 -147 -32 -206 -70l28 135c62 28 141 47 228 47c151 0 218 -74 218 -184c0 -126 -65 -189 -219 -305c-41 -31 -94 -71 -153 -107h296l-25 -116h-494z" />
    <glyph glyph-name="three.tab" unicode="&#xf4e3;" horiz-adv-x="638" 
d="M26 40l29 123c42 -34 114 -65 200 -65c106 0 180 26 180 126c0 52 -40 78 -140 78h-75l22 106h67c115 0 176 36 176 110c0 57 -34 84 -127 84c-80 0 -162 -24 -218 -55l29 123c69 27 160 42 243 42c154 0 206 -67 206 -151c0 -107 -65 -176 -178 -204
c88 -14 128 -56 128 -139c0 -86 -43 -149 -112 -188c-61 -35 -125 -42 -211 -42s-167 24 -219 52z" />
    <glyph glyph-name="four.tab" unicode="&#xf4e4;" horiz-adv-x="638" 
d="M24 169l16 73l398 458h168l-90 -420h86l-23 -111h-86l-36 -169h-130l36 169h-339zM205 280h183l60 281z" />
    <glyph glyph-name="five.tab" unicode="&#xf4e5;" horiz-adv-x="638" 
d="M125 325l105 375h410l-24 -110h-304l-44 -152c25 4 71 7 110 7c140 0 209 -64 209 -177c0 -195 -146 -280 -330 -280c-78 0 -152 16 -205 39l27 124c40 -28 109 -53 185 -53c98 0 190 39 190 146c0 87 -78 98 -162 98c-55 0 -123 -8 -167 -17z" />
    <glyph glyph-name="six.tab" unicode="&#xf4e6;" horiz-adv-x="650" 
d="M686 680l-28 -122c-29 21 -73 44 -153 44c-157 0 -233 -109 -258 -252c48 64 105 108 208 108c123 0 193 -73 193 -188c0 -176 -121 -282 -304 -282c-150 0 -230 82 -230 233c0 164 61 336 178 424c67 50 144 67 237 67c60 0 117 -13 157 -32zM353 98
c100 0 162 61 162 152c0 69 -39 105 -111 105c-91 0 -157 -56 -157 -142c0 -72 35 -115 106 -115z" />
    <glyph glyph-name="seven.tab" unicode="&#xf4e7;" horiz-adv-x="650" 
d="M151 0l394 590h-356l24 110h517l-16 -71l-410 -629h-153z" />
    <glyph glyph-name="eight.tab" unicode="&#xf4e8;" horiz-adv-x="650" 
d="M314 -12c-117 0 -222 48 -222 181c0 115 75 187 183 206c-66 21 -94 59 -94 125c0 156 148 212 282 212c115 0 227 -45 227 -163c0 -97 -61 -156 -159 -181c75 -16 108 -69 108 -141c0 -85 -38 -153 -109 -194c-58 -33 -140 -45 -216 -45zM345 97c86 0 161 35 161 129
c0 74 -59 97 -121 97c-80 0 -160 -37 -160 -126c0 -69 54 -100 120 -100zM451 602c-75 0 -137 -29 -137 -112c0 -55 44 -82 100 -82c77 0 143 29 143 114c0 62 -51 80 -106 80z" />
    <glyph glyph-name="nine.tab" unicode="&#xf4e9;" horiz-adv-x="650" 
d="M272 -12c-60 0 -127 16 -164 34l27 125c23 -18 86 -49 160 -49c159 0 227 113 251 253c-38 -65 -106 -109 -204 -109c-118 0 -198 70 -198 186c0 86 33 157 83 206c53 52 117 78 213 78c168 0 242 -94 242 -257c0 -144 -48 -272 -104 -337c-72 -86 -161 -130 -306 -130z
M387 346c94 0 162 51 162 143c0 72 -45 113 -116 113c-104 0 -156 -71 -156 -158c0 -66 46 -98 110 -98z" />
    <glyph glyph-name="dollar.tab" unicode="&#xf4ec;" horiz-adv-x="650" 
d="M247 -120l24 110c-70 7 -145 29 -184 56l29 135c49 -51 128 -81 207 -81c100 0 154 35 154 100c0 130 -297 81 -297 290c0 124 95 209 245 221l19 89h103l-19 -91c61 -7 121 -23 155 -42l-28 -133c-47 39 -116 66 -189 66c-94 0 -142 -27 -142 -84
c0 -132 296 -88 296 -295c0 -134 -89 -216 -246 -231l-24 -110h-103z" />
    <glyph glyph-name="Euro.tab" unicode="&#xf4ed;" horiz-adv-x="651" 
d="M121 388l47 94h56c60 143 178 230 330 230c82 0 128 -11 188 -45l-52 -107c-40 24 -82 35 -129 35c-84 0 -151 -41 -193 -113h283l-45 -94h-276c-5 -22 -9 -46 -11 -70h253l-46 -94h-208c10 -82 55 -119 146 -119c73 0 129 25 168 48l-27 -130c-53 -22 -101 -35 -180 -35
c-150 0 -240 88 -246 236h-91l46 94h49c2 24 6 47 11 70h-73z" />
    <glyph glyph-name="cent.tab" unicode="&#xf4ee;" horiz-adv-x="650" 
d="M597 150l-26 -114c-31 -21 -82 -44 -162 -48l-23 -108h-98l24 113c-110 18 -177 88 -177 210c0 204 106 327 296 345l19 92h98l-19 -92c63 -6 104 -22 127 -36l-28 -120c-30 24 -81 48 -156 48c-133 0 -204 -76 -204 -215c0 -76 51 -128 160 -128c72 0 127 24 169 53z
" />
    <glyph glyph-name="sterling.tab" unicode="&#xf4ef;" horiz-adv-x="650" 
d="M156 319l18 90h86l15 67c35 158 132 236 293 236c49 0 101 -7 142 -19l-25 -117c-45 14 -79 19 -118 19c-96 0 -141 -37 -161 -129l-12 -57h166l-18 -90h-168l-43 -203h256l-24 -116h-475l24 116h85l44 203h-85z" />
    <glyph glyph-name="yen.tab" unicode="&#xf4fa;" horiz-adv-x="650" 
d="M147 280l20 94h120l-108 326h145l89 -284l196 284h159l-245 -326h120l-20 -94h-171l-15 -69h171l-20 -94h-171l-25 -117h-134l25 117h-170l19 94h171l15 69h-171z" />
    <glyph glyph-name="florin.tab" unicode="&#xf4fb;" horiz-adv-x="650" 
d="M239 430l22 110h101l9 41c25 116 84 185 209 185c29 0 57 -4 84 -8l-22 -102c-9 2 -31 6 -55 6c-61 0 -82 -27 -99 -105l-4 -17h132l-23 -110h-132l-87 -413c-30 -143 -88 -203 -212 -203c-23 0 -41 3 -54 6l21 104c9 -2 17 -3 29 -3c43 0 75 10 93 94l87 415h-99z" />
    <glyph glyph-name="uni20B4.tab" unicode="&#xf4fc;" horiz-adv-x="657" 
d="M169 391l21 94h289c26 24 43 49 43 73c0 36 -39 47 -80 47c-59 0 -100 -6 -161 -23l23 109c57 13 133 21 186 21c113 0 175 -42 175 -117c0 -40 -16 -76 -42 -110h49l-20 -94h-125c-31 -24 -63 -47 -94 -69h205l-21 -95h-297c-20 -23 -32 -46 -32 -70
c0 -41 42 -62 112 -62c51 0 108 9 156 27l-23 -110c-63 -18 -125 -24 -190 -24c-123 0 -199 53 -199 140c0 35 11 68 31 99h-40l20 95h108c30 24 61 47 92 69h-186z" />
    <glyph glyph-name="uni20BD.tab" unicode="&#xf4fd;" horiz-adv-x="650" 
d="M70 111l19 94h79l15 69h-79l26 118h78l66 308c88 5 127 6 210 6c152 0 225 -57 225 -178c0 -173 -99 -254 -310 -254h-82l-15 -69h207l-20 -94h-207l-23 -111h-134l23 111h-78zM384 586l-42 -194h76c102 0 147 35 147 114c0 57 -33 83 -103 83c-31 0 -48 0 -78 -3z" />
    <glyph glyph-name="uni20B8.tab" unicode="&#xf5f3;" horiz-adv-x="650" 
d="M258 0l94 442h-211l20 94h555l-20 -94h-210l-94 -442h-134zM176 606l20 94h555l-20 -94h-555z" />
    <glyph glyph-name="zero.denominator" unicode="&#xf655;" horiz-adv-x="450" 
d="M225 -6c-108 0 -160 45 -160 137c0 25 4 55 11 85c33 149 112 210 241 210c108 0 159 -42 159 -136c0 -23 -3 -49 -11 -81c-33 -149 -112 -215 -240 -215zM241 72c65 0 100 37 122 134c7 31 10 50 10 68c0 52 -22 74 -74 74c-64 0 -98 -35 -121 -126
c-8 -33 -11 -57 -11 -75c0 -52 24 -75 74 -75z" />
    <glyph glyph-name="one.denominator" unicode="&#xf656;" horiz-adv-x="450" 
d="M218 0l67 316l-126 -59l-24 70l191 93h81l-90 -420h-99z" />
    <glyph glyph-name="two.denominator" unicode="&#xf657;" horiz-adv-x="450" 
d="M50 0l18 86l146 83c99 56 134 88 134 128c0 32 -27 47 -82 47c-41 0 -93 -8 -133 -26l18 85c52 17 99 23 145 23c106 0 158 -33 158 -102c0 -70 -54 -123 -202 -204l-66 -36v-1h223l-18 -83h-341z" />
    <glyph glyph-name="three.denominator" unicode="&#xf658;" horiz-adv-x="450" 
d="M192 -6c-36 0 -92 3 -138 19l17 83c42 -19 89 -21 131 -21c47 0 117 6 117 63c0 33 -23 43 -78 43h-83l15 69h74c39 0 99 7 99 54c0 31 -24 42 -87 42c-45 0 -94 -6 -131 -19l17 80c49 16 111 19 162 19c109 0 146 -38 146 -91c0 -69 -64 -99 -127 -115v-2
c73 -11 94 -41 94 -84c0 -106 -135 -140 -228 -140z" />
    <glyph glyph-name="four.denominator" unicode="&#xf659;" horiz-adv-x="450" 
d="M38 87l15 75l290 258h114l-55 -254h57l-16 -79h-57l-19 -87h-95l19 87h-253zM308 166l37 172h-1l-195 -172h159z" />
    <glyph glyph-name="five.denominator" unicode="&#xf65a;" horiz-adv-x="450" 
d="M200 -6c-41 0 -93 4 -137 18l17 81c41 -14 77 -18 131 -18c53 0 118 19 118 75c0 36 -26 53 -93 53c-50 0 -96 -2 -132 -4l60 221h304l-18 -79h-231l-20 -71c28 1 59 2 94 2c99 0 140 -36 140 -104c0 -104 -95 -174 -233 -174z" />
    <glyph glyph-name="six.denominator" unicode="&#xf65b;" horiz-adv-x="450" 
d="M226 -6c-102 0 -155 47 -155 138c0 176 114 294 278 294c46 0 83 -4 115 -12l-17 -80c-34 9 -68 13 -116 13c-78 0 -135 -41 -154 -115c43 27 91 43 147 43c81 0 125 -34 125 -100c0 -107 -91 -181 -223 -181zM244 67c59 0 105 36 105 85c0 35 -24 53 -70 53
c-40 0 -82 -13 -112 -34c-2 -10 -3 -19 -3 -27c0 -49 29 -77 80 -77z" />
    <glyph glyph-name="seven.denominator" unicode="&#xf65c;" horiz-adv-x="450" 
d="M115 0l255 341h-254l18 79h363l-15 -65l-260 -355h-107z" />
    <glyph glyph-name="eight.denominator" unicode="&#xf65d;" horiz-adv-x="450" 
d="M223 -6c-114 0 -169 33 -169 100c0 62 48 114 119 126c-43 10 -65 37 -65 78c0 79 82 128 212 128c103 0 157 -31 157 -91c0 -55 -44 -101 -108 -115c50 -9 76 -38 76 -85c0 -88 -85 -141 -222 -141zM239 67c65 0 110 29 110 71c0 33 -26 49 -82 49
c-71 0 -111 -25 -111 -67c0 -35 26 -53 83 -53zM303 354c-65 0 -104 -23 -104 -62c0 -29 25 -44 75 -44c65 0 105 23 105 61c0 30 -25 45 -76 45z" />
    <glyph glyph-name="nine.denominator" unicode="&#xf65e;" horiz-adv-x="450" 
d="M209 -6c-57 0 -93 3 -141 14l17 82c42 -13 74 -17 129 -17c76 0 133 45 152 118c-43 -31 -94 -48 -146 -48c-81 0 -129 40 -129 112c0 100 95 171 224 171c103 0 157 -45 157 -134c0 -173 -112 -298 -263 -298zM261 212c38 0 79 15 116 43c1 6 2 16 2 24
c0 48 -31 75 -83 75c-61 0 -105 -35 -105 -85c0 -38 26 -57 70 -57z" />
    <glyph glyph-name="zero.numerator" unicode="&#xf661;" horiz-adv-x="450" 
d="M285 274c-108 0 -160 45 -160 137c0 25 4 55 11 85c33 149 112 210 241 210c108 0 159 -42 159 -136c0 -23 -3 -49 -11 -81c-33 -149 -112 -215 -240 -215zM301 352c65 0 100 37 122 134c7 31 10 50 10 68c0 52 -22 74 -74 74c-64 0 -98 -35 -121 -126
c-8 -33 -11 -57 -11 -75c0 -52 24 -75 74 -75z" />
    <glyph glyph-name="one.numerator" unicode="&#xf662;" horiz-adv-x="450" 
d="M278 280l67 316l-126 -59l-24 70l191 93h81l-90 -420h-99z" />
    <glyph glyph-name="two.numerator" unicode="&#xf663;" horiz-adv-x="450" 
d="M110 280l18 86l146 83c99 56 134 88 134 128c0 32 -27 47 -82 47c-41 0 -93 -8 -133 -26l18 85c52 17 99 23 145 23c106 0 158 -33 158 -102c0 -70 -54 -123 -202 -204l-66 -36v-1h223l-18 -83h-341z" />
    <glyph glyph-name="three.numerator" unicode="&#xf664;" horiz-adv-x="450" 
d="M251 274c-36 0 -92 3 -138 19l17 83c42 -19 89 -21 131 -21c47 0 117 6 117 63c0 33 -23 43 -78 43h-83l15 69h74c39 0 99 7 99 54c0 31 -24 42 -87 42c-45 0 -94 -6 -131 -19l17 80c49 16 111 19 162 19c109 0 146 -38 146 -91c0 -69 -64 -99 -127 -115v-2
c73 -11 94 -41 94 -84c0 -106 -135 -140 -228 -140z" />
    <glyph glyph-name="four.numerator" unicode="&#xf665;" horiz-adv-x="450" 
d="M98 367l15 75l290 258h114l-55 -254h57l-16 -79h-57l-19 -87h-95l19 87h-253zM368 446l37 172h-1l-195 -172h159z" />
    <glyph glyph-name="five.numerator" unicode="&#xf666;" horiz-adv-x="450" 
d="M259 274c-41 0 -93 4 -137 18l17 81c41 -14 77 -18 131 -18c53 0 118 19 118 75c0 36 -26 53 -93 53c-50 0 -96 -2 -132 -4l60 221h304l-18 -79h-231l-20 -71c28 1 59 2 94 2c99 0 140 -36 140 -104c0 -104 -95 -174 -233 -174z" />
    <glyph glyph-name="six.numerator" unicode="&#xf667;" horiz-adv-x="450" 
d="M285 274c-102 0 -155 47 -155 138c0 176 114 294 278 294c46 0 83 -4 115 -12l-17 -80c-34 9 -68 13 -116 13c-78 0 -135 -41 -154 -115c43 27 91 43 147 43c81 0 125 -34 125 -100c0 -107 -91 -181 -223 -181zM303 347c59 0 105 36 105 85c0 35 -24 53 -70 53
c-40 0 -82 -13 -112 -34c-2 -10 -3 -19 -3 -27c0 -49 29 -77 80 -77z" />
    <glyph glyph-name="seven.numerator" unicode="&#xf668;" horiz-adv-x="450" 
d="M174 280l255 341h-254l18 79h363l-15 -65l-260 -355h-107z" />
    <glyph glyph-name="eight.numerator" unicode="&#xf669;" horiz-adv-x="450" 
d="M283 274c-114 0 -169 33 -169 100c0 62 48 114 119 126c-43 10 -65 37 -65 78c0 79 82 128 212 128c103 0 157 -31 157 -91c0 -55 -44 -101 -108 -115c50 -9 76 -38 76 -85c0 -88 -85 -141 -222 -141zM299 347c65 0 110 29 110 71c0 33 -26 49 -82 49
c-71 0 -111 -25 -111 -67c0 -35 26 -53 83 -53zM363 634c-65 0 -104 -23 -104 -62c0 -29 25 -44 75 -44c65 0 105 23 105 61c0 30 -25 45 -76 45z" />
    <glyph glyph-name="nine.numerator" unicode="&#xf66a;" horiz-adv-x="450" 
d="M268 274c-57 0 -93 3 -141 14l17 82c42 -13 74 -17 129 -17c76 0 133 45 152 118c-43 -31 -94 -48 -146 -48c-81 0 -129 40 -129 112c0 100 95 171 224 171c103 0 157 -45 157 -134c0 -173 -112 -298 -263 -298zM320 492c38 0 79 15 116 43c1 6 2 16 2 24
c0 48 -31 75 -83 75c-61 0 -105 -35 -105 -85c0 -38 26 -57 70 -57z" />
    <glyph glyph-name="uniF6BA" unicode="&#xf6ba;" horiz-adv-x="484" 
d="M154 298l21 104h302l-21 -104h-302z" />
    <glyph glyph-name="uniF6BB" unicode="&#xf6bb;" horiz-adv-x="720" 
d="M183 402h523l-21 -105h-524z" />
    <glyph glyph-name="uniF6BC" unicode="&#xf6bc;" horiz-adv-x="883" 
d="M179 402h693l-22 -105h-693z" />
    <glyph glyph-name="uniF6C3" unicode="&#xf6c3;" horiz-adv-x="176" 
d="M-24 -239l7 47c40 3 73 16 83 49c-7 -1 -13 -1 -18 -1c-37 0 -59 13 -59 40c0 41 51 57 89 57c39 0 65 -17 65 -59c0 -85 -94 -129 -167 -133z" />
    <glyph glyph-name="uniF6C9" unicode="&#xf6c9;" horiz-adv-x="281" 
d="M171 760l134 160h160l-192 -160h-102z" />
    <glyph glyph-name="uniF6CA" unicode="&#xf6ca;" horiz-adv-x="396" 
d="M292 760l-87 160h98l66 -97l107 97h105l-155 -160h-134z" />
    <glyph glyph-name="uniF6CB" unicode="&#xf6cb;" horiz-adv-x="389" 
d="M265 772c-51 0 -74 23 -74 68s23 68 74 68c50 0 74 -23 74 -68s-24 -68 -74 -68zM481 772c-51 0 -74 23 -74 68s23 68 74 68c50 0 74 -23 74 -68s-24 -68 -74 -68z" />
    <glyph glyph-name="uniF6CE" unicode="&#xf6ce;" horiz-adv-x="264" 
d="M317 760l-112 160h159l53 -160h-100z" />
    <glyph glyph-name="uniF6CF" unicode="&#xf6cf;" horiz-adv-x="472" 
d="M171 760l90 160h145l-133 -160h-102zM363 760l133 160h161l-184 -160h-110z" />
    <glyph glyph-name="uniF6D0" unicode="&#xf6d0;" horiz-adv-x="368" 
d="M198 796v88h330v-88h-330z" />
    <glyph glyph-name="uniF6D1" unicode="&#xf6d1;" horiz-adv-x="376" 
d="M350 760c-88 0 -149 36 -149 119c0 12 1 26 5 41h98c-2 -10 -3 -22 -3 -30c0 -39 21 -56 65 -56c53 0 83 26 98 86h97c-27 -112 -111 -160 -211 -160z" />
    <glyph glyph-name="uniF6D4" unicode="&#xf6d4;" horiz-adv-x="359" 
d="M312 620c-80 0 -139 37 -139 120c0 12 1 26 3 40h98c-2 -10 -3 -20 -3 -28c0 -40 20 -59 57 -59c44 0 79 29 93 87h94c-26 -111 -111 -160 -203 -160z" />
    <glyph glyph-name="uniFEFF" unicode="&#xfeff;" horiz-adv-x="0" 
 />
    <glyph glyph-name="percent.tab" horiz-adv-x="650" 
d="M376 102c0 106 55 234 178 234c69 0 107 -36 107 -108c0 -106 -55 -234 -178 -234c-70 0 -107 35 -107 108zM500 73c54 0 74 93 74 138c0 33 -11 46 -36 46c-58 0 -75 -89 -75 -137c0 -33 12 -47 37 -47zM138 472c0 106 55 234 178 234c69 0 107 -36 107 -108
c0 -106 -55 -234 -178 -234c-70 0 -107 35 -107 108zM262 443c54 0 74 93 74 138c0 33 -11 46 -36 46c-58 0 -75 -89 -75 -137c0 -33 12 -47 37 -47zM146 0h-110l625 700h110z" />
    <glyph glyph-name="plus.tab" horiz-adv-x="650" 
d="M339 103v169h-169v110h169v169h110v-169h169v-110h-169v-169h-110z" />
    <glyph glyph-name="less.tab" horiz-adv-x="650" 
d="M599 106l-448 166v109l448 167v-112l-300 -106v-2l300 -106v-116z" />
    <glyph glyph-name="equal.tab" horiz-adv-x="650" 
d="M169 275h448v-110h-448v110zM169 489h448v-110h-448v110z" />
    <glyph glyph-name="greater.tab" horiz-adv-x="650" 
d="M188 106v111l300 106v2l-300 106v117l448 -167v-110z" />
    <glyph glyph-name="multiply.tab" horiz-adv-x="650" 
d="M263 126l-71 71l129 130l-129 129l71 72l130 -130l129 130l72 -72l-130 -129l130 -130l-72 -71l-129 129z" />
    <glyph glyph-name="divide.tab" horiz-adv-x="650" 
d="M170 382h448v-110h-448v110zM394 52c-58 0 -85 27 -85 83c0 55 27 82 85 82c57 0 85 -27 85 -82c0 -56 -28 -83 -85 -83zM394 437c-58 0 -85 27 -85 83c0 55 27 82 85 82c57 0 85 -27 85 -82c0 -56 -28 -83 -85 -83z" />
    <glyph glyph-name="perthousand.tab" horiz-adv-x="650" 
d="M505 -6c-64 0 -99 25 -99 90c0 15 2 32 6 52c21 97 75 140 150 140c61 0 101 -25 101 -91c0 -14 -2 -31 -6 -49c-22 -103 -79 -142 -152 -142zM522 69c28 0 47 12 59 67c3 12 4 23 4 31c0 26 -12 34 -36 34c-31 0 -50 -16 -61 -65c-2 -13 -4 -22 -4 -31
c0 -27 14 -36 38 -36zM232 -6c-64 0 -100 25 -100 90c0 15 2 32 6 52c21 97 76 140 151 140c61 0 100 -25 100 -91c0 -14 -2 -31 -6 -49c-21 -103 -79 -142 -151 -142zM248 69c28 0 47 12 60 67c2 12 3 23 3 31c0 26 -12 34 -35 34c-32 0 -51 -16 -61 -65
c-3 -13 -5 -22 -5 -31c0 -27 14 -36 38 -36zM113 256l-24 55l512 218l23 -57zM235 424c-64 0 -99 25 -99 90c0 15 2 32 6 52c21 98 75 140 150 140c61 0 101 -25 101 -92c0 -14 -2 -30 -6 -48c-22 -103 -79 -142 -152 -142zM252 499c28 0 47 12 59 67c3 13 4 22 4 30
c0 27 -12 35 -36 35c-31 0 -50 -15 -61 -65c-2 -12 -4 -23 -4 -31c0 -28 14 -36 38 -36z" />
    <glyph glyph-name="minus.tab" horiz-adv-x="650" 
d="M170 382h448v-110h-448v110z" />
    <glyph glyph-name="f_b" horiz-adv-x="1061" 
d="M474 0l138 651c-55 2 -100 5 -141 5c-58 0 -82 -13 -95 -73l-9 -43h110l-23 -110h-110l-93 -430h-130l93 430h-89l24 110h88l12 58c26 121 90 168 224 168c65 0 145 -6 292 -6l-64 -296c39 51 94 88 187 88c118 0 188 -76 188 -204c0 -176 -78 -360 -287 -360
c-96 0 -154 57 -170 114l-35 -102h-110zM768 98c123 0 175 115 175 226c0 82 -47 118 -117 118c-91 0 -141 -56 -159 -147l-8 -40c-21 -100 32 -157 109 -157z" />
    <glyph glyph-name="f_f_b" horiz-adv-x="1417" 
d="M476 0l93 430h-225l-93 -430h-130l93 430h-89l24 110h88l12 58c26 121 90 168 221 168c43 0 73 -5 96 -10l-24 -113c-14 6 -40 13 -74 13c-55 0 -79 -13 -92 -73l-9 -43h225l12 58c26 121 90 168 224 168c58 0 130 -5 251 -6h42l-64 -296c39 51 94 88 187 88
c118 0 188 -76 188 -204c0 -176 -78 -360 -288 -360c-95 0 -153 57 -169 114l-36 -102h-110l139 651c-56 2 -101 5 -142 5c-58 0 -82 -13 -95 -73l-9 -43h110l-23 -110h-110l-93 -430h-130zM1124 98c122 0 174 115 174 226c0 82 -47 118 -117 118c-90 0 -140 -56 -159 -147
l-8 -40c-20 -100 33 -157 110 -157z" />
    <glyph glyph-name="f_f_h" horiz-adv-x="1405" 
d="M476 0l93 430h-225l-93 -430h-130l93 430h-89l24 110h88l12 58c26 121 90 168 221 168c43 0 73 -5 96 -10l-24 -113c-14 6 -40 13 -74 13c-55 0 -79 -13 -92 -73l-9 -43h225l12 58c26 121 90 168 224 168c65 0 145 -6 293 -6l-66 -304c42 62 106 96 198 96
c110 0 161 -41 161 -126c0 -22 -3 -44 -9 -71l-75 -355h-130l69 326c3 17 5 34 5 47c0 51 -30 69 -96 69c-90 0 -137 -48 -154 -130l-66 -312h-130l139 651c-55 2 -100 5 -141 5c-58 0 -82 -13 -95 -73l-9 -43h110l-23 -110h-110l-93 -430h-130z" />
    <glyph glyph-name="f_f_j" horiz-adv-x="1039" 
d="M476 0l93 430h-225l-93 -430h-130l93 430h-89l24 110h88l12 58c26 121 90 168 221 168c43 0 73 -5 96 -10l-24 -113c-14 6 -40 13 -74 13c-55 0 -79 -13 -92 -73l-9 -43h225l12 58c26 121 90 168 216 168c33 0 64 -4 87 -10l-24 -113c-17 8 -45 13 -68 13
c-47 0 -71 -13 -84 -73l-9 -43h352l-119 -553c-27 -123 -84 -173 -198 -173c-45 0 -73 7 -86 13l24 111c13 -8 33 -13 57 -13c43 0 63 18 73 64l95 441h-221l-93 -430h-130zM1041 625c-53 0 -79 26 -79 69s26 69 79 69c54 0 79 -26 79 -69s-25 -69 -79 -69z" />
    <glyph glyph-name="f_f_k" horiz-adv-x="1357" 
d="M476 0l93 430h-225l-93 -430h-130l93 430h-89l24 110h88l12 58c26 121 90 168 221 168c43 0 73 -5 96 -10l-24 -113c-14 6 -40 13 -74 13c-55 0 -79 -13 -92 -73l-9 -43h225l12 58c26 121 90 168 224 168c58 0 129 -5 250 -6h42l-90 -425h45l193 205h160l-256 -265
l162 -275h-152l-131 225h-44l-49 -225h-130l139 651c-55 2 -100 5 -141 5c-58 0 -82 -13 -95 -73l-9 -43h110l-23 -110h-110l-93 -430h-130z" />
    <glyph glyph-name="f_h" horiz-adv-x="1050" 
d="M473 0l139 651c-55 2 -100 5 -141 5c-58 0 -82 -13 -95 -73l-9 -43h110l-23 -110h-110l-93 -430h-130l93 430h-89l24 110h88l12 58c26 121 90 168 224 168c65 0 145 -6 293 -6l-66 -304c42 62 106 96 198 96c110 0 161 -41 161 -126c0 -22 -3 -44 -9 -71l-75 -355h-130
l69 326c3 17 5 34 5 47c0 51 -30 69 -96 69c-90 0 -137 -48 -154 -130l-66 -312h-130z" />
    <glyph glyph-name="f_j" horiz-adv-x="684" 
d="M316 -173l24 111c13 -8 33 -13 57 -13c43 0 63 18 73 64l95 441h-221l-93 -430h-130l93 430h-89l24 110h88l12 58c26 121 90 168 216 168c33 0 64 -4 87 -10l-24 -113c-17 8 -45 13 -68 13c-47 0 -71 -13 -84 -73l-9 -43h352l-119 -553c-27 -123 -84 -173 -198 -173
c-45 0 -73 7 -86 13zM686 625c-53 0 -79 26 -79 69s26 69 79 69c54 0 79 -26 79 -69s-25 -69 -79 -69z" />
    <glyph glyph-name="f_k" horiz-adv-x="1002" 
d="M473 0l139 651c-55 2 -100 5 -141 5c-58 0 -82 -13 -95 -73l-9 -43h110l-23 -110h-110l-93 -430h-130l93 430h-89l24 110h88l12 58c26 121 90 168 224 168c58 0 129 -5 250 -6h42l-91 -425h45l194 205h160l-257 -268l163 -272h-152l-132 225h-44l-48 -225h-130z" />
    </font>
</defs>
</svg>
