<?xml version="1.0" standalone="no"?>
<!DOCTYPE svg PUBLIC "-//W3C//DTD SVG 1.1//EN" "http://www.w3.org/Graphics/SVG/1.1/DTD/svg11.dtd" >
<svg xmlns="http://www.w3.org/2000/svg" xmlns:xlink="http://www.w3.org/1999/xlink" version="1.1">
<metadata>
Created by FontForge 20190801 at Wed Apr 17 13:05:01 2019
 By Jimmy Wärting
Copyright (c) 2018 ParaType Inc., ParaType Ltd. All rights reserved.
</metadata>
<defs>
<font id="SBSansText-Bold" horiz-adv-x="450" >
  <font-face 
    font-family="SB Sans Text"
    font-weight="700"
    font-stretch="normal"
    units-per-em="1000"
    panose-1="2 11 8 3 4 5 4 2 2 4"
    ascent="801"
    descent="-199"
    x-height="540"
    cap-height="700"
    bbox="-405 -264 1418 977"
    underline-thickness="50"
    underline-position="-109"
    stemh="128"
    stemv="159"
    unicode-range="U+0020-FEFF"
  />
<missing-glyph horiz-adv-x="500" 
 />
    <glyph glyph-name="f_f" unicode="ff" horiz-adv-x="817" 
d="M484 0v407h-200v-407h-160v407h-91v133h92v47c0 128 54 180 202 180c54 0 82 -5 110 -11v-133c-12 4 -34 10 -78 10c-52 0 -75 -10 -75 -63v-30h201v47c0 128 54 180 202 180c54 0 82 -5 110 -11v-133c-12 4 -34 10 -78 10c-52 0 -75 -10 -75 -63v-30h147v-133h-147v-407
h-160z" />
    <glyph glyph-name="fi" unicode="fi" horiz-adv-x="723" 
d="M472 699c0 44 26 76 90 76c67 0 92 -32 92 -76c0 -43 -25 -78 -92 -78c-65 0 -90 35 -90 78zM125 540v47c0 128 54 180 199 180c36 0 68 -6 91 -9v-133c-15 3 -34 8 -59 8c-49 0 -71 -10 -72 -63v-30h361v-540h-160v407h-201v-407h-160v407h-91v133h92z" />
    <glyph glyph-name="fl" unicode="fl" horiz-adv-x="783" 
d="M125 540v48c0 128 55 179 202 179c72 0 114 -5 158 -7h159v-587c0 -42 15 -53 52 -53c21 0 42 5 58 9v-128c-16 -7 -50 -15 -97 -15c-109 0 -172 34 -172 160v481c-37 3 -77 6 -125 6c-52 0 -75 -9 -76 -62v-31h126v-133h-126v-407h-160v407h-91v133h92z" />
    <glyph glyph-name="f_f_i" unicode="ffi" horiz-adv-x="1083" 
d="M124 0v407h-91v133h92v47c0 128 54 180 202 180c54 0 82 -5 110 -11v-133c-12 4 -34 10 -78 10c-52 0 -75 -10 -75 -63v-30h201v47c0 128 54 180 199 180c36 0 68 -6 91 -9v-133c-15 3 -34 8 -59 8c-49 0 -71 -10 -72 -63v-30h361v-540h-160v407h-201v-407h-160v407h-200
v-407h-160zM832 699c0 44 26 76 90 76c67 0 92 -32 92 -76c0 -43 -25 -78 -92 -78c-65 0 -90 35 -90 78z" />
    <glyph glyph-name="f_f_l" unicode="ffl" horiz-adv-x="1143" 
d="M124 0v407h-91v133h92v47c0 128 54 180 202 180c54 0 82 -5 110 -11v-133c-12 4 -34 10 -78 10c-52 0 -75 -10 -75 -63v-30h201v47c0 128 55 180 202 180c72 0 114 -5 158 -7h159v-583c0 -42 15 -53 52 -53c21 0 42 5 58 9v-128c-16 -7 -50 -15 -97 -15
c-109 0 -172 34 -172 160v477c-37 3 -77 6 -125 6c-52 0 -75 -10 -76 -63v-30h126v-133h-126v-407h-160v407h-200v-407h-160z" />
    <glyph glyph-name=".notdef" horiz-adv-x="500" 
 />
    <glyph glyph-name="space" unicode=" " horiz-adv-x="260" 
 />
    <glyph glyph-name="exclam" unicode="!" horiz-adv-x="398" 
d="M110 76c0 55 31 90 97 90c62 0 98 -37 98 -90s-33 -89 -98 -89c-62 0 -97 37 -97 89zM136 246l-13 454h167l-12 -454h-142z" />
    <glyph glyph-name="quotedbl" unicode="&#x22;" horiz-adv-x="541" 
d="M104 419v281h116v-281h-116zM321 419v281h116v-281h-116z" />
    <glyph glyph-name="numbersign" unicode="#" horiz-adv-x="687" 
d="M95 0l35 183h-106l22 104h103l27 128h-104l22 105h101l34 180h121l-35 -180h120l34 180h121l-35 -180h109l-22 -105h-106l-27 -128h106l-22 -104h-102l-35 -183h-120l35 183h-120l-35 -183h-121zM269 287h120l27 128h-120z" />
    <glyph glyph-name="dollar" unicode="$" horiz-adv-x="633" 
d="M405 194c0 120 -344 47 -344 316c0 108 55 181 199 199v91h124v-89c67 -4 125 -16 164 -32v-161c-50 34 -125 61 -201 61c-95 0 -120 -29 -120 -66c0 -116 357 -45 357 -313c0 -114 -60 -187 -200 -207v-113h-124v108c-78 4 -152 22 -196 47v167c36 -31 111 -81 223 -81
c83 0 118 29 118 73z" />
    <glyph glyph-name="percent" unicode="%" horiz-adv-x="957" 
d="M178 0l497 700h106l-496 -700h-107zM517 159c0 116 71 173 191 173c121 0 185 -57 185 -173c0 -124 -76 -174 -190 -174c-117 0 -186 56 -186 174zM786 159c0 60 -27 84 -81 84c-53 0 -80 -24 -80 -84s29 -85 81 -85c51 0 80 24 80 85zM64 539c0 116 71 174 190 174
c122 0 186 -57 186 -174c0 -123 -76 -174 -191 -174c-117 0 -185 56 -185 174zM332 539c0 60 -26 84 -80 84c-53 0 -81 -24 -81 -84s30 -84 81 -84c52 0 80 23 80 84z" />
    <glyph glyph-name="ampersand" unicode="&#x26;" horiz-adv-x="883" 
d="M639 490h136c0 -118 -42 -243 -115 -338c46 -17 92 -25 136 -21v-136c-79 -5 -168 23 -235 69c-58 -49 -138 -79 -217 -79c-178 0 -270 80 -270 219c0 95 54 165 152 212c-26 45 -42 94 -42 138c0 106 72 159 191 159c149 0 191 -68 191 -148c0 -102 -81 -150 -185 -189
c47 -68 102 -124 176 -172c53 69 81 170 82 286zM458 135c-74 55 -133 125 -175 194c-48 -22 -67 -60 -67 -103c0 -81 46 -118 139 -118c41 0 76 11 103 27zM331 463c69 28 106 51 106 92c0 30 -16 49 -64 49c-43 0 -65 -20 -65 -65c0 -22 7 -50 23 -76z" />
    <glyph glyph-name="quotesingle" unicode="'" horiz-adv-x="323" 
d="M104 419v281h116v-281h-116z" />
    <glyph glyph-name="parenleft" unicode="(" horiz-adv-x="385" 
d="M357 -128l-67 -66c-106 70 -236 243 -236 483c0 222 120 410 236 485l68 -65c-85 -88 -159 -229 -159 -419c0 -185 77 -332 158 -418z" />
    <glyph glyph-name="parenright" unicode=")" horiz-adv-x="385" 
d="M29 708l67 66c106 -70 236 -244 236 -484c0 -222 -120 -409 -236 -484l-68 65c85 88 159 229 159 419c0 185 -77 332 -158 418z" />
    <glyph glyph-name="asterisk" unicode="*" horiz-adv-x="570" 
d="M112 355l106 113l-148 29l34 115l141 -63l-19 151h119l-19 -150l140 62l33 -115l-147 -29l106 -113l-97 -66l-76 131l-76 -131z" />
    <glyph glyph-name="plus" unicode="+" horiz-adv-x="633" 
d="M82 272v120h174v174h121v-174h173v-120h-173v-174h-121v174h-174z" />
    <glyph glyph-name="comma" unicode="," horiz-adv-x="382" 
d="M47 -103c71 10 126 47 134 92c-69 0 -99 37 -99 89c0 57 35 90 102 90c80 0 114 -41 114 -126c0 -127 -77 -211 -178 -233z" />
    <glyph glyph-name="hyphen" unicode="-" horiz-adv-x="494" 
d="M87 225v121h320v-121h-320z" />
    <glyph glyph-name="period" unicode="." horiz-adv-x="364" 
d="M84 84c0 62 28 96 97 96s100 -29 100 -96c0 -59 -29 -97 -100 -97c-69 0 -97 37 -97 97z" />
    <glyph glyph-name="slash" unicode="/" horiz-adv-x="412" 
d="M7 -180l268 940h130l-268 -940h-130z" />
    <glyph glyph-name="zero" unicode="0" horiz-adv-x="633" 
d="M47 349c0 257 86 363 272 363c196 0 266 -112 266 -363c0 -262 -86 -362 -268 -362c-189 0 -270 115 -270 362zM211 347c0 -159 25 -226 109 -226c81 0 102 60 102 225c0 167 -18 233 -107 233c-87 0 -104 -71 -104 -232z" />
    <glyph glyph-name="one" unicode="1" horiz-adv-x="633" 
d="M82 0v135h208v389l-208 -117v145l257 150h112v-567h120v-135h-489z" />
    <glyph glyph-name="two" unicode="2" horiz-adv-x="633" 
d="M57 0v104c161 125 325 224 325 353c0 75 -34 108 -119 108c-77 0 -142 -27 -194 -71v174c56 26 135 44 229 44c202 0 260 -90 260 -210c0 -159 -112 -249 -267 -359h275v-143h-509z" />
    <glyph glyph-name="three" unicode="3" horiz-adv-x="633" 
d="M194 290v128h69c92 0 119 25 119 82c0 45 -21 69 -117 69c-73 0 -147 -25 -200 -59v158c64 25 160 44 241 44c198 0 248 -70 248 -181c0 -86 -44 -142 -139 -168c113 -15 162 -74 162 -163c0 -130 -71 -212 -287 -212c-86 0 -175 17 -235 44v165c53 -37 133 -65 214 -65
c112 0 136 30 136 82c0 49 -23 76 -130 76h-81z" />
    <glyph glyph-name="four" unicode="4" horiz-adv-x="633" 
d="M33 154v90l284 456h207v-403h83v-143h-83v-154h-162v154h-329zM364 296v249l-151 -249h151z" />
    <glyph glyph-name="five" unicode="5" horiz-adv-x="633" 
d="M77 314l25 386h436v-135h-313l-10 -121c25 4 71 6 109 6c184 0 242 -81 242 -217c0 -151 -66 -245 -294 -245c-60 0 -141 11 -204 33v161c40 -24 120 -51 197 -51c103 0 137 33 137 101c0 66 -28 98 -148 98c-61 0 -139 -8 -177 -16z" />
    <glyph glyph-name="six" unicode="6" horiz-adv-x="633" 
d="M326 -12c-216 0 -288 118 -288 340c0 253 106 384 341 384c64 0 123 -11 169 -27v-159c-34 23 -85 46 -173 46c-106 0 -194 -60 -194 -190c0 -11 1 -16 1 -21c40 64 98 96 190 96c153 0 220 -83 220 -219c0 -173 -96 -250 -266 -250zM205 261c-3 -99 39 -143 115 -143
c64 0 106 32 106 111c0 81 -29 112 -103 112c-75 0 -104 -37 -118 -80z" />
    <glyph glyph-name="seven" unicode="7" horiz-adv-x="633" 
d="M146 0l258 555h-350v145h533v-96l-266 -604h-175z" />
    <glyph glyph-name="eight" unicode="8" horiz-adv-x="633" 
d="M37 193c0 87 31 150 137 179c-87 25 -120 71 -120 157c0 114 74 184 265 184c184 0 257 -61 257 -176c0 -80 -24 -135 -117 -165c107 -24 137 -80 137 -175c0 -126 -77 -209 -277 -209c-203 0 -282 73 -282 205zM204 218c0 -75 44 -103 116 -103s110 32 110 103
c0 65 -37 95 -113 95c-75 0 -113 -37 -113 -95zM213 500c0 -57 32 -87 104 -87c73 0 100 33 100 88c0 61 -27 85 -102 85c-74 0 -102 -29 -102 -86z" />
    <glyph glyph-name="nine" unicode="9" horiz-adv-x="633" 
d="M304 712c216 0 288 -118 288 -340c0 -253 -106 -384 -341 -384c-64 0 -123 11 -169 27v159c34 -23 85 -46 173 -46c106 0 194 60 194 190c0 11 -1 16 -1 21c-40 -64 -97 -96 -189 -96c-152 0 -221 83 -221 219c0 173 96 250 266 250zM425 442c2 95 -39 140 -115 140
c-64 -1 -105 -32 -106 -111c-1 -77 31 -112 104 -112c75 0 105 37 117 83z" />
    <glyph glyph-name="colon" unicode=":" horiz-adv-x="364" 
d="M91 84c0 62 28 96 97 96s100 -29 100 -96c0 -59 -29 -97 -100 -97c-69 0 -97 37 -97 97zM91 428c0 62 28 96 97 96s100 -29 100 -96c0 -59 -29 -97 -100 -97c-69 0 -97 37 -97 97z" />
    <glyph glyph-name="semicolon" unicode=";" horiz-adv-x="382" 
d="M93 427c0 62 28 96 97 96s100 -29 100 -96c0 -59 -29 -97 -100 -97c-69 0 -97 37 -97 97zM54 -103c71 10 126 47 134 92c-69 0 -99 37 -99 89c0 57 35 90 102 90c80 0 114 -41 114 -126c0 -127 -77 -211 -178 -233z" />
    <glyph glyph-name="less" unicode="&#x3c;" horiz-adv-x="593" 
d="M56 265v112l465 170v-123l-311 -102v-2l311 -102v-123z" />
    <glyph glyph-name="equal" unicode="=" horiz-adv-x="596" 
d="M63 163v118h470v-118h-470zM63 377v118h470v-118h-470z" />
    <glyph glyph-name="greater" unicode="&#x3e;" horiz-adv-x="593" 
d="M73 95v123l310 102v2l-310 102v123l464 -170v-112z" />
    <glyph glyph-name="question" unicode="?" horiz-adv-x="576" 
d="M175 241c0 172 174 161 174 265c0 43 -32 65 -96 65c-71 0 -133 -25 -176 -55v163c44 18 112 33 202 33c160 0 240 -59 240 -179c0 -197 -200 -179 -200 -292h-144zM150 76c0 55 31 90 97 90c62 0 98 -37 98 -90s-33 -89 -98 -89c-62 0 -97 37 -97 89z" />
    <glyph glyph-name="at" unicode="@" horiz-adv-x="986" 
d="M703 64c-79 0 -111 29 -126 87c-17 -59 -65 -87 -128 -87c-106 0 -162 64 -162 225c0 154 60 227 172 227c64 0 92 -33 105 -62l10 52h107v-291c0 -46 14 -63 43 -63c48 0 95 45 95 167c0 186 -103 302 -310 302c-231 0 -332 -147 -332 -338c0 -164 82 -328 336 -328
c64 0 142 17 189 47v-100c-59 -21 -120 -33 -189 -33c-291 0 -433 181 -433 414c0 232 145 425 431 425c244 0 401 -144 401 -383c0 -163 -78 -261 -209 -261zM415 292c0 -94 15 -133 71 -133c46 0 67 38 67 106v54c0 75 -22 102 -66 102c-52 0 -72 -35 -72 -129z" />
    <glyph glyph-name="A" unicode="A" horiz-adv-x="707" 
d="M528 0l-50 147h-256l-48 -147h-163l246 700h194l245 -700h-168zM350 531l-83 -249h166z" />
    <glyph glyph-name="B" unicode="B" horiz-adv-x="693" 
d="M91 1v698c102 4 185 6 256 6c215 0 273 -52 273 -182c0 -87 -44 -138 -128 -157c105 -6 153 -62 153 -160c0 -150 -68 -213 -320 -213c-57 0 -134 3 -234 8zM255 132c31 -2 59 -3 91 -3c107 0 131 23 131 86c0 65 -28 83 -122 83h-100v-166zM255 411h108
c73 0 96 27 96 80c0 61 -20 79 -107 79c-32 0 -60 -1 -97 -3v-156z" />
    <glyph glyph-name="C" unicode="C" horiz-adv-x="656" 
d="M595 682v-167c-41 24 -95 50 -186 50c-126 0 -185 -54 -185 -212c0 -166 63 -218 193 -218c87 0 151 28 186 53v-163c-36 -17 -105 -38 -199 -38c-251 0 -354 112 -354 357c0 252 105 369 355 369c94 0 157 -20 190 -31z" />
    <glyph glyph-name="D" unicode="D" horiz-adv-x="753" 
d="M91 2v697c84 5 142 7 241 7c286 0 371 -121 371 -339c0 -254 -118 -373 -388 -373c-87 0 -145 3 -224 8zM255 139c24 -3 43 -4 68 -4c150 0 211 65 211 223c0 147 -53 207 -199 207c-30 0 -53 -1 -80 -4v-422z" />
    <glyph glyph-name="E" unicode="E" horiz-adv-x="636" 
d="M91 0v700h488v-142h-324v-138h285v-132h-285v-146h324v-142h-488z" />
    <glyph glyph-name="F" unicode="F" horiz-adv-x="613" 
d="M91 0v700h468v-142h-304v-155h291v-142h-291v-261h-164z" />
    <glyph glyph-name="G" unicode="G" horiz-adv-x="717" 
d="M390 263v132h270v-355c-44 -23 -137 -53 -255 -53c-244 0 -355 108 -355 357c0 252 105 369 371 369c98 0 160 -17 192 -31v-157c-48 29 -108 47 -181 47c-155 0 -213 -63 -213 -219c0 -163 62 -225 199 -225c45 0 75 7 99 13v122h-127z" />
    <glyph glyph-name="H" unicode="H" horiz-adv-x="803" 
d="M91 0v700h164v-272h293v272h164v-700h-164v286h-293v-286h-164z" />
    <glyph glyph-name="I" unicode="I" horiz-adv-x="349" 
d="M93 0v700h163v-700h-163z" />
    <glyph glyph-name="J" unicode="J" horiz-adv-x="462" 
d="M207 235v465h164v-486c0 -159 -58 -222 -223 -222c-57 0 -92 7 -123 16v157c18 -15 59 -30 98 -30c60 0 84 20 84 100z" />
    <glyph glyph-name="K" unicode="K" horiz-adv-x="721" 
d="M91 0v700h164v-278h56l185 278h191l-240 -331l263 -369h-195l-201 290h-59v-290h-164z" />
    <glyph glyph-name="L" unicode="L" horiz-adv-x="585" 
d="M91 0v700h164v-550h308v-150h-472z" />
    <glyph glyph-name="M" unicode="M" horiz-adv-x="945" 
d="M91 0v700h233l154 -372l153 372h223v-700h-160v394c0 41 3 88 5 132c-18 -46 -37 -94 -52 -130l-106 -256h-135l-107 254c-15 37 -34 87 -54 133c3 -45 5 -91 5 -132v-395h-159z" />
    <glyph glyph-name="N" unicode="N" horiz-adv-x="800" 
d="M91 0v700h177l231 -366c21 -34 38 -70 55 -102c-3 35 -5 74 -5 113v355h160v-700h-171l-233 370c-21 32 -41 75 -60 111c2 -35 5 -74 5 -112v-369h-159z" />
    <glyph glyph-name="O" unicode="O" horiz-adv-x="793" 
d="M50 350c0 254 112 364 348 364c250 0 344 -111 344 -364c0 -263 -119 -364 -344 -364c-226 0 -348 109 -348 364zM224 349c0 -174 68 -221 177 -221s168 50 168 221c0 172 -59 223 -175 223c-115 0 -170 -60 -170 -223z" />
    <glyph glyph-name="P" unicode="P" horiz-adv-x="677" 
d="M91 0v698c87 4 135 7 238 7c221 0 303 -67 303 -245c0 -181 -93 -264 -305 -264c-26 0 -46 1 -72 3v-199h-164zM255 334c27 -2 44 -3 72 -3c102 0 136 40 136 121c0 80 -29 118 -137 118c-27 0 -45 0 -71 -3v-233z" />
    <glyph glyph-name="Q" unicode="Q" horiz-adv-x="793" 
d="M50 350c0 254 112 364 348 364c250 0 344 -111 344 -364c0 -194 -65 -300 -190 -342l139 -168h-196l-118 147c-213 6 -327 116 -327 363zM224 349c0 -174 68 -221 177 -221s168 50 168 221c0 172 -59 223 -175 223c-115 0 -170 -60 -170 -223z" />
    <glyph glyph-name="R" unicode="R" horiz-adv-x="701" 
d="M255 0h-164v697c87 4 158 8 238 8c220 0 290 -76 290 -231c0 -114 -28 -182 -115 -220l171 -254h-181l-152 236h-87v-236zM251 365h77c94 0 122 30 122 100c0 67 -26 95 -124 95c-29 0 -49 -1 -75 -4v-191z" />
    <glyph glyph-name="S" unicode="S" horiz-adv-x="640" 
d="M409 194c0 120 -344 47 -344 316c0 126 73 203 273 203c89 0 166 -14 214 -34v-161c-50 34 -126 61 -201 61c-95 0 -120 -29 -120 -66c0 -116 357 -45 357 -313c0 -135 -85 -213 -288 -213c-91 0 -181 19 -232 48v167c36 -31 111 -81 223 -81c83 0 118 29 118 73z" />
    <glyph glyph-name="T" unicode="T" horiz-adv-x="623" 
d="M230 0v559h-202v141h567v-141h-202v-559h-163z" />
    <glyph glyph-name="U" unicode="U" horiz-adv-x="755" 
d="M86 280v420h164v-404c0 -136 38 -167 132 -167c88 0 123 29 123 163v408h164v-419c0 -228 -108 -294 -291 -294c-193 0 -292 69 -292 293z" />
    <glyph glyph-name="V" unicode="V" horiz-adv-x="687" 
d="M239 0l-226 700h179l158 -522l156 522h168l-225 -700h-210z" />
    <glyph glyph-name="W" unicode="W" horiz-adv-x="1016" 
d="M177 0l-151 700h176l76 -379c9 -42 13 -79 20 -123c11 43 16 81 26 124l94 378h183l93 -373c11 -44 16 -83 27 -128c7 45 12 83 21 127l75 374h173l-152 -700h-208l-122 486l-123 -486h-208z" />
    <glyph glyph-name="X" unicode="X" horiz-adv-x="709" 
d="M23 0l204 359l-189 341h190l127 -234l132 234h187l-201 -338l212 -362h-193l-144 249l-137 -249h-188z" />
    <glyph glyph-name="Y" unicode="Y" horiz-adv-x="666" 
d="M252 0v252l-242 448h187l139 -267l134 267h186l-240 -448v-252h-164z" />
    <glyph glyph-name="Z" unicode="Z" horiz-adv-x="650" 
d="M47 0v93l332 465h-320v142h539v-93l-332 -465h338v-142h-557z" />
    <glyph glyph-name="bracketleft" unicode="[" horiz-adv-x="422" 
d="M87 -180v940h287v-102h-154v-736h154v-102h-287z" />
    <glyph glyph-name="backslash" unicode="\" horiz-adv-x="412" 
d="M270 -180l-263 940h135l263 -940h-135z" />
    <glyph glyph-name="bracketright" unicode="]" horiz-adv-x="422" 
d="M47 -180v102h155v736h-155v102h288v-940h-288z" />
    <glyph glyph-name="asciicircum" unicode="^" horiz-adv-x="572" 
d="M36 346l183 354h133l185 -354h-125l-126 245l-125 -245h-125z" />
    <glyph glyph-name="underscore" unicode="_" horiz-adv-x="448" 
d="M0 -194v96h448v-96h-448z" />
    <glyph glyph-name="grave" unicode="`" horiz-adv-x="485" 
d="M372 630h-120l-170 160h190z" />
    <glyph glyph-name="a" unicode="a" horiz-adv-x="619" 
d="M406 0l-6 78c-22 -41 -80 -92 -182 -92c-128 0 -180 72 -180 169c0 118 74 163 241 163h110v26c0 57 -28 80 -115 80c-72 0 -147 -30 -187 -62v153c46 22 128 39 215 39c185 0 248 -52 248 -203v-351h-144zM200 172c0 -36 18 -64 78 -64c79 0 111 41 111 96v29h-88
c-77 0 -101 -16 -101 -61z" />
    <glyph glyph-name="b" unicode="b" horiz-adv-x="696" 
d="M76 0v760h159v-295c27 49 80 89 184 89c155 0 230 -72 230 -272c0 -204 -75 -296 -237 -296c-106 0 -155 39 -181 82l-5 -68h-150zM234 293v-43c0 -89 42 -136 126 -136c85 0 122 48 122 164c0 119 -45 148 -121 148c-89 0 -126 -48 -127 -133z" />
    <glyph glyph-name="c" unicode="c" horiz-adv-x="580" 
d="M519 522v-149c-37 26 -85 47 -158 47c-100 0 -149 -37 -149 -144c0 -108 45 -155 165 -155c60 0 120 19 152 44v-141c-32 -17 -91 -38 -181 -38c-212 0 -301 84 -301 291c0 187 91 277 296 277c93 0 142 -16 176 -32z" />
    <glyph glyph-name="d" unicode="d" horiz-adv-x="697" 
d="M470 0l-5 85c-31 -55 -76 -99 -185 -99c-159 0 -233 86 -233 278c0 194 73 290 242 290c99 0 146 -31 172 -70v276h159v-760h-150zM338 114c90 0 124 55 123 136v51c0 79 -33 125 -123 125c-91 0 -125 -40 -125 -158s44 -154 125 -154z" />
    <glyph glyph-name="e" unicode="e" horiz-adv-x="641" 
d="M597 231h-389c3 -84 52 -120 155 -120c78 0 157 27 197 60v-136c-27 -22 -109 -49 -220 -49c-213 0 -293 94 -293 293c0 186 103 275 284 275c199 0 266 -101 266 -258v-65zM328 435c-79 0 -117 -38 -121 -113h231c1 72 -28 113 -110 113z" />
    <glyph glyph-name="f" unicode="f" horiz-adv-x="457" 
d="M124 0v407h-91v133h92v48c0 128 54 179 202 179c54 0 82 -5 110 -11v-133c-12 4 -34 10 -78 10c-52 0 -75 -9 -75 -62v-31h147v-133h-147v-407h-160z" />
    <glyph glyph-name="g" unicode="g" horiz-adv-x="697" 
d="M100 -161v150c33 -21 104 -50 212 -50c113 0 149 39 149 115v51c-30 -46 -88 -81 -179 -81c-158 0 -235 71 -235 251c0 195 72 279 241 279c103 0 153 -40 177 -87l5 73h151v-476c0 -195 -102 -258 -311 -258c-89 0 -170 18 -210 33zM337 152c83 0 125 35 125 125v25
c0 92 -41 124 -126 124c-84 0 -123 -36 -123 -140c0 -99 45 -134 124 -134z" />
    <glyph glyph-name="h" unicode="h" horiz-adv-x="676" 
d="M76 0v760h159v-295c28 58 89 89 182 89c135 0 190 -61 190 -200v-354h-159v318c0 75 -27 104 -103 104c-80 0 -110 -37 -110 -118v-304h-159z" />
    <glyph glyph-name="i" unicode="i" horiz-adv-x="321" 
d="M80 0v540h160v-540h-160zM160 620c-61 0 -88 27 -88 80s27 80 88 80s88 -27 88 -80s-27 -80 -88 -80z" />
    <glyph glyph-name="j" unicode="j" horiz-adv-x="327" 
d="M86 2v538h160v-546c0 -137 -58 -181 -172 -181c-53 0 -84 8 -99 14v131c15 -7 36 -11 57 -11c39 0 54 15 54 55zM166 620c-61 0 -88 27 -88 80s27 80 88 80s88 -27 88 -80s-27 -80 -88 -80z" />
    <glyph glyph-name="k" unicode="k" horiz-adv-x="635" 
d="M76 760h159v-414h48l139 194h178l-189 -256l209 -284h-184l-153 211h-48v-211h-159v760z" />
    <glyph glyph-name="l" unicode="l" horiz-adv-x="374" 
d="M235 173c0 -42 15 -53 52 -53c21 0 41 5 57 9v-128c-15 -7 -49 -15 -96 -15c-110 0 -172 34 -172 160v614h159v-587z" />
    <glyph glyph-name="m" unicode="m" horiz-adv-x="972" 
d="M76 0v540h149l5 -82c30 67 92 96 170 96c83 0 136 -38 154 -105c29 75 92 105 179 105c117 0 170 -62 170 -183v-371h-158v327c0 68 -22 93 -87 93c-59 0 -89 -28 -89 -100v-320h-159v330c0 69 -26 90 -85 90c-61 0 -91 -30 -91 -99v-321h-158z" />
    <glyph glyph-name="n" unicode="n" horiz-adv-x="676" 
d="M76 0v540h154l5 -76c33 66 97 90 175 90c130 0 197 -55 197 -195v-359h-159v305c0 89 -25 117 -104 117c-78 0 -109 -40 -109 -117v-305h-159z" />
    <glyph glyph-name="o" unicode="o" horiz-adv-x="675" 
d="M47 271c0 191 101 283 293 283c200 0 288 -88 288 -284c0 -195 -95 -284 -291 -284c-203 0 -290 92 -290 285zM211 271v-4c0 -102 35 -154 128 -154c89 0 125 45 125 153v5c0 110 -31 156 -127 156c-94 0 -126 -49 -126 -156z" />
    <glyph glyph-name="p" unicode="p" horiz-adv-x="696" 
d="M75 -180v720h151l5 -79c31 56 88 93 189 93c162 0 229 -79 229 -275c0 -198 -70 -293 -241 -293c-100 0 -148 45 -173 82v-248h-160zM235 251c0 -84 36 -137 125 -137c92 0 122 50 122 164c0 106 -37 148 -123 148c-88 0 -124 -49 -124 -132v-43z" />
    <glyph glyph-name="q" unicode="q" horiz-adv-x="697" 
d="M461 -180v259c-31 -54 -83 -93 -178 -93c-147 0 -236 67 -236 274c0 211 82 294 244 294c101 0 147 -41 174 -84l6 70h149v-720h-159zM341 114c88 0 120 57 120 141v44c0 88 -42 127 -125 127c-87 0 -123 -48 -123 -159c0 -113 40 -153 128 -153z" />
    <glyph glyph-name="r" unicode="r" horiz-adv-x="476" 
d="M76 0v540h148l6 -80c28 67 81 94 149 94c22 0 40 -3 59 -7v-160c-20 17 -49 28 -93 28c-79 0 -110 -40 -110 -127v-288h-159z" />
    <glyph glyph-name="s" unicode="s" horiz-adv-x="555" 
d="M473 529v-143c-44 27 -95 49 -169 49c-64 0 -81 -14 -81 -44c0 -83 284 -14 284 -224c0 -116 -59 -181 -246 -181c-59 0 -133 9 -196 34v149c42 -34 114 -63 193 -63c67 0 86 18 86 53c0 82 -284 21 -284 226c0 115 59 169 239 169c58 0 123 -10 174 -25z" />
    <glyph glyph-name="t" unicode="t" horiz-adv-x="508" 
d="M129 175v234h-101v131h101v92l160 53v-145h167v-131h-167v-204c0 -58 20 -81 71 -81c40 0 77 11 103 27v-138c-23 -12 -77 -27 -144 -27c-136 0 -190 52 -190 189z" />
    <glyph glyph-name="u" unicode="u" horiz-adv-x="676" 
d="M446 0l-5 79c-37 -63 -93 -93 -182 -93c-129 0 -188 64 -188 205v349h159v-311c0 -77 26 -109 101 -109c76 0 109 37 109 116v304h159v-540h-153z" />
    <glyph glyph-name="v" unicode="v" horiz-adv-x="616" 
d="M223 0l-205 540h180l114 -359l116 359h170l-207 -540h-168z" />
    <glyph glyph-name="w" unicode="w" horiz-adv-x="896" 
d="M155 0l-130 540h168l73 -366l108 366h150l109 -366l73 366h164l-133 -540h-192l-98 336l-99 -336h-193z" />
    <glyph glyph-name="x" unicode="x" horiz-adv-x="609" 
d="M15 0l178 279l-165 261h180l100 -162l102 162h174l-169 -259l179 -281h-181l-112 176l-110 -176h-176z" />
    <glyph glyph-name="y" unicode="y" horiz-adv-x="602" 
d="M191 -60c29 0 46 13 59 58l-233 542h180l127 -349l100 349h164l-183 -526c-58 -167 -107 -208 -197 -208c-30 0 -67 5 -86 13l1 139c17 -9 43 -18 68 -18z" />
    <glyph glyph-name="z" unicode="z" horiz-adv-x="579" 
d="M47 0v99l268 309h-256v132h471v-99l-269 -308h273v-133h-487z" />
    <glyph glyph-name="braceleft" unicode="{" horiz-adv-x="459" 
d="M142 -1v134c0 69 -40 103 -94 107v100c54 4 94 41 94 109v132c0 85 17 179 170 179h99v-101h-61c-60 0 -76 -34 -76 -94v-127c0 -74 -27 -128 -105 -146c78 -16 105 -79 105 -152v-124c0 -60 16 -95 76 -95h61v-101h-99c-153 0 -170 93 -170 179z" />
    <glyph glyph-name="bar" unicode="|" horiz-adv-x="298" 
d="M81 -180v940h136v-940h-136z" />
    <glyph glyph-name="braceright" unicode="}" horiz-adv-x="459" 
d="M317 581v-134c0 -69 40 -103 94 -107v-100c-54 -4 -94 -41 -94 -109v-132c0 -85 -17 -179 -170 -179h-99v101h61c60 0 76 34 76 94v127c0 74 27 128 105 146c-78 16 -105 79 -105 152v124c0 60 -16 95 -76 95h-61v101h99c153 0 170 -93 170 -179z" />
    <glyph glyph-name="asciitilde" unicode="~" horiz-adv-x="633" 
d="M94 248v114c30 35 68 58 115 58c86 0 163 -75 235 -75c36 0 69 15 98 49v-116c-23 -26 -59 -51 -110 -51c-86 0 -150 74 -225 74c-43 0 -91 -25 -113 -53z" />
    <glyph glyph-name="uni00A0" unicode="&#xa0;" horiz-adv-x="260" 
 />
    <glyph glyph-name="exclamdown" unicode="&#xa1;" horiz-adv-x="398" 
d="M110 464c0 52 35 89 97 89c65 0 98 -35 98 -89c0 -52 -36 -89 -98 -89c-66 0 -97 35 -97 89zM136 294h142l12 -453h-167z" />
    <glyph glyph-name="cent" unicode="&#xa2;" horiz-adv-x="561" 
d="M274 -120v112c-153 19 -215 131 -215 280c0 145 67 255 215 272v96h89v-93c63 -4 100 -16 125 -26v-123c-34 13 -71 25 -132 25c-91 0 -143 -51 -143 -147c0 -101 51 -162 159 -162c53 0 96 13 123 28v-122c-25 -11 -66 -27 -132 -31v-109h-89z" />
    <glyph glyph-name="sterling" unicode="&#xa3;" horiz-adv-x="599" 
d="M57 0v135h86v172h-86v111h86v59c0 124 69 235 253 235c51 0 102 -6 153 -19v-133c-50 14 -82 18 -122 18c-84 0 -120 -44 -120 -116v-44h158v-111h-158v-172h245v-135h-495z" />
    <glyph glyph-name="currency" unicode="&#xa4;" horiz-adv-x="570" 
d="M94 92l-63 64l61 64c-22 34 -37 78 -37 130c0 51 15 95 38 129l-62 65l63 64l63 -64c33 23 78 38 128 38c52 0 96 -16 128 -38l64 65l64 -64l-63 -66c22 -33 38 -79 38 -129c0 -51 -16 -96 -38 -130l63 -64l-64 -64l-63 63c-33 -23 -78 -39 -129 -39s-96 16 -129 39z
M157 349c0 -76 59 -132 128 -132c70 0 130 56 130 132s-60 132 -130 132c-69 0 -128 -56 -128 -132z" />
    <glyph glyph-name="yen" unicode="&#xa5;" horiz-adv-x="641" 
d="M94 140v84h144v41l-10 20h-134v84h92l-166 331h188l114 -258l110 258h189l-166 -331h92v-84h-134l-10 -20v-41h144v-84h-144v-140h-165v140h-144z" />
    <glyph glyph-name="brokenbar" unicode="&#xa6;" horiz-adv-x="306" 
d="M86 -180v395h134v-395h-134zM86 365v395h134v-395h-134z" />
    <glyph glyph-name="section" unicode="&#xa7;" horiz-adv-x="545" 
d="M462 687v-114c-73 24 -111 28 -148 28c-39 0 -90 -10 -90 -54c0 -33 25 -44 92 -75c10 -5 34 -16 45 -20c70 -31 145 -68 145 -157c0 -58 -40 -103 -83 -133c33 -24 59 -58 59 -111c0 -95 -78 -171 -241 -171c-59 0 -117 8 -178 28v117c67 -28 110 -35 159 -35
c67 0 100 23 100 56c0 40 -37 54 -106 84c-11 4 -37 16 -47 21c-70 30 -130 73 -130 155c0 54 33 100 88 130c-43 26 -63 64 -63 113c0 86 70 163 231 163c71 0 129 -14 167 -25zM180 327c0 -46 42 -73 106 -99c4 -2 42 -19 46 -20c17 16 34 39 34 66c0 42 -36 66 -94 92
c-5 2 -46 21 -52 24c-30 -20 -40 -44 -40 -63z" />
    <glyph glyph-name="dieresis" unicode="&#xa8;" horiz-adv-x="485" 
d="M132 624c-59 0 -84 25 -84 76s25 76 84 76s84 -25 84 -76s-25 -76 -84 -76zM354 624c-59 0 -84 25 -84 76s25 76 84 76s84 -25 84 -76s-25 -76 -84 -76z" />
    <glyph glyph-name="copyright" unicode="&#xa9;" horiz-adv-x="856" 
d="M54 319c0 212 161 373 374 373s374 -161 374 -373c0 -211 -161 -373 -374 -373s-374 162 -374 373zM134 318c0 -167 127 -294 293 -294c167 0 295 127 295 294c0 170 -128 296 -295 296c-166 0 -293 -126 -293 -296zM541 503v-86c-23 9 -55 14 -78 14
c-71 0 -109 -30 -109 -106c0 -79 40 -107 110 -107c25 0 53 5 78 17v-88c-21 -9 -53 -17 -97 -17c-136 0 -191 75 -191 192c0 126 63 195 194 195c40 0 74 -8 93 -14z" />
    <glyph glyph-name="ordfeminine" unicode="&#xaa;" horiz-adv-x="414" 
d="M264 355v52h-1c-14 -28 -47 -59 -108 -59c-79 0 -123 39 -123 108c0 74 52 109 158 109c27 0 54 -2 68 -4v15c0 28 -14 46 -72 46c-44 0 -92 -13 -120 -26v91c29 11 82 25 140 25c116 0 165 -40 165 -143v-214h-107zM147 468c0 -21 14 -36 49 -36c42 0 62 25 62 55v14
c-13 2 -30 4 -50 4c-46 0 -61 -12 -61 -37z" />
    <glyph glyph-name="guillemotleft" unicode="&#xab;" horiz-adv-x="629" 
d="M176 55l-129 214l130 216h144l-122 -216l122 -214h-145zM430 55l-129 214l130 216h144l-122 -216l122 -214h-145z" />
    <glyph glyph-name="logicalnot" unicode="&#xac;" horiz-adv-x="657" 
d="M42 300v110h554v-274h-114v164h-440z" />
    <glyph glyph-name="uni00AD" unicode="&#xad;" horiz-adv-x="494" 
d="M87 225v121h320v-121h-320z" />
    <glyph glyph-name="registered" unicode="&#xae;" horiz-adv-x="605" 
d="M50 539c0 143 103 253 252 253c151 0 253 -110 253 -253c0 -142 -102 -251 -253 -251c-149 0 -252 109 -252 251zM111 539c0 -109 77 -191 191 -191c116 0 193 82 193 191c0 111 -77 193 -193 193c-114 0 -191 -82 -191 -193zM200 412v264h111c50 0 99 -18 99 -88
c0 -38 -19 -65 -46 -76l62 -100h-77l-51 88h-27v-88h-71zM269 556h33c19 0 35 7 35 30c0 25 -15 30 -36 30h-32v-60z" />
    <glyph glyph-name="macron" unicode="&#xaf;" horiz-adv-x="485" 
d="M73 650v100h340v-100h-340z" />
    <glyph glyph-name="degree" unicode="&#xb0;" horiz-adv-x="400" 
d="M43 552c0 98 69 161 157 161c87 0 157 -61 157 -161c0 -99 -69 -160 -155 -160c-90 0 -159 61 -159 160zM136 551c0 -45 27 -69 65 -69c39 0 65 22 65 69c0 48 -28 71 -65 71c-39 0 -65 -25 -65 -71z" />
    <glyph glyph-name="plusminus" unicode="&#xb1;" horiz-adv-x="597" 
d="M64 54v119h469v-119h-469zM64 378v119h176v146h118v-146h175v-119h-175v-146h-118v146h-176z" />
    <glyph glyph-name="twosuperior" unicode="&#xb2;" 
d="M47 381v100l133 80c71 44 94 71 94 101c0 26 -18 52 -82 52c-43 0 -94 -7 -132 -26v99c51 17 96 23 150 23c132 0 182 -57 182 -128c0 -65 -44 -120 -158 -177l-49 -27v-1h211v-96h-349z" />
    <glyph glyph-name="threesuperior" unicode="&#xb3;" 
d="M122 556v80h75c50 0 79 10 79 40c0 27 -23 40 -86 40c-48 0 -95 -5 -129 -18v93c48 16 111 19 161 19c135 0 174 -56 174 -110c0 -53 -37 -80 -103 -100v-1c88 -14 113 -54 113 -99c0 -72 -64 -127 -203 -127c-37 0 -96 3 -149 19v96c50 -19 96 -20 135 -20
c72 0 97 16 97 43c0 33 -23 45 -79 45h-85z" />
    <glyph glyph-name="acute" unicode="&#xb4;" horiz-adv-x="485" 
d="M122 630l100 160h190l-170 -160h-120z" />
    <glyph glyph-name="mu" unicode="&#xb5;" horiz-adv-x="683" 
d="M451 0l-5 79c-39 -64 -93 -90 -185 -90c-16 0 -30 2 -43 6v-205h-147v753h161v-313c0 -77 26 -106 103 -106s110 33 110 113v306h162v-543h-156z" />
    <glyph glyph-name="mu" unicode="&#x3bc;" horiz-adv-x="683" 
d="M451 0l-5 79c-39 -64 -93 -90 -185 -90c-16 0 -30 2 -43 6v-205h-147v753h161v-313c0 -77 26 -106 103 -106s110 33 110 113v306h162v-543h-156z" />
    <glyph glyph-name="paragraph" unicode="&#xb6;" horiz-adv-x="579" 
d="M228 -210v539c-112 0 -179 74 -179 182c0 168 148 189 219 189h237v-910h-99v818h-78v-818h-100z" />
    <glyph glyph-name="periodcentered" unicode="&#xb7;" horiz-adv-x="250" 
d="M35 358c0 55 33 88 90 88c55 0 90 -34 90 -88c0 -55 -32 -89 -90 -89c-56 0 -90 35 -90 89z" />
    <glyph glyph-name="cedilla" unicode="&#xb8;" horiz-adv-x="485" 
d="M163 -104l18 104h82l-11 -52c58 -1 110 -25 110 -94c0 -63 -53 -108 -133 -108c-39 0 -75 6 -101 16l11 66c19 -7 38 -12 60 -12c31 0 54 15 54 44s-29 37 -58 37c-9 0 -23 0 -32 -1z" />
    <glyph glyph-name="onesuperior" unicode="&#xb9;" 
d="M214 381v299l-109 -56l-45 81l175 95h95v-419h-116z" />
    <glyph glyph-name="ordmasculine" unicode="&#xba;" horiz-adv-x="425" 
d="M24 530c0 120 71 182 188 182c120 0 189 -60 189 -182c0 -120 -68 -182 -189 -182c-120 0 -188 57 -188 182zM139 530c0 -66 29 -93 73 -93c48 0 74 26 74 93c0 68 -26 93 -74 93c-46 0 -73 -26 -73 -93z" />
    <glyph glyph-name="guillemotright" unicode="&#xbb;" horiz-adv-x="629" 
d="M582 269l-128 -214h-146l122 215l-122 215h145zM328 269l-128 -214h-146l122 215l-122 215h145z" />
    <glyph glyph-name="onequarter" unicode="&#xbc;" horiz-adv-x="950" 
d="M171 -14l482 727h102l-481 -727h-103zM487 82v87l224 251h132v-247h58v-91h-58v-81h-112v81h-244zM732 172v155h-1l-139 -155h140zM186 281v299l-109 -56l-45 81l175 95h95v-419h-116z" />
    <glyph glyph-name="onehalf" unicode="&#xbd;" horiz-adv-x="950" 
d="M146 -14l482 727h102l-481 -727h-103zM561 1v100l133 80c71 44 94 71 94 101c0 26 -18 52 -82 52c-43 0 -94 -7 -132 -26v99c51 17 96 23 150 23c132 0 182 -57 182 -128c0 -65 -44 -120 -158 -177l-49 -27v-1h211v-96h-349zM177 281v299l-109 -56l-45 81l175 95h95v-419
h-116z" />
    <glyph glyph-name="threequarters" unicode="&#xbe;" horiz-adv-x="950" 
d="M193 -14l482 727h102l-481 -727h-103zM506 82v87l224 251h132v-247h58v-91h-58v-81h-112v81h-244zM751 172v155h-1l-139 -155h140zM105 456v80h75c50 0 79 10 79 40c0 27 -23 40 -86 40c-48 0 -95 -5 -129 -18v93c48 16 111 19 161 19c135 0 174 -56 174 -110
c0 -53 -37 -80 -103 -100v-1c88 -14 113 -54 113 -99c0 -72 -64 -127 -203 -127c-37 0 -96 3 -149 19v96c50 -19 96 -20 135 -20c72 0 97 16 97 43c0 33 -23 45 -79 45h-85z" />
    <glyph glyph-name="questiondown" unicode="&#xbf;" horiz-adv-x="576" 
d="M414 299c0 -172 -174 -161 -174 -265c0 -43 32 -65 96 -65c71 0 133 25 176 55v-163c-44 -18 -112 -33 -202 -33c-160 0 -240 59 -240 179c0 197 200 179 200 292h144zM439 463c0 -54 -31 -89 -97 -89c-62 0 -97 37 -97 89c0 54 33 89 97 89c62 0 97 -36 97 -89z" />
    <glyph glyph-name="Agrave" unicode="&#xc0;" horiz-adv-x="707" 
d="M528 0l-50 147h-256l-48 -147h-163l246 700h194l245 -700h-168zM350 531l-83 -249h166zM326 920l88 -160h-120l-160 160h192z" />
    <glyph glyph-name="Aacute" unicode="&#xc1;" horiz-adv-x="707" 
d="M528 0l-50 147h-256l-48 -147h-163l246 700h194l245 -700h-168zM350 531l-83 -249h166zM293 755l108 170h192l-178 -170h-122z" />
    <glyph glyph-name="Acircumflex" unicode="&#xc2;" horiz-adv-x="707" 
d="M528 0l-50 147h-256l-48 -147h-163l246 700h194l245 -700h-168zM350 531l-83 -249h166zM154 755l120 170h160l120 -170h-121l-78 97l-80 -97h-121z" />
    <glyph glyph-name="Atilde" unicode="&#xc3;" horiz-adv-x="707" 
d="M528 0l-50 147h-256l-48 -147h-163l246 700h194l245 -700h-168zM350 531l-83 -249h166zM240 768l-81 12c3 86 54 132 116 132c29 0 53 -11 86 -26c36 -16 45 -21 63 -21c22 0 40 17 44 47l81 -13c-4 -81 -53 -131 -116 -131c-33 0 -49 6 -87 24c-30 14 -42 24 -61 24
c-18 0 -40 -17 -45 -48z" />
    <glyph glyph-name="Adieresis" unicode="&#xc4;" horiz-adv-x="707" 
d="M528 0l-50 147h-256l-48 -147h-163l246 700h194l245 -700h-168zM350 531l-83 -249h166zM239 762c-60 0 -86 26 -86 78s26 78 86 78s86 -26 86 -78s-26 -78 -86 -78zM467 762c-60 0 -86 26 -86 78s26 78 86 78s86 -26 86 -78s-26 -78 -86 -78z" />
    <glyph glyph-name="Aring" unicode="&#xc5;" horiz-adv-x="707" 
d="M528 0l-50 147h-256l-48 -147h-163l246 700h194l245 -700h-168zM350 531l-83 -249h166zM235 840c0 68 50 118 118 118s118 -50 118 -118s-50 -118 -118 -118s-118 50 -118 118zM309 840c0 -28 17 -45 44 -45s44 17 44 45s-17 45 -44 45s-44 -17 -44 -45z" />
    <glyph glyph-name="AE" unicode="&#xc6;" horiz-adv-x="1038" 
d="M507 0v147h-244l-85 -147h-167l412 700h555v-142h-307v-138h272v-132h-272v-146h311v-142h-475zM344 288h163v280z" />
    <glyph glyph-name="Ccedilla" unicode="&#xc7;" horiz-adv-x="656" 
d="M317 -113l16 104c-200 19 -283 132 -283 353c0 252 105 369 355 369c94 0 157 -20 190 -31v-167c-41 24 -95 50 -186 50c-126 0 -185 -54 -185 -212c0 -166 63 -218 193 -218c87 0 151 28 186 53v-163c-34 -16 -98 -36 -185 -38l-7 -41c59 0 116 -26 116 -97
c0 -68 -62 -113 -145 -113c-45 0 -76 6 -103 17l12 69c19 -8 40 -13 63 -13c32 0 59 13 59 42c0 31 -32 38 -62 38c-10 0 -24 0 -34 -2z" />
    <glyph glyph-name="Egrave" unicode="&#xc8;" horiz-adv-x="636" 
d="M91 0v700h488v-142h-324v-138h285v-132h-285v-146h324v-142h-488zM304 920l88 -160h-120l-160 160h192z" />
    <glyph glyph-name="Eacute" unicode="&#xc9;" horiz-adv-x="636" 
d="M91 0v700h488v-142h-324v-138h285v-132h-285v-146h324v-142h-488zM271 755l108 170h192l-178 -170h-122z" />
    <glyph glyph-name="Ecircumflex" unicode="&#xca;" horiz-adv-x="636" 
d="M91 0v700h488v-142h-324v-138h285v-132h-285v-146h324v-142h-488zM135 755l120 170h160l120 -170h-121l-78 97l-80 -97h-121z" />
    <glyph glyph-name="Edieresis" unicode="&#xcb;" horiz-adv-x="636" 
d="M91 0v700h488v-142h-324v-138h285v-132h-285v-146h324v-142h-488zM221 762c-60 0 -86 26 -86 78s26 78 86 78s86 -26 86 -78s-26 -78 -86 -78zM449 762c-60 0 -86 26 -86 78s26 78 86 78s86 -26 86 -78s-26 -78 -86 -78z" />
    <glyph glyph-name="Igrave" unicode="&#xcc;" horiz-adv-x="349" 
d="M93 0v700h163v-700h-163zM147 920l88 -160h-120l-160 160h192z" />
    <glyph glyph-name="Iacute" unicode="&#xcd;" horiz-adv-x="349" 
d="M93 0v700h163v-700h-163zM114 755l108 170h192l-178 -170h-122z" />
    <glyph glyph-name="Icircumflex" unicode="&#xce;" horiz-adv-x="349" 
d="M93 0v700h163v-700h-163zM-26 755l120 170h160l120 -170h-121l-78 97l-80 -97h-121z" />
    <glyph glyph-name="Idieresis" unicode="&#xcf;" horiz-adv-x="349" 
d="M93 0v700h163v-700h-163zM60 762c-60 0 -86 26 -86 78s26 78 86 78s86 -26 86 -78s-26 -78 -86 -78zM288 762c-60 0 -86 26 -86 78s26 78 86 78s86 -26 86 -78s-26 -78 -86 -78z" />
    <glyph glyph-name="Eth" unicode="&#xd0;" horiz-adv-x="753" 
d="M22 294v121h69v284c84 5 142 7 241 7c286 0 371 -121 371 -339c0 -254 -118 -373 -388 -373c-87 0 -145 3 -224 8v292h-69zM255 139c24 -3 43 -4 68 -4c150 0 211 65 211 223c0 147 -53 207 -199 207c-30 0 -53 -1 -80 -4v-146h162v-121h-162v-155z" />
    <glyph glyph-name="Ntilde" unicode="&#xd1;" horiz-adv-x="800" 
d="M91 0v700h177l231 -366c21 -34 38 -70 55 -102c-3 35 -5 74 -5 113v355h160v-700h-171l-233 370c-21 32 -41 75 -60 111c2 -35 5 -74 5 -112v-369h-159zM286 768l-81 12c3 86 54 132 116 132c29 0 53 -11 86 -26c36 -16 45 -21 63 -21c22 0 40 17 44 47l81 -13
c-4 -81 -53 -131 -116 -131c-33 0 -49 6 -87 24c-30 14 -42 24 -61 24c-18 0 -40 -17 -45 -48z" />
    <glyph glyph-name="Ograve" unicode="&#xd2;" horiz-adv-x="793" 
d="M50 350c0 254 112 364 348 364c250 0 344 -111 344 -364c0 -263 -119 -364 -344 -364c-226 0 -348 109 -348 364zM224 349c0 -174 68 -221 177 -221s168 50 168 221c0 172 -59 223 -175 223c-115 0 -170 -60 -170 -223zM369 920l88 -160h-120l-160 160h192z" />
    <glyph glyph-name="Oacute" unicode="&#xd3;" horiz-adv-x="793" 
d="M50 350c0 254 112 364 348 364c250 0 344 -111 344 -364c0 -263 -119 -364 -344 -364c-226 0 -348 109 -348 364zM224 349c0 -174 68 -221 177 -221s168 50 168 221c0 172 -59 223 -175 223c-115 0 -170 -60 -170 -223zM336 755l108 170h192l-178 -170h-122z" />
    <glyph glyph-name="Ocircumflex" unicode="&#xd4;" horiz-adv-x="793" 
d="M50 350c0 254 112 364 348 364c250 0 344 -111 344 -364c0 -263 -119 -364 -344 -364c-226 0 -348 109 -348 364zM224 349c0 -174 68 -221 177 -221s168 50 168 221c0 172 -59 223 -175 223c-115 0 -170 -60 -170 -223zM197 755l120 170h160l120 -170h-121l-78 97
l-80 -97h-121z" />
    <glyph glyph-name="Otilde" unicode="&#xd5;" horiz-adv-x="793" 
d="M50 350c0 254 112 364 348 364c250 0 344 -111 344 -364c0 -263 -119 -364 -344 -364c-226 0 -348 109 -348 364zM224 349c0 -174 68 -221 177 -221s168 50 168 221c0 172 -59 223 -175 223c-115 0 -170 -60 -170 -223zM283 768l-81 12c3 86 54 132 116 132
c29 0 53 -11 86 -26c36 -16 45 -21 63 -21c22 0 40 17 44 47l81 -13c-4 -81 -53 -131 -116 -131c-33 0 -49 6 -87 24c-30 14 -42 24 -61 24c-18 0 -40 -17 -45 -48z" />
    <glyph glyph-name="Odieresis" unicode="&#xd6;" horiz-adv-x="793" 
d="M50 350c0 254 112 364 348 364c250 0 344 -111 344 -364c0 -263 -119 -364 -344 -364c-226 0 -348 109 -348 364zM224 349c0 -174 68 -221 177 -221s168 50 168 221c0 172 -59 223 -175 223c-115 0 -170 -60 -170 -223zM282 762c-60 0 -86 26 -86 78s26 78 86 78
s86 -26 86 -78s-26 -78 -86 -78zM510 762c-60 0 -86 26 -86 78s26 78 86 78s86 -26 86 -78s-26 -78 -86 -78z" />
    <glyph glyph-name="multiply" unicode="&#xd7;" horiz-adv-x="569" 
d="M68 186l134 138l-134 139l83 83l133 -137l134 137l84 -83l-135 -139l135 -138l-84 -82l-134 137l-133 -137z" />
    <glyph glyph-name="Oslash" unicode="&#xd8;" horiz-adv-x="793" 
d="M50 350c0 254 112 364 348 364c76 0 137 -11 186 -32l49 66l72 -54l-46 -62c58 -59 83 -152 83 -282c0 -263 -119 -364 -344 -364c-76 0 -141 13 -193 38l-57 -76l-73 53l58 78c-55 59 -83 148 -83 271zM569 349c0 58 -7 103 -20 136l-250 -335c28 -16 62 -22 102 -22
c109 0 168 50 168 221zM224 349c0 -52 6 -93 17 -125l247 330c-26 13 -57 18 -94 18c-115 0 -170 -60 -170 -223z" />
    <glyph glyph-name="Ugrave" unicode="&#xd9;" horiz-adv-x="755" 
d="M86 280v420h164v-404c0 -136 38 -167 132 -167c88 0 123 29 123 163v408h164v-419c0 -228 -108 -294 -291 -294c-193 0 -292 69 -292 293zM350 920l88 -160h-120l-160 160h192z" />
    <glyph glyph-name="Uacute" unicode="&#xda;" horiz-adv-x="755" 
d="M86 280v420h164v-404c0 -136 38 -167 132 -167c88 0 123 29 123 163v408h164v-419c0 -228 -108 -294 -291 -294c-193 0 -292 69 -292 293zM317 755l108 170h192l-178 -170h-122z" />
    <glyph glyph-name="Ucircumflex" unicode="&#xdb;" horiz-adv-x="755" 
d="M86 280v420h164v-404c0 -136 38 -167 132 -167c88 0 123 29 123 163v408h164v-419c0 -228 -108 -294 -291 -294c-193 0 -292 69 -292 293zM178 755l120 170h160l120 -170h-121l-78 97l-80 -97h-121z" />
    <glyph glyph-name="Udieresis" unicode="&#xdc;" horiz-adv-x="755" 
d="M86 280v420h164v-404c0 -136 38 -167 132 -167c88 0 123 29 123 163v408h164v-419c0 -228 -108 -294 -291 -294c-193 0 -292 69 -292 293zM263 762c-60 0 -86 26 -86 78s26 78 86 78s86 -26 86 -78s-26 -78 -86 -78zM491 762c-60 0 -86 26 -86 78s26 78 86 78
s86 -26 86 -78s-26 -78 -86 -78z" />
    <glyph glyph-name="Yacute" unicode="&#xdd;" horiz-adv-x="666" 
d="M252 0v252l-242 448h187l139 -267l134 267h186l-240 -448v-252h-164zM273 755l108 170h192l-178 -170h-122z" />
    <glyph glyph-name="Thorn" unicode="&#xde;" horiz-adv-x="634" 
d="M70 -7v714h164v-96h90c176 0 271 -71 271 -231c0 -157 -90 -246 -285 -246h-76v-141h-164zM231 278h79c80 0 115 31 115 95c0 69 -35 95 -117 95h-77v-190z" />
    <glyph glyph-name="germandbls" unicode="&#xdf;" horiz-adv-x="675" 
d="M63 0v518c0 179 82 280 282 280c169 0 253 -84 253 -204c0 -99 -57 -153 -121 -174v-4c84 -13 155 -70 155 -196c0 -121 -75 -230 -242 -230c-38 0 -67 2 -97 11v122c19 -6 42 -10 68 -10c64 0 105 35 105 118c0 96 -51 117 -117 117h-44v120h36c56 0 92 32 92 107
c0 68 -44 95 -98 95c-87 0 -110 -66 -110 -150v-520h-162z" />
    <glyph glyph-name="agrave" unicode="&#xe0;" horiz-adv-x="619" 
d="M406 0l-6 78c-22 -41 -80 -92 -182 -92c-128 0 -180 72 -180 169c0 118 74 163 241 163h110v26c0 57 -28 80 -115 80c-72 0 -147 -30 -187 -62v153c46 22 128 39 215 39c185 0 248 -52 248 -203v-351h-144zM200 172c0 -36 18 -64 78 -64c79 0 111 41 111 96v29h-88
c-77 0 -101 -16 -101 -61zM386 630h-120l-170 160h190z" />
    <glyph glyph-name="aacute" unicode="&#xe1;" horiz-adv-x="619" 
d="M406 0l-6 78c-22 -41 -80 -92 -182 -92c-128 0 -180 72 -180 169c0 118 74 163 241 163h110v26c0 57 -28 80 -115 80c-72 0 -147 -30 -187 -62v153c46 22 128 39 215 39c185 0 248 -52 248 -203v-351h-144zM200 172c0 -36 18 -64 78 -64c79 0 111 41 111 96v29h-88
c-77 0 -101 -16 -101 -61zM241 630l100 160h190l-170 -160h-120z" />
    <glyph glyph-name="acircumflex" unicode="&#xe2;" horiz-adv-x="619" 
d="M406 0l-6 78c-22 -41 -80 -92 -182 -92c-128 0 -180 72 -180 169c0 118 74 163 241 163h110v26c0 57 -28 80 -115 80c-72 0 -147 -30 -187 -62v153c46 22 128 39 215 39c185 0 248 -52 248 -203v-351h-144zM200 172c0 -36 18 -64 78 -64c79 0 111 41 111 96v29h-88
c-77 0 -101 -16 -101 -61zM120 620l112 160h156l112 -160h-121l-68 87l-70 -87h-121z" />
    <glyph glyph-name="atilde" unicode="&#xe3;" horiz-adv-x="619" 
d="M406 0l-6 78c-22 -41 -80 -92 -182 -92c-128 0 -180 72 -180 169c0 118 74 163 241 163h110v26c0 57 -28 80 -115 80c-72 0 -147 -30 -187 -62v153c46 22 128 39 215 39c185 0 248 -52 248 -203v-351h-144zM200 172c0 -36 18 -64 78 -64c79 0 111 41 111 96v29h-88
c-77 0 -101 -16 -101 -61zM201 628l-81 12c3 86 49 132 111 132c29 0 53 -11 86 -26c36 -16 45 -21 63 -21c22 0 35 17 39 47l81 -13c-4 -81 -48 -131 -111 -131c-33 0 -49 6 -87 24c-30 14 -42 24 -61 24c-18 0 -35 -17 -40 -48z" />
    <glyph glyph-name="adieresis" unicode="&#xe4;" horiz-adv-x="619" 
d="M406 0l-6 78c-22 -41 -80 -92 -182 -92c-128 0 -180 72 -180 169c0 118 74 163 241 163h110v26c0 57 -28 80 -115 80c-72 0 -147 -30 -187 -62v153c46 22 128 39 215 39c185 0 248 -52 248 -203v-351h-144zM200 172c0 -36 18 -64 78 -64c79 0 111 41 111 96v29h-88
c-77 0 -101 -16 -101 -61zM199 624c-59 0 -84 25 -84 76s25 76 84 76s84 -25 84 -76s-25 -76 -84 -76zM421 624c-59 0 -84 25 -84 76s25 76 84 76s84 -25 84 -76s-25 -76 -84 -76z" />
    <glyph glyph-name="aring" unicode="&#xe5;" horiz-adv-x="619" 
d="M406 0l-6 78c-22 -41 -80 -92 -182 -92c-128 0 -180 72 -180 169c0 118 74 163 241 163h110v26c0 57 -28 80 -115 80c-72 0 -147 -30 -187 -62v153c46 22 128 39 215 39c185 0 248 -52 248 -203v-351h-144zM200 172c0 -36 18 -64 78 -64c79 0 111 41 111 96v29h-88
c-77 0 -101 -16 -101 -61zM194 700c0 69 47 116 116 116s116 -47 116 -116s-47 -116 -116 -116s-116 47 -116 116zM266 700c0 -27 17 -44 44 -44s44 17 44 44s-17 44 -44 44s-44 -17 -44 -44z" />
    <glyph glyph-name="ae" unicode="&#xe6;" horiz-adv-x="984" 
d="M941 230h-386c3 -81 49 -119 151 -119c79 0 158 27 198 60v-136c-27 -22 -109 -49 -220 -49c-103 0 -175 23 -221 71c-33 -36 -88 -71 -209 -71c-153 0 -216 72 -216 169c0 119 77 164 244 164h110v26c0 57 -28 79 -115 79c-72 0 -150 -29 -190 -61v153
c46 22 131 38 218 38c92 0 153 -13 191 -47c45 32 105 47 178 47c200 0 267 -100 267 -257v-67zM671 435c-78 0 -114 -37 -117 -115h228c1 74 -28 115 -111 115zM200 172c0 -36 22 -64 81 -64c79 0 111 40 111 95v27h-88c-77 0 -104 -12 -104 -58z" />
    <glyph glyph-name="ccedilla" unicode="&#xe7;" horiz-adv-x="580" 
d="M271 -104l16 93c-169 15 -240 102 -240 288c0 187 91 277 296 277c93 0 142 -16 176 -32v-149c-37 26 -85 47 -158 47c-100 0 -149 -37 -149 -144c0 -108 45 -155 165 -155c60 0 120 19 152 44v-141c-30 -16 -82 -34 -161 -37l-8 -39c58 -1 110 -25 110 -94
c0 -63 -53 -108 -133 -108c-39 0 -75 6 -101 16l11 66c19 -7 38 -12 60 -12c31 0 54 15 54 44s-29 37 -58 37c-9 0 -23 0 -32 -1z" />
    <glyph glyph-name="egrave" unicode="&#xe8;" horiz-adv-x="641" 
d="M597 231h-389c3 -84 52 -120 155 -120c78 0 157 27 197 60v-136c-27 -22 -109 -49 -220 -49c-213 0 -293 94 -293 293c0 186 103 275 284 275c199 0 266 -101 266 -258v-65zM328 435c-79 0 -117 -38 -121 -113h231c1 72 -28 113 -110 113zM407 630h-120l-170 160h190z
" />
    <glyph glyph-name="eacute" unicode="&#xe9;" horiz-adv-x="641" 
d="M597 231h-389c3 -84 52 -120 155 -120c78 0 157 27 197 60v-136c-27 -22 -109 -49 -220 -49c-213 0 -293 94 -293 293c0 186 103 275 284 275c199 0 266 -101 266 -258v-65zM328 435c-79 0 -117 -38 -121 -113h231c1 72 -28 113 -110 113zM263 630l100 160h190l-170 -160
h-120z" />
    <glyph glyph-name="ecircumflex" unicode="&#xea;" horiz-adv-x="641" 
d="M597 231h-389c3 -84 52 -120 155 -120c78 0 157 27 197 60v-136c-27 -22 -109 -49 -220 -49c-213 0 -293 94 -293 293c0 186 103 275 284 275c199 0 266 -101 266 -258v-65zM328 435c-79 0 -117 -38 -121 -113h231c1 72 -28 113 -110 113zM141 620l112 160h156l112 -160
h-121l-68 87l-70 -87h-121z" />
    <glyph glyph-name="edieresis" unicode="&#xeb;" horiz-adv-x="641" 
d="M597 231h-389c3 -84 52 -120 155 -120c78 0 157 27 197 60v-136c-27 -22 -109 -49 -220 -49c-213 0 -293 94 -293 293c0 186 103 275 284 275c199 0 266 -101 266 -258v-65zM328 435c-79 0 -117 -38 -121 -113h231c1 72 -28 113 -110 113zM221 624c-59 0 -84 25 -84 76
s25 76 84 76s84 -25 84 -76s-25 -76 -84 -76zM443 624c-59 0 -84 25 -84 76s25 76 84 76s84 -25 84 -76s-25 -76 -84 -76z" />
    <glyph glyph-name="igrave" unicode="&#xec;" horiz-adv-x="321" 
d="M80 0v540h160v-540h-160zM238 630h-120l-170 160h190z" />
    <glyph glyph-name="iacute" unicode="&#xed;" horiz-adv-x="321" 
d="M80 0v540h160v-540h-160zM93 630l100 160h190l-170 -160h-120z" />
    <glyph glyph-name="icircumflex" unicode="&#xee;" horiz-adv-x="321" 
d="M80 0v540h160v-540h-160zM-30 620l112 160h156l112 -160h-121l-68 87l-70 -87h-121z" />
    <glyph glyph-name="idieresis" unicode="&#xef;" horiz-adv-x="321" 
d="M80 0v540h160v-540h-160zM49 624c-59 0 -84 25 -84 76s25 76 84 76s84 -25 84 -76s-25 -76 -84 -76zM271 624c-59 0 -84 25 -84 76s25 76 84 76s84 -25 84 -76s-25 -76 -84 -76z" />
    <glyph glyph-name="eth" unicode="&#xf0;" horiz-adv-x="666" 
d="M191 555l-33 62l81 41c-49 21 -94 33 -128 38l57 102c65 -11 135 -35 204 -72l137 67l34 -63l-101 -51c128 -114 176 -253 176 -400c0 -235 -163 -291 -297 -291c-202 0 -277 112 -277 272c0 169 91 263 250 263c42 0 91 -8 137 -52l4 2c-17 48 -50 95 -118 144zM208 262
c0 -104 49 -147 123 -147c81 0 123 43 123 147c0 93 -39 144 -123 144c-79 0 -123 -40 -123 -144z" />
    <glyph glyph-name="ntilde" unicode="&#xf1;" horiz-adv-x="676" 
d="M76 0v540h154l5 -76c33 66 97 90 175 90c130 0 197 -55 197 -195v-359h-159v305c0 89 -25 117 -104 117c-78 0 -109 -40 -109 -117v-305h-159zM233 628l-81 12c3 86 49 132 111 132c29 0 53 -11 86 -26c36 -16 45 -21 63 -21c22 0 35 17 39 47l81 -13
c-4 -81 -48 -131 -111 -131c-33 0 -49 6 -87 24c-30 14 -42 24 -61 24c-18 0 -35 -17 -40 -48z" />
    <glyph glyph-name="ograve" unicode="&#xf2;" horiz-adv-x="675" 
d="M47 271c0 191 101 283 293 283c200 0 288 -88 288 -284c0 -195 -95 -284 -291 -284c-203 0 -290 92 -290 285zM211 271v-4c0 -102 35 -154 128 -154c89 0 125 45 125 153v5c0 110 -31 156 -127 156c-94 0 -126 -49 -126 -156zM414 630h-120l-170 160h190z" />
    <glyph glyph-name="oacute" unicode="&#xf3;" horiz-adv-x="675" 
d="M47 271c0 191 101 283 293 283c200 0 288 -88 288 -284c0 -195 -95 -284 -291 -284c-203 0 -290 92 -290 285zM211 271v-4c0 -102 35 -154 128 -154c89 0 125 45 125 153v5c0 110 -31 156 -127 156c-94 0 -126 -49 -126 -156zM269 630l100 160h190l-170 -160h-120z" />
    <glyph glyph-name="ocircumflex" unicode="&#xf4;" horiz-adv-x="675" 
d="M47 271c0 191 101 283 293 283c200 0 288 -88 288 -284c0 -195 -95 -284 -291 -284c-203 0 -290 92 -290 285zM211 271v-4c0 -102 35 -154 128 -154c89 0 125 45 125 153v5c0 110 -31 156 -127 156c-94 0 -126 -49 -126 -156zM148 620l112 160h156l112 -160h-121l-68 87
l-70 -87h-121z" />
    <glyph glyph-name="otilde" unicode="&#xf5;" horiz-adv-x="675" 
d="M47 271c0 191 101 283 293 283c200 0 288 -88 288 -284c0 -195 -95 -284 -291 -284c-203 0 -290 92 -290 285zM211 271v-4c0 -102 35 -154 128 -154c89 0 125 45 125 153v5c0 110 -31 156 -127 156c-94 0 -126 -49 -126 -156zM229 628l-81 12c3 86 49 132 111 132
c29 0 53 -11 86 -26c36 -16 45 -21 63 -21c22 0 35 17 39 47l81 -13c-4 -81 -48 -131 -111 -131c-33 0 -49 6 -87 24c-30 14 -42 24 -61 24c-18 0 -35 -17 -40 -48z" />
    <glyph glyph-name="odieresis" unicode="&#xf6;" horiz-adv-x="675" 
d="M47 271c0 191 101 283 293 283c200 0 288 -88 288 -284c0 -195 -95 -284 -291 -284c-203 0 -290 92 -290 285zM211 271v-4c0 -102 35 -154 128 -154c89 0 125 45 125 153v5c0 110 -31 156 -127 156c-94 0 -126 -49 -126 -156zM226 624c-59 0 -84 25 -84 76s25 76 84 76
s84 -25 84 -76s-25 -76 -84 -76zM448 624c-59 0 -84 25 -84 76s25 76 84 76s84 -25 84 -76s-25 -76 -84 -76z" />
    <glyph glyph-name="divide" unicode="&#xf7;" horiz-adv-x="585" 
d="M214 133c0 49 30 78 80 78c46 0 78 -30 78 -78c0 -50 -28 -78 -78 -78c-49 0 -80 29 -80 78zM214 517c0 49 30 78 80 78c46 0 78 -30 78 -78c0 -50 -28 -78 -78 -78c-49 0 -80 30 -80 78zM58 266v118h470v-118h-470z" />
    <glyph glyph-name="oslash" unicode="&#xf8;" horiz-adv-x="675" 
d="M47 271c0 191 101 283 293 283c55 0 102 -7 141 -21l52 68l63 -46l-46 -61c53 -46 78 -120 78 -224c0 -195 -95 -284 -291 -284c-61 0 -111 8 -152 25l-53 -70l-63 47l49 65c-49 47 -71 120 -71 218zM464 271c0 38 -4 69 -13 92l-179 -237c18 -9 40 -13 67 -13
c89 0 125 45 125 153v5zM211 271v-4c0 -31 3 -57 10 -78l174 230c-16 5 -35 8 -58 8c-94 0 -126 -49 -126 -156z" />
    <glyph glyph-name="ugrave" unicode="&#xf9;" horiz-adv-x="676" 
d="M446 0l-5 79c-37 -63 -93 -93 -182 -93c-129 0 -188 64 -188 205v349h159v-311c0 -77 26 -109 101 -109c76 0 109 37 109 116v304h159v-540h-153zM414 630h-120l-170 160h190z" />
    <glyph glyph-name="uacute" unicode="&#xfa;" horiz-adv-x="676" 
d="M446 0l-5 79c-37 -63 -93 -93 -182 -93c-129 0 -188 64 -188 205v349h159v-311c0 -77 26 -109 101 -109c76 0 109 37 109 116v304h159v-540h-153zM270 630l100 160h190l-170 -160h-120z" />
    <glyph glyph-name="ucircumflex" unicode="&#xfb;" horiz-adv-x="676" 
d="M446 0l-5 79c-37 -63 -93 -93 -182 -93c-129 0 -188 64 -188 205v349h159v-311c0 -77 26 -109 101 -109c76 0 109 37 109 116v304h159v-540h-153zM148 620l112 160h156l112 -160h-121l-68 87l-70 -87h-121z" />
    <glyph glyph-name="udieresis" unicode="&#xfc;" horiz-adv-x="676" 
d="M446 0l-5 79c-37 -63 -93 -93 -182 -93c-129 0 -188 64 -188 205v349h159v-311c0 -77 26 -109 101 -109c76 0 109 37 109 116v304h159v-540h-153zM224 624c-59 0 -84 25 -84 76s25 76 84 76s84 -25 84 -76s-25 -76 -84 -76zM446 624c-59 0 -84 25 -84 76s25 76 84 76
s84 -25 84 -76s-25 -76 -84 -76z" />
    <glyph glyph-name="yacute" unicode="&#xfd;" horiz-adv-x="602" 
d="M191 -60c29 0 46 13 59 58l-233 542h180l127 -349l100 349h164l-183 -526c-58 -167 -107 -208 -197 -208c-30 0 -67 5 -86 13l1 139c17 -9 43 -18 68 -18zM233 630l100 160h190l-170 -160h-120z" />
    <glyph glyph-name="thorn" unicode="&#xfe;" horiz-adv-x="696" 
d="M75 -180v943h160v-302c30 56 86 93 185 93c162 0 229 -79 229 -275c0 -198 -70 -290 -241 -290c-100 0 -148 42 -173 79v-248h-160zM235 251c0 -84 36 -134 125 -134c92 0 122 47 122 161c0 106 -37 148 -123 148c-88 0 -124 -49 -124 -132v-43z" />
    <glyph glyph-name="ydieresis" unicode="&#xff;" horiz-adv-x="602" 
d="M191 -60c29 0 46 13 59 58l-233 542h180l127 -349l100 349h164l-183 -526c-58 -167 -107 -208 -197 -208c-30 0 -67 5 -86 13l1 139c17 -9 43 -18 68 -18zM191 624c-59 0 -84 25 -84 76s25 76 84 76s84 -25 84 -76s-25 -76 -84 -76zM413 624c-59 0 -84 25 -84 76
s25 76 84 76s84 -25 84 -76s-25 -76 -84 -76z" />
    <glyph glyph-name="Amacron" unicode="&#x100;" horiz-adv-x="707" 
d="M528 0l-50 147h-256l-48 -147h-163l246 700h194l245 -700h-168zM350 531l-83 -249h166zM178 788v104h350v-104h-350z" />
    <glyph glyph-name="amacron" unicode="&#x101;" horiz-adv-x="619" 
d="M406 0l-6 78c-22 -41 -80 -92 -182 -92c-128 0 -180 72 -180 169c0 118 74 163 241 163h110v26c0 57 -28 80 -115 80c-72 0 -147 -30 -187 -62v153c46 22 128 39 215 39c185 0 248 -52 248 -203v-351h-144zM200 172c0 -36 18 -64 78 -64c79 0 111 41 111 96v29h-88
c-77 0 -101 -16 -101 -61zM140 650v100h340v-100h-340z" />
    <glyph glyph-name="Abreve" unicode="&#x102;" horiz-adv-x="707" 
d="M528 0l-50 147h-256l-48 -147h-163l246 700h194l245 -700h-168zM350 531l-83 -249h166zM353 755c-95 0 -155 47 -180 145l94 25c15 -50 46 -70 86 -70s71 20 86 70l94 -25c-25 -98 -85 -145 -180 -145z" />
    <glyph glyph-name="abreve" unicode="&#x103;" horiz-adv-x="619" 
d="M406 0l-6 78c-22 -41 -80 -92 -182 -92c-128 0 -180 72 -180 169c0 118 74 163 241 163h110v26c0 57 -28 80 -115 80c-72 0 -147 -30 -187 -62v153c46 22 128 39 215 39c185 0 248 -52 248 -203v-351h-144zM200 172c0 -36 18 -64 78 -64c79 0 111 41 111 96v29h-88
c-77 0 -101 -16 -101 -61zM310 615c-95 0 -155 47 -180 145l92 25c15 -50 48 -72 88 -72s73 22 88 72l92 -25c-25 -98 -85 -145 -180 -145z" />
    <glyph glyph-name="Aogonek" unicode="&#x104;" horiz-adv-x="707" 
d="M528 0l-50 147h-256l-48 -147h-163l246 700h194l245 -700h-42c-55 -36 -86 -77 -86 -130c0 -36 26 -54 60 -54c23 0 43 5 62 16v-75c-23 -11 -55 -21 -99 -21c-105 0 -134 58 -134 109c0 66 52 120 112 155h-41zM350 531l-83 -249h166z" />
    <glyph glyph-name="aogonek" unicode="&#x105;" horiz-adv-x="619" 
d="M406 0l-6 78c-22 -41 -80 -92 -182 -92c-128 0 -180 72 -180 169c0 118 74 163 241 163h110v26c0 57 -28 80 -115 80c-72 0 -147 -30 -187 -62v153c46 22 128 39 215 39c185 0 248 -52 248 -203v-351h-29c-51 -34 -81 -73 -81 -124c0 -34 24 -55 57 -55c22 0 42 6 60 16
v-71c-22 -10 -52 -20 -94 -20c-101 0 -132 58 -132 106c0 64 49 116 106 148h-31zM200 172c0 -36 18 -64 78 -64c79 0 111 41 111 96v29h-88c-77 0 -101 -16 -101 -61z" />
    <glyph glyph-name="Cacute" unicode="&#x106;" horiz-adv-x="656" 
d="M595 682v-167c-41 24 -95 50 -186 50c-126 0 -185 -54 -185 -212c0 -166 63 -218 193 -218c87 0 151 28 186 53v-163c-36 -17 -105 -38 -199 -38c-251 0 -354 112 -354 357c0 252 105 369 355 369c94 0 157 -20 190 -31zM318 755l108 170h192l-178 -170h-122z" />
    <glyph glyph-name="cacute" unicode="&#x107;" horiz-adv-x="580" 
d="M519 522v-149c-37 26 -85 47 -158 47c-100 0 -149 -37 -149 -144c0 -108 45 -155 165 -155c60 0 120 19 152 44v-141c-32 -17 -91 -38 -181 -38c-212 0 -301 84 -301 291c0 187 91 277 296 277c93 0 142 -16 176 -32zM270 630l100 160h190l-170 -160h-120z" />
    <glyph glyph-name="Ccircumflex" unicode="&#x108;" horiz-adv-x="656" 
d="M595 682v-167c-41 24 -95 50 -186 50c-126 0 -185 -54 -185 -212c0 -166 63 -218 193 -218c87 0 151 28 186 53v-163c-36 -17 -105 -38 -199 -38c-251 0 -354 112 -354 357c0 252 105 369 355 369c94 0 157 -20 190 -31zM179 755l120 170h160l120 -170h-121l-78 97
l-80 -97h-121z" />
    <glyph glyph-name="ccircumflex" unicode="&#x109;" horiz-adv-x="580" 
d="M519 522v-149c-37 26 -85 47 -158 47c-100 0 -149 -37 -149 -144c0 -108 45 -155 165 -155c60 0 120 19 152 44v-141c-32 -17 -91 -38 -181 -38c-212 0 -301 84 -301 291c0 187 91 277 296 277c93 0 142 -16 176 -32zM148 620l112 160h156l112 -160h-121l-68 87l-70 -87
h-121z" />
    <glyph glyph-name="Cdotaccent" unicode="&#x10a;" horiz-adv-x="656" 
d="M595 682v-167c-41 24 -95 50 -186 50c-126 0 -185 -54 -185 -212c0 -166 63 -218 193 -218c87 0 151 28 186 53v-163c-36 -17 -105 -38 -199 -38c-251 0 -354 112 -354 357c0 252 105 369 355 369c94 0 157 -20 190 -31zM379 758c-62 0 -90 28 -90 82s28 82 90 82
s90 -28 90 -82s-28 -82 -90 -82z" />
    <glyph glyph-name="cdotaccent" unicode="&#x10b;" horiz-adv-x="580" 
d="M519 522v-149c-37 26 -85 47 -158 47c-100 0 -149 -37 -149 -144c0 -108 45 -155 165 -155c60 0 120 19 152 44v-141c-32 -17 -91 -38 -181 -38c-212 0 -301 84 -301 291c0 187 91 277 296 277c93 0 142 -16 176 -32zM338 620c-61 0 -88 27 -88 80s27 80 88 80
s88 -27 88 -80s-27 -80 -88 -80z" />
    <glyph glyph-name="Ccaron" unicode="&#x10c;" horiz-adv-x="656" 
d="M595 682v-167c-41 24 -95 50 -186 50c-126 0 -185 -54 -185 -212c0 -166 63 -218 193 -218c87 0 151 28 186 53v-163c-36 -17 -105 -38 -199 -38c-251 0 -354 112 -354 357c0 252 105 369 355 369c94 0 157 -20 190 -31zM299 765l-120 170h121l79 -97l79 97h121
l-120 -170h-160z" />
    <glyph glyph-name="ccaron" unicode="&#x10d;" horiz-adv-x="580" 
d="M519 522v-149c-37 26 -85 47 -158 47c-100 0 -149 -37 -149 -144c0 -108 45 -155 165 -155c60 0 120 19 152 44v-141c-32 -17 -91 -38 -181 -38c-212 0 -301 84 -301 291c0 187 91 277 296 277c93 0 142 -16 176 -32zM260 630l-112 160h121l69 -87l69 87h121l-112 -160
h-156z" />
    <glyph glyph-name="Dcaron" unicode="&#x10e;" horiz-adv-x="753" 
d="M91 2v697c84 5 142 7 241 7c286 0 371 -121 371 -339c0 -254 -118 -373 -388 -373c-87 0 -145 3 -224 8zM255 139c24 -3 43 -4 68 -4c150 0 211 65 211 223c0 147 -53 207 -199 207c-30 0 -53 -1 -80 -4v-422zM297 765l-120 170h121l79 -97l79 97h121l-120 -170h-160z
" />
    <glyph glyph-name="dcaron" unicode="&#x10f;" horiz-adv-x="808" 
d="M470 0l-5 85c-31 -55 -76 -99 -185 -99c-159 0 -233 86 -233 278c0 194 73 290 242 290c99 0 146 -31 172 -70v276h159v-760h-150zM338 114c90 0 124 55 123 136v51c0 79 -33 125 -123 125c-91 0 -125 -40 -125 -158s44 -154 125 -154zM680 560l46 200h144l-86 -200h-104
z" />
    <glyph glyph-name="Dcroat" unicode="&#x110;" horiz-adv-x="761" 
d="M22 294v121h69v284c84 5 142 7 241 7c286 0 371 -121 371 -339c0 -254 -118 -373 -388 -373c-87 0 -145 3 -224 8v292h-69zM255 139c24 -3 43 -4 68 -4c150 0 211 65 211 223c0 147 -53 207 -199 207c-30 0 -53 -1 -80 -4v-146h162v-121h-162v-155z" />
    <glyph glyph-name="dcroat" unicode="&#x111;" horiz-adv-x="704" 
d="M470 0l-5 85c-31 -55 -76 -99 -185 -99c-159 0 -233 86 -233 278c0 194 73 290 242 290c99 0 146 -31 172 -70v120h-237v91h237v65h159v-65h73v-91h-73v-604h-150zM338 114c90 0 123 55 123 136v51c0 79 -33 125 -123 125c-91 0 -125 -40 -125 -158s44 -154 125 -154z
" />
    <glyph glyph-name="Emacron" unicode="&#x112;" horiz-adv-x="636" 
d="M91 0v700h488v-142h-324v-138h285v-132h-285v-146h324v-142h-488zM160 788v104h350v-104h-350z" />
    <glyph glyph-name="emacron" unicode="&#x113;" horiz-adv-x="641" 
d="M597 231h-389c3 -84 52 -120 155 -120c78 0 157 27 197 60v-136c-27 -22 -109 -49 -220 -49c-213 0 -293 94 -293 293c0 186 103 275 284 275c199 0 266 -101 266 -258v-65zM328 435c-79 0 -117 -38 -121 -113h231c1 72 -28 113 -110 113zM161 650v100h340v-100h-340z
" />
    <glyph glyph-name="Edotaccent" unicode="&#x116;" horiz-adv-x="636" 
d="M91 0v700h488v-142h-324v-138h285v-132h-285v-146h324v-142h-488zM335 758c-62 0 -90 28 -90 82s28 82 90 82s90 -28 90 -82s-28 -82 -90 -82z" />
    <glyph glyph-name="edotaccent" unicode="&#x117;" horiz-adv-x="641" 
d="M597 231h-389c3 -84 52 -120 155 -120c78 0 157 27 197 60v-136c-27 -22 -109 -49 -220 -49c-213 0 -293 94 -293 293c0 186 103 275 284 275c199 0 266 -101 266 -258v-65zM328 435c-79 0 -117 -38 -121 -113h231c1 72 -28 113 -110 113zM331 620c-61 0 -88 27 -88 80
s27 80 88 80s88 -27 88 -80s-27 -80 -88 -80z" />
    <glyph glyph-name="Eogonek" unicode="&#x118;" horiz-adv-x="636" 
d="M91 0v700h488v-142h-324v-138h285v-132h-285v-146h324v-142h-33c-55 -36 -86 -77 -86 -130c0 -36 26 -54 60 -54c23 0 43 5 62 16v-75c-23 -11 -55 -21 -99 -21c-105 0 -134 58 -134 109c0 66 52 120 112 155h-370z" />
    <glyph glyph-name="eogonek" unicode="&#x119;" horiz-adv-x="641" 
d="M485 -163v-71c-22 -10 -52 -20 -94 -20c-101 0 -132 58 -132 106c0 56 37 102 84 134h-3c-213 0 -293 94 -293 293c0 186 103 275 284 275c199 0 266 -101 266 -258v-65h-389c3 -84 52 -120 155 -120c78 0 157 27 197 60v-136c-18 -15 -61 -32 -120 -41
c-46 -33 -72 -70 -72 -118c0 -34 24 -55 57 -55c22 0 42 6 60 16zM328 435c-79 0 -117 -38 -121 -113h231c1 72 -28 113 -110 113z" />
    <glyph glyph-name="Ecaron" unicode="&#x11a;" horiz-adv-x="636" 
d="M91 0v700h488v-142h-324v-138h285v-132h-285v-146h324v-142h-488zM252 765l-120 170h121l79 -97l79 97h121l-120 -170h-160z" />
    <glyph glyph-name="ecaron" unicode="&#x11b;" horiz-adv-x="641" 
d="M597 231h-389c3 -84 52 -120 155 -120c78 0 157 27 197 60v-136c-27 -22 -109 -49 -220 -49c-213 0 -293 94 -293 293c0 186 103 275 284 275c199 0 266 -101 266 -258v-65zM328 435c-79 0 -117 -38 -121 -113h231c1 72 -28 113 -110 113zM253 630l-112 160h121l69 -87
l69 87h121l-112 -160h-156z" />
    <glyph glyph-name="Gcircumflex" unicode="&#x11c;" horiz-adv-x="717" 
d="M390 263v132h270v-355c-44 -23 -137 -53 -255 -53c-244 0 -355 108 -355 357c0 252 105 369 371 369c98 0 160 -17 192 -31v-157c-48 29 -108 47 -181 47c-155 0 -213 -63 -213 -219c0 -163 62 -225 199 -225c45 0 75 7 99 13v122h-127zM176 755l120 170h160l120 -170
h-121l-78 97l-80 -97h-121z" />
    <glyph glyph-name="gcircumflex" unicode="&#x11d;" horiz-adv-x="697" 
d="M100 -161v150c33 -21 104 -50 212 -50c113 0 149 39 149 115v51c-30 -46 -88 -81 -179 -81c-158 0 -235 71 -235 251c0 195 72 279 241 279c103 0 153 -40 177 -87l5 73h151v-476c0 -195 -102 -258 -311 -258c-89 0 -170 18 -210 33zM337 152c83 0 125 35 125 125v25
c0 92 -41 124 -126 124c-84 0 -123 -36 -123 -140c0 -99 45 -134 124 -134zM159 620l112 160h156l112 -160h-121l-68 87l-70 -87h-121z" />
    <glyph glyph-name="Gbreve" unicode="&#x11e;" horiz-adv-x="717" 
d="M390 263v132h270v-355c-44 -23 -137 -53 -255 -53c-244 0 -355 108 -355 357c0 252 105 369 371 369c98 0 160 -17 192 -31v-157c-48 29 -108 47 -181 47c-155 0 -213 -63 -213 -219c0 -163 62 -225 199 -225c45 0 75 7 99 13v122h-127zM390 755c-95 0 -155 47 -180 145
l94 25c15 -50 46 -70 86 -70s71 20 86 70l94 -25c-25 -98 -85 -145 -180 -145z" />
    <glyph glyph-name="gbreve" unicode="&#x11f;" horiz-adv-x="697" 
d="M100 -161v150c33 -21 104 -50 212 -50c113 0 149 39 149 115v51c-30 -46 -88 -81 -179 -81c-158 0 -235 71 -235 251c0 195 72 279 241 279c103 0 153 -40 177 -87l5 73h151v-476c0 -195 -102 -258 -311 -258c-89 0 -170 18 -210 33zM337 152c83 0 125 35 125 125v25
c0 92 -41 124 -126 124c-84 0 -123 -36 -123 -140c0 -99 45 -134 124 -134zM334 615c-95 0 -155 47 -180 145l92 25c15 -50 48 -72 88 -72s73 22 88 72l92 -25c-25 -98 -85 -145 -180 -145z" />
    <glyph glyph-name="Gdotaccent" unicode="&#x120;" horiz-adv-x="717" 
d="M390 263v132h270v-355c-44 -23 -137 -53 -255 -53c-244 0 -355 108 -355 357c0 252 105 369 371 369c98 0 160 -17 192 -31v-157c-48 29 -108 47 -181 47c-155 0 -213 -63 -213 -219c0 -163 62 -225 199 -225c45 0 75 7 99 13v122h-127zM376 758c-62 0 -90 28 -90 82
s28 82 90 82s90 -28 90 -82s-28 -82 -90 -82z" />
    <glyph glyph-name="gdotaccent" unicode="&#x121;" horiz-adv-x="697" 
d="M100 -161v150c33 -21 104 -50 212 -50c113 0 149 39 149 115v51c-30 -46 -88 -81 -179 -81c-158 0 -235 71 -235 251c0 195 72 279 241 279c103 0 153 -40 177 -87l5 73h151v-476c0 -195 -102 -258 -311 -258c-89 0 -170 18 -210 33zM337 152c83 0 125 35 125 125v25
c0 92 -41 124 -126 124c-84 0 -123 -36 -123 -140c0 -99 45 -134 124 -134zM349 620c-61 0 -88 27 -88 80s27 80 88 80s88 -27 88 -80s-27 -80 -88 -80z" />
    <glyph glyph-name="Gcommaaccent" unicode="&#x122;" horiz-adv-x="717" 
d="M390 263v132h270v-355c-44 -23 -137 -53 -255 -53c-244 0 -355 108 -355 357c0 252 105 369 371 369c98 0 160 -17 192 -31v-157c-48 29 -108 47 -181 47c-155 0 -213 -63 -213 -219c0 -163 62 -225 199 -225c45 0 75 7 99 13v122h-127zM305 -204c45 0 81 9 86 41
c-7 -1 -14 -1 -20 -1c-55 0 -86 19 -86 54s39 57 94 57c57 0 97 -28 97 -87c0 -69 -59 -121 -152 -121c-6 0 -11 0 -19 1v56z" />
    <glyph glyph-name="gcommaaccent" unicode="&#x123;" horiz-adv-x="697" 
d="M100 -161v150c33 -21 104 -50 212 -50c113 0 149 39 149 115v51c-30 -46 -88 -81 -179 -81c-158 0 -235 71 -235 251c0 195 72 279 241 279c103 0 153 -40 177 -87l5 73h151v-476c0 -195 -102 -258 -311 -258c-89 0 -170 18 -210 33zM337 152c83 0 125 35 125 125v25
c0 92 -41 124 -126 124c-84 0 -123 -36 -123 -140c0 -99 45 -134 124 -134zM400 763c-43 0 -75 -10 -79 -40c7 1 13 1 19 1c49 0 79 -18 79 -51s-35 -54 -87 -54c-53 0 -91 26 -91 82c0 66 55 116 143 116c5 0 11 0 16 -1v-53z" />
    <glyph glyph-name="Hcircumflex" unicode="&#x124;" horiz-adv-x="803" 
d="M91 0v700h164v-272h293v272h164v-700h-164v286h-293v-286h-164zM201 755l120 170h160l120 -170h-121l-78 97l-80 -97h-121z" />
    <glyph glyph-name="hcircumflex" unicode="&#x125;" horiz-adv-x="676" 
d="M76 0v760h159v-295c28 58 89 89 182 89c135 0 190 -61 190 -200v-354h-159v318c0 75 -27 104 -103 104c-80 0 -110 -37 -110 -118v-304h-159zM-35 800l112 160h156l112 -160h-121l-68 87l-70 -87h-121z" />
    <glyph glyph-name="Hbar" unicode="&#x126;" horiz-adv-x="803" 
d="M91 0v505h-64v103h64v92h164v-92h293v92h164v-92h64v-103h-64v-505h-164v286h-293v-286h-164zM255 428h293v77h-293v-77z" />
    <glyph glyph-name="hbar" unicode="&#x127;" horiz-adv-x="676" 
d="M76 0v605h-73v91h73v64h159v-64h237v-91h-237v-167c28 58 89 90 182 90c135 0 190 -62 190 -201v-327h-159v291c0 75 -27 104 -103 104c-80 0 -110 -37 -110 -118v-277h-159z" />
    <glyph glyph-name="Imacron" unicode="&#x12a;" horiz-adv-x="349" 
d="M93 0v700h163v-700h-163zM-1 788v104h350v-104h-350z" />
    <glyph glyph-name="imacron" unicode="&#x12b;" horiz-adv-x="321" 
d="M80 0v540h160v-540h-160zM-10 650v100h340v-100h-340z" />
    <glyph glyph-name="Iogonek" unicode="&#x12e;" horiz-adv-x="349" 
d="M93 0v700h163v-700h-43c-55 -36 -86 -77 -86 -130c0 -36 26 -54 60 -54c23 0 43 5 62 16v-75c-23 -11 -55 -21 -99 -21c-105 0 -134 58 -134 109c0 66 52 120 112 155h-35z" />
    <glyph glyph-name="iogonek" unicode="&#x12f;" horiz-adv-x="321" 
d="M80 0v540h160v-540h-44c-51 -34 -81 -73 -81 -124c0 -34 24 -55 57 -55c22 0 42 6 60 16v-71c-22 -10 -52 -20 -94 -20c-101 0 -132 58 -132 106c0 64 49 116 106 148h-32zM160 620c-61 0 -88 27 -88 80s27 80 88 80s88 -27 88 -80s-27 -80 -88 -80z" />
    <glyph glyph-name="Idotaccent" unicode="&#x130;" horiz-adv-x="349" 
d="M93 0v700h163v-700h-163zM174 758c-62 0 -90 28 -90 82s28 82 90 82s90 -28 90 -82s-28 -82 -90 -82z" />
    <glyph glyph-name="dotlessi" unicode="&#x131;" horiz-adv-x="321" 
d="M80 0v540h160v-540h-160z" />
    <glyph glyph-name="Jcircumflex" unicode="&#x134;" horiz-adv-x="462" 
d="M207 235v465h164v-486c0 -159 -58 -222 -223 -222c-57 0 -92 7 -123 16v157c18 -15 59 -30 98 -30c60 0 84 20 84 100zM89 755l120 170h160l120 -170h-121l-78 97l-80 -97h-121z" />
    <glyph glyph-name="jcircumflex" unicode="&#x135;" horiz-adv-x="327" 
d="M86 2v538h160v-546c0 -137 -58 -181 -172 -181c-53 0 -84 8 -99 14v131c15 -7 36 -11 57 -11c39 0 54 15 54 55zM-26 620l112 160h156l112 -160h-121l-68 87l-70 -87h-121z" />
    <glyph glyph-name="Kcommaaccent" unicode="&#x136;" horiz-adv-x="721" 
d="M91 0v700h164v-278h56l185 278h191l-240 -331l263 -369h-195l-201 290h-59v-290h-164zM286 -204c45 0 81 9 86 41c-7 -1 -14 -1 -20 -1c-55 0 -86 19 -86 54s39 57 94 57c57 0 97 -28 97 -87c0 -69 -59 -121 -152 -121c-6 0 -11 0 -19 1v56z" />
    <glyph glyph-name="kcommaaccent" unicode="&#x137;" horiz-adv-x="635" 
d="M76 760h159v-414h48l139 194h178l-189 -256l209 -284h-184l-153 211h-48v-211h-159v760zM250 -197c43 0 75 10 79 40c-7 -1 -13 -1 -19 -1c-49 0 -79 18 -79 51s35 54 87 54c53 0 91 -26 91 -82c0 -66 -55 -116 -143 -116c-5 0 -11 0 -16 1v53z" />
    <glyph glyph-name="Lacute" unicode="&#x139;" horiz-adv-x="585" 
d="M91 0v700h164v-550h308v-150h-472zM106 755l108 170h192l-178 -170h-122z" />
    <glyph glyph-name="lacute" unicode="&#x13a;" horiz-adv-x="374" 
d="M235 173c0 -42 15 -53 52 -53c21 0 41 5 57 9v-128c-15 -7 -49 -15 -96 -15c-110 0 -172 34 -172 160v614h159v-587zM89 817l100 160h190l-170 -160h-120z" />
    <glyph glyph-name="Lcommaaccent" unicode="&#x13b;" horiz-adv-x="585" 
d="M91 0v700h164v-550h308v-150h-472zM252 -204c45 0 81 9 86 41c-7 -1 -14 -1 -20 -1c-55 0 -86 19 -86 54s39 57 94 57c57 0 97 -28 97 -87c0 -69 -59 -121 -152 -121c-6 0 -11 0 -19 1v56z" />
    <glyph glyph-name="lcommaaccent" unicode="&#x13c;" horiz-adv-x="374" 
d="M235 173c0 -42 15 -53 52 -53c21 0 41 5 57 9v-128c-15 -7 -49 -15 -96 -15c-110 0 -172 34 -172 160v614h159v-587zM156 -197c43 0 75 10 79 40c-7 -1 -13 -1 -19 -1c-49 0 -79 18 -79 51s35 54 87 54c53 0 91 -26 91 -82c0 -66 -55 -116 -143 -116c-5 0 -11 0 -16 1v53
z" />
    <glyph glyph-name="Lcaron" unicode="&#x13d;" horiz-adv-x="585" 
d="M91 0v700h164v-550h308v-150h-472zM345 500l46 200h144l-86 -200h-104z" />
    <glyph glyph-name="lcaron" unicode="&#x13e;" horiz-adv-x="407" 
d="M235 173c0 -42 15 -53 52 -53c21 0 41 5 57 9v-128c-15 -7 -49 -15 -96 -15c-110 0 -172 34 -172 160v614h159v-587zM295 560l46 200h144l-86 -200h-104z" />
    <glyph glyph-name="Ldot" unicode="&#x13f;" horiz-adv-x="585" 
d="M91 0v700h164v-550h308v-150h-472zM370 368c0 55 33 88 90 88c55 0 90 -34 90 -88c0 -55 -32 -89 -90 -89c-56 0 -90 35 -90 89z" />
    <glyph glyph-name="ldot" unicode="&#x140;" horiz-adv-x="476" 
d="M235 173c0 -42 15 -53 52 -53c21 0 41 5 57 9v-128c-15 -7 -49 -15 -96 -15c-110 0 -172 34 -172 160v614h159v-587zM300 377c0 58 35 93 96 93c59 0 96 -36 96 -93c0 -58 -34 -94 -96 -94c-59 0 -96 37 -96 94z" />
    <glyph glyph-name="Lslash" unicode="&#x141;" horiz-adv-x="605" 
d="M111 0v238l-91 -56v109l91 56v353h164v-252l161 100v-108l-161 -100v-190h309v-150h-473z" />
    <glyph glyph-name="lslash" unicode="&#x142;" horiz-adv-x="413" 
d="M262 177c0 -42 14 -53 51 -53c21 0 42 5 58 9v-128c-16 -7 -50 -15 -97 -15c-109 0 -172 34 -172 160v81l-79 -49v109l79 49v423h160v-325l109 68v-109l-109 -68v-152z" />
    <glyph glyph-name="Nacute" unicode="&#x143;" horiz-adv-x="800" 
d="M91 0v700h177l231 -366c21 -34 38 -70 55 -102c-3 35 -5 74 -5 113v355h160v-700h-171l-233 370c-21 32 -41 75 -60 111c2 -35 5 -74 5 -112v-369h-159zM339 755l108 170h192l-178 -170h-122z" />
    <glyph glyph-name="nacute" unicode="&#x144;" horiz-adv-x="676" 
d="M76 0v540h154l5 -76c33 66 97 90 175 90c130 0 197 -55 197 -195v-359h-159v305c0 89 -25 117 -104 117c-78 0 -109 -40 -109 -117v-305h-159zM277 630l100 160h190l-170 -160h-120z" />
    <glyph glyph-name="Ncommaaccent" unicode="&#x145;" horiz-adv-x="800" 
d="M91 0v700h177l231 -366c21 -34 38 -70 55 -102c-3 35 -5 74 -5 113v355h160v-700h-171l-233 370c-21 32 -41 75 -60 111c2 -35 5 -74 5 -112v-369h-159zM326 -204c45 0 81 9 86 41c-7 -1 -14 -1 -20 -1c-55 0 -86 19 -86 54s39 57 94 57c57 0 97 -28 97 -87
c0 -69 -59 -121 -152 -121c-6 0 -11 0 -19 1v56z" />
    <glyph glyph-name="ncommaaccent" unicode="&#x146;" horiz-adv-x="676" 
d="M76 0v540h154l5 -76c33 66 97 90 175 90c130 0 197 -55 197 -195v-359h-159v305c0 89 -25 117 -104 117c-78 0 -109 -40 -109 -117v-305h-159zM270 -197c43 0 75 10 79 40c-7 -1 -13 -1 -19 -1c-49 0 -79 18 -79 51s35 54 87 54c53 0 91 -26 91 -82
c0 -66 -55 -116 -143 -116c-5 0 -11 0 -16 1v53z" />
    <glyph glyph-name="Ncaron" unicode="&#x147;" horiz-adv-x="800" 
d="M91 0v700h177l231 -366c21 -34 38 -70 55 -102c-3 35 -5 74 -5 113v355h160v-700h-171l-233 370c-21 32 -41 75 -60 111c2 -35 5 -74 5 -112v-369h-159zM320 765l-120 170h121l79 -97l79 97h121l-120 -170h-160z" />
    <glyph glyph-name="ncaron" unicode="&#x148;" horiz-adv-x="676" 
d="M76 0v540h154l5 -76c33 66 97 90 175 90c130 0 197 -55 197 -195v-359h-159v305c0 89 -25 117 -104 117c-78 0 -109 -40 -109 -117v-305h-159zM263 630l-112 160h121l69 -87l69 87h121l-112 -160h-156z" />
    <glyph glyph-name="Omacron" unicode="&#x14c;" horiz-adv-x="793" 
d="M50 350c0 254 112 364 348 364c250 0 344 -111 344 -364c0 -263 -119 -364 -344 -364c-226 0 -348 109 -348 364zM224 349c0 -174 68 -221 177 -221s168 50 168 221c0 172 -59 223 -175 223c-115 0 -170 -60 -170 -223zM221 788v104h350v-104h-350z" />
    <glyph glyph-name="omacron" unicode="&#x14d;" horiz-adv-x="675" 
d="M47 271c0 191 101 283 293 283c200 0 288 -88 288 -284c0 -195 -95 -284 -291 -284c-203 0 -290 92 -290 285zM211 271v-4c0 -102 35 -154 128 -154c89 0 125 45 125 153v5c0 110 -31 156 -127 156c-94 0 -126 -49 -126 -156zM167 650v100h340v-100h-340z" />
    <glyph glyph-name="Ohungarumlaut" unicode="&#x150;" horiz-adv-x="793" 
d="M50 350c0 254 112 364 348 364c250 0 344 -111 344 -364c0 -263 -119 -364 -344 -364c-226 0 -348 109 -348 364zM224 349c0 -174 68 -221 177 -221s168 50 168 221c0 172 -59 223 -175 223c-115 0 -170 -60 -170 -223zM216 755l50 170h172l-100 -170h-122zM424 755
l100 170h192l-160 -170h-132z" />
    <glyph glyph-name="ohungarumlaut" unicode="&#x151;" horiz-adv-x="675" 
d="M47 271c0 191 101 283 293 283c200 0 288 -88 288 -284c0 -195 -95 -284 -291 -284c-203 0 -290 92 -290 285zM211 271v-4c0 -102 35 -154 128 -154c89 0 125 45 125 153v5c0 110 -31 156 -127 156c-94 0 -126 -49 -126 -156zM167 620l50 160h170l-100 -160h-120z
M357 620l100 160h190l-160 -160h-130z" />
    <glyph glyph-name="OE" unicode="&#x152;" horiz-adv-x="981" 
d="M392 714c40 0 78 -6 112 -14h429v-142h-307v-138h272v-132h-272v-146h310v-142h-430c-34 -8 -74 -14 -115 -14c-225 0 -347 109 -347 364c0 254 111 364 348 364zM394 128c25 0 48 4 68 9v425c-21 7 -47 10 -74 10c-116 0 -171 -60 -171 -223c0 -174 68 -221 177 -221z
" />
    <glyph glyph-name="oe" unicode="&#x153;" horiz-adv-x="1062" 
d="M47 271c0 191 101 283 293 283c93 0 163 -20 210 -66c47 45 115 66 202 66c199 0 266 -100 266 -257v-65h-389c3 -84 52 -121 154 -121c79 0 158 27 198 60v-136c-27 -22 -109 -49 -220 -49c-98 0 -168 21 -214 66c-48 -45 -120 -66 -210 -66c-203 0 -290 92 -290 285z
M749 435c-79 0 -118 -37 -121 -112h231c1 72 -28 112 -110 112zM211 271v-4c0 -102 35 -154 128 -154c89 0 125 45 125 153v5c0 110 -31 156 -127 156c-94 0 -126 -49 -126 -156z" />
    <glyph glyph-name="Racute" unicode="&#x154;" horiz-adv-x="701" 
d="M255 0h-164v697c87 4 158 8 238 8c220 0 290 -76 290 -231c0 -114 -28 -182 -115 -220l171 -254h-181l-152 236h-87v-236zM251 365h77c94 0 122 30 122 100c0 67 -26 95 -124 95c-29 0 -49 -1 -75 -4v-191zM290 755l108 170h192l-178 -170h-122z" />
    <glyph glyph-name="racute" unicode="&#x155;" horiz-adv-x="476" 
d="M76 0v540h148l6 -80c28 67 81 94 149 94c22 0 40 -3 59 -7v-160c-20 17 -49 28 -93 28c-79 0 -110 -40 -110 -127v-288h-159zM177 630l100 160h190l-170 -160h-120z" />
    <glyph glyph-name="Rcommaaccent" unicode="&#x156;" horiz-adv-x="701" 
d="M255 0h-164v697c87 4 158 8 238 8c220 0 290 -76 290 -231c0 -114 -28 -182 -115 -220l171 -254h-181l-152 236h-87v-236zM251 365h77c94 0 122 30 122 100c0 67 -26 95 -124 95c-29 0 -49 -1 -75 -4v-191zM277 -204c45 0 81 9 86 41c-7 -1 -14 -1 -20 -1
c-55 0 -86 19 -86 54s39 57 94 57c57 0 97 -28 97 -87c0 -69 -59 -121 -152 -121c-6 0 -11 0 -19 1v56z" />
    <glyph glyph-name="rcommaaccent" unicode="&#x157;" horiz-adv-x="476" 
d="M76 0v540h148l6 -80c28 67 81 94 149 94c22 0 40 -3 59 -7v-160c-20 17 -49 28 -93 28c-79 0 -110 -40 -110 -127v-288h-159zM85 -197c43 0 75 10 79 40c-7 -1 -13 -1 -19 -1c-49 0 -79 18 -79 51s35 54 87 54c53 0 91 -26 91 -82c0 -66 -55 -116 -143 -116
c-5 0 -11 0 -16 1v53z" />
    <glyph glyph-name="Rcaron" unicode="&#x158;" horiz-adv-x="701" 
d="M255 0h-164v697c87 4 158 8 238 8c220 0 290 -76 290 -231c0 -114 -28 -182 -115 -220l171 -254h-181l-152 236h-87v-236zM251 365h77c94 0 122 30 122 100c0 67 -26 95 -124 95c-29 0 -49 -1 -75 -4v-191zM271 765l-120 170h121l79 -97l79 97h121l-120 -170h-160z" />
    <glyph glyph-name="rcaron" unicode="&#x159;" horiz-adv-x="476" 
d="M76 0v540h148l6 -80c28 67 81 94 149 94c22 0 40 -3 59 -7v-160c-20 17 -49 28 -93 28c-79 0 -110 -40 -110 -127v-288h-159zM168 630l-112 160h121l69 -87l69 87h121l-112 -160h-156z" />
    <glyph glyph-name="Sacute" unicode="&#x15a;" horiz-adv-x="640" 
d="M409 194c0 120 -344 47 -344 316c0 126 73 203 273 203c89 0 166 -14 214 -34v-161c-50 34 -126 61 -201 61c-95 0 -120 -29 -120 -66c0 -116 357 -45 357 -313c0 -135 -85 -213 -288 -213c-91 0 -181 19 -232 48v167c36 -31 111 -81 223 -81c83 0 118 29 118 73z
M266 755l108 170h192l-178 -170h-122z" />
    <glyph glyph-name="sacute" unicode="&#x15b;" horiz-adv-x="555" 
d="M473 529v-143c-44 27 -95 49 -169 49c-64 0 -81 -14 -81 -44c0 -83 284 -14 284 -224c0 -116 -59 -181 -246 -181c-59 0 -133 9 -196 34v149c42 -34 114 -63 193 -63c67 0 86 18 86 53c0 82 -284 21 -284 226c0 115 59 169 239 169c58 0 123 -10 174 -25zM217 630
l100 160h190l-170 -160h-120z" />
    <glyph glyph-name="Scircumflex" unicode="&#x15c;" horiz-adv-x="640" 
d="M409 194c0 120 -344 47 -344 316c0 126 73 203 273 203c89 0 166 -14 214 -34v-161c-50 34 -126 61 -201 61c-95 0 -120 -29 -120 -66c0 -116 357 -45 357 -313c0 -135 -85 -213 -288 -213c-91 0 -181 19 -232 48v167c36 -31 111 -81 223 -81c83 0 118 29 118 73z
M127 755l120 170h160l120 -170h-121l-78 97l-80 -97h-121z" />
    <glyph glyph-name="scircumflex" unicode="&#x15d;" horiz-adv-x="555" 
d="M473 529v-143c-44 27 -95 49 -169 49c-64 0 -81 -14 -81 -44c0 -83 284 -14 284 -224c0 -116 -59 -181 -246 -181c-59 0 -133 9 -196 34v149c42 -34 114 -63 193 -63c67 0 86 18 86 53c0 82 -284 21 -284 226c0 115 59 169 239 169c58 0 123 -10 174 -25zM95 620l112 160
h156l112 -160h-121l-68 87l-70 -87h-121z" />
    <glyph glyph-name="Scedilla" unicode="&#x15e;" horiz-adv-x="640" 
d="M255 -113l16 101c-81 3 -158 21 -203 47v167c36 -31 111 -81 223 -81c83 0 118 29 118 73c0 120 -344 47 -344 316c0 126 73 203 273 203c89 0 166 -14 214 -34v-161c-50 34 -126 61 -201 61c-95 0 -120 -29 -120 -66c0 -116 357 -45 357 -313c0 -122 -69 -197 -231 -210
l-8 -44c59 0 116 -26 116 -97c0 -68 -62 -113 -145 -113c-45 0 -76 6 -103 17l12 69c19 -8 40 -13 63 -13c32 0 59 13 59 42c0 31 -32 38 -62 38c-10 0 -24 0 -34 -2z" />
    <glyph glyph-name="scedilla" unicode="&#x15f;" horiz-adv-x="555" 
d="M209 -104l15 91c-51 3 -109 13 -159 33v149c42 -34 114 -63 193 -63c67 0 86 18 86 53c0 82 -284 21 -284 226c0 115 59 169 239 169c58 0 123 -10 174 -25v-143c-44 27 -95 49 -169 49c-64 0 -81 -14 -81 -44c0 -83 284 -14 284 -224c0 -106 -49 -169 -201 -179l-8 -40
c58 -1 110 -25 110 -94c0 -63 -53 -108 -133 -108c-39 0 -75 6 -101 16l11 66c19 -7 38 -12 60 -12c31 0 54 15 54 44s-29 37 -58 37c-9 0 -23 0 -32 -1z" />
    <glyph glyph-name="Scaron" unicode="&#x160;" horiz-adv-x="640" 
d="M409 194c0 120 -344 47 -344 316c0 126 73 203 273 203c89 0 166 -14 214 -34v-161c-50 34 -126 61 -201 61c-95 0 -120 -29 -120 -66c0 -116 357 -45 357 -313c0 -135 -85 -213 -288 -213c-91 0 -181 19 -232 48v167c36 -31 111 -81 223 -81c83 0 118 29 118 73z
M247 765l-120 170h121l79 -97l79 97h121l-120 -170h-160z" />
    <glyph glyph-name="scaron" unicode="&#x161;" horiz-adv-x="555" 
d="M473 529v-143c-44 27 -95 49 -169 49c-64 0 -81 -14 -81 -44c0 -83 284 -14 284 -224c0 -116 -59 -181 -246 -181c-59 0 -133 9 -196 34v149c42 -34 114 -63 193 -63c67 0 86 18 86 53c0 82 -284 21 -284 226c0 115 59 169 239 169c58 0 123 -10 174 -25zM207 630
l-112 160h121l69 -87l69 87h121l-112 -160h-156z" />
    <glyph glyph-name="Tcedilla" unicode="&#x162;" horiz-adv-x="623" 
d="M230 0v559h-202v141h567v-141h-202v-559h-39l-10 -54c59 0 116 -26 116 -97c0 -68 -62 -113 -145 -113c-45 0 -76 6 -103 17l12 69c19 -8 40 -13 63 -13c32 0 59 13 59 42c0 31 -32 38 -62 38c-10 0 -24 0 -34 -2l18 113h-38z" />
    <glyph glyph-name="tcedilla" unicode="&#x163;" horiz-adv-x="508" 
d="M249 -104l16 94c-97 13 -136 68 -136 185v234h-101v131h101v92l160 53v-145h167v-131h-167v-204c0 -58 20 -81 71 -81c40 0 77 11 103 27v-138c-20 -11 -63 -23 -117 -26l-8 -39c58 -1 110 -25 110 -94c0 -63 -53 -108 -133 -108c-39 0 -75 6 -101 16l11 66
c19 -7 38 -12 60 -12c31 0 54 15 54 44s-29 37 -58 37c-9 0 -23 0 -32 -1z" />
    <glyph glyph-name="Tcaron" unicode="&#x164;" horiz-adv-x="623" 
d="M230 0v559h-202v141h567v-141h-202v-559h-163zM231 765l-120 170h121l79 -97l79 97h121l-120 -170h-160z" />
    <glyph glyph-name="tcaron" unicode="&#x165;" horiz-adv-x="548" 
d="M129 175v234h-101v131h101v92l160 53v-145h167v-131h-167v-204c0 -58 20 -81 71 -81c40 0 77 11 103 27v-138c-23 -12 -77 -27 -144 -27c-136 0 -190 52 -190 189zM349 600l46 200h144l-86 -200h-104z" />
    <glyph glyph-name="Umacron" unicode="&#x16a;" horiz-adv-x="755" 
d="M86 280v420h164v-404c0 -136 38 -167 132 -167c88 0 123 29 123 163v408h164v-419c0 -228 -108 -294 -291 -294c-193 0 -292 69 -292 293zM202 788v104h350v-104h-350z" />
    <glyph glyph-name="umacron" unicode="&#x16b;" horiz-adv-x="676" 
d="M446 0l-5 79c-37 -63 -93 -93 -182 -93c-129 0 -188 64 -188 205v349h159v-311c0 -77 26 -109 101 -109c76 0 109 37 109 116v304h159v-540h-153zM165 650v100h340v-100h-340z" />
    <glyph glyph-name="Ubreve" unicode="&#x16c;" horiz-adv-x="755" 
d="M86 280v420h164v-404c0 -136 38 -167 132 -167c88 0 123 29 123 163v408h164v-419c0 -228 -108 -294 -291 -294c-193 0 -292 69 -292 293zM377 755c-95 0 -155 47 -180 145l94 25c15 -50 46 -70 86 -70s71 20 86 70l94 -25c-25 -98 -85 -145 -180 -145z" />
    <glyph glyph-name="ubreve" unicode="&#x16d;" horiz-adv-x="676" 
d="M446 0l-5 79c-37 -63 -93 -93 -182 -93c-129 0 -188 64 -188 205v349h159v-311c0 -77 26 -109 101 -109c76 0 109 37 109 116v304h159v-540h-153zM335 615c-95 0 -155 47 -180 145l92 25c15 -50 48 -72 88 -72s73 22 88 72l92 -25c-25 -98 -85 -145 -180 -145z" />
    <glyph glyph-name="Uring" unicode="&#x16e;" horiz-adv-x="755" 
d="M86 280v420h164v-404c0 -136 38 -167 132 -167c88 0 123 29 123 163v408h164v-419c0 -228 -108 -294 -291 -294c-193 0 -292 69 -292 293zM259 840c0 68 50 118 118 118s118 -50 118 -118s-50 -118 -118 -118s-118 50 -118 118zM333 840c0 -28 17 -45 44 -45s44 17 44 45
s-17 45 -44 45s-44 -17 -44 -45z" />
    <glyph glyph-name="uring" unicode="&#x16f;" horiz-adv-x="676" 
d="M446 0l-5 79c-37 -63 -93 -93 -182 -93c-129 0 -188 64 -188 205v349h159v-311c0 -77 26 -109 101 -109c76 0 109 37 109 116v304h159v-540h-153zM219 700c0 69 47 116 116 116s116 -47 116 -116s-47 -116 -116 -116s-116 47 -116 116zM291 700c0 -27 17 -44 44 -44
s44 17 44 44s-17 44 -44 44s-44 -17 -44 -44z" />
    <glyph glyph-name="Uhungarumlaut" unicode="&#x170;" horiz-adv-x="755" 
d="M86 280v420h164v-404c0 -136 38 -167 132 -167c88 0 123 29 123 163v408h164v-419c0 -228 -108 -294 -291 -294c-193 0 -292 69 -292 293zM197 755l50 170h172l-100 -170h-122zM405 755l100 170h192l-160 -170h-132z" />
    <glyph glyph-name="uhungarumlaut" unicode="&#x171;" horiz-adv-x="676" 
d="M446 0l-5 79c-37 -63 -93 -93 -182 -93c-129 0 -188 64 -188 205v349h159v-311c0 -77 26 -109 101 -109c76 0 109 37 109 116v304h159v-540h-153zM165 620l50 160h170l-100 -160h-120zM355 620l100 160h190l-160 -160h-130z" />
    <glyph glyph-name="Uogonek" unicode="&#x172;" horiz-adv-x="755" 
d="M86 280v420h164v-404c0 -136 38 -167 132 -167c88 0 123 29 123 163v408h164v-419c0 -192 -77 -269 -211 -288c-48 -35 -74 -73 -74 -123c0 -36 26 -54 60 -54c23 0 43 5 62 16v-75c-23 -11 -55 -21 -99 -21c-105 0 -134 58 -134 109c0 58 41 107 91 142
c-184 3 -278 74 -278 293z" />
    <glyph glyph-name="uogonek" unicode="&#x173;" horiz-adv-x="676" 
d="M446 0l-5 79c-37 -63 -93 -93 -182 -93c-129 0 -188 64 -188 205v349h159v-311c0 -77 26 -109 101 -109c76 0 109 37 109 116v304h159v-540h-29c-51 -34 -81 -73 -81 -124c0 -34 24 -55 57 -55c22 0 42 6 60 16v-71c-22 -10 -52 -20 -94 -20c-101 0 -132 58 -132 106
c0 64 49 116 106 148h-40z" />
    <glyph glyph-name="Ydieresis" unicode="&#x178;" horiz-adv-x="666" 
d="M252 0v252l-242 448h187l139 -267l134 267h186l-240 -448v-252h-164zM219 762c-60 0 -86 26 -86 78s26 78 86 78s86 -26 86 -78s-26 -78 -86 -78zM447 762c-60 0 -86 26 -86 78s26 78 86 78s86 -26 86 -78s-26 -78 -86 -78z" />
    <glyph glyph-name="Zacute" unicode="&#x179;" horiz-adv-x="650" 
d="M47 0v93l332 465h-320v142h539v-93l-332 -465h338v-142h-557zM265 755l108 170h192l-178 -170h-122z" />
    <glyph glyph-name="zacute" unicode="&#x17a;" horiz-adv-x="579" 
d="M47 0v99l268 309h-256v132h471v-99l-269 -308h273v-133h-487zM222 630l100 160h190l-170 -160h-120z" />
    <glyph glyph-name="Zdotaccent" unicode="&#x17b;" horiz-adv-x="650" 
d="M47 0v93l332 465h-320v142h539v-93l-332 -465h338v-142h-557zM326 758c-62 0 -90 28 -90 82s28 82 90 82s90 -28 90 -82s-28 -82 -90 -82z" />
    <glyph glyph-name="zdotaccent" unicode="&#x17c;" horiz-adv-x="579" 
d="M47 0v99l268 309h-256v132h471v-99l-269 -308h273v-133h-487zM290 620c-61 0 -88 27 -88 80s27 80 88 80s88 -27 88 -80s-27 -80 -88 -80z" />
    <glyph glyph-name="Zcaron" unicode="&#x17d;" horiz-adv-x="650" 
d="M47 0v93l332 465h-320v142h539v-93l-332 -465h338v-142h-557zM246 765l-120 170h121l79 -97l79 97h121l-120 -170h-160z" />
    <glyph glyph-name="zcaron" unicode="&#x17e;" horiz-adv-x="579" 
d="M47 0v99l268 309h-256v132h471v-99l-269 -308h273v-133h-487zM212 630l-112 160h121l69 -87l69 87h121l-112 -160h-156z" />
    <glyph glyph-name="uni018F" unicode="&#x18f;" horiz-adv-x="715" 
d="M42 394h459c-5 82 -48 179 -204 179c-72 0 -140 -12 -192 -36v147c72 19 143 28 217 28c299 0 350 -195 350 -364c0 -190 -94 -360 -322 -360c-193 0 -308 113 -308 357v49zM204 276c1 -98 43 -153 148 -153c75 0 143 43 150 157h-298v-4z" />
    <glyph glyph-name="florin" unicode="&#x192;" horiz-adv-x="568" 
d="M-32 -213l27 126c11 -2 23 -3 38 -3c38 0 74 10 89 90l76 385h-89l26 125h88l13 63c22 112 88 185 220 185c37 0 62 -4 90 -9l-24 -122c-8 2 -26 6 -47 6c-62 0 -84 -23 -97 -94l-6 -29h122l-25 -125h-122l-75 -381c-30 -147 -97 -223 -238 -223c-31 0 -52 3 -66 6z" />
    <glyph glyph-name="uni01DD" unicode="&#x1dd;" horiz-adv-x="641" 
d="M44 309h389c-4 84 -53 120 -155 120c-78 0 -157 -27 -197 -60v136c27 23 109 49 220 49c213 0 293 -94 293 -292c0 -187 -103 -276 -284 -276c-200 0 -266 101 -266 258v65zM313 106c79 0 117 37 120 112h-231c0 -71 28 -112 111 -112z" />
    <glyph glyph-name="Gcaron" unicode="&#x1e6;" horiz-adv-x="717" 
d="M390 263v132h270v-355c-44 -23 -137 -53 -255 -53c-244 0 -355 108 -355 357c0 252 105 369 371 369c98 0 160 -17 192 -31v-157c-48 29 -108 47 -181 47c-155 0 -213 -63 -213 -219c0 -163 62 -225 199 -225c45 0 75 7 99 13v122h-127zM296 765l-120 170h121l79 -97
l79 97h121l-120 -170h-160z" />
    <glyph glyph-name="gcaron" unicode="&#x1e7;" horiz-adv-x="697" 
d="M100 -161v150c33 -21 104 -50 212 -50c113 0 149 39 149 115v51c-30 -46 -88 -81 -179 -81c-158 0 -235 71 -235 251c0 195 72 279 241 279c103 0 153 -40 177 -87l5 73h151v-476c0 -195 -102 -258 -311 -258c-89 0 -170 18 -210 33zM337 152c83 0 125 35 125 125v25
c0 92 -41 124 -126 124c-84 0 -123 -36 -123 -140c0 -99 45 -134 124 -134zM235 630l-112 160h121l69 -87l69 87h121l-112 -160h-156z" />
    <glyph glyph-name="Scommaaccent" unicode="&#x218;" horiz-adv-x="640" 
d="M409 194c0 120 -344 47 -344 316c0 126 73 203 273 203c89 0 166 -14 214 -34v-161c-50 34 -126 61 -201 61c-95 0 -120 -29 -120 -66c0 -116 357 -45 357 -313c0 -135 -85 -213 -288 -213c-91 0 -181 19 -232 48v167c36 -31 111 -81 223 -81c83 0 118 29 118 73z
M243 -204c45 0 81 9 86 41c-7 -1 -14 -1 -20 -1c-55 0 -86 19 -86 54s39 57 94 57c57 0 97 -28 97 -87c0 -69 -59 -121 -152 -121c-6 0 -11 0 -19 1v56z" />
    <glyph glyph-name="scommaaccent" unicode="&#x219;" horiz-adv-x="555" 
d="M473 529v-143c-44 27 -95 49 -169 49c-64 0 -81 -14 -81 -44c0 -83 284 -14 284 -224c0 -116 -59 -181 -246 -181c-59 0 -133 9 -196 34v149c42 -34 114 -63 193 -63c67 0 86 18 86 53c0 82 -284 21 -284 226c0 115 59 169 239 169c58 0 123 -10 174 -25zM208 -197
c43 0 75 10 79 40c-7 -1 -13 -1 -19 -1c-49 0 -79 18 -79 51s35 54 87 54c53 0 91 -26 91 -82c0 -66 -55 -116 -143 -116c-5 0 -11 0 -16 1v53z" />
    <glyph glyph-name="Tcommaaccent" unicode="&#x21a;" horiz-adv-x="623" 
d="M230 0v559h-202v141h567v-141h-202v-559h-163zM237 -204c45 0 81 9 86 41c-7 -1 -14 -1 -20 -1c-55 0 -86 19 -86 54s39 57 94 57c57 0 97 -28 97 -87c0 -69 -59 -121 -152 -121c-6 0 -11 0 -19 1v56z" />
    <glyph glyph-name="tcommaaccent" unicode="&#x21b;" horiz-adv-x="508" 
d="M129 175v234h-101v131h101v92l160 53v-145h167v-131h-167v-204c0 -58 20 -81 71 -81c40 0 77 11 103 27v-138c-23 -12 -77 -27 -144 -27c-136 0 -190 52 -190 189zM247 -197c43 0 75 10 79 40c-7 -1 -13 -1 -19 -1c-49 0 -79 18 -79 51s35 54 87 54c53 0 91 -26 91 -82
c0 -66 -55 -116 -143 -116c-5 0 -11 0 -16 1v53z" />
    <glyph glyph-name="uni0237" unicode="&#x237;" horiz-adv-x="327" 
d="M86 2v538h160v-546c0 -137 -58 -181 -172 -181c-53 0 -84 8 -99 14v131c15 -7 36 -11 57 -11c39 0 54 15 54 55z" />
    <glyph glyph-name="uni0259" unicode="&#x259;" horiz-adv-x="641" 
d="M44 309h389c-4 84 -53 120 -155 120c-78 0 -157 -27 -197 -60v136c27 23 109 49 220 49c213 0 293 -94 293 -292c0 -187 -103 -276 -284 -276c-200 0 -266 101 -266 258v65zM313 106c79 0 117 37 120 112h-231c0 -71 28 -112 111 -112z" />
    <glyph glyph-name="afii57929" unicode="&#x2bc;" horiz-adv-x="240" 
d="M45 500l46 200h144l-86 -200h-104z" />
    <glyph glyph-name="circumflex" unicode="&#x2c6;" horiz-adv-x="485" 
d="M53 620l112 160h156l112 -160h-121l-68 87l-70 -87h-121z" />
    <glyph glyph-name="caron" unicode="&#x2c7;" horiz-adv-x="485" 
d="M165 630l-112 160h121l69 -87l69 87h121l-112 -160h-156z" />
    <glyph glyph-name="breve" unicode="&#x2d8;" horiz-adv-x="485" 
d="M243 615c-95 0 -155 47 -180 145l92 25c15 -50 48 -72 88 -72s73 22 88 72l92 -25c-25 -98 -85 -145 -180 -145z" />
    <glyph glyph-name="dotaccent" unicode="&#x2d9;" horiz-adv-x="485" 
d="M243 620c-61 0 -88 27 -88 80s27 80 88 80s88 -27 88 -80s-27 -80 -88 -80z" />
    <glyph glyph-name="ring" unicode="&#x2da;" horiz-adv-x="485" 
d="M127 700c0 69 47 116 116 116s116 -47 116 -116s-47 -116 -116 -116s-116 47 -116 116zM199 700c0 -27 17 -44 44 -44s44 17 44 44s-17 44 -44 44s-44 -17 -44 -44z" />
    <glyph glyph-name="ogonek" unicode="&#x2db;" horiz-adv-x="485" 
d="M383 -163v-71c-22 -10 -52 -20 -94 -20c-101 0 -132 58 -132 106c0 72 62 128 127 159l66 -9c-53 -35 -84 -74 -84 -126c0 -34 24 -55 57 -55c22 0 42 6 60 16z" />
    <glyph glyph-name="tilde" unicode="&#x2dc;" horiz-adv-x="485" 
d="M134 628l-81 12c3 86 49 132 111 132c29 0 53 -11 86 -26c36 -16 45 -21 63 -21c22 0 35 17 39 47l81 -13c-4 -81 -48 -131 -111 -131c-33 0 -49 6 -87 24c-30 14 -42 24 -61 24c-18 0 -35 -17 -40 -48z" />
    <glyph glyph-name="hungarumlaut" unicode="&#x2dd;" horiz-adv-x="485" 
d="M30 620l50 160h170l-100 -160h-120zM220 620l100 160h190l-160 -160h-130z" />
    <glyph glyph-name="acutecomb" unicode="&#x301;" horiz-adv-x="0" 
d="M-405 630l100 160h190l-170 -160h-120z" />
    <glyph glyph-name="uni0394" unicode="&#x394;" horiz-adv-x="696" 
d="M10 0l231 700h216l230 -700h-677zM212 143h265l-130 409h-2z" />
    <glyph glyph-name="uni0394" unicode="&#x2206;" horiz-adv-x="696" 
d="M10 0l231 700h216l230 -700h-677zM212 143h265l-130 409h-2z" />
    <glyph glyph-name="uni03A9" unicode="&#x3a9;" horiz-adv-x="797" 
d="M66 0v135h171v37c-95 21 -179 99 -179 244c0 184 122 296 340 296c219 0 341 -112 341 -296c0 -145 -84 -223 -179 -244v-37h171v-135h-295v229c113 18 129 115 129 162c0 84 -32 178 -167 178c-133 0 -166 -94 -166 -178c0 -47 17 -144 130 -162v-229h-296z" />
    <glyph glyph-name="uni03A9" unicode="&#x2126;" horiz-adv-x="797" 
d="M66 0v135h171v37c-95 21 -179 99 -179 244c0 184 122 296 340 296c219 0 341 -112 341 -296c0 -145 -84 -223 -179 -244v-37h171v-135h-295v229c113 18 129 115 129 162c0 84 -32 178 -167 178c-133 0 -166 -94 -166 -178c0 -47 17 -144 130 -162v-229h-296z" />
    <glyph glyph-name="pi" unicode="&#x3c0;" horiz-adv-x="750" 
d="M149 0v399c-38 0 -68 -19 -90 -34l-46 128c27 22 81 47 189 47h507v-138h-83v-208c0 -54 11 -69 40 -69c9 0 20 1 30 4l2 -133c-21 -5 -55 -9 -86 -9c-92 0 -146 40 -146 154v261h-158v-402h-159z" />
    <glyph glyph-name="afii10023" unicode="&#x401;" horiz-adv-x="636" 
d="M91 0v700h488v-142h-324v-138h285v-132h-285v-146h324v-142h-488zM221 762c-60 0 -86 26 -86 78s26 78 86 78s86 -26 86 -78s-26 -78 -86 -78zM449 762c-60 0 -86 26 -86 78s26 78 86 78s86 -26 86 -78s-26 -78 -86 -78z" />
    <glyph glyph-name="afii10051" unicode="&#x402;" horiz-adv-x="832" 
d="M230 0v559h-202v141h567v-141h-202v-145c49 18 98 29 166 29c182 0 228 -102 228 -199v-51c0 -126 -67 -204 -213 -204c-28 0 -65 5 -86 10v122c10 -6 30 -11 52 -11c47 0 75 19 75 74v33c0 63 -37 86 -99 86c-54 0 -92 -12 -123 -26v-277h-163z" />
    <glyph glyph-name="afii10052" unicode="&#x403;" horiz-adv-x="589" 
d="M91 0v700h468v-147h-304v-553h-164zM251 755l108 170h192l-178 -170h-122z" />
    <glyph glyph-name="afii10053" unicode="&#x404;" horiz-adv-x="681" 
d="M408 130c99 0 167 30 210 56v-160c-41 -18 -114 -38 -209 -38c-247 0 -359 107 -359 369c0 237 94 355 335 355c99 0 182 -16 236 -36v-163c-43 27 -106 57 -216 57c-115 0 -172 -35 -185 -155h293v-122h-293c11 -123 66 -163 188 -163z" />
    <glyph glyph-name="afii10054" unicode="&#x405;" horiz-adv-x="640" 
d="M409 194c0 120 -344 47 -344 316c0 126 73 203 273 203c89 0 166 -14 214 -34v-161c-50 34 -126 61 -201 61c-95 0 -120 -29 -120 -66c0 -116 357 -45 357 -313c0 -135 -85 -213 -288 -213c-91 0 -181 19 -232 48v167c36 -31 111 -81 223 -81c83 0 118 29 118 73z" />
    <glyph glyph-name="afii10055" unicode="&#x406;" horiz-adv-x="349" 
d="M93 0v700h163v-700h-163z" />
    <glyph glyph-name="afii10056" unicode="&#x407;" horiz-adv-x="349" 
d="M93 0v700h163v-700h-163zM61 762c-60 0 -86 26 -86 78s26 78 86 78s86 -26 86 -78s-26 -78 -86 -78zM289 762c-60 0 -86 26 -86 78s26 78 86 78s86 -26 86 -78s-26 -78 -86 -78z" />
    <glyph glyph-name="afii10057" unicode="&#x408;" horiz-adv-x="462" 
d="M207 235v465h164v-486c0 -159 -58 -222 -223 -222c-57 0 -92 7 -123 16v157c18 -15 59 -30 98 -30c60 0 84 20 84 100z" />
    <glyph glyph-name="afii10058" unicode="&#x409;" horiz-adv-x="1077" 
d="M25 -3v163c8 -2 16 -3 23 -3c66 0 92 52 107 385l7 158h500v-218c36 3 67 5 108 5c176 0 256 -69 256 -240c0 -163 -72 -253 -305 -253c-82 0 -158 3 -223 11v553h-190l-5 -69c-25 -419 -76 -499 -229 -499c-18 0 -33 2 -49 7zM662 135c24 -3 44 -5 66 -5
c96 0 130 31 130 113c0 88 -31 106 -135 106c-22 0 -38 -1 -61 -2v-212z" />
    <glyph glyph-name="afii10059" unicode="&#x40a;" horiz-adv-x="1126" 
d="M91 0v700h164v-272h293v272h164v-218c35 3 67 5 108 5c176 0 256 -69 256 -240c0 -163 -73 -253 -306 -253c-82 0 -158 3 -222 11v281h-293v-286h-164zM712 135c24 -3 43 -5 66 -5c96 0 130 31 130 113c0 88 -32 106 -135 106c-23 0 -39 -1 -61 -2v-212z" />
    <glyph glyph-name="afii10060" unicode="&#x40b;" horiz-adv-x="824" 
d="M230 0v559h-202v141h567v-141h-202v-144c33 14 85 28 157 28c164 0 229 -83 229 -206v-237h-164v194c0 85 -43 106 -113 106c-42 0 -80 -9 -109 -23v-277h-163z" />
    <glyph glyph-name="afii10061" unicode="&#x40c;" horiz-adv-x="721" 
d="M91 0v700h164v-278h56l185 278h191l-240 -331l263 -369h-195l-201 290h-59v-290h-164zM293 755l108 170h192l-178 -170h-122z" />
    <glyph glyph-name="afii10062" unicode="&#x40e;" horiz-adv-x="690" 
d="M153 8v159c14 -12 41 -23 67 -23c25 0 51 5 66 39l-273 517h193l170 -353l134 353h171l-226 -541c-54 -130 -103 -168 -205 -168c-34 0 -70 6 -97 17zM347 755c-105 0 -190 47 -190 170h116c0 -60 24 -85 74 -85s76 25 76 85h114c0 -123 -85 -170 -190 -170z" />
    <glyph glyph-name="afii10145" unicode="&#x40f;" horiz-adv-x="771" 
d="M313 -130v130h-222v700h164v-558h262v558h164v-700h-222v-130h-146z" />
    <glyph glyph-name="afii10017" unicode="&#x410;" horiz-adv-x="707" 
d="M528 0l-50 147h-256l-48 -147h-163l246 700h194l245 -700h-168zM350 531l-83 -249h166z" />
    <glyph glyph-name="afii10018" unicode="&#x411;" horiz-adv-x="687" 
d="M91 1v699h493v-142h-329v-124c48 3 80 4 116 4c178 0 260 -45 260 -209c0 -151 -76 -235 -308 -235c-73 0 -141 2 -232 7zM251 142c30 -4 51 -4 83 -4c101 0 129 27 129 96c0 66 -25 86 -117 86c-33 0 -59 -1 -95 -4v-174z" />
    <glyph glyph-name="afii10019" unicode="&#x412;" horiz-adv-x="693" 
d="M91 1v698c102 4 185 6 256 6c215 0 273 -52 273 -182c0 -87 -44 -138 -128 -157c105 -6 153 -62 153 -160c0 -150 -68 -213 -320 -213c-57 0 -134 3 -234 8zM255 132c31 -2 59 -3 91 -3c107 0 131 23 131 86c0 65 -28 83 -122 83h-100v-166zM255 411h108
c73 0 96 27 96 80c0 61 -20 79 -107 79c-32 0 -60 -1 -97 -3v-156z" />
    <glyph glyph-name="afii10020" unicode="&#x413;" horiz-adv-x="589" 
d="M91 0v700h468v-147h-304v-553h-164z" />
    <glyph glyph-name="afii10021" unicode="&#x414;" horiz-adv-x="772" 
d="M17 -130v272h71c44 87 71 272 75 452l2 106h487v-558h88v-272h-146v130h-431v-130h-146zM488 142v416h-176l-1 -43c-4 -136 -27 -280 -62 -373h239z" />
    <glyph glyph-name="afii10022" unicode="&#x415;" horiz-adv-x="636" 
d="M91 0v700h488v-142h-324v-138h285v-132h-285v-146h324v-142h-488z" />
    <glyph glyph-name="afii10024" unicode="&#x416;" horiz-adv-x="990" 
d="M222 700l147 -282h45v282h164v-282h43l149 282h179l-187 -332l210 -368h-189l-159 286h-46v-286h-164v286h-47l-160 -286h-189l210 365l-188 335h182z" />
    <glyph glyph-name="afii10025" unicode="&#x417;" horiz-adv-x="620" 
d="M176 294v119h88c93 0 119 28 119 81c0 54 -26 76 -115 76c-76 0 -135 -20 -194 -53v163c54 18 126 32 222 32c196 0 252 -67 252 -182c0 -88 -44 -143 -128 -165c96 -12 152 -69 152 -167c0 -135 -67 -210 -284 -210c-84 0 -164 12 -226 36v170c45 -36 123 -64 214 -64
c99 0 122 32 122 87c0 53 -25 77 -122 77h-100z" />
    <glyph glyph-name="afii10026" unicode="&#x418;" horiz-adv-x="800" 
d="M91 0v700h164v-355c0 -43 -2 -87 -5 -133c20 41 40 81 64 121l224 367h171v-700h-164v356c0 41 1 89 5 135c-21 -41 -41 -84 -62 -119l-226 -372h-171z" />
    <glyph glyph-name="afii10027" unicode="&#x419;" horiz-adv-x="800" 
d="M91 0v700h164v-355c0 -43 -2 -87 -5 -133c20 41 40 81 64 121l224 367h171v-700h-164v356c0 41 1 89 5 135c-21 -41 -41 -84 -62 -119l-226 -372h-171zM400 755c-105 0 -190 47 -190 170h116c0 -60 24 -85 74 -85s76 25 76 85h114c0 -123 -85 -170 -190 -170z" />
    <glyph glyph-name="afii10028" unicode="&#x41a;" horiz-adv-x="721" 
d="M91 0v700h164v-278h56l185 278h191l-240 -331l263 -369h-195l-201 290h-59v-290h-164z" />
    <glyph glyph-name="afii10029" unicode="&#x41b;" horiz-adv-x="753" 
d="M25 -3v163c8 -2 16 -3 23 -3c66 0 92 52 107 385l7 158h500v-700h-164v558h-190l-5 -69c-25 -419 -76 -499 -229 -499c-18 0 -33 2 -49 7z" />
    <glyph glyph-name="afii10030" unicode="&#x41c;" horiz-adv-x="945" 
d="M91 0v700h233l154 -372l153 372h223v-700h-160v394c0 41 3 88 5 132c-18 -46 -37 -94 -52 -130l-106 -256h-135l-107 254c-15 37 -34 87 -54 133c3 -45 5 -91 5 -132v-395h-159z" />
    <glyph glyph-name="afii10031" unicode="&#x41d;" horiz-adv-x="803" 
d="M91 0v700h164v-272h293v272h164v-700h-164v286h-293v-286h-164z" />
    <glyph glyph-name="afii10032" unicode="&#x41e;" horiz-adv-x="793" 
d="M50 350c0 254 112 364 348 364c250 0 344 -111 344 -364c0 -263 -119 -364 -344 -364c-226 0 -348 109 -348 364zM224 349c0 -174 68 -221 177 -221s168 50 168 221c0 172 -59 223 -175 223c-115 0 -170 -60 -170 -223z" />
    <glyph glyph-name="afii10033" unicode="&#x41f;" horiz-adv-x="778" 
d="M91 0v700h596v-700h-163v554h-269v-554h-164z" />
    <glyph glyph-name="afii10034" unicode="&#x420;" horiz-adv-x="677" 
d="M91 0v698c87 4 135 7 238 7c221 0 303 -67 303 -245c0 -181 -93 -264 -305 -264c-26 0 -46 1 -72 3v-199h-164zM255 334c27 -2 44 -3 72 -3c102 0 136 40 136 121c0 80 -29 118 -137 118c-27 0 -45 0 -71 -3v-233z" />
    <glyph glyph-name="afii10035" unicode="&#x421;" horiz-adv-x="656" 
d="M595 682v-167c-41 24 -95 50 -186 50c-126 0 -185 -54 -185 -212c0 -166 63 -218 193 -218c87 0 151 28 186 53v-163c-36 -17 -105 -38 -199 -38c-251 0 -354 112 -354 357c0 252 105 369 355 369c94 0 157 -20 190 -31z" />
    <glyph glyph-name="afii10036" unicode="&#x422;" horiz-adv-x="623" 
d="M230 0v559h-202v141h567v-141h-202v-559h-163z" />
    <glyph glyph-name="afii10037" unicode="&#x423;" horiz-adv-x="690" 
d="M153 8v159c14 -12 41 -23 67 -23c25 0 51 5 66 39l-273 517h193l170 -353l134 353h171l-226 -541c-54 -130 -103 -168 -205 -168c-34 0 -70 6 -97 17z" />
    <glyph glyph-name="afii10038" unicode="&#x424;" horiz-adv-x="937" 
d="M386 -20v78h-17c-233 0 -324 83 -324 295c0 215 97 295 325 295h16v72h164v-72h17c234 0 324 -75 324 -295c0 -213 -105 -295 -325 -295h-16v-78h-164zM391 188v331h-17c-118 0 -156 -38 -156 -164c0 -133 46 -167 156 -167h17zM545 188h17c118 0 156 45 156 166
c0 134 -39 165 -157 165h-16v-331z" />
    <glyph glyph-name="afii10039" unicode="&#x425;" horiz-adv-x="709" 
d="M23 0l204 359l-189 341h190l127 -234l132 234h187l-201 -338l212 -362h-193l-144 249l-137 -249h-188z" />
    <glyph glyph-name="afii10040" unicode="&#x426;" horiz-adv-x="800" 
d="M91 0v700h164v-558h262v558h164v-558h88v-272h-146v130h-532z" />
    <glyph glyph-name="afii10041" unicode="&#x427;" horiz-adv-x="716" 
d="M461 0v257c-31 -15 -84 -29 -162 -29c-167 0 -232 65 -232 207v265h164v-225c0 -81 39 -104 108 -104c54 0 93 7 122 22v307h164v-700h-164z" />
    <glyph glyph-name="afii10042" unicode="&#x428;" horiz-adv-x="1029" 
d="M91 0v700h164v-558h177v558h165v-558h177v558h164v-700h-847z" />
    <glyph glyph-name="afii10043" unicode="&#x429;" horiz-adv-x="1058" 
d="M91 0v700h164v-558h177v558h165v-558h177v558h164v-558h88v-272h-145v130h-790z" />
    <glyph glyph-name="afii10044" unicode="&#x42a;" horiz-adv-x="756" 
d="M177 5v553h-149v142h313v-218c35 3 68 5 108 5c176 0 257 -69 257 -240c0 -163 -73 -253 -306 -253c-82 0 -159 3 -223 11zM341 135c24 -3 44 -5 67 -5c95 0 129 31 129 113c0 88 -31 106 -135 106c-22 0 -38 -1 -61 -2v-212z" />
    <glyph glyph-name="afii10045" unicode="&#x42b;" horiz-adv-x="936" 
d="M91 5v695h164v-218c35 3 67 5 108 5c168 0 246 -70 246 -240c0 -161 -70 -253 -296 -253c-85 0 -158 3 -222 11zM255 135c24 -3 43 -5 66 -5c89 0 120 32 120 113c0 86 -30 106 -125 106c-23 0 -39 -1 -61 -2v-212zM681 0v700h164v-700h-164z" />
    <glyph glyph-name="afii10046" unicode="&#x42c;" horiz-adv-x="669" 
d="M91 5v695h164v-218c35 3 67 5 108 5c176 0 256 -69 256 -240c0 -163 -73 -253 -306 -253c-82 0 -158 3 -222 11zM255 135c24 -3 43 -5 66 -5c96 0 130 31 130 113c0 88 -31 106 -135 106c-23 0 -39 -1 -61 -2v-212z" />
    <glyph glyph-name="afii10047" unicode="&#x42d;" horiz-adv-x="681" 
d="M273 130c122 0 177 40 188 163h-293v122h293c-13 120 -70 155 -185 155c-110 0 -173 -30 -216 -57v163c54 20 137 36 236 36c241 0 335 -118 335 -355c0 -262 -112 -369 -359 -369c-95 0 -168 20 -209 38v160c43 -26 111 -56 210 -56z" />
    <glyph glyph-name="afii10048" unicode="&#x42e;" horiz-adv-x="1076" 
d="M690 713c223 0 336 -95 336 -363c0 -275 -132 -363 -337 -363c-209 0 -310 90 -327 296h-107v-283h-164v700h164v-272h109c21 189 127 285 326 285zM525 349c0 -162 49 -220 167 -220c117 0 160 59 160 220c0 169 -47 222 -163 222c-112 0 -164 -53 -164 -222z" />
    <glyph glyph-name="afii10049" unicode="&#x42f;" horiz-adv-x="710" 
d="M40 0l158 249c-84 34 -122 109 -122 213c0 163 88 244 309 244c85 0 146 -3 235 -7v-699h-164v222h-103l-133 -222h-180zM459 354v207c-30 2 -51 2 -75 2c-116 0 -139 -37 -139 -106c0 -68 28 -103 119 -103h95z" />
    <glyph glyph-name="afii10065" unicode="&#x430;" horiz-adv-x="619" 
d="M406 0l-6 78c-22 -41 -80 -92 -182 -92c-128 0 -180 72 -180 169c0 118 74 163 241 163h110v26c0 57 -28 80 -115 80c-72 0 -147 -30 -187 -62v153c46 22 128 39 215 39c185 0 248 -52 248 -203v-351h-144zM200 172c0 -36 18 -64 78 -64c79 0 111 41 111 96v29h-88
c-77 0 -101 -16 -101 -61z" />
    <glyph glyph-name="afii10066" unicode="&#x431;" horiz-adv-x="692" 
d="M591 787v-149c-28 -14 -84 -24 -179 -32c-144 -12 -234 -35 -238 -174l1 -14c52 63 123 99 229 99c175 0 241 -78 241 -257c0 -198 -109 -274 -291 -274c-190 0 -302 72 -302 348c0 325 126 399 326 419c101 9 169 17 213 34zM355 114c88 0 125 47 125 142
c0 97 -38 132 -126 132c-91 0 -133 -43 -133 -125c0 -99 40 -149 134 -149z" />
    <glyph glyph-name="afii10067" unicode="&#x432;" horiz-adv-x="631" 
d="M76 0v541c72 2 169 6 242 6c193 0 242 -48 242 -139c0 -74 -44 -109 -93 -122c73 -6 118 -38 118 -123c0 -116 -69 -170 -276 -170c-74 0 -162 4 -233 7zM235 116c33 -3 53 -4 82 -4c78 0 103 17 103 63c0 45 -22 56 -84 56h-101v-115zM235 321h84c58 0 84 12 84 56
c0 39 -18 52 -91 52c-34 0 -59 -1 -77 -3v-105z" />
    <glyph glyph-name="afii10068" unicode="&#x433;" horiz-adv-x="510" 
d="M76 0v540h400v-139h-241v-401h-159z" />
    <glyph glyph-name="afii10069" unicode="&#x434;" horiz-adv-x="691" 
d="M23 -130v264h64c37 74 50 199 51 350l1 56h441v-406h80v-264h-147v130h-342v-130h-148zM420 134v272h-138l-1 -34c-3 -87 -16 -179 -39 -238h178z" />
    <glyph glyph-name="afii10070" unicode="&#x435;" horiz-adv-x="641" 
d="M597 231h-389c3 -84 52 -120 155 -120c78 0 157 27 197 60v-136c-27 -22 -109 -49 -220 -49c-213 0 -293 94 -293 293c0 186 103 275 284 275c199 0 266 -101 266 -258v-65zM328 435c-79 0 -117 -38 -121 -113h231c1 72 -28 113 -110 113z" />
    <glyph glyph-name="afii10072" unicode="&#x436;" horiz-adv-x="888" 
d="M199 0h-179l166 276l-150 264h175l106 -205h47v205h160v-205h47l108 205h174l-150 -262l165 -278h-180l-116 213h-48v-213h-160v213h-47z" />
    <glyph glyph-name="afii10073" unicode="&#x437;" horiz-adv-x="575" 
d="M57 24v147c47 -32 123 -58 199 -58c74 0 108 18 108 61c0 36 -25 50 -96 50h-99v99h94c55 0 82 18 82 54c0 37 -24 50 -105 50c-63 0 -121 -18 -177 -52v143c62 25 131 36 217 36c190 0 226 -58 226 -138c0 -73 -35 -117 -96 -132c81 -10 118 -54 118 -122
c0 -110 -67 -176 -263 -176c-75 0 -158 14 -208 38z" />
    <glyph glyph-name="afii10074" unicode="&#x438;" horiz-adv-x="685" 
d="M76 0v540h159v-237c0 -42 -2 -76 -5 -105h3c19 32 34 55 55 86l170 256h151v-540h-159v224c0 47 2 88 4 120h-2c-16 -28 -32 -56 -53 -87l-172 -257h-151z" />
    <glyph glyph-name="afii10075" unicode="&#x439;" horiz-adv-x="685" 
d="M76 0v540h159v-237c0 -42 -2 -76 -5 -105h3c19 32 34 55 55 86l170 256h151v-540h-159v224c0 47 2 88 4 120h-2c-16 -28 -32 -56 -53 -87l-172 -257h-151zM342 615c-95 0 -180 47 -180 170h114c0 -60 26 -86 66 -86s68 26 68 86h112c0 -123 -85 -170 -180 -170z" />
    <glyph glyph-name="afii10076" unicode="&#x43a;" horiz-adv-x="645" 
d="M437 0l-133 208h-69v-208h-159v540h159v-204h64l123 204h184l-170 -256l195 -284h-194z" />
    <glyph glyph-name="afii10077" unicode="&#x43b;" horiz-adv-x="661" 
d="M27 -5v160c9 -2 16 -3 23 -3c51 0 77 29 83 305l2 83h450v-540h-160v400h-144l-1 -28c-11 -293 -67 -385 -194 -385c-23 0 -44 3 -59 8z" />
    <glyph glyph-name="afii10078" unicode="&#x43c;" horiz-adv-x="803" 
d="M76 0v540h206l121 -268l119 268h205v-540h-152v294c0 38 3 67 6 105c-16 -35 -28 -71 -41 -98l-89 -197h-99l-87 197c-13 26 -27 61 -43 95c2 -36 5 -66 5 -103v-293h-151z" />
    <glyph glyph-name="afii10079" unicode="&#x43d;" horiz-adv-x="679" 
d="M76 0v540h159v-201h209v201h160v-540h-160v204h-209v-204h-159z" />
    <glyph glyph-name="afii10080" unicode="&#x43e;" horiz-adv-x="675" 
d="M47 271c0 191 101 283 293 283c200 0 288 -88 288 -284c0 -195 -95 -284 -291 -284c-203 0 -290 92 -290 285zM211 271v-4c0 -102 35 -154 128 -154c89 0 125 45 125 153v5c0 110 -31 156 -127 156c-94 0 -126 -49 -126 -156z" />
    <glyph glyph-name="afii10081" unicode="&#x43f;" horiz-adv-x="669" 
d="M76 0v540h516v-540h-159v401h-198v-401h-159z" />
    <glyph glyph-name="afii10082" unicode="&#x440;" horiz-adv-x="696" 
d="M75 -180v720h151l5 -79c31 56 88 93 189 93c162 0 229 -79 229 -275c0 -198 -70 -293 -241 -293c-100 0 -148 45 -173 82v-248h-160zM235 251c0 -84 36 -137 125 -137c92 0 122 50 122 164c0 106 -37 148 -123 148c-88 0 -124 -49 -124 -132v-43z" />
    <glyph glyph-name="afii10083" unicode="&#x441;" horiz-adv-x="580" 
d="M519 522v-149c-37 26 -85 47 -158 47c-100 0 -149 -37 -149 -144c0 -108 45 -155 165 -155c60 0 120 19 152 44v-141c-32 -17 -91 -38 -181 -38c-212 0 -301 84 -301 291c0 187 91 277 296 277c93 0 142 -16 176 -32z" />
    <glyph glyph-name="afii10084" unicode="&#x442;" horiz-adv-x="562" 
d="M201 0v401h-175v139h510v-139h-175v-401h-160z" />
    <glyph glyph-name="afii10085" unicode="&#x443;" horiz-adv-x="602" 
d="M191 -60c29 0 46 13 59 58l-233 542h180l127 -349l100 349h164l-183 -526c-58 -167 -107 -208 -197 -208c-30 0 -67 5 -86 13l1 139c17 -9 43 -18 68 -18z" />
    <glyph glyph-name="afii10086" unicode="&#x444;" horiz-adv-x="851" 
d="M505 -180h-159v171c-21 -4 -39 -5 -61 -5c-149 0 -238 70 -238 285c0 205 89 283 245 283c22 0 38 -2 54 -5v211h159v-211c21 4 39 6 62 6c153 0 237 -66 237 -281c0 -211 -96 -288 -244 -288c-21 0 -38 1 -55 4v-170zM316 113c15 0 22 1 30 2v310c-9 1 -16 2 -28 2
c-74 0 -105 -37 -105 -153c0 -118 26 -161 103 -161zM505 115c9 -1 16 -2 26 -2c76 0 107 41 107 158c0 125 -28 156 -107 156c-11 0 -18 -1 -26 -2v-310z" />
    <glyph glyph-name="afii10087" unicode="&#x445;" horiz-adv-x="609" 
d="M15 0l178 279l-165 261h180l100 -162l102 162h174l-169 -259l179 -281h-181l-112 176l-110 -176h-176z" />
    <glyph glyph-name="afii10088" unicode="&#x446;" horiz-adv-x="696" 
d="M76 0v540h159v-406h189v406h160v-406h81v-264h-147v130h-442z" />
    <glyph glyph-name="afii10089" unicode="&#x447;" horiz-adv-x="625" 
d="M52 338v202h160v-156c0 -60 27 -86 92 -86c36 0 62 6 85 15v227h160v-540h-160v187c-32 -14 -87 -22 -128 -22c-126 0 -209 45 -209 173z" />
    <glyph glyph-name="afii10090" unicode="&#x448;" horiz-adv-x="913" 
d="M76 0v540h159v-406h141v406h160v-406h141v406h159v-540h-760z" />
    <glyph glyph-name="afii10091" unicode="&#x449;" horiz-adv-x="949" 
d="M76 0v540h159v-406h141v406h160v-406h141v406h159v-406h83v-264h-148v130h-695z" />
    <glyph glyph-name="afii10092" unicode="&#x44a;" horiz-adv-x="695" 
d="M164 0v401h-138v139h298v-155c33 3 56 4 92 4c185 0 243 -59 243 -193c0 -136 -70 -204 -290 -204c-78 0 -143 4 -205 8zM322 117c17 -2 33 -3 62 -3c86 0 109 25 109 82c0 53 -23 77 -114 77c-17 0 -34 -2 -57 -3v-153z" />
    <glyph glyph-name="afii10093" unicode="&#x44b;" horiz-adv-x="844" 
d="M235 386c32 2 45 3 77 3c182 0 238 -63 238 -193c0 -128 -70 -204 -284 -204c-72 0 -125 4 -190 8v540h159v-154zM233 116c17 -1 30 -2 52 -2c80 0 99 30 99 82c0 48 -17 77 -97 77c-17 0 -32 -2 -54 -3v-154zM608 0v540h159v-540h-159z" />
    <glyph glyph-name="afii10094" unicode="&#x44c;" horiz-adv-x="607" 
d="M76 0v540h159v-154c33 2 56 3 92 3c186 0 244 -59 244 -193c0 -136 -70 -204 -291 -204c-78 0 -142 4 -204 8zM233 117c18 -2 34 -3 62 -3c86 0 110 25 110 82c0 53 -23 77 -115 77c-16 0 -33 -2 -57 -3v-153z" />
    <glyph glyph-name="afii10095" unicode="&#x44d;" horiz-adv-x="605" 
d="M250 113c97 0 139 29 149 111h-233v100h232c-10 76 -52 103 -146 103c-87 0 -141 -26 -190 -51v145c34 15 105 33 191 33c228 0 305 -83 305 -272c0 -196 -76 -296 -305 -296c-98 0 -162 20 -195 33v146c34 -20 113 -52 192 -52z" />
    <glyph glyph-name="afii10096" unicode="&#x44e;" horiz-adv-x="922" 
d="M588 554c199 0 287 -80 287 -283c0 -200 -97 -285 -286 -285c-170 0 -258 68 -275 221h-79v-207h-159v540h159v-200h80c20 148 107 214 273 214zM461 271c0 -116 40 -158 125 -158c82 0 123 37 123 157c0 127 -39 157 -124 157c-91 0 -124 -36 -124 -156z" />
    <glyph glyph-name="afii10097" unicode="&#x44f;" horiz-adv-x="641" 
d="M37 0l126 185c-68 25 -100 76 -100 167c0 135 66 195 291 195c68 0 142 -2 211 -6v-541h-160v161h-93l-101 -161h-174zM407 274v144c-19 2 -42 3 -70 3c-85 0 -108 -20 -108 -72c0 -55 26 -75 88 -75h90z" />
    <glyph glyph-name="afii10071" unicode="&#x451;" horiz-adv-x="641" 
d="M597 231h-389c3 -84 52 -120 155 -120c78 0 157 27 197 60v-136c-27 -22 -109 -49 -220 -49c-213 0 -293 94 -293 293c0 186 103 275 284 275c199 0 266 -101 266 -258v-65zM328 435c-79 0 -117 -38 -121 -113h231c1 72 -28 113 -110 113zM221 624c-59 0 -84 25 -84 76
s25 76 84 76s84 -25 84 -76s-25 -76 -84 -76zM443 624c-59 0 -84 25 -84 76s25 76 84 76s84 -25 84 -76s-25 -76 -84 -76z" />
    <glyph glyph-name="afii10099" unicode="&#x452;" horiz-adv-x="646" 
d="M472 605h-237v-167c28 58 89 90 182 90c135 0 190 -62 190 -201v-65c0 -209 -80 -374 -180 -443l-107 77c83 62 128 162 128 341v54c0 75 -27 104 -103 104c-80 0 -110 -37 -110 -118v-277h-159v605h-73v91h73v64h159v-64h237v-91z" />
    <glyph glyph-name="afii10100" unicode="&#x453;" horiz-adv-x="510" 
d="M76 0v540h400v-139h-241v-401h-159zM205 630l100 160h190l-170 -160h-120z" />
    <glyph glyph-name="afii10101" unicode="&#x454;" horiz-adv-x="605" 
d="M355 113c79 0 158 32 192 52v-146c-33 -13 -97 -33 -195 -33c-229 0 -305 100 -305 296c0 189 77 272 305 272c86 0 157 -18 191 -33v-145c-49 25 -103 51 -190 51c-94 0 -136 -27 -146 -103h232v-100h-233c10 -82 52 -111 149 -111z" />
    <glyph glyph-name="afii10102" unicode="&#x455;" horiz-adv-x="555" 
d="M473 529v-143c-44 27 -95 49 -169 49c-64 0 -81 -14 -81 -44c0 -83 284 -14 284 -224c0 -116 -59 -181 -246 -181c-59 0 -133 9 -196 34v149c42 -34 114 -63 193 -63c67 0 86 18 86 53c0 82 -284 21 -284 226c0 115 59 169 239 169c58 0 123 -10 174 -25z" />
    <glyph glyph-name="afii10103" unicode="&#x456;" horiz-adv-x="321" 
d="M80 0v540h160v-540h-160zM160 620c-61 0 -88 27 -88 80s27 80 88 80s88 -27 88 -80s-27 -80 -88 -80z" />
    <glyph glyph-name="afii10104" unicode="&#x457;" horiz-adv-x="321" 
d="M80 0v540h160v-540h-160zM50 624c-59 0 -84 25 -84 76s25 76 84 76s84 -25 84 -76s-25 -76 -84 -76zM272 624c-59 0 -84 25 -84 76s25 76 84 76s84 -25 84 -76s-25 -76 -84 -76z" />
    <glyph glyph-name="afii10105" unicode="&#x458;" horiz-adv-x="327" 
d="M86 2v538h160v-546c0 -137 -58 -181 -172 -181c-53 0 -84 8 -99 14v131c15 -7 36 -11 57 -11c39 0 54 15 54 55zM166 620c-61 0 -88 27 -88 80s27 80 88 80s88 -27 88 -80s-27 -80 -88 -80z" />
    <glyph glyph-name="afii10106" unicode="&#x459;" horiz-adv-x="956" 
d="M27 -5v160c9 -2 16 -3 23 -3c51 0 77 29 83 305l2 83h450v-154c33 2 56 3 92 3c185 0 243 -59 243 -193c0 -136 -70 -204 -290 -204c-78 0 -143 4 -205 8v400h-144l-1 -25c-12 -293 -67 -388 -194 -388c-23 0 -44 3 -59 8zM583 117c18 -2 34 -3 62 -3c86 0 109 25 109 82
c0 53 -22 77 -114 77c-16 0 -34 -2 -57 -3v-153z" />
    <glyph glyph-name="afii10107" unicode="&#x45a;" horiz-adv-x="975" 
d="M76 0v540h159v-200h209v200h160v-154c33 2 56 3 92 3c185 0 243 -59 243 -193c0 -136 -70 -204 -290 -204c-78 0 -143 4 -205 8v205h-209v-205h-159zM602 117c18 -2 34 -3 62 -3c86 0 109 25 109 82c0 53 -23 77 -114 77c-16 0 -34 -2 -57 -3v-153z" />
    <glyph glyph-name="afii10108" unicode="&#x45b;" horiz-adv-x="676" 
d="M76 0v605h-73v91h73v64h159v-64h237v-91h-237v-167c28 58 89 90 182 90c135 0 190 -62 190 -201v-327h-159v291c0 75 -27 104 -103 104c-80 0 -110 -37 -110 -118v-277h-159z" />
    <glyph glyph-name="afii10109" unicode="&#x45c;" horiz-adv-x="645" 
d="M437 0l-133 208h-69v-208h-159v540h159v-204h64l123 204h184l-170 -256l195 -284h-194zM261 630l100 160h190l-170 -160h-120z" />
    <glyph glyph-name="afii10110" unicode="&#x45e;" horiz-adv-x="602" 
d="M191 -60c29 0 46 13 59 58l-233 542h180l127 -349l100 349h164l-183 -526c-58 -167 -107 -208 -197 -208c-30 0 -67 5 -86 13l1 139c17 -9 43 -18 68 -18zM302 615c-95 0 -180 47 -180 170h114c0 -60 26 -86 66 -86s68 26 68 86h112c0 -123 -85 -170 -180 -170z" />
    <glyph glyph-name="afii10193" unicode="&#x45f;" horiz-adv-x="659" 
d="M256 -130v130h-180v540h159v-406h189v406h160v-540h-180v-130h-148z" />
    <glyph glyph-name="afii10050" unicode="&#x490;" horiz-adv-x="589" 
d="M91 0v700h317v130h151v-277h-304v-553h-164z" />
    <glyph glyph-name="afii10098" unicode="&#x491;" horiz-adv-x="510" 
d="M76 0v540h259v130h141v-269h-241v-401h-159z" />
    <glyph glyph-name="uni0492" unicode="&#x492;" horiz-adv-x="600" 
d="M26 297v129h75v274h469v-147h-305v-127h183v-129h-183v-297h-164v297h-75z" />
    <glyph glyph-name="uni0493" unicode="&#x493;" horiz-adv-x="513" 
d="M79 0v195h-76v94h76v251h401v-139h-242v-112h159v-94h-159v-195h-159z" />
    <glyph glyph-name="uni049A" unicode="&#x49a;" horiz-adv-x="721" 
d="M91 0v700h164v-278h56l185 278h191l-240 -331l162 -227h103v-272h-146v130h-51l-201 290h-59v-290h-164z" />
    <glyph glyph-name="uni049B" unicode="&#x49b;" horiz-adv-x="645" 
d="M437 0l-133 209h-69v-209h-159v540h159v-203h64l123 203h184l-170 -255l103 -151h93v-264h-148v130h-47z" />
    <glyph glyph-name="uni04A2" unicode="&#x4a2;" horiz-adv-x="831" 
d="M91 0v700h164v-272h293v272h164v-558h88v-272h-146v130h-106v286h-293v-286h-164z" />
    <glyph glyph-name="uni04A3" unicode="&#x4a3;" horiz-adv-x="716" 
d="M76 0v540h159v-200h209v200h160v-406h81v-264h-147v130h-94v205h-209v-205h-159z" />
    <glyph glyph-name="uni04AE" unicode="&#x4ae;" horiz-adv-x="666" 
d="M252 0v252l-242 448h187l139 -267l134 267h186l-240 -448v-252h-164z" />
    <glyph glyph-name="uni04AF" unicode="&#x4af;" horiz-adv-x="607" 
d="M222 -2l-204 542h179l110 -355l112 355h170l-206 -542v-188h-161v188z" />
    <glyph glyph-name="uni04B0" unicode="&#x4b0;" horiz-adv-x="666" 
d="M117 192v126h99l-206 382h187l139 -267l134 267h186l-205 -382h100v-126h-135v-192h-164v192h-135z" />
    <glyph glyph-name="uni04B1" unicode="&#x4b1;" horiz-adv-x="607" 
d="M507 -25h-124v-165h-161v165h-124v94h97l-177 471h179l110 -355l112 355h170l-179 -471h97v-94z" />
    <glyph glyph-name="uni04BA" unicode="&#x4ba;" horiz-adv-x="687" 
d="M93 0v700h163v-285c33 14 85 28 157 28c165 0 229 -83 229 -206v-237h-163v194c0 85 -44 106 -114 106c-41 0 -79 -9 -109 -23v-277h-163z" />
    <glyph glyph-name="uni04BB" unicode="&#x4bb;" horiz-adv-x="676" 
d="M76 0v760h159v-295c28 58 89 89 182 89c135 0 190 -61 190 -200v-354h-159v318c0 75 -27 104 -103 104c-80 0 -110 -37 -110 -118v-304h-159z" />
    <glyph glyph-name="uni04C0" unicode="&#x4c0;" horiz-adv-x="349" 
d="M93 0v700h163v-700h-163z" />
    <glyph glyph-name="uni04CF" unicode="&#x4cf;" horiz-adv-x="311" 
d="M235 0h-159v760h159v-760z" />
    <glyph glyph-name="uni04D8" unicode="&#x4d8;" horiz-adv-x="715" 
d="M42 394h459c-5 82 -48 179 -204 179c-72 0 -140 -12 -192 -36v147c72 19 143 28 217 28c299 0 350 -195 350 -364c0 -190 -94 -360 -322 -360c-193 0 -308 113 -308 357v49zM204 276c1 -98 43 -153 148 -153c75 0 143 43 150 157h-298v-4z" />
    <glyph glyph-name="afii10846" unicode="&#x4d9;" horiz-adv-x="641" 
d="M44 309h389c-4 84 -53 120 -155 120c-78 0 -157 -27 -197 -60v136c27 23 109 49 220 49c213 0 293 -94 293 -292c0 -187 -103 -276 -284 -276c-200 0 -266 101 -266 258v65zM313 106c79 0 117 37 120 112h-231c0 -71 28 -112 111 -112z" />
    <glyph glyph-name="uni04E8" unicode="&#x4e8;" horiz-adv-x="793" 
d="M50 350c0 254 112 364 348 364c250 0 344 -111 344 -364c0 -263 -119 -364 -344 -364c-226 0 -348 109 -348 364zM401 128c95 0 153 38 165 163h-339c14 -127 78 -163 174 -163zM394 572c-97 0 -151 -43 -166 -153h337c-15 116 -73 153 -171 153z" />
    <glyph glyph-name="uni04E9" unicode="&#x4e9;" horiz-adv-x="675" 
d="M47 271c0 191 101 283 293 283c200 0 288 -88 288 -284c0 -195 -95 -284 -291 -284c-203 0 -290 92 -290 285zM339 113c76 0 114 33 123 111h-249c10 -74 47 -111 126 -111zM337 427c-79 0 -114 -35 -124 -109h248c-9 76 -43 109 -124 109z" />
    <glyph glyph-name="uni1E9E" unicode="&#x1e9e;" horiz-adv-x="699" 
d="M70 0v460c0 183 123 252 273 252c103 0 201 -40 271 -132l-135 -171v-1c150 -16 180 -115 180 -193c0 -157 -108 -226 -244 -226c-38 0 -70 4 -102 13v124c24 -7 44 -9 62 -9c60 0 110 20 110 99c0 66 -37 94 -125 94h-35v79l112 152c-20 17 -51 28 -92 28
c-76 0 -111 -48 -111 -118v-451h-164z" />
    <glyph glyph-name="figuredash" unicode="&#x2012;" horiz-adv-x="721" 
d="M94 300v112h534v-112h-534z" />
    <glyph glyph-name="endash" unicode="&#x2013;" horiz-adv-x="721" 
d="M94 237v112h534v-112h-534z" />
    <glyph glyph-name="emdash" unicode="&#x2014;" horiz-adv-x="885" 
d="M94 237v112h697v-112h-697z" />
    <glyph glyph-name="quoteleft" unicode="&#x2018;" horiz-adv-x="382" 
d="M335 634c-71 -10 -126 -47 -134 -92c69 0 99 -37 99 -89c0 -57 -35 -90 -102 -90c-80 0 -114 41 -114 126c0 127 77 211 178 233z" />
    <glyph glyph-name="quoteright" unicode="&#x2019;" horiz-adv-x="382" 
d="M47 451c71 10 126 47 134 92c-69 0 -99 37 -99 89c0 57 35 90 102 90c80 0 114 -41 114 -126c0 -127 -77 -211 -178 -233z" />
    <glyph glyph-name="quotesinglbase" unicode="&#x201a;" horiz-adv-x="382" 
d="M47 -103c71 10 126 47 134 92c-69 0 -99 37 -99 89c0 57 35 90 102 90c80 0 114 -41 114 -126c0 -127 -77 -211 -178 -233z" />
    <glyph glyph-name="quotedblleft" unicode="&#x201c;" horiz-adv-x="656" 
d="M335 634c-71 -10 -126 -47 -134 -92c69 0 99 -37 99 -89c0 -57 -35 -90 -102 -90c-80 0 -114 41 -114 126c0 127 77 211 178 233zM609 634c-71 -10 -126 -47 -134 -92c69 0 99 -37 99 -89c0 -57 -35 -90 -102 -90c-80 0 -114 41 -114 126c0 127 77 211 178 233z" />
    <glyph glyph-name="quotedblright" unicode="&#x201d;" horiz-adv-x="656" 
d="M47 451c71 10 126 47 134 92c-69 0 -99 37 -99 89c0 57 35 90 102 90c80 0 114 -41 114 -126c0 -127 -77 -211 -178 -233zM321 451c71 10 126 47 134 92c-69 0 -99 37 -99 89c0 57 35 90 102 90c80 0 114 -41 114 -126c0 -127 -77 -211 -178 -233z" />
    <glyph glyph-name="quotedblbase" unicode="&#x201e;" horiz-adv-x="655" 
d="M320 -103c71 10 126 47 134 92c-69 0 -99 37 -99 89c0 57 35 90 102 90c80 0 114 -41 114 -126c0 -127 -77 -211 -178 -233zM47 -103c71 10 126 47 134 92c-69 0 -99 37 -99 89c0 57 35 90 102 90c80 0 114 -41 114 -126c0 -127 -77 -211 -178 -233z" />
    <glyph glyph-name="dagger" unicode="&#x2020;" horiz-adv-x="550" 
d="M195 0v400h-160v140h160v160h160v-160h160v-140h-160v-400h-160z" />
    <glyph glyph-name="daggerdbl" unicode="&#x2021;" horiz-adv-x="550" 
d="M35 160v140h160v100h-160v140h160v160h160v-160h160v-140h-160v-100h160v-140h-160v-160h-160v160h-160z" />
    <glyph glyph-name="bullet" unicode="&#x2022;" horiz-adv-x="445" 
d="M74 352c0 81 60 149 148 149c90 0 150 -68 150 -149s-60 -148 -150 -148c-88 0 -148 67 -148 148z" />
    <glyph glyph-name="ellipsis" unicode="&#x2026;" horiz-adv-x="1093" 
d="M84 84c0 62 28 96 97 96s100 -29 100 -96c0 -59 -29 -97 -100 -97c-69 0 -97 37 -97 97zM449 84c0 62 28 96 97 96s100 -29 100 -96c0 -59 -29 -97 -100 -97c-69 0 -97 37 -97 97zM813 84c0 62 28 96 97 96s100 -29 100 -96c0 -59 -29 -97 -100 -97c-69 0 -97 37 -97 97z
" />
    <glyph glyph-name="perthousand" unicode="&#x2030;" horiz-adv-x="1314" 
d="M152 0l497 700h106l-496 -700h-107zM491 185c0 116 71 174 191 174c121 0 185 -57 185 -174c0 -123 -76 -174 -190 -174c-117 0 -186 56 -186 174zM599 185c0 -60 29 -84 81 -84c51 0 80 24 80 84s-27 84 -81 84c-53 0 -80 -24 -80 -84zM904 185c0 116 71 174 191 174
c121 0 185 -57 185 -174c0 -123 -76 -174 -190 -174c-117 0 -186 56 -186 174zM1012 185c0 -60 29 -84 81 -84c51 0 80 24 80 84s-27 84 -81 84c-53 0 -80 -24 -80 -84zM38 539c0 116 71 174 190 174c121 0 186 -57 186 -174c0 -123 -76 -174 -191 -174
c-117 0 -185 56 -185 174zM145 539c0 -60 30 -84 81 -84c52 0 80 23 80 84c0 60 -26 84 -80 84c-53 0 -81 -24 -81 -84z" />
    <glyph glyph-name="guilsinglleft" unicode="&#x2039;" horiz-adv-x="375" 
d="M176 55l-129 214l130 216h144l-122 -216l122 -214h-145z" />
    <glyph glyph-name="guilsinglright" unicode="&#x203a;" horiz-adv-x="375" 
d="M54 55l121 215l-121 215h145l128 -215l-130 -215h-143z" />
    <glyph glyph-name="fraction" unicode="&#x2044;" horiz-adv-x="228" 
d="M-178 -14l482 727h102l-481 -727h-103z" />
    <glyph glyph-name="uni2070" unicode="&#x2070;" 
d="M24 591c0 155 73 219 200 219c139 0 202 -66 202 -219c0 -155 -73 -218 -200 -218c-133 0 -202 66 -202 218zM142 591c0 -90 25 -126 85 -126c57 0 80 35 80 126c0 90 -21 128 -83 128c-60 0 -82 -39 -82 -128z" />
    <glyph glyph-name="uni2074" unicode="&#x2074;" 
d="M19 462v87l224 251h132v-247h58v-91h-58v-81h-112v81h-244zM264 552v155h-1l-139 -155h140z" />
    <glyph glyph-name="uni2075" unicode="&#x2075;" 
d="M61 572l12 228h312v-91h-228l-3 -56c25 1 52 2 86 2c121 0 168 -53 168 -132s-53 -150 -205 -150c-45 0 -95 5 -144 19v93c42 -14 78 -17 129 -17c70 0 101 19 101 54c0 34 -28 54 -100 54c-51 0 -82 -2 -128 -4z" />
    <glyph glyph-name="uni2076" unicode="&#x2076;" 
d="M233 373c-151 0 -203 88 -203 208c0 122 55 229 227 229c35 0 83 -1 127 -12v-93c-42 10 -82 13 -125 13c-55 0 -117 -24 -120 -99c36 22 78 37 124 37c98 0 160 -42 160 -134c0 -91 -70 -149 -190 -149zM141 550c2 -60 36 -92 92 -92c44 0 76 21 76 62
c0 36 -28 56 -74 56c-34 0 -72 -9 -94 -26z" />
    <glyph glyph-name="uni2077" unicode="&#x2077;" 
d="M105 381l176 328h-242v91h372v-76l-179 -343h-127z" />
    <glyph glyph-name="uni2078" unicode="&#x2078;" 
d="M225 373c-129 0 -201 42 -201 124c0 52 33 93 94 105c-53 12 -82 48 -82 96c0 71 59 112 189 112s189 -41 189 -112c0 -48 -29 -84 -82 -96c61 -12 94 -53 94 -105c0 -82 -71 -124 -201 -124zM225 457c59 0 86 23 86 56c0 30 -21 52 -86 52s-86 -22 -86 -52
c0 -33 27 -56 86 -56zM225 727c-55 0 -79 -19 -79 -48c0 -28 21 -48 79 -48s79 20 79 48c0 29 -24 48 -79 48z" />
    <glyph glyph-name="uni2079" unicode="&#x2079;" 
d="M215 810c154 0 203 -87 203 -207c0 -123 -55 -230 -210 -230c-41 0 -94 3 -148 14v94c46 -12 88 -16 132 -16c54 0 115 24 118 99c-33 -25 -73 -41 -123 -41c-91 0 -159 44 -159 138c0 91 69 149 187 149zM308 635c-3 55 -34 91 -93 91c-43 0 -72 -22 -72 -62
c0 -41 28 -63 75 -63c38 0 68 15 90 34z" />
    <glyph glyph-name="uni2080" unicode="&#x2080;" 
d="M24 110c0 155 73 219 200 219c139 0 202 -66 202 -219c0 -155 -73 -218 -200 -218c-133 0 -202 66 -202 218zM142 110c0 -90 25 -126 85 -126c57 0 80 35 80 126c0 90 -21 128 -83 128c-60 0 -82 -39 -82 -128z" />
    <glyph glyph-name="uni2081" unicode="&#x2081;" 
d="M214 -100v299l-109 -56l-45 81l175 95h95v-419h-116z" />
    <glyph glyph-name="uni2082" unicode="&#x2082;" 
d="M47 -100v100l133 80c71 44 94 71 94 101c0 26 -18 52 -82 52c-43 0 -94 -7 -132 -26v99c51 17 96 23 150 23c132 0 182 -57 182 -128c0 -65 -44 -120 -158 -177l-49 -27v-1h211v-96h-349z" />
    <glyph glyph-name="uni2083" unicode="&#x2083;" 
d="M122 75v80h75c50 0 79 10 79 40c0 27 -23 40 -86 40c-48 0 -95 -5 -129 -18v93c48 16 111 19 161 19c135 0 174 -56 174 -110c0 -53 -37 -80 -103 -100v-1c88 -14 113 -54 113 -99c0 -72 -64 -127 -203 -127c-37 0 -96 3 -149 19v96c50 -19 96 -20 135 -20
c72 0 97 16 97 43c0 33 -23 45 -79 45h-85z" />
    <glyph glyph-name="uni2084" unicode="&#x2084;" 
d="M19 -19v87l224 251h132v-247h58v-91h-58v-81h-112v81h-244zM264 71v155h-1l-139 -155h140z" />
    <glyph glyph-name="uni2085" unicode="&#x2085;" 
d="M61 91l12 228h312v-91h-228l-3 -56c25 1 52 2 86 2c121 0 168 -53 168 -132s-53 -150 -205 -150c-45 0 -95 5 -144 19v93c42 -14 78 -17 129 -17c70 0 101 19 101 54c0 34 -28 54 -100 54c-51 0 -82 -2 -128 -4z" />
    <glyph glyph-name="uni2086" unicode="&#x2086;" 
d="M233 -108c-151 0 -203 88 -203 208c0 122 55 229 227 229c35 0 83 -1 127 -12v-93c-42 10 -82 13 -125 13c-55 0 -117 -24 -120 -99c36 22 78 37 124 37c98 0 160 -42 160 -134c0 -91 -70 -149 -190 -149zM141 69c2 -60 36 -92 92 -92c44 0 76 21 76 62
c0 36 -28 56 -74 56c-34 0 -72 -9 -94 -26z" />
    <glyph glyph-name="uni2087" unicode="&#x2087;" 
d="M105 -100l176 328h-242v91h372v-76l-179 -343h-127z" />
    <glyph glyph-name="uni2088" unicode="&#x2088;" 
d="M225 -108c-129 0 -201 42 -201 124c0 52 33 93 94 105c-53 12 -82 48 -82 96c0 71 59 112 189 112s189 -41 189 -112c0 -48 -29 -84 -82 -96c61 -12 94 -53 94 -105c0 -82 -71 -124 -201 -124zM225 -24c59 0 86 23 86 56c0 30 -21 52 -86 52s-86 -22 -86 -52
c0 -33 27 -56 86 -56zM225 246c-55 0 -79 -19 -79 -48c0 -28 21 -48 79 -48s79 20 79 48c0 29 -24 48 -79 48z" />
    <glyph glyph-name="uni2089" unicode="&#x2089;" 
d="M215 329c154 0 203 -87 203 -207c0 -123 -55 -230 -210 -230c-41 0 -94 3 -148 14v94c46 -12 88 -16 132 -16c54 0 115 24 118 99c-33 -25 -73 -41 -123 -41c-91 0 -159 44 -159 138c0 91 69 149 187 149zM308 154c-3 55 -34 91 -93 91c-43 0 -72 -22 -72 -62
c0 -41 28 -63 75 -63c38 0 68 15 90 34z" />
    <glyph glyph-name="Euro" unicode="&#x20ac;" horiz-adv-x="626" 
d="M399 713c84 0 143 -14 179 -40l-39 -143c-26 20 -66 35 -126 35c-79 0 -119 -27 -138 -89h244l-24 -90h-234v-33v-37h215l-22 -91h-179c23 -64 67 -90 136 -90c74 0 126 22 160 46v-159c-34 -17 -92 -35 -173 -35c-173 0 -268 79 -298 238h-77l23 91h45c0 9 -1 19 -1 28
c0 14 1 29 2 42h-67l23 90h54c33 158 125 237 297 237z" />
    <glyph glyph-name="uni20B4" unicode="&#x20b4;" horiz-adv-x="636" 
d="M60 246v79h118c12 10 60 50 73 61h-191v78h273c23 22 36 47 36 67c0 45 -41 54 -75 54c-62 0 -98 -3 -156 -22v129c73 16 155 20 193 20c179 0 214 -92 214 -152c0 -43 -16 -72 -33 -96h65v-78h-128c-13 -11 -61 -51 -74 -61h202v-79h-279c-21 -19 -27 -45 -27 -63
c0 -48 39 -68 110 -68c37 0 96 4 152 27v-130c-73 -20 -138 -24 -198 -24c-206 0 -240 121 -240 171c0 38 12 66 24 87h-59z" />
    <glyph glyph-name="uni20B8" unicode="&#x20b8;" horiz-adv-x="634" 
d="M235 0v463h-192v94h548v-94h-192v-463h-164zM43 606v94h548v-94h-548z" />
    <glyph glyph-name="uni20BD" unicode="&#x20bd;" horiz-adv-x="630" 
d="M334 271h-68v-65h192v-109h-192v-97h-162v97h-62v109h62v65h-62v111h62v316c86 4 135 7 237 7c179 0 255 -56 255 -219c0 -154 -77 -215 -262 -215zM327 568c-20 0 -43 -1 -61 -3v-184h53c78 0 110 29 110 94s-22 93 -102 93z" />
    <glyph glyph-name="afii61352" unicode="&#x2116;" horiz-adv-x="1109" 
d="M66 0v700h175l169 -286c7 -12 81 -153 86 -162c-1 10 -1 153 -1 167v281h159v-700h-169l-165 282c-8 12 -88 165 -96 180c1 -13 2 -161 2 -177v-285h-160zM739 150v120h327v-120h-327zM724 519c0 105 43 194 173 194c131 0 180 -87 180 -194c0 -106 -47 -194 -175 -194
c-132 0 -178 88 -178 194zM843 519c0 -55 16 -90 58 -90c41 0 58 33 58 90c0 54 -16 90 -58 90c-43 0 -58 -36 -58 -90z" />
    <glyph glyph-name="uni2120" unicode="&#x2120;" horiz-adv-x="860" 
d="M399 375v325h105l86 -164h1l86 164h105v-325h-90v195l-71 -127h-62l-69 127h-1v-195h-90zM330 692v-85c-27 15 -61 27 -107 27c-47 0 -60 -9 -60 -25c0 -50 189 -6 189 -133c0 -71 -37 -111 -164 -111c-31 0 -79 6 -120 20v89c25 -18 68 -32 118 -32s66 8 66 29
c0 49 -190 10 -190 136c0 68 38 101 161 101c32 0 75 -6 107 -16z" />
    <glyph glyph-name="trademark" unicode="&#x2122;" horiz-adv-x="842" 
d="M142 376v241h-99v83h295v-83h-100v-241h-96zM380 376v324h105l86 -164h2l85 164h105v-324h-90v194h-1l-70 -126h-61l-70 126h-1v-194h-90z" />
    <glyph glyph-name="onethird" unicode="&#x2153;" horiz-adv-x="950" 
d="M150 -14l482 727h102l-481 -727h-103zM640 176v80h75c50 0 79 10 79 40c0 27 -23 40 -86 40c-48 0 -95 -5 -129 -18v93c48 16 111 19 161 19c135 0 174 -56 174 -110c0 -53 -37 -80 -103 -100v-1c88 -14 113 -54 113 -99c0 -72 -64 -127 -203 -127c-37 0 -96 3 -149 19
v96c50 -19 96 -20 135 -20c72 0 97 16 97 43c0 33 -23 45 -79 45h-85zM176 281v299l-109 -56l-45 81l175 95h95v-419h-116z" />
    <glyph glyph-name="twothirds" unicode="&#x2154;" horiz-adv-x="950" 
d="M193 -14l482 727h102l-481 -727h-103zM663 176v80h75c50 0 79 10 79 40c0 27 -23 40 -86 40c-48 0 -95 -5 -129 -18v93c48 16 111 19 161 19c135 0 174 -56 174 -110c0 -53 -37 -80 -103 -100v-1c88 -14 113 -54 113 -99c0 -72 -64 -127 -203 -127c-37 0 -96 3 -149 19
v96c50 -19 96 -20 135 -20c72 0 97 16 97 43c0 33 -23 45 -79 45h-85zM12 281v100l133 80c71 44 94 71 94 101c0 26 -18 52 -82 52c-43 0 -94 -7 -132 -26v99c51 17 96 23 150 23c132 0 182 -57 182 -128c0 -65 -44 -120 -158 -177l-49 -27v-1h211v-96h-349z" />
    <glyph glyph-name="oneeighth" unicode="&#x215b;" horiz-adv-x="950" 
d="M141 -14l482 727h102l-481 -727h-103zM733 -7c-129 0 -201 42 -201 124c0 52 33 93 94 105c-53 12 -82 48 -82 96c0 71 59 112 189 112s189 -41 189 -112c0 -48 -29 -84 -82 -96c61 -12 94 -53 94 -105c0 -82 -71 -124 -201 -124zM733 77c59 0 86 23 86 56
c0 30 -21 52 -86 52s-86 -22 -86 -52c0 -33 27 -56 86 -56zM733 347c-55 0 -79 -19 -79 -48c0 -28 21 -48 79 -48s79 20 79 48c0 29 -24 48 -79 48zM174 281v299l-109 -56l-45 81l175 95h95v-419h-116z" />
    <glyph glyph-name="threeeighths" unicode="&#x215c;" horiz-adv-x="950" 
d="M159 -14l482 727h102l-481 -727h-103zM742 -7c-129 0 -201 42 -201 124c0 52 33 93 94 105c-53 12 -82 48 -82 96c0 71 59 112 189 112s189 -41 189 -112c0 -48 -29 -84 -82 -96c61 -12 94 -53 94 -105c0 -82 -71 -124 -201 -124zM742 77c59 0 86 23 86 56
c0 30 -21 52 -86 52s-86 -22 -86 -52c0 -33 27 -56 86 -56zM742 347c-55 0 -79 -19 -79 -48c0 -28 21 -48 79 -48s79 20 79 48c0 29 -24 48 -79 48zM84 456v80h75c50 0 79 10 79 40c0 27 -23 40 -86 40c-48 0 -95 -5 -129 -18v93c48 16 111 19 161 19
c135 0 174 -56 174 -110c0 -53 -37 -80 -103 -100v-1c88 -14 113 -54 113 -99c0 -72 -64 -127 -203 -127c-37 0 -96 3 -149 19v96c50 -19 96 -20 135 -20c72 0 97 16 97 43c0 33 -23 45 -79 45h-85z" />
    <glyph glyph-name="fiveeighths" unicode="&#x215d;" horiz-adv-x="950" 
d="M164 -14l482 727h102l-481 -727h-103zM745 -7c-129 0 -201 42 -201 124c0 52 33 93 94 105c-53 12 -82 48 -82 96c0 71 59 112 189 112s189 -41 189 -112c0 -48 -29 -84 -82 -96c61 -12 94 -53 94 -105c0 -82 -71 -124 -201 -124zM745 77c59 0 86 23 86 56
c0 30 -21 52 -86 52s-86 -22 -86 -52c0 -33 27 -56 86 -56zM745 347c-55 0 -79 -19 -79 -48c0 -28 21 -48 79 -48s79 20 79 48c0 29 -24 48 -79 48zM26 472l12 228h312v-91h-228l-3 -56c25 1 52 2 86 2c121 0 168 -53 168 -132s-53 -150 -205 -150c-45 0 -95 5 -144 19v93
c42 -14 78 -17 129 -17c70 0 101 19 101 54c0 34 -28 54 -100 54c-51 0 -82 -2 -128 -4z" />
    <glyph glyph-name="seveneighths" unicode="&#x215e;" horiz-adv-x="950" 
d="M130 -14l482 727h102l-481 -727h-103zM738 -7c-129 0 -201 42 -201 124c0 52 33 93 94 105c-53 12 -82 48 -82 96c0 71 59 112 189 112s189 -41 189 -112c0 -48 -29 -84 -82 -96c61 -12 94 -53 94 -105c0 -82 -71 -124 -201 -124zM738 77c59 0 86 23 86 56
c0 30 -21 52 -86 52s-86 -22 -86 -52c0 -33 27 -56 86 -56zM738 347c-55 0 -79 -19 -79 -48c0 -28 21 -48 79 -48s79 20 79 48c0 29 -24 48 -79 48zM97 281l176 328h-242v91h372v-76l-179 -343h-127z" />
    <glyph glyph-name="minus" unicode="&#x2212;" horiz-adv-x="579" 
d="M54 266v118h470v-118h-470z" />
    <glyph glyph-name="infinity" unicode="&#x221e;" horiz-adv-x="732" 
d="M418 228l-51 52l-50 -53c-34 -38 -77 -51 -120 -51c-110 0 -158 95 -158 174s48 179 158 179c38 0 84 -13 121 -52l49 -53l53 55c31 33 74 50 118 50c101 0 158 -84 158 -179c0 -77 -47 -174 -159 -174c-42 0 -83 14 -119 52zM428 350l39 -39c20 -20 37 -31 62 -31
c35 0 60 29 60 70c0 47 -28 75 -59 75c-23 0 -44 -8 -70 -38zM308 350l-42 44c-19 22 -34 31 -60 31c-40 0 -59 -37 -59 -75c0 -45 28 -69 57 -69c22 0 44 9 71 35z" />
    <glyph glyph-name="approxequal" unicode="&#x2248;" horiz-adv-x="614" 
d="M94 136l-10 108c25 40 65 71 115 71c83 0 156 -67 223 -67c40 0 71 24 97 55l11 -107c-20 -32 -59 -65 -115 -65c-81 0 -139 66 -215 66c-41 0 -90 -35 -106 -61zM94 333l-10 107c25 40 65 71 115 71c83 0 156 -67 223 -67c40 0 71 24 97 55l11 -107
c-20 -32 -59 -65 -115 -65c-81 0 -140 66 -215 66c-41 0 -90 -34 -106 -60z" />
    <glyph glyph-name="notequal" unicode="&#x2260;" horiz-adv-x="595" 
d="M63 377v118h278l53 90h102l-53 -90h89v-118h-158l-57 -96h215v-118h-284l-55 -95h-103l56 95h-83v118h152l57 96h-209z" />
    <glyph glyph-name="lessequal" unicode="&#x2264;" horiz-adv-x="576" 
d="M56 43v118h465v-118h-465zM56 362v111l465 170v-122l-311 -103v-2l311 -102v-122z" />
    <glyph glyph-name="greaterequal" unicode="&#x2265;" horiz-adv-x="576" 
d="M56 43v118h465v-118h-465zM56 192v122l311 102v2l-311 103v122l465 -170v-111z" />
    <glyph glyph-name="lozenge" unicode="&#x25ca;" horiz-adv-x="622" 
d="M311 -12l-267 362l267 362l268 -362zM311 186l123 164l-123 163l-122 -163z" />
    <glyph glyph-name="uniF406" unicode="&#xf406;" horiz-adv-x="485" 
d="M243 755c-95 0 -155 47 -180 145l94 25c15 -50 46 -70 86 -70s71 20 86 70l94 -25c-25 -98 -85 -145 -180 -145z" />
    <glyph glyph-name="uniF407" unicode="&#xf407;" horiz-adv-x="485" 
d="M171 -113l18 113h86l-10 -54c59 0 116 -26 116 -97c0 -68 -62 -113 -145 -113c-45 0 -76 6 -103 17l12 69c19 -8 40 -13 63 -13c32 0 59 13 59 42c0 31 -32 38 -62 38c-10 0 -24 0 -34 -2z" />
    <glyph glyph-name="uniF408" unicode="&#xf408;" horiz-adv-x="485" 
d="M43 755l120 170h160l120 -170h-121l-78 97l-80 -97h-121z" />
    <glyph glyph-name="uniF409" unicode="&#xf409;" horiz-adv-x="485" 
d="M166 -204c45 0 81 9 86 41c-7 -1 -14 -1 -20 -1c-55 0 -86 19 -86 54s39 57 94 57c57 0 97 -28 97 -87c0 -69 -59 -121 -152 -121c-6 0 -11 0 -19 1v56z" />
    <glyph glyph-name="uniF40A" unicode="&#xf40a;" horiz-adv-x="240" 
d="M45 500l46 200h144l-86 -200h-104z" />
    <glyph glyph-name="uniF40B" unicode="&#xf40b;" horiz-adv-x="485" 
d="M243 758c-62 0 -90 28 -90 82s28 82 90 82s90 -28 90 -82s-28 -82 -90 -82z" />
    <glyph glyph-name="uniF40C" unicode="&#xf40c;" horiz-adv-x="485" 
d="M126 840c0 68 50 118 118 118s118 -50 118 -118s-50 -118 -118 -118s-118 50 -118 118zM200 840c0 -28 17 -45 44 -45s44 17 44 45s-17 45 -44 45s-44 -17 -44 -45z" />
    <glyph glyph-name="uniF40D" unicode="&#xf40d;" horiz-adv-x="485" 
d="M129 768l-81 12c3 86 54 132 116 132c29 0 53 -11 86 -26c36 -16 45 -21 63 -21c22 0 40 17 44 47l81 -13c-4 -81 -53 -131 -116 -131c-33 0 -49 6 -87 24c-30 14 -42 24 -61 24c-18 0 -40 -17 -45 -48z" />
    <glyph glyph-name="uniF40E" unicode="&#xf40e;" horiz-adv-x="485" 
d="M268 10l70 -8c-57 -37 -89 -78 -89 -132c0 -36 26 -54 60 -54c23 0 43 5 62 16v-75c-23 -11 -55 -21 -99 -21c-105 0 -134 58 -134 109c0 72 63 130 130 165z" />
    <glyph glyph-name="zero.tab" unicode="&#xf4e0;" horiz-adv-x="650" 
d="M56 349c0 257 86 363 272 363c196 0 266 -112 266 -363c0 -262 -86 -362 -268 -362c-189 0 -270 115 -270 362zM220 347c0 -159 25 -226 109 -226c81 0 102 60 102 225c0 167 -18 233 -107 233c-87 0 -104 -71 -104 -232z" />
    <glyph glyph-name="one.tab" unicode="&#xf4e1;" horiz-adv-x="650" 
d="M91 0v135h208v389l-208 -117v145l257 150h112v-567h120v-135h-489z" />
    <glyph glyph-name="two.tab" unicode="&#xf4e2;" horiz-adv-x="650" 
d="M66 0v104c161 125 325 224 325 353c0 75 -34 108 -119 108c-77 0 -142 -27 -194 -71v174c56 26 135 44 229 44c202 0 260 -90 260 -210c0 -159 -112 -249 -267 -359h275v-143h-509z" />
    <glyph glyph-name="three.tab" unicode="&#xf4e3;" horiz-adv-x="650" 
d="M203 290v128h69c92 0 119 25 119 82c0 45 -21 69 -117 69c-73 0 -147 -25 -200 -59v158c64 25 160 44 241 44c198 0 248 -70 248 -181c0 -86 -44 -142 -139 -168c113 -15 162 -74 162 -163c0 -130 -71 -212 -287 -212c-86 0 -175 17 -235 44v165c53 -37 133 -65 214 -65
c112 0 136 30 136 82c0 49 -23 76 -130 76h-81z" />
    <glyph glyph-name="four.tab" unicode="&#xf4e4;" horiz-adv-x="650" 
d="M42 154v90l284 456h207v-403h83v-143h-83v-154h-162v154h-329zM373 296v249l-151 -249h151z" />
    <glyph glyph-name="five.tab" unicode="&#xf4e5;" horiz-adv-x="650" 
d="M86 314l25 386h436v-135h-313l-10 -121c25 4 71 6 109 6c184 0 242 -81 242 -217c0 -151 -66 -245 -294 -245c-60 0 -141 11 -204 33v161c40 -24 120 -51 197 -51c103 0 137 33 137 101c0 66 -28 98 -148 98c-61 0 -139 -8 -177 -16z" />
    <glyph glyph-name="six.tab" unicode="&#xf4e6;" horiz-adv-x="650" 
d="M335 -12c-216 0 -288 118 -288 340c0 253 106 384 341 384c64 0 123 -11 169 -27v-159c-34 23 -85 46 -173 46c-106 0 -194 -60 -194 -190c0 -11 1 -16 1 -21c40 64 98 96 190 96c153 0 220 -83 220 -219c0 -173 -96 -250 -266 -250zM214 261c-3 -99 39 -143 115 -143
c64 0 106 32 106 111c0 81 -29 112 -103 112c-75 0 -104 -37 -118 -80z" />
    <glyph glyph-name="seven.tab" unicode="&#xf4e7;" horiz-adv-x="650" 
d="M155 0l258 555h-350v145h533v-96l-266 -604h-175z" />
    <glyph glyph-name="eight.tab" unicode="&#xf4e8;" horiz-adv-x="650" 
d="M46 193c0 87 31 150 137 179c-87 25 -120 71 -120 157c0 114 74 184 265 184c184 0 257 -61 257 -176c0 -80 -24 -135 -117 -165c107 -24 137 -80 137 -175c0 -126 -77 -209 -277 -209c-203 0 -282 73 -282 205zM213 218c0 -75 44 -103 116 -103s110 32 110 103
c0 65 -37 95 -113 95c-75 0 -113 -37 -113 -95zM222 500c0 -57 32 -87 104 -87c73 0 100 33 100 88c0 61 -27 85 -102 85c-74 0 -102 -29 -102 -86z" />
    <glyph glyph-name="nine.tab" unicode="&#xf4e9;" horiz-adv-x="650" 
d="M313 712c216 0 288 -118 288 -340c0 -253 -106 -384 -341 -384c-64 0 -123 11 -169 27v159c34 -23 85 -46 173 -46c106 0 194 60 194 190c0 11 -1 16 -1 21c-40 -64 -97 -96 -189 -96c-152 0 -221 83 -221 219c0 173 96 250 266 250zM434 442c2 95 -39 140 -115 140
c-64 -1 -105 -32 -106 -111c-1 -77 31 -112 104 -112c75 0 105 37 117 83z" />
    <glyph glyph-name="dollar.tab" unicode="&#xf4ec;" horiz-adv-x="650" 
d="M415 194c0 120 -344 47 -344 316c0 108 55 181 199 199v91h124v-89c67 -4 125 -16 164 -32v-161c-50 34 -125 61 -201 61c-95 0 -120 -29 -120 -66c0 -116 357 -45 357 -313c0 -114 -60 -187 -200 -207v-113h-124v108c-78 4 -152 22 -196 47v167c36 -31 111 -81 223 -81
c83 0 118 29 118 73z" />
    <glyph glyph-name="Euro.tab" unicode="&#xf4ed;" horiz-adv-x="650" 
d="M413 713c84 0 143 -14 179 -40l-39 -143c-26 20 -66 35 -126 35c-79 0 -119 -27 -138 -89h244l-24 -90h-234v-70h215l-22 -91h-179c23 -64 67 -90 136 -90c74 0 126 22 160 46v-159c-34 -17 -92 -35 -173 -35c-173 0 -268 79 -298 238h-77l23 91h45c0 9 -1 19 -1 28
c0 14 1 29 2 42h-67l23 90h54c33 158 125 237 297 237z" />
    <glyph glyph-name="cent.tab" unicode="&#xf4ee;" horiz-adv-x="650" 
d="M315 -120v112c-153 19 -215 131 -215 280c0 145 67 255 215 272v96h89v-93c63 -4 100 -16 125 -26v-123c-34 13 -71 25 -132 25c-91 0 -143 -51 -143 -147c0 -101 51 -162 159 -162c53 0 96 13 123 28v-122c-25 -11 -66 -27 -132 -31v-109h-89z" />
    <glyph glyph-name="sterling.tab" unicode="&#xf4ef;" horiz-adv-x="650" 
d="M84 0v135h86v172h-86v111h86v59c0 124 69 235 253 235c51 0 102 -6 153 -19v-133c-50 14 -82 18 -122 18c-84 0 -120 -44 -120 -116v-44h158v-111h-158v-172h245v-135h-495z" />
    <glyph glyph-name="yen.tab" unicode="&#xf4fa;" horiz-adv-x="650" 
d="M99 140v84h144v41l-10 20h-134v84h92l-166 331h188l114 -258l110 258h189l-166 -331h92v-84h-134l-10 -20v-41h144v-84h-144v-140h-165v140h-144z" />
    <glyph glyph-name="florin.tab" unicode="&#xf4fb;" horiz-adv-x="650" 
d="M17 -213l27 126c11 -2 23 -3 38 -3c38 0 74 10 89 90l76 385h-89l26 125h88l13 63c22 112 88 185 220 185c37 0 62 -4 90 -9l-24 -122c-8 2 -26 6 -47 6c-62 0 -84 -23 -97 -94l-6 -29h122l-25 -125h-122l-75 -381c-30 -147 -97 -223 -238 -223c-31 0 -52 3 -66 6z" />
    <glyph glyph-name="uni20B4.tab" unicode="&#xf4fc;" horiz-adv-x="650" 
d="M67 246v79h118l73 61h-191v78h273c23 22 36 47 36 67c0 45 -41 54 -75 54c-62 0 -98 -3 -156 -22v129c73 16 155 20 193 20c179 0 214 -92 214 -152c0 -43 -16 -72 -33 -96h65v-78h-128c-13 -11 -61 -51 -74 -61h202v-79h-279c-21 -19 -27 -45 -27 -63
c0 -48 39 -68 110 -68c37 0 96 4 152 27v-130c-73 -20 -138 -24 -198 -24c-206 0 -240 121 -240 171c0 38 12 66 24 87h-59z" />
    <glyph glyph-name="uni20BD.tab" unicode="&#xf4fd;" horiz-adv-x="650" 
d="M332 271h-68v-65h192v-109h-192v-97h-162v97h-62v109h62v65h-62v111h62v316c86 4 135 7 237 7c179 0 255 -56 255 -219c0 -154 -77 -215 -262 -215zM325 568c-20 0 -43 -1 -61 -3v-184h53c78 0 110 29 110 94s-22 93 -102 93z" />
    <glyph glyph-name="uni20B8.tab" unicode="&#xf5f3;" horiz-adv-x="650" 
d="M244 0v463h-192v94h548v-94h-192v-463h-164zM52 606v94h548v-94h-548z" />
    <glyph glyph-name="zero.denominator" unicode="&#xf655;" 
d="M24 210c0 155 73 219 200 219c139 0 202 -66 202 -219c0 -155 -73 -218 -200 -218c-133 0 -202 66 -202 218zM142 210c0 -90 25 -126 85 -126c57 0 80 35 80 126c0 90 -21 128 -83 128c-60 0 -82 -39 -82 -128z" />
    <glyph glyph-name="one.denominator" unicode="&#xf656;" 
d="M214 0v299l-109 -56l-45 81l175 95h95v-419h-116z" />
    <glyph glyph-name="two.denominator" unicode="&#xf657;" 
d="M47 0v100l133 80c71 44 94 71 94 101c0 26 -18 52 -82 52c-43 0 -94 -7 -132 -26v99c51 17 96 23 150 23c132 0 182 -57 182 -128c0 -65 -44 -120 -158 -177l-49 -27v-1h211v-96h-349z" />
    <glyph glyph-name="three.denominator" unicode="&#xf658;" 
d="M122 175v80h75c50 0 79 10 79 40c0 27 -23 40 -86 40c-48 0 -95 -5 -129 -18v93c48 16 111 19 161 19c135 0 174 -56 174 -110c0 -53 -37 -80 -103 -100v-1c88 -14 113 -54 113 -99c0 -72 -64 -127 -203 -127c-37 0 -96 3 -149 19v96c50 -19 96 -20 135 -20
c72 0 97 16 97 43c0 33 -23 45 -79 45h-85z" />
    <glyph glyph-name="four.denominator" unicode="&#xf659;" 
d="M19 81v87l224 251h132v-247h58v-91h-58v-81h-112v81h-244zM264 171v155h-1l-139 -155h140z" />
    <glyph glyph-name="five.denominator" unicode="&#xf65a;" 
d="M61 191l12 228h312v-91h-228l-3 -56c25 1 52 2 86 2c121 0 168 -53 168 -132s-53 -150 -205 -150c-45 0 -95 5 -144 19v93c42 -14 78 -17 129 -17c70 0 101 19 101 54c0 34 -28 54 -100 54c-51 0 -82 -2 -128 -4z" />
    <glyph glyph-name="six.denominator" unicode="&#xf65b;" 
d="M233 -8c-151 0 -203 88 -203 208c0 122 55 229 227 229c35 0 83 -1 127 -12v-93c-42 10 -82 13 -125 13c-55 0 -117 -24 -120 -99c36 22 78 37 124 37c98 0 160 -42 160 -134c0 -91 -70 -149 -190 -149zM141 169c2 -60 36 -92 92 -92c44 0 76 21 76 62
c0 36 -28 56 -74 56c-34 0 -72 -9 -94 -26z" />
    <glyph glyph-name="seven.denominator" unicode="&#xf65c;" 
d="M105 0l176 328h-242v91h372v-76l-179 -343h-127z" />
    <glyph glyph-name="eight.denominator" unicode="&#xf65d;" 
d="M225 -8c-129 0 -201 42 -201 124c0 52 33 93 94 105c-53 12 -82 48 -82 96c0 71 59 112 189 112s189 -41 189 -112c0 -48 -29 -84 -82 -96c61 -12 94 -53 94 -105c0 -82 -71 -124 -201 -124zM225 76c59 0 86 23 86 56c0 30 -21 52 -86 52s-86 -22 -86 -52
c0 -33 27 -56 86 -56zM225 346c-55 0 -79 -19 -79 -48c0 -28 21 -48 79 -48s79 20 79 48c0 29 -24 48 -79 48z" />
    <glyph glyph-name="nine.denominator" unicode="&#xf65e;" 
d="M215 429c154 0 203 -87 203 -207c0 -123 -55 -230 -210 -230c-41 0 -94 3 -148 14v94c46 -12 88 -16 132 -16c54 0 115 24 118 99c-33 -25 -73 -41 -123 -41c-91 0 -159 44 -159 138c0 91 69 149 187 149zM308 254c-3 55 -34 91 -93 91c-43 0 -72 -22 -72 -62
c0 -41 28 -63 75 -63c38 0 68 15 90 34z" />
    <glyph glyph-name="zero.numerator" unicode="&#xf661;" 
d="M24 491c0 155 73 219 200 219c139 0 202 -66 202 -219c0 -155 -73 -218 -200 -218c-133 0 -202 66 -202 218zM142 491c0 -90 25 -126 85 -126c57 0 80 35 80 126c0 90 -21 128 -83 128c-60 0 -82 -39 -82 -128z" />
    <glyph glyph-name="one.numerator" unicode="&#xf662;" 
d="M214 281v299l-109 -56l-45 81l175 95h95v-419h-116z" />
    <glyph glyph-name="two.numerator" unicode="&#xf663;" 
d="M47 281v100l133 80c71 44 94 71 94 101c0 26 -18 52 -82 52c-43 0 -94 -7 -132 -26v99c51 17 96 23 150 23c132 0 182 -57 182 -128c0 -65 -44 -120 -158 -177l-49 -27v-1h211v-96h-349z" />
    <glyph glyph-name="three.numerator" unicode="&#xf664;" 
d="M122 456v80h75c50 0 79 10 79 40c0 27 -23 40 -86 40c-48 0 -95 -5 -129 -18v93c48 16 111 19 161 19c135 0 174 -56 174 -110c0 -53 -37 -80 -103 -100v-1c88 -14 113 -54 113 -99c0 -72 -64 -127 -203 -127c-37 0 -96 3 -149 19v96c50 -19 96 -20 135 -20
c72 0 97 16 97 43c0 33 -23 45 -79 45h-85z" />
    <glyph glyph-name="four.numerator" unicode="&#xf665;" 
d="M19 362v87l224 251h132v-247h58v-91h-58v-81h-112v81h-244zM264 452v155h-1l-139 -155h140z" />
    <glyph glyph-name="five.numerator" unicode="&#xf666;" 
d="M61 472l12 228h312v-91h-228l-3 -56c25 1 52 2 86 2c121 0 168 -53 168 -132s-53 -150 -205 -150c-45 0 -95 5 -144 19v93c42 -14 78 -17 129 -17c70 0 101 19 101 54c0 34 -28 54 -100 54c-51 0 -82 -2 -128 -4z" />
    <glyph glyph-name="six.numerator" unicode="&#xf667;" 
d="M233 273c-151 0 -203 88 -203 208c0 122 55 229 227 229c35 0 83 -1 127 -12v-93c-42 10 -82 13 -125 13c-55 0 -117 -24 -120 -99c36 22 78 37 124 37c98 0 160 -42 160 -134c0 -91 -70 -149 -190 -149zM141 450c2 -60 36 -92 92 -92c44 0 76 21 76 62
c0 36 -28 56 -74 56c-34 0 -72 -9 -94 -26z" />
    <glyph glyph-name="seven.numerator" unicode="&#xf668;" 
d="M105 281l176 328h-242v91h372v-76l-179 -343h-127z" />
    <glyph glyph-name="eight.numerator" unicode="&#xf669;" 
d="M225 273c-129 0 -201 42 -201 124c0 52 33 93 94 105c-53 12 -82 48 -82 96c0 71 59 112 189 112s189 -41 189 -112c0 -48 -29 -84 -82 -96c61 -12 94 -53 94 -105c0 -82 -71 -124 -201 -124zM225 357c59 0 86 23 86 56c0 30 -21 52 -86 52s-86 -22 -86 -52
c0 -33 27 -56 86 -56zM225 627c-55 0 -79 -19 -79 -48c0 -28 21 -48 79 -48s79 20 79 48c0 29 -24 48 -79 48z" />
    <glyph glyph-name="nine.numerator" unicode="&#xf66a;" 
d="M215 710c154 0 203 -87 203 -207c0 -123 -55 -230 -210 -230c-41 0 -94 3 -148 14v94c46 -12 88 -16 132 -16c54 0 115 24 118 99c-33 -25 -73 -41 -123 -41c-91 0 -159 44 -159 138c0 91 69 149 187 149zM308 535c-3 55 -34 91 -93 91c-43 0 -72 -22 -72 -62
c0 -41 28 -63 75 -63c38 0 68 15 90 34z" />
    <glyph glyph-name="uniF6BA" unicode="&#xf6ba;" horiz-adv-x="494" 
d="M87 295v121h320v-121h-320z" />
    <glyph glyph-name="uniF6BB" unicode="&#xf6bb;" horiz-adv-x="721" 
d="M94 300v112h534v-112h-534z" />
    <glyph glyph-name="uniF6BC" unicode="&#xf6bc;" horiz-adv-x="885" 
d="M94 300v112h697v-112h-697z" />
    <glyph glyph-name="uniF6C3" unicode="&#xf6c3;" horiz-adv-x="485" 
d="M173 -197c43 0 75 10 79 40c-7 -1 -13 -1 -19 -1c-49 0 -79 18 -79 51s35 54 87 54c53 0 91 -26 91 -82c0 -66 -55 -116 -143 -116c-5 0 -11 0 -16 1v53z" />
    <glyph glyph-name="uniF6C9" unicode="&#xf6c9;" horiz-adv-x="485" 
d="M116 755l108 170h192l-178 -170h-122z" />
    <glyph glyph-name="uniF6CA" unicode="&#xf6ca;" horiz-adv-x="485" 
d="M163 765l-120 170h121l79 -97l79 97h121l-120 -170h-160z" />
    <glyph glyph-name="uniF6CB" unicode="&#xf6cb;" horiz-adv-x="485" 
d="M129 762c-60 0 -86 26 -86 78s26 78 86 78s86 -26 86 -78s-26 -78 -86 -78zM357 762c-60 0 -86 26 -86 78s26 78 86 78s86 -26 86 -78s-26 -78 -86 -78z" />
    <glyph glyph-name="uniF6CE" unicode="&#xf6ce;" horiz-adv-x="485" 
d="M281 920l88 -160h-120l-160 160h192z" />
    <glyph glyph-name="uniF6CF" unicode="&#xf6cf;" horiz-adv-x="485" 
d="M7 755l50 170h172l-100 -170h-122zM215 755l100 170h192l-160 -170h-132z" />
    <glyph glyph-name="uniF6D0" unicode="&#xf6d0;" horiz-adv-x="485" 
d="M68 788v104h350v-104h-350z" />
    <glyph glyph-name="uniF6D1" unicode="&#xf6d1;" horiz-adv-x="485" 
d="M243 755c-105 0 -190 47 -190 170h116c0 -60 24 -85 74 -85s76 25 76 85h114c0 -123 -85 -170 -190 -170z" />
    <glyph glyph-name="uniF6D4" unicode="&#xf6d4;" horiz-adv-x="485" 
d="M243 615c-95 0 -180 47 -180 170h114c0 -60 26 -86 66 -86s68 26 68 86h112c0 -123 -85 -170 -180 -170z" />
    <glyph glyph-name="uniFEFF" unicode="&#xfeff;" horiz-adv-x="0" 
 />
    <glyph glyph-name="percent.tab" horiz-adv-x="650" 
d="M27 0l493 700h107l-493 -700h-107zM26 542c0 115 53 170 141 170s138 -53 138 -170c0 -122 -55 -171 -139 -171c-88 0 -140 52 -140 171zM210 542c0 59 -15 82 -43 82c-30 0 -45 -23 -45 -82c0 -61 17 -83 45 -83c27 0 42 20 43 83zM352 158c0 115 53 170 141 170
s138 -53 138 -170c0 -122 -55 -171 -139 -171c-88 0 -140 52 -140 171zM536 158c0 59 -15 81 -43 81c-30 0 -44 -22 -44 -81c0 -61 16 -83 45 -83c27 0 42 20 42 83z" />
    <glyph glyph-name="plus.tab" horiz-adv-x="650" 
d="M91 272v120h174v174h121v-174h173v-120h-173v-174h-121v174h-174z" />
    <glyph glyph-name="less.tab" horiz-adv-x="650" 
d="M78 265v112l465 170v-123l-311 -102v-2l311 -102v-123z" />
    <glyph glyph-name="equal.tab" horiz-adv-x="650" 
d="M89 163v118h470v-118h-470zM89 377v118h470v-118h-470z" />
    <glyph glyph-name="greater.tab" horiz-adv-x="650" 
d="M108 95v123l310 102v2l-310 102v123l464 -170v-112z" />
    <glyph glyph-name="multiply.tab" horiz-adv-x="650" 
d="M109 186l134 138l-134 139l83 83l133 -137l134 137l84 -83l-135 -139l135 -138l-84 -82l-134 137l-133 -137z" />
    <glyph glyph-name="divide.tab" horiz-adv-x="650" 
d="M246 133c0 49 30 78 80 78c46 0 78 -30 78 -78c0 -50 -28 -78 -78 -78c-49 0 -80 29 -80 78zM246 517c0 49 30 78 80 78c46 0 78 -30 78 -78c0 -50 -28 -78 -78 -78c-49 0 -80 30 -80 78zM90 266v118h470v-118h-470z" />
    <glyph glyph-name="perthousand.tab" horiz-adv-x="650" 
d="M510 467l-464 -220l-32 68l465 221zM11 567c0 99 45 143 120 143c74 0 125 -39 125 -143c0 -105 -47 -145 -119 -145c-80 0 -126 40 -126 145zM96 567c0 -46 14 -60 40 -60c22 0 35 11 36 60c0 43 -12 58 -38 58s-38 -15 -38 -58zM112 135c0 99 45 143 120 143
c74 0 125 -39 125 -143c0 -105 -47 -145 -119 -145c-80 0 -126 40 -126 145zM197 135c0 -46 14 -60 40 -60c22 0 35 11 36 60c0 43 -12 58 -38 58s-38 -15 -38 -58zM385 135c0 99 45 143 120 143c74 0 125 -39 125 -143c0 -105 -47 -145 -119 -145c-80 0 -126 40 -126 145z
M470 135c0 -46 14 -60 40 -60c22 0 35 11 36 60c0 43 -12 58 -38 58s-38 -15 -38 -58z" />
    <glyph glyph-name="minus.tab" horiz-adv-x="650" 
d="M90 266v118h470v-118h-470z" />
    <glyph glyph-name="f_b" horiz-adv-x="1105" 
d="M485 0v627c-37 3 -77 6 -125 6c-52 0 -75 -9 -76 -62v-31h126v-133h-126v-407h-160v407h-91v133h92v48c0 128 55 179 202 179c72 0 114 -5 158 -7h159v-295c28 49 80 89 184 89c155 0 230 -72 230 -272c0 -204 -74 -296 -237 -296c-105 0 -155 39 -181 82l-5 -68h-150z
M644 293v-43c0 -89 42 -136 126 -136c85 0 122 48 122 164c0 119 -46 148 -122 148c-89 0 -126 -48 -126 -133z" />
    <glyph glyph-name="f_f_b" horiz-adv-x="1465" 
d="M124 0v407h-91v133h92v48c0 128 54 179 202 179c54 0 82 -5 110 -11v-133c-12 4 -34 10 -78 10c-52 0 -75 -9 -75 -62v-31h201v48c0 128 55 179 202 179c72 0 114 -5 158 -7h159v-295c28 49 80 89 184 89c155 0 230 -72 230 -272c0 -204 -74 -296 -237 -296
c-105 0 -155 39 -181 82l-5 -68h-150v627c-37 3 -77 6 -125 6c-52 0 -75 -9 -76 -62v-31h126v-133h-126v-407h-160v407h-200v-407h-160zM1004 293v-43c0 -89 42 -136 126 -136c85 0 122 48 122 164c0 119 -46 148 -122 148c-89 0 -126 -48 -126 -133z" />
    <glyph glyph-name="f_f_h" horiz-adv-x="1445" 
d="M124 0v407h-91v133h92v48c0 128 54 179 202 179c54 0 82 -5 110 -11v-133c-12 4 -34 10 -78 10c-52 0 -75 -9 -75 -62v-31h201v48c0 128 55 179 202 179c72 0 114 -5 158 -7h159v-295c28 58 89 89 182 89c136 0 191 -61 191 -200v-354h-160v318c0 75 -27 104 -102 104
c-81 0 -111 -37 -111 -118v-304h-159v627c-37 3 -77 6 -125 6c-52 0 -75 -9 -76 -62v-31h126v-133h-126v-407h-160v407h-200v-407h-160z" />
    <glyph glyph-name="f_f_j" horiz-adv-x="1085" 
d="M124 0v407h-91v133h92v48c0 128 54 179 202 179c54 0 82 -5 110 -11v-133c-12 4 -34 10 -78 10c-52 0 -75 -9 -75 -62v-31h201v48c0 128 54 179 199 179c36 0 68 -6 91 -9v-133c-15 3 -34 8 -59 8c-49 0 -71 -9 -72 -62v-31h361v-547c0 -135 -59 -179 -172 -179
c-52 0 -83 8 -98 14v131c15 -7 35 -11 56 -11c39 0 54 15 54 55v404h-201v-407h-160v407h-200v-407h-160zM832 699c0 44 26 76 90 76c67 0 92 -32 92 -76c0 -43 -25 -78 -92 -78c-65 0 -90 35 -90 78z" />
    <glyph glyph-name="f_f_k" horiz-adv-x="1404" 
d="M124 0v407h-91v133h92v48c0 128 54 179 202 179c54 0 82 -5 110 -11v-133c-12 4 -34 10 -78 10c-52 0 -75 -9 -75 -62v-31h201v48c0 128 55 179 202 179c72 0 114 -5 158 -7h159v-411h48l139 194h179l-190 -256l209 -287h-183l-154 214h-48v-214h-159v627
c-37 3 -77 6 -125 6c-52 0 -75 -9 -76 -62v-31h126v-133h-126v-407h-160v407h-200v-407h-160z" />
    <glyph glyph-name="f_h" horiz-adv-x="1085" 
d="M485 0v627c-37 3 -77 6 -125 6c-52 0 -75 -9 -76 -62v-31h126v-133h-126v-407h-160v407h-91v133h92v48c0 128 55 179 202 179c72 0 114 -5 158 -7h159v-295c28 58 89 89 182 89c136 0 191 -61 191 -200v-354h-160v318c0 75 -27 104 -102 104c-81 0 -111 -37 -111 -118
v-304h-159z" />
    <glyph glyph-name="f_j" horiz-adv-x="725" 
d="M472 699c0 44 26 76 90 76c67 0 92 -32 92 -76c0 -43 -25 -78 -92 -78c-65 0 -90 35 -90 78zM485 3v404h-201v-407h-160v407h-91v133h92v48c0 128 54 179 199 179c36 0 68 -6 91 -9v-133c-15 3 -34 8 -59 8c-49 0 -71 -9 -72 -62v-31h361v-547c0 -135 -59 -179 -172 -179
c-52 0 -83 8 -98 14v131c15 -7 35 -11 56 -11c39 0 54 15 54 55z" />
    <glyph glyph-name="f_k" horiz-adv-x="1044" 
d="M485 760h159v-411h48l139 191h179l-190 -253l209 -287h-183l-154 214h-48v-214h-159v627c-37 3 -77 6 -125 6c-52 0 -75 -9 -76 -62v-31h126v-133h-126v-407h-160v407h-91v133h92v48c0 128 55 179 202 179c72 0 114 -5 158 -7z" />
    </font>
</defs>
</svg>
