<?xml version="1.0" standalone="no"?>
<!DOCTYPE svg PUBLIC "-//W3C//DTD SVG 1.1//EN" "http://www.w3.org/Graphics/SVG/1.1/DTD/svg11.dtd" >
<svg xmlns="http://www.w3.org/2000/svg" xmlns:xlink="http://www.w3.org/1999/xlink" version="1.1">
<metadata>
Created by FontForge 20190801 at Wed Apr 17 13:05:05 2019
 By Jimmy Wärting
Copyright (c) 2018 ParaType Inc., ParaType Ltd. All rights reserved.
</metadata>
<defs>
<font id="SBSansText-Medium" horiz-adv-x="450" >
  <font-face 
    font-family="SB Sans Text Medium"
    font-weight="500"
    font-stretch="normal"
    units-per-em="1000"
    panose-1="2 11 6 3 4 5 4 2 2 4"
    ascent="801"
    descent="-199"
    x-height="534"
    cap-height="700"
    bbox="-370 -249 1303 960"
    underline-thickness="50"
    underline-position="-120"
    stemh="91"
    stemv="105"
    unicode-range="U+0020-FEFF"
  />
<missing-glyph horiz-adv-x="500" 
 />
    <glyph glyph-name="f_f" unicode="ff" horiz-adv-x="761" 
d="M463 0v440h-234v-440h-105v440h-86v94h86v57c0 126 61 169 188 169c44 0 72 -5 90 -10v-100c-16 7 -39 15 -82 15c-70 0 -91 -17 -91 -89v-42h235v57c0 126 60 169 187 169c45 0 73 -5 90 -10v-100c-16 7 -39 15 -81 15c-70 0 -92 -17 -92 -89v-42h171v-94h-171v-440
h-105z" />
    <glyph glyph-name="fi" unicode="fi" horiz-adv-x="669" 
d="M449 701c0 33 17 59 66 59s66 -26 66 -59c0 -32 -17 -61 -66 -61s-66 29 -66 61zM124 534v57c0 126 58 169 179 169c36 0 68 -6 87 -9v-101c-21 6 -48 15 -78 15c-63 0 -83 -17 -83 -89v-42h340v-534h-106v440h-234v-440h-105v440h-86v94h86z" />
    <glyph glyph-name="fl" unicode="fl" horiz-adv-x="728" 
d="M124 534v57c0 126 61 169 188 169c60 0 109 -5 151 -6h106v-595c0 -59 17 -74 68 -74c27 0 52 7 68 12v-90c-16 -8 -52 -17 -93 -17c-92 0 -149 36 -149 139v530c-39 3 -89 6 -142 6c-70 0 -92 -17 -92 -89v-42h164v-94h-164v-440h-105v440h-86v94h86z" />
    <glyph glyph-name="f_f_i" unicode="ffi" horiz-adv-x="1009" 
d="M124 0v440h-86v94h86v57c0 126 61 169 188 169c44 0 72 -5 90 -10v-100c-16 7 -39 15 -82 15c-70 0 -91 -17 -91 -89v-42h235v57c0 126 58 169 178 169c37 0 68 -6 87 -9v-101c-20 6 -47 15 -78 15c-62 0 -82 -17 -82 -89v-42h339v-534h-105v440h-234v-440h-106v440h-234
v-440h-105zM789 701c0 33 17 59 65 59c49 0 67 -26 67 -59c0 -32 -18 -61 -67 -61c-48 0 -65 29 -65 61z" />
    <glyph glyph-name="f_f_l" unicode="ffl" horiz-adv-x="1067" 
d="M124 0v440h-86v94h86v57c0 126 61 169 188 169c44 0 72 -5 90 -10v-100c-16 7 -39 15 -82 15c-70 0 -91 -17 -91 -89v-42h235v57c0 126 61 169 187 169c60 0 109 -5 152 -6h105v-595c0 -59 18 -74 68 -74c28 0 53 7 69 12v-90c-16 -8 -53 -17 -93 -17
c-93 0 -149 36 -149 139v530c-39 3 -89 6 -143 6c-70 0 -91 -17 -91 -89v-42h164v-94h-164v-440h-106v440h-234v-440h-105z" />
    <glyph glyph-name=".notdef" horiz-adv-x="500" 
 />
    <glyph glyph-name="space" unicode=" " horiz-adv-x="289" 
 />
    <glyph glyph-name="exclam" unicode="!" horiz-adv-x="386" 
d="M139 61c0 41 19 72 74 72c54 0 75 -31 75 -72s-20 -72 -75 -72c-54 0 -74 32 -74 72zM160 235l-3 465h112l-4 -465h-105z" />
    <glyph glyph-name="quotedbl" unicode="&#x22;" horiz-adv-x="579" 
d="M137 427v273h93v-273h-93zM349 427v273h93v-273h-93z" />
    <glyph glyph-name="numbersign" unicode="#" horiz-adv-x="738" 
d="M104 0l50 187h-119l25 83h115l45 167h-124l25 83h120l48 180h92l-48 -180h155l48 180h92l-48 -180h123l-25 -83h-119l-45 -167h129l-25 -83h-125l-50 -187h-91l49 187h-155l-50 -187h-92zM266 270h156l45 167h-155z" />
    <glyph glyph-name="dollar" unicode="$" horiz-adv-x="610" 
d="M426 188c0 167 -350 75 -350 327c0 110 54 178 192 192v93h81v-90c66 -3 124 -16 166 -36v-122c-43 36 -115 62 -186 62c-109 0 -139 -32 -139 -90c0 -161 355 -62 355 -330c0 -114 -59 -185 -196 -200v-114h-81v110c-78 3 -155 25 -197 56v132c42 -44 113 -91 212 -91
s143 35 143 101z" />
    <glyph glyph-name="percent" unicode="%" horiz-adv-x="939" 
d="M175 0l504 700h92l-501 -700h-95zM505 151c0 107 68 166 182 166c104 0 169 -56 169 -166c0 -111 -71 -168 -180 -168c-108 0 -171 59 -171 168zM775 151c0 58 -31 89 -94 89s-93 -31 -93 -89s34 -91 95 -91c58 0 92 29 92 91zM83 545c0 107 68 166 181 166
c104 0 170 -56 170 -166s-71 -168 -181 -168c-108 0 -170 59 -170 168zM352 545c0 59 -30 89 -93 89s-94 -30 -94 -89c0 -58 35 -91 95 -91c58 0 92 29 92 91z" />
    <glyph glyph-name="ampersand" unicode="&#x26;" horiz-adv-x="893" 
d="M661 512h101c0 -119 -36 -263 -113 -370c46 -24 91 -40 133 -43v-111c-65 7 -137 39 -202 83c-58 -54 -135 -88 -226 -88c-176 0 -261 74 -261 226c0 88 40 168 162 221c-23 45 -35 89 -35 129c0 101 55 153 171 153c104 0 158 -50 158 -133c0 -94 -55 -147 -173 -183
c49 -76 117 -149 198 -207c60 81 87 202 87 323zM504 126c-86 69 -159 150 -209 234c-71 -28 -99 -72 -99 -136c0 -102 51 -141 168 -141c52 0 100 13 140 43zM339 462c82 28 113 53 113 102c0 42 -17 60 -69 60c-46 0 -68 -18 -68 -73c0 -26 8 -57 24 -89z" />
    <glyph glyph-name="quotesingle" unicode="'" horiz-adv-x="367" 
d="M137 427v273h93v-273h-93z" />
    <glyph glyph-name="parenleft" unicode="(" horiz-adv-x="364" 
d="M325 -148l-48 -44c-55 38 -204 203 -204 479c0 244 136 433 204 479l51 -43c-48 -53 -153 -201 -153 -436c0 -229 103 -385 150 -435z" />
    <glyph glyph-name="parenright" unicode=")" horiz-adv-x="364" 
d="M39 -148c47 50 150 207 150 436c0 235 -104 382 -153 435l52 43c67 -46 204 -234 204 -478c0 -276 -150 -442 -205 -480z" />
    <glyph glyph-name="asterisk" unicode="*" horiz-adv-x="580" 
d="M132 365l103 116l-151 33l30 94l143 -62l-16 154h99l-16 -153l143 61l29 -94l-150 -33l103 -116l-80 -57l-79 133l-79 -133z" />
    <glyph glyph-name="plus" unicode="+" horiz-adv-x="610" 
d="M88 294v95h170v170h94v-170h170v-95h-170v-169h-94v169h-170z" />
    <glyph glyph-name="comma" unicode="," horiz-adv-x="369" 
d="M56 -102c69 7 115 45 125 92c-52 0 -77 23 -77 71c0 42 25 73 75 73c60 0 88 -37 88 -103c0 -119 -83 -186 -155 -201z" />
    <glyph glyph-name="hyphen" unicode="-" horiz-adv-x="475" 
d="M96 245v95h283v-95h-283z" />
    <glyph glyph-name="period" unicode="." horiz-adv-x="355" 
d="M103 63c0 44 19 74 74 74c56 0 76 -29 76 -74c0 -42 -19 -74 -76 -74c-55 0 -74 32 -74 74z" />
    <glyph glyph-name="slash" unicode="/" horiz-adv-x="354" 
d="M2 -180l256 934h95l-256 -934h-95z" />
    <glyph glyph-name="zero" unicode="0" horiz-adv-x="610" 
d="M57 349c0 265 82 360 257 360c172 0 239 -107 239 -360c0 -274 -85 -360 -248 -360c-172 0 -248 116 -248 360zM166 349c0 -197 43 -267 143 -267c99 0 135 58 135 264c0 213 -33 271 -139 271s-139 -66 -139 -268z" />
    <glyph glyph-name="one" unicode="1" horiz-adv-x="610" 
d="M95 0v96h206v484l-206 -122v104l238 144h75v-610h126v-96h-439z" />
    <glyph glyph-name="two" unicode="2" horiz-adv-x="610" 
d="M58 0v70c250 212 356 280 356 410c0 89 -47 127 -149 127c-79 0 -140 -28 -196 -66v123c54 27 126 45 218 45c176 0 241 -78 241 -206c0 -153 -81 -238 -303 -405h316v-98h-483z" />
    <glyph glyph-name="three" unicode="3" horiz-adv-x="610" 
d="M188 310v91h59c112 0 156 37 156 116c0 62 -28 93 -136 93c-83 0 -152 -33 -198 -62v112c48 26 125 49 222 49c159 0 221 -54 222 -173c1 -89 -43 -144 -141 -170c111 -9 172 -66 172 -164c0 -134 -77 -211 -255 -211c-103 0 -182 21 -227 48v126c43 -36 121 -70 216 -70
c117 0 156 37 156 112c0 64 -38 103 -183 103h-63z" />
    <glyph glyph-name="four" unicode="4" horiz-adv-x="610" 
d="M40 182v67l306 451h136v-420h98v-98h-98v-182h-107v182h-335zM375 280v306l-204 -306h204z" />
    <glyph glyph-name="five" unicode="5" horiz-adv-x="610" 
d="M89 343l31 357h398v-96h-313l-15 -164c18 2 63 3 106 3c185 0 243 -80 243 -213c0 -151 -73 -239 -267 -239c-65 0 -143 10 -194 31v119c42 -28 124 -47 184 -47c126 0 167 45 167 130c0 90 -33 128 -180 128c-59 0 -125 -3 -160 -9z" />
    <glyph glyph-name="six" unicode="6" horiz-adv-x="610" 
d="M317 -9c-196 0 -267 120 -267 338c0 276 125 380 323 380c52 0 104 -9 141 -22v-115c-31 18 -72 36 -152 36c-123 0 -214 -70 -214 -246c0 -21 1 -23 2 -29c35 78 94 122 204 122c142 0 206 -93 206 -211c0 -177 -105 -253 -243 -253zM169 258c0 -106 50 -167 151 -167
c78 0 131 44 131 138c0 89 -36 135 -131 135c-96 0 -134 -54 -151 -106z" />
    <glyph glyph-name="seven" unicode="7" horiz-adv-x="610" 
d="M155 0l274 594h-367v106h496v-69l-283 -631h-120z" />
    <glyph glyph-name="eight" unicode="8" horiz-adv-x="610" 
d="M53 198c0 73 22 146 131 176c-84 22 -115 66 -115 152c0 114 67 186 237 186c167 0 229 -68 229 -167c0 -83 -18 -144 -113 -171c104 -24 135 -77 135 -170c0 -126 -73 -213 -250 -213c-172 0 -254 78 -254 207zM164 215c0 -89 55 -126 143 -126c101 0 141 43 141 124
c0 79 -52 115 -142 115c-93 0 -142 -44 -142 -113zM174 509c0 -59 39 -104 130 -104c89 0 125 42 125 106c0 72 -32 103 -125 103c-92 0 -130 -36 -130 -105z" />
    <glyph glyph-name="nine" unicode="9" horiz-adv-x="610" 
d="M293 709c196 0 267 -120 267 -337c0 -277 -125 -381 -323 -381c-52 0 -104 9 -141 23v114c31 -18 72 -35 152 -35c123 0 214 70 214 246c0 20 -1 23 -2 29c-35 -79 -90 -123 -200 -123c-142 0 -210 93 -210 212c0 177 105 252 243 252zM442 451c-4 96 -51 159 -152 158
c-78 -1 -130 -43 -131 -137c-2 -88 40 -136 135 -136c96 0 135 54 148 115z" />
    <glyph glyph-name="colon" unicode=":" horiz-adv-x="355" 
d="M105 63c0 44 19 74 74 74c56 0 76 -29 76 -74c0 -42 -19 -74 -76 -74c-55 0 -74 32 -74 74zM105 427c0 44 19 74 74 74c56 0 76 -29 76 -74c0 -42 -19 -74 -76 -74c-55 0 -74 32 -74 74z" />
    <glyph glyph-name="semicolon" unicode=";" horiz-adv-x="369" 
d="M107 426c0 44 19 74 74 74c56 0 76 -29 76 -74c0 -42 -19 -74 -76 -74c-55 0 -74 32 -74 74zM58 -102c69 7 115 45 125 92c-52 0 -77 23 -77 71c0 42 25 73 75 73c60 0 88 -37 88 -103c0 -119 -83 -186 -155 -201z" />
    <glyph glyph-name="less" unicode="&#x3c;" horiz-adv-x="598" 
d="M65 284v82l429 172v-95l-314 -117v-2l314 -117v-96z" />
    <glyph glyph-name="equal" unicode="=" horiz-adv-x="600" 
d="M81 178v90h438v-90h-438zM81 392v90h438v-90h-438z" />
    <glyph glyph-name="greater" unicode="&#x3e;" horiz-adv-x="598" 
d="M104 111v96l314 117v2l-314 117v95l430 -172v-82z" />
    <glyph glyph-name="question" unicode="?" horiz-adv-x="591" 
d="M191 234c0 169 211 146 211 282c0 57 -46 96 -139 96c-71 0 -120 -18 -162 -44v113c38 16 100 28 174 28c150 0 236 -55 236 -185c0 -191 -221 -180 -221 -290h-99zM166 61c0 41 20 72 74 72s75 -31 75 -72s-20 -72 -75 -72c-53 0 -74 32 -74 72z" />
    <glyph glyph-name="at" unicode="@" horiz-adv-x="1034" 
d="M730 63c-76 0 -106 32 -118 93c-17 -57 -64 -93 -133 -93c-111 0 -168 63 -168 230c0 149 72 224 181 224c70 0 100 -37 113 -69l10 58h74v-302c0 -47 17 -64 51 -64c55 0 113 52 113 181c0 194 -112 312 -327 312c-222 0 -342 -125 -342 -345c0 -196 104 -344 345 -344
c75 0 146 21 184 51v-84c-40 -19 -108 -37 -184 -37c-275 0 -420 171 -420 416c0 239 146 413 419 413c246 0 399 -144 399 -380c0 -154 -79 -260 -197 -260zM405 295c0 -114 27 -154 98 -154c58 0 92 46 92 129v53c0 91 -39 115 -89 115c-65 0 -101 -39 -101 -143z" />
    <glyph glyph-name="A" unicode="A" horiz-adv-x="687" 
d="M547 0l-64 176h-286l-63 -176h-113l261 700h121l264 -700h-120zM340 572l-108 -300h216z" />
    <glyph glyph-name="B" unicode="B" horiz-adv-x="671" 
d="M106 3v695c60 4 153 8 214 8c198 0 258 -52 258 -178c0 -85 -38 -138 -115 -161c102 -10 147 -69 147 -162c0 -147 -73 -213 -287 -213c-78 0 -158 4 -217 11zM218 95c35 -4 79 -6 116 -6c127 0 163 34 163 118c0 82 -46 108 -150 108h-129v-220zM218 397h120
c98 0 129 38 129 104c0 89 -25 109 -142 109c-35 0 -73 0 -107 -3v-210z" />
    <glyph glyph-name="C" unicode="C" horiz-adv-x="658" 
d="M584 679v-120c-37 25 -104 51 -189 51c-141 0 -213 -65 -213 -252c0 -204 80 -267 221 -267c92 0 165 35 197 54v-112c-33 -18 -107 -43 -201 -43c-230 0 -335 107 -335 359s108 361 332 361c91 0 154 -20 188 -31z" />
    <glyph glyph-name="D" unicode="D" horiz-adv-x="746" 
d="M106 4v695c54 5 109 9 215 9c274 0 361 -112 361 -336c0 -271 -124 -380 -379 -380c-90 0 -150 7 -197 12zM218 97c26 -4 53 -6 83 -6c188 0 265 71 265 270c0 182 -59 249 -248 249c-37 0 -70 -3 -100 -6v-507z" />
    <glyph glyph-name="E" unicode="E" horiz-adv-x="616" 
d="M106 0v700h444v-98h-332v-199h301v-96h-301v-209h332v-98h-444z" />
    <glyph glyph-name="F" unicode="F" horiz-adv-x="595" 
d="M106 0v700h431v-98h-319v-224h303v-98h-303v-280h-112z" />
    <glyph glyph-name="G" unicode="G" horiz-adv-x="712" 
d="M398 269v94h247v-330c-35 -16 -114 -43 -221 -43c-244 0 -360 104 -360 359c0 248 120 361 361 361c83 0 139 -15 171 -31v-113c-41 24 -98 46 -172 46c-167 0 -244 -72 -244 -254c0 -204 83 -269 248 -269c47 0 86 6 116 14v166h-146z" />
    <glyph glyph-name="H" unicode="H" horiz-adv-x="794" 
d="M106 0v700h112v-292h359v292h111v-700h-111v310h-359v-310h-112z" />
    <glyph glyph-name="I" unicode="I" horiz-adv-x="332" 
d="M110 0v700h112v-700h-112z" />
    <glyph glyph-name="J" unicode="J" horiz-adv-x="413" 
d="M196 178v522h111v-530c0 -123 -51 -176 -185 -176c-40 0 -71 7 -104 18v107c14 -12 55 -26 95 -26c61 0 83 21 83 85z" />
    <glyph glyph-name="K" unicode="K" horiz-adv-x="700" 
d="M106 0v700h112v-299h54l243 299h138l-287 -336l320 -364h-139l-274 313h-55v-313h-112z" />
    <glyph glyph-name="L" unicode="L" horiz-adv-x="577" 
d="M106 0v700h112v-599h335v-101h-447z" />
    <glyph glyph-name="M" unicode="M" horiz-adv-x="917" 
d="M106 0v700h146l213 -438l211 438h135v-700h-110v413c0 43 3 96 6 148c-25 -57 -51 -115 -67 -149l-132 -272h-94l-132 271c-18 37 -45 98 -73 155c4 -53 7 -107 7 -152v-414h-110z" />
    <glyph glyph-name="N" unicode="N" horiz-adv-x="792" 
d="M106 0v700h117l296 -432c25 -38 44 -70 62 -102c-3 37 -5 74 -5 120v414h110v-700h-116l-281 415c-26 37 -55 88 -80 134c4 -43 7 -82 7 -131v-418h-110z" />
    <glyph glyph-name="O" unicode="O" horiz-adv-x="790" 
d="M64 350c0 248 110 361 339 361c223 0 322 -113 322 -361c0 -261 -122 -361 -330 -361c-197 0 -331 100 -331 361zM182 348c0 -198 87 -260 217 -260c132 0 209 63 209 260c0 202 -78 265 -214 265c-145 0 -212 -84 -212 -265z" />
    <glyph glyph-name="P" unicode="P" horiz-adv-x="652" 
d="M106 0v695c56 5 119 11 197 11c216 0 296 -72 296 -233c0 -178 -87 -259 -297 -259c-26 0 -56 1 -84 4v-218h-112zM218 313c28 -3 54 -4 84 -4c134 0 181 42 181 155c0 107 -44 146 -178 146c-30 0 -59 -1 -87 -4v-293z" />
    <glyph glyph-name="Q" unicode="Q" horiz-adv-x="790" 
d="M64 350c0 248 110 361 339 361c223 0 322 -113 322 -361c0 -201 -72 -306 -200 -344l139 -166h-131l-127 149h-11c-197 0 -331 100 -331 361zM182 348c0 -198 87 -260 217 -260c132 0 209 63 209 260c0 202 -78 265 -214 265c-145 0 -212 -84 -212 -265z" />
    <glyph glyph-name="R" unicode="R" horiz-adv-x="674" 
d="M218 0h-112v693c56 6 138 13 202 13c188 0 264 -65 265 -213c0 -104 -31 -172 -132 -209l211 -284h-129l-198 268h-107v-268zM217 355h83c117 0 157 40 157 130c0 86 -35 122 -154 122c-33 0 -60 -2 -86 -6v-246z" />
    <glyph glyph-name="S" unicode="S" horiz-adv-x="602" 
d="M421 188c0 167 -349 75 -349 327c0 125 68 195 251 195c76 0 142 -14 188 -36v-122c-44 36 -115 62 -187 62c-108 0 -138 -32 -138 -90c0 -161 355 -62 355 -330c0 -130 -77 -204 -259 -204c-84 0 -169 23 -216 56v132c43 -44 113 -91 212 -91c100 0 143 35 143 101z" />
    <glyph glyph-name="T" unicode="T" horiz-adv-x="594" 
d="M241 0v602h-215v98h542v-98h-215v-602h-112z" />
    <glyph glyph-name="U" unicode="U" horiz-adv-x="752" 
d="M101 265v435h112v-419c0 -164 65 -194 173 -194c91 0 153 24 153 185v428h112v-429c0 -224 -115 -282 -273 -282c-189 0 -277 79 -277 276z" />
    <glyph glyph-name="V" unicode="V" horiz-adv-x="662" 
d="M270 0l-252 700h122l199 -566l190 566h115l-249 -700h-125z" />
    <glyph glyph-name="W" unicode="W" horiz-adv-x="962" 
d="M186 0l-144 700h118l85 -418c10 -48 14 -79 20 -128c14 48 19 79 34 126l130 420h115l128 -416c15 -48 21 -80 35 -130c6 50 10 81 20 129l81 417h113l-142 -700h-125l-170 547l-172 -547h-126z" />
    <glyph glyph-name="X" unicode="X" horiz-adv-x="672" 
d="M28 0l225 357l-211 343h130l163 -267l172 267h127l-225 -337l235 -363h-132l-182 284l-175 -284h-127z" />
    <glyph glyph-name="Y" unicode="Y" horiz-adv-x="636" 
d="M263 0v263l-246 437h125l180 -324l174 324h122l-244 -436v-264h-111z" />
    <glyph glyph-name="Z" unicode="Z" horiz-adv-x="620" 
d="M42 0v63l381 539h-369v98h518v-63l-380 -539h386v-98h-536z" />
    <glyph glyph-name="bracketleft" unicode="[" horiz-adv-x="439" 
d="M96 -180v934h258v-86h-162v-762h162v-86h-258z" />
    <glyph glyph-name="backslash" unicode="\" horiz-adv-x="355" 
d="M257 -180l-255 934h96l255 -934h-96z" />
    <glyph glyph-name="bracketright" unicode="]" horiz-adv-x="439" 
d="M85 -180v86h163v762h-163v86h258v-934h-258z" />
    <glyph glyph-name="asciicircum" unicode="^" horiz-adv-x="592" 
d="M44 350l182 350h138l184 -350h-101l-151 293l-150 -293h-102z" />
    <glyph glyph-name="underscore" unicode="_" horiz-adv-x="357" 
d="M0 -170v87h357v-87h-357z" />
    <glyph glyph-name="grave" unicode="`" horiz-adv-x="602" 
d="M377 624h-90l-130 140h140z" />
    <glyph glyph-name="a" unicode="a" horiz-adv-x="580" 
d="M400 0l-5 77c-26 -46 -83 -88 -167 -88c-112 0 -174 60 -174 161c0 117 63 162 220 162h116v44c0 76 -36 97 -125 97c-64 0 -131 -28 -168 -58v112c44 24 121 38 183 38c153 0 216 -46 216 -187v-358h-96zM161 164c0 -51 27 -82 96 -82c92 0 133 51 133 121v41h-108
c-94 0 -121 -21 -121 -80z" />
    <glyph glyph-name="b" unicode="b" horiz-adv-x="647" 
d="M90 0v754h106v-303c27 52 72 93 174 93c145 0 220 -69 220 -266c0 -205 -74 -289 -227 -289c-93 0 -144 33 -171 80l-5 -69h-97zM194 305v-70c0 -104 54 -155 145 -155c103 0 144 53 144 193c0 143 -48 181 -143 181c-101 0 -145 -57 -146 -149z" />
    <glyph glyph-name="c" unicode="c" horiz-adv-x="541" 
d="M472 517v-111c-33 24 -85 44 -148 44c-98 0 -159 -43 -159 -179c0 -137 60 -186 177 -186c56 0 111 17 145 45v-105c-29 -20 -85 -37 -162 -37c-175 0 -269 77 -269 288c0 183 89 269 270 269c73 0 115 -13 146 -28z" />
    <glyph glyph-name="d" unicode="d" horiz-adv-x="647" 
d="M459 0l-5 92c-30 -57 -72 -103 -175 -103c-148 0 -223 76 -223 272c0 199 77 283 229 283c96 0 142 -31 166 -69v279h106v-754h-98zM310 80c103 0 143 62 142 159v75c0 86 -38 141 -146 141c-100 0 -142 -47 -142 -189c0 -136 44 -186 146 -186z" />
    <glyph glyph-name="e" unicode="e" horiz-adv-x="599" 
d="M544 235h-381c1 -106 58 -157 170 -157c71 0 133 27 173 59v-101c-27 -20 -92 -48 -181 -48c-183 0 -269 85 -269 288c0 176 90 269 252 269c175 0 236 -101 236 -253v-57zM307 457c-92 0 -143 -46 -144 -145h276c0 98 -39 145 -132 145z" />
    <glyph glyph-name="f" unicode="f" horiz-adv-x="422" 
d="M124 0v440h-86v94h86v57c0 126 61 169 188 169c44 0 72 -5 90 -10v-100c-16 7 -39 15 -82 15c-70 0 -91 -17 -91 -89v-42h170v-94h-170v-440h-105z" />
    <glyph glyph-name="g" unicode="g" horiz-adv-x="648" 
d="M98 -151v112c30 -23 101 -57 189 -57c114 0 164 38 165 131v72c-27 -51 -84 -91 -173 -91c-148 0 -223 72 -223 252c0 200 74 276 236 276c84 0 139 -33 163 -81l5 71h97v-492c0 -166 -97 -229 -264 -229c-90 0 -158 19 -195 36zM307 106c94 0 146 45 146 151v48
c0 114 -54 149 -145 149c-92 0 -144 -44 -144 -179c0 -127 58 -169 143 -169z" />
    <glyph glyph-name="h" unicode="h" horiz-adv-x="638" 
d="M90 0v754h106v-301c25 59 84 91 175 91c128 0 184 -54 184 -187v-357h-105v339c0 82 -34 114 -122 114c-90 0 -132 -40 -132 -138v-315h-106z" />
    <glyph glyph-name="i" unicode="i" horiz-adv-x="306" 
d="M100 0v534h106v-534h-106zM89 694c0 40 22 62 64 62s64 -22 64 -62s-22 -62 -64 -62s-64 22 -64 62z" />
    <glyph glyph-name="j" unicode="j" horiz-adv-x="306" 
d="M100 -5v539h106v-532c0 -129 -46 -188 -160 -188c-40 0 -70 7 -85 13v100c20 -12 47 -18 73 -18c47 0 66 24 66 86zM89 694c0 40 22 62 64 62s64 -22 64 -62s-22 -62 -64 -62s-64 22 -64 62z" />
    <glyph glyph-name="k" unicode="k" horiz-adv-x="586" 
d="M90 754h106v-437h47l177 217h119l-209 -252l238 -282h-128l-199 232h-45v-232h-106v754z" />
    <glyph glyph-name="l" unicode="l" horiz-adv-x="356" 
d="M196 159c0 -59 18 -74 68 -74c28 0 53 7 69 12v-90c-16 -8 -53 -17 -93 -17c-92 0 -149 36 -149 139v625h105v-595z" />
    <glyph glyph-name="m" unicode="m" horiz-adv-x="927" 
d="M90 0v534h99l5 -88c22 59 80 98 161 98c87 0 135 -43 147 -100c26 63 86 100 175 100c117 0 166 -58 166 -173v-371h-105v335c0 87 -32 114 -109 114c-71 0 -110 -42 -110 -125v-324h-105v343c0 85 -39 106 -103 106c-74 0 -116 -40 -116 -119v-330h-105z" />
    <glyph glyph-name="n" unicode="n" horiz-adv-x="638" 
d="M90 0v534h100l5 -82c34 62 92 92 174 92c128 0 186 -50 186 -200v-344h-105v317c0 103 -27 136 -121 136c-89 0 -133 -51 -133 -138v-315h-106z" />
    <glyph glyph-name="o" unicode="o" horiz-adv-x="633" 
d="M56 269c0 185 105 276 269 276c160 0 252 -86 252 -279c0 -197 -106 -278 -261 -278c-171 0 -260 100 -260 281zM163 269v-4c0 -119 53 -186 159 -186c96 0 148 55 148 186v4c0 127 -51 187 -154 187c-102 0 -153 -64 -153 -187z" />
    <glyph glyph-name="p" unicode="p" horiz-adv-x="647" 
d="M89 -180v714h98l5 -90c29 66 88 100 187 100c144 0 211 -76 211 -267c0 -203 -73 -288 -225 -288c-93 0 -144 39 -170 81v-250h-106zM195 224c0 -89 49 -144 144 -144c106 0 144 53 144 193c0 134 -48 181 -144 181c-100 0 -144 -59 -144 -142v-88z" />
    <glyph glyph-name="q" unicode="q" horiz-adv-x="647" 
d="M451 -180v262c-28 -53 -81 -93 -166 -93c-147 0 -229 71 -229 266c0 206 78 289 237 289c83 0 135 -34 162 -81l6 71h96v-714h-106zM314 80c97 0 137 61 137 146v85c0 95 -49 143 -143 143c-98 0 -144 -53 -144 -193s48 -181 150 -181z" />
    <glyph glyph-name="r" unicode="r" horiz-adv-x="423" 
d="M90 0v534h96l5 -74c25 55 83 85 146 85c20 0 36 -1 50 -4v-114c-19 16 -45 25 -77 25c-81 0 -114 -50 -114 -139v-313h-106z" />
    <glyph glyph-name="s" unicode="s" horiz-adv-x="521" 
d="M435 516v-112c-41 31 -84 54 -152 54c-75 0 -103 -18 -103 -63c0 -111 281 -35 281 -234c0 -114 -64 -173 -210 -173c-76 0 -136 15 -186 40v117c42 -39 115 -68 185 -68c74 0 105 27 105 78c0 109 -281 38 -281 234c0 99 52 156 205 156c68 0 119 -14 156 -29z" />
    <glyph glyph-name="t" unicode="t" horiz-adv-x="479" 
d="M136 169v274h-110v91h110v103l105 38v-141h184v-91h-184v-264c0 -71 26 -95 85 -95c53 0 87 13 115 30v-95c-22 -14 -75 -29 -132 -29c-118 0 -173 49 -173 179z" />
    <glyph glyph-name="u" unicode="u" horiz-adv-x="634" 
d="M445 0l-5 83c-34 -63 -90 -94 -176 -94c-117 0 -179 56 -179 190v355h106v-326c0 -92 29 -127 115 -127c96 0 133 43 133 141v312h105v-534h-99z" />
    <glyph glyph-name="v" unicode="v" horiz-adv-x="563" 
d="M230 0l-203 534h118l140 -406l140 406h112l-205 -534h-102z" />
    <glyph glyph-name="w" unicode="w" horiz-adv-x="829" 
d="M162 0l-130 534h111l90 -403l132 403h105l134 -399l88 399h105l-131 -534h-119l-130 406l-137 -406h-118z" />
    <glyph glyph-name="x" unicode="x" horiz-adv-x="551" 
d="M22 0l184 274l-171 260h124l119 -186l120 186h120l-174 -255l185 -279h-125l-131 204l-131 -204h-120z" />
    <glyph glyph-name="y" unicode="y" horiz-adv-x="553" 
d="M165 -93c35 0 55 11 82 91l-221 536h121l152 -402l125 402h110l-183 -517c-66 -189 -118 -205 -180 -205c-24 0 -45 3 -59 10l1 99c15 -8 33 -14 52 -14z" />
    <glyph glyph-name="z" unicode="z" horiz-adv-x="527" 
d="M42 0v62l293 381h-276v91h420v-61l-295 -381h298v-92h-440z" />
    <glyph glyph-name="braceleft" unicode="{" horiz-adv-x="501" 
d="M163 -15v146c0 76 -54 109 -105 110v84c51 1 105 41 105 112v151c0 105 40 166 163 166h90v-86h-76c-59 0 -81 -28 -81 -87v-148c0 -79 -29 -125 -109 -150c80 -18 109 -80 109 -157v-133c0 -59 22 -87 81 -87h76v-86h-90c-123 0 -163 61 -163 165z" />
    <glyph glyph-name="bar" unicode="|" horiz-adv-x="321" 
d="M109 -180v934h103v-934h-103z" />
    <glyph glyph-name="braceright" unicode="}" horiz-adv-x="501" 
d="M338 -15c0 -104 -39 -165 -163 -165h-90v86h76c59 0 81 28 81 87v145c0 79 29 126 109 150c-80 19 -109 80 -109 157v136c0 59 -22 87 -81 87h-76v86h90c124 0 163 -61 163 -166v-148c0 -76 54 -109 105 -110v-84c-51 -1 -105 -41 -105 -112v-149z" />
    <glyph glyph-name="asciitilde" unicode="~" horiz-adv-x="610" 
d="M91 277v92c30 29 71 45 113 45c87 0 153 -83 228 -83c28 0 64 14 88 48v-97c-26 -25 -62 -42 -102 -42c-89 0 -154 83 -218 83c-45 0 -79 -18 -109 -46z" />
    <glyph glyph-name="uni00A0" unicode="&#xa0;" horiz-adv-x="289" 
 />
    <glyph glyph-name="exclamdown" unicode="&#xa1;" horiz-adv-x="386" 
d="M139 473c0 40 20 71 74 71c55 0 75 -31 75 -71c0 -41 -21 -72 -75 -72c-55 0 -74 30 -74 72zM160 299h105l4 -466h-112z" />
    <glyph glyph-name="cent" unicode="&#xa2;" horiz-adv-x="560" 
d="M280 -120v114c-139 16 -202 118 -202 273c0 153 68 250 202 265v102h66v-100c55 -2 89 -13 112 -20v-90c-27 10 -63 21 -116 21c-99 0 -156 -53 -156 -171c0 -132 59 -192 166 -192c50 0 91 12 113 23v-89c-22 -10 -60 -22 -119 -25v-111h-66z" />
    <glyph glyph-name="sterling" unicode="&#xa3;" horiz-adv-x="564" 
d="M63 0v99h85v233h-85v75h85v72c0 95 32 231 230 231c47 0 90 -7 122 -17v-97c-41 11 -70 16 -114 16c-97 0 -126 -58 -126 -136v-69h158v-75h-158v-233h245v-99h-442z" />
    <glyph glyph-name="currency" unicode="&#xa4;" horiz-adv-x="556" 
d="M94 106l-53 53l61 66c-19 29 -36 71 -36 124c0 54 17 96 36 125l-61 67l53 55l61 -67c28 21 71 38 122 38c55 0 97 -18 123 -37l63 66l53 -53l-62 -69c19 -29 36 -72 36 -125c0 -52 -17 -95 -36 -124l62 -66l-54 -54l-60 64c-29 -20 -71 -37 -125 -37
c-52 0 -96 17 -122 37zM142 349c0 -89 64 -141 136 -141c74 0 136 52 136 141c0 87 -62 142 -136 142c-72 0 -136 -55 -136 -142z" />
    <glyph glyph-name="yen" unicode="&#xa5;" horiz-adv-x="606" 
d="M112 164v67h136v54l-9 16h-127v66h94l-169 333h129l139 -295l135 295h130l-169 -333h94v-66h-128l-8 -16v-54h136v-67h-136v-164h-111v164h-136z" />
    <glyph glyph-name="brokenbar" unicode="&#xa6;" horiz-adv-x="339" 
d="M121 -180v392h97v-392h-97zM121 362v392h97v-392h-97z" />
    <glyph glyph-name="section" unicode="&#xa7;" horiz-adv-x="492" 
d="M411 686v-95c-62 25 -105 29 -138 29c-53 0 -99 -16 -99 -67c0 -37 22 -53 97 -90c8 -5 38 -19 47 -23c62 -32 129 -67 129 -147c0 -47 -27 -96 -77 -134c35 -27 60 -59 60 -110c0 -117 -105 -167 -211 -167c-45 0 -110 7 -161 29v98c61 -32 105 -39 151 -39
c83 0 108 39 108 72c0 46 -33 62 -106 97c-9 4 -42 20 -51 25c-66 31 -115 74 -115 145c0 51 29 93 78 128c-39 26 -62 63 -62 113c0 96 73 160 209 160c54 0 108 -13 141 -24zM150 326c0 -43 28 -71 95 -103c6 -2 54 -25 59 -28c17 19 38 45 38 80c0 39 -26 67 -87 96
c-5 2 -54 26 -62 30c-27 -21 -43 -47 -43 -75z" />
    <glyph glyph-name="dieresis" unicode="&#xa8;" horiz-adv-x="602" 
d="M141 694c0 39 21 60 62 60s62 -21 62 -60s-21 -60 -62 -60s-62 21 -62 60zM337 694c0 39 21 60 62 60s62 -21 62 -60s-21 -60 -62 -60s-62 21 -62 60z" />
    <glyph glyph-name="copyright" unicode="&#xa9;" horiz-adv-x="923" 
d="M73 277c0 228 159 386 388 386c231 0 389 -158 389 -386c0 -227 -158 -385 -389 -385c-229 0 -388 158 -388 385zM153 278c0 -184 128 -312 308 -312c181 0 309 128 309 312c0 185 -128 311 -309 311c-180 0 -308 -126 -308 -311zM558 468v-66c-21 9 -52 11 -72 11
c-82 0 -122 -39 -122 -128c0 -95 46 -128 123 -128c21 0 50 3 72 13v-70c-21 -8 -49 -13 -83 -13c-133 0 -189 73 -189 196c0 133 67 197 188 197c34 0 64 -5 83 -12z" />
    <glyph glyph-name="ordfeminine" unicode="&#xaa;" horiz-adv-x="376" 
d="M254 368v52h-1c-17 -30 -47 -58 -103 -58c-73 0 -113 37 -113 104c0 69 46 106 146 106c27 0 50 -2 65 -4v19c0 36 -14 57 -75 57c-34 0 -77 -10 -105 -22v67c29 11 74 21 118 21c110 0 145 -41 145 -132v-210h-77zM122 473c0 -27 17 -44 55 -44c49 0 71 32 71 68v19
c-13 1 -31 3 -52 3c-57 0 -74 -15 -74 -46z" />
    <glyph glyph-name="guillemotleft" unicode="&#xab;" horiz-adv-x="595" 
d="M192 44l-136 216l138 221h105l-134 -219l135 -218h-108zM415 44l-136 216l138 221h105l-134 -219l135 -218h-108z" />
    <glyph glyph-name="logicalnot" unicode="&#xac;" horiz-adv-x="617" 
d="M39 317v85h523v-244h-90v159h-433z" />
    <glyph glyph-name="uni00AD" unicode="&#xad;" horiz-adv-x="475" 
d="M96 245v95h283v-95h-283z" />
    <glyph glyph-name="registered" unicode="&#xae;" horiz-adv-x="600" 
d="M50 526c0 146 101 248 250 248c150 0 250 -102 250 -248s-100 -248 -250 -248c-149 0 -250 102 -250 248zM103 527c0 -118 81 -200 197 -200c117 0 197 82 197 200c0 117 -80 198 -197 198c-116 0 -197 -81 -197 -198zM202 398v269h113c36 0 86 -8 86 -84
c0 -40 -22 -68 -48 -76l68 -109h-68l-60 101h-32v-101h-59zM261 548h43c19 0 35 7 35 35c0 27 -15 32 -34 32h-44v-67z" />
    <glyph glyph-name="macron" unicode="&#xaf;" horiz-adv-x="602" 
d="M156 656v76h290v-76h-290z" />
    <glyph glyph-name="degree" unicode="&#xb0;" horiz-adv-x="410" 
d="M53 549c0 108 64 162 151 162c85 0 154 -50 154 -162c0 -114 -65 -164 -149 -164c-92 0 -156 50 -156 164zM131 548c0 -64 33 -86 77 -86c40 0 72 18 73 86c0 63 -31 86 -75 86c-45 0 -75 -24 -75 -86z" />
    <glyph glyph-name="plusminus" unicode="&#xb1;" horiz-adv-x="603" 
d="M83 77v91h438v-91h-438zM83 385v90h175v153h87v-153h176v-90h-176v-154h-87v154h-175z" />
    <glyph glyph-name="twosuperior" unicode="&#xb2;" 
d="M52 382v82l123 84c83 56 112 86 112 125c0 37 -29 60 -90 60c-45 0 -95 -7 -130 -27v81c46 16 88 23 141 23c105 0 174 -38 174 -120c0 -67 -46 -123 -159 -190l-63 -39v-1h227v-78h-335z" />
    <glyph glyph-name="threesuperior" unicode="&#xb3;" 
d="M132 566v65h78c59 0 88 13 88 52c0 34 -26 50 -95 50c-47 0 -97 -5 -131 -19v76c42 16 106 20 157 20c110 0 161 -46 161 -108c0 -58 -38 -82 -102 -100v-1c93 -14 112 -58 112 -100c0 -87 -85 -127 -188 -127c-44 0 -100 2 -146 19v78c39 -17 88 -20 136 -20
c73 0 104 18 104 54c0 46 -29 61 -88 61h-86z" />
    <glyph glyph-name="acute" unicode="&#xb4;" horiz-adv-x="602" 
d="M241 624l80 140h140l-130 -140h-90z" />
    <glyph glyph-name="mu" unicode="&#xb5;" horiz-adv-x="651" 
d="M458 0l-5 83c-35 -63 -94 -94 -182 -94c-33 0 -60 5 -83 16v-215h-103v744h110v-324c0 -91 31 -125 120 -125c98 0 136 42 136 139v310h110v-534h-103z" />
    <glyph glyph-name="mu" unicode="&#x3bc;" horiz-adv-x="651" 
d="M458 0l-5 83c-35 -63 -94 -94 -182 -94c-33 0 -60 5 -83 16v-215h-103v744h110v-324c0 -91 31 -125 120 -125c98 0 136 42 136 139v310h110v-534h-103z" />
    <glyph glyph-name="paragraph" unicode="&#xb6;" horiz-adv-x="559" 
d="M228 -210v559c-105 0 -166 70 -166 171c0 172 148 180 208 180h194v-910h-75v839h-85v-839h-76z" />
    <glyph glyph-name="periodcentered" unicode="&#xb7;" horiz-adv-x="249" 
d="M57 347c0 42 24 68 67 68s69 -27 69 -68c0 -43 -25 -68 -69 -68c-42 0 -67 26 -67 68z" />
    <glyph glyph-name="cedilla" unicode="&#xb8;" horiz-adv-x="602" 
d="M238 -97l14 97h61l-8 -47c56 -1 100 -20 100 -87c0 -57 -46 -98 -116 -98c-38 0 -61 6 -82 15l8 57c20 -9 35 -13 59 -13c27 0 49 12 49 43c0 30 -26 35 -50 35c-10 0 -26 0 -35 -2z" />
    <glyph glyph-name="onesuperior" unicode="&#xb9;" 
d="M219 382v318l-118 -56l-36 68l174 88h73v-418h-93z" />
    <glyph glyph-name="ordmasculine" unicode="&#xba;" horiz-adv-x="401" 
d="M35 537c0 113 60 173 164 173c109 0 167 -58 167 -173c0 -114 -60 -175 -167 -175c-106 0 -164 59 -164 175zM121 537c0 -79 32 -106 78 -106c52 0 81 27 81 106c0 77 -28 104 -81 104c-48 0 -78 -27 -78 -104z" />
    <glyph glyph-name="guillemotright" unicode="&#xbb;" horiz-adv-x="595" 
d="M539 260l-135 -216h-109l136 218l-135 219h105zM316 260l-135 -216h-109l136 218l-135 219h105z" />
    <glyph glyph-name="onequarter" unicode="&#xbc;" horiz-adv-x="950" 
d="M160 -4l550 708h94l-548 -708h-96zM491 87v71l242 262h105v-258h56v-75h-56v-85h-85v85h-262zM753 162v174h-1l-162 -174h163zM205 282v318l-118 -56l-36 68l174 88h73v-418h-93z" />
    <glyph glyph-name="onehalf" unicode="&#xbd;" horiz-adv-x="950" 
d="M116 -4l550 708h94l-548 -708h-96zM566 2v82l123 84c83 56 112 86 112 125c0 37 -29 60 -90 60c-45 0 -95 -7 -130 -27v81c46 16 88 23 141 23c105 0 174 -38 174 -120c0 -67 -46 -123 -159 -190l-63 -39v-1h227v-78h-335zM196 282v318l-118 -56l-36 68l174 88h73v-418
h-93z" />
    <glyph glyph-name="threequarters" unicode="&#xbe;" horiz-adv-x="950" 
d="M177 -4l550 708h94l-548 -708h-96zM505 87v71l242 262h105v-258h56v-75h-56v-85h-85v85h-262zM767 162v174h-1l-162 -174h163zM124 466v65h78c59 0 88 13 88 52c0 34 -26 50 -95 50c-47 0 -97 -5 -131 -19v76c42 16 106 20 157 20c110 0 161 -46 161 -108
c0 -58 -38 -82 -102 -100v-1c93 -14 112 -58 112 -100c0 -87 -85 -127 -188 -127c-44 0 -100 2 -146 19v78c39 -17 88 -20 136 -20c73 0 104 18 104 54c0 46 -29 61 -88 61h-86z" />
    <glyph glyph-name="questiondown" unicode="&#xbf;" horiz-adv-x="591" 
d="M419 298c0 -169 -211 -146 -211 -282c0 -58 46 -96 139 -96c70 0 119 18 162 43v-113c-39 -15 -100 -28 -175 -28c-150 0 -235 56 -235 186c0 191 221 180 221 290h99zM444 471c0 -41 -20 -72 -75 -72c-54 0 -75 31 -75 72s20 71 75 71c54 0 75 -31 75 -71z" />
    <glyph glyph-name="Agrave" unicode="&#xc0;" horiz-adv-x="687" 
d="M547 0l-64 176h-286l-63 -176h-113l261 700h121l264 -700h-120zM340 572l-108 -300h216zM159 915h144l86 -150h-94z" />
    <glyph glyph-name="Aacute" unicode="&#xc1;" horiz-adv-x="687" 
d="M547 0l-64 176h-286l-63 -176h-113l261 700h121l264 -700h-120zM340 572l-108 -300h216zM298 765l88 150h142l-138 -150h-92z" />
    <glyph glyph-name="Acircumflex" unicode="&#xc2;" horiz-adv-x="687" 
d="M547 0l-64 176h-286l-63 -176h-113l261 700h121l264 -700h-120zM340 572l-108 -300h216zM173 765l113 150h114l113 -150h-98l-72 92l-72 -92h-98z" />
    <glyph glyph-name="Atilde" unicode="&#xc3;" horiz-adv-x="687" 
d="M547 0l-64 176h-286l-63 -176h-113l261 700h121l264 -700h-120zM340 572l-108 -300h216zM245 776l-67 13c4 73 46 115 99 115c29 0 46 -11 75 -26c26 -13 40 -22 57 -22s29 12 34 48l65 -14c-5 -73 -48 -114 -95 -114c-25 0 -37 6 -76 26c-27 13 -33 23 -54 23
c-16 0 -33 -13 -38 -49z" />
    <glyph glyph-name="Adieresis" unicode="&#xc4;" horiz-adv-x="687" 
d="M547 0l-64 176h-286l-63 -176h-113l261 700h121l264 -700h-120zM340 572l-108 -300h216zM179 840c0 40 22 62 64 62s64 -22 64 -62s-22 -62 -64 -62s-64 22 -64 62zM381 840c0 40 22 62 64 62s64 -22 64 -62s-22 -62 -64 -62s-64 22 -64 62z" />
    <glyph glyph-name="Aring" unicode="&#xc5;" horiz-adv-x="687" 
d="M547 0l-64 176h-286l-63 -176h-113l261 700h121l264 -700h-120zM340 572l-108 -300h216zM246 840c0 61 45 98 98 98c54 0 98 -37 98 -98c0 -60 -44 -98 -98 -98c-53 0 -98 38 -98 98zM302 840c0 -26 16 -42 42 -42s42 16 42 42s-16 42 -42 42s-42 -16 -42 -42z" />
    <glyph glyph-name="AE" unicode="&#xc6;" horiz-adv-x="982" 
d="M475 0v176h-240l-98 -176h-116l395 700h491v-98h-320v-199h297v-96h-297v-209h328v-98h-440zM290 273h185v330z" />
    <glyph glyph-name="Ccedilla" unicode="&#xc7;" horiz-adv-x="658" 
d="M333 -104l13 96c-193 16 -282 125 -282 357c0 252 108 361 332 361c91 0 154 -20 188 -31v-120c-37 25 -104 51 -189 51c-141 0 -213 -65 -213 -252c0 -204 80 -267 221 -267c92 0 165 35 197 54v-112c-32 -17 -101 -41 -189 -43l-6 -40c59 -1 108 -20 108 -88
c0 -62 -54 -104 -127 -104c-42 0 -66 6 -88 16l9 58c21 -9 38 -13 64 -13c27 0 54 10 54 43c0 31 -30 37 -55 37c-10 0 -27 0 -37 -3z" />
    <glyph glyph-name="Egrave" unicode="&#xc8;" horiz-adv-x="616" 
d="M106 0v700h444v-98h-332v-199h301v-96h-301v-209h332v-98h-444zM142 915h144l86 -150h-94z" />
    <glyph glyph-name="Eacute" unicode="&#xc9;" horiz-adv-x="616" 
d="M106 0v700h444v-98h-332v-199h301v-96h-301v-209h332v-98h-444zM281 765l88 150h142l-138 -150h-92z" />
    <glyph glyph-name="Ecircumflex" unicode="&#xca;" horiz-adv-x="616" 
d="M106 0v700h444v-98h-332v-199h301v-96h-301v-209h332v-98h-444zM156 765l113 150h114l113 -150h-98l-72 92l-72 -92h-98z" />
    <glyph glyph-name="Edieresis" unicode="&#xcb;" horiz-adv-x="616" 
d="M106 0v700h444v-98h-332v-199h301v-96h-301v-209h332v-98h-444zM163 840c0 40 22 62 64 62s64 -22 64 -62s-22 -62 -64 -62s-64 22 -64 62zM365 840c0 40 22 62 64 62s64 -22 64 -62s-22 -62 -64 -62s-64 22 -64 62z" />
    <glyph glyph-name="Igrave" unicode="&#xcc;" horiz-adv-x="332" 
d="M110 0v700h112v-700h-112zM-19 915h144l86 -150h-94z" />
    <glyph glyph-name="Iacute" unicode="&#xcd;" horiz-adv-x="332" 
d="M110 0v700h112v-700h-112zM120 765l88 150h142l-138 -150h-92z" />
    <glyph glyph-name="Icircumflex" unicode="&#xce;" horiz-adv-x="332" 
d="M110 0v700h112v-700h-112zM-4 765l113 150h114l113 -150h-98l-72 92l-72 -92h-98z" />
    <glyph glyph-name="Idieresis" unicode="&#xcf;" horiz-adv-x="332" 
d="M110 0v700h112v-700h-112zM1 840c0 40 22 62 64 62s64 -22 64 -62s-22 -62 -64 -62s-64 22 -64 62zM203 840c0 40 22 62 64 62s64 -22 64 -62s-22 -62 -64 -62s-64 22 -64 62z" />
    <glyph glyph-name="Eth" unicode="&#xd0;" horiz-adv-x="746" 
d="M30 313v81h76v305c54 5 109 9 215 9c274 0 361 -112 361 -336c0 -271 -124 -380 -379 -380c-90 0 -150 7 -197 12v309h-76zM218 97c26 -4 53 -6 83 -6c188 0 265 71 265 270c0 182 -59 249 -248 249c-37 0 -70 -3 -100 -6v-210h188v-81h-188v-216z" />
    <glyph glyph-name="Ntilde" unicode="&#xd1;" horiz-adv-x="792" 
d="M106 0v700h117l296 -432c25 -38 44 -70 62 -102c-3 37 -5 74 -5 120v414h110v-700h-116l-281 415c-26 37 -55 88 -80 134c4 -43 7 -82 7 -131v-418h-110zM298 776l-67 13c4 73 46 115 99 115c29 0 46 -11 75 -26c26 -13 40 -22 57 -22s29 12 34 48l65 -14
c-5 -73 -48 -114 -95 -114c-25 0 -37 6 -76 26c-27 13 -33 23 -54 23c-16 0 -33 -13 -38 -49z" />
    <glyph glyph-name="Ograve" unicode="&#xd2;" horiz-adv-x="790" 
d="M64 350c0 248 110 361 339 361c223 0 322 -113 322 -361c0 -261 -122 -361 -330 -361c-197 0 -331 100 -331 361zM182 348c0 -198 87 -260 217 -260c132 0 209 63 209 260c0 202 -78 265 -214 265c-145 0 -212 -84 -212 -265zM211 915h144l86 -150h-94z" />
    <glyph glyph-name="Oacute" unicode="&#xd3;" horiz-adv-x="790" 
d="M64 350c0 248 110 361 339 361c223 0 322 -113 322 -361c0 -261 -122 -361 -330 -361c-197 0 -331 100 -331 361zM182 348c0 -198 87 -260 217 -260c132 0 209 63 209 260c0 202 -78 265 -214 265c-145 0 -212 -84 -212 -265zM349 765l88 150h142l-138 -150h-92z" />
    <glyph glyph-name="Ocircumflex" unicode="&#xd4;" horiz-adv-x="790" 
d="M64 350c0 248 110 361 339 361c223 0 322 -113 322 -361c0 -261 -122 -361 -330 -361c-197 0 -331 100 -331 361zM182 348c0 -198 87 -260 217 -260c132 0 209 63 209 260c0 202 -78 265 -214 265c-145 0 -212 -84 -212 -265zM225 765l113 150h114l113 -150h-98l-72 92
l-72 -92h-98z" />
    <glyph glyph-name="Otilde" unicode="&#xd5;" horiz-adv-x="790" 
d="M64 350c0 248 110 361 339 361c223 0 322 -113 322 -361c0 -261 -122 -361 -330 -361c-197 0 -331 100 -331 361zM182 348c0 -198 87 -260 217 -260c132 0 209 63 209 260c0 202 -78 265 -214 265c-145 0 -212 -84 -212 -265zM297 776l-67 13c4 73 46 115 99 115
c29 0 46 -11 75 -26c26 -13 40 -22 57 -22s29 12 34 48l65 -14c-5 -73 -48 -114 -95 -114c-25 0 -37 6 -76 26c-27 13 -33 23 -54 23c-16 0 -33 -13 -38 -49z" />
    <glyph glyph-name="Odieresis" unicode="&#xd6;" horiz-adv-x="790" 
d="M64 350c0 248 110 361 339 361c223 0 322 -113 322 -361c0 -261 -122 -361 -330 -361c-197 0 -331 100 -331 361zM182 348c0 -198 87 -260 217 -260c132 0 209 63 209 260c0 202 -78 265 -214 265c-145 0 -212 -84 -212 -265zM229 840c0 40 22 62 64 62s64 -22 64 -62
s-22 -62 -64 -62s-64 22 -64 62zM431 840c0 40 22 62 64 62s64 -22 64 -62s-22 -62 -64 -62s-64 22 -64 62z" />
    <glyph glyph-name="multiply" unicode="&#xd7;" horiz-adv-x="570" 
d="M88 179l137 145l-137 146l63 61l133 -142l135 142l63 -61l-137 -146l137 -145l-63 -61l-135 142l-133 -142z" />
    <glyph glyph-name="Oslash" unicode="&#xd8;" horiz-adv-x="790" 
d="M64 350c0 248 110 361 339 361c73 0 133 -12 181 -38l46 63l63 -45l-48 -65c54 -59 80 -151 80 -276c0 -261 -122 -361 -330 -361c-71 0 -134 13 -185 42l-55 -75l-63 45l57 77c-54 58 -85 146 -85 272zM182 348c0 -77 13 -134 37 -174l300 410c-34 20 -75 29 -125 29
c-145 0 -212 -84 -212 -265zM608 348c0 80 -12 138 -35 179l-300 -410c34 -21 77 -29 126 -29c132 0 209 63 209 260z" />
    <glyph glyph-name="Ugrave" unicode="&#xd9;" horiz-adv-x="752" 
d="M101 265v435h112v-419c0 -164 65 -194 173 -194c91 0 153 24 153 185v428h112v-429c0 -224 -115 -282 -273 -282c-189 0 -277 79 -277 276zM192 915h144l86 -150h-94z" />
    <glyph glyph-name="Uacute" unicode="&#xda;" horiz-adv-x="752" 
d="M101 265v435h112v-419c0 -164 65 -194 173 -194c91 0 153 24 153 185v428h112v-429c0 -224 -115 -282 -273 -282c-189 0 -277 79 -277 276zM330 765l88 150h142l-138 -150h-92z" />
    <glyph glyph-name="Ucircumflex" unicode="&#xdb;" horiz-adv-x="752" 
d="M101 265v435h112v-419c0 -164 65 -194 173 -194c91 0 153 24 153 185v428h112v-429c0 -224 -115 -282 -273 -282c-189 0 -277 79 -277 276zM206 765l113 150h114l113 -150h-98l-72 92l-72 -92h-98z" />
    <glyph glyph-name="Udieresis" unicode="&#xdc;" horiz-adv-x="752" 
d="M101 265v435h112v-419c0 -164 65 -194 173 -194c91 0 153 24 153 185v428h112v-429c0 -224 -115 -282 -273 -282c-189 0 -277 79 -277 276zM211 840c0 40 22 62 64 62s64 -22 64 -62s-22 -62 -64 -62s-64 22 -64 62zM413 840c0 40 22 62 64 62s64 -22 64 -62
s-22 -62 -64 -62s-64 22 -64 62z" />
    <glyph glyph-name="Yacute" unicode="&#xdd;" horiz-adv-x="636" 
d="M263 0v263l-246 437h125l180 -324l174 324h122l-244 -436v-264h-111zM272 765l88 150h142l-138 -150h-92z" />
    <glyph glyph-name="Thorn" unicode="&#xde;" horiz-adv-x="616" 
d="M100 -2v704h112v-100h103c158 0 238 -66 238 -216c0 -143 -80 -225 -248 -225h-93v-163h-112zM211 263h94c94 0 130 41 130 120c0 82 -36 118 -131 118h-93v-238z" />
    <glyph glyph-name="germandbls" unicode="&#xdf;" horiz-adv-x="636" 
d="M86 0v493c0 179 64 277 242 277c117 0 207 -57 207 -190c0 -86 -40 -141 -105 -165v-3c90 -12 140 -83 140 -192c0 -127 -68 -230 -212 -230c-36 0 -63 3 -89 12v91c20 -7 46 -12 75 -12c69 0 115 39 115 140c0 114 -54 139 -128 139h-46v89h38c56 0 101 30 101 123
c0 71 -40 107 -104 107c-100 0 -124 -78 -124 -175v-504h-110z" />
    <glyph glyph-name="agrave" unicode="&#xe0;" horiz-adv-x="580" 
d="M400 0l-5 77c-26 -46 -83 -88 -167 -88c-112 0 -174 60 -174 161c0 117 63 162 220 162h116v44c0 76 -36 97 -125 97c-64 0 -131 -28 -168 -58v112c44 24 121 38 183 38c153 0 216 -46 216 -187v-358h-96zM161 164c0 -51 27 -82 96 -82c92 0 133 51 133 121v41h-108
c-94 0 -121 -21 -121 -80zM350 624h-90l-130 140h140z" />
    <glyph glyph-name="aacute" unicode="&#xe1;" horiz-adv-x="580" 
d="M400 0l-5 77c-26 -46 -83 -88 -167 -88c-112 0 -174 60 -174 161c0 117 63 162 220 162h116v44c0 76 -36 97 -125 97c-64 0 -131 -28 -168 -58v112c44 24 121 38 183 38c153 0 216 -46 216 -187v-358h-96zM161 164c0 -51 27 -82 96 -82c92 0 133 51 133 121v41h-108
c-94 0 -121 -21 -121 -80zM245 624l80 140h140l-130 -140h-90z" />
    <glyph glyph-name="acircumflex" unicode="&#xe2;" horiz-adv-x="580" 
d="M400 0l-5 77c-26 -46 -83 -88 -167 -88c-112 0 -174 60 -174 161c0 117 63 162 220 162h116v44c0 76 -36 97 -125 97c-64 0 -131 -28 -168 -58v112c44 24 121 38 183 38c153 0 216 -46 216 -187v-358h-96zM161 164c0 -51 27 -82 96 -82c92 0 133 51 133 121v41h-108
c-94 0 -121 -21 -121 -80zM129 624l105 140h110l105 -140h-91l-69 83l-68 -83h-92z" />
    <glyph glyph-name="atilde" unicode="&#xe3;" horiz-adv-x="580" 
d="M400 0l-5 77c-26 -46 -83 -88 -167 -88c-112 0 -174 60 -174 161c0 117 63 162 220 162h116v44c0 76 -36 97 -125 97c-64 0 -131 -28 -168 -58v112c44 24 121 38 183 38c153 0 216 -46 216 -187v-358h-96zM161 164c0 -51 27 -82 96 -82c92 0 133 51 133 121v41h-108
c-94 0 -121 -21 -121 -80zM192 633l-63 14c3 68 40 108 91 108c24 0 47 -11 75 -24c25 -11 43 -23 59 -23s28 13 32 47l63 -14c-4 -70 -45 -108 -91 -108c-24 0 -36 6 -75 25c-26 12 -38 23 -57 23c-15 0 -29 -14 -34 -48z" />
    <glyph glyph-name="adieresis" unicode="&#xe4;" horiz-adv-x="580" 
d="M400 0l-5 77c-26 -46 -83 -88 -167 -88c-112 0 -174 60 -174 161c0 117 63 162 220 162h116v44c0 76 -36 97 -125 97c-64 0 -131 -28 -168 -58v112c44 24 121 38 183 38c153 0 216 -46 216 -187v-358h-96zM161 164c0 -51 27 -82 96 -82c92 0 133 51 133 121v41h-108
c-94 0 -121 -21 -121 -80zM129 694c0 39 21 60 62 60s62 -21 62 -60s-21 -60 -62 -60s-62 21 -62 60zM325 694c0 39 21 60 62 60s62 -21 62 -60s-21 -60 -62 -60s-62 21 -62 60z" />
    <glyph glyph-name="aring" unicode="&#xe5;" horiz-adv-x="580" 
d="M400 0l-5 77c-26 -46 -83 -88 -167 -88c-112 0 -174 60 -174 161c0 117 63 162 220 162h116v44c0 76 -36 97 -125 97c-64 0 -131 -28 -168 -58v112c44 24 121 38 183 38c153 0 216 -46 216 -187v-358h-96zM161 164c0 -51 27 -82 96 -82c92 0 133 51 133 121v41h-108
c-94 0 -121 -21 -121 -80zM193 694c0 61 42 96 96 96s96 -35 96 -96s-42 -96 -96 -96s-96 35 -96 96zM247 694c0 -26 16 -42 42 -42s42 16 42 42s-16 42 -42 42s-42 -16 -42 -42z" />
    <glyph glyph-name="ae" unicode="&#xe6;" horiz-adv-x="933" 
d="M878 236h-374c1 -104 51 -158 163 -158c71 0 133 27 173 59v-101c-27 -20 -92 -48 -181 -48c-101 0 -170 27 -212 86c-29 -42 -77 -85 -202 -85c-120 0 -191 60 -191 161c0 117 71 163 227 162h116v44c0 76 -36 97 -125 97c-63 0 -138 -28 -175 -58v112
c44 24 128 38 190 38c90 0 149 -17 182 -61c40 40 97 61 173 61c175 0 236 -101 236 -253v-56zM641 457c-92 0 -136 -44 -137 -144h269c0 99 -39 144 -132 144zM161 164c0 -51 34 -82 103 -82c93 0 133 51 133 121v33h-108c-94 0 -128 -13 -128 -72z" />
    <glyph glyph-name="ccedilla" unicode="&#xe7;" horiz-adv-x="541" 
d="M256 -97l12 88c-138 16 -212 98 -212 285c0 183 89 269 270 269c73 0 115 -13 146 -28v-111c-33 24 -85 44 -148 44c-98 0 -159 -43 -159 -179c0 -137 60 -186 177 -186c56 0 111 17 145 45v-105c-29 -20 -83 -36 -158 -37l-6 -35c56 -1 100 -20 100 -87
c0 -57 -46 -98 -116 -98c-38 0 -61 6 -82 15l8 57c20 -9 35 -13 59 -13c27 0 49 12 49 43c0 30 -26 35 -50 35c-10 0 -26 0 -35 -2z" />
    <glyph glyph-name="egrave" unicode="&#xe8;" horiz-adv-x="599" 
d="M544 235h-381c1 -106 58 -157 170 -157c71 0 133 27 173 59v-101c-27 -20 -92 -48 -181 -48c-183 0 -269 85 -269 288c0 176 90 269 252 269c175 0 236 -101 236 -253v-57zM307 457c-92 0 -143 -46 -144 -145h276c0 98 -39 145 -132 145zM370 624h-90l-130 140h140z" />
    <glyph glyph-name="eacute" unicode="&#xe9;" horiz-adv-x="599" 
d="M544 235h-381c1 -106 58 -157 170 -157c71 0 133 27 173 59v-101c-27 -20 -92 -48 -181 -48c-183 0 -269 85 -269 288c0 176 90 269 252 269c175 0 236 -101 236 -253v-57zM307 457c-92 0 -143 -46 -144 -145h276c0 98 -39 145 -132 145zM265 624l80 140h140l-130 -140
h-90z" />
    <glyph glyph-name="ecircumflex" unicode="&#xea;" horiz-adv-x="599" 
d="M544 235h-381c1 -106 58 -157 170 -157c71 0 133 27 173 59v-101c-27 -20 -92 -48 -181 -48c-183 0 -269 85 -269 288c0 176 90 269 252 269c175 0 236 -101 236 -253v-57zM307 457c-92 0 -143 -46 -144 -145h276c0 98 -39 145 -132 145zM150 624l105 140h110l105 -140
h-91l-69 83l-68 -83h-92z" />
    <glyph glyph-name="edieresis" unicode="&#xeb;" horiz-adv-x="599" 
d="M544 235h-381c1 -106 58 -157 170 -157c71 0 133 27 173 59v-101c-27 -20 -92 -48 -181 -48c-183 0 -269 85 -269 288c0 176 90 269 252 269c175 0 236 -101 236 -253v-57zM307 457c-92 0 -143 -46 -144 -145h276c0 98 -39 145 -132 145zM150 694c0 39 21 60 62 60
s62 -21 62 -60s-21 -60 -62 -60s-62 21 -62 60zM346 694c0 39 21 60 62 60s62 -21 62 -60s-21 -60 -62 -60s-62 21 -62 60z" />
    <glyph glyph-name="igrave" unicode="&#xec;" horiz-adv-x="306" 
d="M100 0v534h106v-534h-106zM198 624h-90l-130 140h140z" />
    <glyph glyph-name="iacute" unicode="&#xed;" horiz-adv-x="306" 
d="M100 0v534h106v-534h-106zM108 624l80 140h140l-130 -140h-90z" />
    <glyph glyph-name="icircumflex" unicode="&#xee;" horiz-adv-x="306" 
d="M100 0v534h106v-534h-106zM-7 624l105 140h110l105 -140h-91l-69 83l-68 -83h-92z" />
    <glyph glyph-name="idieresis" unicode="&#xef;" horiz-adv-x="306" 
d="M100 0v534h106v-534h-106zM-7 694c0 39 21 60 62 60s62 -21 62 -60s-21 -60 -62 -60s-62 21 -62 60zM189 694c0 39 21 60 62 60s62 -21 62 -60s-21 -60 -62 -60s-62 21 -62 60z" />
    <glyph glyph-name="eth" unicode="&#xf0;" horiz-adv-x="634" 
d="M198 553l-30 52l84 43c-46 24 -86 36 -122 43l43 79c59 -11 116 -33 177 -70l124 62l30 -52l-99 -51c114 -112 152 -253 152 -399c0 -189 -105 -269 -247 -269c-167 0 -242 97 -242 264c0 169 84 259 223 259c40 0 84 -6 124 -48l3 2c-17 48 -45 95 -106 143zM176 255
c0 -128 54 -173 137 -173c91 0 137 46 137 173c0 123 -40 171 -137 171c-88 0 -137 -43 -137 -171z" />
    <glyph glyph-name="ntilde" unicode="&#xf1;" horiz-adv-x="638" 
d="M90 0v534h100l5 -82c34 62 92 92 174 92c128 0 186 -50 186 -200v-344h-105v317c0 103 -27 136 -121 136c-89 0 -133 -51 -133 -138v-315h-106zM238 633l-63 14c3 68 40 108 91 108c24 0 47 -11 75 -24c25 -11 43 -23 59 -23s28 13 32 47l63 -14
c-4 -70 -45 -108 -91 -108c-24 0 -36 6 -75 25c-26 12 -38 23 -57 23c-15 0 -29 -14 -34 -48z" />
    <glyph glyph-name="ograve" unicode="&#xf2;" horiz-adv-x="633" 
d="M56 269c0 185 105 276 269 276c160 0 252 -86 252 -279c0 -197 -106 -278 -261 -278c-171 0 -260 100 -260 281zM163 269v-4c0 -119 53 -186 159 -186c96 0 148 55 148 186v4c0 127 -51 187 -154 187c-102 0 -153 -64 -153 -187zM376 624h-90l-130 140h140z" />
    <glyph glyph-name="oacute" unicode="&#xf3;" horiz-adv-x="633" 
d="M56 269c0 185 105 276 269 276c160 0 252 -86 252 -279c0 -197 -106 -278 -261 -278c-171 0 -260 100 -260 281zM163 269v-4c0 -119 53 -186 159 -186c96 0 148 55 148 186v4c0 127 -51 187 -154 187c-102 0 -153 -64 -153 -187zM271 624l80 140h140l-130 -140h-90z" />
    <glyph glyph-name="ocircumflex" unicode="&#xf4;" horiz-adv-x="633" 
d="M56 269c0 185 105 276 269 276c160 0 252 -86 252 -279c0 -197 -106 -278 -261 -278c-171 0 -260 100 -260 281zM163 269v-4c0 -119 53 -186 159 -186c96 0 148 55 148 186v4c0 127 -51 187 -154 187c-102 0 -153 -64 -153 -187zM156 624l105 140h110l105 -140h-91
l-69 83l-68 -83h-92z" />
    <glyph glyph-name="otilde" unicode="&#xf5;" horiz-adv-x="633" 
d="M56 269c0 185 105 276 269 276c160 0 252 -86 252 -279c0 -197 -106 -278 -261 -278c-171 0 -260 100 -260 281zM163 269v-4c0 -119 53 -186 159 -186c96 0 148 55 148 186v4c0 127 -51 187 -154 187c-102 0 -153 -64 -153 -187zM219 633l-63 14c3 68 40 108 91 108
c24 0 47 -11 75 -24c25 -11 43 -23 59 -23s28 13 32 47l63 -14c-4 -70 -45 -108 -91 -108c-24 0 -36 6 -75 25c-26 12 -38 23 -57 23c-15 0 -29 -14 -34 -48z" />
    <glyph glyph-name="odieresis" unicode="&#xf6;" horiz-adv-x="633" 
d="M56 269c0 185 105 276 269 276c160 0 252 -86 252 -279c0 -197 -106 -278 -261 -278c-171 0 -260 100 -260 281zM163 269v-4c0 -119 53 -186 159 -186c96 0 148 55 148 186v4c0 127 -51 187 -154 187c-102 0 -153 -64 -153 -187zM156 694c0 39 21 60 62 60s62 -21 62 -60
s-21 -60 -62 -60s-62 21 -62 60zM352 694c0 39 21 60 62 60s62 -21 62 -60s-21 -60 -62 -60s-62 21 -62 60z" />
    <glyph glyph-name="divide" unicode="&#xf7;" horiz-adv-x="575" 
d="M220 145c0 44 26 69 69 69c40 0 68 -26 68 -69c0 -46 -26 -70 -68 -70s-69 25 -69 70zM220 503c0 45 26 70 69 70c40 0 68 -26 68 -70c0 -45 -26 -69 -68 -69s-69 25 -69 69zM69 279v90h438v-90h-438z" />
    <glyph glyph-name="oslash" unicode="&#xf8;" horiz-adv-x="633" 
d="M56 269c0 185 105 276 269 276c51 0 95 -9 132 -27l37 51l56 -39l-39 -53c43 -45 66 -115 66 -211c0 -197 -106 -278 -261 -278c-54 0 -100 10 -138 29l-39 -54l-56 39l41 56c-45 48 -68 119 -68 211zM163 269v-4c0 -48 8 -88 25 -118l210 290c-22 13 -50 19 -82 19
c-102 0 -153 -64 -153 -187zM470 269c0 49 -8 89 -24 118l-209 -289c23 -13 51 -19 85 -19c96 0 148 55 148 186v4z" />
    <glyph glyph-name="ugrave" unicode="&#xf9;" horiz-adv-x="634" 
d="M445 0l-5 83c-34 -63 -90 -94 -176 -94c-117 0 -179 56 -179 190v355h106v-326c0 -92 29 -127 115 -127c96 0 133 43 133 141v312h105v-534h-99zM378 624h-90l-130 140h140z" />
    <glyph glyph-name="uacute" unicode="&#xfa;" horiz-adv-x="634" 
d="M445 0l-5 83c-34 -63 -90 -94 -176 -94c-117 0 -179 56 -179 190v355h106v-326c0 -92 29 -127 115 -127c96 0 133 43 133 141v312h105v-534h-99zM272 624l80 140h140l-130 -140h-90z" />
    <glyph glyph-name="ucircumflex" unicode="&#xfb;" horiz-adv-x="634" 
d="M445 0l-5 83c-34 -63 -90 -94 -176 -94c-117 0 -179 56 -179 190v355h106v-326c0 -92 29 -127 115 -127c96 0 133 43 133 141v312h105v-534h-99zM157 624l105 140h110l105 -140h-91l-69 83l-68 -83h-92z" />
    <glyph glyph-name="udieresis" unicode="&#xfc;" horiz-adv-x="634" 
d="M445 0l-5 83c-34 -63 -90 -94 -176 -94c-117 0 -179 56 -179 190v355h106v-326c0 -92 29 -127 115 -127c96 0 133 43 133 141v312h105v-534h-99zM154 694c0 39 21 60 62 60s62 -21 62 -60s-21 -60 -62 -60s-62 21 -62 60zM350 694c0 39 21 60 62 60s62 -21 62 -60
s-21 -60 -62 -60s-62 21 -62 60z" />
    <glyph glyph-name="yacute" unicode="&#xfd;" horiz-adv-x="553" 
d="M165 -93c35 0 55 11 82 91l-221 536h121l152 -402l125 402h110l-183 -517c-66 -189 -118 -205 -180 -205c-24 0 -45 3 -59 10l1 99c15 -8 33 -14 52 -14zM231 624l80 140h140l-130 -140h-90z" />
    <glyph glyph-name="thorn" unicode="&#xfe;" horiz-adv-x="647" 
d="M89 -180v934h106v-310c29 66 87 100 184 100c144 0 211 -76 211 -267c0 -203 -73 -288 -225 -288c-93 0 -144 39 -170 81v-250h-106zM195 224c0 -89 49 -144 144 -144c106 0 144 53 144 193c0 134 -48 181 -144 181c-100 0 -144 -59 -144 -142v-88z" />
    <glyph glyph-name="ydieresis" unicode="&#xff;" horiz-adv-x="553" 
d="M165 -93c35 0 55 11 82 91l-221 536h121l152 -402l125 402h110l-183 -517c-66 -189 -118 -205 -180 -205c-24 0 -45 3 -59 10l1 99c15 -8 33 -14 52 -14zM120 694c0 39 21 60 62 60s62 -21 62 -60s-21 -60 -62 -60s-62 21 -62 60zM316 694c0 39 21 60 62 60
s62 -21 62 -60s-21 -60 -62 -60s-62 21 -62 60z" />
    <glyph glyph-name="Amacron" unicode="&#x100;" horiz-adv-x="687" 
d="M547 0l-64 176h-286l-63 -176h-113l261 700h121l264 -700h-120zM340 572l-108 -300h216zM194 800v80h300v-80h-300z" />
    <glyph glyph-name="amacron" unicode="&#x101;" horiz-adv-x="580" 
d="M400 0l-5 77c-26 -46 -83 -88 -167 -88c-112 0 -174 60 -174 161c0 117 63 162 220 162h116v44c0 76 -36 97 -125 97c-64 0 -131 -28 -168 -58v112c44 24 121 38 183 38c153 0 216 -46 216 -187v-358h-96zM161 164c0 -51 27 -82 96 -82c92 0 133 51 133 121v41h-108
c-94 0 -121 -21 -121 -80zM144 656v76h290v-76h-290z" />
    <glyph glyph-name="Abreve" unicode="&#x102;" horiz-adv-x="687" 
d="M547 0l-64 176h-286l-63 -176h-113l261 700h121l264 -700h-120zM340 572l-108 -300h216zM184 896l66 19c15 -50 44 -76 94 -76s79 26 94 76l66 -19c-20 -84 -70 -131 -160 -131s-140 47 -160 131z" />
    <glyph glyph-name="abreve" unicode="&#x103;" horiz-adv-x="580" 
d="M400 0l-5 77c-26 -46 -83 -88 -167 -88c-112 0 -174 60 -174 161c0 117 63 162 220 162h116v44c0 76 -36 97 -125 97c-64 0 -131 -28 -168 -58v112c44 24 121 38 183 38c153 0 216 -46 216 -187v-358h-96zM161 164c0 -51 27 -82 96 -82c92 0 133 51 133 121v41h-108
c-94 0 -121 -21 -121 -80zM129 750l64 19c15 -50 46 -78 96 -78s81 28 96 78l64 -19c-20 -84 -70 -131 -160 -131s-140 47 -160 131z" />
    <glyph glyph-name="Aogonek" unicode="&#x104;" horiz-adv-x="687" 
d="M547 0l-64 176h-286l-63 -176h-113l261 700h121l264 -700h-35c-46 -34 -80 -73 -80 -130c0 -30 21 -43 56 -43c19 0 39 4 58 15v-65c-23 -11 -50 -19 -87 -19c-80 0 -114 39 -114 95c0 63 48 111 99 147h-17zM340 572l-108 -300h216z" />
    <glyph glyph-name="aogonek" unicode="&#x105;" horiz-adv-x="580" 
d="M400 0l-5 77c-26 -46 -83 -88 -167 -88c-112 0 -174 60 -174 161c0 117 63 162 220 162h116v44c0 76 -36 97 -125 97c-64 0 -131 -28 -168 -58v112c44 24 121 38 183 38c153 0 216 -46 216 -187v-358h-18c-43 -32 -73 -76 -73 -123c0 -28 19 -46 50 -46c18 0 38 5 57 16
v-60c-22 -10 -47 -19 -82 -19c-76 0 -111 41 -111 93c0 63 46 108 93 139h-12zM161 164c0 -51 27 -82 96 -82c92 0 133 51 133 121v41h-108c-94 0 -121 -21 -121 -80z" />
    <glyph glyph-name="Cacute" unicode="&#x106;" horiz-adv-x="658" 
d="M584 679v-120c-37 25 -104 51 -189 51c-141 0 -213 -65 -213 -252c0 -204 80 -267 221 -267c92 0 165 35 197 54v-112c-33 -18 -107 -43 -201 -43c-230 0 -335 107 -335 359s108 361 332 361c91 0 154 -20 188 -31zM333 765l88 150h142l-138 -150h-92z" />
    <glyph glyph-name="cacute" unicode="&#x107;" horiz-adv-x="541" 
d="M472 517v-111c-33 24 -85 44 -148 44c-98 0 -159 -43 -159 -179c0 -137 60 -186 177 -186c56 0 111 17 145 45v-105c-29 -20 -85 -37 -162 -37c-175 0 -269 77 -269 288c0 183 89 269 270 269c73 0 115 -13 146 -28zM270 624l80 140h140l-130 -140h-90z" />
    <glyph glyph-name="Ccircumflex" unicode="&#x108;" horiz-adv-x="658" 
d="M584 679v-120c-37 25 -104 51 -189 51c-141 0 -213 -65 -213 -252c0 -204 80 -267 221 -267c92 0 165 35 197 54v-112c-33 -18 -107 -43 -201 -43c-230 0 -335 107 -335 359s108 361 332 361c91 0 154 -20 188 -31zM209 765l113 150h114l113 -150h-98l-72 92l-72 -92h-98
z" />
    <glyph glyph-name="ccircumflex" unicode="&#x109;" horiz-adv-x="541" 
d="M472 517v-111c-33 24 -85 44 -148 44c-98 0 -159 -43 -159 -179c0 -137 60 -186 177 -186c56 0 111 17 145 45v-105c-29 -20 -85 -37 -162 -37c-175 0 -269 77 -269 288c0 183 89 269 270 269c73 0 115 -13 146 -28zM155 624l105 140h110l105 -140h-91l-69 83l-68 -83
h-92z" />
    <glyph glyph-name="Cdotaccent" unicode="&#x10a;" horiz-adv-x="658" 
d="M584 679v-120c-37 25 -104 51 -189 51c-141 0 -213 -65 -213 -252c0 -204 80 -267 221 -267c92 0 165 35 197 54v-112c-33 -18 -107 -43 -201 -43c-230 0 -335 107 -335 359s108 361 332 361c91 0 154 -20 188 -31zM313 840c0 41 23 64 66 64s66 -23 66 -64
s-23 -64 -66 -64s-66 23 -66 64z" />
    <glyph glyph-name="cdotaccent" unicode="&#x10b;" horiz-adv-x="541" 
d="M472 517v-111c-33 24 -85 44 -148 44c-98 0 -159 -43 -159 -179c0 -137 60 -186 177 -186c56 0 111 17 145 45v-105c-29 -20 -85 -37 -162 -37c-175 0 -269 77 -269 288c0 183 89 269 270 269c73 0 115 -13 146 -28zM251 694c0 40 22 62 64 62s64 -22 64 -62
s-22 -62 -64 -62s-64 22 -64 62z" />
    <glyph glyph-name="Ccaron" unicode="&#x10c;" horiz-adv-x="658" 
d="M584 679v-120c-37 25 -104 51 -189 51c-141 0 -213 -65 -213 -252c0 -204 80 -267 221 -267c92 0 165 35 197 54v-112c-33 -18 -107 -43 -201 -43c-230 0 -335 107 -335 359s108 361 332 361c91 0 154 -20 188 -31zM322 765l-113 150h98l72 -92l72 92h98l-113 -150h-114z
" />
    <glyph glyph-name="ccaron" unicode="&#x10d;" horiz-adv-x="541" 
d="M472 517v-111c-33 24 -85 44 -148 44c-98 0 -159 -43 -159 -179c0 -137 60 -186 177 -186c56 0 111 17 145 45v-105c-29 -20 -85 -37 -162 -37c-175 0 -269 77 -269 288c0 183 89 269 270 269c73 0 115 -13 146 -28zM260 624l-105 140h92l68 -82l69 82h91l-105 -140h-110
z" />
    <glyph glyph-name="Dcaron" unicode="&#x10e;" horiz-adv-x="746" 
d="M106 4v695c54 5 109 9 215 9c274 0 361 -112 361 -336c0 -271 -124 -380 -379 -380c-90 0 -150 7 -197 12zM218 97c26 -4 53 -6 83 -6c188 0 265 71 265 270c0 182 -59 249 -248 249c-37 0 -70 -3 -100 -6v-507zM316 765l-113 150h98l72 -92l72 92h98l-113 -150h-114z
" />
    <glyph glyph-name="dcaron" unicode="&#x10f;" horiz-adv-x="679" 
d="M459 0l-5 92c-30 -57 -72 -103 -175 -103c-148 0 -223 76 -223 272c0 199 77 283 229 283c96 0 142 -31 166 -69v279h106v-754h-98zM310 80c103 0 143 62 142 159v75c0 86 -38 141 -146 141c-100 0 -142 -47 -142 -189c0 -136 44 -186 146 -186zM617 554l46 200h104
l-76 -200h-74z" />
    <glyph glyph-name="Dcroat" unicode="&#x110;" horiz-adv-x="749" 
d="M30 313v81h76v305c54 5 109 9 215 9c274 0 361 -112 361 -336c0 -271 -124 -380 -379 -380c-90 0 -150 7 -197 12v309h-76zM218 97c26 -4 53 -6 83 -6c188 0 265 71 265 270c0 182 -59 249 -248 249c-37 0 -70 -3 -100 -6v-210h188v-81h-188v-216z" />
    <glyph glyph-name="dcroat" unicode="&#x111;" horiz-adv-x="649" 
d="M459 0l-5 92c-30 -57 -72 -103 -175 -103c-148 0 -223 76 -223 272c0 199 77 283 229 283c96 0 142 -31 166 -69v121h-226v72h226v86h106v-86h65v-72h-65v-596h-98zM310 80c103 0 143 62 142 159v75c0 86 -38 141 -146 141c-100 0 -142 -47 -142 -189
c0 -136 44 -186 146 -186z" />
    <glyph glyph-name="Emacron" unicode="&#x112;" horiz-adv-x="616" 
d="M106 0v700h444v-98h-332v-199h301v-96h-301v-209h332v-98h-444zM178 800v80h300v-80h-300z" />
    <glyph glyph-name="emacron" unicode="&#x113;" horiz-adv-x="599" 
d="M544 235h-381c1 -106 58 -157 170 -157c71 0 133 27 173 59v-101c-27 -20 -92 -48 -181 -48c-183 0 -269 85 -269 288c0 176 90 269 252 269c175 0 236 -101 236 -253v-57zM307 457c-92 0 -143 -46 -144 -145h276c0 98 -39 145 -132 145zM165 656v76h290v-76h-290z" />
    <glyph glyph-name="Edotaccent" unicode="&#x116;" horiz-adv-x="616" 
d="M106 0v700h444v-98h-332v-199h301v-96h-301v-209h332v-98h-444zM262 840c0 41 23 64 66 64s66 -23 66 -64s-23 -64 -66 -64s-66 23 -66 64z" />
    <glyph glyph-name="edotaccent" unicode="&#x117;" horiz-adv-x="599" 
d="M544 235h-381c1 -106 58 -157 170 -157c71 0 133 27 173 59v-101c-27 -20 -92 -48 -181 -48c-183 0 -269 85 -269 288c0 176 90 269 252 269c175 0 236 -101 236 -253v-57zM307 457c-92 0 -143 -46 -144 -145h276c0 98 -39 145 -132 145zM246 694c0 40 22 62 64 62
s64 -22 64 -62s-22 -62 -64 -62s-64 22 -64 62z" />
    <glyph glyph-name="Eogonek" unicode="&#x118;" horiz-adv-x="616" 
d="M106 0v700h444v-98h-332v-199h301v-96h-301v-209h332v-98h-15c-46 -34 -80 -73 -80 -130c0 -30 21 -43 56 -43c19 0 39 4 58 15v-65c-23 -11 -50 -19 -87 -19c-80 0 -114 39 -114 95c0 63 48 111 99 147h-361z" />
    <glyph glyph-name="eogonek" unicode="&#x119;" horiz-adv-x="599" 
d="M447 -153v-60c-22 -10 -47 -19 -82 -19c-76 0 -111 41 -111 93c0 55 35 97 75 127h-4c-183 0 -269 85 -269 288c0 176 90 269 252 269c175 0 236 -101 236 -253v-57h-381c1 -106 58 -157 170 -157c71 0 133 27 173 59v-101c-18 -13 -51 -30 -97 -39
c-41 -32 -69 -74 -69 -120c0 -28 19 -46 50 -46c18 0 38 5 57 16zM307 457c-92 0 -143 -46 -144 -145h276c0 98 -39 145 -132 145z" />
    <glyph glyph-name="Ecaron" unicode="&#x11a;" horiz-adv-x="616" 
d="M106 0v700h444v-98h-332v-199h301v-96h-301v-209h332v-98h-444zM271 765l-113 150h98l72 -92l72 92h98l-113 -150h-114z" />
    <glyph glyph-name="ecaron" unicode="&#x11b;" horiz-adv-x="599" 
d="M544 235h-381c1 -106 58 -157 170 -157c71 0 133 27 173 59v-101c-27 -20 -92 -48 -181 -48c-183 0 -269 85 -269 288c0 176 90 269 252 269c175 0 236 -101 236 -253v-57zM307 457c-92 0 -143 -46 -144 -145h276c0 98 -39 145 -132 145zM255 624l-105 140h92l68 -82
l69 82h91l-105 -140h-110z" />
    <glyph glyph-name="Gcircumflex" unicode="&#x11c;" horiz-adv-x="712" 
d="M398 269v94h247v-330c-35 -16 -114 -43 -221 -43c-244 0 -360 104 -360 359c0 248 120 361 361 361c83 0 139 -15 171 -31v-113c-41 24 -98 46 -172 46c-167 0 -244 -72 -244 -254c0 -204 83 -269 248 -269c47 0 86 6 116 14v166h-146zM227 765l113 150h114l113 -150h-98
l-72 92l-72 -92h-98z" />
    <glyph glyph-name="gcircumflex" unicode="&#x11d;" horiz-adv-x="648" 
d="M98 -151v112c30 -23 101 -57 189 -57c114 0 164 38 165 131v72c-27 -51 -84 -91 -173 -91c-148 0 -223 72 -223 252c0 200 74 276 236 276c84 0 139 -33 163 -81l5 71h97v-492c0 -166 -97 -229 -264 -229c-90 0 -158 19 -195 36zM307 106c94 0 146 45 146 151v48
c0 114 -54 149 -145 149c-92 0 -144 -44 -144 -179c0 -127 58 -169 143 -169zM164 624l105 140h110l105 -140h-91l-69 83l-68 -83h-92z" />
    <glyph glyph-name="Gbreve" unicode="&#x11e;" horiz-adv-x="712" 
d="M398 269v94h247v-330c-35 -16 -114 -43 -221 -43c-244 0 -360 104 -360 359c0 248 120 361 361 361c83 0 139 -15 171 -31v-113c-41 24 -98 46 -172 46c-167 0 -244 -72 -244 -254c0 -204 83 -269 248 -269c47 0 86 6 116 14v166h-146zM240 896l66 19
c15 -50 44 -76 94 -76s79 26 94 76l66 -19c-20 -84 -70 -131 -160 -131s-140 47 -160 131z" />
    <glyph glyph-name="gbreve" unicode="&#x11f;" horiz-adv-x="648" 
d="M98 -151v112c30 -23 101 -57 189 -57c114 0 164 38 165 131v72c-27 -51 -84 -91 -173 -91c-148 0 -223 72 -223 252c0 200 74 276 236 276c84 0 139 -33 163 -81l5 71h97v-492c0 -166 -97 -229 -264 -229c-90 0 -158 19 -195 36zM307 106c94 0 146 45 146 151v48
c0 114 -54 149 -145 149c-92 0 -144 -44 -144 -179c0 -127 58 -169 143 -169zM146 750l64 19c15 -50 46 -78 96 -78s81 28 96 78l64 -19c-20 -84 -70 -131 -160 -131s-140 47 -160 131z" />
    <glyph glyph-name="Gdotaccent" unicode="&#x120;" horiz-adv-x="712" 
d="M398 269v94h247v-330c-35 -16 -114 -43 -221 -43c-244 0 -360 104 -360 359c0 248 120 361 361 361c83 0 139 -15 171 -31v-113c-41 24 -98 46 -172 46c-167 0 -244 -72 -244 -254c0 -204 83 -269 248 -269c47 0 86 6 116 14v166h-146zM331 840c0 41 23 64 66 64
s66 -23 66 -64s-23 -64 -66 -64s-66 23 -66 64z" />
    <glyph glyph-name="gdotaccent" unicode="&#x121;" horiz-adv-x="648" 
d="M98 -151v112c30 -23 101 -57 189 -57c114 0 164 38 165 131v72c-27 -51 -84 -91 -173 -91c-148 0 -223 72 -223 252c0 200 74 276 236 276c84 0 139 -33 163 -81l5 71h97v-492c0 -166 -97 -229 -264 -229c-90 0 -158 19 -195 36zM307 106c94 0 146 45 146 151v48
c0 114 -54 149 -145 149c-92 0 -144 -44 -144 -179c0 -127 58 -169 143 -169zM260 694c0 40 22 62 64 62s64 -22 64 -62s-22 -62 -64 -62s-64 22 -64 62z" />
    <glyph glyph-name="Gcommaaccent" unicode="&#x122;" horiz-adv-x="712" 
d="M398 269v94h247v-330c-35 -16 -114 -43 -221 -43c-244 0 -360 104 -360 359c0 248 120 361 361 361c83 0 139 -15 171 -31v-113c-41 24 -98 46 -172 46c-167 0 -244 -72 -244 -254c0 -204 83 -269 248 -269c47 0 86 6 116 14v166h-146zM346 -202c34 2 67 13 67 45
c-6 -1 -12 -1 -18 -1c-35 0 -62 15 -62 45c0 27 26 49 72 49c42 0 74 -22 74 -74c0 -54 -39 -108 -129 -110z" />
    <glyph glyph-name="gcommaaccent" unicode="&#x123;" horiz-adv-x="648" 
d="M98 -151v112c30 -23 101 -57 189 -57c114 0 164 38 165 131v72c-27 -51 -84 -91 -173 -91c-148 0 -223 72 -223 252c0 200 74 276 236 276c84 0 139 -33 163 -81l5 71h97v-492c0 -166 -97 -229 -264 -229c-90 0 -158 19 -195 36zM307 106c94 0 146 45 146 151v48
c0 114 -54 149 -145 149c-92 0 -144 -44 -144 -179c0 -127 58 -169 143 -169zM380 778c-35 -2 -69 -10 -69 -43c7 1 13 1 19 1c37 0 64 -15 64 -45c0 -28 -27 -51 -74 -51c-43 0 -77 24 -77 76c0 56 41 107 133 109z" />
    <glyph glyph-name="Hcircumflex" unicode="&#x124;" horiz-adv-x="794" 
d="M106 0v700h112v-292h359v292h111v-700h-111v310h-359v-310h-112zM227 765l113 150h114l113 -150h-98l-72 92l-72 -92h-98z" />
    <glyph glyph-name="hcircumflex" unicode="&#x125;" horiz-adv-x="638" 
d="M90 0v754h106v-301c25 59 84 91 175 91c128 0 184 -54 184 -187v-357h-105v339c0 82 -34 114 -122 114c-90 0 -132 -40 -132 -138v-315h-106zM-18 804l105 140h110l105 -140h-91l-69 83l-68 -83h-92z" />
    <glyph glyph-name="Hbar" unicode="&#x126;" horiz-adv-x="794" 
d="M106 0v510h-71v78h71v112h112v-112h359v112h111v-112h71v-78h-71v-510h-111v310h-359v-310h-112zM218 408h359v102h-359v-102z" />
    <glyph glyph-name="hbar" unicode="&#x127;" horiz-adv-x="638" 
d="M90 0v596h-66v72h66v86h106v-86h226v-72h-226v-179c25 59 84 91 175 91c128 0 184 -54 184 -187v-321h-105v303c0 82 -34 114 -122 114c-90 0 -132 -40 -132 -138v-279h-106z" />
    <glyph glyph-name="Imacron" unicode="&#x12a;" horiz-adv-x="332" 
d="M110 0v700h112v-700h-112zM16 800v80h300v-80h-300z" />
    <glyph glyph-name="imacron" unicode="&#x12b;" horiz-adv-x="306" 
d="M100 0v534h106v-534h-106zM8 656v76h290v-76h-290z" />
    <glyph glyph-name="Iogonek" unicode="&#x12e;" horiz-adv-x="332" 
d="M110 0v700h112v-700h-19c-46 -34 -80 -73 -80 -130c0 -30 21 -43 56 -43c19 0 39 4 58 15v-65c-23 -11 -50 -19 -87 -19c-80 0 -114 39 -114 95c0 63 48 111 99 147h-25z" />
    <glyph glyph-name="iogonek" unicode="&#x12f;" horiz-adv-x="306" 
d="M100 0v534h106v-534h-23c-43 -32 -73 -76 -73 -123c0 -28 19 -46 50 -46c18 0 38 5 57 16v-60c-22 -10 -47 -19 -82 -19c-76 0 -111 41 -111 93c0 63 46 108 93 139h-17zM89 694c0 40 22 62 64 62s64 -22 64 -62s-22 -62 -64 -62s-64 22 -64 62z" />
    <glyph glyph-name="Idotaccent" unicode="&#x130;" horiz-adv-x="332" 
d="M110 0v700h112v-700h-112zM100 840c0 41 23 64 66 64s66 -23 66 -64s-23 -64 -66 -64s-66 23 -66 64z" />
    <glyph glyph-name="dotlessi" unicode="&#x131;" horiz-adv-x="306" 
d="M100 0v534h106v-534h-106z" />
    <glyph glyph-name="Jcircumflex" unicode="&#x134;" horiz-adv-x="413" 
d="M196 178v522h111v-530c0 -123 -51 -176 -185 -176c-40 0 -71 7 -104 18v107c14 -12 55 -26 95 -26c61 0 83 21 83 85zM81 765l113 150h114l113 -150h-98l-72 92l-72 -92h-98z" />
    <glyph glyph-name="jcircumflex" unicode="&#x135;" horiz-adv-x="306" 
d="M100 -5v539h106v-532c0 -129 -46 -188 -160 -188c-40 0 -70 7 -85 13v100c20 -12 47 -18 73 -18c47 0 66 24 66 86zM-7 624l105 140h110l105 -140h-91l-69 83l-68 -83h-92z" />
    <glyph glyph-name="Kcommaaccent" unicode="&#x136;" horiz-adv-x="700" 
d="M106 0v700h112v-299h54l243 299h138l-287 -336l320 -364h-139l-274 313h-55v-313h-112zM290 -202c34 2 67 13 67 45c-6 -1 -12 -1 -18 -1c-35 0 -62 15 -62 45c0 27 26 49 72 49c42 0 74 -22 74 -74c0 -54 -39 -108 -129 -110z" />
    <glyph glyph-name="kcommaaccent" unicode="&#x137;" horiz-adv-x="586" 
d="M90 754h106v-437h47l177 217h119l-209 -252l238 -282h-128l-199 232h-45v-232h-106v754zM231 -202c35 2 69 10 69 43c-7 -1 -13 -1 -19 -1c-37 0 -64 15 -64 45c0 28 27 51 74 51c43 0 77 -24 77 -76c0 -56 -41 -107 -133 -109z" />
    <glyph glyph-name="Lacute" unicode="&#x139;" horiz-adv-x="577" 
d="M106 0v700h112v-599h335v-101h-447zM102 765l88 150h142l-138 -150h-92z" />
    <glyph glyph-name="lacute" unicode="&#x13a;" horiz-adv-x="356" 
d="M196 159c0 -59 18 -74 68 -74c28 0 53 7 69 12v-90c-16 -8 -53 -17 -93 -17c-92 0 -149 36 -149 139v625h105v-595zM100 820l80 140h140l-130 -140h-90z" />
    <glyph glyph-name="Lcommaaccent" unicode="&#x13b;" horiz-adv-x="577" 
d="M106 0v700h112v-599h335v-101h-447zM268 -202c34 2 67 13 67 45c-6 -1 -12 -1 -18 -1c-35 0 -62 15 -62 45c0 27 26 49 72 49c42 0 74 -22 74 -74c0 -54 -39 -108 -129 -110z" />
    <glyph glyph-name="lcommaaccent" unicode="&#x13c;" horiz-adv-x="356" 
d="M196 159c0 -59 18 -74 68 -74c28 0 53 7 69 12v-90c-16 -8 -53 -17 -93 -17c-92 0 -149 36 -149 139v625h105v-595zM162 -202c35 2 69 10 69 43c-7 -1 -13 -1 -19 -1c-37 0 -64 15 -64 45c0 28 27 51 74 51c43 0 77 -24 77 -76c0 -56 -41 -107 -133 -109z" />
    <glyph glyph-name="Lcaron" unicode="&#x13d;" horiz-adv-x="577" 
d="M106 0v700h112v-599h335v-101h-447zM348 500l46 200h104l-76 -200h-74z" />
    <glyph glyph-name="lcaron" unicode="&#x13e;" horiz-adv-x="365" 
d="M196 159c0 -59 18 -74 68 -74c28 0 53 7 69 12v-90c-16 -8 -53 -17 -93 -17c-92 0 -149 36 -149 139v625h105v-595zM276 554l46 200h104l-76 -200h-74z" />
    <glyph glyph-name="Ldot" unicode="&#x13f;" horiz-adv-x="577" 
d="M106 0v700h112v-599h335v-101h-447zM382 350c0 42 24 68 67 68s69 -27 69 -68c0 -43 -25 -68 -69 -68c-42 0 -67 26 -67 68z" />
    <glyph glyph-name="ldot" unicode="&#x140;" horiz-adv-x="385" 
d="M196 159c0 -59 18 -74 68 -74c28 0 53 7 69 12v-90c-16 -8 -53 -17 -93 -17c-92 0 -149 36 -149 139v625h105v-595zM267 352c0 43 25 69 68 69c44 0 71 -27 71 -69c0 -43 -26 -69 -71 -69c-42 0 -68 27 -68 69z" />
    <glyph glyph-name="Lslash" unicode="&#x141;" horiz-adv-x="583" 
d="M112 0v243l-78 -50v92l78 50v365h112v-293l170 109v-91l-170 -110v-214h335v-101h-447z" />
    <glyph glyph-name="lslash" unicode="&#x142;" horiz-adv-x="367" 
d="M204 159c0 -59 18 -74 68 -74c28 0 53 7 69 12v-90c-16 -8 -53 -17 -93 -17c-93 0 -149 36 -149 139v109l-71 -45v92l71 45v424h105v-357l113 73v-91l-113 -73v-147z" />
    <glyph glyph-name="Nacute" unicode="&#x143;" horiz-adv-x="792" 
d="M106 0v700h117l296 -432c25 -38 44 -70 62 -102c-3 37 -5 74 -5 120v414h110v-700h-116l-281 415c-26 37 -55 88 -80 134c4 -43 7 -82 7 -131v-418h-110zM350 765l88 150h142l-138 -150h-92z" />
    <glyph glyph-name="nacute" unicode="&#x144;" horiz-adv-x="638" 
d="M90 0v534h100l5 -82c34 62 92 92 174 92c128 0 186 -50 186 -200v-344h-105v317c0 103 -27 136 -121 136c-89 0 -133 -51 -133 -138v-315h-106zM291 624l80 140h140l-130 -140h-90z" />
    <glyph glyph-name="Ncommaaccent" unicode="&#x145;" horiz-adv-x="792" 
d="M106 0v700h117l296 -432c25 -38 44 -70 62 -102c-3 37 -5 74 -5 120v414h110v-700h-116l-281 415c-26 37 -55 88 -80 134c4 -43 7 -82 7 -131v-418h-110zM337 -202c34 2 67 13 67 45c-6 -1 -12 -1 -18 -1c-35 0 -62 15 -62 45c0 27 26 49 72 49c42 0 74 -22 74 -74
c0 -54 -39 -108 -129 -110z" />
    <glyph glyph-name="ncommaaccent" unicode="&#x146;" horiz-adv-x="638" 
d="M90 0v534h100l5 -82c34 62 92 92 174 92c128 0 186 -50 186 -200v-344h-105v317c0 103 -27 136 -121 136c-89 0 -133 -51 -133 -138v-315h-106zM258 -202c35 2 69 10 69 43c-7 -1 -13 -1 -19 -1c-37 0 -64 15 -64 45c0 28 27 51 74 51c43 0 77 -24 77 -76
c0 -56 -41 -107 -133 -109z" />
    <glyph glyph-name="Ncaron" unicode="&#x147;" horiz-adv-x="792" 
d="M106 0v700h117l296 -432c25 -38 44 -70 62 -102c-3 37 -5 74 -5 120v414h110v-700h-116l-281 415c-26 37 -55 88 -80 134c4 -43 7 -82 7 -131v-418h-110zM339 765l-113 150h98l72 -92l72 92h98l-113 -150h-114z" />
    <glyph glyph-name="ncaron" unicode="&#x148;" horiz-adv-x="638" 
d="M90 0v534h100l5 -82c34 62 92 92 174 92c128 0 186 -50 186 -200v-344h-105v317c0 103 -27 136 -121 136c-89 0 -133 -51 -133 -138v-315h-106zM267 624l-105 140h92l68 -82l69 82h91l-105 -140h-110z" />
    <glyph glyph-name="Omacron" unicode="&#x14c;" horiz-adv-x="790" 
d="M64 350c0 248 110 361 339 361c223 0 322 -113 322 -361c0 -261 -122 -361 -330 -361c-197 0 -331 100 -331 361zM182 348c0 -198 87 -260 217 -260c132 0 209 63 209 260c0 202 -78 265 -214 265c-145 0 -212 -84 -212 -265zM244 800v80h300v-80h-300z" />
    <glyph glyph-name="omacron" unicode="&#x14d;" horiz-adv-x="633" 
d="M56 269c0 185 105 276 269 276c160 0 252 -86 252 -279c0 -197 -106 -278 -261 -278c-171 0 -260 100 -260 281zM163 269v-4c0 -119 53 -186 159 -186c96 0 148 55 148 186v4c0 127 -51 187 -154 187c-102 0 -153 -64 -153 -187zM171 656v76h290v-76h-290z" />
    <glyph glyph-name="Ohungarumlaut" unicode="&#x150;" horiz-adv-x="790" 
d="M64 350c0 248 110 361 339 361c223 0 322 -113 322 -361c0 -261 -122 -361 -330 -361c-197 0 -331 100 -331 361zM182 348c0 -198 87 -260 217 -260c132 0 209 63 209 260c0 202 -78 265 -214 265c-145 0 -212 -84 -212 -265zM244 765l50 150h122l-90 -150h-82zM432 765
l90 150h142l-139 -150h-93z" />
    <glyph glyph-name="ohungarumlaut" unicode="&#x151;" horiz-adv-x="633" 
d="M56 269c0 185 105 276 269 276c160 0 252 -86 252 -279c0 -197 -106 -278 -261 -278c-171 0 -260 100 -260 281zM163 269v-4c0 -119 53 -186 159 -186c96 0 148 55 148 186v4c0 127 -51 187 -154 187c-102 0 -153 -64 -153 -187zM176 624l50 140h120l-90 -140h-80z
M346 624l90 140h140l-140 -140h-90z" />
    <glyph glyph-name="OE" unicode="&#x152;" horiz-adv-x="982" 
d="M401 711c34 0 66 -4 94 -11h415v-98h-319v-199h297v-96h-297v-209h328v-98h-425c-30 -8 -65 -11 -101 -11c-197 0 -330 100 -330 361c0 248 109 361 338 361zM397 88c30 0 58 3 82 9v506c-25 7 -54 10 -87 10c-145 0 -212 -84 -212 -265c0 -198 88 -260 217 -260z" />
    <glyph glyph-name="oe" unicode="&#x153;" horiz-adv-x="1015" 
d="M56 269c0 185 105 276 269 276c88 0 157 -27 199 -88c42 58 109 88 200 88c174 0 235 -101 235 -253v-57h-381c1 -106 59 -157 171 -157c70 0 133 27 172 59v-101c-26 -20 -92 -48 -180 -48c-103 0 -175 28 -218 91c-46 -63 -120 -91 -207 -91c-171 0 -260 100 -260 281z
M722 457c-91 0 -143 -46 -144 -145h276c1 98 -38 145 -132 145zM163 269v-4c0 -119 53 -186 159 -186c96 0 148 55 148 186v4c0 127 -51 187 -154 187c-102 0 -153 -64 -153 -187z" />
    <glyph glyph-name="Racute" unicode="&#x154;" horiz-adv-x="674" 
d="M218 0h-112v693c56 6 138 13 202 13c188 0 264 -65 265 -213c0 -104 -31 -172 -132 -209l211 -284h-129l-198 268h-107v-268zM217 355h83c117 0 157 40 157 130c0 86 -35 122 -154 122c-33 0 -60 -2 -86 -6v-246zM291 765l88 150h142l-138 -150h-92z" />
    <glyph glyph-name="racute" unicode="&#x155;" horiz-adv-x="423" 
d="M90 0v534h96l5 -74c25 55 83 85 146 85c20 0 36 -1 50 -4v-114c-19 16 -45 25 -77 25c-81 0 -114 -50 -114 -139v-313h-106zM183 624l80 140h140l-130 -140h-90z" />
    <glyph glyph-name="Rcommaaccent" unicode="&#x156;" horiz-adv-x="674" 
d="M218 0h-112v693c56 6 138 13 202 13c188 0 264 -65 265 -213c0 -104 -31 -172 -132 -209l211 -284h-129l-198 268h-107v-268zM217 355h83c117 0 157 40 157 130c0 86 -35 122 -154 122c-33 0 -60 -2 -86 -6v-246zM278 -202c34 2 67 13 67 45c-6 -1 -12 -1 -18 -1
c-35 0 -62 15 -62 45c0 27 26 49 72 49c42 0 74 -22 74 -74c0 -54 -39 -108 -129 -110z" />
    <glyph glyph-name="rcommaaccent" unicode="&#x157;" horiz-adv-x="423" 
d="M90 0v534h96l5 -74c25 55 83 85 146 85c20 0 36 -1 50 -4v-114c-19 16 -45 25 -77 25c-81 0 -114 -50 -114 -139v-313h-106zM76 -202c35 2 69 10 69 43c-7 -1 -13 -1 -19 -1c-37 0 -64 15 -64 45c0 28 27 51 74 51c43 0 77 -24 77 -76c0 -56 -41 -107 -133 -109z" />
    <glyph glyph-name="Rcaron" unicode="&#x158;" horiz-adv-x="674" 
d="M218 0h-112v693c56 6 138 13 202 13c188 0 264 -65 265 -213c0 -104 -31 -172 -132 -209l211 -284h-129l-198 268h-107v-268zM217 355h83c117 0 157 40 157 130c0 86 -35 122 -154 122c-33 0 -60 -2 -86 -6v-246zM280 765l-113 150h98l72 -92l72 92h98l-113 -150h-114z
" />
    <glyph glyph-name="rcaron" unicode="&#x159;" horiz-adv-x="423" 
d="M90 0v534h96l5 -74c25 55 83 85 146 85c20 0 36 -1 50 -4v-114c-19 16 -45 25 -77 25c-81 0 -114 -50 -114 -139v-313h-106zM173 624l-105 140h92l68 -82l69 82h91l-105 -140h-110z" />
    <glyph glyph-name="Sacute" unicode="&#x15a;" horiz-adv-x="602" 
d="M421 188c0 167 -349 75 -349 327c0 125 68 195 251 195c76 0 142 -14 188 -36v-122c-44 36 -115 62 -187 62c-108 0 -138 -32 -138 -90c0 -161 355 -62 355 -330c0 -130 -77 -204 -259 -204c-84 0 -169 23 -216 56v132c43 -44 113 -91 212 -91c100 0 143 35 143 101z
M271 765l88 150h142l-138 -150h-92z" />
    <glyph glyph-name="sacute" unicode="&#x15b;" horiz-adv-x="521" 
d="M435 516v-112c-41 31 -84 54 -152 54c-75 0 -103 -18 -103 -63c0 -111 281 -35 281 -234c0 -114 -64 -173 -210 -173c-76 0 -136 15 -186 40v117c42 -39 115 -68 185 -68c74 0 105 27 105 78c0 109 -281 38 -281 234c0 99 52 156 205 156c68 0 119 -14 156 -29zM232 624
l80 140h140l-130 -140h-90z" />
    <glyph glyph-name="Scircumflex" unicode="&#x15c;" horiz-adv-x="602" 
d="M421 188c0 167 -349 75 -349 327c0 125 68 195 251 195c76 0 142 -14 188 -36v-122c-44 36 -115 62 -187 62c-108 0 -138 -32 -138 -90c0 -161 355 -62 355 -330c0 -130 -77 -204 -259 -204c-84 0 -169 23 -216 56v132c43 -44 113 -91 212 -91c100 0 143 35 143 101z
M147 765l113 150h114l113 -150h-98l-72 92l-72 -92h-98z" />
    <glyph glyph-name="scircumflex" unicode="&#x15d;" horiz-adv-x="521" 
d="M435 516v-112c-41 31 -84 54 -152 54c-75 0 -103 -18 -103 -63c0 -111 281 -35 281 -234c0 -114 -64 -173 -210 -173c-76 0 -136 15 -186 40v117c42 -39 115 -68 185 -68c74 0 105 27 105 78c0 109 -281 38 -281 234c0 99 52 156 205 156c68 0 119 -14 156 -29zM117 624
l105 140h110l105 -140h-91l-69 83l-68 -83h-92z" />
    <glyph glyph-name="Scedilla" unicode="&#x15e;" horiz-adv-x="602" 
d="M246 -104l12 95c-76 4 -150 25 -192 55v132c43 -44 113 -91 212 -91c100 0 143 35 143 101c0 167 -349 75 -349 327c0 125 68 195 251 195c76 0 142 -14 188 -36v-122c-44 36 -115 62 -187 62c-108 0 -138 -32 -138 -90c0 -161 355 -62 355 -330
c0 -120 -65 -192 -217 -202l-6 -42c59 -1 108 -20 108 -88c0 -62 -54 -104 -127 -104c-42 0 -66 6 -88 16l9 58c21 -9 38 -13 64 -13c27 0 54 10 54 43c0 31 -30 37 -55 37c-10 0 -27 0 -37 -3z" />
    <glyph glyph-name="scedilla" unicode="&#x15f;" horiz-adv-x="521" 
d="M196 -97l12 87c-56 4 -103 18 -143 38v117c42 -39 115 -68 185 -68c74 0 105 27 105 78c0 109 -281 38 -281 234c0 99 52 156 205 156c68 0 119 -14 156 -29v-112c-41 31 -84 54 -152 54c-75 0 -103 -18 -103 -63c0 -111 281 -35 281 -234c0 -109 -59 -168 -192 -172
l-6 -36c56 -1 100 -20 100 -87c0 -57 -46 -98 -116 -98c-38 0 -61 6 -82 15l8 57c20 -9 35 -13 59 -13c27 0 49 12 49 43c0 30 -26 35 -50 35c-10 0 -26 0 -35 -2z" />
    <glyph glyph-name="Scaron" unicode="&#x160;" horiz-adv-x="602" 
d="M421 188c0 167 -349 75 -349 327c0 125 68 195 251 195c76 0 142 -14 188 -36v-122c-44 36 -115 62 -187 62c-108 0 -138 -32 -138 -90c0 -161 355 -62 355 -330c0 -130 -77 -204 -259 -204c-84 0 -169 23 -216 56v132c43 -44 113 -91 212 -91c100 0 143 35 143 101z
M260 765l-113 150h98l72 -92l72 92h98l-113 -150h-114z" />
    <glyph glyph-name="scaron" unicode="&#x161;" horiz-adv-x="521" 
d="M435 516v-112c-41 31 -84 54 -152 54c-75 0 -103 -18 -103 -63c0 -111 281 -35 281 -234c0 -114 -64 -173 -210 -173c-76 0 -136 15 -186 40v117c42 -39 115 -68 185 -68c74 0 105 27 105 78c0 109 -281 38 -281 234c0 99 52 156 205 156c68 0 119 -14 156 -29zM222 624
l-105 140h92l68 -82l69 82h91l-105 -140h-110z" />
    <glyph glyph-name="Tcedilla" unicode="&#x162;" horiz-adv-x="594" 
d="M241 0v602h-215v98h542v-98h-215v-602h-23l-8 -50c59 -1 108 -20 108 -88c0 -62 -54 -104 -127 -104c-42 0 -66 6 -88 16l9 58c21 -9 38 -13 64 -13c27 0 54 10 54 43c0 31 -30 37 -55 37c-10 0 -27 0 -37 -3l14 104h-23z" />
    <glyph glyph-name="tcedilla" unicode="&#x163;" horiz-adv-x="479" 
d="M241 -97l13 92c-80 14 -118 66 -118 174v274h-110v91h110v103l105 38v-141h184v-91h-184v-264c0 -71 26 -95 85 -95c53 0 87 13 115 30v-95c-22 -14 -72 -28 -127 -29l-6 -37c56 -1 100 -20 100 -87c0 -57 -46 -98 -116 -98c-38 0 -61 6 -82 15l8 57c20 -9 35 -13 59 -13
c27 0 49 12 49 43c0 30 -26 35 -50 35c-10 0 -26 0 -35 -2z" />
    <glyph glyph-name="Tcaron" unicode="&#x164;" horiz-adv-x="594" 
d="M241 0v602h-215v98h542v-98h-215v-602h-112zM240 765l-113 150h98l72 -92l72 92h98l-113 -150h-114z" />
    <glyph glyph-name="tcaron" unicode="&#x165;" horiz-adv-x="497" 
d="M136 169v274h-110v91h110v103l105 38v-141h184v-91h-184v-264c0 -71 26 -95 85 -95c53 0 87 13 115 30v-95c-22 -14 -75 -29 -132 -29c-118 0 -173 49 -173 179zM321 614l46 200h104l-76 -200h-74z" />
    <glyph glyph-name="Umacron" unicode="&#x16a;" horiz-adv-x="752" 
d="M101 265v435h112v-419c0 -164 65 -194 173 -194c91 0 153 24 153 185v428h112v-429c0 -224 -115 -282 -273 -282c-189 0 -277 79 -277 276zM226 800v80h300v-80h-300z" />
    <glyph glyph-name="umacron" unicode="&#x16b;" horiz-adv-x="634" 
d="M445 0l-5 83c-34 -63 -90 -94 -176 -94c-117 0 -179 56 -179 190v355h106v-326c0 -92 29 -127 115 -127c96 0 133 43 133 141v312h105v-534h-99zM169 656v76h290v-76h-290z" />
    <glyph glyph-name="Ubreve" unicode="&#x16c;" horiz-adv-x="752" 
d="M101 265v435h112v-419c0 -164 65 -194 173 -194c91 0 153 24 153 185v428h112v-429c0 -224 -115 -282 -273 -282c-189 0 -277 79 -277 276zM216 896l66 19c15 -50 44 -76 94 -76s79 26 94 76l66 -19c-20 -84 -70 -131 -160 -131s-140 47 -160 131z" />
    <glyph glyph-name="ubreve" unicode="&#x16d;" horiz-adv-x="634" 
d="M445 0l-5 83c-34 -63 -90 -94 -176 -94c-117 0 -179 56 -179 190v355h106v-326c0 -92 29 -127 115 -127c96 0 133 43 133 141v312h105v-534h-99zM154 750l64 19c15 -50 46 -78 96 -78s81 28 96 78l64 -19c-20 -84 -70 -131 -160 -131s-140 47 -160 131z" />
    <glyph glyph-name="Uring" unicode="&#x16e;" horiz-adv-x="752" 
d="M101 265v435h112v-419c0 -164 65 -194 173 -194c91 0 153 24 153 185v428h112v-429c0 -224 -115 -282 -273 -282c-189 0 -277 79 -277 276zM278 840c0 61 45 98 98 98c54 0 98 -37 98 -98c0 -60 -44 -98 -98 -98c-53 0 -98 38 -98 98zM334 840c0 -26 16 -42 42 -42
s42 16 42 42s-16 42 -42 42s-42 -16 -42 -42z" />
    <glyph glyph-name="uring" unicode="&#x16f;" horiz-adv-x="634" 
d="M445 0l-5 83c-34 -63 -90 -94 -176 -94c-117 0 -179 56 -179 190v355h106v-326c0 -92 29 -127 115 -127c96 0 133 43 133 141v312h105v-534h-99zM218 694c0 61 42 96 96 96s96 -35 96 -96s-42 -96 -96 -96s-96 35 -96 96zM272 694c0 -26 16 -42 42 -42s42 16 42 42
s-16 42 -42 42s-42 -16 -42 -42z" />
    <glyph glyph-name="Uhungarumlaut" unicode="&#x170;" horiz-adv-x="752" 
d="M101 265v435h112v-419c0 -164 65 -194 173 -194c91 0 153 24 153 185v428h112v-429c0 -224 -115 -282 -273 -282c-189 0 -277 79 -277 276zM226 765l50 150h122l-90 -150h-82zM414 765l90 150h142l-139 -150h-93z" />
    <glyph glyph-name="uhungarumlaut" unicode="&#x171;" horiz-adv-x="634" 
d="M445 0l-5 83c-34 -63 -90 -94 -176 -94c-117 0 -179 56 -179 190v355h106v-326c0 -92 29 -127 115 -127c96 0 133 43 133 141v312h105v-534h-99zM174 624l50 140h120l-90 -140h-80zM344 624l90 140h140l-140 -140h-90z" />
    <glyph glyph-name="Uogonek" unicode="&#x172;" horiz-adv-x="752" 
d="M101 265v435h112v-419c0 -164 65 -194 173 -194c91 0 153 24 153 185v428h112v-429c0 -188 -81 -259 -200 -276c-42 -33 -72 -71 -72 -125c0 -30 21 -43 56 -43c19 0 39 4 58 15v-65c-23 -11 -50 -19 -87 -19c-80 0 -114 39 -114 95c0 57 39 102 84 136
c-188 1 -275 79 -275 276z" />
    <glyph glyph-name="uogonek" unicode="&#x173;" horiz-adv-x="634" 
d="M445 0l-5 83c-34 -63 -90 -94 -176 -94c-117 0 -179 56 -179 190v355h106v-326c0 -92 29 -127 115 -127c96 0 133 43 133 141v312h105v-534h-17c-43 -32 -73 -76 -73 -123c0 -28 19 -46 50 -46c18 0 38 5 57 16v-60c-22 -10 -47 -19 -82 -19c-76 0 -111 41 -111 93
c0 63 46 108 93 139h-16z" />
    <glyph glyph-name="Ydieresis" unicode="&#x178;" horiz-adv-x="636" 
d="M263 0v263l-246 437h125l180 -324l174 324h122l-244 -436v-264h-111zM152 840c0 40 22 62 64 62s64 -22 64 -62s-22 -62 -64 -62s-64 22 -64 62zM354 840c0 40 22 62 64 62s64 -22 64 -62s-22 -62 -64 -62s-64 22 -64 62z" />
    <glyph glyph-name="Zacute" unicode="&#x179;" horiz-adv-x="620" 
d="M42 0v63l381 539h-369v98h518v-63l-380 -539h386v-98h-536zM264 765l88 150h142l-138 -150h-92z" />
    <glyph glyph-name="zacute" unicode="&#x17a;" horiz-adv-x="527" 
d="M42 0v62l293 381h-276v91h420v-61l-295 -381h298v-92h-440zM218 624l80 140h140l-130 -140h-90z" />
    <glyph glyph-name="Zdotaccent" unicode="&#x17b;" horiz-adv-x="620" 
d="M42 0v63l381 539h-369v98h518v-63l-380 -539h386v-98h-536zM244 840c0 41 23 64 66 64s66 -23 66 -64s-23 -64 -66 -64s-66 23 -66 64z" />
    <glyph glyph-name="zdotaccent" unicode="&#x17c;" horiz-adv-x="527" 
d="M42 0v62l293 381h-276v91h420v-61l-295 -381h298v-92h-440zM199 694c0 40 22 62 64 62s64 -22 64 -62s-22 -62 -64 -62s-64 22 -64 62z" />
    <glyph glyph-name="Zcaron" unicode="&#x17d;" horiz-adv-x="620" 
d="M42 0v63l381 539h-369v98h518v-63l-380 -539h386v-98h-536zM253 765l-113 150h98l72 -92l72 92h98l-113 -150h-114z" />
    <glyph glyph-name="zcaron" unicode="&#x17e;" horiz-adv-x="527" 
d="M42 0v62l293 381h-276v91h420v-61l-295 -381h298v-92h-440zM208 624l-105 140h92l68 -82l69 82h91l-105 -140h-110z" />
    <glyph glyph-name="uni018F" unicode="&#x18f;" horiz-adv-x="704" 
d="M59 379h464c-1 88 -21 231 -218 231c-70 0 -137 -10 -189 -30v102c63 17 125 28 203 28c240 0 323 -149 323 -362c0 -175 -71 -358 -297 -358c-176 0 -286 101 -286 344v45zM174 285c1 -134 53 -196 172 -196c84 0 170 45 177 199h-349v-3z" />
    <glyph glyph-name="florin" unicode="&#x192;" horiz-adv-x="555" 
d="M-7 -211l21 94c11 -2 20 -3 30 -3c45 0 80 11 97 103l84 437h-93l18 90h92l14 73c20 104 73 175 194 175c25 0 44 -2 69 -7l-17 -89c-8 2 -25 6 -45 6c-64 0 -87 -23 -104 -113l-9 -45h128l-18 -90h-127l-82 -430c-25 -127 -70 -206 -203 -206c-20 0 -36 2 -49 5z" />
    <glyph glyph-name="uni01DD" unicode="&#x1dd;" horiz-adv-x="599" 
d="M55 299h382c-1 105 -59 156 -171 156c-70 0 -133 -27 -172 -58v100c26 20 92 48 180 48c183 0 269 -84 269 -287c0 -177 -89 -270 -252 -270c-174 0 -236 102 -236 254v57zM293 77c91 0 143 46 144 144h-276c-1 -97 38 -144 132 -144z" />
    <glyph glyph-name="Gcaron" unicode="&#x1e6;" horiz-adv-x="712" 
d="M398 269v94h247v-330c-35 -16 -114 -43 -221 -43c-244 0 -360 104 -360 359c0 248 120 361 361 361c83 0 139 -15 171 -31v-113c-41 24 -98 46 -172 46c-167 0 -244 -72 -244 -254c0 -204 83 -269 248 -269c47 0 86 6 116 14v166h-146zM340 765l-113 150h98l72 -92l72 92
h98l-113 -150h-114z" />
    <glyph glyph-name="gcaron" unicode="&#x1e7;" horiz-adv-x="648" 
d="M98 -151v112c30 -23 101 -57 189 -57c114 0 164 38 165 131v72c-27 -51 -84 -91 -173 -91c-148 0 -223 72 -223 252c0 200 74 276 236 276c84 0 139 -33 163 -81l5 71h97v-492c0 -166 -97 -229 -264 -229c-90 0 -158 19 -195 36zM307 106c94 0 146 45 146 151v48
c0 114 -54 149 -145 149c-92 0 -144 -44 -144 -179c0 -127 58 -169 143 -169zM239 624l-105 140h92l68 -82l69 82h91l-105 -140h-110z" />
    <glyph glyph-name="Scommaaccent" unicode="&#x218;" horiz-adv-x="602" 
d="M421 188c0 167 -349 75 -349 327c0 125 68 195 251 195c76 0 142 -14 188 -36v-122c-44 36 -115 62 -187 62c-108 0 -138 -32 -138 -90c0 -161 355 -62 355 -330c0 -130 -77 -204 -259 -204c-84 0 -169 23 -216 56v132c43 -44 113 -91 212 -91c100 0 143 35 143 101z
M233 -202c34 2 67 13 67 45c-6 -1 -12 -1 -18 -1c-35 0 -62 15 -62 45c0 27 26 49 72 49c42 0 74 -22 74 -74c0 -54 -39 -108 -129 -110z" />
    <glyph glyph-name="scommaaccent" unicode="&#x219;" horiz-adv-x="521" 
d="M435 516v-112c-41 31 -84 54 -152 54c-75 0 -103 -18 -103 -63c0 -111 281 -35 281 -234c0 -114 -64 -173 -210 -173c-76 0 -136 15 -186 40v117c42 -39 115 -68 185 -68c74 0 105 27 105 78c0 109 -281 38 -281 234c0 99 52 156 205 156c68 0 119 -14 156 -29zM194 -202
c35 2 69 10 69 43c-7 -1 -13 -1 -19 -1c-37 0 -64 15 -64 45c0 28 27 51 74 51c43 0 77 -24 77 -76c0 -56 -41 -107 -133 -109z" />
    <glyph glyph-name="Tcommaaccent" unicode="&#x21a;" horiz-adv-x="594" 
d="M241 0v602h-215v98h542v-98h-215v-602h-112zM237 -202c34 2 67 13 67 45c-6 -1 -12 -1 -18 -1c-35 0 -62 15 -62 45c0 27 26 49 72 49c42 0 74 -22 74 -74c0 -54 -39 -108 -129 -110z" />
    <glyph glyph-name="tcommaaccent" unicode="&#x21b;" horiz-adv-x="479" 
d="M136 169v274h-110v91h110v103l105 38v-141h184v-91h-184v-264c0 -71 26 -95 85 -95c53 0 87 13 115 30v-95c-22 -14 -75 -29 -132 -29c-118 0 -173 49 -173 179zM238 -202c35 2 69 10 69 43c-7 -1 -13 -1 -19 -1c-37 0 -64 15 -64 45c0 28 27 51 74 51
c43 0 77 -24 77 -76c0 -56 -41 -107 -133 -109z" />
    <glyph glyph-name="uni0237" unicode="&#x237;" horiz-adv-x="306" 
d="M100 -5v539h106v-532c0 -129 -46 -188 -160 -188c-40 0 -70 7 -85 13v100c20 -12 47 -18 73 -18c47 0 66 24 66 86z" />
    <glyph glyph-name="uni0259" unicode="&#x259;" horiz-adv-x="599" 
d="M55 299h382c-1 105 -59 156 -171 156c-70 0 -133 -27 -172 -58v100c26 20 92 48 180 48c183 0 269 -84 269 -287c0 -177 -89 -270 -252 -270c-174 0 -236 102 -236 254v57zM293 77c91 0 143 46 144 144h-276c-1 -97 38 -144 132 -144z" />
    <glyph glyph-name="afii57929" unicode="&#x2bc;" horiz-adv-x="210" 
d="M45 500l46 200h104l-76 -200h-74z" />
    <glyph glyph-name="circumflex" unicode="&#x2c6;" horiz-adv-x="602" 
d="M141 624l105 140h110l105 -140h-91l-69 83l-68 -83h-92z" />
    <glyph glyph-name="caron" unicode="&#x2c7;" horiz-adv-x="602" 
d="M246 624l-105 140h92l68 -82l69 82h91l-105 -140h-110z" />
    <glyph glyph-name="breve" unicode="&#x2d8;" horiz-adv-x="602" 
d="M141 750l64 19c15 -50 46 -78 96 -78s81 28 96 78l64 -19c-20 -84 -70 -131 -160 -131s-140 47 -160 131z" />
    <glyph glyph-name="dotaccent" unicode="&#x2d9;" horiz-adv-x="602" 
d="M237 694c0 40 22 62 64 62s64 -22 64 -62s-22 -62 -64 -62s-64 22 -64 62z" />
    <glyph glyph-name="ring" unicode="&#x2da;" horiz-adv-x="602" 
d="M205 694c0 61 42 96 96 96s96 -35 96 -96s-42 -96 -96 -96s-96 35 -96 96zM259 694c0 -26 16 -42 42 -42s42 16 42 42s-16 42 -42 42s-42 -16 -42 -42z" />
    <glyph glyph-name="ogonek" unicode="&#x2db;" horiz-adv-x="602" 
d="M463 -153v-60c-22 -10 -47 -19 -82 -19c-76 0 -111 41 -111 93c0 70 57 118 109 149l56 -6c-46 -33 -79 -78 -79 -127c0 -28 19 -46 50 -46c18 0 38 5 57 16z" />
    <glyph glyph-name="tilde" unicode="&#x2dc;" horiz-adv-x="602" 
d="M204 633l-63 14c3 68 40 108 91 108c24 0 47 -11 75 -24c25 -11 43 -23 59 -23s28 13 32 47l63 -14c-4 -70 -45 -108 -91 -108c-24 0 -36 6 -75 25c-26 12 -38 23 -57 23c-15 0 -29 -14 -34 -48z" />
    <glyph glyph-name="hungarumlaut" unicode="&#x2dd;" horiz-adv-x="602" 
d="M156 624l50 140h120l-90 -140h-80zM326 624l90 140h140l-140 -140h-90z" />
    <glyph glyph-name="acutecomb" unicode="&#x301;" horiz-adv-x="0" 
d="M-370 624l80 140h140l-130 -140h-90z" />
    <glyph glyph-name="uni0394" unicode="&#x394;" horiz-adv-x="652" 
d="M19 0l243 700h130l241 -700h-614zM161 102h326l-160 476h-2z" />
    <glyph glyph-name="uni0394" unicode="&#x2206;" horiz-adv-x="652" 
d="M19 0l243 700h130l241 -700h-614zM161 102h326l-160 476h-2z" />
    <glyph glyph-name="uni03A9" unicode="&#x3a9;" horiz-adv-x="806" 
d="M99 0v99h172v46c-83 23 -174 97 -174 262c0 194 112 303 306 303c196 0 307 -109 307 -303c0 -165 -91 -239 -173 -262v-46h171v-99h-265v204c128 21 149 134 149 196c0 89 -28 209 -189 209c-159 0 -188 -120 -188 -209c0 -62 21 -175 150 -196v-204h-266z" />
    <glyph glyph-name="uni03A9" unicode="&#x2126;" horiz-adv-x="806" 
d="M99 0v99h172v46c-83 23 -174 97 -174 262c0 194 112 303 306 303c196 0 307 -109 307 -303c0 -165 -91 -239 -173 -262v-46h171v-99h-265v204c128 21 149 134 149 196c0 89 -28 209 -189 209c-159 0 -188 -120 -188 -209c0 -62 21 -175 150 -196v-204h-266z" />
    <glyph glyph-name="pi" unicode="&#x3c0;" horiz-adv-x="679" 
d="M147 0v438c-32 0 -61 -15 -80 -28l-35 89c25 16 69 35 156 35h432v-94h-75v-297c0 -40 10 -56 36 -56c7 0 18 1 27 3l2 -96c-16 -3 -42 -5 -59 -5c-74 0 -112 35 -112 131v320h-187v-440h-105z" />
    <glyph glyph-name="afii10023" unicode="&#x401;" horiz-adv-x="616" 
d="M106 0v700h444v-98h-332v-199h301v-96h-301v-209h332v-98h-444zM163 840c0 40 22 62 64 62s64 -22 64 -62s-22 -62 -64 -62s-64 22 -64 62zM365 840c0 40 22 62 64 62s64 -22 64 -62s-22 -62 -64 -62s-64 22 -64 62z" />
    <glyph glyph-name="afii10051" unicode="&#x402;" horiz-adv-x="791" 
d="M241 0v602h-215v98h542v-98h-215v-183c39 19 95 34 168 34c149 0 212 -71 212 -174v-108c0 -127 -61 -178 -165 -178c-32 0 -64 6 -80 13v97c11 -10 31 -18 59 -18c40 0 73 16 73 84v72c0 87 -43 115 -124 115c-58 0 -106 -11 -143 -30v-326h-112z" />
    <glyph glyph-name="afii10052" unicode="&#x403;" horiz-adv-x="567" 
d="M106 0v700h431v-99h-319v-601h-112zM278 765l88 150h142l-138 -150h-92z" />
    <glyph glyph-name="afii10053" unicode="&#x404;" horiz-adv-x="680" 
d="M417 90c96 0 162 34 195 56v-118c-36 -15 -96 -37 -194 -37c-237 0 -354 112 -354 373c0 239 114 345 334 345c94 0 183 -18 222 -33v-121c-34 23 -103 56 -209 56c-146 0 -218 -56 -230 -210h336v-92h-336c11 -162 92 -219 236 -219z" />
    <glyph glyph-name="afii10054" unicode="&#x405;" horiz-adv-x="602" 
d="M421 188c0 167 -349 75 -349 327c0 125 68 195 251 195c76 0 142 -14 188 -36v-122c-44 36 -115 62 -187 62c-108 0 -138 -32 -138 -90c0 -161 355 -62 355 -330c0 -130 -77 -204 -259 -204c-84 0 -169 23 -216 56v132c43 -44 113 -91 212 -91c100 0 143 35 143 101z" />
    <glyph glyph-name="afii10055" unicode="&#x406;" horiz-adv-x="332" 
d="M110 0v700h112v-700h-112z" />
    <glyph glyph-name="afii10056" unicode="&#x407;" horiz-adv-x="332" 
d="M110 0v700h112v-700h-112zM0 840c0 40 22 62 64 62s64 -22 64 -62s-22 -62 -64 -62s-64 22 -64 62zM202 840c0 40 22 62 64 62s64 -22 64 -62s-22 -62 -64 -62s-64 22 -64 62z" />
    <glyph glyph-name="afii10057" unicode="&#x408;" horiz-adv-x="413" 
d="M196 178v522h111v-530c0 -123 -51 -176 -185 -176c-40 0 -71 7 -104 18v107c14 -12 55 -26 95 -26c61 0 83 21 83 85z" />
    <glyph glyph-name="afii10058" unicode="&#x409;" horiz-adv-x="1049" 
d="M25 -3v117c10 -3 18 -4 26 -4c54 0 97 41 115 441l6 149h449v-246c38 4 68 5 102 5c192 0 269 -66 269 -223c0 -162 -73 -244 -301 -244c-51 0 -133 6 -181 13v597h-235l-4 -68c-22 -482 -91 -543 -202 -543c-17 0 -29 2 -44 6zM621 96c30 -4 61 -6 89 -6
c120 0 166 36 166 139c0 107 -38 133 -177 133c-28 0 -50 -1 -78 -4v-262z" />
    <glyph glyph-name="afii10059" unicode="&#x40a;" horiz-adv-x="1116" 
d="M106 0v700h112v-292h359v292h111v-246c38 4 68 5 102 5c192 0 269 -66 269 -223c0 -162 -73 -244 -301 -244c-51 0 -133 6 -181 13v305h-359v-310h-112zM688 96c30 -4 61 -6 89 -6c120 0 166 36 166 139c0 107 -38 133 -177 133c-28 0 -50 -1 -78 -4v-262z" />
    <glyph glyph-name="afii10060" unicode="&#x40b;" horiz-adv-x="796" 
d="M241 0v602h-215v98h542v-98h-215v-187c35 21 94 38 172 38c145 0 213 -66 213 -176v-277h-111v235c0 93 -45 120 -128 120c-58 0 -110 -10 -146 -33v-322h-112z" />
    <glyph glyph-name="afii10061" unicode="&#x40c;" horiz-adv-x="700" 
d="M106 0v700h112v-299h54l243 299h138l-287 -336l320 -364h-139l-274 313h-55v-313h-112zM288 765l88 150h142l-138 -150h-92z" />
    <glyph glyph-name="afii10062" unicode="&#x40e;" horiz-adv-x="665" 
d="M160 6v110c15 -10 36 -19 61 -19c26 0 58 11 78 57l-281 546h131l210 -421l176 421h117l-244 -561c-51 -117 -99 -148 -174 -148c-28 0 -53 6 -74 15zM165 915h92c0 -55 22 -78 78 -78s80 23 80 78h90c0 -111 -72 -150 -170 -150s-170 39 -170 150z" />
    <glyph glyph-name="afii10145" unicode="&#x40f;" horiz-adv-x="761" 
d="M330 -130v130h-224v700h112v-602h326v602h112v-700h-224v-130h-102z" />
    <glyph glyph-name="afii10017" unicode="&#x410;" horiz-adv-x="687" 
d="M547 0l-64 176h-286l-63 -176h-113l261 700h121l264 -700h-120zM340 572l-108 -300h216z" />
    <glyph glyph-name="afii10018" unicode="&#x411;" horiz-adv-x="656" 
d="M106 2v698h441v-98h-329v-174c48 4 87 6 121 6c168 0 253 -49 253 -206c0 -152 -83 -236 -296 -236c-63 0 -134 3 -190 10zM217 97c27 -3 53 -5 87 -5c132 0 172 42 172 135c0 87 -34 116 -160 116c-31 0 -63 -2 -99 -6v-240z" />
    <glyph glyph-name="afii10019" unicode="&#x412;" horiz-adv-x="671" 
d="M106 3v695c60 4 153 8 214 8c198 0 258 -52 258 -178c0 -85 -38 -138 -115 -161c102 -10 147 -69 147 -162c0 -147 -73 -213 -287 -213c-78 0 -158 4 -217 11zM218 95c35 -4 79 -6 116 -6c127 0 163 34 163 118c0 82 -46 108 -150 108h-129v-220zM218 397h120
c98 0 129 38 129 104c0 89 -25 109 -142 109c-35 0 -73 0 -107 -3v-210z" />
    <glyph glyph-name="afii10020" unicode="&#x413;" horiz-adv-x="567" 
d="M106 0v700h431v-99h-319v-601h-112z" />
    <glyph glyph-name="afii10021" unicode="&#x414;" horiz-adv-x="734" 
d="M12 -130v228h73c42 94 78 264 81 469l2 133h442v-602h90v-228h-102v130h-484v-130h-102zM499 98v504h-226l-1 -60c-4 -171 -34 -336 -73 -444h300z" />
    <glyph glyph-name="afii10022" unicode="&#x415;" horiz-adv-x="616" 
d="M106 0v700h444v-98h-332v-199h301v-96h-301v-209h332v-98h-444z" />
    <glyph glyph-name="afii10024" unicode="&#x416;" horiz-adv-x="942" 
d="M171 700l182 -300h63v300h111v-300h61l187 300h120l-210 -333l241 -367h-133l-205 312h-61v-312h-111v312h-60l-207 -312h-133l242 359l-213 341h126z" />
    <glyph glyph-name="afii10025" unicode="&#x417;" horiz-adv-x="605" 
d="M168 311v88h97c102 0 132 48 132 109c0 74 -42 103 -142 103c-64 0 -123 -22 -172 -58v121c42 15 103 35 194 35c165 0 235 -54 235 -173c0 -88 -40 -141 -121 -164c100 -12 154 -66 154 -173c0 -134 -77 -208 -273 -208c-88 0 -161 19 -208 38v130
c38 -34 115 -69 212 -69c113 0 151 41 151 120c0 74 -44 101 -158 101h-101z" />
    <glyph glyph-name="afii10026" unicode="&#x418;" horiz-adv-x="792" 
d="M106 0v700h112v-415c0 -44 -4 -96 -9 -146c21 41 44 81 69 121l292 440h116v-700h-111v411c0 44 3 100 8 154c-23 -44 -46 -89 -67 -121l-293 -444h-117z" />
    <glyph glyph-name="afii10027" unicode="&#x419;" horiz-adv-x="792" 
d="M106 0v700h112v-415c0 -44 -4 -96 -9 -146c21 41 44 81 69 121l292 440h116v-700h-111v411c0 44 3 100 8 154c-23 -44 -46 -89 -67 -121l-293 -444h-117zM226 915h92c0 -55 22 -78 78 -78s80 23 80 78h90c0 -111 -72 -150 -170 -150s-170 39 -170 150z" />
    <glyph glyph-name="afii10028" unicode="&#x41a;" horiz-adv-x="700" 
d="M106 0v700h112v-299h54l243 299h138l-287 -336l320 -364h-139l-274 313h-55v-313h-112z" />
    <glyph glyph-name="afii10029" unicode="&#x41b;" horiz-adv-x="727" 
d="M25 -3v117c10 -3 18 -4 26 -4c54 0 97 41 115 441l6 149h449v-700h-111v602h-235l-4 -68c-22 -482 -91 -543 -202 -543c-17 0 -29 2 -44 6z" />
    <glyph glyph-name="afii10030" unicode="&#x41c;" horiz-adv-x="917" 
d="M106 0v700h146l213 -438l211 438h135v-700h-110v413c0 43 3 96 6 148c-25 -57 -51 -115 -67 -149l-132 -272h-94l-132 271c-18 37 -45 98 -73 155c4 -53 7 -107 7 -152v-414h-110z" />
    <glyph glyph-name="afii10031" unicode="&#x41d;" horiz-adv-x="794" 
d="M106 0v700h112v-292h359v292h111v-700h-111v310h-359v-310h-112z" />
    <glyph glyph-name="afii10032" unicode="&#x41e;" horiz-adv-x="790" 
d="M64 350c0 248 110 361 339 361c223 0 322 -113 322 -361c0 -261 -122 -361 -330 -361c-197 0 -331 100 -331 361zM182 348c0 -198 87 -260 217 -260c132 0 209 63 209 260c0 202 -78 265 -214 265c-145 0 -212 -84 -212 -265z" />
    <glyph glyph-name="afii10033" unicode="&#x41f;" horiz-adv-x="779" 
d="M106 0v700h567v-700h-111v601h-344v-601h-112z" />
    <glyph glyph-name="afii10034" unicode="&#x420;" horiz-adv-x="652" 
d="M106 0v695c56 5 119 11 197 11c216 0 296 -72 296 -233c0 -178 -87 -259 -297 -259c-26 0 -56 1 -84 4v-218h-112zM218 313c28 -3 54 -4 84 -4c134 0 181 42 181 155c0 107 -44 146 -178 146c-30 0 -59 -1 -87 -4v-293z" />
    <glyph glyph-name="afii10035" unicode="&#x421;" horiz-adv-x="658" 
d="M584 679v-120c-37 25 -104 51 -189 51c-141 0 -213 -65 -213 -252c0 -204 80 -267 221 -267c92 0 165 35 197 54v-112c-33 -18 -107 -43 -201 -43c-230 0 -335 107 -335 359s108 361 332 361c91 0 154 -20 188 -31z" />
    <glyph glyph-name="afii10036" unicode="&#x422;" horiz-adv-x="594" 
d="M241 0v602h-215v98h542v-98h-215v-602h-112z" />
    <glyph glyph-name="afii10037" unicode="&#x423;" horiz-adv-x="665" 
d="M160 6v110c15 -10 36 -19 61 -19c26 0 58 11 78 57l-281 546h131l210 -421l176 421h117l-244 -561c-51 -117 -99 -148 -174 -148c-28 0 -53 6 -74 15z" />
    <glyph glyph-name="afii10038" unicode="&#x424;" horiz-adv-x="928" 
d="M408 -20v85h-25c-223 0 -324 92 -324 290c0 208 109 293 330 293h19v72h112v-72h22c224 0 327 -80 327 -293c0 -205 -120 -291 -330 -291h-19v-84h-112zM410 155v403h-19c-162 0 -214 -58 -214 -196c0 -157 72 -207 213 -207h20zM518 155h20c158 0 213 64 213 203
c0 156 -60 200 -215 200h-18v-403z" />
    <glyph glyph-name="afii10039" unicode="&#x425;" horiz-adv-x="672" 
d="M28 0l225 357l-211 343h130l163 -267l172 267h127l-225 -337l235 -363h-132l-182 284l-175 -284h-127z" />
    <glyph glyph-name="afii10040" unicode="&#x426;" horiz-adv-x="779" 
d="M106 0v700h112v-602h326v602h112v-602h89v-228h-102v130h-537z" />
    <glyph glyph-name="afii10041" unicode="&#x427;" horiz-adv-x="690" 
d="M473 0v278c-35 -21 -94 -39 -175 -39c-145 0 -222 61 -222 176v285h112v-243c0 -92 52 -121 134 -121c61 0 114 11 151 35v329h111v-700h-111z" />
    <glyph glyph-name="afii10042" unicode="&#x428;" horiz-adv-x="994" 
d="M106 0v700h112v-602h224v602h111v-602h224v602h112v-700h-783z" />
    <glyph glyph-name="afii10043" unicode="&#x429;" horiz-adv-x="1012" 
d="M106 0v700h112v-602h224v602h111v-602h224v602h112v-602h89v-228h-102v130h-770z" />
    <glyph glyph-name="afii10044" unicode="&#x42a;" horiz-adv-x="720" 
d="M181 5v597h-155v98h266v-246c38 4 68 5 103 5c191 0 268 -66 268 -223c0 -162 -72 -244 -300 -244c-52 0 -134 6 -182 13zM292 96c30 -4 61 -6 89 -6c120 0 166 36 166 139c0 107 -38 133 -177 133c-27 0 -50 -1 -78 -4v-262z" />
    <glyph glyph-name="afii10045" unicode="&#x42b;" horiz-adv-x="889" 
d="M106 5v695h112v-246c38 4 67 5 102 5c186 0 258 -69 258 -223c0 -158 -67 -244 -290 -244c-60 0 -133 6 -182 13zM218 96c29 -4 60 -6 88 -6c117 0 156 37 156 139c0 103 -34 133 -166 133c-28 0 -51 -1 -78 -4v-262zM672 0v700h112v-700h-112z" />
    <glyph glyph-name="afii10046" unicode="&#x42c;" horiz-adv-x="645" 
d="M106 5v695h112v-246c38 4 67 5 102 5c192 0 268 -66 268 -223c0 -162 -72 -244 -300 -244c-52 0 -133 6 -182 13zM218 96c29 -4 60 -6 88 -6c120 0 166 36 166 139c0 107 -38 133 -176 133c-28 0 -51 -1 -78 -4v-262z" />
    <glyph glyph-name="afii10047" unicode="&#x42d;" horiz-adv-x="680" 
d="M263 90c144 0 225 57 236 219h-336v92h336c-12 154 -84 210 -230 210c-106 0 -175 -33 -209 -56v121c39 15 128 33 222 33c220 0 334 -106 334 -345c0 -261 -117 -373 -354 -373c-98 0 -158 22 -194 37v118c33 -22 99 -56 195 -56z" />
    <glyph glyph-name="afii10048" unicode="&#x42e;" horiz-adv-x="1059" 
d="M679 711c196 0 316 -88 316 -361c0 -285 -140 -361 -324 -361c-204 0 -302 101 -313 317h-140v-306h-112v700h112v-295h141c15 206 121 306 320 306zM469 348c0 -188 67 -260 206 -260c151 0 203 83 203 260c0 199 -68 265 -207 265c-123 0 -202 -60 -202 -265z" />
    <glyph glyph-name="afii10049" unicode="&#x42f;" horiz-adv-x="680" 
d="M40 0l188 270c-95 28 -140 93 -140 208c0 157 83 230 299 230c71 0 132 -5 187 -9v-699h-111v254h-124l-170 -254h-129zM464 349v257c-30 3 -57 3 -90 3c-142 0 -171 -47 -171 -133s34 -127 161 -127h100z" />
    <glyph glyph-name="afii10065" unicode="&#x430;" horiz-adv-x="580" 
d="M400 0l-5 77c-26 -46 -83 -88 -167 -88c-112 0 -174 60 -174 161c0 117 63 162 220 162h116v44c0 76 -36 97 -125 97c-64 0 -131 -28 -168 -58v112c44 24 121 38 183 38c153 0 216 -46 216 -187v-358h-96zM161 164c0 -51 27 -82 96 -82c92 0 133 51 133 121v41h-108
c-94 0 -121 -21 -121 -80z" />
    <glyph glyph-name="afii10066" unicode="&#x431;" horiz-adv-x="643" 
d="M539 776v-112c-23 -12 -73 -19 -180 -26c-145 -10 -193 -57 -205 -212l3 -5c48 67 121 101 208 101c144 0 222 -62 222 -250c0 -201 -94 -283 -259 -283c-176 0 -267 93 -267 337c0 290 83 393 265 416c66 8 171 14 213 34zM330 83c100 0 147 55 147 181
c0 128 -50 166 -145 166c-98 0 -160 -54 -160 -150c0 -141 55 -197 158 -197z" />
    <glyph glyph-name="afii10067" unicode="&#x432;" horiz-adv-x="591" 
d="M90 -1v536c48 2 119 6 198 6c177 0 222 -49 222 -129c0 -70 -33 -108 -100 -127c84 -7 125 -38 125 -125c0 -104 -58 -168 -243 -168c-72 0 -153 4 -202 7zM196 83c33 -3 65 -5 100 -5c100 0 132 22 132 85c0 55 -34 73 -116 73h-116v-153zM196 312h111c61 0 98 22 98 74
c0 54 -29 70 -114 70c-46 0 -74 -1 -95 -2v-142z" />
    <glyph glyph-name="afii10068" unicode="&#x433;" horiz-adv-x="475" 
d="M90 0v534h354v-96h-248v-438h-106z" />
    <glyph glyph-name="afii10069" unicode="&#x434;" horiz-adv-x="627" 
d="M21 -130v225h61c35 74 54 206 55 382v57h379v-439h80v-225h-98v130h-378v-130h-99zM410 95v345h-175l-1 -36c-3 -116 -16 -231 -48 -309h224z" />
    <glyph glyph-name="afii10070" unicode="&#x435;" horiz-adv-x="599" 
d="M544 235h-381c1 -106 58 -157 170 -157c71 0 133 27 173 59v-101c-27 -20 -92 -48 -181 -48c-183 0 -269 85 -269 288c0 176 90 269 252 269c175 0 236 -101 236 -253v-57zM307 457c-92 0 -143 -46 -144 -145h276c0 98 -39 145 -132 145z" />
    <glyph glyph-name="afii10072" unicode="&#x436;" horiz-adv-x="822" 
d="M148 0h-121l171 275l-155 259h118l124 -220h73v220h105v-220h73l129 220h114l-155 -256l171 -278h-122l-136 233h-74v-233h-105v233h-70z" />
    <glyph glyph-name="afii10073" unicode="&#x437;" horiz-adv-x="529" 
d="M59 22v115c39 -29 107 -58 189 -58c79 0 118 23 118 84c0 52 -31 69 -130 69h-78v75h84c70 0 100 26 100 78c0 49 -23 71 -107 71c-73 0 -121 -22 -167 -55v111c44 18 97 33 190 33c148 0 191 -52 191 -132c0 -73 -23 -116 -88 -134c70 -6 112 -46 112 -117
c0 -117 -65 -174 -239 -174c-56 0 -132 13 -175 34z" />
    <glyph glyph-name="afii10074" unicode="&#x438;" horiz-adv-x="646" 
d="M90 0v534h106v-253c0 -56 -3 -113 -6 -139l4 -2c23 40 48 75 74 112l192 282h96v-534h-105v218c0 68 3 142 5 177l-2 1c-17 -30 -44 -74 -71 -112l-196 -284h-97z" />
    <glyph glyph-name="afii10075" unicode="&#x439;" horiz-adv-x="646" 
d="M90 0v534h106v-253c0 -56 -3 -113 -6 -139l4 -2c23 40 48 75 74 112l192 282h96v-534h-105v218c0 68 3 142 5 177l-2 1c-17 -30 -44 -74 -71 -112l-196 -284h-97zM163 769h90c0 -49 20 -80 70 -80s72 31 72 80h88c0 -103 -70 -150 -160 -150s-160 47 -160 150z" />
    <glyph glyph-name="afii10076" unicode="&#x43a;" horiz-adv-x="599" 
d="M453 0l-176 231h-81v-231h-106v534h106v-220h81l161 220h121l-193 -254l215 -280h-128z" />
    <glyph glyph-name="afii10077" unicode="&#x43b;" horiz-adv-x="622" 
d="M29 -6v117c9 -3 16 -4 26 -4c44 0 85 20 94 354l2 73h380v-534h-105v437h-180l-1 -31c-11 -352 -77 -418 -170 -418c-18 0 -31 1 -46 6z" />
    <glyph glyph-name="afii10078" unicode="&#x43c;" horiz-adv-x="756" 
d="M90 0v534h138l155 -302l149 302h134v-534h-103v285c0 52 5 103 10 157c-27 -58 -49 -113 -69 -149l-91 -172h-69l-87 171c-20 38 -46 92 -73 148c4 -53 9 -105 9 -159v-281h-103z" />
    <glyph glyph-name="afii10079" unicode="&#x43d;" horiz-adv-x="639" 
d="M90 0v534h106v-217h248v217h105v-534h-105v222h-248v-222h-106z" />
    <glyph glyph-name="afii10080" unicode="&#x43e;" horiz-adv-x="633" 
d="M56 269c0 185 105 276 269 276c160 0 252 -86 252 -279c0 -197 -106 -278 -261 -278c-171 0 -260 100 -260 281zM163 269v-4c0 -119 53 -186 159 -186c96 0 148 55 148 186v4c0 127 -51 187 -154 187c-102 0 -153 -64 -153 -187z" />
    <glyph glyph-name="afii10081" unicode="&#x43f;" horiz-adv-x="631" 
d="M90 0v534h450v-534h-105v438h-239v-438h-106z" />
    <glyph glyph-name="afii10082" unicode="&#x440;" horiz-adv-x="647" 
d="M89 -180v714h98l5 -90c29 66 88 100 187 100c144 0 211 -76 211 -267c0 -203 -73 -288 -225 -288c-93 0 -144 39 -170 81v-250h-106zM195 224c0 -89 49 -144 144 -144c106 0 144 53 144 193c0 134 -48 181 -144 181c-100 0 -144 -59 -144 -142v-88z" />
    <glyph glyph-name="afii10083" unicode="&#x441;" horiz-adv-x="541" 
d="M472 517v-111c-33 24 -85 44 -148 44c-98 0 -159 -43 -159 -179c0 -137 60 -186 177 -186c56 0 111 17 145 45v-105c-29 -20 -85 -37 -162 -37c-175 0 -269 77 -269 288c0 183 89 269 270 269c73 0 115 -13 146 -28z" />
    <glyph glyph-name="afii10084" unicode="&#x442;" horiz-adv-x="491" 
d="M194 0v438h-173v96h450v-96h-172v-438h-105z" />
    <glyph glyph-name="afii10085" unicode="&#x443;" horiz-adv-x="553" 
d="M165 -93c35 0 55 11 82 91l-221 536h121l152 -402l125 402h110l-183 -517c-66 -189 -118 -205 -180 -205c-24 0 -45 3 -59 10l1 99c15 -8 33 -14 52 -14z" />
    <glyph glyph-name="afii10086" unicode="&#x444;" horiz-adv-x="781" 
d="M443 -180h-105v177c-19 -6 -35 -7 -58 -7c-150 0 -224 73 -224 277c0 183 68 275 238 275c18 0 31 -1 44 -4v216h105v-218c19 5 34 7 57 7c152 0 225 -70 225 -275c0 -198 -79 -278 -236 -278c-14 0 -29 2 -46 5v-175zM296 81c26 0 32 0 42 2v366c-11 2 -18 4 -31 4
c-99 0 -143 -48 -143 -179c0 -137 35 -193 132 -193zM443 84c12 -2 17 -3 30 -3c101 0 144 46 144 180c0 152 -40 192 -140 192c-18 0 -24 -1 -34 -4v-365z" />
    <glyph glyph-name="afii10087" unicode="&#x445;" horiz-adv-x="551" 
d="M22 0l184 274l-171 260h124l119 -186l120 186h120l-174 -255l185 -279h-125l-131 204l-131 -204h-120z" />
    <glyph glyph-name="afii10088" unicode="&#x446;" horiz-adv-x="646" 
d="M90 0v534h106v-439h235v439h105v-439h78v-225h-98v130h-426z" />
    <glyph glyph-name="afii10089" unicode="&#x447;" horiz-adv-x="589" 
d="M61 347v187h105v-167c0 -68 37 -102 114 -102c43 0 83 8 114 21v248h105v-534h-105v200c-35 -17 -87 -27 -131 -27c-126 0 -202 51 -202 174z" />
    <glyph glyph-name="afii10090" unicode="&#x448;" horiz-adv-x="854" 
d="M90 0v534h106v-439h178v439h105v-439h178v439h106v-534h-673z" />
    <glyph glyph-name="afii10091" unicode="&#x449;" horiz-adv-x="874" 
d="M90 0v534h106v-439h178v439h105v-439h178v439h106v-439h79v-225h-98v130h-654z" />
    <glyph glyph-name="afii10092" unicode="&#x44a;" horiz-adv-x="630" 
d="M154 0v438h-133v96h238v-170c31 3 59 4 97 4c162 0 230 -47 230 -179c0 -131 -65 -196 -257 -196c-68 0 -131 3 -175 7zM258 85c25 -3 43 -3 86 -3c103 0 134 28 134 104c0 72 -28 100 -156 100c-19 0 -39 -2 -64 -5v-196z" />
    <glyph glyph-name="afii10093" unicode="&#x44b;" horiz-adv-x="767" 
d="M196 364c27 3 47 4 74 4c173 0 231 -57 231 -179c0 -113 -61 -196 -256 -196c-54 0 -103 2 -155 7v534h106v-170zM195 84c22 -1 34 -2 62 -2c108 0 137 41 137 104c0 59 -22 100 -143 100c-20 0 -35 -2 -56 -5v-197zM571 0v534h106v-534h-106z" />
    <glyph glyph-name="afii10094" unicode="&#x44c;" horiz-adv-x="567" 
d="M90 0v534h106v-170c31 3 58 4 97 4c162 0 229 -47 229 -179c0 -131 -64 -196 -257 -196c-68 0 -130 3 -175 7zM195 85c24 -3 43 -3 85 -3c104 0 135 28 135 104c0 72 -28 100 -156 100c-20 0 -39 -2 -64 -5v-196z" />
    <glyph glyph-name="afii10095" unicode="&#x44d;" horiz-adv-x="570" 
d="M240 79c108 0 161 40 169 153h-250v76h250c-10 107 -65 148 -175 148c-75 0 -122 -23 -168 -54v111c37 18 100 32 170 32c186 0 278 -79 278 -268c0 -194 -82 -289 -271 -289c-90 0 -145 20 -180 36v112c34 -24 103 -57 177 -57z" />
    <glyph glyph-name="afii10096" unicode="&#x44e;" horiz-adv-x="855" 
d="M548 545c165 0 250 -76 250 -278c0 -203 -90 -279 -256 -279s-241 85 -250 239h-96v-227h-106v534h106v-215h97c14 151 91 226 255 226zM393 267c0 -133 50 -187 150 -187c92 0 146 41 146 185c0 149 -43 190 -150 190c-105 0 -146 -47 -146 -188z" />
    <glyph glyph-name="afii10097" unicode="&#x44f;" horiz-adv-x="599" 
d="M39 0l141 199c-80 17 -106 78 -106 160c0 119 60 180 255 180c61 0 132 -2 179 -7v-532h-105v182h-119l-126 -182h-119zM404 261v186c-23 3 -45 4 -85 4c-111 0 -137 -25 -137 -94c0 -73 33 -96 117 -96h105z" />
    <glyph glyph-name="afii10071" unicode="&#x451;" horiz-adv-x="599" 
d="M544 235h-381c1 -106 58 -157 170 -157c71 0 133 27 173 59v-101c-27 -20 -92 -48 -181 -48c-183 0 -269 85 -269 288c0 176 90 269 252 269c175 0 236 -101 236 -253v-57zM307 457c-92 0 -143 -46 -144 -145h276c0 98 -39 145 -132 145zM150 694c0 39 21 60 62 60
s62 -21 62 -60s-21 -60 -62 -60s-62 21 -62 60zM346 694c0 39 21 60 62 60s62 -21 62 -60s-21 -60 -62 -60s-62 21 -62 60z" />
    <glyph glyph-name="afii10099" unicode="&#x452;" horiz-adv-x="599" 
d="M422 596h-226v-179c25 59 84 91 175 91c128 0 184 -54 184 -187v-62c0 -182 -46 -351 -174 -434l-69 52c107 75 138 178 138 365v61c0 82 -34 114 -122 114c-90 0 -132 -40 -132 -138v-279h-106v596h-66v72h66v86h106v-86h226v-72z" />
    <glyph glyph-name="afii10100" unicode="&#x453;" horiz-adv-x="475" 
d="M90 0v534h354v-96h-248v-438h-106zM234 624l80 140h140l-130 -140h-90z" />
    <glyph glyph-name="afii10101" unicode="&#x454;" horiz-adv-x="570" 
d="M330 79c74 0 143 33 177 57v-112c-35 -16 -90 -36 -180 -36c-189 0 -271 95 -271 289c0 189 92 268 278 268c70 0 133 -14 170 -32v-111c-46 31 -93 54 -168 54c-110 0 -165 -41 -175 -148h250v-76h-250c8 -113 61 -153 169 -153z" />
    <glyph glyph-name="afii10102" unicode="&#x455;" horiz-adv-x="521" 
d="M435 516v-112c-41 31 -84 54 -152 54c-75 0 -103 -18 -103 -63c0 -111 281 -35 281 -234c0 -114 -64 -173 -210 -173c-76 0 -136 15 -186 40v117c42 -39 115 -68 185 -68c74 0 105 27 105 78c0 109 -281 38 -281 234c0 99 52 156 205 156c68 0 119 -14 156 -29z" />
    <glyph glyph-name="afii10103" unicode="&#x456;" horiz-adv-x="306" 
d="M100 0v534h106v-534h-106zM89 694c0 40 22 62 64 62s64 -22 64 -62s-22 -62 -64 -62s-64 22 -64 62z" />
    <glyph glyph-name="afii10104" unicode="&#x457;" horiz-adv-x="306" 
d="M100 0v534h106v-534h-106zM-7 694c0 39 21 60 62 60s62 -21 62 -60s-21 -60 -62 -60s-62 21 -62 60zM189 694c0 39 21 60 62 60s62 -21 62 -60s-21 -60 -62 -60s-62 21 -62 60z" />
    <glyph glyph-name="afii10105" unicode="&#x458;" horiz-adv-x="306" 
d="M100 -5v539h106v-532c0 -129 -46 -188 -160 -188c-40 0 -70 7 -85 13v100c20 -12 47 -18 73 -18c47 0 66 24 66 86zM89 694c0 40 22 62 64 62s64 -22 64 -62s-22 -62 -64 -62s-64 22 -64 62z" />
    <glyph glyph-name="afii10106" unicode="&#x459;" horiz-adv-x="902" 
d="M29 -6v117c9 -3 16 -4 26 -4c44 0 85 20 94 353l2 74h380v-170c31 3 59 4 97 4c163 0 230 -47 230 -179c0 -131 -64 -196 -257 -196c-68 0 -131 3 -175 7v436h-180l-1 -31c-13 -351 -77 -417 -170 -417c-18 0 -31 1 -46 6zM531 85c24 -3 43 -3 85 -3
c104 0 135 28 135 104c0 72 -28 100 -156 100c-20 0 -40 -2 -64 -5v-196z" />
    <glyph glyph-name="afii10107" unicode="&#x45a;" horiz-adv-x="920" 
d="M90 0v534h106v-217h248v217h105v-170c31 3 59 4 97 4c162 0 230 -47 230 -179c0 -131 -65 -196 -257 -196c-68 0 -131 3 -175 7v222h-248v-222h-106zM548 85c25 -3 43 -3 86 -3c103 0 134 28 134 104c0 72 -28 100 -156 100c-19 0 -39 -2 -64 -5v-196z" />
    <glyph glyph-name="afii10108" unicode="&#x45b;" horiz-adv-x="638" 
d="M90 0v596h-66v72h66v86h106v-86h226v-72h-226v-179c25 59 84 91 175 91c128 0 184 -54 184 -187v-321h-105v303c0 82 -34 114 -122 114c-90 0 -132 -40 -132 -138v-279h-106z" />
    <glyph glyph-name="afii10109" unicode="&#x45c;" horiz-adv-x="599" 
d="M453 0l-176 231h-81v-231h-106v534h106v-220h81l161 220h121l-193 -254l215 -280h-128zM271 624l80 140h140l-130 -140h-90z" />
    <glyph glyph-name="afii10110" unicode="&#x45e;" horiz-adv-x="553" 
d="M165 -93c35 0 55 11 82 91l-221 536h121l152 -402l125 402h110l-183 -517c-66 -189 -118 -205 -180 -205c-24 0 -45 3 -59 10l1 99c15 -8 33 -14 52 -14zM120 769h90c0 -49 20 -80 70 -80s72 31 72 80h88c0 -103 -70 -150 -160 -150s-160 47 -160 150z" />
    <glyph glyph-name="afii10193" unicode="&#x45f;" horiz-adv-x="626" 
d="M264 -130v130h-174v534h106v-439h235v439h105v-534h-174v-130h-98z" />
    <glyph glyph-name="afii10050" unicode="&#x490;" horiz-adv-x="567" 
d="M106 0v700h326v130h105v-229h-319v-601h-112z" />
    <glyph glyph-name="afii10098" unicode="&#x491;" horiz-adv-x="475" 
d="M90 0v534h258v130h96v-226h-248v-438h-106z" />
    <glyph glyph-name="uni0492" unicode="&#x492;" horiz-adv-x="591" 
d="M40 321v97h90v282h431v-99h-319v-183h182v-97h-182v-321h-112v321h-90z" />
    <glyph glyph-name="uni0493" unicode="&#x493;" horiz-adv-x="484" 
d="M98 0v222h-72v80h72v232h355v-96h-249v-136h150v-80h-150v-222h-106z" />
    <glyph glyph-name="uni049A" unicode="&#x49a;" horiz-adv-x="700" 
d="M106 0v700h112v-299h54l243 299h138l-287 -336l234 -266h88v-228h-102v130h-39l-274 313h-55v-313h-112z" />
    <glyph glyph-name="uni049B" unicode="&#x49b;" horiz-adv-x="599" 
d="M453 0l-176 231h-81v-231h-106v534h106v-220h81l161 220h121l-193 -254l142 -185h73v-225h-97v130h-31z" />
    <glyph glyph-name="uni04A2" unicode="&#x4a2;" horiz-adv-x="811" 
d="M106 0v700h112v-292h359v292h111v-602h89v-228h-101v130h-99v310h-359v-310h-112z" />
    <glyph glyph-name="uni04A3" unicode="&#x4a3;" horiz-adv-x="659" 
d="M90 0v534h106v-217h248v217h105v-439h78v-225h-97v130h-86v222h-248v-222h-106z" />
    <glyph glyph-name="uni04AE" unicode="&#x4ae;" horiz-adv-x="636" 
d="M263 0v263l-246 437h125l180 -324l174 324h122l-244 -436v-264h-111z" />
    <glyph glyph-name="uni04AF" unicode="&#x4af;" horiz-adv-x="541" 
d="M217 -5l-190 539h116l130 -397l131 397h111l-191 -538v-200h-107v199z" />
    <glyph glyph-name="uni04B0" unicode="&#x4b0;" horiz-adv-x="636" 
d="M112 217v92h125l-220 391h125l180 -324l174 324h122l-219 -391h125v-92h-150v-217h-111v217h-151z" />
    <glyph glyph-name="uni04B1" unicode="&#x4b1;" horiz-adv-x="541" 
d="M452 -60h-128v-144h-107v144h-128v80h119l-181 514h116l130 -397l131 397h111l-183 -514h120v-80z" />
    <glyph glyph-name="uni04BA" unicode="&#x4ba;" horiz-adv-x="665" 
d="M110 0v700h112v-285c35 21 94 38 173 38c144 0 213 -66 213 -176v-277h-112v235c0 93 -44 120 -127 120c-58 0 -110 -10 -147 -33v-322h-112z" />
    <glyph glyph-name="uni04BB" unicode="&#x4bb;" horiz-adv-x="638" 
d="M90 0v754h106v-301c25 59 84 91 175 91c128 0 184 -54 184 -187v-357h-105v339c0 82 -34 114 -122 114c-90 0 -132 -40 -132 -138v-315h-106z" />
    <glyph glyph-name="uni04C0" unicode="&#x4c0;" horiz-adv-x="332" 
d="M110 0v700h112v-700h-112z" />
    <glyph glyph-name="uni04CF" unicode="&#x4cf;" horiz-adv-x="286" 
d="M196 0h-106v754h106v-754z" />
    <glyph glyph-name="uni04D8" unicode="&#x4d8;" horiz-adv-x="704" 
d="M59 379h464c-1 88 -21 231 -218 231c-70 0 -137 -10 -189 -30v102c63 17 125 28 203 28c240 0 323 -149 323 -362c0 -175 -71 -358 -297 -358c-176 0 -286 101 -286 344v45zM174 285c1 -134 53 -196 172 -196c84 0 170 45 177 199h-349v-3z" />
    <glyph glyph-name="afii10846" unicode="&#x4d9;" horiz-adv-x="599" 
d="M55 299h382c-1 105 -59 156 -171 156c-70 0 -133 -27 -172 -58v100c26 20 92 48 180 48c183 0 269 -84 269 -287c0 -177 -89 -270 -252 -270c-174 0 -236 102 -236 254v57zM293 77c91 0 143 46 144 144h-276c-1 -97 38 -144 132 -144z" />
    <glyph glyph-name="uni04E8" unicode="&#x4e8;" horiz-adv-x="790" 
d="M64 350c0 248 110 361 339 361c223 0 322 -113 322 -361c0 -261 -122 -361 -330 -361c-197 0 -331 100 -331 361zM399 88c122 0 197 54 207 218h-423c12 -165 95 -218 216 -218zM394 613c-130 0 -197 -67 -210 -210h421c-13 158 -88 210 -211 210z" />
    <glyph glyph-name="uni04E9" unicode="&#x4e9;" horiz-adv-x="633" 
d="M56 269c0 185 105 276 269 276c160 0 252 -86 252 -279c0 -197 -106 -278 -261 -278c-171 0 -260 100 -260 281zM322 79c86 0 137 45 146 150h-304c10 -97 63 -150 158 -150zM316 456c-91 0 -141 -50 -151 -147h303c-10 99 -61 147 -152 147z" />
    <glyph glyph-name="uni1E9E" unicode="&#x1e9e;" horiz-adv-x="713" 
d="M100 0v474c0 169 107 236 247 236c79 0 169 -17 247 -100l-145 -195v-2c163 -13 200 -108 200 -197c0 -138 -91 -226 -247 -226c-28 0 -55 3 -80 9v97c27 -7 49 -8 66 -8c87 0 143 29 143 128c0 84 -45 121 -170 121h-29v57l131 186c-24 17 -64 29 -115 29
c-99 0 -136 -61 -136 -137v-472h-112z" />
    <glyph glyph-name="figuredash" unicode="&#x2012;" horiz-adv-x="711" 
d="M113 308v93h486v-93h-486z" />
    <glyph glyph-name="endash" unicode="&#x2013;" horiz-adv-x="711" 
d="M113 248v93h486v-93h-486z" />
    <glyph glyph-name="emdash" unicode="&#x2014;" horiz-adv-x="880" 
d="M113 248v93h654v-93h-654z" />
    <glyph glyph-name="quoteleft" unicode="&#x2018;" horiz-adv-x="369" 
d="M313 667c-69 -7 -115 -45 -125 -92c52 0 77 -23 77 -71c0 -42 -25 -73 -75 -73c-60 0 -88 37 -88 103c0 119 83 186 155 201z" />
    <glyph glyph-name="quoteright" unicode="&#x2019;" horiz-adv-x="369" 
d="M56 499c69 7 115 45 125 92c-52 0 -77 23 -77 71c0 42 25 73 75 73c60 0 88 -37 88 -103c0 -119 -83 -186 -155 -201z" />
    <glyph glyph-name="quotesinglbase" unicode="&#x201a;" horiz-adv-x="369" 
d="M56 -102c69 7 115 45 125 92c-52 0 -77 23 -77 71c0 42 25 73 75 73c60 0 88 -37 88 -103c0 -119 -83 -186 -155 -201z" />
    <glyph glyph-name="quotedblleft" unicode="&#x201c;" horiz-adv-x="597" 
d="M313 667c-69 -7 -115 -45 -125 -92c52 0 77 -23 77 -71c0 -42 -25 -73 -75 -73c-60 0 -88 37 -88 103c0 119 83 186 155 201zM541 667c-69 -7 -115 -45 -125 -92c52 0 77 -23 77 -71c0 -42 -25 -73 -75 -73c-60 0 -88 37 -88 103c0 119 83 186 155 201z" />
    <glyph glyph-name="quotedblright" unicode="&#x201d;" horiz-adv-x="597" 
d="M56 499c69 7 115 45 125 92c-52 0 -77 23 -77 71c0 42 25 73 75 73c60 0 88 -37 88 -103c0 -119 -83 -186 -155 -201zM284 499c69 7 115 45 125 92c-52 0 -77 23 -77 71c0 42 25 73 75 73c60 0 88 -37 88 -103c0 -119 -83 -186 -155 -201z" />
    <glyph glyph-name="quotedblbase" unicode="&#x201e;" horiz-adv-x="596" 
d="M282 -102c69 7 115 45 125 92c-52 0 -77 23 -77 71c0 42 25 73 75 73c60 0 88 -37 88 -103c0 -119 -83 -186 -155 -201zM56 -102c69 7 115 45 125 92c-52 0 -77 23 -77 71c0 42 25 73 75 73c60 0 88 -37 88 -103c0 -119 -83 -186 -155 -201z" />
    <glyph glyph-name="dagger" unicode="&#x2020;" horiz-adv-x="522" 
d="M207 0v445h-156v89h156v166h110v-166h156v-89h-156v-445h-110z" />
    <glyph glyph-name="daggerdbl" unicode="&#x2021;" horiz-adv-x="522" 
d="M51 166v89h156v190h-156v89h156v166h110v-166h156v-89h-156v-190h156v-89h-156v-166h-110v166h-156z" />
    <glyph glyph-name="bullet" unicode="&#x2022;" horiz-adv-x="413" 
d="M93 355c0 63 33 114 114 114s115 -51 115 -114c0 -61 -34 -112 -115 -112s-114 51 -114 112z" />
    <glyph glyph-name="ellipsis" unicode="&#x2026;" horiz-adv-x="1051" 
d="M103 63c0 44 19 74 74 74c56 0 76 -29 76 -74c0 -42 -19 -74 -76 -74c-55 0 -74 32 -74 74zM451 63c0 44 19 74 74 74c56 0 76 -29 76 -74c0 -42 -19 -74 -76 -74c-55 0 -74 32 -74 74zM799 63c0 44 19 74 74 74c56 0 76 -29 76 -74c0 -42 -19 -74 -76 -74
c-55 0 -74 32 -74 74z" />
    <glyph glyph-name="perthousand" unicode="&#x2030;" horiz-adv-x="1269" 
d="M146 0l504 700h93l-502 -700h-95zM476 158c0 107 69 166 182 166c104 0 170 -55 170 -166c0 -110 -71 -168 -181 -168c-108 0 -171 60 -171 168zM559 158c0 -58 35 -90 95 -90c58 0 92 29 92 90c0 59 -30 89 -94 89c-63 0 -93 -30 -93 -89zM873 158c0 107 68 166 182 166
c104 0 169 -55 169 -166c0 -110 -71 -168 -181 -168c-107 0 -170 60 -170 168zM955 158c0 -58 35 -90 96 -90c58 0 92 29 92 90c0 59 -31 89 -94 89s-94 -30 -94 -89zM54 545c0 107 68 166 181 166c104 0 170 -56 170 -166s-71 -168 -181 -168c-108 0 -170 59 -170 168z
M136 545c0 -58 35 -91 95 -91c58 0 92 29 92 91c0 59 -30 89 -93 89s-94 -30 -94 -89z" />
    <glyph glyph-name="guilsinglleft" unicode="&#x2039;" horiz-adv-x="372" 
d="M192 52l-136 216l138 221h105l-134 -219l135 -218h-108z" />
    <glyph glyph-name="guilsinglright" unicode="&#x203a;" horiz-adv-x="372" 
d="M73 52l134 219l-134 219h108l135 -218l-139 -220h-104z" />
    <glyph glyph-name="fraction" unicode="&#x2044;" horiz-adv-x="303" 
d="M-171 -4l550 708h94l-548 -708h-96z" />
    <glyph glyph-name="uni2070" unicode="&#x2070;" 
d="M33 592c0 158 71 218 191 218c131 0 193 -61 193 -218c0 -161 -70 -218 -192 -218c-125 0 -192 62 -192 218zM126 592c0 -108 36 -144 102 -144c63 0 95 37 95 144c0 108 -32 144 -99 144c-62 0 -98 -36 -98 -144z" />
    <glyph glyph-name="uni2074" unicode="&#x2074;" 
d="M18 467v71l242 262h105v-258h56v-75h-56v-85h-85v85h-262zM280 542v174h-1l-162 -174h163z" />
    <glyph glyph-name="uni2075" unicode="&#x2075;" 
d="M68 581l11 219h303v-75h-236l-4 -75c27 1 57 3 100 3c106 0 158 -47 158 -130c0 -89 -62 -149 -184 -149c-46 0 -99 6 -147 18v78c58 -18 92 -19 141 -19c67 0 98 26 98 68s-24 65 -105 65c-52 0 -82 -1 -135 -3z" />
    <glyph glyph-name="uni2076" unicode="&#x2076;" 
d="M228 374c-154 0 -193 94 -193 204c0 129 51 232 212 232c39 0 82 -4 123 -13v-76c-43 11 -85 13 -121 13c-66 0 -131 -30 -131 -124c32 25 80 45 131 45c95 0 163 -36 163 -135c0 -92 -75 -146 -184 -146zM123 547c0 -65 37 -103 106 -103c50 0 92 25 92 75
c0 44 -35 67 -88 67c-37 0 -80 -12 -110 -39z" />
    <glyph glyph-name="uni2077" unicode="&#x2077;" 
d="M117 382l190 343h-263v75h363v-60l-195 -358h-95z" />
    <glyph glyph-name="uni2078" unicode="&#x2078;" 
d="M225 374c-115 0 -191 39 -191 124c0 53 33 91 92 103c-48 12 -79 49 -79 95c0 74 64 114 178 114c115 0 179 -40 179 -114c0 -46 -32 -83 -79 -95c59 -12 92 -50 92 -103c0 -85 -76 -124 -192 -124zM225 446c74 0 104 27 104 63c0 31 -20 58 -104 58s-103 -27 -103 -58
c0 -36 29 -63 103 -63zM225 738c-71 0 -95 -22 -95 -54c0 -30 23 -53 95 -53s96 23 96 53c0 32 -24 54 -96 54z" />
    <glyph glyph-name="uni2079" unicode="&#x2079;" 
d="M217 810c161 0 194 -94 194 -205c0 -128 -51 -231 -201 -231c-45 0 -94 5 -143 15v78c49 -13 96 -17 137 -17c62 0 124 29 124 124c-31 -33 -83 -53 -134 -53c-82 0 -153 42 -153 142c0 92 72 147 176 147zM325 640c-3 53 -34 100 -110 100c-46 0 -83 -26 -83 -75
s32 -76 81 -76s85 23 112 51z" />
    <glyph glyph-name="uni2080" unicode="&#x2080;" 
d="M33 110c0 158 71 218 191 218c131 0 193 -61 193 -218c0 -161 -70 -218 -192 -218c-125 0 -192 62 -192 218zM126 110c0 -108 36 -144 102 -144c63 0 95 37 95 144c0 108 -32 144 -99 144c-62 0 -98 -36 -98 -144z" />
    <glyph glyph-name="uni2081" unicode="&#x2081;" 
d="M219 -100v318l-118 -56l-36 68l174 88h73v-418h-93z" />
    <glyph glyph-name="uni2082" unicode="&#x2082;" 
d="M52 -100v82l123 84c83 56 112 86 112 125c0 37 -29 60 -90 60c-45 0 -95 -7 -130 -27v81c46 16 88 23 141 23c105 0 174 -38 174 -120c0 -67 -46 -123 -159 -190l-63 -39v-1h227v-78h-335z" />
    <glyph glyph-name="uni2083" unicode="&#x2083;" 
d="M132 84v65h78c59 0 88 13 88 52c0 34 -26 50 -95 50c-47 0 -97 -5 -131 -19v76c42 16 106 20 157 20c110 0 161 -46 161 -108c0 -58 -38 -82 -102 -100v-1c93 -14 112 -58 112 -100c0 -87 -85 -127 -188 -127c-44 0 -100 2 -146 19v78c39 -17 88 -20 136 -20
c73 0 104 18 104 54c0 46 -29 61 -88 61h-86z" />
    <glyph glyph-name="uni2084" unicode="&#x2084;" 
d="M18 -15v71l242 262h105v-258h56v-75h-56v-85h-85v85h-262zM280 60v174h-1l-162 -174h163z" />
    <glyph glyph-name="uni2085" unicode="&#x2085;" 
d="M68 99l11 219h303v-75h-236l-4 -75c27 1 57 3 100 3c106 0 158 -47 158 -130c0 -89 -62 -149 -184 -149c-46 0 -99 6 -147 18v78c58 -18 92 -19 141 -19c67 0 98 26 98 68s-24 65 -105 65c-52 0 -82 -1 -135 -3z" />
    <glyph glyph-name="uni2086" unicode="&#x2086;" 
d="M228 -108c-154 0 -193 94 -193 204c0 129 51 232 212 232c39 0 82 -4 123 -13v-76c-43 11 -85 13 -121 13c-66 0 -131 -30 -131 -124c32 25 80 45 131 45c95 0 163 -36 163 -135c0 -92 -75 -146 -184 -146zM123 65c0 -65 37 -103 106 -103c50 0 92 25 92 75
c0 44 -35 67 -88 67c-37 0 -80 -12 -110 -39z" />
    <glyph glyph-name="uni2087" unicode="&#x2087;" 
d="M117 -100l190 343h-263v75h363v-60l-195 -358h-95z" />
    <glyph glyph-name="uni2088" unicode="&#x2088;" 
d="M225 -108c-115 0 -191 39 -191 124c0 53 33 91 92 103c-48 12 -79 49 -79 95c0 74 64 114 178 114c115 0 179 -40 179 -114c0 -46 -32 -83 -79 -95c59 -12 92 -50 92 -103c0 -85 -76 -124 -192 -124zM225 -36c74 0 104 27 104 63c0 31 -20 58 -104 58s-103 -27 -103 -58
c0 -36 29 -63 103 -63zM225 256c-71 0 -95 -22 -95 -54c0 -30 23 -53 95 -53s96 23 96 53c0 32 -24 54 -96 54z" />
    <glyph glyph-name="uni2089" unicode="&#x2089;" 
d="M217 328c161 0 194 -94 194 -205c0 -128 -51 -231 -201 -231c-45 0 -94 5 -143 15v78c49 -13 96 -17 137 -17c62 0 124 29 124 124c-31 -33 -83 -53 -134 -53c-82 0 -153 42 -153 142c0 92 72 147 176 147zM325 158c-3 53 -34 100 -110 100c-46 0 -83 -26 -83 -75
s32 -76 81 -76s85 23 112 51z" />
    <glyph glyph-name="Euro" unicode="&#x20ac;" horiz-adv-x="594" 
d="M382 710c66 0 113 -11 144 -27l-12 -105c-28 15 -67 32 -129 32c-97 0 -146 -41 -170 -128h262l-18 -82h-257c-1 -13 -2 -28 -2 -42c0 -20 0 -38 2 -55h238l-16 -81h-208c31 -90 91 -131 173 -131c63 0 120 19 149 38v-104c-31 -17 -89 -35 -154 -35
c-150 0 -247 80 -280 232h-76l17 81h48c-1 15 -2 30 -2 46c0 17 2 35 3 51h-62l18 82h56c36 149 125 228 276 228z" />
    <glyph glyph-name="uni20B4" unicode="&#x20b4;" horiz-adv-x="646" 
d="M96 256v64h115c13 14 62 56 76 71h-191v63h256c36 30 57 67 57 96c0 54 -50 64 -85 64c-66 0 -92 -4 -157 -24v97c63 18 133 23 169 23c169 0 191 -85 191 -142c0 -46 -23 -85 -48 -114h72v-63h-126c-14 -15 -65 -57 -80 -71h206v-64h-264c-32 -27 -43 -62 -43 -90
c0 -53 39 -79 123 -79c38 0 98 4 145 26v-99c-59 -19 -124 -24 -167 -24c-174 0 -220 94 -220 162c0 46 18 79 36 104h-65z" />
    <glyph glyph-name="uni20B8" unicode="&#x20b8;" horiz-adv-x="645" 
d="M268 0v489h-194v79h498v-79h-193v-489h-111zM74 620v80h498v-80h-498z" />
    <glyph glyph-name="uni20BD" unicode="&#x20bd;" horiz-adv-x="602" 
d="M305 285h-74v-80h195v-88h-195v-117h-108v117h-76v88h76v80h-76v89h76v322c54 4 121 10 196 10c142 0 235 -55 235 -198c0 -150 -77 -223 -249 -223zM310 605c-30 0 -56 -2 -79 -4v-227h63c108 0 148 42 148 118c0 71 -25 113 -132 113z" />
    <glyph glyph-name="afii61352" unicode="&#x2116;" horiz-adv-x="1075" 
d="M90 0v700h114l257 -405c17 -28 49 -88 61 -111c-2 26 -3 90 -3 123v393h110v-700h-113l-240 386c-19 29 -61 109 -80 145c2 -31 5 -99 5 -137v-394h-111zM728 206v95h284v-95h-284zM707 539c0 111 57 172 156 172c98 0 161 -57 161 -172c0 -116 -59 -173 -155 -173
c-104 0 -162 57 -162 173zM793 539c0 -67 30 -92 75 -92c41 0 71 21 71 92c0 64 -28 91 -73 91c-46 0 -73 -27 -73 -91z" />
    <glyph glyph-name="uni2120" unicode="&#x2120;" horiz-adv-x="847" 
d="M398 376v324h82l97 -176h2l96 176h82v-324h-70v223l-86 -150h-47l-85 150h-1v-223h-70zM319 692v-69c-26 15 -59 26 -102 26c-57 0 -75 -12 -75 -34c0 -65 196 -15 196 -141c0 -69 -38 -107 -153 -107c-34 0 -81 6 -115 20v72c25 -18 68 -31 115 -31c58 0 78 12 78 42
c0 64 -195 19 -195 144c0 58 33 94 149 94c36 0 77 -8 102 -16z" />
    <glyph glyph-name="trademark" unicode="&#x2122;" horiz-adv-x="817" 
d="M368 376v324h82l97 -176h1l97 176h81v-324h-69v223l-87 -150h-46l-85 150h-1v-223h-70zM141 376v260h-103v64h280v-64h-103v-260h-74z" />
    <glyph glyph-name="onethird" unicode="&#x2153;" horiz-adv-x="950" 
d="M120 -4l550 708h94l-548 -708h-96zM650 186v65h78c59 0 88 13 88 52c0 34 -26 50 -95 50c-47 0 -97 -5 -131 -19v76c42 16 106 20 157 20c110 0 161 -46 161 -108c0 -58 -38 -82 -102 -100v-1c93 -14 112 -58 112 -100c0 -87 -85 -127 -188 -127c-44 0 -100 2 -146 19v78
c39 -17 88 -20 136 -20c73 0 104 18 104 54c0 46 -29 61 -88 61h-86zM192 282v318l-118 -56l-36 68l174 88h73v-418h-93z" />
    <glyph glyph-name="twothirds" unicode="&#x2154;" horiz-adv-x="950" 
d="M167 -4l550 708h94l-548 -708h-96zM672 186v65h78c59 0 88 13 88 52c0 34 -26 50 -95 50c-47 0 -97 -5 -131 -19v76c42 16 106 20 157 20c110 0 161 -46 161 -108c0 -58 -38 -82 -102 -100v-1c93 -14 112 -58 112 -100c0 -87 -85 -127 -188 -127c-44 0 -100 2 -146 19v78
c39 -17 88 -20 136 -20c73 0 104 18 104 54c0 46 -29 61 -88 61h-86zM26 282v82l123 84c83 56 112 86 112 125c0 37 -29 60 -90 60c-45 0 -95 -7 -130 -27v81c46 16 88 23 141 23c105 0 174 -38 174 -120c0 -67 -46 -123 -159 -190l-63 -39v-1h227v-78h-335z" />
    <glyph glyph-name="oneeighth" unicode="&#x215b;" horiz-adv-x="950" 
d="M112 -4l550 708h94l-548 -708h-96zM733 -6c-115 0 -191 39 -191 124c0 53 33 91 92 103c-48 12 -79 49 -79 95c0 74 64 114 178 114c115 0 179 -40 179 -114c0 -46 -32 -83 -79 -95c59 -12 92 -50 92 -103c0 -85 -76 -124 -192 -124zM733 66c74 0 104 27 104 63
c0 31 -20 58 -104 58s-103 -27 -103 -58c0 -36 29 -63 103 -63zM733 358c-71 0 -95 -22 -95 -54c0 -30 23 -53 95 -53s96 23 96 53c0 32 -24 54 -96 54zM189 282v318l-118 -56l-36 68l174 88h73v-418h-93z" />
    <glyph glyph-name="threeeighths" unicode="&#x215c;" horiz-adv-x="950" 
d="M134 -4l550 708h94l-548 -708h-96zM737 -6c-115 0 -191 39 -191 124c0 53 33 91 92 103c-48 12 -79 49 -79 95c0 74 64 114 178 114c115 0 179 -40 179 -114c0 -46 -32 -83 -79 -95c59 -12 92 -50 92 -103c0 -85 -76 -124 -192 -124zM737 66c74 0 104 27 104 63
c0 31 -20 58 -104 58s-103 -27 -103 -58c0 -36 29 -63 103 -63zM737 358c-71 0 -95 -22 -95 -54c0 -30 23 -53 95 -53s96 23 96 53c0 32 -24 54 -96 54zM99 466v65h78c59 0 88 13 88 52c0 34 -26 50 -95 50c-47 0 -97 -5 -131 -19v76c42 16 106 20 157 20
c110 0 161 -46 161 -108c0 -58 -38 -82 -102 -100v-1c93 -14 112 -58 112 -100c0 -87 -85 -127 -188 -127c-44 0 -100 2 -146 19v78c39 -17 88 -20 136 -20c73 0 104 18 104 54c0 46 -29 61 -88 61h-86z" />
    <glyph glyph-name="fiveeighths" unicode="&#x215d;" horiz-adv-x="950" 
d="M143 -4l550 708h94l-548 -708h-96zM745 -6c-115 0 -191 39 -191 124c0 53 33 91 92 103c-48 12 -79 49 -79 95c0 74 64 114 178 114c115 0 179 -40 179 -114c0 -46 -32 -83 -79 -95c59 -12 92 -50 92 -103c0 -85 -76 -124 -192 -124zM745 66c74 0 104 27 104 63
c0 31 -20 58 -104 58s-103 -27 -103 -58c0 -36 29 -63 103 -63zM745 358c-71 0 -95 -22 -95 -54c0 -30 23 -53 95 -53s96 23 96 53c0 32 -24 54 -96 54zM47 481l11 219h303v-75h-236l-4 -75c27 1 57 3 100 3c106 0 158 -47 158 -130c0 -89 -62 -149 -184 -149
c-46 0 -99 6 -147 18v78c58 -18 92 -19 141 -19c67 0 98 26 98 68s-24 65 -105 65c-52 0 -82 -1 -135 -3z" />
    <glyph glyph-name="seveneighths" unicode="&#x215e;" horiz-adv-x="950" 
d="M100 -4l550 708h94l-548 -708h-96zM738 -6c-115 0 -191 39 -191 124c0 53 33 91 92 103c-48 12 -79 49 -79 95c0 74 64 114 178 114c115 0 179 -40 179 -114c0 -46 -32 -83 -79 -95c59 -12 92 -50 92 -103c0 -85 -76 -124 -192 -124zM738 66c74 0 104 27 104 63
c0 31 -20 58 -104 58s-103 -27 -103 -58c0 -36 29 -63 103 -63zM738 358c-71 0 -95 -22 -95 -54c0 -30 23 -53 95 -53s96 23 96 53c0 32 -24 54 -96 54zM118 282l190 343h-263v75h363v-60l-195 -358h-95z" />
    <glyph glyph-name="minus" unicode="&#x2212;" horiz-adv-x="559" 
d="M61 279v90h438v-90h-438z" />
    <glyph glyph-name="infinity" unicode="&#x221e;" horiz-adv-x="674" 
d="M385 242l-47 49l-48 -50c-32 -37 -71 -48 -109 -48c-97 0 -137 83 -137 155c0 71 40 159 137 159c34 0 76 -12 110 -50l47 -51l50 56c29 32 69 45 107 45c94 0 137 -79 137 -159c0 -69 -39 -155 -137 -155c-36 0 -76 11 -110 49zM387 348l42 -45c18 -19 36 -29 60 -29
c41 0 63 32 63 74c0 49 -29 78 -62 78c-22 0 -46 -10 -69 -37zM290 348l-45 48c-18 19 -33 30 -57 30c-46 0 -63 -41 -63 -78c0 -48 28 -74 61 -74c20 0 44 10 68 35z" />
    <glyph glyph-name="approxequal" unicode="&#x2248;" horiz-adv-x="640" 
d="M133 152l-25 78c20 41 63 76 113 76c81 0 136 -64 199 -64c38 0 68 35 87 62l25 -77c-18 -39 -61 -75 -113 -75c-78 0 -130 64 -195 64c-39 0 -75 -40 -91 -64zM133 318l-25 76c20 41 63 77 113 77c81 0 136 -64 199 -64c38 0 68 36 87 63l25 -78
c-18 -39 -61 -75 -113 -75c-78 0 -131 64 -195 64c-39 0 -75 -39 -91 -63z" />
    <glyph glyph-name="notequal" unicode="&#x2260;" horiz-adv-x="599" 
d="M81 392v91h258l49 81h88l-49 -81h91v-91h-145l-74 -123h219v-91h-273l-55 -92h-88l55 92h-76v91h130l74 123h-204z" />
    <glyph glyph-name="lessequal" unicode="&#x2264;" horiz-adv-x="558" 
d="M65 63v91h429v-91h-429zM65 361v83l429 172v-96l-314 -117v-2l314 -116v-96z" />
    <glyph glyph-name="greaterequal" unicode="&#x2265;" horiz-adv-x="558" 
d="M65 63v91h429v-91h-429zM65 189v96l313 116v2l-313 117v96l429 -172v-83z" />
    <glyph glyph-name="lozenge" unicode="&#x25ca;" horiz-adv-x="642" 
d="M321 -10l-251 360l251 360l252 -360zM321 156l139 194l-139 193l-137 -193z" />
    <glyph glyph-name="uniF406" unicode="&#xf406;" horiz-adv-x="602" 
d="M141 896l66 19c15 -50 44 -76 94 -76s79 26 94 76l66 -19c-20 -84 -70 -131 -160 -131s-140 47 -160 131z" />
    <glyph glyph-name="uniF407" unicode="&#xf407;" horiz-adv-x="602" 
d="M263 -104l14 104h66l-8 -50c59 -1 108 -20 108 -88c0 -62 -54 -104 -127 -104c-42 0 -66 6 -88 16l9 58c21 -9 38 -13 64 -13c27 0 54 10 54 43c0 31 -30 37 -55 37c-10 0 -27 0 -37 -3z" />
    <glyph glyph-name="uniF408" unicode="&#xf408;" horiz-adv-x="602" 
d="M131 765l113 150h114l113 -150h-98l-72 92l-72 -92h-98z" />
    <glyph glyph-name="uniF409" unicode="&#xf409;" horiz-adv-x="602" 
d="M241 -202c34 2 67 13 67 45c-6 -1 -12 -1 -18 -1c-35 0 -62 15 -62 45c0 27 26 49 72 49c42 0 74 -22 74 -74c0 -54 -39 -108 -129 -110z" />
    <glyph glyph-name="uniF40A" unicode="&#xf40a;" horiz-adv-x="210" 
d="M45 500l46 200h104l-76 -200h-74z" />
    <glyph glyph-name="uniF40B" unicode="&#xf40b;" horiz-adv-x="602" 
d="M235 840c0 41 23 64 66 64s66 -23 66 -64s-23 -64 -66 -64s-66 23 -66 64z" />
    <glyph glyph-name="uniF40C" unicode="&#xf40c;" horiz-adv-x="602" 
d="M203 840c0 61 45 98 98 98c54 0 98 -37 98 -98c0 -60 -44 -98 -98 -98c-53 0 -98 38 -98 98zM259 840c0 -26 16 -42 42 -42s42 16 42 42s-16 42 -42 42s-42 -16 -42 -42z" />
    <glyph glyph-name="uniF40D" unicode="&#xf40d;" horiz-adv-x="602" 
d="M203 776l-67 13c4 73 46 115 99 115c29 0 46 -11 75 -26c26 -13 40 -22 57 -22s29 12 34 48l65 -14c-5 -73 -48 -114 -95 -114c-25 0 -37 6 -76 26c-27 13 -33 23 -54 23c-16 0 -33 -13 -38 -49z" />
    <glyph glyph-name="uniF40E" unicode="&#xf40e;" horiz-adv-x="602" 
d="M342 10l59 -6c-49 -35 -86 -75 -86 -134c0 -30 21 -43 56 -43c19 0 39 4 58 15v-65c-23 -11 -50 -19 -87 -19c-80 0 -114 39 -114 95c0 69 58 120 114 157z" />
    <glyph glyph-name="zero.tab" unicode="&#xf4e0;" horiz-adv-x="650" 
d="M77 349c0 265 82 360 257 360c172 0 239 -107 239 -360c0 -274 -85 -360 -248 -360c-172 0 -248 116 -248 360zM186 349c0 -197 43 -267 143 -267c99 0 135 58 135 264c0 213 -33 271 -139 271s-139 -66 -139 -268z" />
    <glyph glyph-name="one.tab" unicode="&#xf4e1;" horiz-adv-x="650" 
d="M115 0v96h206v484l-206 -122v104l238 144h75v-610h126v-96h-439z" />
    <glyph glyph-name="two.tab" unicode="&#xf4e2;" horiz-adv-x="650" 
d="M78 0v70c250 212 356 280 356 410c0 89 -47 127 -149 127c-79 0 -140 -28 -196 -66v123c54 27 126 45 218 45c176 0 241 -78 241 -206c0 -153 -81 -238 -303 -405h316v-98h-483z" />
    <glyph glyph-name="three.tab" unicode="&#xf4e3;" horiz-adv-x="650" 
d="M208 310v91h59c112 0 156 37 156 116c0 62 -28 93 -136 93c-83 0 -152 -33 -198 -62v112c48 26 125 49 222 49c159 0 221 -54 222 -173c1 -89 -43 -144 -141 -170c111 -9 172 -66 172 -164c0 -134 -77 -211 -255 -211c-103 0 -182 21 -227 48v126c43 -36 121 -70 216 -70
c117 0 156 37 156 112c0 64 -38 103 -183 103h-63z" />
    <glyph glyph-name="four.tab" unicode="&#xf4e4;" horiz-adv-x="650" 
d="M60 182v67l306 451h136v-420h98v-98h-98v-182h-107v182h-335zM395 280v306l-204 -306h204z" />
    <glyph glyph-name="five.tab" unicode="&#xf4e5;" horiz-adv-x="650" 
d="M109 343l31 357h398v-96h-313l-15 -164c18 2 63 3 106 3c185 0 243 -80 243 -213c0 -151 -73 -239 -267 -239c-65 0 -143 10 -194 31v119c42 -28 124 -47 184 -47c126 0 167 45 167 130c0 90 -33 128 -180 128c-59 0 -125 -3 -160 -9z" />
    <glyph glyph-name="six.tab" unicode="&#xf4e6;" horiz-adv-x="650" 
d="M337 -9c-196 0 -267 120 -267 338c0 276 125 380 323 380c52 0 104 -9 141 -22v-115c-31 18 -72 36 -152 36c-123 0 -214 -70 -214 -246c0 -21 1 -23 2 -29c35 78 94 122 204 122c142 0 206 -93 206 -211c0 -177 -105 -253 -243 -253zM189 258c0 -106 50 -167 151 -167
c78 0 131 44 131 138c0 89 -36 135 -131 135c-96 0 -134 -54 -151 -106z" />
    <glyph glyph-name="seven.tab" unicode="&#xf4e7;" horiz-adv-x="650" 
d="M175 0l274 594h-367v106h496v-69l-283 -631h-120z" />
    <glyph glyph-name="eight.tab" unicode="&#xf4e8;" horiz-adv-x="650" 
d="M73 198c0 73 22 146 131 176c-84 22 -115 66 -115 152c0 114 67 186 237 186c167 0 229 -68 229 -167c0 -83 -18 -144 -113 -171c104 -24 135 -77 135 -170c0 -126 -73 -213 -250 -213c-172 0 -254 78 -254 207zM184 215c0 -89 55 -126 143 -126c101 0 141 43 141 124
c0 79 -52 115 -142 115c-93 0 -142 -44 -142 -113zM194 509c0 -59 39 -104 130 -104c89 0 125 42 125 106c0 72 -32 103 -125 103c-92 0 -130 -36 -130 -105z" />
    <glyph glyph-name="nine.tab" unicode="&#xf4e9;" horiz-adv-x="650" 
d="M313 709c196 0 267 -120 267 -337c0 -277 -125 -381 -323 -381c-52 0 -104 9 -141 23v114c31 -18 72 -35 152 -35c123 0 214 70 214 246c0 20 -1 23 -2 29c-35 -79 -90 -123 -200 -123c-142 0 -210 93 -210 212c0 177 105 252 243 252zM462 451c-4 96 -51 159 -152 158
c-78 -1 -130 -43 -131 -137c-2 -88 40 -136 135 -136c96 0 135 54 148 115z" />
    <glyph glyph-name="dollar.tab" unicode="&#xf4ec;" horiz-adv-x="650" 
d="M450 188c0 167 -350 75 -350 327c0 110 54 178 192 192v93h81v-90c66 -3 124 -16 166 -36v-122c-43 36 -115 62 -186 62c-109 0 -139 -32 -139 -90c0 -161 355 -62 355 -330c0 -114 -59 -185 -196 -200v-114h-81v110c-78 3 -155 25 -197 56v132c42 -44 113 -91 212 -91
s143 35 143 101z" />
    <glyph glyph-name="Euro.tab" unicode="&#xf4ed;" horiz-adv-x="650" 
d="M415 710c66 0 113 -11 144 -27l-12 -105c-28 15 -67 32 -129 32c-97 0 -146 -41 -170 -128h262l-18 -82h-257c-1 -13 -2 -28 -2 -42c0 -20 0 -38 2 -55h238l-16 -81h-208c31 -90 91 -131 173 -131c63 0 120 19 149 38v-104c-31 -17 -89 -35 -154 -35
c-150 0 -247 80 -280 232h-76l17 81h48c-1 15 -2 30 -2 46c0 17 2 35 3 51h-62l18 82h56c36 149 125 228 276 228z" />
    <glyph glyph-name="cent.tab" unicode="&#xf4ee;" horiz-adv-x="650" 
d="M321 -120v114c-139 16 -202 118 -202 273c0 153 68 250 202 265v102h66v-100c55 -2 89 -13 112 -20v-90c-27 10 -63 21 -116 21c-99 0 -156 -53 -156 -171c0 -132 59 -192 166 -192c50 0 91 12 113 23v-89c-22 -10 -60 -22 -119 -25v-111h-66z" />
    <glyph glyph-name="sterling.tab" unicode="&#xf4ef;" horiz-adv-x="650" 
d="M114 0v99h85v233h-85v75h85v72c0 95 32 231 230 231c47 0 90 -7 122 -17v-97c-41 11 -70 16 -114 16c-97 0 -126 -58 -126 -136v-69h158v-75h-158v-233h245v-99h-442z" />
    <glyph glyph-name="yen.tab" unicode="&#xf4fa;" horiz-adv-x="650" 
d="M134 164v67h136v54l-9 16h-127v66h94l-169 333h129l139 -295l135 295h130l-169 -333h94v-66h-128l-8 -16v-54h136v-67h-136v-164h-111v164h-136z" />
    <glyph glyph-name="florin.tab" unicode="&#xf4fb;" horiz-adv-x="650" 
d="M50 -211l21 94c11 -2 20 -3 30 -3c45 0 80 11 97 103l84 437h-93l18 90h92l14 73c20 104 73 175 194 175c25 0 44 -2 69 -7l-17 -89c-8 2 -25 6 -45 6c-64 0 -87 -23 -104 -113l-9 -45h128l-18 -90h-127l-82 -430c-25 -127 -70 -206 -203 -206c-20 0 -36 2 -49 5z" />
    <glyph glyph-name="uni20B4.tab" unicode="&#xf4fc;" horiz-adv-x="650" 
d="M98 256v64h115c13 14 62 56 76 71h-191v63h256c36 30 57 67 57 96c0 54 -50 64 -85 64c-66 0 -92 -4 -157 -24v97c63 18 133 23 169 23c169 0 191 -85 191 -142c0 -46 -23 -85 -48 -114h72v-63h-126c-14 -15 -65 -57 -80 -71h206v-64h-264c-32 -27 -43 -62 -43 -90
c0 -53 39 -79 123 -79c38 0 98 4 145 26v-99c-59 -19 -124 -24 -167 -24c-174 0 -220 94 -220 162c0 46 18 79 36 104h-65z" />
    <glyph glyph-name="uni20BD.tab" unicode="&#xf4fd;" horiz-adv-x="650" 
d="M326 285h-74v-80h195v-88h-195v-117h-108v117h-76v88h76v80h-76v89h76v322c54 4 121 10 196 10c142 0 235 -55 235 -198c0 -150 -77 -223 -249 -223zM331 605c-30 0 -56 -2 -79 -4v-227h63c108 0 148 42 148 118c0 71 -25 113 -132 113z" />
    <glyph glyph-name="uni20B8.tab" unicode="&#xf5f3;" horiz-adv-x="650" 
d="M271 0v489h-194v79h498v-79h-193v-489h-111zM77 620v80h498v-80h-498z" />
    <glyph glyph-name="zero.denominator" unicode="&#xf655;" 
d="M33 210c0 158 71 218 191 218c131 0 193 -61 193 -218c0 -161 -70 -218 -192 -218c-125 0 -192 62 -192 218zM126 210c0 -108 36 -144 102 -144c63 0 95 37 95 144c0 108 -32 144 -99 144c-62 0 -98 -36 -98 -144z" />
    <glyph glyph-name="one.denominator" unicode="&#xf656;" 
d="M219 0v318l-118 -56l-36 68l174 88h73v-418h-93z" />
    <glyph glyph-name="two.denominator" unicode="&#xf657;" 
d="M52 0v82l123 84c83 56 112 86 112 125c0 37 -29 60 -90 60c-45 0 -95 -7 -130 -27v81c46 16 88 23 141 23c105 0 174 -38 174 -120c0 -67 -46 -123 -159 -190l-63 -39v-1h227v-78h-335z" />
    <glyph glyph-name="three.denominator" unicode="&#xf658;" 
d="M132 184v65h78c59 0 88 13 88 52c0 34 -26 50 -95 50c-47 0 -97 -5 -131 -19v76c42 16 106 20 157 20c110 0 161 -46 161 -108c0 -58 -38 -82 -102 -100v-1c93 -14 112 -58 112 -100c0 -87 -85 -127 -188 -127c-44 0 -100 2 -146 19v78c39 -17 88 -20 136 -20
c73 0 104 18 104 54c0 46 -29 61 -88 61h-86z" />
    <glyph glyph-name="four.denominator" unicode="&#xf659;" 
d="M18 85v71l242 262h105v-258h56v-75h-56v-85h-85v85h-262zM280 160v174h-1l-162 -174h163z" />
    <glyph glyph-name="five.denominator" unicode="&#xf65a;" 
d="M68 199l11 219h303v-75h-236l-4 -75c27 1 57 3 100 3c106 0 158 -47 158 -130c0 -89 -62 -149 -184 -149c-46 0 -99 6 -147 18v78c58 -18 92 -19 141 -19c67 0 98 26 98 68s-24 65 -105 65c-52 0 -82 -1 -135 -3z" />
    <glyph glyph-name="six.denominator" unicode="&#xf65b;" 
d="M228 -8c-154 0 -193 94 -193 204c0 129 51 232 212 232c39 0 82 -4 123 -13v-76c-43 11 -85 13 -121 13c-66 0 -131 -30 -131 -124c32 25 80 45 131 45c95 0 163 -36 163 -135c0 -92 -75 -146 -184 -146zM123 165c0 -65 37 -103 106 -103c50 0 92 25 92 75
c0 44 -35 67 -88 67c-37 0 -80 -12 -110 -39z" />
    <glyph glyph-name="seven.denominator" unicode="&#xf65c;" 
d="M117 0l190 343h-263v75h363v-60l-195 -358h-95z" />
    <glyph glyph-name="eight.denominator" unicode="&#xf65d;" 
d="M225 -8c-115 0 -191 39 -191 124c0 53 33 91 92 103c-48 12 -79 49 -79 95c0 74 64 114 178 114c115 0 179 -40 179 -114c0 -46 -32 -83 -79 -95c59 -12 92 -50 92 -103c0 -85 -76 -124 -192 -124zM225 64c74 0 104 27 104 63c0 31 -20 58 -104 58s-103 -27 -103 -58
c0 -36 29 -63 103 -63zM225 356c-71 0 -95 -22 -95 -54c0 -30 23 -53 95 -53s96 23 96 53c0 32 -24 54 -96 54z" />
    <glyph glyph-name="nine.denominator" unicode="&#xf65e;" 
d="M217 428c161 0 194 -94 194 -205c0 -128 -51 -231 -201 -231c-45 0 -94 5 -143 15v78c49 -13 96 -17 137 -17c62 0 124 29 124 124c-31 -33 -83 -53 -134 -53c-82 0 -153 42 -153 142c0 92 72 147 176 147zM325 258c-3 53 -34 100 -110 100c-46 0 -83 -26 -83 -75
s32 -76 81 -76s85 23 112 51z" />
    <glyph glyph-name="zero.numerator" unicode="&#xf661;" 
d="M33 492c0 158 71 218 191 218c131 0 193 -61 193 -218c0 -161 -70 -218 -192 -218c-125 0 -192 62 -192 218zM126 492c0 -108 36 -144 102 -144c63 0 95 37 95 144c0 108 -32 144 -99 144c-62 0 -98 -36 -98 -144z" />
    <glyph glyph-name="one.numerator" unicode="&#xf662;" 
d="M219 282v318l-118 -56l-36 68l174 88h73v-418h-93z" />
    <glyph glyph-name="two.numerator" unicode="&#xf663;" 
d="M52 282v82l123 84c83 56 112 86 112 125c0 37 -29 60 -90 60c-45 0 -95 -7 -130 -27v81c46 16 88 23 141 23c105 0 174 -38 174 -120c0 -67 -46 -123 -159 -190l-63 -39v-1h227v-78h-335z" />
    <glyph glyph-name="three.numerator" unicode="&#xf664;" 
d="M132 466v65h78c59 0 88 13 88 52c0 34 -26 50 -95 50c-47 0 -97 -5 -131 -19v76c42 16 106 20 157 20c110 0 161 -46 161 -108c0 -58 -38 -82 -102 -100v-1c93 -14 112 -58 112 -100c0 -87 -85 -127 -188 -127c-44 0 -100 2 -146 19v78c39 -17 88 -20 136 -20
c73 0 104 18 104 54c0 46 -29 61 -88 61h-86z" />
    <glyph glyph-name="four.numerator" unicode="&#xf665;" 
d="M18 367v71l242 262h105v-258h56v-75h-56v-85h-85v85h-262zM280 442v174h-1l-162 -174h163z" />
    <glyph glyph-name="five.numerator" unicode="&#xf666;" 
d="M68 481l11 219h303v-75h-236l-4 -75c27 1 57 3 100 3c106 0 158 -47 158 -130c0 -89 -62 -149 -184 -149c-46 0 -99 6 -147 18v78c58 -18 92 -19 141 -19c67 0 98 26 98 68s-24 65 -105 65c-52 0 -82 -1 -135 -3z" />
    <glyph glyph-name="six.numerator" unicode="&#xf667;" 
d="M228 274c-154 0 -193 94 -193 204c0 129 51 232 212 232c39 0 82 -4 123 -13v-76c-43 11 -85 13 -121 13c-66 0 -131 -30 -131 -124c32 25 80 45 131 45c95 0 163 -36 163 -135c0 -92 -75 -146 -184 -146zM123 447c0 -65 37 -103 106 -103c50 0 92 25 92 75
c0 44 -35 67 -88 67c-37 0 -80 -12 -110 -39z" />
    <glyph glyph-name="seven.numerator" unicode="&#xf668;" 
d="M117 282l190 343h-263v75h363v-60l-195 -358h-95z" />
    <glyph glyph-name="eight.numerator" unicode="&#xf669;" 
d="M225 274c-115 0 -191 39 -191 124c0 53 33 91 92 103c-48 12 -79 49 -79 95c0 74 64 114 178 114c115 0 179 -40 179 -114c0 -46 -32 -83 -79 -95c59 -12 92 -50 92 -103c0 -85 -76 -124 -192 -124zM225 346c74 0 104 27 104 63c0 31 -20 58 -104 58s-103 -27 -103 -58
c0 -36 29 -63 103 -63zM225 638c-71 0 -95 -22 -95 -54c0 -30 23 -53 95 -53s96 23 96 53c0 32 -24 54 -96 54z" />
    <glyph glyph-name="nine.numerator" unicode="&#xf66a;" 
d="M217 710c161 0 194 -94 194 -205c0 -128 -51 -231 -201 -231c-45 0 -94 5 -143 15v78c49 -13 96 -17 137 -17c62 0 124 29 124 124c-31 -33 -83 -53 -134 -53c-82 0 -153 42 -153 142c0 92 72 147 176 147zM325 540c-3 53 -34 100 -110 100c-46 0 -83 -26 -83 -75
s32 -76 81 -76s85 23 112 51z" />
    <glyph glyph-name="uniF6BA" unicode="&#xf6ba;" horiz-adv-x="475" 
d="M96 307v95h283v-95h-283z" />
    <glyph glyph-name="uniF6BB" unicode="&#xf6bb;" horiz-adv-x="711" 
d="M113 308v93h486v-93h-486z" />
    <glyph glyph-name="uniF6BC" unicode="&#xf6bc;" horiz-adv-x="880" 
d="M113 308v93h654v-93h-654z" />
    <glyph glyph-name="uniF6C3" unicode="&#xf6c3;" horiz-adv-x="602" 
d="M239 -202c35 2 69 10 69 43c-7 -1 -13 -1 -19 -1c-37 0 -64 15 -64 45c0 28 27 51 74 51c43 0 77 -24 77 -76c0 -56 -41 -107 -133 -109z" />
    <glyph glyph-name="uniF6C9" unicode="&#xf6c9;" horiz-adv-x="602" 
d="M236 765l88 150h142l-138 -150h-92z" />
    <glyph glyph-name="uniF6CA" unicode="&#xf6ca;" horiz-adv-x="602" 
d="M244 765l-113 150h98l72 -92l72 92h98l-113 -150h-114z" />
    <glyph glyph-name="uniF6CB" unicode="&#xf6cb;" horiz-adv-x="602" 
d="M136 840c0 40 22 62 64 62s64 -22 64 -62s-22 -62 -64 -62s-64 22 -64 62zM338 840c0 40 22 62 64 62s64 -22 64 -62s-22 -62 -64 -62s-64 22 -64 62z" />
    <glyph glyph-name="uniF6CE" unicode="&#xf6ce;" horiz-adv-x="602" 
d="M136 915h144l86 -150h-94z" />
    <glyph glyph-name="uniF6CF" unicode="&#xf6cf;" horiz-adv-x="602" 
d="M142 765l50 150h122l-90 -150h-82zM330 765l90 150h142l-139 -150h-93z" />
    <glyph glyph-name="uniF6D0" unicode="&#xf6d0;" horiz-adv-x="602" 
d="M151 800v80h300v-80h-300z" />
    <glyph glyph-name="uniF6D1" unicode="&#xf6d1;" horiz-adv-x="602" 
d="M131 915h92c0 -55 22 -78 78 -78s80 23 80 78h90c0 -111 -72 -150 -170 -150s-170 39 -170 150z" />
    <glyph glyph-name="uniF6D4" unicode="&#xf6d4;" horiz-adv-x="602" 
d="M141 769h90c0 -49 20 -80 70 -80s72 31 72 80h88c0 -103 -70 -150 -160 -150s-160 47 -160 150z" />
    <glyph glyph-name="uniFEFF" unicode="&#xfeff;" horiz-adv-x="0" 
 />
    <glyph glyph-name="percent.tab" horiz-adv-x="650" 
d="M36 0l489 700h92l-486 -700h-95zM50 546c0 113 47 165 125 165c77 0 127 -47 127 -165c0 -121 -48 -167 -123 -167c-82 0 -129 47 -129 167zM224 546c0 65 -15 88 -47 88c-33 0 -48 -23 -48 -88c0 -69 18 -90 50 -90c28 0 44 17 45 90zM357 156c0 114 48 165 126 165
c77 0 127 -47 127 -165c0 -121 -49 -167 -123 -167c-82 0 -130 47 -130 167zM532 156c0 66 -16 88 -47 88c-33 0 -49 -22 -49 -88c0 -69 19 -90 50 -90c29 0 45 17 46 90z" />
    <glyph glyph-name="plus.tab" horiz-adv-x="650" 
d="M108 294v95h170v170h94v-170h170v-95h-170v-169h-94v169h-170z" />
    <glyph glyph-name="less.tab" horiz-adv-x="650" 
d="M88 284v82l429 172v-95l-314 -117v-2l314 -117v-96z" />
    <glyph glyph-name="equal.tab" horiz-adv-x="650" 
d="M106 178v90h438v-90h-438zM106 392v90h438v-90h-438z" />
    <glyph glyph-name="greater.tab" horiz-adv-x="650" 
d="M132 111v96l314 117v2l-314 117v95l430 -172v-82z" />
    <glyph glyph-name="multiply.tab" horiz-adv-x="650" 
d="M128 179l137 145l-137 146l63 61l133 -142l135 142l63 -61l-137 -146l137 -145l-63 -61l-135 142l-133 -142z" />
    <glyph glyph-name="divide.tab" horiz-adv-x="650" 
d="M258 145c0 44 26 69 69 69c40 0 68 -26 68 -69c0 -46 -26 -70 -68 -70s-69 25 -69 70zM258 503c0 45 26 70 69 70c40 0 68 -26 68 -70c0 -45 -26 -69 -68 -69s-69 25 -69 69zM107 279v90h438v-90h-438z" />
    <glyph glyph-name="perthousand.tab" horiz-adv-x="650" 
d="M516 476l-462 -223l-27 55l464 224zM22 567c0 99 44 143 116 143s120 -39 120 -143c0 -105 -44 -145 -114 -145c-77 0 -122 40 -122 145zM98 567c0 -54 17 -69 45 -69c25 0 39 12 40 69c0 50 -13 67 -42 67s-43 -17 -43 -67zM123 135c0 99 44 143 116 143
s120 -39 120 -143c0 -105 -44 -145 -114 -145c-77 0 -122 40 -122 145zM199 135c0 -54 17 -69 45 -69c25 0 39 12 40 69c0 50 -13 67 -42 67s-43 -17 -43 -67zM387 135c0 99 44 143 116 143c71 0 120 -39 120 -143c0 -105 -45 -145 -114 -145c-77 0 -122 40 -122 145z
M463 135c0 -54 16 -69 45 -69c25 0 39 12 40 69c0 50 -13 67 -42 67s-43 -17 -43 -67z" />
    <glyph glyph-name="minus.tab" horiz-adv-x="650" 
d="M107 279v90h438v-90h-438z" />
    <glyph glyph-name="f_b" horiz-adv-x="1020" 
d="M463 0v659c-39 3 -89 6 -142 6c-70 0 -92 -17 -92 -89v-42h164v-94h-164v-440h-105v440h-86v94h86v57c0 126 61 169 188 169c60 0 109 -5 151 -6h106v-303c27 52 72 93 174 93c145 0 220 -69 220 -266c0 -205 -74 -289 -227 -289c-93 0 -144 33 -171 80l-5 -69h-97z
M567 305v-70c0 -104 54 -155 145 -155c103 0 144 53 144 193c0 143 -48 181 -143 181c-101 0 -145 -57 -146 -149z" />
    <glyph glyph-name="f_f_b" horiz-adv-x="1359" 
d="M124 0v440h-86v94h86v57c0 126 61 169 188 169c44 0 72 -5 90 -10v-100c-16 7 -39 15 -82 15c-70 0 -91 -17 -91 -89v-42h235v57c0 126 61 169 187 169c60 0 109 -5 152 -6h105v-303c28 52 73 93 175 93c144 0 220 -69 220 -266c0 -205 -74 -289 -227 -289
c-93 0 -145 33 -172 80l-5 -69h-96v659c-39 3 -89 6 -143 6c-70 0 -91 -17 -91 -89v-42h164v-94h-164v-440h-106v440h-234v-440h-105zM906 305v-70c0 -104 54 -155 145 -155c103 0 144 53 144 193c0 143 -48 181 -143 181c-101 0 -145 -57 -146 -149z" />
    <glyph glyph-name="f_f_h" horiz-adv-x="1350" 
d="M124 0v440h-86v94h86v57c0 126 61 169 188 169c44 0 72 -5 90 -10v-100c-16 7 -39 15 -82 15c-70 0 -91 -17 -91 -89v-42h235v57c0 126 61 169 187 169c60 0 109 -5 152 -6h105v-301c26 59 85 91 175 91c129 0 184 -54 184 -187v-357h-105v339c0 82 -33 114 -121 114
c-90 0 -133 -40 -133 -138v-315h-105v659c-39 3 -89 6 -143 6c-70 0 -91 -17 -91 -89v-42h164v-94h-164v-440h-106v440h-234v-440h-105z" />
    <glyph glyph-name="f_f_j" horiz-adv-x="1009" 
d="M124 0v440h-86v94h86v57c0 126 61 169 188 169c44 0 72 -5 90 -10v-100c-16 7 -39 15 -82 15c-70 0 -91 -17 -91 -89v-42h235v57c0 126 58 169 178 169c37 0 68 -6 87 -9v-101c-20 6 -47 15 -78 15c-62 0 -82 -17 -82 -89v-42h339v-536c0 -126 -47 -184 -160 -184
c-40 0 -69 7 -84 13v100c19 -12 46 -18 72 -18c47 0 67 24 67 86v445h-234v-440h-106v440h-234v-440h-105zM789 701c0 33 17 59 65 59c49 0 67 -26 67 -59c0 -32 -18 -61 -67 -61c-48 0 -65 29 -65 61z" />
    <glyph glyph-name="f_f_k" horiz-adv-x="1299" 
d="M124 0v440h-86v94h86v57c0 126 61 169 188 169c44 0 72 -5 90 -10v-100c-16 7 -39 15 -82 15c-70 0 -91 -17 -91 -89v-42h235v57c0 126 61 169 187 169c60 0 109 -5 152 -6h105v-437h47l177 217h120l-210 -252l238 -282h-128l-198 232h-46v-232h-105v659
c-39 3 -89 6 -143 6c-70 0 -91 -17 -91 -89v-42h164v-94h-164v-440h-106v440h-234v-440h-105z" />
    <glyph glyph-name="f_h" horiz-adv-x="1011" 
d="M463 0v659c-39 3 -89 6 -142 6c-70 0 -92 -17 -92 -89v-42h164v-94h-164v-440h-105v440h-86v94h86v57c0 126 61 169 188 169c60 0 109 -5 151 -6h106v-301c25 59 84 91 175 91c128 0 184 -54 184 -187v-357h-105v339c0 82 -34 114 -122 114c-90 0 -132 -40 -132 -138
v-315h-106z" />
    <glyph glyph-name="f_j" horiz-adv-x="670" 
d="M449 701c0 33 17 59 66 59s66 -26 66 -59c0 -32 -17 -61 -66 -61s-66 29 -66 61zM463 -5v445h-234v-440h-105v440h-86v94h86v57c0 126 58 169 179 169c36 0 68 -6 87 -9v-101c-21 6 -48 15 -78 15c-63 0 -83 -17 -83 -89v-42h340v-536c0 -126 -48 -184 -160 -184
c-40 0 -70 7 -85 13v100c20 -12 47 -18 73 -18c47 0 66 24 66 86z" />
    <glyph glyph-name="f_k" horiz-adv-x="959" 
d="M463 754h106v-437h47l177 217h119l-209 -252l238 -282h-128l-199 232h-45v-232h-106v659c-39 3 -89 6 -142 6c-70 0 -92 -17 -92 -89v-42h164v-94h-164v-440h-105v440h-86v94h86v57c0 126 61 169 188 169c60 0 109 -5 151 -6z" />
    </font>
</defs>
</svg>
