<?xml version="1.0" standalone="no"?>
<!DOCTYPE svg PUBLIC "-//W3C//DTD SVG 1.1//EN" "http://www.w3.org/Graphics/SVG/1.1/DTD/svg11.dtd" >
<svg xmlns="http://www.w3.org/2000/svg" xmlns:xlink="http://www.w3.org/1999/xlink" version="1.1">
<metadata>
Created by FontForge 20190801 at Wed Apr 17 13:04:57 2019
 By Jimmy Wärting
Copyright (c) 2018 ParaType Inc., ParaType Ltd. All rights reserved.
</metadata>
<defs>
<font id="SBSansText-BoldItalic" horiz-adv-x="450" >
  <font-face 
    font-family="SB Sans Text"
    font-weight="700"
    font-style="italic"
    font-stretch="normal"
    units-per-em="1000"
    panose-1="2 11 8 3 4 5 4 2 9 4"
    ascent="801"
    descent="-199"
    x-height="540"
    cap-height="700"
    bbox="-286 -264 1495 958"
    underline-thickness="50"
    underline-position="-113"
    slope="-12"
    stemh="134"
    stemv="110"
    unicode-range="U+0020-FEFF"
  />
<missing-glyph horiz-adv-x="322" 
 />
    <glyph glyph-name="f_f" unicode="ff" horiz-adv-x="920" 
d="M489 0l87 406h-210l-87 -406h-160l87 406h-90l29 134h90l11 51c27 127 93 176 241 176c48 0 77 -5 104 -10l-29 -135c-11 4 -37 11 -71 11c-53 0 -78 -7 -89 -59l-8 -34h211l11 51c27 127 93 176 241 176c48 0 77 -5 104 -10l-29 -135c-11 4 -37 11 -71 11
c-53 0 -78 -7 -89 -59l-8 -34h145l-29 -134h-144l-87 -406h-160z" />
    <glyph glyph-name="fi" unicode="fi" horiz-adv-x="720" 
d="M645 0h-160l86 406h-205l-87 -406h-160l87 406h-90l29 134h90l11 51c27 127 93 176 234 176c33 0 65 -4 91 -10l-29 -135c-15 6 -44 11 -62 11c-42 0 -67 -7 -78 -59l-8 -34h366zM714 620c-65 0 -95 30 -95 80s30 80 95 80s95 -30 95 -80s-30 -80 -95 -80z" />
    <glyph glyph-name="fl" unicode="fl" horiz-adv-x="785" 
d="M656 -7c-91 0 -146 28 -146 102c0 16 3 35 7 56l102 477c-51 2 -90 5 -128 5c-53 0 -78 -7 -89 -59l-8 -34h103l-29 -134h-102l-87 -406h-160l87 406h-90l29 134h90l11 51c27 127 93 176 241 176c73 0 143 -7 320 -7l-124 -582c-2 -9 -3 -16 -3 -22c0 -24 14 -29 43 -29
c22 0 41 3 61 9l-27 -128c-16 -7 -53 -15 -101 -15z" />
    <glyph glyph-name="f_f_i" unicode="ffi" horiz-adv-x="1090" 
d="M489 0l87 406h-210l-87 -406h-160l87 406h-90l29 134h90l11 51c27 127 93 176 241 176c48 0 77 -5 104 -10l-29 -135c-11 4 -37 11 -71 11c-53 0 -78 -7 -89 -59l-8 -34h211l11 51c27 127 93 176 234 176c33 0 65 -4 91 -10l-29 -135c-15 6 -44 11 -62 11
c-42 0 -67 -7 -78 -59l-8 -34h366l-115 -540h-160l86 406h-205l-87 -406h-160zM1084 620c-65 0 -95 30 -95 80s30 80 95 80s95 -30 95 -80s-30 -80 -95 -80z" />
    <glyph glyph-name="f_f_l" unicode="ffl" horiz-adv-x="1155" 
d="M489 0l87 406h-210l-87 -406h-160l87 406h-90l29 134h90l11 51c27 127 93 176 241 176c48 0 77 -5 104 -10l-29 -135c-11 4 -37 11 -71 11c-53 0 -78 -7 -89 -59l-8 -34h211l11 51c27 127 93 176 241 176c73 0 143 -7 320 -7l-124 -582c-2 -9 -3 -16 -3 -22
c0 -24 14 -29 43 -29c22 0 41 3 61 9l-27 -128c-16 -7 -53 -15 -101 -15c-91 0 -146 28 -146 102c0 16 3 35 7 56l102 477c-51 2 -90 5 -128 5c-53 0 -78 -7 -89 -59l-8 -34h103l-29 -134h-102l-87 -406h-160z" />
    <glyph glyph-name=".notdef" horiz-adv-x="322" 
 />
    <glyph glyph-name="space" unicode=" " horiz-adv-x="260" 
 />
    <glyph glyph-name="exclam" unicode="!" horiz-adv-x="400" 
d="M179 240l81 460h178l-116 -460h-143zM219 -7c-68 0 -100 32 -100 97s32 97 100 97s100 -32 100 -97s-32 -97 -100 -97z" />
    <glyph glyph-name="quotedbl" unicode="&#x22;" horiz-adv-x="540" 
d="M309 420h-120l60 280h120zM529 420h-120l60 280h120z" />
    <glyph glyph-name="numbersign" unicode="#" horiz-adv-x="680" 
d="M400 0l38 180h-121l-38 -180h-120l38 180h-102l23 110h103l25 120h-102l23 110h103l38 180h120l-38 -180h121l38 180h120l-38 -180h103l-23 -110h-104l-25 -120h103l-23 -110h-104l-38 -180h-120zM366 410l-25 -120h121l25 120h-121z" />
    <glyph glyph-name="dollar" unicode="$" horiz-adv-x="630" 
d="M232 -120l23 109c-70 8 -146 30 -187 56l34 159c51 -51 136 -82 217 -82c89 0 137 27 137 75c0 113 -298 71 -298 285c0 128 97 215 251 230l19 88h124l-19 -91c63 -7 125 -24 159 -43l-34 -158c-47 40 -122 70 -198 70c-84 0 -126 -19 -126 -64c0 -117 298 -83 298 -289
c0 -135 -91 -217 -253 -235l-23 -110h-124z" />
    <glyph glyph-name="percent" unicode="%" horiz-adv-x="960" 
d="M711 -7c-86 0 -162 39 -162 132c0 137 98 212 229 212c85 0 160 -38 160 -131c0 -134 -96 -213 -227 -213zM726 83c66 0 102 44 102 105c0 38 -25 59 -66 59c-67 0 -103 -41 -103 -104c0 -37 25 -60 67 -60zM333 363c-86 0 -162 39 -162 132c0 137 98 212 229 212
c85 0 160 -38 160 -131c0 -134 -96 -213 -227 -213zM348 453c66 0 102 44 102 105c0 38 -25 59 -66 59c-67 0 -103 -41 -103 -104c0 -37 25 -60 67 -60zM307 0h-128l622 700h128z" />
    <glyph glyph-name="ampersand" unicode="&#x26;" horiz-adv-x="870" 
d="M826 122l-30 -136c-79 0 -159 31 -216 81c-64 -53 -144 -81 -241 -81c-141 0 -223 94 -223 208c0 116 84 192 203 222c-11 30 -17 64 -17 95c0 128 78 203 219 203c127 0 176 -69 176 -140c0 -116 -118 -174 -227 -204c32 -67 62 -114 126 -161c70 56 125 159 147 271
h136c-23 -119 -99 -251 -186 -324c32 -18 89 -34 133 -34zM271 209c0 -56 35 -99 108 -99c46 0 83 11 113 28c-63 48 -108 116 -135 185c-60 -16 -86 -61 -86 -114zM426 517c0 -19 4 -40 9 -54c67 23 128 48 128 97c0 24 -17 45 -55 45c-59 0 -82 -33 -82 -88z" />
    <glyph glyph-name="quotesingle" unicode="'" horiz-adv-x="320" 
d="M309 420h-120l60 280h120z" />
    <glyph glyph-name="parenleft" unicode="(" horiz-adv-x="390" 
d="M272 -194c-74 60 -161 192 -161 369c0 238 140 469 346 599l67 -74c-147 -125 -269 -311 -269 -525c0 -134 45 -237 93 -302z" />
    <glyph glyph-name="parenright" unicode=")" horiz-adv-x="390" 
d="M241 774c74 -60 161 -192 161 -369c0 -238 -140 -469 -346 -599l-67 74c147 125 269 311 269 525c0 134 -45 237 -93 302z" />
    <glyph glyph-name="asterisk" unicode="*" horiz-adv-x="560" 
d="M212 355l106 112l-148 29l34 116l141 -63l-19 151h119l-19 -150l140 62l33 -116l-147 -29l106 -112l-97 -66l-76 131l-76 -131z" />
    <glyph glyph-name="plus" unicode="+" horiz-adv-x="630" 
d="M316 95v163h-163v134h163v163h134v-163h163v-134h-163v-163h-134z" />
    <glyph glyph-name="comma" unicode="," horiz-adv-x="360" 
d="M34 -106c64 9 120 49 140 100c-50 0 -80 34 -80 91c0 66 40 103 111 103c60 0 99 -40 99 -103c0 -135 -85 -243 -218 -279z" />
    <glyph glyph-name="hyphen" unicode="-" horiz-adv-x="490" 
d="M133 223l26 124h320l-26 -124h-320z" />
    <glyph glyph-name="period" unicode="." horiz-adv-x="360" 
d="M199 -7c-68 0 -100 32 -100 97s32 97 100 97s100 -32 100 -97s-32 -97 -100 -97z" />
    <glyph glyph-name="slash" unicode="/" horiz-adv-x="410" 
d="M-28 -180l447 930h140l-447 -930h-140z" />
    <glyph glyph-name="zero" unicode="0" horiz-adv-x="630" 
d="M311 -14c-145 0 -211 78 -211 220c0 100 32 251 92 356c62 108 151 152 275 152c147 0 210 -77 210 -215c0 -111 -26 -217 -60 -301c-67 -163 -167 -212 -306 -212zM344 116c56 0 94 37 123 127c25 75 46 188 46 242c0 61 -22 99 -78 99c-63 0 -97 -45 -124 -128
c-24 -73 -47 -167 -47 -240c0 -66 24 -100 80 -100z" />
    <glyph glyph-name="one" unicode="1" horiz-adv-x="630" 
d="M88 134h211l82 385l-236 -117l32 149l293 151h113l-121 -568h136l-28 -134h-510z" />
    <glyph glyph-name="two" unicode="2" horiz-adv-x="630" 
d="M55 0l22 104c105 69 183 122 242 167c147 112 188 152 188 208c0 72 -28 101 -127 101c-77 0 -148 -34 -209 -73l34 161c62 26 144 46 238 46c168 0 224 -86 224 -190c0 -127 -59 -188 -242 -322c-29 -22 -64 -47 -95 -60h265l-30 -142h-510z" />
    <glyph glyph-name="three" unicode="3" horiz-adv-x="630" 
d="M58 38l34 151c45 -37 121 -69 202 -69c102 0 163 21 163 102c0 45 -34 69 -123 69h-75l27 128h63c104 0 159 23 159 85c0 52 -30 76 -120 76c-73 0 -161 -25 -221 -58l34 149c70 27 173 43 254 43c166 0 217 -68 217 -155c0 -101 -64 -173 -178 -201
c86 -14 127 -57 127 -142c0 -88 -47 -152 -122 -191c-65 -34 -129 -39 -215 -39c-85 0 -172 25 -226 52z" />
    <glyph glyph-name="four" unicode="4" horiz-adv-x="630" 
d="M54 159l18 86l381 455h208l-87 -407h78l-28 -134h-78l-34 -159h-160l34 159h-332zM272 292h144l51 242z" />
    <glyph glyph-name="five" unicode="5" horiz-adv-x="630" 
d="M146 312l107 388h426l-29 -134h-299l-34 -118c25 4 81 6 111 6c152 0 202 -78 202 -182c0 -196 -147 -286 -337 -286c-82 0 -158 16 -217 40l32 149c35 -23 108 -55 191 -55c86 0 167 32 167 123c0 77 -71 87 -153 87c-50 0 -126 -9 -167 -18z" />
    <glyph glyph-name="six" unicode="6" horiz-adv-x="630" 
d="M689 681l-33 -147c-30 22 -73 46 -159 46c-145 0 -218 -90 -242 -219c46 57 99 103 201 103c127 0 194 -78 194 -193c0 -178 -124 -285 -314 -285c-166 0 -243 85 -243 241c0 164 65 346 198 432c62 40 140 55 231 55c63 0 123 -13 167 -33zM345 120c91 0 141 55 141 130
c0 58 -31 90 -94 90c-83 0 -135 -51 -135 -123c0 -62 28 -97 88 -97z" />
    <glyph glyph-name="seven" unicode="7" horiz-adv-x="630" 
d="M125 0l378 566h-338l29 134h535l-19 -86l-397 -614h-188z" />
    <glyph glyph-name="eight" unicode="8" horiz-adv-x="630" 
d="M303 -14c-121 0 -231 47 -231 184c0 112 72 185 179 204c-63 21 -90 57 -90 126c0 160 156 216 291 216c122 0 241 -48 241 -170c0 -92 -58 -155 -156 -180c73 -16 105 -66 105 -139c0 -91 -42 -159 -121 -200c-61 -32 -150 -41 -218 -41zM341 119c73 0 137 26 137 106
c0 65 -49 88 -103 88c-70 0 -139 -32 -139 -109c0 -59 47 -85 105 -85zM438 582c-65 0 -113 -26 -113 -97c0 -44 33 -72 82 -72c68 0 122 26 122 101c0 55 -44 68 -91 68z" />
    <glyph glyph-name="nine" unicode="9" horiz-adv-x="630" 
d="M265 -14c-64 0 -135 16 -177 35l31 151c21 -16 92 -52 173 -52c144 0 204 91 230 219c-36 -57 -101 -102 -195 -102c-124 0 -204 70 -204 189c0 84 32 155 82 205c54 54 119 83 224 83c181 0 256 -103 256 -276c0 -137 -49 -257 -97 -314c-74 -89 -167 -138 -323 -138z
M385 361c85 0 136 43 136 122c0 62 -37 97 -97 97c-96 0 -137 -61 -137 -134c0 -57 42 -85 98 -85z" />
    <glyph glyph-name="colon" unicode=":" horiz-adv-x="380" 
d="M209 -7c-68 0 -100 32 -100 97s32 97 100 97s100 -32 100 -97s-32 -97 -100 -97zM282 333c-68 0 -100 32 -100 97s32 97 100 97s100 -32 100 -97s-32 -97 -100 -97z" />
    <glyph glyph-name="semicolon" unicode=";" horiz-adv-x="380" 
d="M44 -106c64 9 120 49 140 100c-50 0 -80 34 -80 91c0 66 40 103 111 103c60 0 99 -40 99 -103c0 -135 -85 -243 -218 -279zM282 333c-68 0 -100 32 -100 97s32 97 100 97s100 -32 100 -97s-32 -97 -100 -97z" />
    <glyph glyph-name="less" unicode="&#x3c;" horiz-adv-x="630" 
d="M595 95l-460 163v134l460 163v-134l-280 -92v-2l280 -92v-140z" />
    <glyph glyph-name="equal" unicode="=" horiz-adv-x="630" 
d="M153 282h460v-134h-460v134zM153 502h460v-134h-460v134z" />
    <glyph glyph-name="greater" unicode="&#x3e;" horiz-adv-x="630" 
d="M172 95v134l280 92v2l-280 92v140l460 -163v-135z" />
    <glyph glyph-name="question" unicode="?" horiz-adv-x="580" 
d="M372 240h-145c25 166 235 159 235 275c0 33 -27 57 -87 57c-81 0 -139 -22 -188 -45l31 146c48 18 123 41 213 41c139 0 207 -68 207 -156c0 -210 -247 -202 -266 -318zM268 -7c-68 0 -100 32 -100 97s32 97 100 97s100 -32 100 -97s-32 -97 -100 -97z" />
    <glyph glyph-name="at" unicode="@" horiz-adv-x="990" 
d="M578 -134c-291 0 -436 186 -436 419c0 231 149 429 434 429c245 0 406 -148 406 -387c0 -157 -87 -262 -213 -262c-101 0 -137 33 -149 87c-30 -61 -72 -87 -135 -87c-90 0 -137 53 -137 144c0 95 30 225 115 281c26 18 58 28 95 28c63 0 96 -25 104 -70l26 60h109
l-51 -238c-10 -46 -14 -63 -14 -74c0 -27 15 -38 48 -38c56 0 106 37 106 166c0 184 -104 304 -311 304c-231 0 -337 -153 -337 -343c0 -164 87 -333 341 -333c64 0 142 17 189 48v-99c-60 -22 -121 -35 -190 -35zM472 213c0 -27 12 -52 46 -52c36 0 63 18 84 64
c20 44 36 106 36 147c0 37 -18 50 -49 50c-23 0 -43 -7 -60 -23c-38 -38 -57 -134 -57 -186z" />
    <glyph glyph-name="A" unicode="A" horiz-adv-x="700" 
d="M10 0l390 700h195l95 -700h-162l-18 147h-252l-78 -147h-170zM464 531l-133 -248h163z" />
    <glyph glyph-name="B" unicode="B" horiz-adv-x="696" 
d="M91 1l148 698c104 5 179 8 226 8c114 0 266 -4 266 -158c0 -98 -37 -161 -151 -190c74 -14 115 -49 115 -142c0 -95 -46 -158 -117 -189c-77 -34 -212 -35 -243 -35c-45 0 -164 0 -244 8zM317 297l-35 -165c30 -2 62 -3 85 -3c108 0 152 22 152 99c0 56 -15 69 -134 69
h-68zM341 411h102c75 0 112 30 112 93c0 51 -20 67 -98 67c-23 0 -46 -3 -83 -5z" />
    <glyph glyph-name="C" unicode="C" horiz-adv-x="654" 
d="M750 670l-33 -156c-48 34 -107 58 -184 58c-54 0 -96 -16 -128 -38c-72 -51 -111 -183 -111 -267c0 -94 61 -139 162 -139c87 0 156 28 196 52l-33 -157c-59 -24 -119 -37 -214 -37c-160 0 -287 71 -287 251c0 127 58 330 188 418c62 42 148 59 230 59
c90 0 166 -20 214 -44z" />
    <glyph glyph-name="D" unicode="D" horiz-adv-x="770" 
d="M313 -7c-87 0 -154 4 -223 9l148 697c86 5 150 8 248 8c197 0 307 -93 307 -261c0 -145 -42 -268 -117 -342c-79 -78 -188 -111 -363 -111zM283 140c24 -3 43 -5 69 -5c71 0 130 15 170 43c57 40 95 134 95 236c0 92 -42 151 -161 151c-30 0 -57 -2 -84 -5z" />
    <glyph glyph-name="E" unicode="E" horiz-adv-x="635" 
d="M90 0l149 700h490l-30 -142h-326l-29 -137h285l-28 -132h-286l-31 -147h326l-30 -142h-490z" />
    <glyph glyph-name="F" unicode="F" horiz-adv-x="615" 
d="M90 0l149 700h469l-31 -142h-305l-33 -155h292l-31 -142h-291l-55 -261h-164z" />
    <glyph glyph-name="G" unicode="G" horiz-adv-x="720" 
d="M436 -14c-199 0 -314 81 -314 276c0 142 69 305 169 379c77 57 161 73 267 73c91 0 183 -25 218 -44l-33 -153c-40 27 -116 55 -197 55c-58 0 -114 -15 -155 -51c-54 -47 -93 -158 -93 -235c0 -118 60 -158 163 -158c45 0 77 7 103 14l26 123h-129l28 132h273l-76 -357
c-37 -19 -132 -54 -250 -54z" />
    <glyph glyph-name="H" unicode="H" horiz-adv-x="800" 
d="M90 0l149 700h164l-57 -269h292l57 269h164l-149 -700h-164l61 289h-292l-61 -289h-164z" />
    <glyph glyph-name="I" unicode="I" horiz-adv-x="354" 
d="M95 0l149 700h164l-149 -700h-164z" />
    <glyph glyph-name="J" unicode="J" horiz-adv-x="460" 
d="M163 -7c-47 0 -93 12 -132 30l32 151c32 -23 59 -39 95 -39c54 0 83 29 98 101l99 464h164l-103 -485c-34 -160 -106 -222 -253 -222z" />
    <glyph glyph-name="K" unicode="K" horiz-adv-x="730" 
d="M533 0l-139 284h-79l-60 -284h-164l148 700h164l-58 -274h62l241 274h192l-308 -341l178 -359h-177z" />
    <glyph glyph-name="L" unicode="L" horiz-adv-x="585" 
d="M90 0l149 700h164l-119 -558h306l-30 -142h-470z" />
    <glyph glyph-name="M" unicode="M" horiz-adv-x="942" 
d="M91 0l148 700h224l74 -373l228 373h235l-148 -700h-160l83 394c9 41 21 87 33 132c-28 -46 -57 -94 -79 -131l-159 -255h-136l-51 254c-8 41 -18 87 -26 132c-6 -44 -14 -91 -22 -131l-84 -395h-160z" />
    <glyph glyph-name="N" unicode="N" horiz-adv-x="802" 
d="M91 0l148 700h170l153 -381c15 -37 30 -69 40 -109c2 40 5 71 13 110l81 380h164l-148 -700h-170l-154 380c-16 40 -27 70 -36 110c-3 -40 -7 -70 -16 -110l-81 -380h-164z" />
    <glyph glyph-name="O" unicode="O" horiz-adv-x="810" 
d="M397 -14c-159 0 -278 80 -278 249c0 131 48 305 158 397c74 62 170 82 274 82c165 0 287 -70 287 -250c0 -134 -47 -309 -145 -388c-88 -71 -187 -90 -296 -90zM434 128c59 0 108 15 144 55c48 53 84 159 84 248c0 96 -45 141 -138 141c-52 0 -99 -12 -135 -45
c-59 -54 -94 -176 -94 -263c0 -99 52 -136 139 -136z" />
    <glyph glyph-name="P" unicode="P" horiz-adv-x="680" 
d="M90 0l148 698c62 5 137 9 241 9c180 0 259 -71 259 -202c0 -133 -58 -220 -139 -267c-61 -35 -137 -45 -231 -45c-24 0 -54 3 -72 5l-42 -198h-164zM325 339c26 -3 43 -4 72 -4c52 0 89 2 117 24c32 25 48 74 48 122c0 57 -28 84 -115 84c-27 0 -47 0 -74 -3z" />
    <glyph glyph-name="Q" unicode="Q" horiz-adv-x="810" 
d="M397 -14c-159 0 -278 80 -278 249c0 131 48 305 158 397c74 62 170 82 274 82c165 0 287 -70 287 -250c0 -134 -47 -309 -145 -388c-37 -30 -75 -50 -115 -64l122 -172h-191l-103 146h-9zM434 128c59 0 108 15 144 55c48 53 84 159 84 248c0 96 -45 141 -138 141
c-52 0 -99 -12 -135 -45c-59 -54 -94 -176 -94 -263c0 -99 52 -136 139 -136z" />
    <glyph glyph-name="R" unicode="R" horiz-adv-x="700" 
d="M91 0l148 699c86 6 151 8 219 8c154 0 258 -44 258 -207c0 -115 -56 -217 -163 -243l122 -257h-177l-105 234h-88l-50 -234h-164zM332 365h74c84 0 134 29 134 117c0 61 -46 83 -89 83c-24 0 -51 -1 -77 -4z" />
    <glyph glyph-name="S" unicode="S" horiz-adv-x="640" 
d="M313 -14c-81 0 -188 26 -240 59l34 159c51 -51 136 -82 217 -82c89 0 137 27 137 75c0 113 -298 71 -298 285c0 141 118 232 299 232c85 0 188 -21 235 -48l-34 -158c-47 40 -122 70 -198 70c-84 0 -126 -19 -126 -64c0 -117 298 -83 298 -289
c0 -153 -118 -239 -324 -239z" />
    <glyph glyph-name="T" unicode="T" horiz-adv-x="620" 
d="M228 0l119 558h-203l30 142h570l-30 -142h-203l-119 -558h-164z" />
    <glyph glyph-name="U" unicode="U" horiz-adv-x="750" 
d="M378 -14c-153 0 -240 72 -240 200c0 43 9 106 23 170l73 344h164l-78 -364c-14 -65 -15 -103 -15 -123c0 -61 46 -85 103 -85c78 0 126 28 155 164l87 408h164l-89 -418c-51 -240 -151 -296 -347 -296z" />
    <glyph glyph-name="V" unicode="V" horiz-adv-x="700" 
d="M246 0l-77 700h169l46 -521l265 521h180l-372 -700h-211z" />
    <glyph glyph-name="W" unicode="W" horiz-adv-x="1020" 
d="M179 0v700h172l-7 -378c0 -43 -3 -80 -6 -123c17 43 33 83 52 123l174 378h184l13 -373c1 -43 1 -83 0 -127c15 44 29 83 47 126l152 374h179l-298 -700h-209l-18 485l-225 -485h-210z" />
    <glyph glyph-name="X" unicode="X" horiz-adv-x="710" 
d="M20 0l285 361l-119 339h180l76 -228l179 228h203l-272 -339l138 -361h-185l-96 252l-188 -252h-201z" />
    <glyph glyph-name="Y" unicode="Y" horiz-adv-x="670" 
d="M253 0l54 252l-148 448h178l85 -266l192 266h195l-338 -448l-54 -252h-164z" />
    <glyph glyph-name="Z" unicode="Z" horiz-adv-x="650" 
d="M54 0l20 94l411 464h-302l30 142h532l-20 -94l-411 -464h322l-30 -142h-552z" />
    <glyph glyph-name="bracketleft" unicode="[" horiz-adv-x="390" 
d="M42 -180l198 930h290l-24 -114h-149l-150 -702h149l-24 -114h-290z" />
    <glyph glyph-name="backslash" unicode="\" horiz-adv-x="410" 
d="M330 -180l-260 930h130l260 -930h-130z" />
    <glyph glyph-name="bracketright" unicode="]" horiz-adv-x="390" 
d="M-19 -180l24 114h149l150 702h-149l24 114h290l-198 -930h-290z" />
    <glyph glyph-name="asciicircum" unicode="^" horiz-adv-x="630" 
d="M139 346l183 354h133l184 -354h-125l-125 244l-125 -244h-125z" />
    <glyph glyph-name="underscore" unicode="_" 
d="M-28 -86h450v-94h-450v94z" />
    <glyph glyph-name="grave" unicode="`" horiz-adv-x="344" 
d="M468 630h-120l-170 160h190z" />
    <glyph glyph-name="a" unicode="a" horiz-adv-x="690" 
d="M475 0l1 85c-33 -50 -82 -99 -181 -99c-124 0 -200 76 -200 210c0 179 81 358 287 358c112 0 151 -51 170 -101l38 87h140l-115 -540h-140zM259 227c0 -79 49 -107 113 -107c76 0 117 37 136 130l6 29c4 18 5 34 5 45c0 71 -38 96 -103 96c-114 0 -157 -90 -157 -193z
" />
    <glyph glyph-name="b" unicode="b" horiz-adv-x="689" 
d="M76 0l161 760h160l-61 -285c35 40 88 79 178 79c123 0 197 -73 197 -207c0 -179 -79 -361 -289 -361c-97 0 -153 59 -172 106l-34 -92h-140zM392 120c105 0 155 98 155 196c0 77 -47 104 -111 104c-75 0 -118 -39 -136 -127l-6 -29c-20 -97 37 -144 98 -144z" />
    <glyph glyph-name="c" unicode="c" horiz-adv-x="570" 
d="M557 170l-31 -135c-34 -22 -90 -49 -181 -49c-141 0 -250 61 -250 215c0 232 135 353 350 353c87 0 144 -21 174 -40l-34 -142c-31 26 -83 48 -146 48c-114 0 -180 -64 -180 -192c0 -70 53 -108 144 -108c63 0 112 22 154 50z" />
    <glyph glyph-name="d" unicode="d" horiz-adv-x="690" 
d="M476 0l2 85c-33 -50 -84 -99 -183 -99c-123 0 -200 73 -200 210c0 179 82 358 292 358c106 0 148 -40 167 -90l64 296h160l-162 -760h-140zM259 227c0 -80 50 -107 114 -107c75 0 117 39 136 130l6 29c20 96 -22 141 -98 141c-114 0 -158 -96 -158 -193z" />
    <glyph glyph-name="e" unicode="e" horiz-adv-x="610" 
d="M348 -14c-173 0 -256 87 -256 206c0 217 124 362 344 362c162 0 217 -61 217 -144c0 -79 -46 -180 -311 -180h-90c-1 -7 -2 -17 -2 -27c0 -65 43 -95 134 -95c78 0 164 30 212 70l-28 -132c-36 -28 -123 -60 -220 -60zM361 322c104 0 128 30 128 64c0 27 -13 46 -69 46
c-90 0 -131 -35 -150 -110h91z" />
    <glyph glyph-name="f" unicode="f" horiz-adv-x="460" 
d="M116 406l29 134h90l11 51c27 127 93 176 241 176c48 0 77 -5 104 -10l-29 -135c-11 4 -37 11 -71 11c-53 0 -78 -7 -89 -59l-8 -34h145l-29 -134h-144l-87 -406h-160l87 406h-90z" />
    <glyph glyph-name="g" unicode="g" horiz-adv-x="690" 
d="M260 -204c-89 0 -163 15 -201 30l32 144c29 -21 92 -46 200 -46c113 0 165 61 180 136l13 65c-33 -50 -83 -99 -183 -99c-123 0 -203 55 -203 202s77 326 287 326c107 0 149 -40 168 -90l37 76h140l-100 -470c-41 -195 -160 -274 -370 -274zM379 154c88 0 121 55 132 106
l6 29c20 97 -25 137 -102 137c-108 0 -145 -79 -145 -167c0 -72 39 -105 109 -105z" />
    <glyph glyph-name="h" unicode="h" horiz-adv-x="680" 
d="M75 0l162 760h161l-63 -295c39 58 103 89 195 89c111 0 164 -42 164 -129c0 -22 -3 -43 -9 -71l-75 -354h-160l67 317c3 16 4 30 4 41c0 45 -27 62 -86 62c-81 0 -119 -36 -136 -117l-64 -303h-160z" />
    <glyph glyph-name="i" unicode="i" horiz-adv-x="320" 
d="M240 0h-160l115 540h160zM309 620c-65 0 -95 30 -95 80s30 80 95 80s95 -30 95 -80s-30 -80 -95 -80z" />
    <glyph glyph-name="j" unicode="j" horiz-adv-x="320" 
d="M-68 -172l28 131c13 -6 32 -11 54 -11c38 0 57 14 65 52l116 540h160l-117 -545c-28 -129 -88 -182 -210 -182c-53 0 -83 9 -96 15zM309 620c-65 0 -95 30 -95 80s30 80 95 80s95 -30 95 -80s-30 -80 -95 -80z" />
    <glyph glyph-name="k" unicode="k" horiz-adv-x="640" 
d="M75 0l162 760h160l-87 -413h47l165 193h193l-241 -265l146 -275h-185l-107 213h-47l-46 -213h-160z" />
    <glyph glyph-name="l" unicode="l" horiz-adv-x="375" 
d="M246 -7c-91 0 -146 28 -146 102c0 16 3 35 7 56l130 609h160l-124 -582c-2 -9 -3 -16 -3 -22c0 -24 14 -29 43 -29c22 0 41 3 61 9l-27 -128c-16 -7 -53 -15 -101 -15z" />
    <glyph glyph-name="m" unicode="m" horiz-adv-x="970" 
d="M75 0l115 540h140l-2 -82c45 67 110 96 187 96c84 0 129 -38 132 -105c45 75 114 105 201 105c95 0 138 -41 138 -120c0 -19 -2 -40 -7 -63l-79 -371h-160l70 327c3 14 5 27 5 37c0 40 -21 56 -72 56c-58 0 -93 -29 -108 -100l-68 -320h-160l70 329c3 14 5 26 5 36
c0 41 -24 55 -70 55c-61 0 -94 -30 -109 -99l-68 -321h-160z" />
    <glyph glyph-name="n" unicode="n" horiz-adv-x="680" 
d="M75 0l115 540h140l2 -76c48 66 120 90 198 90c106 0 164 -37 164 -129c0 -19 -3 -41 -8 -66l-76 -359h-160l65 305c4 20 6 38 6 52c0 47 -26 63 -87 63c-78 0 -119 -38 -135 -116l-64 -304h-160z" />
    <glyph glyph-name="o" unicode="o" horiz-adv-x="670" 
d="M95 215c0 189 120 339 340 339c134 0 255 -60 255 -219c0 -203 -109 -349 -335 -349c-170 0 -260 90 -260 229zM259 222c0 -63 33 -102 112 -102c114 0 155 126 155 210c0 63 -40 90 -108 90c-110 0 -159 -100 -159 -198z" />
    <glyph glyph-name="p" unicode="p" horiz-adv-x="690" 
d="M37 -180l156 720h140l-2 -82c33 50 82 96 182 96c123 0 198 -75 198 -209c0 -179 -80 -359 -290 -359c-97 0 -150 46 -169 93l-55 -259h-160zM391 120c105 0 156 97 156 196c0 78 -48 104 -112 104c-75 0 -117 -42 -135 -127l-6 -29c-20 -98 36 -144 97 -144z" />
    <glyph glyph-name="q" unicode="q" horiz-adv-x="690" 
d="M417 -180l57 265c-33 -50 -82 -99 -182 -99c-123 0 -198 76 -198 210c0 179 80 358 290 358c107 0 150 -40 169 -90l37 76h140l-153 -720h-160zM258 227c0 -78 48 -107 112 -107c75 0 124 44 139 130l5 29c17 99 -23 141 -100 141c-114 0 -156 -94 -156 -193z" />
    <glyph glyph-name="r" unicode="r" horiz-adv-x="475" 
d="M75 0l115 540h140l2 -77c38 58 97 91 166 91c22 0 40 -3 58 -7l-33 -155c-17 17 -45 28 -89 28c-80 0 -119 -45 -138 -133l-61 -287h-160z" />
    <glyph glyph-name="s" unicode="s" horiz-adv-x="560" 
d="M64 21l32 149c36 -33 102 -60 181 -60c72 0 102 17 102 57c0 67 -244 25 -244 179c0 167 136 208 280 208c58 0 121 -6 168 -22l-30 -146c-39 27 -85 44 -159 44c-63 0 -95 -16 -95 -46c0 -67 244 -19 244 -176c0 -171 -140 -222 -288 -222c-58 0 -132 10 -191 35z" />
    <glyph glyph-name="t" unicode="t" horiz-adv-x="510" 
d="M167 179l48 227h-98l28 134h98l20 92l171 53l-31 -145h171l-28 -134h-171l-43 -202c-3 -13 -4 -23 -4 -33c0 -37 20 -44 61 -44c39 0 74 11 103 27l-28 -134c-26 -12 -79 -27 -146 -27c-110 0 -160 38 -160 122c0 21 3 37 9 64z" />
    <glyph glyph-name="u" unicode="u" horiz-adv-x="670" 
d="M111 191l75 349h160l-66 -310c-4 -17 -6 -32 -6 -45c0 -44 25 -62 82 -62c72 0 112 34 129 114l65 303h160l-115 -540h-140l-4 79c-50 -63 -111 -90 -197 -90c-102 0 -152 39 -152 128c0 22 3 46 9 74z" />
    <glyph glyph-name="v" unicode="v" horiz-adv-x="610" 
d="M389 0h-169l-90 540h175l38 -358l190 358h177z" />
    <glyph glyph-name="w" unicode="w" horiz-adv-x="900" 
d="M156 0l-16 540h163l-3 -365l186 365h151l30 -365l153 365h170l-249 -540h-194l-25 335l-172 -335h-194z" />
    <glyph glyph-name="x" unicode="x" horiz-adv-x="620" 
d="M20 0l239 278l-111 262h173l67 -163l139 163h178l-226 -260l121 -280h-174l-77 176l-150 -176h-179z" />
    <glyph glyph-name="y" unicode="y" horiz-adv-x="600" 
d="M82 -181l30 139c15 -9 40 -18 65 -18c29 0 47 14 69 58l-116 542h177l50 -348l173 348h170l-294 -526c-93 -167 -151 -208 -241 -208c-30 0 -66 5 -83 13z" />
    <glyph glyph-name="z" unicode="z" horiz-adv-x="580" 
d="M44 0l21 100l329 306h-255l29 134h472l-21 -100l-329 -306h274l-29 -134h-491z" />
    <glyph glyph-name="braceleft" unicode="{" horiz-adv-x="420" 
d="M362 -180h-91c-135 0 -164 62 -164 126c0 17 6 49 10 67l24 114c3 12 4 22 4 32c0 48 -30 72 -75 75l21 102c56 4 103 40 117 108l27 127c18 85 64 179 231 179h93l-24 -114h-74c-46 0 -75 -13 -87 -73l-27 -131c-15 -73 -53 -134 -135 -152c58 -12 76 -49 76 -98
c0 -15 -2 -30 -5 -47l-24 -116c-4 -21 -6 -35 -6 -44c0 -39 17 -41 52 -41h81z" />
    <glyph glyph-name="bar" unicode="|" horiz-adv-x="300" 
d="M182 -180h-140l197 930h140z" />
    <glyph glyph-name="braceright" unicode="}" horiz-adv-x="420" 
d="M-18 -180l24 114h74c46 0 75 13 87 73l27 131c15 73 53 134 135 152c-58 12 -76 49 -76 98c0 15 2 30 5 47l24 116c4 21 6 35 6 44c0 39 -17 41 -52 41h-81l24 114h91c135 0 164 -62 164 -126c0 -17 -6 -49 -10 -67l-24 -114c-3 -12 -4 -22 -4 -32c0 -48 30 -72 75 -75
l-21 -102c-56 -4 -103 -40 -117 -108l-27 -127c-18 -85 -64 -179 -231 -179h-93z" />
    <glyph glyph-name="asciitilde" unicode="~" horiz-adv-x="630" 
d="M496 220c-85 0 -149 76 -225 76c-43 0 -96 -27 -118 -54v130c30 34 73 58 120 58c86 0 163 -76 236 -76c36 0 75 15 104 48v-130c-24 -26 -66 -52 -117 -52z" />
    <glyph glyph-name="uni00A0" unicode="&#xa0;" horiz-adv-x="260" 
 />
    <glyph glyph-name="exclamdown" unicode="&#xa1;" horiz-adv-x="400" 
d="M336 300l-85 -480h-178l120 480h143zM295 353c-68 0 -100 32 -100 97s32 97 100 97s100 -32 100 -97s-32 -97 -100 -97z" />
    <glyph glyph-name="cent" unicode="&#xa2;" horiz-adv-x="630" 
d="M596 170l-31 -135c-30 -19 -75 -42 -152 -48l-23 -107h-114l24 112c-112 17 -186 81 -186 209c0 212 113 332 305 350l19 89h114l-19 -89c62 -7 101 -23 125 -37l-34 -142c-31 26 -83 48 -156 48c-124 0 -190 -64 -190 -192c0 -70 53 -108 154 -108c73 0 122 22 164 50z
" />
    <glyph glyph-name="sterling" unicode="&#xa3;" horiz-adv-x="630" 
d="M135 305l23 110h79l14 62c34 159 136 237 304 237c50 0 104 -7 152 -20l-30 -141c-47 14 -83 19 -120 19c-89 0 -128 -30 -145 -110l-10 -47h157l-23 -110h-158l-35 -163h247l-30 -142h-490l30 142h79l35 163h-79z" />
    <glyph glyph-name="currency" unicode="&#xa4;" horiz-adv-x="630" 
d="M198 97l-63 64l61 64c-22 34 -37 78 -37 130c0 51 15 95 38 129l-62 65l63 64l63 -64c33 23 78 38 128 38c52 0 96 -16 128 -38l64 65l64 -64l-63 -66c22 -33 38 -79 38 -129c0 -51 -16 -96 -38 -130l63 -64l-64 -64l-63 63c-33 -23 -78 -39 -129 -39s-96 16 -129 39z
M261 354c0 -76 59 -132 128 -132c70 0 130 56 130 132s-60 132 -130 132c-69 0 -128 -56 -128 -132z" />
    <glyph glyph-name="yen" unicode="&#xa5;" horiz-adv-x="630" 
d="M121 280l23 110h114l-99 310h178l73 -250l164 250h195l-230 -310h114l-23 -110h-172l-14 -65h172l-23 -110h-173l-23 -105h-164l23 105h-172l23 110h173l14 65h-173z" />
    <glyph glyph-name="brokenbar" unicode="&#xa6;" horiz-adv-x="300" 
d="M42 -180l83 390h140l-83 -390h-140zM156 360l83 390h140l-83 -390h-140z" />
    <glyph glyph-name="section" unicode="&#xa7;" horiz-adv-x="540" 
d="M607 689l-25 -117c-68 24 -105 28 -142 28c-41 0 -100 -7 -100 -60c0 -25 21 -38 75 -64l41 -20c55 -27 111 -59 111 -127c0 -72 -53 -127 -111 -163c22 -19 38 -45 38 -81c0 -144 -161 -199 -280 -199c-59 0 -115 8 -172 28l26 121c61 -28 101 -35 150 -35
c42 0 112 6 112 62c0 24 -13 35 -88 72l-42 21c-55 27 -98 61 -98 122c0 74 52 131 116 163c-29 20 -42 48 -42 82c0 140 152 192 269 192c71 0 126 -14 162 -25zM301 394c-29 -17 -55 -45 -55 -79c0 -36 36 -59 87 -83l42 -20c23 19 48 50 48 81c0 33 -29 54 -75 77z" />
    <glyph glyph-name="dieresis" unicode="&#xa8;" horiz-adv-x="416" 
d="M246 624c-59 0 -84 25 -84 76s25 76 84 76s84 -25 84 -76s-25 -76 -84 -76zM468 624c-59 0 -84 25 -84 76s25 76 84 76s84 -25 84 -76s-25 -76 -84 -76z" />
    <glyph glyph-name="copyright" unicode="&#xa9;" horiz-adv-x="850" 
d="M493 -54c-213 0 -374 162 -374 373c0 212 161 375 374 375s374 -163 374 -375c0 -211 -161 -373 -374 -373zM492 24c167 0 295 127 295 294c0 170 -128 298 -295 298c-166 0 -293 -128 -293 -298c0 -167 127 -294 293 -294zM510 130c-136 0 -191 75 -191 192
c0 126 63 195 194 195c40 0 74 -8 93 -14v-86c-23 9 -55 14 -78 14c-71 0 -109 -30 -109 -106c0 -79 40 -107 110 -107c25 0 53 5 78 17v-88c-21 -9 -53 -17 -97 -17z" />
    <glyph glyph-name="ordfeminine" unicode="&#xaa;" horiz-adv-x="360" 
d="M213 373c-61 0 -85 29 -85 67c0 106 70 131 166 131h57l3 14c1 5 2 10 2 14c0 19 -13 28 -52 28c-44 0 -94 -11 -116 -23l18 86c28 9 79 17 130 17c85 0 124 -21 124 -77c0 -13 -2 -26 -5 -41l-45 -209h-91l5 48c-18 -29 -55 -55 -111 -55zM268 447c33 0 61 19 68 55
l3 15h-45c-34 0 -57 -9 -57 -42c0 -20 9 -28 31 -28z" />
    <glyph glyph-name="guillemotleft" unicode="&#xab;" horiz-adv-x="630" 
d="M192 70l-82 214l170 216h151l-177 -225l84 -205h-146zM447 70l-82 214l170 216h151l-177 -225l84 -205h-146z" />
    <glyph glyph-name="logicalnot" unicode="&#xac;" horiz-adv-x="630" 
d="M153 392h460v-282h-134v148h-326v134z" />
    <glyph glyph-name="uni00AD" unicode="&#xad;" horiz-adv-x="490" 
d="M133 223l26 124h320l-26 -124h-320z" />
    <glyph glyph-name="registered" unicode="&#xae;" horiz-adv-x="600" 
d="M411 266c-149 0 -254 111 -254 253c0 143 105 255 254 255c151 0 254 -112 254 -255c0 -142 -103 -253 -254 -253zM411 326c116 0 194 84 194 193c0 111 -78 195 -194 195c-114 0 -193 -84 -193 -195c0 -109 79 -193 193 -193zM309 392v264h111c50 0 99 -18 99 -88
c0 -38 -19 -65 -46 -76l62 -100h-77l-51 88h-27v-88h-71zM378 536h33c19 0 35 7 35 30c0 25 -15 30 -36 30h-32v-60z" />
    <glyph glyph-name="macron" unicode="&#xaf;" horiz-adv-x="380" 
d="M169 650v100h340v-100h-340z" />
    <glyph glyph-name="degree" unicode="&#xb0;" horiz-adv-x="400" 
d="M319 410c-91 0 -156 65 -156 152c0 88 64 152 156 152s156 -64 156 -152c0 -87 -65 -152 -156 -152zM319 496c38 0 66 28 66 66s-28 66 -66 66s-66 -28 -66 -66s28 -66 66 -66z" />
    <glyph glyph-name="plusminus" unicode="&#xb1;" horiz-adv-x="630" 
d="M324 240v118h-163v134h163v163h134v-163h163v-134h-163v-118h-134zM161 189h460v-134h-460v134z" />
    <glyph glyph-name="twosuperior" unicode="&#xb2;" 
d="M126 380l22 100l150 81c83 45 116 73 116 107c0 30 -24 43 -76 43c-39 0 -91 -7 -133 -26l21 99c54 17 101 23 147 23c111 0 165 -35 165 -106c0 -70 -53 -122 -198 -196l-55 -28v-1h211l-21 -96h-349z" />
    <glyph glyph-name="threesuperior" unicode="&#xb3;" 
d="M267 373c-30 0 -89 3 -138 19l20 96c46 -19 92 -20 131 -20c40 0 107 1 107 51c0 28 -19 36 -70 36h-85l17 80h75c32 0 88 2 88 43c0 26 -20 35 -81 35c-45 0 -93 -5 -130 -18l20 93c51 16 115 19 165 19c118 0 153 -42 153 -93c0 -69 -66 -98 -127 -115v-1
c72 -12 94 -41 94 -84c0 -109 -143 -141 -239 -141z" />
    <glyph glyph-name="acute" unicode="&#xb4;" horiz-adv-x="310" 
d="M144 630l134 160h190l-204 -160h-120z" />
    <glyph glyph-name="mu" unicode="&#xb5;" horiz-adv-x="675" 
d="M197 -180h-160l153 720h160l-66 -310l-1 -4c-4 -16 -4 -29 -4 -41c0 -44 25 -62 82 -62c72 0 112 34 129 114l65 303h160l-115 -540h-140l-4 79c-50 -63 -111 -90 -197 -90c-9 0 -18 1 -26 2z" />
    <glyph glyph-name="mu" unicode="&#x3bc;" horiz-adv-x="675" 
d="M197 -180h-160l153 720h160l-66 -310l-1 -4c-4 -16 -4 -29 -4 -41c0 -44 25 -62 82 -62c72 0 112 34 129 114l65 303h160l-115 -540h-140l-4 79c-50 -63 -111 -90 -197 -90c-9 0 -18 1 -26 2z" />
    <glyph glyph-name="paragraph" unicode="&#xb6;" horiz-adv-x="680" 
d="M192 -180l107 509c-94 0 -145 53 -145 134c0 153 120 237 264 237h320l-186 -880h-140l158 746h-80l-158 -746h-140z" />
    <glyph glyph-name="periodcentered" unicode="&#xb7;" horiz-adv-x="360" 
d="M254 253c-68 0 -100 32 -100 97s32 97 100 97s100 -32 100 -97s-32 -97 -100 -97z" />
    <glyph glyph-name="cedilla" unicode="&#xb8;" horiz-adv-x="253" 
d="M22 -104l41 104h82l-23 -52c58 -1 105 -25 90 -94c-13 -63 -75 -108 -155 -108c-39 0 -74 6 -98 16l25 66c17 -7 35 -12 57 -12c31 0 58 15 64 44s-21 37 -50 37c-9 0 -23 0 -33 -1z" />
    <glyph glyph-name="onesuperior" unicode="&#xb9;" 
d="M294 380l64 300l-120 -56l-28 81l195 95h95l-90 -420h-116z" />
    <glyph glyph-name="ordmasculine" unicode="&#xba;" horiz-adv-x="440" 
d="M144 500c0 136 78 207 227 207c98 0 155 -47 155 -127c0 -137 -76 -207 -226 -207c-94 0 -156 50 -156 127zM350 618c-57 0 -89 -33 -89 -103c0 -33 21 -53 58 -53c58 0 91 37 91 103c0 35 -21 53 -60 53z" />
    <glyph glyph-name="guillemotright" unicode="&#xbb;" horiz-adv-x="630" 
d="M65 70l177 225l-84 205h146l82 -214l-170 -216h-151zM320 70l177 225l-84 205h146l82 -214l-170 -216h-151z" />
    <glyph glyph-name="onequarter" unicode="&#xbc;" horiz-adv-x="950" 
d="M298 0h-128l622 700h128zM223 280l64 300l-120 -56l-28 81l195 95h95l-90 -420h-116zM523 82l18 87l278 251h132l-53 -247h58l-19 -91h-58l-18 -82h-112l18 82h-244zM787 172l33 155h-1l-172 -155h140z" />
    <glyph glyph-name="onehalf" unicode="&#xbd;" horiz-adv-x="950" 
d="M268 0h-128l622 700h128zM223 280l64 300l-120 -56l-28 81l195 95h95l-90 -420h-116zM580 0l22 100l150 81c83 45 116 73 116 107c0 30 -24 43 -76 43c-39 0 -91 -7 -133 -26l21 99c54 17 101 23 147 23c111 0 165 -35 165 -106c0 -70 -53 -122 -198 -196l-55 -28v-1h211
l-21 -96h-349z" />
    <glyph glyph-name="threequarters" unicode="&#xbe;" horiz-adv-x="950" 
d="M308 0h-128l622 700h128zM221 273c-30 0 -89 3 -138 19l20 96c46 -19 92 -20 131 -20c40 0 107 1 107 51c0 28 -19 36 -70 36h-85l17 80h75c32 0 88 2 88 43c0 26 -20 35 -81 35c-45 0 -93 -5 -130 -18l20 93c51 16 115 19 165 19c118 0 153 -42 153 -93
c0 -69 -66 -98 -127 -115v-1c72 -12 94 -41 94 -84c0 -109 -143 -141 -239 -141zM523 82l18 87l278 251h132l-53 -247h58l-19 -91h-58l-18 -82h-112l18 82h-244zM787 172l33 155h-1l-172 -155h140z" />
    <glyph glyph-name="questiondown" unicode="&#xbf;" horiz-adv-x="576" 
d="M225 -194c-139 0 -207 68 -207 156c0 210 251 222 270 338h145c-25 -166 -239 -179 -239 -295c0 -33 27 -57 87 -57c81 0 139 22 188 45l-31 -146c-48 -18 -123 -41 -213 -41zM392 353c-68 0 -100 32 -100 97s32 97 100 97s100 -32 100 -97s-32 -97 -100 -97z" />
    <glyph glyph-name="Agrave" unicode="&#xc0;" horiz-adv-x="700" 
d="M10 0l390 700h195l95 -700h-162l-18 147h-252l-78 -147h-170zM464 531l-133 -248h163zM453 760l-126 160h192l54 -160h-120z" />
    <glyph glyph-name="Aacute" unicode="&#xc1;" horiz-adv-x="700" 
d="M10 0l390 700h195l95 -700h-162l-18 147h-252l-78 -147h-170zM464 531l-133 -248h163zM450 755l144 170h192l-214 -170h-122z" />
    <glyph glyph-name="Acircumflex" unicode="&#xc2;" horiz-adv-x="700" 
d="M10 0l390 700h195l95 -700h-162l-18 147h-252l-78 -147h-170zM464 531l-133 -248h163zM311 755l156 170h160l84 -170h-117l-57 97l-101 -97h-125z" />
    <glyph glyph-name="Atilde" unicode="&#xc3;" horiz-adv-x="700" 
d="M10 0l390 700h195l95 -700h-162l-18 147h-252l-78 -147h-170zM464 531l-133 -248h163zM415 768l-81 12c3 86 54 132 116 132c29 0 53 -11 86 -26c36 -16 45 -21 63 -21c22 0 40 17 44 47l81 -13c-4 -81 -53 -131 -116 -131c-33 0 -49 6 -87 24c-30 14 -42 24 -61 24
c-18 0 -40 -17 -45 -48z" />
    <glyph glyph-name="Adieresis" unicode="&#xc4;" horiz-adv-x="700" 
d="M10 0l390 700h195l95 -700h-162l-18 147h-252l-78 -147h-170zM464 531l-133 -248h163zM414 762c-60 0 -86 26 -86 78s26 78 86 78s86 -26 86 -78s-26 -78 -86 -78zM642 762c-60 0 -86 26 -86 78s26 78 86 78s86 -26 86 -78s-26 -78 -86 -78z" />
    <glyph glyph-name="Aring" unicode="&#xc5;" horiz-adv-x="700" 
d="M10 0l390 700h195l95 -700h-162l-18 147h-252l-78 -147h-170zM464 531l-133 -248h163zM529 722c-68 0 -118 50 -118 118s50 118 118 118s118 -50 118 -118s-50 -118 -118 -118zM529 795c27 0 44 17 44 45s-17 45 -44 45s-44 -17 -44 -45s17 -45 44 -45z" />
    <glyph glyph-name="AE" unicode="&#xc6;" horiz-adv-x="1050" 
d="M505 0l31 147h-240l-116 -147h-170l559 700h575l-30 -142h-326l-29 -137h285l-28 -132h-286l-31 -147h326l-30 -142h-490zM403 283h162l60 282z" />
    <glyph glyph-name="Ccedilla" unicode="&#xc7;" horiz-adv-x="654" 
d="M356 -264c-45 0 -74 6 -99 17l27 69c17 -8 37 -13 60 -13c30 0 69 14 69 50c0 24 -28 30 -55 30c-10 0 -24 0 -35 -2l38 101c-139 12 -243 85 -243 249c0 127 58 330 188 418c62 42 148 59 230 59c90 0 166 -20 214 -44l-33 -156c-48 34 -107 58 -184 58
c-54 0 -96 -16 -128 -38c-72 -51 -111 -183 -111 -267c0 -94 61 -139 162 -139c87 0 156 28 196 52l-33 -157c-50 -21 -101 -32 -173 -36l-16 -41c52 0 98 -20 98 -73c0 -89 -93 -137 -172 -137z" />
    <glyph glyph-name="Egrave" unicode="&#xc8;" horiz-adv-x="635" 
d="M90 0l149 700h490l-30 -142h-326l-29 -137h285l-28 -132h-286l-31 -147h326l-30 -142h-490zM437 760l-126 160h192l54 -160h-120z" />
    <glyph glyph-name="Eacute" unicode="&#xc9;" horiz-adv-x="635" 
d="M90 0l149 700h490l-30 -142h-326l-29 -137h285l-28 -132h-286l-31 -147h326l-30 -142h-490zM435 755l144 170h192l-214 -170h-122z" />
    <glyph glyph-name="Ecircumflex" unicode="&#xca;" horiz-adv-x="635" 
d="M90 0l149 700h490l-30 -142h-326l-29 -137h285l-28 -132h-286l-31 -147h326l-30 -142h-490zM296 755l156 170h160l84 -170h-117l-57 97l-101 -97h-125z" />
    <glyph glyph-name="Edieresis" unicode="&#xcb;" horiz-adv-x="635" 
d="M90 0l149 700h490l-30 -142h-326l-29 -137h285l-28 -132h-286l-31 -147h326l-30 -142h-490zM400 762c-60 0 -86 26 -86 78s26 78 86 78s86 -26 86 -78s-26 -78 -86 -78zM628 762c-60 0 -86 26 -86 78s26 78 86 78s86 -26 86 -78s-26 -78 -86 -78z" />
    <glyph glyph-name="Igrave" unicode="&#xcc;" horiz-adv-x="354" 
d="M95 0l149 700h164l-149 -700h-164zM280 760l-126 160h192l54 -160h-120z" />
    <glyph glyph-name="Iacute" unicode="&#xcd;" horiz-adv-x="354" 
d="M95 0l149 700h164l-149 -700h-164zM277 755l144 170h192l-214 -170h-122z" />
    <glyph glyph-name="Icircumflex" unicode="&#xce;" horiz-adv-x="354" 
d="M95 0l149 700h164l-149 -700h-164zM137 755l156 170h160l84 -170h-117l-57 97l-101 -97h-125z" />
    <glyph glyph-name="Idieresis" unicode="&#xcf;" horiz-adv-x="354" 
d="M95 0l149 700h164l-149 -700h-164zM242 762c-60 0 -86 26 -86 78s26 78 86 78s86 -26 86 -78s-26 -78 -86 -78zM470 762c-60 0 -86 26 -86 78s26 78 86 78s86 -26 86 -78s-26 -78 -86 -78z" />
    <glyph glyph-name="Eth" unicode="&#xd0;" horiz-adv-x="780" 
d="M87 305l23 110h79l60 284c86 5 150 8 248 8c197 0 307 -93 307 -261c0 -145 -42 -268 -117 -342c-79 -78 -188 -111 -363 -111c-87 0 -154 4 -223 9l64 303h-78zM294 140c24 -3 43 -5 69 -5c71 0 130 15 170 43c57 40 95 134 95 236c0 92 -42 151 -161 151
c-30 0 -57 -2 -84 -5l-31 -145h125l-23 -110h-125z" />
    <glyph glyph-name="Ntilde" unicode="&#xd1;" horiz-adv-x="802" 
d="M91 0l148 700h170l153 -381c15 -37 30 -69 40 -109c2 40 5 71 13 110l81 380h164l-148 -700h-170l-154 380c-16 40 -27 70 -36 110c-3 -40 -7 -70 -16 -110l-81 -380h-164zM466 768l-81 12c3 86 54 132 116 132c29 0 53 -11 86 -26c36 -16 45 -21 63 -21
c22 0 40 17 44 47l81 -13c-4 -81 -53 -131 -116 -131c-33 0 -49 6 -87 24c-30 14 -42 24 -61 24c-18 0 -40 -17 -45 -48z" />
    <glyph glyph-name="Ograve" unicode="&#xd2;" horiz-adv-x="810" 
d="M397 -14c-159 0 -278 80 -278 249c0 131 48 305 158 397c74 62 170 82 274 82c165 0 287 -70 287 -250c0 -134 -47 -309 -145 -388c-88 -71 -187 -90 -296 -90zM434 128c59 0 108 15 144 55c48 53 84 159 84 248c0 96 -45 141 -138 141c-52 0 -99 -12 -135 -45
c-59 -54 -94 -176 -94 -263c0 -99 52 -136 139 -136zM507 760l-126 160h192l54 -160h-120z" />
    <glyph glyph-name="Oacute" unicode="&#xd3;" horiz-adv-x="810" 
d="M397 -14c-159 0 -278 80 -278 249c0 131 48 305 158 397c74 62 170 82 274 82c165 0 287 -70 287 -250c0 -134 -47 -309 -145 -388c-88 -71 -187 -90 -296 -90zM434 128c59 0 108 15 144 55c48 53 84 159 84 248c0 96 -45 141 -138 141c-52 0 -99 -12 -135 -45
c-59 -54 -94 -176 -94 -263c0 -99 52 -136 139 -136zM505 755l144 170h192l-214 -170h-122z" />
    <glyph glyph-name="Ocircumflex" unicode="&#xd4;" horiz-adv-x="810" 
d="M397 -14c-159 0 -278 80 -278 249c0 131 48 305 158 397c74 62 170 82 274 82c165 0 287 -70 287 -250c0 -134 -47 -309 -145 -388c-88 -71 -187 -90 -296 -90zM434 128c59 0 108 15 144 55c48 53 84 159 84 248c0 96 -45 141 -138 141c-52 0 -99 -12 -135 -45
c-59 -54 -94 -176 -94 -263c0 -99 52 -136 139 -136zM365 755l156 170h160l84 -170h-117l-57 97l-101 -97h-125z" />
    <glyph glyph-name="Otilde" unicode="&#xd5;" horiz-adv-x="810" 
d="M397 -14c-159 0 -278 80 -278 249c0 131 48 305 158 397c74 62 170 82 274 82c165 0 287 -70 287 -250c0 -134 -47 -309 -145 -388c-88 -71 -187 -90 -296 -90zM434 128c59 0 108 15 144 55c48 53 84 159 84 248c0 96 -45 141 -138 141c-52 0 -99 -12 -135 -45
c-59 -54 -94 -176 -94 -263c0 -99 52 -136 139 -136zM470 768l-81 12c3 86 54 132 116 132c29 0 53 -11 86 -26c36 -16 45 -21 63 -21c22 0 40 17 44 47l81 -13c-4 -81 -53 -131 -116 -131c-33 0 -49 6 -87 24c-30 14 -42 24 -61 24c-18 0 -40 -17 -45 -48z" />
    <glyph glyph-name="Odieresis" unicode="&#xd6;" horiz-adv-x="810" 
d="M397 -14c-159 0 -278 80 -278 249c0 131 48 305 158 397c74 62 170 82 274 82c165 0 287 -70 287 -250c0 -134 -47 -309 -145 -388c-88 -71 -187 -90 -296 -90zM434 128c59 0 108 15 144 55c48 53 84 159 84 248c0 96 -45 141 -138 141c-52 0 -99 -12 -135 -45
c-59 -54 -94 -176 -94 -263c0 -99 52 -136 139 -136zM469 762c-60 0 -86 26 -86 78s26 78 86 78s86 -26 86 -78s-26 -78 -86 -78zM697 762c-60 0 -86 26 -86 78s26 78 86 78s86 -26 86 -78s-26 -78 -86 -78z" />
    <glyph glyph-name="multiply" unicode="&#xd7;" horiz-adv-x="630" 
d="M258 115l-85 85l125 125l-125 125l85 85l125 -125l125 125l85 -85l-125 -125l125 -125l-85 -85l-125 125z" />
    <glyph glyph-name="Oslash" unicode="&#xd8;" horiz-adv-x="810" 
d="M397 -14c-65 0 -124 14 -170 41l-76 -79l-61 53l76 79c-30 39 -47 91 -47 155c0 131 48 305 158 397c74 62 170 82 274 82c71 0 134 -13 182 -42l73 76l61 -54l-73 -76c28 -38 44 -89 44 -154c0 -134 -47 -309 -145 -388c-88 -71 -187 -90 -296 -90zM295 264
c0 -17 1 -32 4 -45l316 329c-22 16 -53 24 -91 24c-52 0 -99 -12 -135 -45c-59 -54 -94 -176 -94 -263zM434 128c59 0 108 15 144 55c48 53 84 159 84 248c0 17 -1 32 -4 45l-314 -327c23 -15 53 -21 90 -21z" />
    <glyph glyph-name="Ugrave" unicode="&#xd9;" horiz-adv-x="750" 
d="M378 -14c-153 0 -240 72 -240 200c0 43 9 106 23 170l73 344h164l-78 -364c-14 -65 -15 -103 -15 -123c0 -61 46 -85 103 -85c78 0 126 28 155 164l87 408h164l-89 -418c-51 -240 -151 -296 -347 -296zM478 760l-126 160h192l54 -160h-120z" />
    <glyph glyph-name="Uacute" unicode="&#xda;" horiz-adv-x="750" 
d="M378 -14c-153 0 -240 72 -240 200c0 43 9 106 23 170l73 344h164l-78 -364c-14 -65 -15 -103 -15 -123c0 -61 46 -85 103 -85c78 0 126 28 155 164l87 408h164l-89 -418c-51 -240 -151 -296 -347 -296zM475 755l144 170h192l-214 -170h-122z" />
    <glyph glyph-name="Ucircumflex" unicode="&#xdb;" horiz-adv-x="750" 
d="M378 -14c-153 0 -240 72 -240 200c0 43 9 106 23 170l73 344h164l-78 -364c-14 -65 -15 -103 -15 -123c0 -61 46 -85 103 -85c78 0 126 28 155 164l87 408h164l-89 -418c-51 -240 -151 -296 -347 -296zM336 755l156 170h160l84 -170h-117l-57 97l-101 -97h-125z" />
    <glyph glyph-name="Udieresis" unicode="&#xdc;" horiz-adv-x="750" 
d="M378 -14c-153 0 -240 72 -240 200c0 43 9 106 23 170l73 344h164l-78 -364c-14 -65 -15 -103 -15 -123c0 -61 46 -85 103 -85c78 0 126 28 155 164l87 408h164l-89 -418c-51 -240 -151 -296 -347 -296zM439 762c-60 0 -86 26 -86 78s26 78 86 78s86 -26 86 -78
s-26 -78 -86 -78zM667 762c-60 0 -86 26 -86 78s26 78 86 78s86 -26 86 -78s-26 -78 -86 -78z" />
    <glyph glyph-name="Yacute" unicode="&#xdd;" horiz-adv-x="670" 
d="M253 0l54 252l-148 448h178l85 -266l192 266h195l-338 -448l-54 -252h-164zM434 755l144 170h192l-214 -170h-122z" />
    <glyph glyph-name="Thorn" unicode="&#xde;" horiz-adv-x="681" 
d="M90 0l149 700h164l-19 -89c24 1 48 2 75 2c180 0 259 -72 259 -203c0 -209 -122 -311 -370 -311c-24 0 -53 1 -73 2l-21 -101h-164zM305 242c24 -2 43 -2 72 -2c118 0 165 40 165 140c0 63 -28 90 -115 90c-27 0 -51 0 -74 -2z" />
    <glyph glyph-name="germandbls" unicode="&#xdf;" horiz-adv-x="695" 
d="M75 0l110 518c38 179 141 276 341 276c146 0 215 -65 215 -159c0 -102 -65 -185 -163 -215l-1 -4c67 -11 120 -52 120 -138c0 -165 -132 -292 -298 -292c-38 0 -66 6 -94 15l27 129c17 -6 39 -10 65 -10c90 0 136 68 136 151c0 62 -43 77 -99 77h-44l26 120h36
c74 0 125 58 125 127c0 49 -42 65 -88 65c-87 0 -126 -56 -144 -140l-110 -520h-160z" />
    <glyph glyph-name="agrave" unicode="&#xe0;" horiz-adv-x="690" 
d="M475 0l1 85c-33 -50 -82 -99 -181 -99c-124 0 -200 76 -200 210c0 179 81 358 287 358c112 0 151 -51 170 -101l38 87h140l-115 -540h-140zM259 227c0 -79 49 -107 113 -107c76 0 117 37 136 130l6 29c4 18 5 34 5 45c0 71 -38 96 -103 96c-114 0 -157 -90 -157 -193z
M522 630h-120l-170 160h190z" />
    <glyph glyph-name="aacute" unicode="&#xe1;" horiz-adv-x="690" 
d="M475 0l1 85c-33 -50 -82 -99 -181 -99c-124 0 -200 76 -200 210c0 179 81 358 287 358c112 0 151 -51 170 -101l38 87h140l-115 -540h-140zM259 227c0 -79 49 -107 113 -107c76 0 117 37 136 130l6 29c4 18 5 34 5 45c0 71 -38 96 -103 96c-114 0 -157 -90 -157 -193z
M401 630l134 160h190l-204 -160h-120z" />
    <glyph glyph-name="acircumflex" unicode="&#xe2;" horiz-adv-x="690" 
d="M475 0l1 85c-33 -50 -82 -99 -181 -99c-124 0 -200 76 -200 210c0 179 81 358 287 358c112 0 151 -51 170 -101l38 87h140l-115 -540h-140zM259 227c0 -79 49 -107 113 -107c76 0 117 37 136 130l6 29c4 18 5 34 5 45c0 71 -38 96 -103 96c-114 0 -157 -90 -157 -193z
M268 620l146 160h156l78 -160h-117l-49 87l-89 -87h-125z" />
    <glyph glyph-name="atilde" unicode="&#xe3;" horiz-adv-x="690" 
d="M475 0l1 85c-33 -50 -82 -99 -181 -99c-124 0 -200 76 -200 210c0 179 81 358 287 358c112 0 151 -51 170 -101l38 87h140l-115 -540h-140zM259 227c0 -79 49 -107 113 -107c76 0 117 37 136 130l6 29c4 18 5 34 5 45c0 71 -38 96 -103 96c-114 0 -157 -90 -157 -193z
M367 628l-81 12c3 86 49 132 111 132c29 0 53 -11 86 -26c36 -16 45 -21 63 -21c22 0 35 17 39 47l81 -13c-4 -81 -48 -131 -111 -131c-33 0 -49 6 -87 24c-30 14 -42 24 -61 24c-18 0 -35 -17 -40 -48z" />
    <glyph glyph-name="adieresis" unicode="&#xe4;" horiz-adv-x="690" 
d="M475 0l1 85c-33 -50 -82 -99 -181 -99c-124 0 -200 76 -200 210c0 179 81 358 287 358c112 0 151 -51 170 -101l38 87h140l-115 -540h-140zM259 227c0 -79 49 -107 113 -107c76 0 117 37 136 130l6 29c4 18 5 34 5 45c0 71 -38 96 -103 96c-114 0 -157 -90 -157 -193z
M366 624c-59 0 -84 25 -84 76s25 76 84 76s84 -25 84 -76s-25 -76 -84 -76zM588 624c-59 0 -84 25 -84 76s25 76 84 76s84 -25 84 -76s-25 -76 -84 -76z" />
    <glyph glyph-name="aring" unicode="&#xe5;" horiz-adv-x="690" 
d="M475 0l1 85c-33 -50 -82 -99 -181 -99c-124 0 -200 76 -200 210c0 179 81 358 287 358c112 0 151 -51 170 -101l38 87h140l-115 -540h-140zM259 227c0 -79 49 -107 113 -107c76 0 117 37 136 130l6 29c4 18 5 34 5 45c0 71 -38 96 -103 96c-114 0 -157 -90 -157 -193z
M476 584c-69 0 -116 47 -116 116s47 116 116 116s116 -47 116 -116s-47 -116 -116 -116zM476 656c27 0 44 17 44 44s-17 44 -44 44s-44 -17 -44 -44s17 -44 44 -44z" />
    <glyph glyph-name="ae" unicode="&#xe6;" horiz-adv-x="960" 
d="M688 230h-86c-2 -11 -2 -17 -2 -27c0 -64 42 -95 128 -95c80 0 168 28 218 70l-28 -132c-39 -30 -118 -54 -197 -59c-10 -1 -20 -1 -30 -1c-95 0 -170 29 -211 84c-75 -62 -132 -84 -227 -84c-12 0 -24 0 -35 1c-98 7 -151 46 -151 140c0 129 99 195 283 195h108l6 23
c2 5 3 10 3 15c1 5 1 9 1 13c0 40 -31 59 -94 59c-78 0 -163 -29 -209 -61l32 145c45 19 120 34 201 37c10 0 20 1 30 1c87 0 137 -14 168 -48c52 32 123 48 200 48c134 0 207 -49 207 -146c0 -125 -121 -178 -315 -178zM767 432c-80 0 -128 -32 -147 -110h88
c80 0 122 17 130 52c1 4 1 9 1 13c0 31 -20 45 -72 45zM353 230c-85 0 -117 -20 -117 -68c0 -38 20 -54 69 -54c78 0 119 40 131 95l5 27h-88z" />
    <glyph glyph-name="ccedilla" unicode="&#xe7;" horiz-adv-x="570" 
d="M263 -104l36 93c-118 12 -204 75 -204 212c0 232 135 353 350 353c87 0 144 -21 174 -40l-34 -142c-31 26 -83 48 -146 48c-114 0 -180 -64 -180 -192c0 -70 53 -108 144 -108c63 0 112 22 154 50l-31 -135c-30 -19 -75 -42 -146 -48l-17 -39c58 -1 105 -25 90 -94
c-13 -63 -75 -108 -155 -108c-39 0 -74 6 -98 16l25 66c17 -7 35 -12 57 -12c31 0 58 15 64 44s-21 37 -50 37c-9 0 -23 0 -33 -1z" />
    <glyph glyph-name="egrave" unicode="&#xe8;" horiz-adv-x="610" 
d="M348 -14c-173 0 -256 87 -256 206c0 217 124 362 344 362c162 0 217 -61 217 -144c0 -79 -46 -180 -311 -180h-90c-1 -7 -2 -17 -2 -27c0 -65 43 -95 134 -95c78 0 164 30 212 70l-28 -132c-36 -28 -123 -60 -220 -60zM361 322c104 0 128 30 128 64c0 27 -13 46 -69 46
c-90 0 -131 -35 -150 -110h91zM498 630h-120l-170 160h190z" />
    <glyph glyph-name="eacute" unicode="&#xe9;" horiz-adv-x="610" 
d="M348 -14c-173 0 -256 87 -256 206c0 217 124 362 344 362c162 0 217 -61 217 -144c0 -79 -46 -180 -311 -180h-90c-1 -7 -2 -17 -2 -27c0 -65 43 -95 134 -95c78 0 164 30 212 70l-28 -132c-36 -28 -123 -60 -220 -60zM361 322c104 0 128 30 128 64c0 27 -13 46 -69 46
c-90 0 -131 -35 -150 -110h91zM379 630l134 160h190l-204 -160h-120z" />
    <glyph glyph-name="ecircumflex" unicode="&#xea;" horiz-adv-x="610" 
d="M348 -14c-173 0 -256 87 -256 206c0 217 124 362 344 362c162 0 217 -61 217 -144c0 -79 -46 -180 -311 -180h-90c-1 -7 -2 -17 -2 -27c0 -65 43 -95 134 -95c78 0 164 30 212 70l-28 -132c-36 -28 -123 -60 -220 -60zM361 322c104 0 128 30 128 64c0 27 -13 46 -69 46
c-90 0 -131 -35 -150 -110h91zM246 620l146 160h156l78 -160h-117l-49 87l-89 -87h-125z" />
    <glyph glyph-name="edieresis" unicode="&#xeb;" horiz-adv-x="610" 
d="M348 -14c-173 0 -256 87 -256 206c0 217 124 362 344 362c162 0 217 -61 217 -144c0 -79 -46 -180 -311 -180h-90c-1 -7 -2 -17 -2 -27c0 -65 43 -95 134 -95c78 0 164 30 212 70l-28 -132c-36 -28 -123 -60 -220 -60zM361 322c104 0 128 30 128 64c0 27 -13 46 -69 46
c-90 0 -131 -35 -150 -110h91zM343 624c-59 0 -84 25 -84 76s25 76 84 76s84 -25 84 -76s-25 -76 -84 -76zM565 624c-59 0 -84 25 -84 76s25 76 84 76s84 -25 84 -76s-25 -76 -84 -76z" />
    <glyph glyph-name="igrave" unicode="&#xec;" horiz-adv-x="320" 
d="M240 0h-160l115 540h160zM354 630h-120l-170 160h190z" />
    <glyph glyph-name="iacute" unicode="&#xed;" horiz-adv-x="320" 
d="M240 0h-160l115 540h160zM234 630l134 160h190l-204 -160h-120z" />
    <glyph glyph-name="icircumflex" unicode="&#xee;" horiz-adv-x="320" 
d="M240 0h-160l115 540h160zM102 620l146 160h156l78 -160h-117l-49 87l-89 -87h-125z" />
    <glyph glyph-name="idieresis" unicode="&#xef;" horiz-adv-x="320" 
d="M240 0h-160l115 540h160zM199 624c-59 0 -84 25 -84 76s25 76 84 76s84 -25 84 -76s-25 -76 -84 -76zM421 624c-59 0 -84 25 -84 76s25 76 84 76s84 -25 84 -76s-25 -76 -84 -76z" />
    <glyph glyph-name="eth" unicode="&#xf0;" horiz-adv-x="670" 
d="M309 554l-21 63l90 41c-36 17 -78 31 -121 38l79 102c74 -13 138 -38 191 -73l149 68l21 -63l-113 -52c70 -69 109 -164 109 -276c0 -251 -151 -416 -376 -416c-150 0 -230 65 -230 190c0 204 133 348 318 348c42 0 91 -9 128 -53l4 2c-8 54 -42 103 -91 143zM354 120
c95 0 163 82 163 194c0 55 -35 86 -100 86c-98 0 -166 -77 -166 -190c0 -57 37 -90 103 -90z" />
    <glyph glyph-name="ntilde" unicode="&#xf1;" horiz-adv-x="680" 
d="M75 0l115 540h140l2 -76c48 66 120 90 198 90c106 0 164 -37 164 -129c0 -19 -3 -41 -8 -66l-76 -359h-160l65 305c4 20 6 38 6 52c0 47 -26 63 -87 63c-78 0 -119 -38 -135 -116l-64 -304h-160zM382 628l-81 12c3 86 49 132 111 132c29 0 53 -11 86 -26
c36 -16 45 -21 63 -21c22 0 35 17 39 47l81 -13c-4 -81 -48 -131 -111 -131c-33 0 -49 6 -87 24c-30 14 -42 24 -61 24c-18 0 -35 -17 -40 -48z" />
    <glyph glyph-name="ograve" unicode="&#xf2;" horiz-adv-x="670" 
d="M95 215c0 189 120 339 340 339c134 0 255 -60 255 -219c0 -203 -109 -349 -335 -349c-170 0 -260 90 -260 229zM259 222c0 -63 33 -102 112 -102c114 0 155 126 155 210c0 63 -40 90 -108 90c-110 0 -159 -100 -159 -198zM529 630h-120l-170 160h190z" />
    <glyph glyph-name="oacute" unicode="&#xf3;" horiz-adv-x="670" 
d="M95 215c0 189 120 339 340 339c134 0 255 -60 255 -219c0 -203 -109 -349 -335 -349c-170 0 -260 90 -260 229zM259 222c0 -63 33 -102 112 -102c114 0 155 126 155 210c0 63 -40 90 -108 90c-110 0 -159 -100 -159 -198zM409 630l134 160h190l-204 -160h-120z" />
    <glyph glyph-name="ocircumflex" unicode="&#xf4;" horiz-adv-x="670" 
d="M95 215c0 189 120 339 340 339c134 0 255 -60 255 -219c0 -203 -109 -349 -335 -349c-170 0 -260 90 -260 229zM259 222c0 -63 33 -102 112 -102c114 0 155 126 155 210c0 63 -40 90 -108 90c-110 0 -159 -100 -159 -198zM276 620l146 160h156l78 -160h-117l-49 87
l-89 -87h-125z" />
    <glyph glyph-name="otilde" unicode="&#xf5;" horiz-adv-x="670" 
d="M95 215c0 189 120 339 340 339c134 0 255 -60 255 -219c0 -203 -109 -349 -335 -349c-170 0 -260 90 -260 229zM259 222c0 -63 33 -102 112 -102c114 0 155 126 155 210c0 63 -40 90 -108 90c-110 0 -159 -100 -159 -198zM374 628l-81 12c3 86 49 132 111 132
c29 0 53 -11 86 -26c36 -16 45 -21 63 -21c22 0 35 17 39 47l81 -13c-4 -81 -48 -131 -111 -131c-33 0 -49 6 -87 24c-30 14 -42 24 -61 24c-18 0 -35 -17 -40 -48z" />
    <glyph glyph-name="odieresis" unicode="&#xf6;" horiz-adv-x="670" 
d="M95 215c0 189 120 339 340 339c134 0 255 -60 255 -219c0 -203 -109 -349 -335 -349c-170 0 -260 90 -260 229zM259 222c0 -63 33 -102 112 -102c114 0 155 126 155 210c0 63 -40 90 -108 90c-110 0 -159 -100 -159 -198zM373 624c-59 0 -84 25 -84 76s25 76 84 76
s84 -25 84 -76s-25 -76 -84 -76zM595 624c-59 0 -84 25 -84 76s25 76 84 76s84 -25 84 -76s-25 -76 -84 -76z" />
    <glyph glyph-name="divide" unicode="&#xf7;" horiz-adv-x="630" 
d="M153 392h460v-134h-460v134zM384 18c-68 0 -100 32 -100 97s32 97 100 97s100 -32 100 -97s-32 -97 -100 -97zM384 438c-68 0 -100 32 -100 97s32 97 100 97s100 -32 100 -97s-32 -97 -100 -97z" />
    <glyph glyph-name="oslash" unicode="&#xf8;" horiz-adv-x="670" 
d="M95 215c0 189 120 339 340 339c55 0 107 -10 150 -33l78 80l53 -46l-75 -77c31 -34 49 -81 49 -143c0 -203 -109 -349 -335 -349c-63 0 -115 13 -156 35l-77 -80l-53 47l75 78c-32 38 -49 89 -49 149zM526 330c0 9 -1 18 -3 26l-216 -224c16 -8 37 -12 64 -12
c114 0 155 126 155 210zM259 222c0 -12 1 -24 3 -34l215 222c-16 6 -36 10 -59 10c-110 0 -159 -100 -159 -198z" />
    <glyph glyph-name="ugrave" unicode="&#xf9;" horiz-adv-x="670" 
d="M111 191l75 349h160l-66 -310c-4 -17 -6 -32 -6 -45c0 -44 25 -62 82 -62c72 0 112 34 129 114l65 303h160l-115 -540h-140l-4 79c-50 -63 -111 -90 -197 -90c-102 0 -152 39 -152 128c0 22 3 46 9 74zM526 630h-120l-170 160h190z" />
    <glyph glyph-name="uacute" unicode="&#xfa;" horiz-adv-x="670" 
d="M111 191l75 349h160l-66 -310c-4 -17 -6 -32 -6 -45c0 -44 25 -62 82 -62c72 0 112 34 129 114l65 303h160l-115 -540h-140l-4 79c-50 -63 -111 -90 -197 -90c-102 0 -152 39 -152 128c0 22 3 46 9 74zM407 630l134 160h190l-204 -160h-120z" />
    <glyph glyph-name="ucircumflex" unicode="&#xfb;" horiz-adv-x="670" 
d="M111 191l75 349h160l-66 -310c-4 -17 -6 -32 -6 -45c0 -44 25 -62 82 -62c72 0 112 34 129 114l65 303h160l-115 -540h-140l-4 79c-50 -63 -111 -90 -197 -90c-102 0 -152 39 -152 128c0 22 3 46 9 74zM274 620l146 160h156l78 -160h-117l-49 87l-89 -87h-125z" />
    <glyph glyph-name="udieresis" unicode="&#xfc;" horiz-adv-x="670" 
d="M111 191l75 349h160l-66 -310c-4 -17 -6 -32 -6 -45c0 -44 25 -62 82 -62c72 0 112 34 129 114l65 303h160l-115 -540h-140l-4 79c-50 -63 -111 -90 -197 -90c-102 0 -152 39 -152 128c0 22 3 46 9 74zM370 624c-59 0 -84 25 -84 76s25 76 84 76s84 -25 84 -76
s-25 -76 -84 -76zM592 624c-59 0 -84 25 -84 76s25 76 84 76s84 -25 84 -76s-25 -76 -84 -76z" />
    <glyph glyph-name="yacute" unicode="&#xfd;" horiz-adv-x="600" 
d="M82 -181l30 139c15 -9 40 -18 65 -18c29 0 47 14 69 58l-116 542h177l50 -348l173 348h170l-294 -526c-93 -167 -151 -208 -241 -208c-30 0 -66 5 -83 13zM374 630l134 160h190l-204 -160h-120z" />
    <glyph glyph-name="thorn" unicode="&#xfe;" horiz-adv-x="690" 
d="M37 -180l200 940h160l-64 -302c33 50 80 96 178 96c125 0 200 -75 200 -209c0 -179 -80 -359 -284 -359c-103 0 -156 46 -175 93l-55 -259h-160zM398 120c98 0 149 97 149 187c0 87 -48 113 -109 113c-78 0 -122 -42 -140 -127l-6 -29c-20 -98 38 -144 106 -144z" />
    <glyph glyph-name="ydieresis" unicode="&#xff;" horiz-adv-x="600" 
d="M82 -181l30 139c15 -9 40 -18 65 -18c29 0 47 14 69 58l-116 542h177l50 -348l173 348h170l-294 -526c-93 -167 -151 -208 -241 -208c-30 0 -66 5 -83 13zM338 624c-59 0 -84 25 -84 76s25 76 84 76s84 -25 84 -76s-25 -76 -84 -76zM560 624c-59 0 -84 25 -84 76
s25 76 84 76s84 -25 84 -76s-25 -76 -84 -76z" />
    <glyph glyph-name="Amacron" unicode="&#x100;" horiz-adv-x="700" 
d="M10 0l390 700h195l95 -700h-162l-18 147h-252l-78 -147h-170zM464 531l-133 -248h163zM354 788v104h350v-104h-350z" />
    <glyph glyph-name="amacron" unicode="&#x101;" horiz-adv-x="690" 
d="M475 0l1 85c-33 -50 -82 -99 -181 -99c-124 0 -200 76 -200 210c0 179 81 358 287 358c112 0 151 -51 170 -101l38 87h140l-115 -540h-140zM259 227c0 -79 49 -107 113 -107c76 0 117 37 136 130l6 29c4 18 5 34 5 45c0 71 -38 96 -103 96c-114 0 -157 -90 -157 -193z
M305 650v100h340v-100h-340z" />
    <glyph glyph-name="Abreve" unicode="&#x102;" horiz-adv-x="700" 
d="M10 0l390 700h195l95 -700h-162l-18 147h-252l-78 -147h-170zM464 531l-133 -248h163zM361 900l99 25c4 -50 31 -70 71 -70s75 20 101 70l89 -25c-46 -98 -116 -145 -211 -145s-145 47 -149 145z" />
    <glyph glyph-name="abreve" unicode="&#x103;" horiz-adv-x="690" 
d="M475 0l1 85c-33 -50 -82 -99 -181 -99c-124 0 -200 76 -200 210c0 179 81 358 287 358c112 0 151 -51 170 -101l38 87h140l-115 -540h-140zM259 227c0 -79 49 -107 113 -107c76 0 117 37 136 130l6 29c4 18 5 34 5 45c0 71 -38 96 -103 96c-114 0 -157 -90 -157 -193z
M309 760l97 25c5 -50 33 -72 73 -72s78 22 103 72l87 -25c-46 -98 -116 -145 -211 -145s-145 47 -149 145z" />
    <glyph glyph-name="Aogonek" unicode="&#x104;" horiz-adv-x="700" 
d="M537 -264c-87 0 -113 40 -113 83c0 82 79 145 148 181h-44l-18 147h-252l-78 -147h-170l390 700h195l95 -700h-34c-49 -28 -115 -81 -115 -144c0 -27 21 -40 50 -40c23 0 44 5 66 16l-16 -75c-25 -11 -60 -21 -104 -21zM464 531l-133 -248h163z" />
    <glyph glyph-name="aogonek" unicode="&#x105;" horiz-adv-x="690" 
d="M475 0l1 85c-33 -50 -82 -99 -181 -99c-124 0 -200 76 -200 210c0 179 81 358 287 358c112 0 151 -51 170 -101l38 87h140l-115 -540h-34c-48 -27 -108 -76 -108 -137c0 -26 18 -42 46 -42c22 0 44 6 64 16l-15 -71c-24 -10 -56 -20 -98 -20c-86 0 -112 42 -112 84
c0 77 74 137 139 170h-22zM259 227c0 -79 49 -107 113 -107c76 0 117 37 136 130l6 29c4 18 5 34 5 45c0 71 -38 96 -103 96c-114 0 -157 -90 -157 -193z" />
    <glyph glyph-name="Cacute" unicode="&#x106;" horiz-adv-x="654" 
d="M750 670l-33 -156c-48 34 -107 58 -184 58c-54 0 -96 -16 -128 -38c-72 -51 -111 -183 -111 -267c0 -94 61 -139 162 -139c87 0 156 28 196 52l-33 -157c-59 -24 -119 -37 -214 -37c-160 0 -287 71 -287 251c0 127 58 330 188 418c62 42 148 59 230 59
c90 0 166 -20 214 -44zM490 755l144 170h192l-214 -170h-122z" />
    <glyph glyph-name="cacute" unicode="&#x107;" horiz-adv-x="570" 
d="M557 170l-31 -135c-34 -22 -90 -49 -181 -49c-141 0 -250 61 -250 215c0 232 135 353 350 353c87 0 144 -21 174 -40l-34 -142c-31 26 -83 48 -146 48c-114 0 -180 -64 -180 -192c0 -70 53 -108 144 -108c63 0 112 22 154 50zM400 630l134 160h190l-204 -160h-120z" />
    <glyph glyph-name="Ccircumflex" unicode="&#x108;" horiz-adv-x="654" 
d="M750 670l-33 -156c-48 34 -107 58 -184 58c-54 0 -96 -16 -128 -38c-72 -51 -111 -183 -111 -267c0 -94 61 -139 162 -139c87 0 156 28 196 52l-33 -157c-59 -24 -119 -37 -214 -37c-160 0 -287 71 -287 251c0 127 58 330 188 418c62 42 148 59 230 59
c90 0 166 -20 214 -44zM345 755l156 170h160l84 -170h-117l-57 97l-101 -97h-125z" />
    <glyph glyph-name="ccircumflex" unicode="&#x109;" horiz-adv-x="570" 
d="M557 170l-31 -135c-34 -22 -90 -49 -181 -49c-141 0 -250 61 -250 215c0 232 135 353 350 353c87 0 144 -21 174 -40l-34 -142c-31 26 -83 48 -146 48c-114 0 -180 -64 -180 -192c0 -70 53 -108 144 -108c63 0 112 22 154 50zM266 620l146 160h156l78 -160h-117l-49 87
l-89 -87h-125z" />
    <glyph glyph-name="Cdotaccent" unicode="&#x10a;" horiz-adv-x="654" 
d="M750 670l-33 -156c-48 34 -107 58 -184 58c-54 0 -96 -16 -128 -38c-72 -51 -111 -183 -111 -267c0 -94 61 -139 162 -139c87 0 156 28 196 52l-33 -157c-59 -24 -119 -37 -214 -37c-160 0 -287 71 -287 251c0 127 58 330 188 418c62 42 148 59 230 59
c90 0 166 -20 214 -44zM564 758c-62 0 -90 28 -90 82s28 82 90 82s90 -28 90 -82s-28 -82 -90 -82z" />
    <glyph glyph-name="cdotaccent" unicode="&#x10b;" horiz-adv-x="570" 
d="M557 170l-31 -135c-34 -22 -90 -49 -181 -49c-141 0 -250 61 -250 215c0 232 135 353 350 353c87 0 144 -21 174 -40l-34 -142c-31 26 -83 48 -146 48c-114 0 -180 -64 -180 -192c0 -70 53 -108 144 -108c63 0 112 22 154 50zM473 620c-65 0 -95 30 -95 80s30 80 95 80
s95 -30 95 -80s-30 -80 -95 -80z" />
    <glyph glyph-name="Ccaron" unicode="&#x10c;" horiz-adv-x="654" 
d="M750 670l-33 -156c-48 34 -107 58 -184 58c-54 0 -96 -16 -128 -38c-72 -51 -111 -183 -111 -267c0 -94 61 -139 162 -139c87 0 156 28 196 52l-33 -157c-59 -24 -119 -37 -214 -37c-160 0 -287 71 -287 251c0 127 58 330 188 418c62 42 148 59 230 59
c90 0 166 -20 214 -44zM468 765l-84 170h117l59 -97l99 97h125l-156 -170h-160z" />
    <glyph glyph-name="ccaron" unicode="&#x10d;" horiz-adv-x="570" 
d="M557 170l-31 -135c-34 -22 -90 -49 -181 -49c-141 0 -250 61 -250 215c0 232 135 353 350 353c87 0 144 -21 174 -40l-34 -142c-31 26 -83 48 -146 48c-114 0 -180 -64 -180 -192c0 -70 53 -108 144 -108c63 0 112 22 154 50zM380 630l-78 160h117l51 -87l87 87h125
l-146 -160h-156z" />
    <glyph glyph-name="Dcaron" unicode="&#x10e;" horiz-adv-x="770" 
d="M313 -7c-87 0 -154 4 -223 9l148 697c86 5 150 8 248 8c197 0 307 -93 307 -261c0 -145 -42 -268 -117 -342c-79 -78 -188 -111 -363 -111zM283 140c24 -3 43 -5 69 -5c71 0 130 15 170 43c57 40 95 134 95 236c0 92 -42 151 -161 151c-30 0 -57 -2 -84 -5zM433 765
l-84 170h117l59 -97l99 97h125l-156 -170h-160z" />
    <glyph glyph-name="dcaron" unicode="&#x10f;" horiz-adv-x="815" 
d="M476 0l2 85c-33 -50 -84 -99 -183 -99c-123 0 -200 73 -200 210c0 179 82 358 292 358c106 0 148 -40 167 -90l64 296h160l-162 -760h-140zM259 227c0 -80 50 -107 114 -107c75 0 117 39 136 130l6 29c20 96 -22 141 -98 141c-114 0 -158 -96 -158 -193zM810 540l103 220
h144l-143 -220h-104z" />
    <glyph glyph-name="Dcroat" unicode="&#x110;" horiz-adv-x="780" 
d="M87 305l23 110h79l60 284c86 5 150 8 248 8c197 0 307 -93 307 -261c0 -145 -42 -268 -117 -342c-79 -78 -188 -111 -363 -111c-87 0 -154 4 -223 9l64 303h-78zM294 140c24 -3 43 -5 69 -5c71 0 130 15 170 43c57 40 95 134 95 236c0 92 -42 151 -161 151
c-30 0 -57 -2 -84 -5l-31 -145h125l-23 -110h-125z" />
    <glyph glyph-name="dcroat" unicode="&#x111;" horiz-adv-x="690" 
d="M391 588l22 104h190l15 68h160l-15 -68h79l-22 -104h-79l-125 -588h-140l2 85c-33 -50 -84 -99 -183 -99c-123 0 -200 73 -200 210c0 179 82 358 292 358c106 0 148 -40 167 -90l27 124h-190zM259 227c0 -80 50 -107 114 -107c75 0 117 39 136 130l6 29
c20 96 -22 141 -98 141c-114 0 -158 -96 -158 -193z" />
    <glyph glyph-name="Emacron" unicode="&#x112;" horiz-adv-x="635" 
d="M90 0l149 700h490l-30 -142h-326l-29 -137h285l-28 -132h-286l-31 -147h326l-30 -142h-490zM339 788v104h350v-104h-350z" />
    <glyph glyph-name="emacron" unicode="&#x113;" horiz-adv-x="610" 
d="M348 -14c-173 0 -256 87 -256 206c0 217 124 362 344 362c162 0 217 -61 217 -144c0 -79 -46 -180 -311 -180h-90c-1 -7 -2 -17 -2 -27c0 -65 43 -95 134 -95c78 0 164 30 212 70l-28 -132c-36 -28 -123 -60 -220 -60zM361 322c104 0 128 30 128 64c0 27 -13 46 -69 46
c-90 0 -131 -35 -150 -110h91zM283 650v100h340v-100h-340z" />
    <glyph glyph-name="Edotaccent" unicode="&#x116;" horiz-adv-x="635" 
d="M90 0l149 700h490l-30 -142h-326l-29 -137h285l-28 -132h-286l-31 -147h326l-30 -142h-490zM514 758c-62 0 -90 28 -90 82s28 82 90 82s90 -28 90 -82s-28 -82 -90 -82z" />
    <glyph glyph-name="edotaccent" unicode="&#x117;" horiz-adv-x="610" 
d="M348 -14c-173 0 -256 87 -256 206c0 217 124 362 344 362c162 0 217 -61 217 -144c0 -79 -46 -180 -311 -180h-90c-1 -7 -2 -17 -2 -27c0 -65 43 -95 134 -95c78 0 164 30 212 70l-28 -132c-36 -28 -123 -60 -220 -60zM361 322c104 0 128 30 128 64c0 27 -13 46 -69 46
c-90 0 -131 -35 -150 -110h91zM453 620c-65 0 -95 30 -95 80s30 80 95 80s95 -30 95 -80s-30 -80 -95 -80z" />
    <glyph glyph-name="Eogonek" unicode="&#x118;" horiz-adv-x="635" 
d="M90 0l149 700h490l-30 -142h-326l-29 -137h285l-28 -132h-286l-31 -147h326l-30 -142h-37c-49 -28 -115 -81 -115 -144c0 -27 21 -40 50 -40c23 0 44 5 66 16l-16 -75c-25 -11 -60 -21 -104 -21c-87 0 -113 40 -113 83c0 82 79 145 148 181h-369z" />
    <glyph glyph-name="eogonek" unicode="&#x119;" horiz-adv-x="610" 
d="M337 -254c-86 0 -112 42 -112 84c0 67 56 121 114 156c-167 3 -247 89 -247 206c0 217 124 362 344 362c162 0 217 -61 217 -144c0 -79 -46 -180 -311 -180h-90c-1 -7 -2 -17 -2 -27c0 -65 43 -95 134 -95c78 0 164 30 212 70l-28 -132c-24 -19 -71 -40 -128 -51
c-46 -28 -100 -75 -100 -132c0 -26 18 -42 46 -42c22 0 44 6 64 16l-15 -71c-24 -10 -56 -20 -98 -20zM361 322c104 0 128 30 128 64c0 27 -13 46 -69 46c-90 0 -131 -35 -150 -110h91z" />
    <glyph glyph-name="Ecaron" unicode="&#x11a;" horiz-adv-x="635" 
d="M90 0l149 700h490l-30 -142h-326l-29 -137h285l-28 -132h-286l-31 -147h326l-30 -142h-490zM418 765l-84 170h117l59 -97l99 97h125l-156 -170h-160z" />
    <glyph glyph-name="ecaron" unicode="&#x11b;" horiz-adv-x="610" 
d="M348 -14c-173 0 -256 87 -256 206c0 217 124 362 344 362c162 0 217 -61 217 -144c0 -79 -46 -180 -311 -180h-90c-1 -7 -2 -17 -2 -27c0 -65 43 -95 134 -95c78 0 164 30 212 70l-28 -132c-36 -28 -123 -60 -220 -60zM361 322c104 0 128 30 128 64c0 27 -13 46 -69 46
c-90 0 -131 -35 -150 -110h91zM361 630l-78 160h117l51 -87l87 87h125l-146 -160h-156z" />
    <glyph glyph-name="Gcircumflex" unicode="&#x11c;" horiz-adv-x="720" 
d="M436 -14c-199 0 -314 81 -314 276c0 142 69 305 169 379c77 57 161 73 267 73c91 0 183 -25 218 -44l-33 -153c-40 27 -116 55 -197 55c-58 0 -114 -15 -155 -51c-54 -47 -93 -158 -93 -235c0 -118 60 -158 163 -158c45 0 77 7 103 14l26 123h-129l28 132h273l-76 -357
c-37 -19 -132 -54 -250 -54zM365 755l156 170h160l84 -170h-117l-57 97l-101 -97h-125z" />
    <glyph glyph-name="gcircumflex" unicode="&#x11d;" horiz-adv-x="690" 
d="M260 -204c-89 0 -163 15 -201 30l32 144c29 -21 92 -46 200 -46c113 0 165 61 180 136l13 65c-33 -50 -83 -99 -183 -99c-123 0 -203 55 -203 202s77 326 287 326c107 0 149 -40 168 -90l37 76h140l-100 -470c-41 -195 -160 -274 -370 -274zM379 154c88 0 121 55 132 106
l6 29c20 97 -25 137 -102 137c-108 0 -145 -79 -145 -167c0 -72 39 -105 109 -105zM269 620l146 160h156l78 -160h-117l-49 87l-89 -87h-125z" />
    <glyph glyph-name="Gbreve" unicode="&#x11e;" horiz-adv-x="720" 
d="M436 -14c-199 0 -314 81 -314 276c0 142 69 305 169 379c77 57 161 73 267 73c91 0 183 -25 218 -44l-33 -153c-40 27 -116 55 -197 55c-58 0 -114 -15 -155 -51c-54 -47 -93 -158 -93 -235c0 -118 60 -158 163 -158c45 0 77 7 103 14l26 123h-129l28 132h273l-76 -357
c-37 -19 -132 -54 -250 -54zM416 900l99 25c4 -50 31 -70 71 -70s75 20 101 70l89 -25c-46 -98 -116 -145 -211 -145s-145 47 -149 145z" />
    <glyph glyph-name="gbreve" unicode="&#x11f;" horiz-adv-x="690" 
d="M260 -204c-89 0 -163 15 -201 30l32 144c29 -21 92 -46 200 -46c113 0 165 61 180 136l13 65c-33 -50 -83 -99 -183 -99c-123 0 -203 55 -203 202s77 326 287 326c107 0 149 -40 168 -90l37 76h140l-100 -470c-41 -195 -160 -274 -370 -274zM379 154c88 0 121 55 132 106
l6 29c20 97 -25 137 -102 137c-108 0 -145 -79 -145 -167c0 -72 39 -105 109 -105zM308 760l97 25c5 -50 33 -72 73 -72s78 22 103 72l87 -25c-46 -98 -116 -145 -211 -145s-145 47 -149 145z" />
    <glyph glyph-name="Gdotaccent" unicode="&#x120;" horiz-adv-x="720" 
d="M436 -14c-199 0 -314 81 -314 276c0 142 69 305 169 379c77 57 161 73 267 73c91 0 183 -25 218 -44l-33 -153c-40 27 -116 55 -197 55c-58 0 -114 -15 -155 -51c-54 -47 -93 -158 -93 -235c0 -118 60 -158 163 -158c45 0 77 7 103 14l26 123h-129l28 132h273l-76 -357
c-37 -19 -132 -54 -250 -54zM584 758c-62 0 -90 28 -90 82s28 82 90 82s90 -28 90 -82s-28 -82 -90 -82z" />
    <glyph glyph-name="gdotaccent" unicode="&#x121;" horiz-adv-x="690" 
d="M260 -204c-89 0 -163 15 -201 30l32 144c29 -21 92 -46 200 -46c113 0 165 61 180 136l13 65c-33 -50 -83 -99 -183 -99c-123 0 -203 55 -203 202s77 326 287 326c107 0 149 -40 168 -90l37 76h140l-100 -470c-41 -195 -160 -274 -370 -274zM379 154c88 0 121 55 132 106
l6 29c20 97 -25 137 -102 137c-108 0 -145 -79 -145 -167c0 -72 39 -105 109 -105zM476 620c-65 0 -95 30 -95 80s30 80 95 80s95 -30 95 -80s-30 -80 -95 -80z" />
    <glyph glyph-name="Gcommaaccent" unicode="&#x122;" horiz-adv-x="720" 
d="M436 -14c-199 0 -314 81 -314 276c0 142 69 305 169 379c77 57 161 73 267 73c91 0 183 -25 218 -44l-33 -153c-40 27 -116 55 -197 55c-58 0 -114 -15 -155 -51c-54 -47 -93 -158 -93 -235c0 -118 60 -158 163 -158c45 0 77 7 103 14l26 123h-129l28 132h273l-76 -357
c-37 -19 -132 -54 -250 -54zM276 -253l12 56c45 0 83 9 94 41c-7 -1 -14 -1 -20 -1c-49 0 -75 15 -75 43c0 52 56 68 107 68c49 0 80 -21 80 -63c0 -82 -79 -144 -198 -144z" />
    <glyph glyph-name="gcommaaccent" unicode="&#x123;" horiz-adv-x="690" 
d="M260 -204c-89 0 -163 15 -201 30l32 144c29 -21 92 -46 200 -46c113 0 165 61 180 136l13 65c-33 -50 -83 -99 -183 -99c-123 0 -203 55 -203 202s77 326 287 326c107 0 149 -40 168 -90l37 76h140l-100 -470c-41 -195 -160 -274 -370 -274zM379 154c88 0 121 55 132 106
l6 29c20 97 -25 137 -102 137c-108 0 -145 -79 -145 -167c0 -72 39 -105 109 -105zM572 817l-11 -53c-43 0 -77 -10 -88 -40c8 1 14 1 20 1c44 0 69 -14 69 -44c0 -46 -62 -61 -101 -61c-44 0 -75 19 -75 66c0 93 109 131 186 131z" />
    <glyph glyph-name="Hcircumflex" unicode="&#x124;" horiz-adv-x="800" 
d="M90 0l149 700h164l-57 -269h292l57 269h164l-149 -700h-164l61 289h-292l-61 -289h-164zM361 755l156 170h160l84 -170h-117l-57 97l-101 -97h-125z" />
    <glyph glyph-name="hcircumflex" unicode="&#x125;" horiz-adv-x="680" 
d="M75 0l162 760h161l-63 -295c39 58 103 89 195 89c111 0 164 -42 164 -129c0 -22 -3 -43 -9 -71l-75 -354h-160l67 317c3 16 4 30 4 41c0 45 -27 62 -86 62c-81 0 -119 -36 -136 -117l-64 -303h-160zM133 780l146 160h156l78 -160h-117l-49 87l-89 -87h-125z" />
    <glyph glyph-name="Hbar" unicode="&#x126;" horiz-adv-x="820" 
d="M126 495l23 110h79l20 95h164l-20 -95h292l20 95h164l-20 -95h80l-23 -110h-81l-105 -495h-164l61 289h-292l-61 -289h-164l105 495h-78zM355 431h292l13 64h-292z" />
    <glyph glyph-name="hbar" unicode="&#x127;" horiz-adv-x="680" 
d="M121 588l22 104h79l15 68h161l-15 -68h189l-22 -104h-189l-26 -123c39 58 103 89 195 89c111 0 164 -42 164 -129c0 -22 -3 -43 -9 -71l-75 -354h-160l67 317c3 16 4 30 4 41c0 45 -27 62 -86 62c-81 0 -119 -36 -136 -117l-64 -303h-160l125 588h-79z" />
    <glyph glyph-name="Imacron" unicode="&#x12a;" horiz-adv-x="354" 
d="M95 0l149 700h164l-149 -700h-164zM181 788v104h350v-104h-350z" />
    <glyph glyph-name="imacron" unicode="&#x12b;" horiz-adv-x="320" 
d="M240 0h-160l115 540h160zM139 650v100h340v-100h-340z" />
    <glyph glyph-name="Iogonek" unicode="&#x12e;" horiz-adv-x="354" 
d="M95 0l149 700h164l-149 -700h-38c-49 -28 -115 -81 -115 -144c0 -27 21 -40 50 -40c23 0 44 5 66 16l-16 -75c-25 -11 -60 -21 -104 -21c-87 0 -113 40 -113 83c0 82 79 145 148 181h-42z" />
    <glyph glyph-name="iogonek" unicode="&#x12f;" horiz-adv-x="320" 
d="M92 -254c-86 0 -112 42 -112 84c0 77 74 137 139 170h-39l115 540h160l-115 -540h-37c-48 -27 -108 -76 -108 -137c0 -26 18 -42 46 -42c22 0 44 6 64 16l-15 -71c-24 -10 -56 -20 -98 -20zM309 620c-65 0 -95 30 -95 80s30 80 95 80s95 -30 95 -80s-30 -80 -95 -80z" />
    <glyph glyph-name="Idotaccent" unicode="&#x130;" horiz-adv-x="354" 
d="M95 0l149 700h164l-149 -700h-164zM355 758c-62 0 -90 28 -90 82s28 82 90 82s90 -28 90 -82s-28 -82 -90 -82z" />
    <glyph glyph-name="dotlessi" unicode="&#x131;" horiz-adv-x="320" 
d="M240 0h-160l115 540h160z" />
    <glyph glyph-name="Jcircumflex" unicode="&#x134;" horiz-adv-x="460" 
d="M163 -7c-47 0 -93 12 -132 30l32 151c32 -23 59 -39 95 -39c54 0 83 29 98 101l99 464h164l-103 -485c-34 -160 -106 -222 -253 -222zM249 755l156 170h160l84 -170h-117l-57 97l-101 -97h-125z" />
    <glyph glyph-name="jcircumflex" unicode="&#x135;" horiz-adv-x="320" 
d="M-68 -172l28 131c13 -6 32 -11 54 -11c38 0 57 14 65 52l116 540h160l-117 -545c-28 -129 -88 -182 -210 -182c-53 0 -83 9 -96 15zM102 620l146 160h156l78 -160h-117l-49 87l-89 -87h-125z" />
    <glyph glyph-name="Kcommaaccent" unicode="&#x136;" horiz-adv-x="730" 
d="M533 0l-139 284h-79l-60 -284h-164l148 700h164l-58 -274h62l241 274h192l-308 -341l178 -359h-177zM271 -253l12 56c45 0 83 9 94 41c-7 -1 -14 -1 -20 -1c-49 0 -75 15 -75 43c0 52 56 68 107 68c49 0 80 -21 80 -63c0 -82 -79 -144 -198 -144z" />
    <glyph glyph-name="kcommaaccent" unicode="&#x137;" horiz-adv-x="640" 
d="M75 0l162 760h160l-87 -413h47l165 193h193l-241 -265l146 -275h-185l-107 213h-47l-46 -213h-160zM226 -243l11 53c43 0 77 10 88 40c-8 -1 -14 -1 -20 -1c-44 0 -69 14 -69 44c0 46 62 61 101 61c44 0 75 -19 75 -66c0 -93 -109 -131 -186 -131z" />
    <glyph glyph-name="Lacute" unicode="&#x139;" horiz-adv-x="585" 
d="M90 0l149 700h164l-119 -558h306l-30 -142h-470zM271 755l144 170h192l-214 -170h-122z" />
    <glyph glyph-name="lacute" unicode="&#x13a;" horiz-adv-x="375" 
d="M246 -7c-91 0 -146 28 -146 102c0 16 3 35 7 56l130 609h160l-124 -582c-2 -9 -3 -16 -3 -22c0 -24 14 -29 43 -29c22 0 41 3 61 9l-27 -128c-16 -7 -53 -15 -101 -15zM256 780l134 160h190l-204 -160h-120z" />
    <glyph glyph-name="Lcommaaccent" unicode="&#x13b;" horiz-adv-x="585" 
d="M90 0l149 700h164l-119 -558h306l-30 -142h-470zM196 -253l12 56c45 0 83 9 94 41c-7 -1 -14 -1 -20 -1c-49 0 -75 15 -75 43c0 52 56 68 107 68c49 0 80 -21 80 -63c0 -82 -79 -144 -198 -144z" />
    <glyph glyph-name="lcommaaccent" unicode="&#x13c;" horiz-adv-x="375" 
d="M246 -7c-91 0 -146 28 -146 102c0 16 3 35 7 56l130 609h160l-124 -582c-2 -9 -3 -16 -3 -22c0 -24 14 -29 43 -29c22 0 41 3 61 9l-27 -128c-16 -7 -53 -15 -101 -15zM88 -243l11 53c43 0 77 10 88 40c-8 -1 -14 -1 -20 -1c-44 0 -69 14 -69 44c0 46 62 61 101 61
c44 0 75 -19 75 -66c0 -93 -109 -131 -186 -131z" />
    <glyph glyph-name="Lcaron" unicode="&#x13d;" horiz-adv-x="585" 
d="M90 0l149 700h164l-119 -558h306l-30 -142h-470zM436 480l103 220h144l-143 -220h-104z" />
    <glyph glyph-name="lcaron" unicode="&#x13e;" horiz-adv-x="434" 
d="M246 -7c-91 0 -146 28 -146 102c0 16 3 35 7 56l130 609h160l-124 -582c-2 -9 -3 -16 -3 -22c0 -24 14 -29 43 -29c22 0 41 3 61 9l-27 -128c-16 -7 -53 -15 -101 -15zM429 540l103 220h144l-143 -220h-104z" />
    <glyph glyph-name="Ldot" unicode="&#x13f;" horiz-adv-x="585" 
d="M88 0l149 700h164l-119 -558h306l-30 -142h-470zM543 283c-68 0 -100 32 -100 97s32 97 100 97s100 -32 100 -97s-32 -97 -100 -97z" />
    <glyph glyph-name="ldot" unicode="&#x140;" 
d="M246 -7c-91 0 -146 28 -146 102c0 16 3 35 7 56l130 609h160l-124 -582c-2 -9 -3 -16 -3 -22c0 -24 14 -29 43 -29c22 0 41 3 61 9l-27 -128c-16 -7 -53 -15 -101 -15zM459 283c-68 0 -100 32 -100 97s32 97 100 97s100 -32 100 -97s-32 -97 -100 -97z" />
    <glyph glyph-name="Lslash" unicode="&#x141;" horiz-adv-x="595" 
d="M67 219l26 120l89 46l67 315h164l-47 -221l145 75l-25 -120l-146 -75l-46 -217h306l-30 -142h-470l56 265z" />
    <glyph glyph-name="lslash" unicode="&#x142;" horiz-adv-x="420" 
d="M70 233l24 114l111 57l76 356h160l-56 -264l113 58l-24 -114l-114 -58l-43 -204c-2 -9 -3 -16 -3 -22c0 -24 14 -29 43 -29c22 0 41 3 61 9l-27 -128c-16 -7 -53 -15 -101 -15c-91 0 -146 28 -146 102c0 16 3 35 7 56l29 138z" />
    <glyph glyph-name="Nacute" unicode="&#x143;" horiz-adv-x="802" 
d="M91 0l148 700h170l153 -381c15 -37 30 -69 40 -109c2 40 5 71 13 110l81 380h164l-148 -700h-170l-154 380c-16 40 -27 70 -36 110c-3 -40 -7 -70 -16 -110l-81 -380h-164zM498 755l144 170h192l-214 -170h-122z" />
    <glyph glyph-name="nacute" unicode="&#x144;" horiz-adv-x="680" 
d="M75 0l115 540h140l2 -76c48 66 120 90 198 90c106 0 164 -37 164 -129c0 -19 -3 -41 -8 -66l-76 -359h-160l65 305c4 20 6 38 6 52c0 47 -26 63 -87 63c-78 0 -119 -38 -135 -116l-64 -304h-160zM417 630l134 160h190l-204 -160h-120z" />
    <glyph glyph-name="Ncommaaccent" unicode="&#x145;" horiz-adv-x="802" 
d="M91 0l148 700h170l153 -381c15 -37 30 -69 40 -109c2 40 5 71 13 110l81 380h164l-148 -700h-170l-154 380c-16 40 -27 70 -36 110c-3 -40 -7 -70 -16 -110l-81 -380h-164zM272 -253l12 56c45 0 83 9 94 41c-7 -1 -14 -1 -20 -1c-49 0 -75 15 -75 43c0 52 56 68 107 68
c49 0 80 -21 80 -63c0 -82 -79 -144 -198 -144z" />
    <glyph glyph-name="ncommaaccent" unicode="&#x146;" horiz-adv-x="680" 
d="M75 0l115 540h140l2 -76c48 66 120 90 198 90c106 0 164 -37 164 -129c0 -19 -3 -41 -8 -66l-76 -359h-160l65 305c4 20 6 38 6 52c0 47 -26 63 -87 63c-78 0 -119 -38 -135 -116l-64 -304h-160zM220 -243l11 53c43 0 77 10 88 40c-8 -1 -14 -1 -20 -1
c-44 0 -69 14 -69 44c0 46 62 61 101 61c44 0 75 -19 75 -66c0 -93 -109 -131 -186 -131z" />
    <glyph glyph-name="Ncaron" unicode="&#x147;" horiz-adv-x="802" 
d="M91 0l148 700h170l153 -381c15 -37 30 -69 40 -109c2 40 5 71 13 110l81 380h164l-148 -700h-170l-154 380c-16 40 -27 70 -36 110c-3 -40 -7 -70 -16 -110l-81 -380h-164zM484 765l-84 170h117l59 -97l99 97h125l-156 -170h-160z" />
    <glyph glyph-name="ncaron" unicode="&#x148;" horiz-adv-x="680" 
d="M75 0l115 540h140l2 -76c48 66 120 90 198 90c106 0 164 -37 164 -129c0 -19 -3 -41 -8 -66l-76 -359h-160l65 305c4 20 6 38 6 52c0 47 -26 63 -87 63c-78 0 -119 -38 -135 -116l-64 -304h-160zM398 630l-78 160h117l51 -87l87 87h125l-146 -160h-156z" />
    <glyph glyph-name="Omacron" unicode="&#x14c;" horiz-adv-x="810" 
d="M397 -14c-159 0 -278 80 -278 249c0 131 48 305 158 397c74 62 170 82 274 82c165 0 287 -70 287 -250c0 -134 -47 -309 -145 -388c-88 -71 -187 -90 -296 -90zM434 128c59 0 108 15 144 55c48 53 84 159 84 248c0 96 -45 141 -138 141c-52 0 -99 -12 -135 -45
c-59 -54 -94 -176 -94 -263c0 -99 52 -136 139 -136zM408 788v104h350v-104h-350z" />
    <glyph glyph-name="omacron" unicode="&#x14d;" horiz-adv-x="670" 
d="M95 215c0 189 120 339 340 339c134 0 255 -60 255 -219c0 -203 -109 -349 -335 -349c-170 0 -260 90 -260 229zM259 222c0 -63 33 -102 112 -102c114 0 155 126 155 210c0 63 -40 90 -108 90c-110 0 -159 -100 -159 -198zM313 650v100h340v-100h-340z" />
    <glyph glyph-name="Ohungarumlaut" unicode="&#x150;" horiz-adv-x="810" 
d="M397 -14c-159 0 -278 80 -278 249c0 131 48 305 158 397c74 62 170 82 274 82c165 0 287 -70 287 -250c0 -134 -47 -309 -145 -388c-88 -71 -187 -90 -296 -90zM434 128c59 0 108 15 144 55c48 53 84 159 84 248c0 96 -45 141 -138 141c-52 0 -99 -12 -135 -45
c-59 -54 -94 -176 -94 -263c0 -99 52 -136 139 -136zM395 755l86 170h172l-136 -170h-122zM603 755l136 170h192l-196 -170h-132z" />
    <glyph glyph-name="ohungarumlaut" unicode="&#x151;" horiz-adv-x="670" 
d="M95 215c0 189 120 339 340 339c134 0 255 -60 255 -219c0 -203 -109 -349 -335 -349c-170 0 -260 90 -260 229zM259 222c0 -63 33 -102 112 -102c114 0 155 126 155 210c0 63 -40 90 -108 90c-110 0 -159 -100 -159 -198zM306 620l84 160h170l-134 -160h-120zM496 620
l134 160h190l-194 -160h-130z" />
    <glyph glyph-name="OE" unicode="&#x152;" horiz-adv-x="975" 
d="M920 0h-386c-36 -9 -77 -14 -129 -14c-160 0 -287 71 -287 251c0 127 58 330 188 418c62 42 148 59 230 59c42 0 82 -6 117 -14h416l-30 -142h-276l-29 -137h235l-28 -132h-236l-31 -147h276zM456 128c18 0 35 1 52 4l92 432c-21 5 -43 8 -67 8c-54 0 -96 -16 -128 -38
c-72 -51 -111 -183 -111 -267c0 -94 61 -139 162 -139z" />
    <glyph glyph-name="oe" unicode="&#x153;" horiz-adv-x="1040" 
d="M772 230h-90c-1 -7 -2 -17 -2 -27c0 -65 43 -95 134 -95c78 0 164 30 212 70l-28 -132c-36 -28 -123 -60 -220 -60s-163 27 -202 72c-52 -46 -125 -72 -221 -72c-170 0 -260 90 -260 229c0 189 120 339 340 339c83 0 157 -24 202 -79c55 50 131 79 229 79
c162 0 217 -61 217 -146c0 -77 -46 -178 -311 -178zM259 222c0 -63 33 -102 112 -102c114 0 155 126 155 210c0 63 -40 90 -108 90c-110 0 -159 -100 -159 -198zM791 322c104 0 128 30 128 65c0 26 -13 45 -74 45c-83 0 -124 -35 -143 -110h89z" />
    <glyph glyph-name="Racute" unicode="&#x154;" horiz-adv-x="700" 
d="M91 0l148 699c86 6 151 8 219 8c154 0 258 -44 258 -207c0 -115 -56 -217 -163 -243l122 -257h-177l-105 234h-88l-50 -234h-164zM332 365h74c84 0 134 29 134 117c0 61 -46 83 -89 83c-24 0 -51 -1 -77 -4zM430 755l144 170h192l-214 -170h-122z" />
    <glyph glyph-name="racute" unicode="&#x155;" horiz-adv-x="475" 
d="M75 0l115 540h140l2 -77c38 58 97 91 166 91c22 0 40 -3 58 -7l-33 -155c-17 17 -45 28 -89 28c-80 0 -119 -45 -138 -133l-61 -287h-160zM332 630l134 160h190l-204 -160h-120z" />
    <glyph glyph-name="Rcommaaccent" unicode="&#x156;" horiz-adv-x="700" 
d="M91 0l148 699c86 6 151 8 219 8c154 0 258 -44 258 -207c0 -115 -56 -217 -163 -243l122 -257h-177l-105 234h-88l-50 -234h-164zM332 365h74c84 0 134 29 134 117c0 61 -46 83 -89 83c-24 0 -51 -1 -77 -4zM253 -253l12 56c45 0 83 9 94 41c-7 -1 -14 -1 -20 -1
c-49 0 -75 15 -75 43c0 52 56 68 107 68c49 0 80 -21 80 -63c0 -82 -79 -144 -198 -144z" />
    <glyph glyph-name="rcommaaccent" unicode="&#x157;" horiz-adv-x="475" 
d="M75 0l115 540h140l2 -77c38 58 97 91 166 91c22 0 40 -3 58 -7l-33 -155c-17 17 -45 28 -89 28c-80 0 -119 -45 -138 -133l-61 -287h-160zM31 -243l11 53c43 0 77 10 88 40c-8 -1 -14 -1 -20 -1c-44 0 -69 14 -69 44c0 46 62 61 101 61c44 0 75 -19 75 -66
c0 -93 -109 -131 -186 -131z" />
    <glyph glyph-name="Rcaron" unicode="&#x158;" horiz-adv-x="700" 
d="M91 0l148 699c86 6 151 8 219 8c154 0 258 -44 258 -207c0 -115 -56 -217 -163 -243l122 -257h-177l-105 234h-88l-50 -234h-164zM332 365h74c84 0 134 29 134 117c0 61 -46 83 -89 83c-24 0 -51 -1 -77 -4zM398 765l-84 170h117l59 -97l99 97h125l-156 -170h-160z" />
    <glyph glyph-name="rcaron" unicode="&#x159;" horiz-adv-x="475" 
d="M75 0l115 540h140l2 -77c38 58 97 91 166 91c22 0 40 -3 58 -7l-33 -155c-17 17 -45 28 -89 28c-80 0 -119 -45 -138 -133l-61 -287h-160zM313 630l-78 160h117l51 -87l87 87h125l-146 -160h-156z" />
    <glyph glyph-name="Sacute" unicode="&#x15a;" horiz-adv-x="640" 
d="M313 -14c-81 0 -188 26 -240 59l34 159c51 -51 136 -82 217 -82c89 0 137 27 137 75c0 113 -298 71 -298 285c0 141 118 232 299 232c85 0 188 -21 235 -48l-34 -158c-47 40 -122 70 -198 70c-84 0 -126 -19 -126 -64c0 -117 298 -83 298 -289
c0 -153 -118 -239 -324 -239zM400 755l144 170h192l-214 -170h-122z" />
    <glyph glyph-name="sacute" unicode="&#x15b;" horiz-adv-x="560" 
d="M64 21l32 149c36 -33 102 -60 181 -60c72 0 102 17 102 57c0 67 -244 25 -244 179c0 167 136 208 280 208c58 0 121 -6 168 -22l-30 -146c-39 27 -85 44 -159 44c-63 0 -95 -16 -95 -46c0 -67 244 -19 244 -176c0 -171 -140 -222 -288 -222c-58 0 -132 10 -191 35z
M354 630l134 160h190l-204 -160h-120z" />
    <glyph glyph-name="Scircumflex" unicode="&#x15c;" horiz-adv-x="640" 
d="M313 -14c-81 0 -188 26 -240 59l34 159c51 -51 136 -82 217 -82c89 0 137 27 137 75c0 113 -298 71 -298 285c0 141 118 232 299 232c85 0 188 -21 235 -48l-34 -158c-47 40 -122 70 -198 70c-84 0 -126 -19 -126 -64c0 -117 298 -83 298 -289
c0 -153 -118 -239 -324 -239zM285 755l156 170h160l84 -170h-117l-57 97l-101 -97h-125z" />
    <glyph glyph-name="scircumflex" unicode="&#x15d;" horiz-adv-x="560" 
d="M64 21l32 149c36 -33 102 -60 181 -60c72 0 102 17 102 57c0 67 -244 25 -244 179c0 167 136 208 280 208c58 0 121 -6 168 -22l-30 -146c-39 27 -85 44 -159 44c-63 0 -95 -16 -95 -46c0 -67 244 -19 244 -176c0 -171 -140 -222 -288 -222c-58 0 -132 10 -191 35z
M222 620l146 160h156l78 -160h-117l-49 87l-89 -87h-125z" />
    <glyph glyph-name="Scedilla" unicode="&#x15e;" horiz-adv-x="640" 
d="M266 -264c-45 0 -74 6 -99 17l27 69c17 -8 37 -13 60 -13c30 0 69 14 69 50c0 24 -28 30 -55 30c-10 0 -24 0 -35 -2l38 101c-73 7 -155 29 -198 57l34 159c51 -51 136 -82 217 -82c89 0 137 27 137 75c0 113 -298 71 -298 285c0 141 118 232 299 232
c85 0 188 -21 235 -48l-34 -158c-47 40 -122 70 -198 70c-84 0 -126 -19 -126 -64c0 -117 298 -83 298 -289c0 -142 -101 -226 -280 -237l-17 -42c52 0 98 -20 98 -73c0 -89 -93 -137 -172 -137z" />
    <glyph glyph-name="scedilla" unicode="&#x15f;" horiz-adv-x="560" 
d="M198 -104l35 91c-54 2 -117 12 -169 34l32 149c36 -33 102 -60 181 -60c72 0 102 17 102 57c0 67 -244 25 -244 179c0 167 136 208 280 208c58 0 121 -6 168 -22l-30 -146c-39 27 -85 44 -159 44c-63 0 -95 -16 -95 -46c0 -67 244 -19 244 -176
c0 -147 -104 -206 -227 -219l-18 -41c58 -1 105 -25 90 -94c-13 -63 -75 -108 -155 -108c-39 0 -74 6 -98 16l25 66c17 -7 35 -12 57 -12c31 0 58 15 64 44s-21 37 -50 37c-9 0 -23 0 -33 -1z" />
    <glyph glyph-name="Scaron" unicode="&#x160;" horiz-adv-x="640" 
d="M313 -14c-81 0 -188 26 -240 59l34 159c51 -51 136 -82 217 -82c89 0 137 27 137 75c0 113 -298 71 -298 285c0 141 118 232 299 232c85 0 188 -21 235 -48l-34 -158c-47 40 -122 70 -198 70c-84 0 -126 -19 -126 -64c0 -117 298 -83 298 -289
c0 -153 -118 -239 -324 -239zM408 765l-84 170h117l59 -97l99 97h125l-156 -170h-160z" />
    <glyph glyph-name="scaron" unicode="&#x161;" horiz-adv-x="560" 
d="M64 21l32 149c36 -33 102 -60 181 -60c72 0 102 17 102 57c0 67 -244 25 -244 179c0 167 136 208 280 208c58 0 121 -6 168 -22l-30 -146c-39 27 -85 44 -159 44c-63 0 -95 -16 -95 -46c0 -67 244 -19 244 -176c0 -171 -140 -222 -288 -222c-58 0 -132 10 -191 35z
M335 630l-78 160h117l51 -87l87 87h125l-146 -160h-156z" />
    <glyph glyph-name="Tcedilla" unicode="&#x162;" horiz-adv-x="620" 
d="M228 0l119 558h-203l30 142h570l-30 -142h-203l-119 -558h-39l-22 -54c52 0 98 -20 98 -73c0 -89 -93 -137 -172 -137c-45 0 -74 6 -99 17l27 69c17 -8 37 -13 60 -13c30 0 69 14 69 50c0 24 -28 30 -55 30c-10 0 -24 0 -35 -2l43 113h-39z" />
    <glyph glyph-name="tcedilla" unicode="&#x163;" horiz-adv-x="510" 
d="M239 -104l39 99c-82 9 -120 47 -120 120c0 21 3 37 9 64l48 227h-98l28 134h98l20 92l171 53l-31 -145h171l-28 -134h-171l-43 -202c-3 -13 -4 -23 -4 -33c0 -37 20 -44 61 -44c39 0 74 11 103 27l-28 -134c-21 -10 -58 -20 -105 -25l-20 -47c58 -1 105 -25 90 -94
c-13 -63 -75 -108 -155 -108c-39 0 -74 6 -98 16l25 66c17 -7 35 -12 57 -12c31 0 58 15 64 44s-21 37 -50 37c-9 0 -23 0 -33 -1z" />
    <glyph glyph-name="Tcaron" unicode="&#x164;" horiz-adv-x="620" 
d="M228 0l119 558h-203l30 142h570l-30 -142h-203l-119 -558h-164zM393 765l-84 170h117l59 -97l99 97h125l-156 -170h-160z" />
    <glyph glyph-name="tcaron" unicode="&#x165;" horiz-adv-x="510" 
d="M167 179l48 227h-98l28 134h98l20 92l171 53l-31 -145h171l-28 -134h-171l-43 -202c-3 -13 -4 -23 -4 -33c0 -37 20 -44 61 -44c39 0 74 11 103 27l-28 -134c-26 -12 -79 -27 -146 -27c-110 0 -160 38 -160 122c0 21 3 37 9 64zM491 590l103 220h144l-143 -220h-104z" />
    <glyph glyph-name="Umacron" unicode="&#x16a;" horiz-adv-x="750" 
d="M378 -14c-153 0 -240 72 -240 200c0 43 9 106 23 170l73 344h164l-78 -364c-14 -65 -15 -103 -15 -123c0 -61 46 -85 103 -85c78 0 126 28 155 164l87 408h164l-89 -418c-51 -240 -151 -296 -347 -296zM378 788v104h350v-104h-350z" />
    <glyph glyph-name="umacron" unicode="&#x16b;" horiz-adv-x="670" 
d="M111 191l75 349h160l-66 -310c-4 -17 -6 -32 -6 -45c0 -44 25 -62 82 -62c72 0 112 34 129 114l65 303h160l-115 -540h-140l-4 79c-50 -63 -111 -90 -197 -90c-102 0 -152 39 -152 128c0 22 3 46 9 74zM310 650v100h340v-100h-340z" />
    <glyph glyph-name="Ubreve" unicode="&#x16c;" horiz-adv-x="750" 
d="M378 -14c-153 0 -240 72 -240 200c0 43 9 106 23 170l73 344h164l-78 -364c-14 -65 -15 -103 -15 -123c0 -61 46 -85 103 -85c78 0 126 28 155 164l87 408h164l-89 -418c-51 -240 -151 -296 -347 -296zM385 900l99 25c4 -50 31 -70 71 -70s75 20 101 70l89 -25
c-46 -98 -116 -145 -211 -145s-145 47 -149 145z" />
    <glyph glyph-name="ubreve" unicode="&#x16d;" horiz-adv-x="670" 
d="M111 191l75 349h160l-66 -310c-4 -17 -6 -32 -6 -45c0 -44 25 -62 82 -62c72 0 112 34 129 114l65 303h160l-115 -540h-140l-4 79c-50 -63 -111 -90 -197 -90c-102 0 -152 39 -152 128c0 22 3 46 9 74zM314 760l97 25c5 -50 33 -72 73 -72s78 22 103 72l87 -25
c-46 -98 -116 -145 -211 -145s-145 47 -149 145z" />
    <glyph glyph-name="Uring" unicode="&#x16e;" horiz-adv-x="750" 
d="M378 -14c-153 0 -240 72 -240 200c0 43 9 106 23 170l73 344h164l-78 -364c-14 -65 -15 -103 -15 -123c0 -61 46 -85 103 -85c78 0 126 28 155 164l87 408h164l-89 -418c-51 -240 -151 -296 -347 -296zM553 722c-68 0 -118 50 -118 118s50 118 118 118s118 -50 118 -118
s-50 -118 -118 -118zM553 795c27 0 44 17 44 45s-17 45 -44 45s-44 -17 -44 -45s17 -45 44 -45z" />
    <glyph glyph-name="uring" unicode="&#x16f;" horiz-adv-x="670" 
d="M111 191l75 349h160l-66 -310c-4 -17 -6 -32 -6 -45c0 -44 25 -62 82 -62c72 0 112 34 129 114l65 303h160l-115 -540h-140l-4 79c-50 -63 -111 -90 -197 -90c-102 0 -152 39 -152 128c0 22 3 46 9 74zM481 584c-69 0 -116 47 -116 116s47 116 116 116s116 -47 116 -116
s-47 -116 -116 -116zM481 656c27 0 44 17 44 44s-17 44 -44 44s-44 -17 -44 -44s17 -44 44 -44z" />
    <glyph glyph-name="Uhungarumlaut" unicode="&#x170;" horiz-adv-x="750" 
d="M378 -14c-153 0 -240 72 -240 200c0 43 9 106 23 170l73 344h164l-78 -364c-14 -65 -15 -103 -15 -123c0 -61 46 -85 103 -85c78 0 126 28 155 164l87 408h164l-89 -418c-51 -240 -151 -296 -347 -296zM382 780l84 160h170l-134 -160h-120zM572 780l134 160h190
l-194 -160h-130z" />
    <glyph glyph-name="uhungarumlaut" unicode="&#x171;" horiz-adv-x="670" 
d="M111 191l75 349h160l-66 -310c-4 -17 -6 -32 -6 -45c0 -44 25 -62 82 -62c72 0 112 34 129 114l65 303h160l-115 -540h-140l-4 79c-50 -63 -111 -90 -197 -90c-102 0 -152 39 -152 128c0 22 3 46 9 74zM306 620l84 160h170l-134 -160h-120zM496 620l134 160h190
l-194 -160h-130z" />
    <glyph glyph-name="Uogonek" unicode="&#x172;" horiz-adv-x="750" 
d="M354 -254c-86 0 -112 42 -112 84c0 67 56 122 115 157c-140 6 -219 77 -219 199c0 43 9 106 23 170l73 344h164l-78 -364c-14 -65 -15 -103 -15 -123c0 -61 46 -85 103 -85c78 0 126 28 155 164l87 408h164l-89 -418c-45 -210 -127 -279 -278 -293
c-43 -28 -90 -73 -90 -126c0 -26 18 -42 46 -42c22 0 44 6 64 16l-15 -71c-24 -10 -56 -20 -98 -20z" />
    <glyph glyph-name="uogonek" unicode="&#x173;" horiz-adv-x="670" 
d="M447 -254c-86 0 -112 42 -112 84c0 77 74 137 139 170h-19l-4 79c-50 -63 -111 -90 -197 -90c-102 0 -152 39 -152 128c0 22 3 46 9 74l75 349h160l-66 -310c-4 -17 -6 -32 -6 -45c0 -44 25 -62 82 -62c72 0 112 34 129 114l65 303h160l-115 -540h-37
c-48 -27 -108 -76 -108 -137c0 -26 18 -42 46 -42c22 0 44 6 64 16l-15 -71c-24 -10 -56 -20 -98 -20z" />
    <glyph glyph-name="Ydieresis" unicode="&#x178;" horiz-adv-x="670" 
d="M253 0l54 252l-148 448h178l85 -266l192 266h195l-338 -448l-54 -252h-164zM400 762c-60 0 -86 26 -86 78s26 78 86 78s86 -26 86 -78s-26 -78 -86 -78zM628 762c-60 0 -86 26 -86 78s26 78 86 78s86 -26 86 -78s-26 -78 -86 -78z" />
    <glyph glyph-name="Zacute" unicode="&#x179;" horiz-adv-x="650" 
d="M54 0l20 94l411 464h-302l30 142h532l-20 -94l-411 -464h322l-30 -142h-552zM430 755l144 170h192l-214 -170h-122z" />
    <glyph glyph-name="zacute" unicode="&#x17a;" horiz-adv-x="580" 
d="M44 0l21 100l329 306h-255l29 134h472l-21 -100l-329 -306h274l-29 -134h-491zM364 630l134 160h190l-204 -160h-120z" />
    <glyph glyph-name="Zdotaccent" unicode="&#x17b;" horiz-adv-x="650" 
d="M54 0l20 94l411 464h-302l30 142h532l-20 -94l-411 -464h322l-30 -142h-552zM509 758c-62 0 -90 28 -90 82s28 82 90 82s90 -28 90 -82s-28 -82 -90 -82z" />
    <glyph glyph-name="zdotaccent" unicode="&#x17c;" horiz-adv-x="580" 
d="M44 0l21 100l329 306h-255l29 134h472l-21 -100l-329 -306h274l-29 -134h-491zM438 620c-65 0 -95 30 -95 80s30 80 95 80s95 -30 95 -80s-30 -80 -95 -80z" />
    <glyph glyph-name="Zcaron" unicode="&#x17d;" horiz-adv-x="650" 
d="M54 0l20 94l411 464h-302l30 142h532l-20 -94l-411 -464h322l-30 -142h-552zM413 765l-84 170h117l59 -97l99 97h125l-156 -170h-160z" />
    <glyph glyph-name="zcaron" unicode="&#x17e;" horiz-adv-x="580" 
d="M44 0l21 100l329 306h-255l29 134h472l-21 -100l-329 -306h274l-29 -134h-491zM345 630l-78 160h117l51 -87l87 87h125l-146 -160h-156z" />
    <glyph glyph-name="uni018F" unicode="&#x18f;" horiz-adv-x="742" 
d="M356 -14c-152 0 -240 77 -240 238c0 57 11 113 24 170h457c2 12 3 25 3 38c0 71 -35 140 -168 140c-72 0 -141 -12 -198 -36l31 150c76 19 148 28 214 28c235 0 294 -114 294 -242c0 -241 -147 -486 -417 -486zM384 120c83 0 159 46 190 160h-296c-4 -15 -7 -36 -7 -55
c0 -66 36 -105 113 -105z" />
    <glyph glyph-name="florin" unicode="&#x192;" horiz-adv-x="630" 
d="M212 406l28 134h100l9 39c24 112 88 185 225 185c32 0 63 -4 91 -9l-26 -122c-8 2 -30 6 -54 6c-59 0 -79 -23 -94 -94l-1 -5h127l-28 -134h-128l-80 -377c-31 -147 -97 -223 -232 -223c-27 0 -47 3 -61 6l26 126c8 -2 16 -3 28 -3c38 0 72 10 89 90l81 381h-100z" />
    <glyph glyph-name="uni01DD" unicode="&#x1dd;" horiz-adv-x="610" 
d="M383 310h90c1 7 2 17 2 27c0 65 -43 95 -134 95c-78 0 -164 -30 -212 -70l28 132c36 28 123 60 220 60c173 0 256 -87 256 -206c0 -217 -124 -362 -344 -362c-162 0 -217 61 -217 144c0 79 46 180 311 180zM364 218c-104 0 -128 -30 -128 -64c0 -27 13 -46 69 -46
c90 0 131 35 150 110h-91z" />
    <glyph glyph-name="Gcaron" unicode="&#x1e6;" horiz-adv-x="720" 
d="M436 -14c-199 0 -314 81 -314 276c0 142 69 305 169 379c77 57 161 73 267 73c91 0 183 -25 218 -44l-33 -153c-40 27 -116 55 -197 55c-58 0 -114 -15 -155 -51c-54 -47 -93 -158 -93 -235c0 -118 60 -158 163 -158c45 0 77 7 103 14l26 123h-129l28 132h273l-76 -357
c-37 -19 -132 -54 -250 -54zM488 765l-84 170h117l59 -97l99 97h125l-156 -170h-160z" />
    <glyph glyph-name="gcaron" unicode="&#x1e7;" horiz-adv-x="690" 
d="M260 -204c-89 0 -163 15 -201 30l32 144c29 -21 92 -46 200 -46c113 0 165 61 180 136l13 65c-33 -50 -83 -99 -183 -99c-123 0 -203 55 -203 202s77 326 287 326c107 0 149 -40 168 -90l37 76h140l-100 -470c-41 -195 -160 -274 -370 -274zM379 154c88 0 121 55 132 106
l6 29c20 97 -25 137 -102 137c-108 0 -145 -79 -145 -167c0 -72 39 -105 109 -105zM382 630l-78 160h117l51 -87l87 87h125l-146 -160h-156z" />
    <glyph glyph-name="Scommaaccent" unicode="&#x218;" horiz-adv-x="640" 
d="M313 -14c-81 0 -188 26 -240 59l34 159c51 -51 136 -82 217 -82c89 0 137 27 137 75c0 113 -298 71 -298 285c0 141 118 232 299 232c85 0 188 -21 235 -48l-34 -158c-47 40 -122 70 -198 70c-84 0 -126 -19 -126 -64c0 -117 298 -83 298 -289
c0 -153 -118 -239 -324 -239zM196 -253l12 56c45 0 83 9 94 41c-7 -1 -14 -1 -20 -1c-49 0 -75 15 -75 43c0 52 56 68 107 68c49 0 80 -21 80 -63c0 -82 -79 -144 -198 -144z" />
    <glyph glyph-name="scommaaccent" unicode="&#x219;" horiz-adv-x="560" 
d="M64 21l32 149c36 -33 102 -60 181 -60c72 0 102 17 102 57c0 67 -244 25 -244 179c0 167 136 208 280 208c58 0 121 -6 168 -22l-30 -146c-39 27 -85 44 -159 44c-63 0 -95 -16 -95 -46c0 -67 244 -19 244 -176c0 -171 -140 -222 -288 -222c-58 0 -132 10 -191 35z
M158 -243l11 53c43 0 77 10 88 40c-8 -1 -14 -1 -20 -1c-44 0 -69 14 -69 44c0 46 62 61 101 61c44 0 75 -19 75 -66c0 -93 -109 -131 -186 -131z" />
    <glyph glyph-name="Tcommaaccent" unicode="&#x21a;" horiz-adv-x="620" 
d="M228 0l119 558h-203l30 142h570l-30 -142h-203l-119 -558h-164zM180 -253l12 56c45 0 83 9 94 41c-7 -1 -14 -1 -20 -1c-49 0 -75 15 -75 43c0 52 56 68 107 68c49 0 80 -21 80 -63c0 -82 -79 -144 -198 -144z" />
    <glyph glyph-name="tcommaaccent" unicode="&#x21b;" horiz-adv-x="510" 
d="M167 179l48 227h-98l28 134h98l20 92l171 53l-31 -145h171l-28 -134h-171l-43 -202c-3 -13 -4 -23 -4 -33c0 -37 20 -44 61 -44c39 0 74 11 103 27l-28 -134c-26 -12 -79 -27 -146 -27c-110 0 -160 38 -160 122c0 21 3 37 9 64zM198 -243l11 53c43 0 77 10 88 40
c-8 -1 -14 -1 -20 -1c-44 0 -69 14 -69 44c0 46 62 61 101 61c44 0 75 -19 75 -66c0 -93 -109 -131 -186 -131z" />
    <glyph glyph-name="uni0237" unicode="&#x237;" horiz-adv-x="320" 
d="M-68 -172l28 131c13 -6 32 -11 54 -11c38 0 57 14 65 52l116 540h160l-117 -545c-28 -129 -88 -182 -210 -182c-53 0 -83 9 -96 15z" />
    <glyph glyph-name="uni0259" unicode="&#x259;" horiz-adv-x="610" 
d="M383 310h90c1 7 2 17 2 27c0 65 -43 95 -134 95c-78 0 -164 -30 -212 -70l28 132c36 28 123 60 220 60c173 0 256 -87 256 -206c0 -217 -124 -362 -344 -362c-162 0 -217 61 -217 144c0 79 46 180 311 180zM364 218c-104 0 -128 -30 -128 -64c0 -27 13 -46 69 -46
c90 0 131 35 150 110h-91z" />
    <glyph glyph-name="afii57929" unicode="&#x2bc;" horiz-adv-x="260" 
d="M132 480l103 220h144l-143 -220h-104z" />
    <glyph glyph-name="circumflex" unicode="&#x2c6;" horiz-adv-x="400" 
d="M142 620l146 160h156l78 -160h-117l-49 87l-89 -87h-125z" />
    <glyph glyph-name="caron" unicode="&#x2c7;" horiz-adv-x="400" 
d="M256 630l-78 160h117l51 -87l87 87h125l-146 -160h-156z" />
    <glyph glyph-name="breve" unicode="&#x2d8;" horiz-adv-x="380" 
d="M172 760l97 25c5 -50 33 -72 73 -72s78 22 103 72l87 -25c-46 -98 -116 -145 -211 -145s-145 47 -149 145z" />
    <glyph glyph-name="dotaccent" unicode="&#x2d9;" horiz-adv-x="215" 
d="M256 620c-65 0 -95 30 -95 80s30 80 95 80s95 -30 95 -80s-30 -80 -95 -80z" />
    <glyph glyph-name="ring" unicode="&#x2da;" horiz-adv-x="258" 
d="M278 584c-69 0 -116 47 -116 116s47 116 116 116s116 -47 116 -116s-47 -116 -116 -116zM278 656c27 0 44 17 44 44s-17 44 -44 44s-44 -17 -44 -44s17 -44 44 -44z" />
    <glyph glyph-name="ogonek" unicode="&#x2db;" horiz-adv-x="247" 
d="M89 -254c-86 0 -112 42 -112 84c0 86 93 151 163 181l64 -9c-48 -27 -112 -77 -112 -139c0 -26 18 -42 46 -42c22 0 44 6 64 16l-15 -71c-24 -10 -56 -20 -98 -20z" />
    <glyph glyph-name="tilde" unicode="&#x2dc;" horiz-adv-x="382" 
d="M231 628l-81 12c3 86 49 132 111 132c29 0 53 -11 86 -26c36 -16 45 -21 63 -21c22 0 35 17 39 47l81 -13c-4 -81 -48 -131 -111 -131c-33 0 -49 6 -87 24c-30 14 -42 24 -61 24c-18 0 -35 -17 -40 -48z" />
    <glyph glyph-name="hungarumlaut" unicode="&#x2dd;" horiz-adv-x="500" 
d="M142 620l84 160h170l-134 -160h-120zM332 620l134 160h190l-194 -160h-130z" />
    <glyph glyph-name="acutecomb" unicode="&#x301;" horiz-adv-x="0" 
d="M-286 630l134 160h190l-204 -160h-120z" />
    <glyph glyph-name="uni0394" unicode="&#x394;" horiz-adv-x="640" 
d="M10 0l221 700h180l219 -700h-620zM206 140h222l-109 386h-2z" />
    <glyph glyph-name="uni0394" unicode="&#x2206;" horiz-adv-x="640" 
d="M10 0l221 700h180l219 -700h-620zM206 140h222l-109 386h-2z" />
    <glyph glyph-name="uni03A9" unicode="&#x3a9;" horiz-adv-x="880" 
d="M180 0v134h145v38c-75 38 -159 113 -159 248c0 170 133 294 329 294s329 -124 329 -294c0 -135 -84 -210 -157 -248v-38h143v-134h-277v250c97 18 129 90 129 151c0 100 -72 173 -167 173s-167 -73 -167 -173c0 -61 32 -133 131 -151v-250h-279z" />
    <glyph glyph-name="uni03A9" unicode="&#x2126;" horiz-adv-x="880" 
d="M180 0v134h145v38c-75 38 -159 113 -159 248c0 170 133 294 329 294s329 -124 329 -294c0 -135 -84 -210 -157 -248v-38h143v-134h-277v250c97 18 129 90 129 151c0 100 -72 173 -167 173s-167 -73 -167 -173c0 -61 32 -133 131 -151v-250h-279z" />
    <glyph glyph-name="pi" unicode="&#x3c0;" horiz-adv-x="750" 
d="M147 0l84 399c-38 0 -72 -19 -97 -34l-19 128c32 22 91 47 199 47h505l-29 -138h-81l-44 -208c-4 -16 -5 -29 -5 -37c0 -25 10 -32 31 -32c8 0 21 1 32 4l-28 -133c-22 -5 -57 -9 -87 -9c-77 0 -121 27 -121 100c0 16 2 34 6 54l56 261h-158l-85 -402h-159z" />
    <glyph glyph-name="afii10023" unicode="&#x401;" horiz-adv-x="635" 
d="M90 0l149 700h490l-30 -142h-326l-29 -137h285l-28 -132h-286l-31 -147h326l-30 -142h-490zM400 762c-60 0 -86 26 -86 78s26 78 86 78s86 -26 86 -78s-26 -78 -86 -78zM628 762c-60 0 -86 26 -86 78s26 78 86 78s86 -26 86 -78s-26 -78 -86 -78z" />
    <glyph glyph-name="afii10051" unicode="&#x402;" horiz-adv-x="840" 
d="M227 0l119 558h-202l30 142h568l-30 -142h-202l-25 -117c46 14 96 23 172 23c148 0 187 -88 187 -165c0 -18 -2 -37 -6 -55l-10 -51c-27 -126 -111 -207 -257 -207c-28 0 -64 5 -84 10l26 122c9 -6 28 -11 50 -11c47 0 79 22 91 77l7 33c2 9 7 38 7 45
c0 44 -31 60 -84 60c-59 0 -98 -7 -128 -18l-65 -304h-164z" />
    <glyph glyph-name="afii10052" unicode="&#x403;" horiz-adv-x="585" 
d="M91 0l148 700h470l-30 -142h-305l-119 -558h-164zM424 755l144 170h192l-214 -170h-122z" />
    <glyph glyph-name="afii10053" unicode="&#x404;" horiz-adv-x="694" 
d="M770 670l-33 -156c-48 34 -127 58 -204 58c-54 0 -96 -16 -128 -38c-36 -25 -63 -70 -82 -118h292l-26 -122h-294c-1 -10 -1 -19 -1 -27c0 -94 61 -139 162 -139c87 0 176 28 216 52l-33 -157c-59 -24 -139 -37 -234 -37c-160 0 -287 71 -287 251c0 127 58 330 188 418
c62 42 148 59 230 59c90 0 186 -20 234 -44z" />
    <glyph glyph-name="afii10054" unicode="&#x405;" horiz-adv-x="640" 
d="M313 -14c-81 0 -188 26 -240 59l34 159c51 -51 136 -82 217 -82c89 0 137 27 137 75c0 113 -298 71 -298 285c0 141 118 232 299 232c85 0 188 -21 235 -48l-34 -158c-47 40 -122 70 -198 70c-84 0 -126 -19 -126 -64c0 -117 298 -83 298 -289
c0 -153 -118 -239 -324 -239z" />
    <glyph glyph-name="afii10055" unicode="&#x406;" horiz-adv-x="354" 
d="M95 0l149 700h164l-149 -700h-164z" />
    <glyph glyph-name="afii10056" unicode="&#x407;" horiz-adv-x="354" 
d="M95 0l149 700h164l-149 -700h-164zM242 762c-60 0 -86 26 -86 78s26 78 86 78s86 -26 86 -78s-26 -78 -86 -78zM470 762c-60 0 -86 26 -86 78s26 78 86 78s86 -26 86 -78s-26 -78 -86 -78z" />
    <glyph glyph-name="afii10057" unicode="&#x408;" horiz-adv-x="460" 
d="M163 -7c-47 0 -93 12 -132 30l32 151c32 -23 59 -39 95 -39c54 0 83 29 98 101l99 464h164l-103 -485c-34 -160 -106 -222 -253 -222z" />
    <glyph glyph-name="afii10058" unicode="&#x409;" horiz-adv-x="1071" 
d="M72 -7c-15 0 -38 4 -52 9l35 163c6 -3 18 -5 25 -5c61 0 102 21 189 382l38 158h502l-47 -220c34 4 68 7 101 7c151 0 224 -64 224 -174c0 -243 -153 -320 -369 -320c-83 0 -159 4 -221 12l118 553h-188l-18 -70c-114 -442 -183 -495 -337 -495zM689 136
c16 -1 43 -1 65 -1c101 0 157 39 157 144c0 49 -28 66 -105 66c-27 0 -49 -2 -72 -5z" />
    <glyph glyph-name="afii10059" unicode="&#x40a;" horiz-adv-x="1100" 
d="M747 -7c-83 0 -159 4 -221 12l60 284h-271l-61 -289h-164l149 700h164l-57 -269h270l58 269h164l-47 -220c34 4 68 7 101 7c151 0 224 -64 224 -174c0 -243 -153 -320 -369 -320zM718 136c16 -1 43 -1 65 -1c101 0 157 39 157 144c0 49 -28 66 -105 66
c-27 0 -49 -2 -72 -5z" />
    <glyph glyph-name="afii10060" unicode="&#x40b;" horiz-adv-x="842" 
d="M227 0l119 558h-202l30 142h568l-30 -142h-202l-24 -113c50 16 92 25 157 25c122 0 199 -64 199 -165c0 -29 -9 -84 -18 -129l-37 -176h-164l34 160c9 41 15 78 15 99c0 49 -40 69 -97 69c-44 0 -75 -5 -119 -20l-65 -308h-164z" />
    <glyph glyph-name="afii10061" unicode="&#x40c;" horiz-adv-x="730" 
d="M533 0l-139 284h-79l-60 -284h-164l148 700h164l-58 -274h62l241 274h192l-308 -341l178 -359h-177zM469 755l144 170h192l-214 -170h-122z" />
    <glyph glyph-name="afii10062" unicode="&#x40e;" horiz-adv-x="700" 
d="M151 11l32 146c18 -15 43 -29 76 -29c20 0 48 23 67 56l-157 516h182l90 -352l204 352h184l-337 -541c-85 -137 -140 -173 -242 -173c-34 0 -76 12 -99 25zM510 755c-91 0 -159 35 -159 124c0 14 1 29 5 46h116c-3 -12 -4 -23 -4 -32c0 -37 20 -53 60 -53
c50 0 81 25 94 85h114c-26 -123 -121 -170 -226 -170z" />
    <glyph glyph-name="afii10145" unicode="&#x40f;" horiz-adv-x="770" 
d="M90 0l149 700h165l-119 -558h261l119 558h164l-149 -700h-220l-28 -130h-150l28 130h-220z" />
    <glyph glyph-name="afii10017" unicode="&#x410;" horiz-adv-x="700" 
d="M10 0l390 700h195l95 -700h-162l-18 147h-252l-78 -147h-170zM464 531l-133 -248h163z" />
    <glyph glyph-name="afii10018" unicode="&#x411;" horiz-adv-x="690" 
d="M320 -7c-73 0 -140 3 -230 8l149 699h490l-31 -142h-326l-26 -124c40 4 82 6 114 6c114 0 227 -26 227 -162c0 -230 -171 -285 -367 -285zM280 140c29 -3 50 -5 76 -5c109 0 155 36 155 121c0 44 -32 62 -110 62c-26 0 -57 -2 -84 -6z" />
    <glyph glyph-name="afii10019" unicode="&#x412;" horiz-adv-x="696" 
d="M91 1l148 698c104 5 179 8 226 8c114 0 266 -4 266 -158c0 -98 -37 -161 -151 -190c74 -14 115 -49 115 -142c0 -95 -46 -158 -117 -189c-77 -34 -212 -35 -243 -35c-45 0 -164 0 -244 8zM317 297l-35 -165c30 -2 62 -3 85 -3c108 0 152 22 152 99c0 56 -15 69 -134 69
h-68zM341 411h102c75 0 112 30 112 93c0 51 -20 67 -98 67c-23 0 -46 -3 -83 -5z" />
    <glyph glyph-name="afii10020" unicode="&#x413;" horiz-adv-x="585" 
d="M91 0l148 700h470l-30 -142h-305l-119 -558h-164z" />
    <glyph glyph-name="afii10021" unicode="&#x414;" horiz-adv-x="782" 
d="M2 -130l58 272h69c63 87 131 273 173 452l25 106h484l-119 -558h88l-58 -272h-144l28 130h-432l-28 -130h-144zM528 142l88 416h-168l-10 -43c-32 -136 -88 -280 -144 -373h234z" />
    <glyph glyph-name="afii10022" unicode="&#x415;" horiz-adv-x="635" 
d="M90 0l149 700h490l-30 -142h-326l-29 -137h285l-28 -132h-286l-31 -147h326l-30 -142h-490z" />
    <glyph glyph-name="afii10024" unicode="&#x416;" horiz-adv-x="990" 
d="M20 0l284 363l-120 337h177l92 -278h52l59 278h164l-59 -278h40l211 278h184l-258 -340l124 -360h-184l-93 288h-52l-62 -288h-164l62 288h-42l-218 -288h-197z" />
    <glyph glyph-name="afii10025" unicode="&#x417;" horiz-adv-x="620" 
d="M73 37l33 155c38 -28 111 -64 202 -64c47 0 79 11 100 24c27 18 39 45 39 80c0 38 -25 61 -105 61h-90l26 120h78c67 0 140 10 140 92c0 37 -28 67 -103 67c-76 0 -141 -20 -206 -53l33 158c58 20 133 37 229 37c166 0 223 -68 223 -152c0 -114 -69 -182 -170 -209
c75 -9 121 -58 121 -124c0 -83 -43 -159 -123 -201c-50 -26 -118 -42 -211 -42c-83 0 -175 28 -216 51z" />
    <glyph glyph-name="afii10026" unicode="&#x418;" horiz-adv-x="800" 
d="M91 0l148 700h164l-73 -344c-9 -43 -19 -90 -32 -136c29 44 57 84 90 124l297 356h174l-149 -700h-164l73 345c9 41 19 89 32 135c-29 -41 -51 -77 -87 -120l-299 -360h-174z" />
    <glyph glyph-name="afii10027" unicode="&#x419;" horiz-adv-x="800" 
d="M91 0l148 700h164l-73 -344c-9 -43 -19 -90 -32 -136c29 44 57 84 90 124l297 356h174l-149 -700h-164l73 345c9 41 19 89 32 135c-29 -41 -51 -77 -87 -120l-299 -360h-174zM561 755c-91 0 -159 35 -159 124c0 14 1 29 5 46h116c-3 -12 -4 -23 -4 -32
c0 -37 20 -53 60 -53c50 0 81 25 94 85h114c-26 -123 -121 -170 -226 -170z" />
    <glyph glyph-name="afii10028" unicode="&#x41a;" horiz-adv-x="730" 
d="M533 0l-139 284h-79l-60 -284h-164l148 700h164l-58 -274h62l241 274h192l-308 -341l178 -359h-177z" />
    <glyph glyph-name="afii10029" unicode="&#x41b;" horiz-adv-x="750" 
d="M72 -7c-15 0 -38 4 -52 9l35 163c6 -3 18 -5 25 -5c61 0 102 21 189 382l38 158h502l-149 -700h-164l119 558h-188l-18 -70c-114 -442 -183 -495 -337 -495z" />
    <glyph glyph-name="afii10030" unicode="&#x41c;" horiz-adv-x="942" 
d="M91 0l148 700h224l74 -373l228 373h235l-148 -700h-160l83 394c9 41 21 87 33 132c-28 -46 -57 -94 -79 -131l-159 -255h-136l-51 254c-8 41 -18 87 -26 132c-6 -44 -14 -91 -22 -131l-84 -395h-160z" />
    <glyph glyph-name="afii10031" unicode="&#x41d;" horiz-adv-x="800" 
d="M90 0l149 700h164l-57 -269h292l57 269h164l-149 -700h-164l61 289h-292l-61 -289h-164z" />
    <glyph glyph-name="afii10032" unicode="&#x41e;" horiz-adv-x="810" 
d="M397 -14c-159 0 -278 80 -278 249c0 131 48 305 158 397c74 62 170 82 274 82c165 0 287 -70 287 -250c0 -134 -47 -309 -145 -388c-88 -71 -187 -90 -296 -90zM434 128c59 0 108 15 144 55c48 53 84 159 84 248c0 96 -45 141 -138 141c-52 0 -99 -12 -135 -45
c-59 -54 -94 -176 -94 -263c0 -99 52 -136 139 -136z" />
    <glyph glyph-name="afii10033" unicode="&#x41f;" horiz-adv-x="780" 
d="M90 0l149 700h600l-149 -700h-165l119 558h-271l-119 -558h-164z" />
    <glyph glyph-name="afii10034" unicode="&#x420;" horiz-adv-x="680" 
d="M90 0l148 698c62 5 137 9 241 9c180 0 259 -71 259 -202c0 -133 -58 -220 -139 -267c-61 -35 -137 -45 -231 -45c-24 0 -54 3 -72 5l-42 -198h-164zM325 339c26 -3 43 -4 72 -4c52 0 89 2 117 24c32 25 48 74 48 122c0 57 -28 84 -115 84c-27 0 -47 0 -74 -3z" />
    <glyph glyph-name="afii10035" unicode="&#x421;" horiz-adv-x="654" 
d="M750 670l-33 -156c-48 34 -107 58 -184 58c-54 0 -96 -16 -128 -38c-72 -51 -111 -183 -111 -267c0 -94 61 -139 162 -139c87 0 156 28 196 52l-33 -157c-59 -24 -119 -37 -214 -37c-160 0 -287 71 -287 251c0 127 58 330 188 418c62 42 148 59 230 59
c90 0 166 -20 214 -44z" />
    <glyph glyph-name="afii10036" unicode="&#x422;" horiz-adv-x="620" 
d="M228 0l119 558h-203l30 142h570l-30 -142h-203l-119 -558h-164z" />
    <glyph glyph-name="afii10037" unicode="&#x423;" horiz-adv-x="700" 
d="M151 11l32 146c18 -15 43 -29 76 -29c20 0 48 23 67 56l-157 516h182l90 -352l204 352h184l-337 -541c-85 -137 -140 -173 -242 -173c-34 0 -76 12 -99 25z" />
    <glyph glyph-name="afii10038" unicode="&#x424;" horiz-adv-x="970" 
d="M398 -20l17 80h-18c-190 0 -275 78 -275 200c0 141 65 272 143 328c64 46 148 72 258 72h17l15 60h165l-15 -60h12c142 0 281 -50 281 -220c0 -103 -38 -234 -122 -305c-67 -57 -159 -75 -281 -75h-15l-17 -80h-165zM604 202h16c82 0 107 5 129 25c45 41 73 112 73 188
c0 70 -43 103 -134 103h-16zM449 202l68 316h-17c-66 0 -108 -9 -142 -45c-30 -31 -60 -116 -60 -188c0 -71 51 -83 134 -83h17z" />
    <glyph glyph-name="afii10039" unicode="&#x425;" horiz-adv-x="710" 
d="M20 0l285 361l-119 339h180l76 -228l179 228h203l-272 -339l138 -361h-185l-96 252l-188 -252h-201z" />
    <glyph glyph-name="afii10040" unicode="&#x426;" horiz-adv-x="800" 
d="M90 0l149 700h164l-119 -558h262l119 558h164l-119 -558h90l-58 -272h-146l29 130h-535z" />
    <glyph glyph-name="afii10041" unicode="&#x427;" horiz-adv-x="705" 
d="M451 0l54 256c-34 -14 -79 -26 -157 -26c-122 0 -199 64 -199 165c0 29 9 84 18 129l37 176h164l-34 -160c-9 -41 -15 -78 -15 -99c0 -49 40 -69 97 -69c54 0 87 7 119 22l65 306h164l-149 -700h-164z" />
    <glyph glyph-name="afii10042" unicode="&#x428;" horiz-adv-x="1030" 
d="M90 0l149 700h164l-119 -558h179l119 558h164l-119 -558h179l119 558h164l-149 -700h-850z" />
    <glyph glyph-name="afii10043" unicode="&#x429;" horiz-adv-x="1060" 
d="M90 0l149 700h164l-119 -558h179l119 558h164l-119 -558h179l119 558h164l-119 -558h88l-58 -272h-146l29 130h-793z" />
    <glyph glyph-name="afii10044" unicode="&#x42a;" horiz-adv-x="738" 
d="M144 558l30 142h302l-47 -220c34 4 68 7 101 7c151 0 224 -64 224 -174c0 -243 -153 -320 -369 -320c-83 0 -159 4 -221 12l118 553h-138zM356 136c16 -1 43 -1 65 -1c101 0 157 39 157 144c0 49 -28 66 -105 66c-27 0 -49 -2 -72 -5z" />
    <glyph glyph-name="afii10045" unicode="&#x42b;" horiz-adv-x="940" 
d="M686 0l149 700h164l-149 -700h-164zM314 0c-83 0 -159 4 -221 12l146 688h164l-45 -213c34 4 68 7 101 7c151 0 224 -64 224 -174c0 -243 -153 -320 -369 -320zM285 143c16 -1 43 -1 65 -1c101 0 157 39 157 144c0 49 -28 66 -105 66c-27 0 -49 -2 -72 -5z" />
    <glyph glyph-name="afii10046" unicode="&#x42c;" horiz-adv-x="665" 
d="M312 -7c-83 0 -159 4 -221 12l148 695h164l-47 -220c34 4 68 7 101 7c151 0 224 -64 224 -174c0 -243 -153 -320 -369 -320zM283 136c16 -1 43 -1 65 -1c101 0 157 39 157 144c0 49 -28 66 -105 66c-27 0 -49 -2 -72 -5z" />
    <glyph glyph-name="afii10047" unicode="&#x42d;" horiz-adv-x="696" 
d="M230 294l26 122h290c0 8 1 16 1 23c0 90 -47 133 -150 133c-81 0 -155 -18 -228 -57l34 158c58 22 137 41 236 41c89 0 162 -23 207 -62c52 -45 77 -115 77 -193c0 -181 -72 -320 -144 -381c-88 -75 -180 -92 -299 -92c-95 0 -173 28 -209 46l33 156
c38 -26 102 -60 198 -60c61 0 110 15 149 43c34 24 58 72 74 123h-295z" />
    <glyph glyph-name="afii10048" unicode="&#x42e;" horiz-adv-x="1086" 
d="M686 -14c-174 0 -269 85 -269 238c0 20 1 40 3 60h-105l-60 -284h-164l148 700h164l-58 -274h105c28 84 72 158 125 204c68 59 143 84 263 84c185 0 278 -81 278 -239c0 -180 -70 -344 -181 -424c-61 -44 -140 -65 -249 -65zM719 128c129 0 221 132 221 317
c0 87 -42 127 -131 127c-66 0 -118 -27 -149 -73c-43 -63 -73 -161 -73 -242c0 -85 43 -129 132 -129z" />
    <glyph glyph-name="afii10049" unicode="&#x42f;" horiz-adv-x="705" 
d="M35 0l210 249c-56 26 -85 81 -85 148c0 93 39 200 125 258c61 41 148 52 254 52c86 0 176 -4 224 -8l-148 -699h-164l47 222h-94l-178 -222h-191zM528 354l44 207c-30 2 -51 4 -74 4c-49 0 -84 -8 -108 -21c-40 -22 -54 -70 -54 -118c0 -49 28 -72 98 -72h94z" />
    <glyph glyph-name="afii10065" unicode="&#x430;" horiz-adv-x="690" 
d="M475 0l1 85c-33 -50 -82 -99 -181 -99c-124 0 -200 76 -200 210c0 179 81 358 287 358c112 0 151 -51 170 -101l38 87h140l-115 -540h-140zM259 227c0 -79 49 -107 113 -107c76 0 117 37 136 130l6 29c4 18 5 34 5 45c0 71 -38 96 -103 96c-114 0 -157 -90 -157 -193z
" />
    <glyph glyph-name="afii10066" unicode="&#x431;" horiz-adv-x="680" 
d="M371 -14c-160 0 -260 58 -260 227c0 35 0 75 10 121c69 326 211 399 415 419c104 10 172 17 219 35l-32 -151c-30 -13 -88 -23 -184 -31c-147 -12 -240 -36 -275 -174l-7 -28c61 74 132 120 254 120c123 0 190 -67 190 -186c0 -199 -110 -352 -330 -352zM377 120
c110 0 160 84 160 172c0 66 -39 98 -104 98c-105 0 -158 -69 -158 -169c0 -64 31 -101 102 -101z" />
    <glyph glyph-name="afii10067" unicode="&#x432;" horiz-adv-x="630" 
d="M104 138l86 403c54 2 171 6 244 6c193 0 232 -48 213 -139c-16 -74 -67 -111 -119 -124c62 -12 107 -52 88 -139c-29 -132 -155 -152 -325 -152c-168 0 -209 43 -187 145zM285 229l-15 -72c-6 -30 10 -46 71 -46c77 0 104 16 113 62c10 44 -8 56 -70 56h-99zM304 319h82
c58 0 89 13 99 57c8 39 -9 53 -82 53c-34 0 -58 -2 -76 -3z" />
    <glyph glyph-name="afii10068" unicode="&#x433;" horiz-adv-x="515" 
d="M75 0l115 540h405l-30 -140h-244l-85 -400h-161z" />
    <glyph glyph-name="afii10069" unicode="&#x434;" horiz-adv-x="680" 
d="M360 -14c-173 0 -264 90 -264 229c0 193 110 329 286 329c112 0 178 -55 198 -117c3 17 4 32 4 44c0 119 -91 178 -273 178l26 113c256 0 381 -87 381 -265c0 -80 -11 -152 -37 -245c-51 -181 -153 -266 -321 -266zM367 120c120 0 160 127 160 190c0 70 -50 100 -115 100
c-113 0 -152 -90 -152 -186c0 -57 34 -104 107 -104z" />
    <glyph glyph-name="afii10070" unicode="&#x435;" horiz-adv-x="610" 
d="M348 -14c-173 0 -256 87 -256 206c0 217 124 362 344 362c162 0 217 -61 217 -144c0 -79 -46 -180 -311 -180h-90c-1 -7 -2 -17 -2 -27c0 -65 43 -95 134 -95c78 0 164 30 212 70l-28 -132c-36 -28 -123 -60 -220 -60zM361 322c104 0 128 30 128 64c0 27 -13 46 -69 46
c-90 0 -131 -35 -150 -110h91z" />
    <glyph glyph-name="afii10072" unicode="&#x436;" horiz-adv-x="890" 
d="M20 0l226 306l-98 234h170l74 -198h45l43 198h160l-43 -198h46l153 198h179l-213 -277l108 -263h-181l-73 208h-47l-44 -208h-160l44 208h-45l-154 -208h-190z" />
    <glyph glyph-name="afii10073" unicode="&#x437;" horiz-adv-x="575" 
d="M60 24l32 147c40 -31 112 -57 187 -57c80 0 112 24 112 67c0 32 -19 44 -91 44h-83l21 100h94c58 0 91 18 91 59c0 31 -17 42 -93 42c-62 0 -126 -19 -189 -53l31 144c67 25 140 37 226 37c141 0 201 -32 201 -109c0 -78 -48 -141 -129 -160c66 -8 97 -40 97 -89
c0 -130 -116 -210 -305 -210c-61 0 -148 9 -202 38z" />
    <glyph glyph-name="afii10074" unicode="&#x438;" horiz-adv-x="670" 
d="M111 191l75 349h160l-66 -310c-4 -17 -6 -32 -6 -45c0 -44 25 -62 82 -62c72 0 112 34 129 114l65 303h160l-115 -540h-140l-4 79c-50 -63 -111 -90 -197 -90c-102 0 -152 39 -152 128c0 22 3 46 9 74z" />
    <glyph glyph-name="afii10075" unicode="&#x439;" horiz-adv-x="670" 
d="M111 191l75 349h160l-66 -310c-4 -17 -6 -32 -6 -45c0 -44 25 -62 82 -62c72 0 112 34 129 114l65 303h160l-115 -540h-140l-4 79c-50 -63 -111 -90 -197 -90c-102 0 -152 39 -152 128c0 22 3 46 9 74zM463 615c-82 0 -149 35 -149 124c0 14 1 29 5 46h114
c-2 -12 -3 -22 -3 -31c0 -38 19 -55 51 -55c40 0 74 26 86 86h112c-26 -123 -121 -170 -216 -170z" />
    <glyph glyph-name="afii10076" unicode="&#x43a;" horiz-adv-x="650" 
d="M75 0l115 540h160l-42 -198h64l158 198h190l-220 -269l130 -271h-195l-87 208h-69l-44 -208h-160z" />
    <glyph glyph-name="afii10077" unicode="&#x43b;" horiz-adv-x="660" 
d="M25 1l34 160c9 -3 15 -4 22 -4c61 0 93 66 149 303l19 80h451l-115 -540h-160l85 406h-145l-8 -35c-63 -275 -138 -378 -275 -378c-23 0 -43 3 -57 8z" />
    <glyph glyph-name="afii10078" unicode="&#x43c;" horiz-adv-x="810" 
d="M75 0l115 540h208l67 -270l179 270h206l-115 -540h-154l63 295c8 37 19 63 29 100c-23 -35 -43 -67 -61 -93l-134 -202h-100l-48 201c-7 26 -14 60 -22 94c-6 -36 -8 -65 -16 -102l-63 -293h-154z" />
    <glyph glyph-name="afii10079" unicode="&#x43d;" horiz-adv-x="685" 
d="M75 0l115 540h160l-43 -203h215l43 203h160l-115 -540h-160l43 203h-215l-43 -203h-160z" />
    <glyph glyph-name="afii10080" unicode="&#x43e;" horiz-adv-x="670" 
d="M95 215c0 189 120 339 340 339c134 0 255 -60 255 -219c0 -203 -109 -349 -335 -349c-170 0 -260 90 -260 229zM259 222c0 -63 33 -102 112 -102c114 0 155 126 155 210c0 63 -40 90 -108 90c-110 0 -159 -100 -159 -198z" />
    <glyph glyph-name="afii10081" unicode="&#x43f;" horiz-adv-x="680" 
d="M75 0l115 540h140l2 -76c48 66 120 90 198 90c106 0 164 -37 164 -129c0 -19 -3 -41 -8 -66l-76 -359h-160l65 305c4 20 6 38 6 52c0 47 -26 63 -87 63c-78 0 -119 -38 -135 -116l-64 -304h-160z" />
    <glyph glyph-name="afii10082" unicode="&#x440;" horiz-adv-x="690" 
d="M37 -180l156 720h140l-2 -82c33 50 82 96 182 96c123 0 198 -75 198 -209c0 -179 -80 -359 -290 -359c-97 0 -150 46 -169 93l-55 -259h-160zM391 120c105 0 156 97 156 196c0 78 -48 104 -112 104c-75 0 -117 -42 -135 -127l-6 -29c-20 -98 36 -144 97 -144z" />
    <glyph glyph-name="afii10083" unicode="&#x441;" horiz-adv-x="570" 
d="M557 170l-31 -135c-34 -22 -90 -49 -181 -49c-141 0 -250 61 -250 215c0 232 135 353 350 353c87 0 144 -21 174 -40l-34 -142c-31 26 -83 48 -146 48c-114 0 -180 -64 -180 -192c0 -70 53 -108 144 -108c63 0 112 22 154 50z" />
    <glyph glyph-name="afii10084" unicode="&#x442;" horiz-adv-x="970" 
d="M75 0l115 540h140l-2 -82c45 67 110 96 187 96c84 0 129 -38 132 -105c45 75 114 105 201 105c95 0 138 -41 138 -120c0 -19 -2 -40 -7 -63l-79 -371h-160l70 327c3 14 5 27 5 37c0 40 -21 56 -72 56c-58 0 -93 -29 -108 -100l-68 -320h-160l70 329c3 14 5 26 5 36
c0 41 -24 55 -70 55c-61 0 -94 -30 -109 -99l-68 -321h-160z" />
    <glyph glyph-name="afii10085" unicode="&#x443;" horiz-adv-x="600" 
d="M82 -181l30 139c15 -9 40 -18 65 -18c29 0 47 14 69 58l-116 542h177l50 -348l173 348h170l-294 -526c-93 -167 -151 -208 -241 -208c-30 0 -66 5 -83 13z" />
    <glyph glyph-name="afii10086" unicode="&#x444;" horiz-adv-x="850" 
d="M306 -180l36 171c-22 -4 -41 -5 -63 -5c-132 0 -191 57 -191 174c0 239 126 394 319 394c22 0 38 -3 53 -6l45 212h160l-45 -212c21 4 42 6 64 6c134 0 195 -51 195 -167c0 -238 -131 -401 -322 -401c-21 0 -39 1 -55 4l-36 -170h-160zM593 418l-63 -296
c8 -2 15 -2 26 -2c90 0 152 92 152 232c0 54 -26 68 -87 68c-10 0 -21 -1 -28 -2zM369 121l63 297c-5 1 -16 2 -26 2c-89 0 -149 -88 -149 -226c0 -54 24 -74 82 -74c7 0 17 0 30 1z" />
    <glyph glyph-name="afii10087" unicode="&#x445;" horiz-adv-x="620" 
d="M20 0l239 278l-111 262h173l67 -163l139 163h178l-226 -260l121 -280h-174l-77 176l-150 -176h-179z" />
    <glyph glyph-name="afii10088" unicode="&#x446;" horiz-adv-x="700" 
d="M75 0l115 540h160l-86 -406h190l86 406h160l-84 -406h82l-56 -264h-150l28 130h-445z" />
    <glyph glyph-name="afii10089" unicode="&#x447;" horiz-adv-x="625" 
d="M390 0l40 186c-35 -13 -94 -21 -135 -21c-108 0 -179 32 -179 123c0 15 2 32 6 50l43 202h160l-34 -156c-2 -11 -3 -21 -3 -29c0 -39 26 -56 80 -56c35 0 64 6 89 15l48 226h160l-115 -540h-160z" />
    <glyph glyph-name="afii10090" unicode="&#x448;" horiz-adv-x="910" 
d="M75 0l115 540h160l-86 -406h140l85 406h160l-85 -406h140l86 406h160l-115 -540h-760z" />
    <glyph glyph-name="afii10091" unicode="&#x449;" horiz-adv-x="950" 
d="M75 0l115 540h160l-86 -406h140l85 406h160l-85 -406h140l86 406h160l-87 -406h85l-56 -264h-150l28 130h-695z" />
    <glyph glyph-name="afii10092" unicode="&#x44a;" horiz-adv-x="700" 
d="M112 406l28 134h299l-32 -149c34 3 57 3 93 3c153 0 211 -44 211 -133c0 -186 -113 -268 -344 -268c-129 0 -183 24 -183 87c0 9 2 20 4 31l62 295h-138zM408 117c82 0 139 21 139 104c0 35 -28 49 -109 49c-17 0 -35 -1 -59 -3l-22 -102c-1 -6 -2 -11 -2 -16
c0 -21 15 -32 53 -32z" />
    <glyph glyph-name="afii10093" unicode="&#x44b;" horiz-adv-x="841" 
d="M268 -7c-119 0 -173 24 -173 87c0 9 2 20 4 31l91 429h160l-32 -149c34 3 47 3 83 3c143 0 201 -44 201 -133c0 -186 -113 -268 -334 -268zM309 117c72 0 129 21 129 104c0 35 -28 49 -99 49c-17 0 -30 -1 -49 -3l-22 -102c-1 -6 -2 -11 -2 -16c0 -21 15 -32 43 -32z
M766 0h-160l115 540h160z" />
    <glyph glyph-name="afii10094" unicode="&#x44c;" horiz-adv-x="610" 
d="M278 -7c-129 0 -183 24 -183 87c0 9 2 20 4 31l91 429h160l-32 -149c34 3 57 3 93 3c153 0 211 -44 211 -133c0 -186 -113 -268 -344 -268zM319 117c82 0 139 21 139 104c0 35 -28 49 -109 49c-17 0 -35 -1 -59 -3l-22 -102c-1 -6 -2 -11 -2 -16c0 -21 15 -32 53 -32z
" />
    <glyph glyph-name="afii10095" unicode="&#x44d;" horiz-adv-x="585" 
d="M212 225l21 100h209c-3 63 -34 93 -144 93c-63 0 -127 -20 -169 -48l29 135c34 22 107 49 201 49c138 0 247 -58 247 -212c0 -232 -135 -356 -349 -356c-88 0 -162 21 -192 40l30 141c31 -26 104 -47 173 -47c90 0 141 36 162 105h-218z" />
    <glyph glyph-name="afii10096" unicode="&#x44e;" horiz-adv-x="920" 
d="M75 0l115 540h160l-42 -198h78c40 126 144 212 312 212c134 0 243 -64 243 -216c0 -201 -119 -352 -323 -352c-168 0 -248 86 -250 222h-89l-44 -208h-160zM622 120c110 0 155 119 155 211c0 52 -28 89 -96 89c-110 0 -159 -96 -159 -198c0 -63 33 -102 100 -102z" />
    <glyph glyph-name="afii10097" unicode="&#x44f;" horiz-adv-x="640" 
d="M35 0l167 185c-48 20 -72 55 -72 111c0 210 160 251 341 251c142 0 189 -18 189 -81c0 -13 -2 -29 -6 -46l-89 -420h-160l35 162h-93l-138 -162h-174zM467 276l20 97c1 6 2 11 2 16c0 21 -15 30 -62 30c-77 0 -133 -14 -133 -95c0 -35 26 -48 81 -48h92z" />
    <glyph glyph-name="afii10071" unicode="&#x451;" horiz-adv-x="610" 
d="M348 -14c-173 0 -256 87 -256 206c0 217 124 362 344 362c162 0 217 -61 217 -144c0 -79 -46 -180 -311 -180h-90c-1 -7 -2 -17 -2 -27c0 -65 43 -95 134 -95c78 0 164 30 212 70l-28 -132c-36 -28 -123 -60 -220 -60zM361 322c104 0 128 30 128 64c0 27 -13 46 -69 46
c-90 0 -131 -35 -150 -110h91zM342 624c-59 0 -84 25 -84 76s25 76 84 76s84 -25 84 -76s-25 -76 -84 -76zM564 624c-59 0 -84 25 -84 76s25 76 84 76s84 -25 84 -76s-25 -76 -84 -76z" />
    <glyph glyph-name="afii10099" unicode="&#x452;" horiz-adv-x="690" 
d="M114 436l22 104h80l47 220h161l-47 -220h188l-22 -104h-188l-32 -151c39 58 103 89 195 89c111 0 158 -42 158 -129c0 -22 -3 -43 -9 -71l-10 -44c-33 -144 -120 -250 -269 -310l-91 77c105 52 169 123 198 223l2 7c3 9 6 28 6 51c0 45 -21 62 -80 62
c-81 0 -118 -36 -136 -117l-26 -123h-160l93 436h-80z" />
    <glyph glyph-name="afii10100" unicode="&#x453;" horiz-adv-x="515" 
d="M75 0l115 540h405l-30 -140h-244l-85 -400h-161zM351 630l134 160h190l-204 -160h-120z" />
    <glyph glyph-name="afii10101" unicode="&#x454;" horiz-adv-x="590" 
d="M576 170l-31 -135c-34 -22 -110 -49 -201 -49c-141 0 -250 61 -250 215c0 232 135 353 350 353c87 0 164 -21 194 -40l-34 -142c-31 26 -103 48 -166 48c-80 0 -137 -32 -163 -95h218l-20 -100h-215c1 -68 54 -105 144 -105c63 0 132 22 174 50z" />
    <glyph glyph-name="afii10102" unicode="&#x455;" horiz-adv-x="560" 
d="M64 21l32 149c36 -33 102 -60 181 -60c72 0 102 17 102 57c0 67 -244 25 -244 179c0 167 136 208 280 208c58 0 121 -6 168 -22l-30 -146c-39 27 -85 44 -159 44c-63 0 -95 -16 -95 -46c0 -67 244 -19 244 -176c0 -171 -140 -222 -288 -222c-58 0 -132 10 -191 35z" />
    <glyph glyph-name="afii10103" unicode="&#x456;" horiz-adv-x="320" 
d="M240 0h-160l115 540h160zM309 620c-65 0 -95 30 -95 80s30 80 95 80s95 -30 95 -80s-30 -80 -95 -80z" />
    <glyph glyph-name="afii10104" unicode="&#x457;" horiz-adv-x="320" 
d="M240 0h-160l115 540h160zM198 624c-59 0 -84 25 -84 76s25 76 84 76s84 -25 84 -76s-25 -76 -84 -76zM420 624c-59 0 -84 25 -84 76s25 76 84 76s84 -25 84 -76s-25 -76 -84 -76z" />
    <glyph glyph-name="afii10105" unicode="&#x458;" horiz-adv-x="320" 
d="M-68 -172l28 131c13 -6 32 -11 54 -11c38 0 57 14 65 52l116 540h160l-117 -545c-28 -129 -88 -182 -210 -182c-53 0 -83 9 -96 15zM309 620c-65 0 -95 30 -95 80s30 80 95 80s95 -30 95 -80s-30 -80 -95 -80z" />
    <glyph glyph-name="afii10106" unicode="&#x459;" horiz-adv-x="960" 
d="M628 -7c-129 0 -183 24 -183 87c0 9 2 20 4 31l62 295h-146l-8 -35c-63 -275 -138 -378 -275 -378c-23 0 -43 3 -57 8l34 160c9 -3 15 -4 22 -4c61 0 93 66 149 303l19 80h451l-32 -149c34 3 57 3 93 3c153 0 211 -44 211 -133c0 -186 -113 -268 -344 -268zM669 117
c82 0 139 21 139 104c0 35 -28 49 -109 49c-17 0 -35 -1 -59 -3l-22 -102c-1 -6 -2 -11 -2 -16c0 -21 15 -32 53 -32z" />
    <glyph glyph-name="afii10107" unicode="&#x45a;" horiz-adv-x="965" 
d="M633 -7c-129 0 -183 24 -183 87c0 9 2 20 4 31l19 92h-195l-43 -203h-160l115 540h160l-43 -203h195l43 203h160l-32 -149c34 3 57 3 93 3c153 0 211 -44 211 -133c0 -186 -113 -268 -344 -268zM674 117c82 0 139 21 139 104c0 35 -28 49 -109 49c-17 0 -35 -1 -59 -3
l-22 -102c-1 -6 -2 -11 -2 -16c0 -21 15 -32 53 -32z" />
    <glyph glyph-name="afii10108" unicode="&#x45b;" horiz-adv-x="696" 
d="M114 436l22 104h80l47 220h161l-47 -220h188l-22 -104h-188l-32 -151c39 58 103 89 195 89c111 0 164 -42 164 -129c0 -22 -3 -43 -9 -71l-37 -174h-160l29 137c3 16 4 30 4 41c0 45 -27 62 -86 62c-81 0 -118 -36 -136 -117l-26 -123h-160l93 436h-80z" />
    <glyph glyph-name="afii10109" unicode="&#x45c;" horiz-adv-x="650" 
d="M75 0l115 540h160l-42 -198h64l158 198h190l-220 -269l130 -271h-195l-87 208h-69l-44 -208h-160zM400 630l134 160h190l-204 -160h-120z" />
    <glyph glyph-name="afii10110" unicode="&#x45e;" horiz-adv-x="600" 
d="M82 -181l30 139c15 -9 40 -18 65 -18c29 0 47 14 69 58l-116 542h177l50 -348l173 348h170l-294 -526c-93 -167 -151 -208 -241 -208c-30 0 -66 5 -83 13zM430 615c-82 0 -149 35 -149 124c0 14 1 29 5 46h114c-2 -12 -3 -22 -3 -31c0 -38 19 -55 51 -55
c40 0 74 26 86 86h112c-26 -123 -121 -170 -216 -170z" />
    <glyph glyph-name="afii10193" unicode="&#x45f;" horiz-adv-x="675" 
d="M75 0l115 540h160l-86 -406h205l86 406h160l-115 -540h-193l-27 -130h-140l27 130h-192z" />
    <glyph glyph-name="afii10050" unicode="&#x490;" horiz-adv-x="585" 
d="M91 0l148 700h320l28 130h150l-58 -272h-305l-119 -558h-164z" />
    <glyph glyph-name="afii10098" unicode="&#x491;" horiz-adv-x="515" 
d="M75 0l115 540h265l28 130h140l-58 -270h-244l-85 -400h-161z" />
    <glyph glyph-name="uni0492" unicode="&#x492;" horiz-adv-x="595" 
d="M83 295l23 110h80l63 295h470l-30 -142h-305l-33 -153h190l-23 -110h-190l-63 -295h-164l62 295h-80z" />
    <glyph glyph-name="uni0493" unicode="&#x493;" horiz-adv-x="539" 
d="M66 218l22 104h79l47 218h405l-30 -140h-244l-17 -78h141l-22 -104h-141l-46 -218h-161l46 218h-79z" />
    <glyph glyph-name="uni049A" unicode="&#x49a;" horiz-adv-x="750" 
d="M91 0l148 700h164l-58 -274h62l241 274h192l-308 -341l107 -217h141l-58 -272h-146l29 130h-72l-139 284h-79l-60 -284h-164z" />
    <glyph glyph-name="uni049B" unicode="&#x49b;" horiz-adv-x="670" 
d="M75 0l115 540h160l-42 -198h64l158 198h190l-220 -269l65 -137h123l-56 -264h-150l28 130h-75l-87 208h-69l-44 -208h-160z" />
    <glyph glyph-name="uni04A2" unicode="&#x4a2;" horiz-adv-x="830" 
d="M90 0l149 700h164l-57 -269h292l57 269h164l-119 -558h90l-58 -272h-146l29 130h-109l61 289h-292l-61 -289h-164z" />
    <glyph glyph-name="uni04A3" unicode="&#x4a3;" horiz-adv-x="725" 
d="M75 0l115 540h160l-43 -203h215l43 203h160l-87 -406h80l-56 -264h-150l28 130h-90l43 203h-215l-43 -203h-160z" />
    <glyph glyph-name="uni04AE" unicode="&#x4ae;" horiz-adv-x="670" 
d="M253 0l54 252l-148 448h178l85 -266l192 266h195l-338 -448l-54 -252h-164z" />
    <glyph glyph-name="uni04AF" unicode="&#x4af;" horiz-adv-x="610" 
d="M347 -180h-160l38 180l-95 540h175l39 -355l189 355h177l-324 -539z" />
    <glyph glyph-name="uni04B0" unicode="&#x4b0;" horiz-adv-x="670" 
d="M147 195l23 110h119l-130 395h178l85 -266l192 266h195l-298 -395h116l-23 -110h-145l-42 -195h-164l42 195h-148z" />
    <glyph glyph-name="uni04B1" unicode="&#x4b1;" horiz-adv-x="610" 
d="M90 -32l22 104h101l-83 468h175l39 -355l189 355h177l-282 -468h102l-22 -104h-129l-32 -148h-160l32 148h-129z" />
    <glyph glyph-name="uni04BA" unicode="&#x4ba;" horiz-adv-x="705" 
d="M403 700l-54 -256c34 14 79 26 157 26c122 0 199 -64 199 -165c0 -29 -9 -84 -18 -129l-37 -176h-164l34 160c9 41 15 78 15 99c0 49 -40 69 -97 69c-54 0 -87 -7 -119 -22l-65 -306h-164l149 700h164z" />
    <glyph glyph-name="uni04BB" unicode="&#x4bb;" horiz-adv-x="680" 
d="M75 0l162 760h161l-63 -295c39 58 103 89 195 89c111 0 164 -42 164 -129c0 -22 -3 -43 -9 -71l-75 -354h-160l67 317c3 16 4 30 4 41c0 45 -27 62 -86 62c-81 0 -119 -36 -136 -117l-64 -303h-160z" />
    <glyph glyph-name="uni04C0" unicode="&#x4c0;" horiz-adv-x="354" 
d="M95 0l149 700h164l-149 -700h-164z" />
    <glyph glyph-name="uni04CF" unicode="&#x4cf;" horiz-adv-x="320" 
d="M241 0h-160l161 760h160z" />
    <glyph glyph-name="uni04D8" unicode="&#x4d8;" horiz-adv-x="742" 
d="M356 -14c-152 0 -240 77 -240 238c0 57 11 113 24 170h457c2 12 3 25 3 38c0 71 -35 140 -168 140c-72 0 -141 -12 -198 -36l31 150c76 19 148 28 214 28c235 0 294 -114 294 -242c0 -241 -147 -486 -417 -486zM384 120c83 0 159 46 190 160h-296c-4 -15 -7 -36 -7 -55
c0 -66 36 -105 113 -105z" />
    <glyph glyph-name="afii10846" unicode="&#x4d9;" horiz-adv-x="610" 
d="M383 310h90c1 7 2 17 2 27c0 65 -43 95 -134 95c-78 0 -164 -30 -212 -70l28 132c36 28 123 60 220 60c173 0 256 -87 256 -206c0 -217 -124 -362 -344 -362c-162 0 -217 61 -217 144c0 79 46 180 311 180zM364 218c-104 0 -128 -30 -128 -64c0 -27 13 -46 69 -46
c90 0 131 35 150 110h-91z" />
    <glyph glyph-name="uni04E8" unicode="&#x4e8;" horiz-adv-x="810" 
d="M397 -14c-159 0 -278 80 -278 249c0 131 48 305 158 397c74 62 170 82 274 82c165 0 287 -70 287 -250c0 -134 -47 -309 -145 -388c-88 -71 -187 -90 -296 -90zM434 128c59 0 108 15 144 55c25 28 47 70 62 117h-344c-1 -13 -1 -25 -1 -36c0 -99 52 -136 139 -136z
M389 527c-29 -27 -53 -70 -69 -117h341c1 7 1 14 1 21c0 96 -45 141 -138 141c-52 0 -99 -12 -135 -45z" />
    <glyph glyph-name="uni04E9" unicode="&#x4e9;" horiz-adv-x="670" 
d="M95 215c0 189 120 339 340 339c134 0 255 -60 255 -219c0 -203 -109 -349 -335 -349c-170 0 -260 90 -260 229zM418 420c-72 0 -117 -42 -141 -98h249v8c0 63 -40 90 -108 90zM371 120c67 0 109 44 132 98h-244c1 -61 34 -98 112 -98z" />
    <glyph glyph-name="uni1E9E" unicode="&#x1e9e;" horiz-adv-x="725" 
d="M86 0l97 460c39 183 177 254 327 254c103 0 192 -44 247 -134l-172 -171v-1c115 -13 140 -76 140 -140c0 -168 -133 -282 -297 -282c-38 0 -69 4 -99 13l29 138c23 -7 42 -9 60 -9c80 0 130 28 130 115c0 47 -32 67 -107 67h-35l17 79l144 152c-20 21 -45 31 -86 31
c-76 0 -121 -51 -136 -121l-95 -451h-164z" />
    <glyph glyph-name="figuredash" unicode="&#x2012;" horiz-adv-x="630" 
d="M158 419h468l-23 -124h-467z" />
    <glyph glyph-name="endash" unicode="&#x2013;" horiz-adv-x="720" 
d="M167 347h534l-26 -124h-534z" />
    <glyph glyph-name="emdash" unicode="&#x2014;" horiz-adv-x="880" 
d="M166 347h694l-26 -124h-694z" />
    <glyph glyph-name="quoteleft" unicode="&#x2018;" horiz-adv-x="360" 
d="M436 626c-64 -9 -120 -49 -140 -100c50 0 80 -34 80 -91c0 -66 -40 -103 -111 -103c-60 0 -99 40 -99 103c0 135 85 243 218 279z" />
    <glyph glyph-name="quoteright" unicode="&#x2019;" horiz-adv-x="360" 
d="M146 420c64 9 120 49 140 100c-50 0 -80 34 -80 91c0 66 40 103 111 103c60 0 99 -40 99 -103c0 -135 -85 -243 -218 -279z" />
    <glyph glyph-name="quotesinglbase" unicode="&#x201a;" horiz-adv-x="360" 
d="M34 -106c64 9 120 49 140 100c-50 0 -80 34 -80 91c0 66 40 103 111 103c60 0 99 -40 99 -103c0 -135 -85 -243 -218 -279z" />
    <glyph glyph-name="quotedblleft" unicode="&#x201c;" horiz-adv-x="660" 
d="M436 626c-64 -9 -120 -49 -140 -100c50 0 80 -34 80 -91c0 -66 -40 -103 -111 -103c-60 0 -99 40 -99 103c0 135 85 243 218 279zM735 626c-64 -9 -120 -49 -140 -100c50 0 80 -34 80 -91c0 -66 -40 -103 -111 -103c-60 0 -99 40 -99 103c0 135 85 243 218 279z" />
    <glyph glyph-name="quotedblright" unicode="&#x201d;" horiz-adv-x="660" 
d="M146 420c64 9 120 49 140 100c-50 0 -80 34 -80 91c0 66 40 103 111 103c60 0 99 -40 99 -103c0 -135 -85 -243 -218 -279zM446 420c64 9 120 49 140 100c-50 0 -80 34 -80 91c0 66 40 103 111 103c60 0 99 -40 99 -103c0 -135 -85 -243 -218 -279z" />
    <glyph glyph-name="quotedblbase" unicode="&#x201e;" horiz-adv-x="660" 
d="M34 -106c64 9 120 49 140 100c-50 0 -80 34 -80 91c0 66 40 103 111 103c60 0 99 -40 99 -103c0 -135 -85 -243 -218 -279zM334 -106c64 9 120 49 140 100c-50 0 -80 34 -80 91c0 66 40 103 111 103c60 0 99 -40 99 -103c0 -135 -85 -243 -218 -279z" />
    <glyph glyph-name="dagger" unicode="&#x2020;" horiz-adv-x="560" 
d="M119 420l26 120h180l34 160h140l-34 -160h180l-26 -120h-180l-89 -420h-140l89 420h-180z" />
    <glyph glyph-name="daggerdbl" unicode="&#x2021;" horiz-adv-x="560" 
d="M119 420l26 120h180l34 160h140l-34 -160h180l-26 -120h-180l-30 -140h181l-26 -120h-180l-34 -160h-140l34 160h-180l26 120h179l30 140h-180z" />
    <glyph glyph-name="bullet" unicode="&#x2022;" 
d="M299 200c-88 0 -150 62 -150 150s62 150 150 150s150 -62 150 -150s-62 -150 -150 -150z" />
    <glyph glyph-name="ellipsis" unicode="&#x2026;" horiz-adv-x="1090" 
d="M199 -7c-68 0 -100 32 -100 97s32 97 100 97s100 -32 100 -97s-32 -97 -100 -97zM563 -7c-68 0 -100 32 -100 97s32 97 100 97s100 -32 100 -97s-32 -97 -100 -97zM928 -7c-68 0 -100 32 -100 97s32 97 100 97s100 -32 100 -97s-32 -97 -100 -97z" />
    <glyph glyph-name="perthousand" unicode="&#x2030;" horiz-adv-x="1390" 
d="M334 369c-86 0 -162 39 -162 132c0 137 98 212 229 212c85 0 160 -38 160 -131c0 -134 -96 -213 -227 -213zM282 519c0 -37 25 -60 67 -60c66 0 102 44 102 105c0 38 -25 59 -66 59c-67 0 -103 -41 -103 -104zM710 -11c-86 0 -162 39 -162 132c0 137 98 212 229 212
c85 0 160 -38 160 -131c0 -134 -96 -213 -227 -213zM658 139c0 -37 25 -60 67 -60c66 0 102 44 102 105c0 38 -25 59 -66 59c-67 0 -103 -41 -103 -104zM1140 -11c-86 0 -162 39 -162 132c0 137 98 212 229 212c85 0 160 -38 160 -131c0 -134 -96 -213 -227 -213zM1088 139
c0 -37 25 -60 67 -60c66 0 102 44 102 105c0 38 -25 59 -66 59c-67 0 -103 -41 -103 -104zM307 0h-128l622 700h128z" />
    <glyph glyph-name="guilsinglleft" unicode="&#x2039;" horiz-adv-x="375" 
d="M192 70l-82 214l170 216h151l-177 -225l84 -205h-146z" />
    <glyph glyph-name="guilsinglright" unicode="&#x203a;" horiz-adv-x="375" 
d="M65 70l177 225l-84 205h146l82 -214l-170 -216h-151z" />
    <glyph glyph-name="fraction" unicode="&#x2044;" horiz-adv-x="260" 
d="M-42 0h-128l622 700h128z" />
    <glyph glyph-name="uni2070" unicode="&#x2070;" 
d="M304 373c-110 0 -163 46 -163 139c0 25 4 56 11 87c32 143 109 208 245 208c112 0 163 -44 163 -138c0 -23 -3 -49 -11 -81c-33 -144 -110 -215 -245 -215zM324 465c56 0 86 31 105 119c7 33 10 50 10 67c0 45 -18 65 -63 65c-60 0 -85 -37 -104 -115
c-9 -34 -11 -54 -11 -70c0 -47 19 -66 63 -66z" />
    <glyph glyph-name="uni2074" unicode="&#x2074;" 
d="M114 462l18 87l278 251h132l-53 -247h58l-19 -91h-58l-18 -82h-112l18 82h-244zM378 552l33 155h-1l-172 -155h140z" />
    <glyph glyph-name="uni2075" unicode="&#x2075;" 
d="M272 373c-39 0 -88 5 -134 19l20 93c39 -14 74 -17 125 -17c42 0 112 8 112 61c0 31 -24 47 -88 47c-51 0 -97 -2 -129 -4l61 228h312l-20 -91h-228l-15 -56c26 1 53 2 87 2c103 0 143 -38 143 -106c0 -106 -99 -176 -246 -176z" />
    <glyph glyph-name="uni2076" unicode="&#x2076;" 
d="M307 373c-105 0 -159 48 -159 141c0 176 114 293 281 293c52 0 89 -4 121 -12l-20 -93c-37 9 -72 13 -119 13c-70 0 -122 -34 -138 -96c41 22 83 37 136 37c81 0 125 -34 125 -98c0 -111 -91 -185 -227 -185zM326 458c52 0 92 31 92 72c0 31 -21 46 -63 46
c-34 0 -70 -10 -95 -26c-1 -8 -2 -16 -2 -24c0 -44 24 -68 68 -68z" />
    <glyph glyph-name="uni2077" unicode="&#x2077;" 
d="M185 380l245 329h-239l20 91h369l-17 -76l-251 -344h-127z" />
    <glyph glyph-name="uni2078" unicode="&#x2078;" 
d="M304 373c-118 0 -175 34 -175 102c0 61 47 113 116 126c-42 10 -62 36 -62 76c0 81 82 130 217 130c108 0 164 -32 164 -92c0 -54 -43 -101 -105 -114c48 -10 73 -38 73 -85c0 -90 -86 -143 -228 -143zM322 457c58 0 97 26 97 64c0 29 -22 43 -73 43
c-63 0 -96 -21 -96 -59c0 -31 23 -48 72 -48zM381 724c-57 0 -91 -21 -91 -55c0 -26 21 -39 66 -39c58 0 92 20 92 54c0 27 -22 40 -67 40z" />
    <glyph glyph-name="uni2079" unicode="&#x2079;" 
d="M289 373c-59 0 -95 3 -148 14l20 94c44 -12 74 -16 131 -16c72 0 127 38 142 97c-42 -28 -89 -41 -137 -41c-84 0 -134 40 -134 113c0 101 99 173 232 173c107 0 164 -46 164 -138c0 -172 -115 -296 -270 -296zM346 599c33 0 69 11 101 34c1 6 2 15 2 23
c0 43 -29 67 -75 67c-53 0 -93 -30 -93 -73c0 -34 24 -51 65 -51z" />
    <glyph glyph-name="uni2080" unicode="&#x2080;" 
d="M202 -107c-110 0 -163 46 -163 139c0 25 4 56 11 87c32 143 109 208 245 208c112 0 163 -44 163 -138c0 -23 -3 -49 -11 -81c-33 -144 -110 -215 -245 -215zM222 -15c56 0 86 31 105 119c7 33 10 50 10 67c0 45 -18 65 -63 65c-60 0 -85 -37 -104 -115
c-9 -34 -11 -54 -11 -70c0 -47 19 -66 63 -66z" />
    <glyph glyph-name="uni2081" unicode="&#x2081;" 
d="M192 -100l64 300l-120 -56l-28 81l195 95h95l-90 -420h-116z" />
    <glyph glyph-name="uni2082" unicode="&#x2082;" 
d="M24 -100l22 100l150 81c83 45 116 73 116 107c0 30 -24 43 -76 43c-39 0 -91 -7 -133 -26l21 99c54 17 101 23 147 23c111 0 165 -35 165 -106c0 -70 -53 -122 -198 -196l-55 -28v-1h211l-21 -96h-349z" />
    <glyph glyph-name="uni2083" unicode="&#x2083;" 
d="M165 -107c-30 0 -89 3 -138 19l20 96c46 -19 92 -20 131 -20c40 0 107 1 107 51c0 28 -19 36 -70 36h-85l17 80h75c32 0 88 2 88 43c0 26 -20 35 -81 35c-45 0 -93 -5 -130 -18l20 93c51 16 115 19 165 19c118 0 153 -42 153 -93c0 -69 -66 -98 -127 -115v-1
c72 -12 94 -41 94 -84c0 -109 -143 -141 -239 -141z" />
    <glyph glyph-name="uni2084" unicode="&#x2084;" 
d="M17 -18l18 87l278 251h132l-53 -247h58l-19 -91h-58l-18 -82h-112l18 82h-244zM281 72l33 155h-1l-172 -155h140z" />
    <glyph glyph-name="uni2085" unicode="&#x2085;" 
d="M170 -107c-39 0 -88 5 -134 19l20 93c39 -14 74 -17 125 -17c42 0 112 8 112 61c0 31 -24 47 -88 47c-51 0 -97 -2 -129 -4l61 228h312l-20 -91h-228l-15 -56c26 1 53 2 87 2c103 0 143 -38 143 -106c0 -106 -99 -176 -246 -176z" />
    <glyph glyph-name="uni2086" unicode="&#x2086;" 
d="M205 -107c-105 0 -159 48 -159 141c0 176 114 293 281 293c52 0 89 -4 121 -12l-20 -93c-37 9 -72 13 -119 13c-70 0 -122 -34 -138 -96c41 22 83 37 136 37c81 0 125 -34 125 -98c0 -111 -91 -185 -227 -185zM224 -22c52 0 92 31 92 72c0 31 -21 46 -63 46
c-34 0 -70 -10 -95 -26c-1 -8 -2 -16 -2 -24c0 -44 24 -68 68 -68z" />
    <glyph glyph-name="uni2087" unicode="&#x2087;" 
d="M83 -100l245 329h-239l20 91h369l-17 -76l-251 -344h-127z" />
    <glyph glyph-name="uni2088" unicode="&#x2088;" 
d="M202 -107c-118 0 -175 34 -175 102c0 61 47 113 116 126c-42 10 -62 36 -62 76c0 81 82 130 217 130c108 0 164 -32 164 -92c0 -54 -43 -101 -105 -114c48 -10 73 -38 73 -85c0 -90 -86 -143 -228 -143zM220 -23c58 0 97 26 97 64c0 29 -22 43 -73 43
c-63 0 -96 -21 -96 -59c0 -31 23 -48 72 -48zM279 244c-57 0 -91 -21 -91 -55c0 -26 21 -39 66 -39c58 0 92 20 92 54c0 27 -22 40 -67 40z" />
    <glyph glyph-name="uni2089" unicode="&#x2089;" 
d="M208 -107c-59 0 -95 3 -148 14l20 94c44 -12 74 -16 131 -16c72 0 127 38 142 97c-42 -28 -89 -41 -137 -41c-84 0 -134 40 -134 113c0 101 99 173 232 173c107 0 164 -46 164 -138c0 -172 -115 -296 -270 -296zM265 119c33 0 69 11 101 34c1 6 2 15 2 23
c0 43 -29 67 -75 67c-53 0 -93 -30 -93 -73c0 -34 24 -51 65 -51z" />
    <glyph glyph-name="Euro" unicode="&#x20ac;" horiz-adv-x="630" 
d="M101 383l54 110h54c63 137 180 221 327 221c86 0 134 -12 205 -52l-63 -128c-40 24 -84 38 -128 38c-65 0 -119 -29 -159 -79h267l-53 -110h-267c-5 -21 -9 -43 -12 -66h247l-54 -110h-188c16 -54 57 -79 127 -79c75 0 134 28 174 52l-33 -157c-59 -24 -109 -37 -194 -37
c-139 0 -234 87 -246 221h-95l53 110h45c3 22 6 45 11 66h-72z" />
    <glyph glyph-name="uni20B4" unicode="&#x20b4;" horiz-adv-x="630" 
d="M142 387l24 110h297c14 16 23 32 23 47c0 34 -42 42 -72 42c-58 0 -102 -6 -161 -22l28 130c56 12 136 20 196 20c118 0 185 -45 185 -124c0 -33 -11 -64 -29 -93h42l-24 -110h-124c-28 -23 -59 -45 -87 -65h198l-24 -110h-301c-10 -15 -16 -30 -16 -44
c0 -36 40 -54 104 -54c55 0 112 10 158 27l-28 -131c-64 -17 -127 -24 -203 -24c-128 0 -207 56 -207 145c0 28 8 55 21 81h-37l24 110h107c27 23 57 44 86 65h-180z" />
    <glyph glyph-name="uni20B8" unicode="&#x20b8;" horiz-adv-x="630" 
d="M233 0l88 415h-203l24 110h569l-23 -110h-203l-88 -415h-164zM156 590l23 110h569l-23 -110h-569z" />
    <glyph glyph-name="uni20BD" unicode="&#x20bd;" horiz-adv-x="630" 
d="M43 85l23 110h70l14 65h-70l31 144h70l63 296c104 6 142 7 233 7c157 0 230 -59 230 -187c0 -178 -100 -260 -317 -260h-76l-14 -65h207l-24 -110h-206l-18 -85h-164l18 85h-70zM379 562l-34 -158h69c80 0 117 28 117 90c0 48 -26 71 -84 71c-27 0 -41 0 -68 -3z" />
    <glyph glyph-name="afii61352" unicode="&#x2116;" horiz-adv-x="1200" 
d="M841 178l24 114h324l-24 -114h-324zM91 0l148 700h170l153 -381c15 -37 30 -69 40 -109c2 40 5 71 13 110l81 380h164l-148 -700h-170l-154 380c-16 40 -27 70 -36 110c-3 -40 -7 -70 -16 -110l-81 -380h-164zM889 500c0 136 78 207 227 207c98 0 155 -47 155 -127
c0 -137 -76 -207 -226 -207c-94 0 -156 50 -156 127zM1095 618c-57 0 -89 -33 -89 -103c0 -33 21 -53 58 -53c58 0 91 37 91 103c0 35 -21 53 -60 53z" />
    <glyph glyph-name="uni2120" unicode="&#x2120;" horiz-adv-x="860" 
d="M302 373c-31 0 -79 6 -120 20v89c25 -18 68 -32 118 -32s66 6 66 27c0 49 -190 5 -190 131c0 68 38 99 161 99c32 0 75 -6 107 -16v-85c-27 15 -61 27 -107 27c-47 0 -60 -7 -60 -23c0 -50 189 -1 189 -128c0 -71 -37 -109 -164 -109zM513 380v320h105l86 -164h2l85 164
h105v-320h-90v190h-1l-70 -126h-61l-70 126h-1v-190h-90z" />
    <glyph glyph-name="trademark" unicode="&#x2122;" horiz-adv-x="840" 
d="M274 380v237h-99v83h295v-83h-100v-237h-96zM512 380v320h105l86 -164h2l85 164h105v-320h-90v190h-1l-70 -126h-61l-70 126h-1v-190h-90z" />
    <glyph glyph-name="onethird" unicode="&#x2153;" horiz-adv-x="950" 
d="M258 0h-128l622 700h128zM223 280l64 300l-120 -56l-28 81l195 95h95l-90 -420h-116zM706 -7c-30 0 -89 3 -138 19l20 96c46 -19 92 -20 131 -20c40 0 107 1 107 51c0 28 -19 36 -70 36h-85l17 80h75c32 0 88 2 88 43c0 26 -20 35 -81 35c-45 0 -93 -5 -130 -18l20 93
c51 16 115 19 165 19c118 0 153 -42 153 -93c0 -69 -66 -98 -127 -115v-1c72 -12 94 -41 94 -84c0 -109 -143 -141 -239 -141z" />
    <glyph glyph-name="twothirds" unicode="&#x2154;" horiz-adv-x="950" 
d="M308 0h-128l622 700h128zM65 280l22 100l150 81c83 45 116 73 116 107c0 30 -24 43 -76 43c-39 0 -91 -7 -133 -26l21 99c54 17 101 23 147 23c111 0 165 -35 165 -106c0 -70 -53 -122 -198 -196l-55 -28v-1h211l-21 -96h-349zM731 -7c-30 0 -89 3 -138 19l20 96
c46 -19 92 -20 131 -20c40 0 107 1 107 51c0 28 -19 36 -70 36h-85l17 80h75c32 0 88 2 88 43c0 26 -20 35 -81 35c-45 0 -93 -5 -130 -18l20 93c51 16 115 19 165 19c118 0 153 -42 153 -93c0 -69 -66 -98 -127 -115v-1c72 -12 94 -41 94 -84c0 -109 -143 -141 -239 -141z
" />
    <glyph glyph-name="oneeighth" unicode="&#x215b;" horiz-adv-x="950" 
d="M258 0h-128l622 700h128zM223 280l64 300l-120 -56l-28 81l195 95h95l-90 -420h-116zM722 -7c-118 0 -175 34 -175 102c0 61 47 113 116 126c-42 10 -62 36 -62 76c0 81 82 130 217 130c108 0 164 -32 164 -92c0 -54 -43 -101 -105 -114c48 -10 73 -38 73 -85
c0 -90 -86 -143 -228 -143zM740 77c58 0 97 26 97 64c0 29 -22 43 -73 43c-63 0 -96 -21 -96 -59c0 -31 23 -48 72 -48zM799 344c-57 0 -91 -21 -91 -55c0 -26 21 -39 66 -39c58 0 92 20 92 54c0 27 -22 40 -67 40z" />
    <glyph glyph-name="threeeighths" unicode="&#x215c;" horiz-adv-x="950" 
d="M278 0h-128l622 700h128zM215 273c-30 0 -89 3 -138 19l20 96c46 -19 92 -20 131 -20c40 0 107 1 107 51c0 28 -19 36 -70 36h-85l17 80h75c32 0 88 2 88 43c0 26 -20 35 -81 35c-45 0 -93 -5 -130 -18l20 93c51 16 115 19 165 19c118 0 153 -42 153 -93
c0 -69 -66 -98 -127 -115v-1c72 -12 94 -41 94 -84c0 -109 -143 -141 -239 -141zM722 -7c-118 0 -175 34 -175 102c0 61 47 113 116 126c-42 10 -62 36 -62 76c0 81 82 130 217 130c108 0 164 -32 164 -92c0 -54 -43 -101 -105 -114c48 -10 73 -38 73 -85
c0 -90 -86 -143 -228 -143zM740 77c58 0 97 26 97 64c0 29 -22 43 -73 43c-63 0 -96 -21 -96 -59c0 -31 23 -48 72 -48zM799 344c-57 0 -91 -21 -91 -55c0 -26 21 -39 66 -39c58 0 92 20 92 54c0 27 -22 40 -67 40z" />
    <glyph glyph-name="fiveeighths" unicode="&#x215d;" horiz-adv-x="950" 
d="M273 0h-128l622 700h128zM216 273c-39 0 -88 5 -134 19l20 93c39 -14 74 -17 125 -17c42 0 112 8 112 61c0 31 -24 47 -88 47c-51 0 -97 -2 -129 -4l61 228h312l-20 -91h-228l-15 -56c26 1 53 2 87 2c103 0 143 -38 143 -106c0 -106 -99 -176 -246 -176zM722 -7
c-118 0 -175 34 -175 102c0 61 47 113 116 126c-42 10 -62 36 -62 76c0 81 82 130 217 130c108 0 164 -32 164 -92c0 -54 -43 -101 -105 -114c48 -10 73 -38 73 -85c0 -90 -86 -143 -228 -143zM740 77c58 0 97 26 97 64c0 29 -22 43 -73 43c-63 0 -96 -21 -96 -59
c0 -31 23 -48 72 -48zM799 344c-57 0 -91 -21 -91 -55c0 -26 21 -39 66 -39c58 0 92 20 92 54c0 27 -22 40 -67 40z" />
    <glyph glyph-name="seveneighths" unicode="&#x215e;" horiz-adv-x="950" 
d="M228 0h-128l622 700h128zM143 280l245 329h-239l20 91h369l-17 -76l-251 -344h-127zM712 -7c-118 0 -175 34 -175 102c0 61 47 113 116 126c-42 10 -62 36 -62 76c0 81 82 130 217 130c108 0 164 -32 164 -92c0 -54 -43 -101 -105 -114c48 -10 73 -38 73 -85
c0 -90 -86 -143 -228 -143zM730 77c58 0 97 26 97 64c0 29 -22 43 -73 43c-63 0 -96 -21 -96 -59c0 -31 23 -48 72 -48zM789 344c-57 0 -91 -21 -91 -55c0 -26 21 -39 66 -39c58 0 92 20 92 54c0 27 -22 40 -67 40z" />
    <glyph glyph-name="minus" unicode="&#x2212;" horiz-adv-x="630" 
d="M153 392h460v-134h-460v134z" />
    <glyph glyph-name="infinity" unicode="&#x221e;" horiz-adv-x="730" 
d="M491 227l-51 52l-50 -53c-34 -38 -79 -50 -122 -50c-110 0 -158 94 -158 173s48 177 158 177c38 0 86 -11 123 -50l49 -53l53 55c31 33 75 48 119 48c101 0 158 -82 158 -177c0 -77 -47 -173 -159 -173c-42 0 -84 13 -120 51zM501 349l39 -39c20 -20 38 -30 63 -30
c35 0 60 28 60 69c0 47 -28 73 -59 73c-23 0 -45 -6 -71 -36zM381 349l-42 44c-19 22 -36 29 -62 29c-40 0 -59 -35 -59 -73c0 -45 28 -68 57 -68c22 0 46 8 73 34z" />
    <glyph glyph-name="approxequal" unicode="&#x2248;" horiz-adv-x="630" 
d="M496 110c-85 0 -149 76 -225 76c-43 0 -96 -27 -118 -54v130c30 34 73 58 120 58c86 0 163 -76 236 -76c36 0 75 15 104 48v-130c-24 -26 -66 -52 -117 -52zM496 330c-85 0 -149 76 -225 76c-43 0 -96 -27 -118 -54v130c30 34 73 58 120 58c86 0 163 -76 236 -76
c36 0 75 15 104 48v-130c-24 -26 -66 -52 -117 -52z" />
    <glyph glyph-name="notequal" unicode="&#x2260;" horiz-adv-x="630" 
d="M153 502h271l49 93h100l-49 -93h89v-134h-158l-45 -86h203v-134h-272l-48 -93h-100l48 93h-88v134h157l45 86h-202v134z" />
    <glyph glyph-name="lessequal" unicode="&#x2264;" horiz-adv-x="630" 
d="M601 195l-460 163v134l460 163v-134l-280 -92v-2l280 -92v-140zM141 172h460v-134h-460v134z" />
    <glyph glyph-name="greaterequal" unicode="&#x2265;" horiz-adv-x="630" 
d="M158 195v134l280 92v2l-280 92v140l460 -163v-135zM159 172h460v-134h-460v134z" />
    <glyph glyph-name="lozenge" unicode="&#x25ca;" horiz-adv-x="630" 
d="M389 -14l-270 364l270 364l270 -364zM389 184l125 166l-125 165l-125 -165z" />
    <glyph glyph-name="uniF406" unicode="&#xf406;" horiz-adv-x="380" 
d="M201 900l99 25c4 -50 31 -70 71 -70s75 20 101 70l89 -25c-46 -98 -116 -145 -211 -145s-145 47 -149 145z" />
    <glyph glyph-name="uniF407" unicode="&#xf407;" horiz-adv-x="268" 
d="M56 -264c-45 0 -74 6 -99 17l27 69c17 -8 37 -13 60 -13c30 0 69 14 69 50c0 24 -28 30 -55 30c-10 0 -24 0 -35 -2l43 113h86l-22 -54c52 0 98 -20 98 -73c0 -89 -93 -137 -172 -137z" />
    <glyph glyph-name="uniF408" unicode="&#xf408;" horiz-adv-x="420" 
d="M170 755l156 170h160l84 -170h-117l-57 97l-101 -97h-125z" />
    <glyph glyph-name="uniF409" unicode="&#xf409;" horiz-adv-x="210" 
d="M-24 -253l12 56c45 0 83 9 94 41c-7 -1 -14 -1 -20 -1c-49 0 -75 15 -75 43c0 52 56 68 107 68c49 0 80 -21 80 -63c0 -82 -79 -144 -198 -144z" />
    <glyph glyph-name="uniF40A" unicode="&#xf40a;" horiz-adv-x="260" 
d="M132 480l103 220h144l-143 -220h-104z" />
    <glyph glyph-name="uniF40B" unicode="&#xf40b;" horiz-adv-x="205" 
d="M281 758c-62 0 -90 28 -90 82s28 82 90 82s90 -28 90 -82s-28 -82 -90 -82z" />
    <glyph glyph-name="uniF40C" unicode="&#xf40c;" horiz-adv-x="262" 
d="M310 722c-68 0 -118 50 -118 118s50 118 118 118s118 -50 118 -118s-50 -118 -118 -118zM310 795c27 0 44 17 44 45s-17 45 -44 45s-44 -17 -44 -45s17 -45 44 -45z" />
    <glyph glyph-name="uniF40D" unicode="&#xf40d;" horiz-adv-x="391" 
d="M260 768l-81 12c3 86 54 132 116 132c29 0 53 -11 86 -26c36 -16 45 -21 63 -21c22 0 40 17 44 47l81 -13c-4 -81 -53 -131 -116 -131c-33 0 -49 6 -87 24c-30 14 -42 24 -61 24c-18 0 -40 -17 -45 -48z" />
    <glyph glyph-name="uniF40E" unicode="&#xf40e;" horiz-adv-x="253" 
d="M87 -264c-87 0 -113 40 -113 83c0 90 96 157 168 191l68 -8c-49 -28 -119 -82 -119 -146c0 -27 21 -40 50 -40c23 0 44 5 66 16l-16 -75c-25 -11 -60 -21 -104 -21z" />
    <glyph glyph-name="zero.tab" unicode="&#xf4e0;" horiz-adv-x="633" 
d="M311 -14c-145 0 -211 78 -211 220c0 100 32 251 92 356c62 108 151 152 275 152c147 0 210 -77 210 -215c0 -111 -26 -217 -60 -301c-67 -163 -167 -212 -306 -212zM344 116c56 0 94 37 123 127c25 75 46 188 46 242c0 61 -22 99 -78 99c-63 0 -97 -45 -124 -128
c-24 -73 -47 -167 -47 -240c0 -66 24 -100 80 -100z" />
    <glyph glyph-name="one.tab" unicode="&#xf4e1;" horiz-adv-x="633" 
d="M47 134h211l82 385l-236 -117l32 149l293 151h113l-121 -568h136l-28 -134h-510z" />
    <glyph glyph-name="two.tab" unicode="&#xf4e2;" horiz-adv-x="633" 
d="M55 0l22 104c105 69 183 122 242 167c147 112 188 152 188 208c0 72 -28 101 -127 101c-77 0 -148 -34 -209 -73l34 161c62 26 144 46 238 46c168 0 224 -86 224 -190c0 -127 -59 -188 -242 -322c-29 -22 -64 -47 -95 -60h265l-30 -142h-510z" />
    <glyph glyph-name="three.tab" unicode="&#xf4e3;" horiz-adv-x="633" 
d="M-1 38l34 151c45 -37 121 -69 202 -69c102 0 163 21 163 102c0 45 -34 69 -123 69h-75l27 128h63c104 0 159 23 159 85c0 52 -30 76 -120 76c-73 0 -161 -25 -221 -58l34 149c70 27 173 43 254 43c166 0 217 -68 217 -155c0 -101 -64 -173 -178 -201
c86 -14 127 -57 127 -142c0 -88 -47 -152 -122 -191c-65 -34 -129 -39 -215 -39c-85 0 -172 25 -226 52z" />
    <glyph glyph-name="four.tab" unicode="&#xf4e4;" horiz-adv-x="633" 
d="M-9 159l18 86l381 455h208l-87 -407h78l-28 -134h-78l-34 -159h-160l34 159h-332zM209 292h144l51 242z" />
    <glyph glyph-name="five.tab" unicode="&#xf4e5;" horiz-adv-x="633" 
d="M94 312l107 388h426l-29 -134h-299l-34 -118c25 4 81 6 111 6c152 0 202 -78 202 -182c0 -196 -147 -286 -337 -286c-82 0 -158 16 -217 40l32 149c35 -23 108 -55 191 -55c86 0 167 32 167 123c0 77 -71 87 -153 87c-50 0 -126 -9 -167 -18z" />
    <glyph glyph-name="six.tab" unicode="&#xf4e6;" horiz-adv-x="650" 
d="M698 681l-33 -147c-30 22 -73 46 -159 46c-145 0 -218 -90 -242 -219c46 57 99 103 201 103c127 0 194 -78 194 -193c0 -178 -124 -285 -314 -285c-166 0 -243 85 -243 241c0 164 65 346 198 432c62 40 140 55 231 55c63 0 123 -13 167 -33zM354 120c91 0 141 55 141 130
c0 58 -31 90 -94 90c-83 0 -135 -51 -135 -123c0 -62 28 -97 88 -97z" />
    <glyph glyph-name="seven.tab" unicode="&#xf4e7;" horiz-adv-x="650" 
d="M135 0l378 566h-338l29 134h535l-19 -86l-397 -614h-188z" />
    <glyph glyph-name="eight.tab" unicode="&#xf4e8;" horiz-adv-x="650" 
d="M312 -14c-121 0 -231 47 -231 184c0 112 72 185 179 204c-63 21 -90 57 -90 126c0 160 156 216 291 216c122 0 241 -48 241 -170c0 -92 -58 -155 -156 -180c73 -16 105 -66 105 -139c0 -91 -42 -159 -121 -200c-61 -32 -150 -41 -218 -41zM350 119c73 0 137 26 137 106
c0 65 -49 88 -103 88c-70 0 -139 -32 -139 -109c0 -59 47 -85 105 -85zM447 582c-65 0 -113 -26 -113 -97c0 -44 33 -72 82 -72c68 0 122 26 122 101c0 55 -44 68 -91 68z" />
    <glyph glyph-name="nine.tab" unicode="&#xf4e9;" horiz-adv-x="650" 
d="M274 -14c-64 0 -135 16 -177 35l31 151c21 -16 92 -52 173 -52c144 0 204 91 230 219c-36 -57 -101 -102 -195 -102c-124 0 -204 70 -204 189c0 84 32 155 82 205c54 54 119 83 224 83c181 0 256 -103 256 -276c0 -137 -49 -257 -97 -314c-74 -89 -167 -138 -323 -138z
M394 361c85 0 136 43 136 122c0 62 -37 97 -97 97c-96 0 -137 -61 -137 -134c0 -57 42 -85 98 -85z" />
    <glyph glyph-name="dollar.tab" unicode="&#xf4ec;" horiz-adv-x="650" 
d="M237 -120l23 109c-70 8 -146 30 -187 56l34 159c51 -51 136 -82 217 -82c89 0 137 27 137 75c0 113 -298 71 -298 285c0 128 97 215 251 230l19 88h124l-19 -91c63 -7 125 -24 159 -43l-34 -158c-47 40 -122 70 -198 70c-84 0 -126 -19 -126 -64c0 -117 298 -83 298 -289
c0 -135 -91 -217 -253 -235l-23 -110h-124z" />
    <glyph glyph-name="Euro.tab" unicode="&#xf4ed;" horiz-adv-x="651" 
d="M111 383l54 110h54c63 137 180 221 327 221c86 0 134 -12 205 -52l-63 -128c-40 24 -84 38 -128 38c-65 0 -119 -29 -159 -79h267l-53 -110h-267c-5 -21 -9 -43 -12 -66h247l-54 -110h-188c16 -54 57 -79 127 -79c75 0 134 28 174 52l-33 -157c-59 -24 -109 -37 -194 -37
c-139 0 -234 87 -246 221h-95l53 110h45c3 22 6 45 11 66h-72z" />
    <glyph glyph-name="cent.tab" unicode="&#xf4ee;" horiz-adv-x="650" 
d="M606 170l-31 -135c-30 -19 -75 -42 -152 -48l-23 -107h-114l24 112c-112 17 -186 81 -186 209c0 212 113 332 305 350l19 89h114l-19 -89c62 -7 101 -23 125 -37l-34 -142c-31 26 -83 48 -156 48c-124 0 -190 -64 -190 -192c0 -70 53 -108 154 -108c73 0 122 22 164 50z
" />
    <glyph glyph-name="sterling.tab" unicode="&#xf4ef;" horiz-adv-x="650" 
d="M145 305l23 110h79l14 62c34 159 136 237 304 237c50 0 104 -7 152 -20l-30 -141c-47 14 -83 19 -120 19c-89 0 -128 -30 -145 -110l-10 -47h157l-23 -110h-158l-35 -163h247l-30 -142h-490l30 142h79l35 163h-79z" />
    <glyph glyph-name="yen.tab" unicode="&#xf4fa;" horiz-adv-x="650" 
d="M130 280l23 110h114l-99 310h178l73 -250l164 250h195l-230 -310h114l-23 -110h-172l-14 -65h172l-23 -110h-173l-23 -105h-164l23 105h-172l23 110h173l14 65h-173z" />
    <glyph glyph-name="florin.tab" unicode="&#xf4fb;" horiz-adv-x="650" 
d="M221 406l28 134h100l9 39c24 112 88 185 225 185c32 0 63 -4 91 -9l-26 -122c-8 2 -30 6 -54 6c-59 0 -79 -23 -94 -94l-1 -5h127l-28 -134h-128l-80 -377c-31 -147 -97 -223 -232 -223c-27 0 -47 3 -61 6l26 126c8 -2 16 -3 28 -3c38 0 72 10 89 90l81 381h-100z" />
    <glyph glyph-name="uni20B4.tab" unicode="&#xf4fc;" horiz-adv-x="660" 
d="M157 387l24 110h297c14 16 23 32 23 47c0 34 -42 42 -72 42c-58 0 -102 -6 -161 -22l28 130c56 12 136 20 196 20c118 0 185 -45 185 -124c0 -33 -11 -64 -29 -93h42l-24 -110h-124c-28 -23 -59 -45 -87 -65h198l-24 -110h-301c-10 -15 -16 -30 -16 -44
c0 -36 40 -54 104 -54c55 0 112 10 158 27l-28 -131c-64 -17 -127 -24 -203 -24c-128 0 -207 56 -207 145c0 28 8 55 21 81h-37l24 110h107c27 23 57 44 86 65h-180z" />
    <glyph glyph-name="uni20BD.tab" unicode="&#xf4fd;" horiz-adv-x="650" 
d="M53 85l23 110h70l14 65h-70l31 144h70l63 296c104 6 142 7 233 7c157 0 230 -59 230 -187c0 -178 -100 -260 -317 -260h-76l-14 -65h207l-24 -110h-206l-18 -85h-164l18 85h-70zM389 562l-34 -158h69c80 0 117 28 117 90c0 48 -26 71 -84 71c-27 0 -41 0 -68 -3z" />
    <glyph glyph-name="uni20B8.tab" unicode="&#xf5f3;" horiz-adv-x="650" 
d="M243 0l88 415h-203l24 110h569l-23 -110h-203l-88 -415h-164zM166 590l23 110h569l-23 -110h-569z" />
    <glyph glyph-name="zero.denominator" unicode="&#xf655;" 
d="M224 -7c-110 0 -163 46 -163 139c0 25 4 56 11 87c32 143 109 208 245 208c112 0 163 -44 163 -138c0 -23 -3 -49 -11 -81c-33 -144 -110 -215 -245 -215zM244 85c56 0 86 31 105 119c7 33 10 50 10 67c0 45 -18 65 -63 65c-60 0 -85 -37 -104 -115
c-9 -34 -11 -54 -11 -70c0 -47 19 -66 63 -66z" />
    <glyph glyph-name="one.denominator" unicode="&#xf656;" 
d="M213 0l64 300l-120 -56l-28 81l195 95h95l-90 -420h-116z" />
    <glyph glyph-name="two.denominator" unicode="&#xf657;" 
d="M45 0l22 100l150 81c83 45 116 73 116 107c0 30 -24 43 -76 43c-39 0 -91 -7 -133 -26l21 99c54 17 101 23 147 23c111 0 165 -35 165 -106c0 -70 -53 -122 -198 -196l-55 -28v-1h211l-21 -96h-349z" />
    <glyph glyph-name="three.denominator" unicode="&#xf658;" 
d="M186 -7c-30 0 -89 3 -138 19l20 96c46 -19 92 -20 131 -20c40 0 107 1 107 51c0 28 -19 36 -70 36h-85l17 80h75c32 0 88 2 88 43c0 26 -20 35 -81 35c-45 0 -93 -5 -130 -18l20 93c51 16 115 19 165 19c118 0 153 -42 153 -93c0 -69 -66 -98 -127 -115v-1
c72 -12 94 -41 94 -84c0 -109 -143 -141 -239 -141z" />
    <glyph glyph-name="four.denominator" unicode="&#xf659;" 
d="M33 82l18 87l278 251h132l-53 -247h58l-19 -91h-58l-18 -82h-112l18 82h-244zM297 172l33 155h-1l-172 -155h140z" />
    <glyph glyph-name="five.denominator" unicode="&#xf65a;" 
d="M192 -7c-39 0 -88 5 -134 19l20 93c39 -14 74 -17 125 -17c42 0 112 8 112 61c0 31 -24 47 -88 47c-51 0 -97 -2 -129 -4l61 228h312l-20 -91h-228l-15 -56c26 1 53 2 87 2c103 0 143 -38 143 -106c0 -106 -99 -176 -246 -176z" />
    <glyph glyph-name="six.denominator" unicode="&#xf65b;" 
d="M226 -7c-105 0 -159 48 -159 141c0 176 114 293 281 293c52 0 89 -4 121 -12l-20 -93c-37 9 -72 13 -119 13c-70 0 -122 -34 -138 -96c41 22 83 37 136 37c81 0 125 -34 125 -98c0 -111 -91 -185 -227 -185zM245 78c52 0 92 31 92 72c0 31 -21 46 -63 46
c-34 0 -70 -10 -95 -26c-1 -8 -2 -16 -2 -24c0 -44 24 -68 68 -68z" />
    <glyph glyph-name="seven.denominator" unicode="&#xf65c;" 
d="M104 0l245 329h-239l20 91h369l-17 -76l-251 -344h-127z" />
    <glyph glyph-name="eight.denominator" unicode="&#xf65d;" 
d="M223 -7c-118 0 -175 34 -175 102c0 61 47 113 116 126c-42 10 -62 36 -62 76c0 81 82 130 217 130c108 0 164 -32 164 -92c0 -54 -43 -101 -105 -114c48 -10 73 -38 73 -85c0 -90 -86 -143 -228 -143zM241 77c58 0 97 26 97 64c0 29 -22 43 -73 43c-63 0 -96 -21 -96 -59
c0 -31 23 -48 72 -48zM300 344c-57 0 -91 -21 -91 -55c0 -26 21 -39 66 -39c58 0 92 20 92 54c0 27 -22 40 -67 40z" />
    <glyph glyph-name="nine.denominator" unicode="&#xf65e;" 
d="M209 -7c-59 0 -95 3 -148 14l20 94c44 -12 74 -16 131 -16c72 0 127 38 142 97c-42 -28 -89 -41 -137 -41c-84 0 -134 40 -134 113c0 101 99 173 232 173c107 0 164 -46 164 -138c0 -172 -115 -296 -270 -296zM266 219c33 0 69 11 101 34c1 6 2 15 2 23
c0 43 -29 67 -75 67c-53 0 -93 -30 -93 -73c0 -34 24 -51 65 -51z" />
    <glyph glyph-name="zero.numerator" unicode="&#xf661;" 
d="M284 273c-110 0 -163 46 -163 139c0 25 4 56 11 87c32 143 109 208 245 208c112 0 163 -44 163 -138c0 -23 -3 -49 -11 -81c-33 -144 -110 -215 -245 -215zM304 365c56 0 86 31 105 119c7 33 10 50 10 67c0 45 -18 65 -63 65c-60 0 -85 -37 -104 -115
c-9 -34 -11 -54 -11 -70c0 -47 19 -66 63 -66z" />
    <glyph glyph-name="one.numerator" unicode="&#xf662;" 
d="M273 280l64 300l-120 -56l-28 81l195 95h95l-90 -420h-116z" />
    <glyph glyph-name="two.numerator" unicode="&#xf663;" 
d="M105 280l22 100l150 81c83 45 116 73 116 107c0 30 -24 43 -76 43c-39 0 -91 -7 -133 -26l21 99c54 17 101 23 147 23c111 0 165 -35 165 -106c0 -70 -53 -122 -198 -196l-55 -28v-1h211l-21 -96h-349z" />
    <glyph glyph-name="three.numerator" unicode="&#xf664;" 
d="M245 273c-30 0 -89 3 -138 19l20 96c46 -19 92 -20 131 -20c40 0 107 1 107 51c0 28 -19 36 -70 36h-85l17 80h75c32 0 88 2 88 43c0 26 -20 35 -81 35c-45 0 -93 -5 -130 -18l20 93c51 16 115 19 165 19c118 0 153 -42 153 -93c0 -69 -66 -98 -127 -115v-1
c72 -12 94 -41 94 -84c0 -109 -143 -141 -239 -141z" />
    <glyph glyph-name="four.numerator" unicode="&#xf665;" 
d="M92 362l18 87l278 251h132l-53 -247h58l-19 -91h-58l-18 -82h-112l18 82h-244zM356 452l33 155h-1l-172 -155h140z" />
    <glyph glyph-name="five.numerator" unicode="&#xf666;" 
d="M251 273c-39 0 -88 5 -134 19l20 93c39 -14 74 -17 125 -17c42 0 112 8 112 61c0 31 -24 47 -88 47c-51 0 -97 -2 -129 -4l61 228h312l-20 -91h-228l-15 -56c26 1 53 2 87 2c103 0 143 -38 143 -106c0 -106 -99 -176 -246 -176z" />
    <glyph glyph-name="six.numerator" unicode="&#xf667;" 
d="M285 273c-105 0 -159 48 -159 141c0 176 114 293 281 293c52 0 89 -4 121 -12l-20 -93c-37 9 -72 13 -119 13c-70 0 -122 -34 -138 -96c41 22 83 37 136 37c81 0 125 -34 125 -98c0 -111 -91 -185 -227 -185zM304 358c52 0 92 31 92 72c0 31 -21 46 -63 46
c-34 0 -70 -10 -95 -26c-1 -8 -2 -16 -2 -24c0 -44 24 -68 68 -68z" />
    <glyph glyph-name="seven.numerator" unicode="&#xf668;" 
d="M163 280l245 329h-239l20 91h369l-17 -76l-251 -344h-127z" />
    <glyph glyph-name="eight.numerator" unicode="&#xf669;" 
d="M282 273c-118 0 -175 34 -175 102c0 61 47 113 116 126c-42 10 -62 36 -62 76c0 81 82 130 217 130c108 0 164 -32 164 -92c0 -54 -43 -101 -105 -114c48 -10 73 -38 73 -85c0 -90 -86 -143 -228 -143zM300 357c58 0 97 26 97 64c0 29 -22 43 -73 43
c-63 0 -96 -21 -96 -59c0 -31 23 -48 72 -48zM359 624c-57 0 -91 -21 -91 -55c0 -26 21 -39 66 -39c58 0 92 20 92 54c0 27 -22 40 -67 40z" />
    <glyph glyph-name="nine.numerator" unicode="&#xf66a;" 
d="M268 273c-59 0 -95 3 -148 14l20 94c44 -12 74 -16 131 -16c72 0 127 38 142 97c-42 -28 -89 -41 -137 -41c-84 0 -134 40 -134 113c0 101 99 173 232 173c107 0 164 -46 164 -138c0 -172 -115 -296 -270 -296zM325 499c33 0 69 11 101 34c1 6 2 15 2 23
c0 43 -29 67 -75 67c-53 0 -93 -30 -93 -73c0 -34 24 -51 65 -51z" />
    <glyph glyph-name="uniF6BA" unicode="&#xf6ba;" horiz-adv-x="490" 
d="M146 288l26 124h320l-26 -124h-320z" />
    <glyph glyph-name="uniF6BB" unicode="&#xf6bb;" horiz-adv-x="720" 
d="M180 412h534l-26 -124h-534z" />
    <glyph glyph-name="uniF6BC" unicode="&#xf6bc;" horiz-adv-x="880" 
d="M179 412h694l-26 -124h-694z" />
    <glyph glyph-name="uniF6C3" unicode="&#xf6c3;" horiz-adv-x="198" 
d="M-22 -243l11 53c43 0 77 10 88 40c-8 -1 -14 -1 -20 -1c-44 0 -69 14 -69 44c0 46 62 61 101 61c44 0 75 -19 75 -66c0 -93 -109 -131 -186 -131z" />
    <glyph glyph-name="uniF6C9" unicode="&#xf6c9;" horiz-adv-x="319" 
d="M170 755l144 170h192l-214 -170h-122z" />
    <glyph glyph-name="uniF6CA" unicode="&#xf6ca;" horiz-adv-x="420" 
d="M293 765l-84 170h117l59 -97l99 97h125l-156 -170h-160z" />
    <glyph glyph-name="uniF6CB" unicode="&#xf6cb;" horiz-adv-x="426" 
d="M277 762c-60 0 -86 26 -86 78s26 78 86 78s86 -26 86 -78s-26 -78 -86 -78zM505 762c-60 0 -86 26 -86 78s26 78 86 78s86 -26 86 -78s-26 -78 -86 -78z" />
    <glyph glyph-name="uniF6CE" unicode="&#xf6ce;" horiz-adv-x="300" 
d="M332 760l-126 160h192l54 -160h-120z" />
    <glyph glyph-name="uniF6CF" unicode="&#xf6cf;" horiz-adv-x="519" 
d="M170 755l86 170h172l-136 -170h-122zM378 755l136 170h192l-196 -170h-132z" />
    <glyph glyph-name="uniF6D0" unicode="&#xf6d0;" horiz-adv-x="393" 
d="M200 788v104h350v-104h-350z" />
    <glyph glyph-name="uniF6D1" unicode="&#xf6d1;" horiz-adv-x="400" 
d="M361 755c-91 0 -159 35 -159 124c0 14 1 29 5 46h116c-3 -12 -4 -23 -4 -32c0 -37 20 -53 60 -53c50 0 81 25 94 85h114c-26 -123 -121 -170 -226 -170z" />
    <glyph glyph-name="uniF6D4" unicode="&#xf6d4;" horiz-adv-x="380" 
d="M321 615c-82 0 -149 35 -149 124c0 14 1 29 5 46h114c-2 -12 -3 -22 -3 -31c0 -38 19 -55 51 -55c40 0 74 26 86 86h112c-26 -123 -121 -170 -216 -170z" />
    <glyph glyph-name="uniFEFF" unicode="&#xfeff;" horiz-adv-x="250" 
 />
    <glyph glyph-name="percent.tab" horiz-adv-x="650" 
d="M381 103c0 110 57 234 184 234c70 0 109 -35 109 -108c0 -110 -56 -236 -183 -236c-71 0 -110 35 -110 110zM511 83c48 0 63 85 63 125c0 29 -8 39 -28 39c-51 0 -65 -82 -65 -123c0 -30 10 -41 30 -41zM133 473c0 110 57 234 184 234c70 0 109 -35 109 -108
c0 -110 -56 -236 -183 -236c-71 0 -110 35 -110 110zM263 453c48 0 63 85 63 125c0 29 -8 39 -28 39c-51 0 -65 -82 -65 -123c0 -30 10 -41 30 -41zM158 0h-128l622 700h128z" />
    <glyph glyph-name="plus.tab" horiz-adv-x="650" 
d="M326 95v163h-163v134h163v163h134v-163h163v-134h-163v-163h-134z" />
    <glyph glyph-name="less.tab" horiz-adv-x="650" 
d="M605 95l-460 163v134l460 163v-134l-280 -92v-2l280 -92v-140z" />
    <glyph glyph-name="equal.tab" horiz-adv-x="650" 
d="M162 282h460v-134h-460v134zM162 502h460v-134h-460v134z" />
    <glyph glyph-name="greater.tab" horiz-adv-x="650" 
d="M182 95v134l280 92v2l-280 92v140l460 -163v-135z" />
    <glyph glyph-name="multiply.tab" horiz-adv-x="650" 
d="M267 115l-85 85l125 125l-125 125l85 85l125 -125l125 125l85 -85l-125 -125l125 -125l-85 -85l-125 125z" />
    <glyph glyph-name="divide.tab" horiz-adv-x="650" 
d="M163 392h460v-134h-460v134zM394 18c-68 0 -100 32 -100 97s32 97 100 97s100 -32 100 -97s-32 -97 -100 -97zM394 438c-68 0 -100 32 -100 97s32 97 100 97s100 -32 100 -97s-32 -97 -100 -97z" />
    <glyph glyph-name="perthousand.tab" horiz-adv-x="650" 
d="M506 -7c-65 0 -101 24 -101 90c0 15 2 33 6 53c21 99 77 141 152 141c61 0 102 -24 102 -92c0 -14 -2 -31 -6 -49c-22 -105 -81 -143 -153 -143zM525 77c22 0 38 10 49 59c2 11 3 20 3 27c0 23 -10 30 -29 30c-26 0 -42 -14 -51 -57c-2 -11 -4 -21 -4 -28
c0 -24 12 -31 32 -31zM230 -7c-65 0 -101 24 -101 90c0 15 2 33 6 53c21 99 77 141 152 141c61 0 102 -24 102 -92c0 -14 -2 -31 -6 -49c-22 -105 -81 -143 -153 -143zM249 77c22 0 38 10 49 59c2 11 3 20 3 27c0 23 -10 30 -29 30c-26 0 -42 -14 -51 -57
c-2 -11 -4 -21 -4 -28c0 -24 12 -31 32 -31zM115 252l-28 63l513 217l27 -64zM236 423c-65 0 -101 24 -101 90c0 15 2 33 6 53c21 99 77 141 152 141c61 0 102 -24 102 -92c0 -14 -2 -31 -6 -49c-22 -105 -81 -143 -153 -143zM255 507c22 0 38 10 49 59c2 11 3 20 3 27
c0 23 -10 30 -29 30c-26 0 -42 -14 -51 -57c-2 -11 -4 -21 -4 -28c0 -24 12 -31 32 -31z" />
    <glyph glyph-name="minus.tab" horiz-adv-x="650" 
d="M163 392h460v-134h-460v134z" />
    <glyph glyph-name="f_b" horiz-adv-x="1100" 
d="M486 0l133 628c-51 2 -90 5 -128 5c-53 0 -78 -7 -89 -59l-8 -34h103l-29 -134h-102l-87 -406h-160l87 406h-90l29 134h90l11 51c27 127 93 176 241 176c73 0 143 -7 320 -7l-61 -285c35 40 88 79 178 79c123 0 197 -73 197 -207c0 -179 -79 -361 -289 -361
c-97 0 -153 59 -172 106l-34 -92h-140zM802 120c105 0 155 98 155 196c0 77 -47 104 -111 104c-75 0 -118 -39 -136 -127l-6 -29c-20 -97 37 -144 98 -144z" />
    <glyph glyph-name="f_f_b" horiz-adv-x="1471" 
d="M489 0l87 406h-210l-87 -406h-160l87 406h-90l29 134h90l11 51c27 127 93 176 241 176c48 0 77 -5 104 -10l-29 -135c-11 4 -37 11 -71 11c-53 0 -78 -7 -89 -59l-8 -34h211l11 51c27 127 93 176 241 176c73 0 144 -7 321 -7l-61 -285c35 40 88 79 178 79
c123 0 197 -73 197 -207c0 -179 -79 -361 -289 -361c-97 0 -153 59 -172 106l-34 -92h-140l133 628c-51 2 -91 5 -129 5c-53 0 -78 -7 -89 -59l-8 -34h103l-29 -134h-102l-87 -406h-160zM1173 120c105 0 155 98 155 196c0 77 -47 104 -111 104c-75 0 -118 -39 -136 -127
l-6 -29c-20 -97 37 -144 98 -144z" />
    <glyph glyph-name="f_f_h" horiz-adv-x="1460" 
d="M489 0l87 406h-210l-87 -406h-160l87 406h-90l29 134h90l11 51c27 127 93 176 241 176c48 0 77 -5 104 -10l-29 -135c-11 4 -37 11 -71 11c-53 0 -78 -7 -89 -59l-8 -34h211l11 51c27 127 93 176 241 176c65 0 130 -6 271 -7h50l-63 -295c39 58 103 89 195 89
c111 0 164 -42 164 -129c0 -22 -3 -43 -9 -71l-75 -354h-160l67 317c3 16 4 30 4 41c0 45 -27 62 -86 62c-81 0 -119 -36 -136 -117l-64 -303h-160l134 628c-51 2 -90 5 -128 5c-53 0 -78 -7 -89 -59l-8 -34h103l-29 -134h-102l-87 -406h-160z" />
    <glyph glyph-name="f_f_j" horiz-adv-x="1090" 
d="M489 0l87 406h-210l-87 -406h-160l87 406h-90l29 134h90l11 51c27 127 93 176 241 176c48 0 77 -5 104 -10l-29 -135c-11 4 -37 11 -71 11c-53 0 -78 -7 -89 -59l-8 -34h211l11 51c27 127 93 176 234 176c33 0 65 -4 91 -10l-29 -135c-15 6 -44 11 -62 11
c-42 0 -67 -7 -78 -59l-8 -34h366l-117 -545c-28 -129 -88 -182 -210 -182c-53 0 -83 9 -96 15l28 131c13 -6 32 -11 54 -11c38 0 57 14 65 52l87 406h-205l-87 -406h-160zM1084 620c-65 0 -95 30 -95 80s30 80 95 80s95 -30 95 -80s-30 -80 -95 -80z" />
    <glyph glyph-name="f_f_k" horiz-adv-x="1420" 
d="M489 0l87 406h-210l-87 -406h-160l87 406h-90l29 134h90l11 51c27 127 93 176 241 176c48 0 77 -5 104 -10l-29 -135c-11 4 -37 11 -71 11c-53 0 -78 -7 -89 -59l-8 -34h211l11 51c27 127 93 176 241 176c65 0 129 -6 270 -7h50l-87 -413h47l165 193h193l-241 -265
l146 -275h-185l-107 213h-47l-46 -213h-160l134 628c-51 2 -90 5 -128 5c-53 0 -78 -7 -89 -59l-8 -34h103l-29 -134h-102l-87 -406h-160z" />
    <glyph glyph-name="f_h" horiz-adv-x="1090" 
d="M485 0l134 628c-51 2 -90 5 -128 5c-53 0 -78 -7 -89 -59l-8 -34h103l-29 -134h-102l-87 -406h-160l87 406h-90l29 134h90l11 51c27 127 93 176 241 176c65 0 130 -6 271 -7h50l-63 -295c39 58 103 89 195 89c111 0 164 -42 164 -129c0 -22 -3 -43 -9 -71l-75 -354h-160
l67 317c3 16 4 30 4 41c0 45 -27 62 -86 62c-81 0 -119 -36 -136 -117l-64 -303h-160z" />
    <glyph glyph-name="f_j" horiz-adv-x="720" 
d="M337 -172l28 131c13 -6 32 -11 54 -11c38 0 57 14 65 52l87 406h-205l-87 -406h-160l87 406h-90l29 134h90l11 51c27 127 93 176 234 176c33 0 65 -4 91 -10l-29 -135c-15 6 -44 11 -62 11c-42 0 -67 -7 -78 -59l-8 -34h366l-117 -545c-28 -129 -88 -182 -210 -182
c-53 0 -83 9 -96 15zM714 620c-65 0 -95 30 -95 80s30 80 95 80s95 -30 95 -80s-30 -80 -95 -80z" />
    <glyph glyph-name="f_k" horiz-adv-x="1050" 
d="M485 0l134 628c-51 2 -90 5 -128 5c-53 0 -78 -7 -89 -59l-8 -34h103l-29 -134h-102l-87 -406h-160l87 406h-90l29 134h90l11 51c27 127 93 176 241 176c65 0 129 -6 270 -7h50l-87 -413h47l165 193h193l-241 -265l146 -275h-185l-107 213h-47l-46 -213h-160z" />
    </font>
</defs>
</svg>
