<?xml version="1.0" standalone="no"?>
<!DOCTYPE svg PUBLIC "-//W3C//DTD SVG 1.1//EN" "http://www.w3.org/Graphics/SVG/1.1/DTD/svg11.dtd" >
<svg xmlns="http://www.w3.org/2000/svg" xmlns:xlink="http://www.w3.org/1999/xlink" version="1.1">
<metadata>
Created by FontForge 20190801 at Wed Apr 17 13:05:02 2019
 By Jimmy Wärting
Copyright (c) 2018 ParaType Inc., ParaType Ltd. All rights reserved.
</metadata>
<defs>
<font id="SBSansText-Italic" horiz-adv-x="450" >
  <font-face 
    font-family="SB Sans Text"
    font-weight="400"
    font-style="italic"
    font-stretch="normal"
    units-per-em="1000"
    panose-1="2 11 5 3 4 5 4 2 9 4"
    ascent="801"
    descent="-199"
    x-height="530"
    cap-height="700"
    bbox="-212 -239 1344 939"
    underline-thickness="50"
    underline-position="-113"
    slope="-12"
    stemh="75"
    stemv="70"
    unicode-range="U+0020-FEFF"
  />
<missing-glyph horiz-adv-x="322" 
 />
    <glyph glyph-name="f_f" unicode="ff" horiz-adv-x="750" 
d="M457 0l97 455h-247l-97 -455h-87l97 455h-85l15 75h86l17 77c24 113 86 148 192 148c37 0 67 -5 85 -11l-17 -81c-18 10 -46 17 -79 17c-58 0 -82 -13 -97 -84l-14 -66h247l17 77c24 113 85 148 191 148c37 0 67 -5 85 -11l-17 -81c-18 10 -45 17 -79 17
c-58 0 -82 -13 -97 -84l-14 -66h157l-15 -75h-158l-97 -455h-86z" />
    <glyph glyph-name="fi" unicode="fi" horiz-adv-x="632" 
d="M542 0h-86l97 455h-246l-97 -455h-87l97 455h-85l15 75h86l17 77c24 113 86 148 190 148c33 0 64 -5 82 -11l-18 -81c-18 11 -47 17 -76 17c-55 0 -79 -13 -94 -84l-14 -66h332zM645 633c-37 0 -56 19 -56 52s19 52 56 52s56 -19 56 -52s-19 -52 -56 -52z" />
    <glyph glyph-name="fl" unicode="fl" horiz-adv-x="693" 
d="M586 -5c-72 0 -110 23 -110 82c0 13 2 26 5 42l117 555c-59 2 -112 6 -156 6c-66 0 -90 -13 -105 -84l-14 -66h121l-16 -75h-121l-97 -455h-87l97 455h-85l15 75h86l17 77c24 113 86 148 199 148c53 0 144 -5 249 -5l-129 -610c-3 -12 -4 -22 -4 -30c0 -30 15 -40 52 -40
c20 0 41 5 64 14l-15 -73c-16 -7 -48 -16 -83 -16z" />
    <glyph glyph-name="f_f_i" unicode="ffi" horiz-adv-x="965" 
d="M457 0l97 455h-247l-97 -455h-87l97 455h-85l15 75h86l17 77c24 113 86 148 192 148c37 0 67 -5 85 -11l-17 -81c-18 10 -46 17 -79 17c-58 0 -82 -13 -97 -84l-14 -66h247l17 77c24 113 85 148 189 148c33 0 64 -5 82 -11l-18 -81c-18 11 -46 17 -76 17
c-55 0 -79 -13 -94 -84l-14 -66h332l-113 -530h-86l97 455h-246l-97 -455h-86zM979 633c-37 0 -56 19 -56 52s19 52 56 52s55 -19 55 -52s-18 -52 -55 -52z" />
    <glyph glyph-name="f_f_l" unicode="ffl" horiz-adv-x="1026" 
d="M457 0l97 455h-247l-97 -455h-87l97 455h-85l15 75h86l17 77c24 113 86 148 192 148c37 0 67 -5 85 -11l-17 -81c-18 10 -46 17 -79 17c-58 0 -82 -13 -97 -84l-14 -66h247l17 77c24 113 85 148 198 148c46 0 122 -4 249 -5l-129 -610c-3 -12 -4 -22 -4 -30
c0 -30 15 -40 53 -40c19 0 41 5 64 14l-16 -73c-16 -7 -47 -16 -83 -16c-72 0 -110 23 -110 82c0 13 2 26 5 42l117 555c-59 2 -112 6 -156 6c-66 0 -90 -13 -105 -84l-14 -66h121l-15 -75h-122l-97 -455h-86z" />
    <glyph glyph-name=".notdef" horiz-adv-x="322" 
 />
    <glyph glyph-name="space" unicode=" " horiz-adv-x="290" 
 />
    <glyph glyph-name="exclam" unicode="!" horiz-adv-x="385" 
d="M198 225l97 475h94l-106 -475h-85zM205 -5c-43 0 -64 21 -64 63c0 41 21 62 64 62c42 0 63 -21 63 -62c0 -42 -21 -63 -63 -63z" />
    <glyph glyph-name="quotedbl" unicode="&#x22;" horiz-adv-x="518" 
d="M290 435h-75l56 265h76zM487 435h-75l56 265h76z" />
    <glyph glyph-name="numbersign" unicode="#" horiz-adv-x="702" 
d="M435 0l43 201h-167l-43 -201h-76l43 201h-125l16 69h123l35 161h-125l15 69h124l43 200h76l-43 -200h167l43 200h72l-43 -200h128l-15 -69h-127l-35 -161h129l-16 -69h-127l-43 -201h-72zM360 431l-35 -161h167l35 161h-167z" />
    <glyph glyph-name="dollar" unicode="$" horiz-adv-x="601" 
d="M242 -120l24 110c-71 5 -144 27 -181 57l22 100c47 -51 117 -80 192 -80c117 0 179 47 179 137c0 154 -295 95 -295 298c0 120 92 200 235 208l19 90h73l-19 -92c58 -5 114 -20 150 -41l-21 -96c-45 39 -105 62 -174 62c-109 0 -166 -39 -166 -115
c0 -152 294 -94 294 -303c0 -132 -86 -213 -236 -224l-24 -111h-72z" />
    <glyph glyph-name="percent" unicode="%" horiz-adv-x="894" 
d="M658 -5c-87 0 -146 50 -146 138c0 120 90 192 204 192c85 0 142 -45 142 -132c0 -118 -84 -198 -200 -198zM667 58c79 0 121 49 121 126c0 54 -30 79 -83 79c-78 0 -123 -45 -123 -123c0 -53 32 -82 85 -82zM330 375c-87 0 -146 46 -146 134c0 120 90 196 204 196
c85 0 142 -49 142 -136c0 -118 -84 -194 -200 -194zM339 438c79 0 121 45 121 122c0 54 -30 83 -83 83c-78 0 -123 -49 -123 -127c0 -53 32 -78 85 -78zM248 0h-83l629 700h84z" />
    <glyph glyph-name="ampersand" unicode="&#x26;" horiz-adv-x="855" 
d="M786 77l-18 -87c-64 12 -130 39 -183 87c-77 -65 -161 -87 -254 -87c-121 0 -202 76 -202 191c0 122 90 194 213 229c-19 40 -26 84 -26 119c0 125 80 181 201 181c88 0 142 -50 142 -121c0 -115 -95 -167 -225 -209c36 -78 89 -151 159 -211c90 81 153 199 180 326h81
c-29 -134 -104 -273 -205 -364c42 -32 94 -46 137 -54zM217 186c0 -82 57 -124 139 -124c61 0 122 18 176 60c-73 65 -130 145 -166 229c-92 -24 -149 -76 -149 -165zM393 534c0 -28 5 -68 19 -96c106 36 165 62 165 139c0 37 -22 65 -75 65c-71 0 -109 -36 -109 -108z" />
    <glyph glyph-name="quotesingle" unicode="'" horiz-adv-x="320" 
d="M290 435h-75l56 265h76z" />
    <glyph glyph-name="parenleft" unicode="(" horiz-adv-x="368" 
d="M250 -190c-58 61 -124 209 -124 366c0 250 154 467 316 589l40 -40c-121 -107 -274 -305 -274 -549c0 -137 46 -271 87 -329z" />
    <glyph glyph-name="parenright" unicode=")" horiz-adv-x="368" 
d="M239 765c58 -61 124 -209 124 -366c0 -250 -154 -467 -316 -589l-40 40c121 107 274 305 274 549c0 137 -46 271 -87 329z" />
    <glyph glyph-name="asterisk" unicode="*" horiz-adv-x="538" 
d="M239 382l100 115l-146 38l23 75l141 -62l-13 152h77l-12 -151l140 61l23 -75l-147 -38l102 -115l-64 -44l-81 128l-80 -128z" />
    <glyph glyph-name="plus" unicode="+" horiz-adv-x="601" 
d="M332 113v178h-178v75h178v178h75v-178h178v-75h-178v-178h-75z" />
    <glyph glyph-name="comma" unicode="," horiz-adv-x="323" 
d="M42 -107c55 12 105 54 121 103c-37 0 -58 20 -58 58c0 43 24 66 70 66c41 0 66 -25 66 -66c0 -93 -69 -185 -160 -214z" />
    <glyph glyph-name="hyphen" unicode="-" horiz-adv-x="475" 
d="M150 233l16 75h276l-16 -75h-276z" />
    <glyph glyph-name="period" unicode="." horiz-adv-x="323" 
d="M174 -5c-43 0 -64 21 -64 63c0 41 21 62 64 62c42 0 63 -21 63 -62c0 -42 -21 -63 -63 -63z" />
    <glyph glyph-name="slash" unicode="/" horiz-adv-x="373" 
d="M-28 -180l469 930h81l-469 -930h-81z" />
    <glyph glyph-name="zero" unicode="0" horiz-adv-x="601" 
d="M300 -10c-137 0 -195 91 -195 218c0 123 38 315 136 414c57 65 124 88 214 88c137 0 191 -86 191 -212c0 -119 -37 -304 -127 -402c-60 -84 -136 -106 -219 -106zM314 64c63 0 103 23 136 71c71 82 107 247 107 355c0 85 -29 146 -121 146c-56 0 -94 -18 -131 -67
c-74 -78 -111 -239 -111 -357c0 -83 29 -148 120 -148z" />
    <glyph glyph-name="one" unicode="1" horiz-adv-x="601" 
d="M106 75h208l111 521l-233 -117l18 86l262 135h62l-133 -625h163l-16 -75h-458z" />
    <glyph glyph-name="two" unicode="2" horiz-adv-x="601" 
d="M66 0l13 62c75 53 246 182 322 241c95 74 147 128 147 212c0 85 -43 116 -153 116c-74 0 -144 -29 -201 -66l20 97c63 30 137 48 213 48c127 0 209 -58 209 -176c0 -125 -71 -195 -185 -282c-58 -44 -138 -105 -239 -175h343l-17 -77h-472z" />
    <glyph glyph-name="three" unicode="3" horiz-adv-x="601" 
d="M67 41l20 82c39 -31 105 -58 196 -58c114 0 205 35 205 161c0 62 -48 96 -162 96h-78l16 73h72c132 0 201 51 201 143c0 64 -40 97 -137 97c-90 0 -162 -23 -212 -51l21 85c68 29 141 41 226 41c139 0 191 -67 191 -146c0 -117 -67 -178 -179 -205
c92 -13 130 -58 130 -139c0 -82 -36 -143 -97 -183c-54 -36 -119 -47 -204 -47c-88 0 -161 23 -209 51z" />
    <glyph glyph-name="four" unicode="4" horiz-adv-x="601" 
d="M66 183l12 53l425 464h109l-93 -441h96l-15 -76h-98l-39 -183h-86l39 183h-350zM192 259h241l72 342z" />
    <glyph glyph-name="five" unicode="5" horiz-adv-x="601" 
d="M161 343l103 357h386l-16 -75h-312l-59 -200c26 3 56 7 109 7c123 0 219 -44 219 -169c0 -193 -144 -273 -319 -273c-73 0 -143 14 -188 36l19 87c48 -33 110 -48 176 -48c117 0 223 50 223 181c0 101 -88 114 -174 114c-63 0 -119 -7 -167 -17z" />
    <glyph glyph-name="six" unicode="6" horiz-adv-x="601" 
d="M644 680l-19 -86c-28 21 -73 41 -145 41c-175 0 -254 -137 -281 -301c51 75 112 116 217 116c117 0 193 -65 193 -182c0 -171 -118 -278 -289 -278c-128 0 -213 79 -213 223c0 164 54 321 150 410c73 67 149 87 245 87c55 0 109 -12 142 -30zM328 65
c113 0 192 71 192 186c0 86 -52 127 -136 127c-102 0 -188 -63 -188 -169c0 -89 45 -144 132 -144z" />
    <glyph glyph-name="seven" unicode="7" horiz-adv-x="601" 
d="M150 0l417 625h-381l15 75h490l-10 -49l-428 -651h-103z" />
    <glyph glyph-name="eight" unicode="8" horiz-adv-x="601" 
d="M297 -10c-113 0 -212 51 -212 176c0 119 80 191 191 210c-70 21 -101 62 -101 123c0 152 137 211 269 211c103 0 205 -44 205 -156c0 -106 -64 -159 -163 -185c78 -15 112 -72 112 -142c0 -77 -32 -144 -93 -185c-52 -36 -121 -52 -208 -52zM317 65c103 0 192 46 192 162
c0 88 -71 110 -145 110c-93 0 -190 -45 -190 -151c0 -84 66 -121 143 -121zM434 635c-88 0 -171 -37 -171 -139c0 -71 61 -96 127 -96c88 0 170 33 170 134c0 73 -61 101 -126 101z" />
    <glyph glyph-name="nine" unicode="9" horiz-adv-x="601" 
d="M247 -10c-56 0 -116 14 -146 30l20 88c25 -20 79 -43 142 -43c180 0 261 145 282 303c-43 -76 -113 -119 -218 -119c-109 0 -189 70 -189 181c0 90 33 160 84 208c52 48 116 72 197 72c150 0 223 -84 223 -231c0 -155 -48 -292 -116 -370c-68 -80 -152 -119 -279 -119z
M353 324c108 0 200 61 200 172c0 89 -57 139 -144 139c-115 0 -182 -87 -182 -194c0 -79 50 -117 126 -117z" />
    <glyph glyph-name="colon" unicode=":" horiz-adv-x="328" 
d="M176 -5c-43 0 -64 21 -64 63c0 41 21 62 64 62c42 0 63 -21 63 -62c0 -42 -21 -63 -63 -63zM261 390c-43 0 -64 21 -64 63c0 41 21 62 64 62c42 0 63 -21 63 -62c0 -42 -21 -63 -63 -63z" />
    <glyph glyph-name="semicolon" unicode=";" horiz-adv-x="328" 
d="M44 -107c55 12 105 54 121 103c-37 0 -58 20 -58 58c0 43 24 66 70 66c41 0 66 -25 66 -66c0 -93 -69 -185 -160 -214zM261 390c-43 0 -64 21 -64 63c0 41 21 62 64 62c42 0 63 -21 63 -62c0 -42 -21 -63 -63 -63z" />
    <glyph glyph-name="less" unicode="&#x3c;" horiz-adv-x="601" 
d="M566 121l-430 172v72l430 172v-80l-329 -127v-2l329 -125v-82z" />
    <glyph glyph-name="equal" unicode="=" horiz-adv-x="601" 
d="M154 264h431v-75h-431v75zM154 468h431v-75h-431v75z" />
    <glyph glyph-name="greater" unicode="&#x3e;" horiz-adv-x="601" 
d="M173 121v79l329 127v2l-329 126v82l430 -172v-73z" />
    <glyph glyph-name="question" unicode="?" horiz-adv-x="551" 
d="M316 218h-85c37 201 270 149 270 321c0 58 -37 91 -117 91c-76 0 -127 -20 -173 -45l19 92c51 21 115 33 177 33c126 0 190 -55 190 -150c0 -233 -252 -186 -281 -342zM240 -6c-42 0 -63 21 -63 63c0 41 21 62 63 62s63 -21 63 -62c0 -42 -21 -63 -63 -63z" />
    <glyph glyph-name="at" unicode="@" horiz-adv-x="1005" 
d="M588 -130c-275 0 -422 165 -422 415c0 243 149 425 418 425c234 0 393 -140 393 -370c0 -152 -89 -275 -205 -275c-76 0 -109 32 -111 99c-25 -69 -78 -99 -160 -99c-89 0 -138 64 -138 149c0 76 25 195 100 258c36 31 80 43 128 43c79 0 110 -36 115 -85l26 80h62
l-59 -272c-6 -29 -10 -55 -10 -62c0 -34 19 -49 52 -49c92 0 139 116 139 211c0 197 -127 314 -334 314c-228 0 -355 -142 -355 -368c0 -214 121 -356 360 -356c67 0 139 16 180 43v-66c-44 -19 -111 -35 -179 -35zM435 219c0 -55 26 -90 85 -90c67 0 109 30 134 98
c17 42 30 102 30 145c0 56 -32 79 -86 79c-36 0 -67 -8 -92 -30c-52 -49 -71 -149 -71 -202z" />
    <glyph glyph-name="A" unicode="A" horiz-adv-x="671" 
d="M25 0l410 700h99l112 -700h-91l-28 187h-300l-107 -187h-95zM465 600l-193 -335h243z" />
    <glyph glyph-name="B" unicode="B" horiz-adv-x="654" 
d="M105 1l148 698c72 4 141 6 201 6c135 0 225 -33 225 -142c0 -113 -48 -180 -158 -203c76 -11 117 -53 117 -129c0 -77 -24 -144 -84 -185c-53 -37 -143 -51 -237 -51c-69 0 -150 0 -212 6zM264 325l-52 -249c41 -3 82 -3 123 -3c145 0 206 43 206 154
c0 68 -37 98 -141 98h-136zM278 393h126c122 0 179 45 179 142c0 63 -31 92 -133 92c-41 0 -79 -1 -123 -3z" />
    <glyph glyph-name="C" unicode="C" horiz-adv-x="644" 
d="M709 671l-20 -91c-45 33 -97 50 -170 50c-83 0 -142 -20 -196 -75c-63 -66 -105 -193 -105 -303c0 -127 70 -182 196 -182c78 0 147 26 187 47l-19 -90c-45 -18 -108 -37 -184 -37c-170 0 -276 73 -276 254c0 113 47 281 144 374c68 64 154 92 261 92
c85 0 144 -19 182 -39z" />
    <glyph glyph-name="D" unicode="D" horiz-adv-x="733" 
d="M292 -5c-78 0 -133 3 -186 7l148 697c64 4 122 6 206 6c178 0 295 -75 295 -254c0 -159 -55 -298 -137 -366s-181 -90 -326 -90zM212 79c35 -4 58 -4 90 -4c106 0 185 12 245 63c65 54 112 158 112 302c0 139 -85 185 -218 185c-43 0 -73 -1 -114 -4z" />
    <glyph glyph-name="E" unicode="E" horiz-adv-x="602" 
d="M105 0l149 700h430l-17 -80h-340l-47 -223h310l-17 -77h-310l-51 -240h340l-17 -80h-430z" />
    <glyph glyph-name="F" unicode="F" horiz-adv-x="582" 
d="M105 0l149 700h420l-17 -80h-330l-53 -246h316l-17 -80h-315l-63 -294h-90z" />
    <glyph glyph-name="G" unicode="G" horiz-adv-x="691" 
d="M414 -10c-177 0 -290 79 -290 263c0 148 71 312 162 383c70 55 146 74 264 74c76 0 144 -24 175 -39l-19 -92c-35 25 -104 51 -170 51c-80 0 -133 -10 -190 -55c-74 -59 -126 -195 -126 -314c0 -145 79 -191 211 -191c47 0 95 10 130 23l40 190h-152l16 77h235l-69 -324
c-40 -18 -121 -46 -217 -46z" />
    <glyph glyph-name="H" unicode="H" horiz-adv-x="771" 
d="M105 0l149 700h90l-64 -300h381l64 300h90l-149 -700h-90l67 320h-380l-68 -320h-90z" />
    <glyph glyph-name="I" unicode="I" horiz-adv-x="310" 
d="M110 0l149 700h90l-149 -700h-90z" />
    <glyph glyph-name="J" unicode="J" horiz-adv-x="408" 
d="M131 -5c-37 0 -74 8 -105 25l18 85c32 -22 57 -30 92 -30c67 0 99 29 117 113l109 512h90l-111 -525c-27 -128 -89 -180 -210 -180z" />
    <glyph glyph-name="K" unicode="K" horiz-adv-x="693" 
d="M564 0l-232 319h-69l-68 -319h-90l149 700h90l-64 -301h57l330 301h114l-378 -340l263 -360h-102z" />
    <glyph glyph-name="L" unicode="L" horiz-adv-x="563" 
d="M105 0l149 700h90l-132 -620h335l-16 -80h-426z" />
    <glyph glyph-name="M" unicode="M" horiz-adv-x="882" 
d="M105 0l149 700h109l132 -434l314 434h116l-148 -700h-90l100 466c7 31 19 83 29 120c-27 -40 -64 -95 -81 -119l-220 -301h-75l-93 300c-8 27 -23 83 -33 123c-5 -38 -14 -91 -21 -122l-99 -467h-89z" />
    <glyph glyph-name="N" unicode="N" horiz-adv-x="764" 
d="M105 0l149 700h92l208 -469c17 -39 31 -70 46 -113c6 43 10 74 18 113l100 469h90l-149 -700h-92l-208 468c-18 40 -30 70 -45 114c-6 -44 -11 -74 -19 -114l-99 -468h-91z" />
    <glyph glyph-name="O" unicode="O" horiz-adv-x="773" 
d="M397 -10c-167 0 -271 100 -271 267c0 132 49 290 154 377c72 60 151 76 249 76c169 0 266 -96 266 -266c0 -149 -60 -305 -152 -378c-73 -57 -155 -76 -246 -76zM411 70c79 0 136 20 181 64c72 71 107 195 107 299c0 129 -59 197 -190 197c-66 0 -116 -13 -162 -50
c-87 -69 -125 -211 -125 -315c0 -125 63 -195 189 -195z" />
    <glyph glyph-name="P" unicode="P" horiz-adv-x="636" 
d="M104 0l148 696c57 5 117 9 193 9c169 0 237 -67 237 -183c0 -102 -32 -180 -102 -233c-51 -38 -136 -56 -237 -56c-34 0 -66 2 -98 6l-50 -239h-91zM262 318c36 -4 61 -5 98 -5c62 0 126 3 169 39c37 32 57 83 57 157c0 69 -35 116 -156 116c-37 0 -66 -1 -103 -4z" />
    <glyph glyph-name="Q" unicode="Q" horiz-adv-x="773" 
d="M397 -10c-167 0 -271 100 -271 267c0 132 49 290 154 377c72 60 151 76 249 76c169 0 266 -96 266 -266c0 -149 -60 -305 -152 -378c-42 -33 -87 -53 -134 -64l116 -147h-105l-106 135h-17zM411 70c79 0 136 20 181 64c72 71 107 195 107 299c0 129 -59 197 -190 197
c-66 0 -116 -13 -162 -50c-87 -69 -125 -211 -125 -315c0 -125 63 -195 189 -195z" />
    <glyph glyph-name="R" unicode="R" horiz-adv-x="663" 
d="M105 0l148 696c66 5 131 9 197 9c137 0 218 -54 218 -173c0 -125 -61 -208 -188 -239l151 -293h-97l-146 280h-133l-59 -280h-91zM272 357h105c132 0 195 50 195 166c0 71 -48 102 -135 102c-41 0 -70 0 -109 -5z" />
    <glyph glyph-name="S" unicode="S" horiz-adv-x="585" 
d="M291 -10c-78 0 -168 23 -211 57l22 100c46 -51 116 -79 191 -79c117 0 179 46 179 136c0 154 -294 95 -294 298c0 127 102 208 259 208c74 0 152 -16 197 -42l-20 -97c-45 39 -105 61 -175 61c-108 0 -165 -38 -165 -114c0 -152 294 -94 294 -304
c0 -142 -102 -224 -277 -224z" />
    <glyph glyph-name="T" unicode="T" horiz-adv-x="583" 
d="M246 0l132 620h-221l17 80h532l-17 -80h-221l-132 -620h-90z" />
    <glyph glyph-name="U" unicode="U" horiz-adv-x="735" 
d="M368 -10c-129 0 -218 61 -218 190c0 33 7 86 20 148l79 372h90l-81 -379c-13 -60 -18 -106 -18 -130c0 -91 56 -121 141 -121c138 0 191 54 223 203l90 427h91l-92 -428c-43 -203 -128 -282 -325 -282z" />
    <glyph glyph-name="V" unicode="V" horiz-adv-x="656" 
d="M276 0l-100 700h92l81 -597l329 597h99l-394 -700h-107z" />
    <glyph glyph-name="W" unicode="W" horiz-adv-x="939" 
d="M195 0l-1 700h90v-436c0 -40 -2 -95 -4 -137c18 41 45 97 66 137l222 436h99l35 -434c3 -40 7 -97 9 -139c14 42 37 98 54 139l183 434h95l-299 -700h-101l-48 580l-297 -580h-103z" />
    <glyph glyph-name="X" unicode="X" horiz-adv-x="651" 
d="M28 0l314 362l-147 338h98l119 -273l235 273h110l-295 -341l162 -359h-99l-135 295l-252 -295h-110z" />
    <glyph glyph-name="Y" unicode="Y" horiz-adv-x="618" 
d="M264 0l58 273l-152 427h96l118 -334l257 334h105l-333 -427l-59 -273h-90z" />
    <glyph glyph-name="Z" unicode="Z" horiz-adv-x="606" 
d="M51 0l12 57l502 563h-370l17 80h495l-12 -57l-502 -563h388l-17 -80h-513z" />
    <glyph glyph-name="bracketleft" unicode="[" horiz-adv-x="368" 
d="M57 -180l197 930h230l-14 -70h-149l-168 -790h149l-15 -70h-230z" />
    <glyph glyph-name="backslash" unicode="\" horiz-adv-x="373" 
d="M348 -180l-278 930h75l278 -930h-75z" />
    <glyph glyph-name="bracketright" unicode="]" horiz-adv-x="368" 
d="M4 -180l14 70h149l168 790h-149l15 70h230l-197 -930h-230z" />
    <glyph glyph-name="asciicircum" unicode="^" horiz-adv-x="601" 
d="M140 355l187 345h97l187 -345h-80l-155 289l-155 -289h-81z" />
    <glyph glyph-name="underscore" unicode="_" 
d="M-31 -115h449v-65h-449v65z" />
    <glyph glyph-name="grave" unicode="`" horiz-adv-x="243" 
d="M365 619h-72l-122 142h111z" />
    <glyph glyph-name="a" unicode="a" horiz-adv-x="642" 
d="M480 0l8 96c-43 -67 -102 -106 -194 -106c-122 0 -189 70 -189 188c0 179 79 362 288 362c90 0 151 -43 167 -121l39 111h66l-112 -530h-73zM194 194c0 -88 50 -129 133 -129c109 0 167 73 189 167l11 58c4 17 5 33 5 48c0 78 -43 127 -134 127
c-148 0 -204 -140 -204 -271z" />
    <glyph glyph-name="b" unicode="b" horiz-adv-x="638" 
d="M90 0l160 750h87l-67 -310c45 67 104 100 201 100c110 0 174 -76 174 -195c0 -171 -76 -355 -286 -355c-92 0 -154 54 -165 126l-38 -116h-66zM353 65c148 0 203 137 203 266c0 88 -46 134 -125 134c-112 0 -174 -74 -193 -167l-11 -57c-21 -104 25 -176 126 -176z" />
    <glyph glyph-name="c" unicode="c" horiz-adv-x="548" 
d="M520 122l-18 -84c-35 -24 -100 -48 -178 -48c-137 0 -219 76 -219 210c0 204 108 340 312 340c73 0 128 -17 154 -35l-20 -88c-27 22 -78 48 -144 48c-138 0 -213 -96 -213 -251c0 -85 49 -149 159 -149c61 0 125 26 167 57z" />
    <glyph glyph-name="d" unicode="d" horiz-adv-x="641" 
d="M478 0l10 96c-41 -68 -97 -106 -190 -106c-127 0 -193 69 -193 188c0 179 79 362 289 362c95 0 151 -46 162 -119l69 329h86l-159 -750h-74zM194 194c0 -88 49 -129 135 -129c106 0 167 73 186 167l11 57c21 103 -20 176 -126 176c-150 0 -206 -141 -206 -271z" />
    <glyph glyph-name="e" unicode="e" horiz-adv-x="573" 
d="M322 -10c-143 0 -214 78 -214 213c0 193 117 337 296 337c146 0 196 -60 196 -138c0 -101 -88 -157 -273 -157h-127c-2 -11 -5 -33 -5 -53c0 -79 43 -130 148 -130c68 0 148 23 196 65l-16 -81c-40 -31 -120 -56 -201 -56zM336 306c147 0 175 40 175 84
c0 41 -25 78 -107 78c-102 0 -165 -53 -192 -162h124z" />
    <glyph glyph-name="f" unicode="f" horiz-adv-x="394" 
d="M135 455l15 75h86l17 77c24 113 86 148 192 148c37 0 67 -5 85 -11l-17 -81c-18 10 -46 17 -79 17c-58 0 -82 -14 -97 -84l-14 -66h157l-15 -75h-158l-97 -455h-87l97 455h-85z" />
    <glyph glyph-name="g" unicode="g" horiz-adv-x="638" 
d="M260 -190c-86 0 -147 20 -181 39l20 93c24 -25 85 -57 173 -57c124 0 179 47 199 143l19 92c-41 -68 -95 -110 -189 -110c-126 0 -192 63 -192 187c0 172 74 343 283 343c95 0 153 -50 164 -123l38 113h66l-105 -497c-34 -163 -133 -223 -295 -223zM332 85
c110 0 168 78 185 162l9 44c21 104 -22 174 -127 174c-149 0 -199 -123 -199 -251c0 -89 45 -129 132 -129z" />
    <glyph glyph-name="h" unicode="h" horiz-adv-x="625" 
d="M90 0l160 750h85l-67 -316c45 67 108 106 203 106c107 0 155 -39 155 -122c0 -21 -3 -44 -9 -71l-73 -347h-87l70 330c4 20 6 41 6 55c0 60 -34 80 -110 80c-103 0 -162 -64 -180 -149l-67 -316h-86z" />
    <glyph glyph-name="i" unicode="i" horiz-adv-x="291" 
d="M188 0h-86l113 530h86zM292 638c-37 0 -56 19 -56 52s19 52 56 52c36 0 55 -19 55 -52s-19 -52 -55 -52z" />
    <glyph glyph-name="j" unicode="j" horiz-adv-x="291" 
d="M-67 -175l17 82c14 -9 35 -14 63 -14c48 0 72 22 84 80l118 557h86l-118 -556c-24 -112 -77 -159 -179 -159c-33 0 -59 4 -71 10zM292 638c-37 0 -56 19 -56 52s19 52 56 52c36 0 55 -19 55 -52s-19 -52 -55 -52z" />
    <glyph glyph-name="k" unicode="k" horiz-adv-x="566" 
d="M90 0l159 750h86l-92 -437h41l237 217h109l-279 -259l188 -271h-104l-168 238h-40l-51 -238h-86z" />
    <glyph glyph-name="l" unicode="l" horiz-adv-x="327" 
d="M220 -5c-72 0 -110 23 -110 82c0 12 2 26 5 42l135 631h86l-130 -611c-3 -12 -4 -22 -4 -30c0 -30 15 -39 53 -39c20 0 41 5 64 14l-16 -73c-16 -7 -47 -16 -83 -16z" />
    <glyph glyph-name="m" unicode="m" horiz-adv-x="896" 
d="M90 0l112 530h73l-9 -95c36 66 100 105 182 105c86 0 127 -36 125 -111c39 77 109 111 194 111c94 0 133 -39 133 -109c0 -18 -2 -37 -7 -59l-78 -372h-86l72 345c4 18 6 34 6 47c0 51 -27 73 -94 73c-80 0 -131 -52 -148 -134l-70 -331h-86l72 342c4 18 5 35 5 48
c0 55 -29 75 -89 75c-87 0 -136 -57 -152 -134l-69 -331h-86z" />
    <glyph glyph-name="n" unicode="n" horiz-adv-x="625" 
d="M90 0l113 530h73l-8 -94c47 71 114 104 201 104c102 0 157 -32 157 -122c0 -21 -3 -46 -9 -74l-73 -344h-87l69 322c5 25 7 46 7 64c0 60 -33 79 -110 79c-98 0 -161 -57 -181 -151l-66 -314h-86z" />
    <glyph glyph-name="o" unicode="o" horiz-adv-x="616" 
d="M105 194c0 209 114 346 308 346c119 0 207 -67 207 -201c0 -212 -103 -349 -289 -349c-153 0 -226 84 -226 204zM194 210c0 -88 39 -145 143 -145c134 0 194 122 194 259c0 91 -40 141 -127 141c-128 0 -210 -102 -210 -255z" />
    <glyph glyph-name="p" unicode="p" horiz-adv-x="642" 
d="M51 -180l152 710h71l-10 -95c41 68 99 105 193 105c126 0 192 -69 192 -187c0 -179 -79 -363 -288 -363c-93 0 -151 50 -163 118l-61 -288h-86zM354 65c148 0 206 142 206 272c0 88 -49 128 -134 128c-106 0 -167 -73 -187 -166l-12 -56c-22 -104 26 -178 127 -178z" />
    <glyph glyph-name="q" unicode="q" horiz-adv-x="641" 
d="M428 -180l60 277c-41 -68 -96 -107 -190 -107c-126 0 -192 71 -192 189c0 179 79 361 288 361c95 0 152 -46 166 -118l40 108h66l-151 -710h-87zM195 195c0 -88 49 -130 134 -130c106 0 171 75 189 168l12 57c22 104 -24 175 -129 175c-150 0 -206 -140 -206 -270z" />
    <glyph glyph-name="r" unicode="r" horiz-adv-x="416" 
d="M90 0l113 530h73l-6 -90c38 69 100 100 170 100c21 0 41 -3 54 -8l-20 -88c-17 14 -38 21 -71 21c-86 0 -138 -51 -161 -156l-66 -309h-86z" />
    <glyph glyph-name="s" unicode="s" horiz-adv-x="494" 
d="M66 25l20 96c31 -35 93 -59 156 -59c94 0 138 36 138 101c0 102 -239 48 -239 198c0 102 63 179 232 179c62 0 114 -13 141 -26l-19 -93c-35 31 -78 47 -135 47c-93 0 -130 -32 -130 -85c0 -101 239 -43 239 -198c0 -129 -91 -195 -242 -195c-65 0 -122 13 -161 35z" />
    <glyph glyph-name="t" unicode="t" horiz-adv-x="436" 
d="M159 149l64 306h-102l15 75h102l22 100l92 30l-28 -130h175l-16 -75h-174l-63 -299c-3 -15 -5 -27 -5 -38c0 -41 22 -48 64 -48c46 0 83 14 109 28l-16 -78c-23 -13 -70 -25 -120 -25c-85 0 -127 24 -127 96c0 17 3 35 8 58z" />
    <glyph glyph-name="u" unicode="u" horiz-adv-x="618" 
d="M122 174l76 356h87l-72 -337c-4 -19 -6 -35 -6 -49c0 -57 32 -79 102 -79c102 0 159 55 180 152l67 313h86l-113 -530h-74l7 95c-47 -74 -114 -105 -201 -105c-98 0 -146 40 -146 121c0 19 2 40 7 63z" />
    <glyph glyph-name="v" unicode="v" horiz-adv-x="536" 
d="M312 0h-88l-90 530h92l62 -428l243 428h95z" />
    <glyph glyph-name="w" unicode="w" horiz-adv-x="819" 
d="M171 0l-19 530h85l11 -430l227 430h88l46 -429l192 429h90l-247 -530h-101l-42 429l-229 -429h-101z" />
    <glyph glyph-name="x" unicode="x" horiz-adv-x="539" 
d="M27 0l244 275l-117 255h94l88 -196l172 196h101l-226 -252l128 -278h-95l-99 217l-188 -217h-102z" />
    <glyph glyph-name="y" unicode="y" horiz-adv-x="541" 
d="M66 -178l18 82c12 -9 29 -19 54 -19c41 0 71 44 111 116l-115 529h94l79 -426l227 426h96l-303 -537c-86 -153 -135 -183 -204 -183c-24 0 -44 6 -57 12z" />
    <glyph glyph-name="z" unicode="z" horiz-adv-x="514" 
d="M45 0l12 57l387 398h-297l17 75h411l-11 -57l-387 -398h308l-16 -75h-424z" />
    <glyph glyph-name="braceleft" unicode="{" horiz-adv-x="391" 
d="M310 -180h-64c-104 0 -131 59 -131 110c0 18 3 35 8 59l30 148c2 8 9 39 9 55c0 43 -28 57 -74 60l14 66c56 3 100 48 114 116l33 151c21 102 64 165 192 165h66l-14 -70h-60c-63 0 -89 -30 -104 -97l-32 -153c-15 -70 -51 -127 -127 -146c53 -12 70 -42 70 -90
c0 -14 -2 -40 -5 -55l-31 -149c-2 -14 -6 -32 -6 -43c0 -35 16 -57 65 -57h61z" />
    <glyph glyph-name="bar" unicode="|" horiz-adv-x="300" 
d="M153 -180h-81l197 930h81z" />
    <glyph glyph-name="braceright" unicode="}" horiz-adv-x="391" 
d="M4 -180l14 70h60c63 0 89 30 104 97l32 153c15 70 51 127 127 146c-53 12 -70 42 -70 90c0 14 2 40 5 55l31 149c2 14 6 32 6 43c0 35 -16 57 -65 57h-61l14 70h64c104 0 131 -59 131 -110c0 -18 -3 -35 -8 -59l-30 -148c-2 -8 -9 -39 -9 -55c0 -43 28 -57 74 -60
l-14 -66c-56 -3 -100 -48 -114 -116l-33 -151c-21 -102 -64 -165 -192 -165h-66z" />
    <glyph glyph-name="asciitilde" unicode="~" horiz-adv-x="601" 
d="M479 253c-84 0 -151 76 -214 76c-48 0 -87 -25 -111 -52v83c27 30 70 44 113 44c81 0 149 -76 220 -76c38 0 77 22 98 53v-87c-24 -26 -65 -41 -106 -41z" />
    <glyph glyph-name="uni00A0" unicode="&#xa0;" horiz-adv-x="290" 
 />
    <glyph glyph-name="exclamdown" unicode="&#xa1;" horiz-adv-x="385" 
d="M298 300l-98 -480h-94l107 480h85zM293 410c-42 0 -63 21 -63 62c0 42 21 63 63 63s63 -21 63 -63c0 -41 -21 -62 -63 -62z" />
    <glyph glyph-name="cent" unicode="&#xa2;" horiz-adv-x="601" 
d="M560 121l-19 -85c-33 -22 -94 -45 -177 -47l-23 -109h-74l24 114c-107 19 -166 94 -166 208c0 192 94 322 282 337l19 91h74l-19 -90c64 -4 108 -19 130 -34l-20 -88c-27 22 -78 48 -154 48c-148 0 -223 -94 -223 -250c0 -85 49 -152 169 -152c70 0 135 26 177 57z" />
    <glyph glyph-name="sterling" unicode="&#xa3;" horiz-adv-x="601" 
d="M146 340l13 61h94l16 75c34 156 127 234 278 234c48 0 97 -8 127 -18l-18 -81c-40 12 -73 19 -114 19c-105 0 -159 -47 -183 -158l-16 -71h180l-13 -61h-180l-56 -260h270l-17 -80h-453l16 80h94l56 260h-94z" />
    <glyph glyph-name="currency" unicode="&#xa4;" horiz-adv-x="601" 
d="M186 122l-43 43l65 68c-24 30 -40 73 -40 125s16 95 40 125l-65 69l43 44l65 -68c30 25 74 41 125 41c52 0 96 -17 125 -40l66 68l43 -44l-65 -70c22 -29 40 -73 40 -125c0 -51 -18 -95 -40 -125l65 -68l-44 -44l-64 67c-31 -24 -75 -41 -126 -41c-52 0 -96 17 -125 41z
M230 358c0 -89 67 -149 146 -149c80 0 147 60 147 149c0 87 -67 150 -147 150c-79 0 -146 -63 -146 -150z" />
    <glyph glyph-name="yen" unicode="&#xa5;" horiz-adv-x="601" 
d="M147 281l15 72h128l-120 347h96l112 -332l244 332h106l-268 -347h129l-15 -72h-169l-16 -75h169l-15 -72h-170l-28 -134h-90l28 134h-167l15 72h168l16 74l-1 1h-167z" />
    <glyph glyph-name="brokenbar" unicode="&#xa6;" horiz-adv-x="300" 
d="M72 -180l83 390h81l-83 -390h-81zM186 360l83 390h81l-83 -390h-81z" />
    <glyph glyph-name="section" unicode="&#xa7;" horiz-adv-x="511" 
d="M565 686l-16 -75c-50 22 -90 29 -131 29c-56 0 -132 -21 -132 -89c0 -30 26 -49 87 -82l53 -28c49 -25 94 -56 94 -115c0 -75 -64 -137 -122 -175c29 -24 45 -49 45 -83c0 -110 -113 -178 -234 -178c-53 0 -108 10 -150 29l16 77c49 -27 89 -36 141 -36
c75 0 138 32 138 92c0 28 -26 51 -95 88l-54 30c-49 26 -83 59 -83 112c0 79 59 133 123 169c-31 21 -48 50 -48 85c0 124 127 174 234 174c56 0 106 -14 134 -24zM296 423c-43 -26 -90 -64 -90 -118c0 -36 28 -59 77 -87l67 -38c39 30 86 72 86 124c0 32 -25 57 -71 81z
" />
    <glyph glyph-name="dieresis" unicode="&#xa8;" horiz-adv-x="303" 
d="M210 639c-35 0 -53 18 -53 51c0 34 18 51 53 51c36 0 54 -17 54 -51c0 -33 -18 -51 -54 -51zM383 639c-35 0 -53 18 -53 51c0 34 18 51 53 51c36 0 54 -17 54 -51c0 -33 -18 -51 -54 -51z" />
    <glyph glyph-name="copyright" unicode="&#xa9;" horiz-adv-x="909" 
d="M523 -55c-222 0 -378 159 -378 374c0 216 156 376 378 376c221 0 377 -160 377 -376c0 -215 -156 -374 -377 -374zM522 2c186 0 317 136 317 317c0 183 -131 318 -317 318c-184 0 -316 -135 -316 -318c0 -181 132 -317 316 -317zM536 126c-132 0 -189 75 -189 196
c0 132 67 199 190 199c35 0 64 -5 84 -12v-54c-23 9 -53 11 -77 11c-88 0 -134 -45 -134 -142c0 -102 51 -142 134 -142c25 0 54 3 79 15v-57c-22 -9 -51 -14 -87 -14z" />
    <glyph glyph-name="ordfeminine" unicode="&#xaa;" horiz-adv-x="356" 
d="M223 374c-57 0 -86 27 -86 77c0 89 71 122 160 122h75l3 16c1 9 2 15 2 20c0 28 -19 40 -69 40c-35 0 -79 -12 -107 -25l12 63c31 11 72 19 117 19c81 0 115 -26 115 -82c0 -11 -2 -24 -5 -40l-44 -204h-58l4 53c-21 -28 -58 -59 -119 -59zM254 429c54 0 94 34 103 76
l4 22h-66c-45 0 -87 -10 -87 -58c0 -29 15 -40 46 -40z" />
    <glyph glyph-name="guillemotleft" unicode="&#xab;" horiz-adv-x="571" 
d="M223 67l-97 208l179 208h89l-185 -212l96 -204h-82zM433 67l-97 208l179 208h89l-185 -212l96 -204h-82z" />
    <glyph glyph-name="logicalnot" unicode="&#xac;" horiz-adv-x="601" 
d="M154 366h431v-226h-75v151h-356v75z" />
    <glyph glyph-name="uni00AD" unicode="&#xad;" horiz-adv-x="475" 
d="M150 233l16 75h276l-16 -75h-276z" />
    <glyph glyph-name="registered" unicode="&#xae;" horiz-adv-x="600" 
d="M410 270c-149 0 -250 101 -250 247c0 147 101 248 250 248c150 0 251 -101 251 -248c0 -146 -101 -247 -251 -247zM410 313c121 0 205 84 205 205s-84 204 -205 204c-120 0 -205 -83 -205 -204s85 -205 205 -205zM313 389v269h106c38 0 93 -8 93 -83
c0 -40 -22 -68 -49 -76l68 -110h-58l-61 102h-47v-102h-52zM365 533h48c24 0 46 9 46 41c0 34 -21 40 -46 40h-48v-81z" />
    <glyph glyph-name="macron" unicode="&#xaf;" horiz-adv-x="343" 
d="M176 660v60h281v-60h-281z" />
    <glyph glyph-name="degree" unicode="&#xb0;" horiz-adv-x="400" 
d="M320 419c-88 0 -149 62 -149 146s61 145 149 145c89 0 150 -61 150 -145s-61 -146 -150 -146zM320 476c54 0 91 37 91 89s-37 89 -91 89c-53 0 -90 -37 -90 -89s37 -89 90 -89z" />
    <glyph glyph-name="plusminus" unicode="&#xb1;" horiz-adv-x="601" 
d="M339 240v166h-178v75h178v178h75v-178h178v-75h-178v-166h-75zM161 134h431v-75h-431v75z" />
    <glyph glyph-name="twosuperior" unicode="&#xb2;" 
d="M137 380l14 66l140 86c120 74 159 110 159 158c0 35 -30 52 -90 52c-43 0 -95 -9 -134 -26l14 65c49 17 96 24 143 24c100 0 148 -31 148 -96c0 -70 -55 -125 -209 -216l-82 -49v-1h242l-14 -63h-331z" />
    <glyph glyph-name="threesuperior" unicode="&#xb3;" 
d="M278 375c-42 0 -96 3 -138 20l14 64c36 -18 84 -22 131 -22c56 0 132 13 132 78c0 42 -30 55 -91 55h-79l11 53h73c49 0 115 13 115 70c0 39 -29 50 -94 50c-45 0 -97 -6 -134 -20l13 62c45 16 106 20 156 20c97 0 138 -33 138 -89c0 -69 -63 -101 -127 -116l-1 -1
c74 -11 95 -43 95 -85c0 -102 -125 -139 -214 -139z" />
    <glyph glyph-name="acute" unicode="&#xb4;" horiz-adv-x="214" 
d="M142 620l112 140h112l-153 -140h-71z" />
    <glyph glyph-name="mu" unicode="&#xb5;" horiz-adv-x="623" 
d="M138 -180h-86l151 710h86l-72 -337l-1 -5c-4 -17 -5 -32 -5 -44c0 -57 32 -79 103 -79c102 0 159 55 180 152l66 313h87l-113 -530h-74l7 95c-48 -74 -115 -105 -201 -105c-36 0 -66 8 -88 21z" />
    <glyph glyph-name="mu" unicode="&#x3bc;" horiz-adv-x="623" 
d="M138 -180h-86l151 710h86l-72 -337l-1 -5c-4 -17 -5 -32 -5 -44c0 -57 32 -79 103 -79c102 0 159 55 180 152l66 313h87l-113 -530h-74l7 95c-48 -74 -115 -105 -201 -105c-36 0 -66 8 -88 21z" />
    <glyph glyph-name="paragraph" unicode="&#xb6;" horiz-adv-x="592" 
d="M187 -180l116 550c-93 0 -136 49 -136 120c0 136 107 210 235 210h233l-186 -880h-81l171 805h-100l-171 -805h-81z" />
    <glyph glyph-name="periodcentered" unicode="&#xb7;" horiz-adv-x="323" 
d="M236 288c-43 0 -64 21 -64 63c0 41 21 62 64 62c42 0 63 -21 63 -62c0 -42 -21 -63 -63 -63z" />
    <glyph glyph-name="cedilla" unicode="&#xb8;" horiz-adv-x="207" 
d="M21 -89l33 89h50l-18 -48c51 -1 86 -16 86 -60c0 -67 -63 -114 -131 -114c-33 0 -56 6 -75 16l17 45c18 -8 32 -13 56 -13c30 0 66 19 66 56c0 24 -27 30 -51 30c-9 0 -24 0 -33 -1z" />
    <glyph glyph-name="onesuperior" unicode="&#xb9;" 
d="M307 380l72 340l-135 -64l-17 55l185 89h59l-89 -420h-75z" />
    <glyph glyph-name="ordmasculine" unicode="&#xba;" horiz-adv-x="403" 
d="M147 493c0 115 51 213 200 213c87 0 139 -44 139 -119c0 -134 -69 -213 -202 -213c-82 0 -137 45 -137 119zM337 650c-87 0 -119 -64 -119 -146c0 -57 36 -74 81 -74c73 0 117 56 117 146c0 55 -34 74 -79 74z" />
    <glyph glyph-name="guillemotright" unicode="&#xbb;" horiz-adv-x="571" 
d="M83 67l184 216l-95 200h82l97 -206l-180 -210h-88zM293 67l184 216l-95 200h82l97 -206l-180 -210h-88z" />
    <glyph glyph-name="onequarter" unicode="&#xbc;" horiz-adv-x="950" 
d="M260 0h-83l629 700h84zM228 280l72 340l-135 -64l-17 55l185 89h59l-89 -420h-75zM525 95l11 57l308 268h87l-57 -265h55l-12 -60h-55l-20 -95h-70l20 95h-267zM805 155l42 200h-1l-230 -200h189z" />
    <glyph glyph-name="onehalf" unicode="&#xbd;" horiz-adv-x="950" 
d="M230 0h-83l629 700h84zM228 280l72 340l-135 -64l-17 55l185 89h59l-89 -420h-75zM583 0l14 66l140 86c120 74 159 110 159 158c0 35 -30 52 -90 52c-43 0 -95 -9 -134 -26l14 65c49 17 96 24 143 24c100 0 148 -31 148 -96c0 -70 -55 -125 -209 -216l-82 -49v-1h242
l-14 -63h-331z" />
    <glyph glyph-name="threequarters" unicode="&#xbe;" horiz-adv-x="950" 
d="M300 0h-83l629 700h84zM243 275c-42 0 -96 3 -138 20l14 64c36 -18 84 -22 131 -22c56 0 132 13 132 78c0 42 -30 55 -91 55h-79l11 53h73c49 0 115 13 115 70c0 39 -29 50 -94 50c-45 0 -97 -6 -134 -20l13 62c45 16 106 20 156 20c97 0 138 -33 138 -89
c0 -69 -63 -101 -127 -116l-1 -1c74 -11 95 -43 95 -85c0 -102 -125 -139 -214 -139zM525 95l11 57l308 268h87l-57 -265h55l-12 -60h-55l-20 -95h-70l20 95h-267zM805 155l42 200h-1l-230 -200h189z" />
    <glyph glyph-name="questiondown" unicode="&#xbf;" horiz-adv-x="549" 
d="M229 -190c-125 0 -190 55 -190 150c0 233 254 191 283 340h85c-37 -195 -271 -147 -271 -319c0 -58 37 -91 117 -91c76 0 126 21 173 46l-19 -92c-52 -21 -115 -34 -178 -34zM399 410c-42 0 -63 21 -63 62c0 42 21 63 63 63s63 -21 63 -63c0 -41 -21 -62 -63 -62z" />
    <glyph glyph-name="Agrave" unicode="&#xc0;" horiz-adv-x="671" 
d="M25 0l410 700h99l112 -700h-91l-28 187h-300l-107 -187h-95zM465 600l-193 -335h243zM465 777l-90 140h110l51 -140h-71z" />
    <glyph glyph-name="Aacute" unicode="&#xc1;" horiz-adv-x="671" 
d="M25 0l410 700h99l112 -700h-91l-28 187h-300l-107 -187h-95zM465 600l-193 -335h243zM462 765l122 150h114l-163 -150h-73z" />
    <glyph glyph-name="Acircumflex" unicode="&#xc2;" horiz-adv-x="671" 
d="M25 0l410 700h99l112 -700h-91l-28 187h-300l-107 -187h-95zM465 600l-193 -335h243zM328 765l154 150h96l91 -150h-71l-75 101l-118 -101h-77z" />
    <glyph glyph-name="Atilde" unicode="&#xc3;" horiz-adv-x="671" 
d="M25 0l410 700h99l112 -700h-91l-28 187h-300l-107 -187h-95zM465 600l-193 -335h243zM407 788l-52 11c5 59 42 94 90 94c26 0 46 -11 75 -24c27 -12 42 -22 60 -22s34 13 41 44l50 -11c-6 -60 -45 -93 -88 -93c-24 0 -37 5 -76 23c-25 12 -40 23 -57 23
c-18 0 -36 -12 -43 -45z" />
    <glyph glyph-name="Adieresis" unicode="&#xc4;" horiz-adv-x="671" 
d="M25 0l410 700h99l112 -700h-91l-28 187h-300l-107 -187h-95zM465 600l-193 -335h243zM412 787c-36 0 -55 19 -55 53s19 53 55 53c37 0 55 -19 55 -53s-18 -53 -55 -53zM613 787c-36 0 -55 19 -55 53s19 53 55 53c37 0 55 -19 55 -53s-18 -53 -55 -53z" />
    <glyph glyph-name="Aring" unicode="&#xc5;" horiz-adv-x="671" 
d="M25 0l410 700h99l112 -700h-91l-28 187h-300l-107 -187h-95zM465 600l-193 -335h243zM513 741c-58 0 -99 41 -99 99s41 99 99 99s99 -41 99 -99s-41 -99 -99 -99zM513 790c32 0 50 18 50 50s-18 50 -50 50c-31 0 -50 -18 -50 -50s19 -50 50 -50z" />
    <glyph glyph-name="AE" unicode="&#xc6;" horiz-adv-x="984" 
d="M487 0l40 187h-258l-149 -187h-95l562 700h479l-17 -80h-340l-47 -223h310l-17 -77h-311l-50 -240h340l-17 -80h-430zM332 265h211l77 360z" />
    <glyph glyph-name="Ccedilla" unicode="&#xc7;" horiz-adv-x="644" 
d="M351 -239c-39 0 -62 6 -81 16l17 47c19 -9 37 -13 63 -13c35 0 72 18 72 58c0 27 -29 35 -57 35c-9 0 -25 0 -34 -2l31 89c-149 9 -240 85 -240 253c0 113 47 281 144 374c68 64 154 92 261 92c85 0 144 -20 182 -40l-20 -91c-45 33 -97 51 -170 51
c-83 0 -142 -20 -196 -75c-63 -66 -105 -193 -105 -303c0 -127 70 -183 196 -183c78 0 147 27 187 48l-19 -90c-42 -17 -99 -35 -167 -37l-16 -44c55 0 95 -19 95 -65c0 -76 -73 -120 -143 -120z" />
    <glyph glyph-name="Egrave" unicode="&#xc8;" horiz-adv-x="602" 
d="M105 0l149 700h430l-17 -80h-340l-47 -223h310l-17 -77h-310l-51 -240h340l-17 -80h-430zM450 777l-90 140h110l51 -140h-71z" />
    <glyph glyph-name="Eacute" unicode="&#xc9;" horiz-adv-x="602" 
d="M105 0l149 700h430l-17 -80h-340l-47 -223h310l-17 -77h-310l-51 -240h340l-17 -80h-430zM447 765l122 150h114l-163 -150h-73z" />
    <glyph glyph-name="Ecircumflex" unicode="&#xca;" horiz-adv-x="602" 
d="M105 0l149 700h430l-17 -80h-340l-47 -223h310l-17 -77h-310l-51 -240h340l-17 -80h-430zM313 765l154 150h96l91 -150h-71l-75 101l-118 -101h-77z" />
    <glyph glyph-name="Edieresis" unicode="&#xcb;" horiz-adv-x="602" 
d="M105 0l149 700h430l-17 -80h-340l-47 -223h310l-17 -77h-310l-51 -240h340l-17 -80h-430zM397 787c-36 0 -55 19 -55 53s19 53 55 53c37 0 55 -19 55 -53s-18 -53 -55 -53zM598 787c-36 0 -55 19 -55 53s19 53 55 53c37 0 55 -19 55 -53s-18 -53 -55 -53z" />
    <glyph glyph-name="Igrave" unicode="&#xcc;" horiz-adv-x="310" 
d="M110 0l149 700h90l-149 -700h-90zM286 777l-90 140h110l51 -140h-71z" />
    <glyph glyph-name="Iacute" unicode="&#xcd;" horiz-adv-x="310" 
d="M110 0l149 700h90l-149 -700h-90zM282 765l122 150h114l-163 -150h-73z" />
    <glyph glyph-name="Icircumflex" unicode="&#xce;" horiz-adv-x="310" 
d="M110 0l149 700h90l-149 -700h-90zM148 765l154 150h96l91 -150h-71l-75 101l-118 -101h-77z" />
    <glyph glyph-name="Idieresis" unicode="&#xcf;" horiz-adv-x="310" 
d="M110 0l149 700h90l-149 -700h-90zM233 787c-36 0 -55 19 -55 53s19 53 55 53c37 0 55 -19 55 -53s-18 -53 -55 -53zM434 787c-36 0 -55 19 -55 53s19 53 55 53c37 0 55 -19 55 -53s-18 -53 -55 -53z" />
    <glyph glyph-name="Eth" unicode="&#xd0;" horiz-adv-x="743" 
d="M89 325l15 70h94l65 304c64 4 122 6 206 6c178 0 295 -75 295 -254c0 -159 -55 -298 -137 -366s-181 -90 -326 -90c-78 0 -133 3 -186 7l68 323h-94zM221 79c35 -4 58 -4 90 -4c106 0 185 12 245 63c65 54 112 158 112 302c0 139 -85 185 -218 185c-43 0 -73 -1 -114 -4
l-48 -226h184l-15 -70h-184z" />
    <glyph glyph-name="Ntilde" unicode="&#xd1;" horiz-adv-x="764" 
d="M105 0l149 700h92l208 -469c17 -39 31 -70 46 -113c6 43 10 74 18 113l100 469h90l-149 -700h-92l-208 468c-18 40 -30 70 -45 114c-6 -44 -11 -74 -19 -114l-99 -468h-91zM454 788l-52 11c5 59 42 94 90 94c26 0 46 -11 75 -24c27 -12 42 -22 60 -22s34 13 41 44l50 -11
c-6 -60 -45 -93 -88 -93c-24 0 -37 5 -76 23c-25 12 -40 23 -57 23c-18 0 -36 -12 -43 -45z" />
    <glyph glyph-name="Ograve" unicode="&#xd2;" horiz-adv-x="773" 
d="M397 -10c-167 0 -271 100 -271 267c0 132 49 290 154 377c72 60 151 76 249 76c169 0 266 -96 266 -266c0 -149 -60 -305 -152 -378c-73 -57 -155 -76 -246 -76zM411 70c79 0 136 20 181 64c72 71 107 195 107 299c0 129 -59 197 -190 197c-66 0 -116 -13 -162 -50
c-87 -69 -125 -211 -125 -315c0 -125 63 -195 189 -195zM517 777l-90 140h110l51 -140h-71z" />
    <glyph glyph-name="Oacute" unicode="&#xd3;" horiz-adv-x="773" 
d="M397 -10c-167 0 -271 100 -271 267c0 132 49 290 154 377c72 60 151 76 249 76c169 0 266 -96 266 -266c0 -149 -60 -305 -152 -378c-73 -57 -155 -76 -246 -76zM411 70c79 0 136 20 181 64c72 71 107 195 107 299c0 129 -59 197 -190 197c-66 0 -116 -13 -162 -50
c-87 -69 -125 -211 -125 -315c0 -125 63 -195 189 -195zM513 765l122 150h114l-163 -150h-73z" />
    <glyph glyph-name="Ocircumflex" unicode="&#xd4;" horiz-adv-x="773" 
d="M397 -10c-167 0 -271 100 -271 267c0 132 49 290 154 377c72 60 151 76 249 76c169 0 266 -96 266 -266c0 -149 -60 -305 -152 -378c-73 -57 -155 -76 -246 -76zM411 70c79 0 136 20 181 64c72 71 107 195 107 299c0 129 -59 197 -190 197c-66 0 -116 -13 -162 -50
c-87 -69 -125 -211 -125 -315c0 -125 63 -195 189 -195zM379 765l154 150h96l91 -150h-71l-75 101l-118 -101h-77z" />
    <glyph glyph-name="Otilde" unicode="&#xd5;" horiz-adv-x="773" 
d="M397 -10c-167 0 -271 100 -271 267c0 132 49 290 154 377c72 60 151 76 249 76c169 0 266 -96 266 -266c0 -149 -60 -305 -152 -378c-73 -57 -155 -76 -246 -76zM411 70c79 0 136 20 181 64c72 71 107 195 107 299c0 129 -59 197 -190 197c-66 0 -116 -13 -162 -50
c-87 -69 -125 -211 -125 -315c0 -125 63 -195 189 -195zM459 788l-52 11c5 59 42 94 90 94c26 0 46 -11 75 -24c27 -12 42 -22 60 -22s34 13 41 44l50 -11c-6 -60 -45 -93 -88 -93c-24 0 -37 5 -76 23c-25 12 -40 23 -57 23c-18 0 -36 -12 -43 -45z" />
    <glyph glyph-name="Odieresis" unicode="&#xd6;" horiz-adv-x="773" 
d="M397 -10c-167 0 -271 100 -271 267c0 132 49 290 154 377c72 60 151 76 249 76c169 0 266 -96 266 -266c0 -149 -60 -305 -152 -378c-73 -57 -155 -76 -246 -76zM411 70c79 0 136 20 181 64c72 71 107 195 107 299c0 129 -59 197 -190 197c-66 0 -116 -13 -162 -50
c-87 -69 -125 -211 -125 -315c0 -125 63 -195 189 -195zM464 787c-36 0 -55 19 -55 53s19 53 55 53c37 0 55 -19 55 -53s-18 -53 -55 -53zM665 787c-36 0 -55 19 -55 53s19 53 55 53c37 0 55 -19 55 -53s-18 -53 -55 -53z" />
    <glyph glyph-name="multiply" unicode="&#xd7;" horiz-adv-x="601" 
d="M234 141l-52 52l135 136l-135 135l52 53l136 -136l135 136l53 -53l-136 -135l136 -136l-53 -52l-135 135z" />
    <glyph glyph-name="Oslash" unicode="&#xd8;" horiz-adv-x="773" 
d="M397 -10c-77 0 -141 20 -187 59l-82 -85l-41 35l87 90c-31 43 -48 100 -48 168c0 132 49 290 154 377c72 60 151 76 249 76c79 0 143 -20 188 -61l79 82l40 -36l-84 -87c28 -42 43 -98 43 -164c0 -149 -60 -305 -152 -378c-73 -57 -155 -76 -246 -76zM222 265
c0 -42 6 -77 20 -106l409 423c-31 32 -78 48 -142 48c-66 0 -116 -13 -162 -50c-87 -69 -125 -211 -125 -315zM411 70c79 0 136 20 181 64c71 72 107 195 107 299c0 40 -6 74 -18 102l-407 -420c31 -30 77 -45 137 -45z" />
    <glyph glyph-name="Ugrave" unicode="&#xd9;" horiz-adv-x="735" 
d="M368 -10c-129 0 -218 61 -218 190c0 33 7 86 20 148l79 372h90l-81 -379c-13 -60 -18 -106 -18 -130c0 -91 56 -121 141 -121c138 0 191 54 223 203l90 427h91l-92 -428c-43 -203 -128 -282 -325 -282zM499 777l-90 140h110l51 -140h-71z" />
    <glyph glyph-name="Uacute" unicode="&#xda;" horiz-adv-x="735" 
d="M368 -10c-129 0 -218 61 -218 190c0 33 7 86 20 148l79 372h90l-81 -379c-13 -60 -18 -106 -18 -130c0 -91 56 -121 141 -121c138 0 191 54 223 203l90 427h91l-92 -428c-43 -203 -128 -282 -325 -282zM494 765l122 150h114l-163 -150h-73z" />
    <glyph glyph-name="Ucircumflex" unicode="&#xdb;" horiz-adv-x="735" 
d="M368 -10c-129 0 -218 61 -218 190c0 33 7 86 20 148l79 372h90l-81 -379c-13 -60 -18 -106 -18 -130c0 -91 56 -121 141 -121c138 0 191 54 223 203l90 427h91l-92 -428c-43 -203 -128 -282 -325 -282zM360 765l154 150h96l91 -150h-71l-75 101l-118 -101h-77z" />
    <glyph glyph-name="Udieresis" unicode="&#xdc;" horiz-adv-x="735" 
d="M368 -10c-129 0 -218 61 -218 190c0 33 7 86 20 148l79 372h90l-81 -379c-13 -60 -18 -106 -18 -130c0 -91 56 -121 141 -121c138 0 191 54 223 203l90 427h91l-92 -428c-43 -203 -128 -282 -325 -282zM445 787c-36 0 -55 19 -55 53s19 53 55 53c37 0 55 -19 55 -53
s-18 -53 -55 -53zM646 787c-36 0 -55 19 -55 53s19 53 55 53c37 0 55 -19 55 -53s-18 -53 -55 -53z" />
    <glyph glyph-name="Yacute" unicode="&#xdd;" horiz-adv-x="618" 
d="M264 0l58 273l-152 427h96l118 -334l257 334h105l-333 -427l-59 -273h-90zM434 765l122 150h114l-163 -150h-73z" />
    <glyph glyph-name="Thorn" unicode="&#xde;" horiz-adv-x="636" 
d="M105 0l148 700h90l-22 -106c30 1 65 3 102 3c168 0 237 -68 237 -183c0 -215 -128 -290 -339 -290c-42 0 -72 1 -99 3l-27 -127h-90zM239 207c29 -2 58 -3 98 -3c146 0 226 43 226 195c0 71 -34 118 -156 118c-36 0 -67 -1 -103 -4z" />
    <glyph glyph-name="germandbls" unicode="&#xdf;" horiz-adv-x="632" 
d="M91 0l105 499c34 161 115 261 293 261c98 0 170 -41 170 -137s-56 -183 -151 -213l-1 -3c75 -10 113 -56 113 -131c0 -151 -112 -287 -269 -287c-30 0 -58 3 -81 11l15 75c19 -6 41 -10 69 -10c114 0 177 99 177 203c0 78 -53 97 -118 97h-51l16 72h43
c88 0 148 80 148 163c0 55 -37 85 -102 85c-113 0 -162 -79 -183 -178l-107 -507h-86z" />
    <glyph glyph-name="agrave" unicode="&#xe0;" horiz-adv-x="642" 
d="M480 0l8 96c-43 -67 -102 -106 -194 -106c-122 0 -189 70 -189 188c0 179 79 362 288 362c90 0 151 -43 167 -121l39 111h66l-112 -530h-73zM194 194c0 -88 50 -129 133 -129c109 0 167 73 189 167l11 58c4 17 5 33 5 48c0 78 -43 127 -134 127
c-148 0 -204 -140 -204 -271zM471 619h-72l-122 142h111z" />
    <glyph glyph-name="aacute" unicode="&#xe1;" horiz-adv-x="642" 
d="M480 0l8 96c-43 -67 -102 -106 -194 -106c-122 0 -189 70 -189 188c0 179 79 362 288 362c90 0 151 -43 167 -121l39 111h66l-112 -530h-73zM194 194c0 -88 50 -129 133 -129c109 0 167 73 189 167l11 58c4 17 5 33 5 48c0 78 -43 127 -134 127
c-148 0 -204 -140 -204 -271zM399 620l112 140h112l-153 -140h-71z" />
    <glyph glyph-name="acircumflex" unicode="&#xe2;" horiz-adv-x="642" 
d="M480 0l8 96c-43 -67 -102 -106 -194 -106c-122 0 -189 70 -189 188c0 179 79 362 288 362c90 0 151 -43 167 -121l39 111h66l-112 -530h-73zM194 194c0 -88 50 -129 133 -129c109 0 167 73 189 167l11 58c4 17 5 33 5 48c0 78 -43 127 -134 127
c-148 0 -204 -140 -204 -271zM277 620l140 140h93l81 -140h-69l-65 92l-104 -92h-76z" />
    <glyph glyph-name="atilde" unicode="&#xe3;" horiz-adv-x="642" 
d="M480 0l8 96c-43 -67 -102 -106 -194 -106c-122 0 -189 70 -189 188c0 179 79 362 288 362c90 0 151 -43 167 -121l39 111h66l-112 -530h-73zM194 194c0 -88 50 -129 133 -129c109 0 167 73 189 167l11 58c4 17 5 33 5 48c0 78 -43 127 -134 127
c-148 0 -204 -140 -204 -271zM348 638l-51 11c4 59 37 94 85 94c25 0 45 -11 74 -24c27 -12 42 -21 60 -21s30 12 36 44l51 -12c-6 -60 -41 -93 -84 -93c-23 0 -37 5 -76 24c-25 11 -38 22 -57 22c-17 0 -31 -12 -38 -45z" />
    <glyph glyph-name="adieresis" unicode="&#xe4;" horiz-adv-x="642" 
d="M480 0l8 96c-43 -67 -102 -106 -194 -106c-122 0 -189 70 -189 188c0 179 79 362 288 362c90 0 151 -43 167 -121l39 111h66l-112 -530h-73zM194 194c0 -88 50 -129 133 -129c109 0 167 73 189 167l11 58c4 17 5 33 5 48c0 78 -43 127 -134 127
c-148 0 -204 -140 -204 -271zM362 639c-35 0 -53 18 -53 51c0 34 18 51 53 51c36 0 54 -17 54 -51c0 -33 -18 -51 -54 -51zM535 639c-35 0 -53 18 -53 51c0 34 18 51 53 51c36 0 54 -17 54 -51c0 -33 -18 -51 -54 -51z" />
    <glyph glyph-name="aring" unicode="&#xe5;" horiz-adv-x="642" 
d="M480 0l8 96c-43 -67 -102 -106 -194 -106c-122 0 -189 70 -189 188c0 179 79 362 288 362c90 0 151 -43 167 -121l39 111h66l-112 -530h-73zM194 194c0 -88 50 -129 133 -129c109 0 167 73 189 167l11 58c4 17 5 33 5 48c0 78 -43 127 -134 127
c-148 0 -204 -140 -204 -271zM448 593c-58 0 -97 39 -97 97s39 97 97 97s97 -39 97 -97s-39 -97 -97 -97zM448 642c30 0 49 18 49 48s-19 49 -49 49s-48 -19 -48 -49s18 -48 48 -48z" />
    <glyph glyph-name="ae" unicode="&#xe6;" horiz-adv-x="908" 
d="M659 244h-126c-2 -19 -2 -38 -2 -53c0 -86 51 -130 152 -130c70 0 144 32 190 66l-16 -82c-33 -23 -103 -55 -178 -55c-94 0 -175 20 -214 110c-53 -66 -114 -110 -238 -110c-95 0 -148 47 -148 122c0 151 111 194 262 194h119c6 26 15 52 15 86c0 55 -37 76 -112 76
c-66 0 -142 -28 -183 -57l19 91c41 20 119 37 184 38c12 0 23 0 34 -1c78 -4 119 -27 133 -75c51 53 119 76 200 76c126 0 184 -55 184 -139c0 -107 -96 -157 -275 -157zM734 468c-94 0 -161 -53 -188 -163h123c121 0 179 26 179 82c0 60 -56 81 -114 81zM336 245
c-92 0 -166 -16 -166 -111c0 -46 33 -73 96 -73c96 0 157 59 174 144l8 40h-112z" />
    <glyph glyph-name="ccedilla" unicode="&#xe7;" horiz-adv-x="548" 
d="M272 -89l29 79c-123 8 -196 84 -196 211c0 204 108 339 312 339c73 0 128 -17 154 -35l-20 -88c-27 22 -78 48 -144 48c-138 0 -213 -95 -213 -250c0 -85 49 -151 159 -151c61 0 125 26 167 57l-18 -84c-31 -21 -85 -42 -151 -47l-14 -38c51 -1 86 -16 86 -60
c0 -67 -63 -114 -131 -114c-33 0 -56 6 -75 16l17 45c18 -8 32 -13 56 -13c30 0 66 19 66 56c0 24 -27 30 -51 30c-9 0 -24 0 -33 -1z" />
    <glyph glyph-name="egrave" unicode="&#xe8;" horiz-adv-x="573" 
d="M322 -10c-143 0 -214 78 -214 213c0 193 117 337 296 337c146 0 196 -60 196 -138c0 -101 -88 -157 -273 -157h-127c-2 -11 -5 -33 -5 -53c0 -79 43 -130 148 -130c68 0 148 23 196 65l-16 -81c-40 -31 -120 -56 -201 -56zM336 306c147 0 175 40 175 84
c0 41 -25 78 -107 78c-102 0 -165 -53 -192 -162h124zM454 619h-72l-122 142h111z" />
    <glyph glyph-name="eacute" unicode="&#xe9;" horiz-adv-x="573" 
d="M322 -10c-143 0 -214 78 -214 213c0 193 117 337 296 337c146 0 196 -60 196 -138c0 -101 -88 -157 -273 -157h-127c-2 -11 -5 -33 -5 -53c0 -79 43 -130 148 -130c68 0 148 23 196 65l-16 -81c-40 -31 -120 -56 -201 -56zM336 306c147 0 175 40 175 84
c0 41 -25 78 -107 78c-102 0 -165 -53 -192 -162h124zM382 620l112 140h112l-153 -140h-71z" />
    <glyph glyph-name="ecircumflex" unicode="&#xea;" horiz-adv-x="573" 
d="M322 -10c-143 0 -214 78 -214 213c0 193 117 337 296 337c146 0 196 -60 196 -138c0 -101 -88 -157 -273 -157h-127c-2 -11 -5 -33 -5 -53c0 -79 43 -130 148 -130c68 0 148 23 196 65l-16 -81c-40 -31 -120 -56 -201 -56zM336 306c147 0 175 40 175 84
c0 41 -25 78 -107 78c-102 0 -165 -53 -192 -162h124zM260 620l140 140h93l81 -140h-69l-65 92l-104 -92h-76z" />
    <glyph glyph-name="edieresis" unicode="&#xeb;" horiz-adv-x="573" 
d="M322 -10c-143 0 -214 78 -214 213c0 193 117 337 296 337c146 0 196 -60 196 -138c0 -101 -88 -157 -273 -157h-127c-2 -11 -5 -33 -5 -53c0 -79 43 -130 148 -130c68 0 148 23 196 65l-16 -81c-40 -31 -120 -56 -201 -56zM336 306c147 0 175 40 175 84
c0 41 -25 78 -107 78c-102 0 -165 -53 -192 -162h124zM345 639c-35 0 -53 18 -53 51c0 34 18 51 53 51c36 0 54 -17 54 -51c0 -33 -18 -51 -54 -51zM518 639c-35 0 -53 18 -53 51c0 34 18 51 53 51c36 0 54 -17 54 -51c0 -33 -18 -51 -54 -51z" />
    <glyph glyph-name="igrave" unicode="&#xec;" horiz-adv-x="291" 
d="M188 0h-86l113 530h86zM313 619h-72l-122 142h111z" />
    <glyph glyph-name="iacute" unicode="&#xed;" horiz-adv-x="291" 
d="M188 0h-86l113 530h86zM243 620l112 140h112l-153 -140h-71z" />
    <glyph glyph-name="icircumflex" unicode="&#xee;" horiz-adv-x="291" 
d="M188 0h-86l113 530h86zM120 620l140 140h93l81 -140h-69l-65 92l-104 -92h-76z" />
    <glyph glyph-name="idieresis" unicode="&#xef;" horiz-adv-x="291" 
d="M188 0h-86l113 530h86zM204 639c-35 0 -53 18 -53 51c0 34 18 51 53 51c36 0 54 -17 54 -51c0 -33 -18 -51 -54 -51zM377 639c-35 0 -53 18 -53 51c0 34 18 51 53 51c36 0 54 -17 54 -51c0 -33 -18 -51 -54 -51z" />
    <glyph glyph-name="eth" unicode="&#xf0;" horiz-adv-x="591" 
d="M314 565l-16 42l110 51c-35 23 -77 40 -123 51l39 60c64 -15 119 -40 163 -74l143 66l16 -43l-122 -56c61 -64 94 -150 94 -255c0 -257 -126 -417 -321 -417c-128 0 -196 62 -196 179c0 207 122 351 292 351c59 0 111 -30 136 -77l3 2c-2 71 -33 134 -84 182zM314 65
c117 0 208 115 208 264c0 77 -43 119 -126 119c-120 0 -206 -106 -206 -262c0 -85 49 -121 124 -121z" />
    <glyph glyph-name="ntilde" unicode="&#xf1;" horiz-adv-x="625" 
d="M90 0l113 530h73l-8 -94c47 71 114 104 201 104c102 0 157 -32 157 -122c0 -21 -3 -46 -9 -74l-73 -344h-87l69 322c5 25 7 46 7 64c0 60 -33 79 -110 79c-98 0 -161 -57 -181 -151l-66 -314h-86zM360 638l-51 11c4 59 37 94 85 94c25 0 45 -11 74 -24
c27 -12 42 -21 60 -21s30 12 36 44l51 -12c-6 -60 -41 -93 -84 -93c-23 0 -37 5 -76 24c-25 11 -38 22 -57 22c-17 0 -31 -12 -38 -45z" />
    <glyph glyph-name="ograve" unicode="&#xf2;" horiz-adv-x="616" 
d="M105 194c0 209 114 346 308 346c119 0 207 -67 207 -201c0 -212 -103 -349 -289 -349c-153 0 -226 84 -226 204zM194 210c0 -88 39 -145 143 -145c134 0 194 122 194 259c0 91 -40 141 -127 141c-128 0 -210 -102 -210 -255zM474 619h-72l-122 142h111z" />
    <glyph glyph-name="oacute" unicode="&#xf3;" horiz-adv-x="616" 
d="M105 194c0 209 114 346 308 346c119 0 207 -67 207 -201c0 -212 -103 -349 -289 -349c-153 0 -226 84 -226 204zM194 210c0 -88 39 -145 143 -145c134 0 194 122 194 259c0 91 -40 141 -127 141c-128 0 -210 -102 -210 -255zM404 620l112 140h112l-153 -140h-71z" />
    <glyph glyph-name="ocircumflex" unicode="&#xf4;" horiz-adv-x="616" 
d="M105 194c0 209 114 346 308 346c119 0 207 -67 207 -201c0 -212 -103 -349 -289 -349c-153 0 -226 84 -226 204zM194 210c0 -88 39 -145 143 -145c134 0 194 122 194 259c0 91 -40 141 -127 141c-128 0 -210 -102 -210 -255zM280 620l140 140h93l81 -140h-69l-65 92
l-104 -92h-76z" />
    <glyph glyph-name="otilde" unicode="&#xf5;" horiz-adv-x="616" 
d="M105 194c0 209 114 346 308 346c119 0 207 -67 207 -201c0 -212 -103 -349 -289 -349c-153 0 -226 84 -226 204zM194 210c0 -88 39 -145 143 -145c134 0 194 122 194 259c0 91 -40 141 -127 141c-128 0 -210 -102 -210 -255zM351 638l-51 11c4 59 37 94 85 94
c25 0 45 -11 74 -24c27 -12 42 -21 60 -21s30 12 36 44l51 -12c-6 -60 -41 -93 -84 -93c-23 0 -37 5 -76 24c-25 11 -38 22 -57 22c-17 0 -31 -12 -38 -45z" />
    <glyph glyph-name="odieresis" unicode="&#xf6;" horiz-adv-x="616" 
d="M105 194c0 209 114 346 308 346c119 0 207 -67 207 -201c0 -212 -103 -349 -289 -349c-153 0 -226 84 -226 204zM194 210c0 -88 39 -145 143 -145c134 0 194 122 194 259c0 91 -40 141 -127 141c-128 0 -210 -102 -210 -255zM365 639c-35 0 -53 18 -53 51
c0 34 18 51 53 51c36 0 54 -17 54 -51c0 -33 -18 -51 -54 -51zM538 639c-35 0 -53 18 -53 51c0 34 18 51 53 51c36 0 54 -17 54 -51c0 -33 -18 -51 -54 -51z" />
    <glyph glyph-name="divide" unicode="&#xf7;" horiz-adv-x="601" 
d="M154 366h431v-75h-431v75zM370 100c-43 0 -64 21 -64 63c0 41 21 62 64 62c42 0 63 -21 63 -62c0 -42 -21 -63 -63 -63zM370 432c-43 0 -64 21 -64 63c0 41 21 62 64 62c42 0 63 -21 63 -62c0 -42 -21 -63 -63 -63z" />
    <glyph glyph-name="oslash" unicode="&#xf8;" horiz-adv-x="618" 
d="M107 194c0 209 114 346 308 346c56 0 104 -15 141 -44l65 69l36 -32l-69 -71c22 -31 34 -71 34 -121c0 -212 -103 -351 -289 -351c-68 0 -120 15 -157 44l-67 -69l-36 31l70 72c-24 33 -36 77 -36 126zM533 326c0 26 -4 49 -11 68l-286 -299c23 -20 56 -30 103 -30
c134 0 194 124 194 261zM196 210c0 -28 4 -55 12 -75l288 300c-21 20 -50 30 -90 30c-128 0 -210 -102 -210 -255z" />
    <glyph glyph-name="ugrave" unicode="&#xf9;" horiz-adv-x="618" 
d="M122 174l76 356h87l-72 -337c-4 -19 -6 -35 -6 -49c0 -57 32 -79 102 -79c102 0 159 55 180 152l67 313h86l-113 -530h-74l7 95c-47 -74 -114 -105 -201 -105c-98 0 -146 40 -146 121c0 19 2 40 7 63zM473 619h-72l-122 142h111z" />
    <glyph glyph-name="uacute" unicode="&#xfa;" horiz-adv-x="618" 
d="M122 174l76 356h87l-72 -337c-4 -19 -6 -35 -6 -49c0 -57 32 -79 102 -79c102 0 159 55 180 152l67 313h86l-113 -530h-74l7 95c-47 -74 -114 -105 -201 -105c-98 0 -146 40 -146 121c0 19 2 40 7 63zM404 620l112 140h112l-153 -140h-71z" />
    <glyph glyph-name="ucircumflex" unicode="&#xfb;" horiz-adv-x="618" 
d="M122 174l76 356h87l-72 -337c-4 -19 -6 -35 -6 -49c0 -57 32 -79 102 -79c102 0 159 55 180 152l67 313h86l-113 -530h-74l7 95c-47 -74 -114 -105 -201 -105c-98 0 -146 40 -146 121c0 19 2 40 7 63zM280 620l140 140h93l81 -140h-69l-65 92l-104 -92h-76z" />
    <glyph glyph-name="udieresis" unicode="&#xfc;" horiz-adv-x="618" 
d="M122 174l76 356h87l-72 -337c-4 -19 -6 -35 -6 -49c0 -57 32 -79 102 -79c102 0 159 55 180 152l67 313h86l-113 -530h-74l7 95c-47 -74 -114 -105 -201 -105c-98 0 -146 40 -146 121c0 19 2 40 7 63zM365 639c-35 0 -53 18 -53 51c0 34 18 51 53 51c36 0 54 -17 54 -51
c0 -33 -18 -51 -54 -51zM538 639c-35 0 -53 18 -53 51c0 34 18 51 53 51c36 0 54 -17 54 -51c0 -33 -18 -51 -54 -51z" />
    <glyph glyph-name="yacute" unicode="&#xfd;" horiz-adv-x="541" 
d="M66 -178l18 82c12 -9 29 -19 54 -19c41 0 71 44 111 116l-115 529h94l79 -426l227 426h96l-303 -537c-86 -153 -135 -183 -204 -183c-24 0 -44 6 -57 12zM367 620l112 140h112l-153 -140h-71z" />
    <glyph glyph-name="thorn" unicode="&#xfe;" horiz-adv-x="642" 
d="M51 -180l199 930h86l-68 -316c41 68 94 106 187 106c127 0 193 -70 193 -188c0 -179 -78 -362 -286 -362c-94 0 -152 49 -164 117l-61 -287h-86zM358 65c144 0 201 141 201 269c0 90 -49 131 -130 131c-110 0 -171 -74 -190 -167l-12 -56c-23 -104 27 -177 131 -177z" />
    <glyph glyph-name="ydieresis" unicode="&#xff;" horiz-adv-x="541" 
d="M66 -178l18 82c12 -9 29 -19 54 -19c41 0 71 44 111 116l-115 529h94l79 -426l227 426h96l-303 -537c-86 -153 -135 -183 -204 -183c-24 0 -44 6 -57 12zM329 639c-35 0 -53 18 -53 51c0 34 18 51 53 51c36 0 54 -17 54 -51c0 -33 -18 -51 -54 -51zM502 639
c-35 0 -53 18 -53 51c0 34 18 51 53 51c36 0 54 -17 54 -51c0 -33 -18 -51 -54 -51z" />
    <glyph glyph-name="Amacron" unicode="&#x100;" horiz-adv-x="671" 
d="M25 0l410 700h99l112 -700h-91l-28 187h-300l-107 -187h-95zM465 600l-193 -335h243zM365 808v64h298v-64h-298z" />
    <glyph glyph-name="amacron" unicode="&#x101;" horiz-adv-x="642" 
d="M480 0l8 96c-43 -67 -102 -106 -194 -106c-122 0 -189 70 -189 188c0 179 79 362 288 362c90 0 151 -43 167 -121l39 111h66l-112 -530h-73zM194 194c0 -88 50 -129 133 -129c109 0 167 73 189 167l11 58c4 17 5 33 5 48c0 78 -43 127 -134 127
c-148 0 -204 -140 -204 -271zM308 660v60h281v-60h-281z" />
    <glyph glyph-name="Abreve" unicode="&#x102;" horiz-adv-x="671" 
d="M25 0l410 700h99l112 -700h-91l-28 187h-300l-107 -187h-95zM465 600l-193 -335h243zM371 894l59 16c5 -50 27 -79 82 -79s89 29 116 79l52 -16c-40 -81 -101 -124 -181 -124s-123 43 -128 124z" />
    <glyph glyph-name="abreve" unicode="&#x103;" horiz-adv-x="642" 
d="M480 0l8 96c-43 -67 -102 -106 -194 -106c-122 0 -189 70 -189 188c0 179 79 362 288 362c90 0 151 -43 167 -121l39 111h66l-112 -530h-73zM194 194c0 -88 50 -129 133 -129c109 0 167 73 189 167l11 58c4 17 5 33 5 48c0 78 -43 127 -134 127
c-148 0 -204 -140 -204 -271zM307 743l57 17c5 -50 28 -80 83 -80s91 30 118 80l50 -17c-41 -81 -101 -123 -181 -123s-121 42 -127 123z" />
    <glyph glyph-name="Aogonek" unicode="&#x104;" horiz-adv-x="671" 
d="M531 -239c-63 0 -90 29 -90 70c0 75 71 132 131 169h-17l-28 187h-300l-107 -187h-95l410 700h99l112 -700h-19c-45 -29 -113 -86 -113 -144c0 -25 20 -39 52 -39c22 0 45 5 66 16l-11 -52c-25 -11 -55 -20 -90 -20zM465 600l-193 -335h243z" />
    <glyph glyph-name="aogonek" unicode="&#x105;" horiz-adv-x="642" 
d="M480 0l8 96c-43 -67 -102 -106 -194 -106c-122 0 -189 70 -189 188c0 179 80 362 289 362c90 0 151 -43 167 -121l39 111h66l-113 -530h-15c-44 -28 -101 -76 -101 -133c0 -23 14 -37 44 -37c19 0 39 5 60 16l-10 -49c-22 -10 -48 -19 -81 -19c-60 0 -86 30 -86 68
c0 68 64 120 119 154h-3zM194 194c0 -88 50 -129 133 -129c109 0 167 73 189 167l12 58c4 17 5 33 5 48c0 78 -43 127 -134 127c-148 0 -205 -140 -205 -271z" />
    <glyph glyph-name="Cacute" unicode="&#x106;" horiz-adv-x="644" 
d="M709 671l-20 -91c-45 33 -97 50 -170 50c-83 0 -142 -20 -196 -75c-63 -66 -105 -193 -105 -303c0 -127 70 -182 196 -182c78 0 147 26 187 47l-19 -90c-45 -18 -108 -37 -184 -37c-170 0 -276 73 -276 254c0 113 47 281 144 374c68 64 154 92 261 92
c85 0 144 -19 182 -39zM504 765l122 150h114l-163 -150h-73z" />
    <glyph glyph-name="cacute" unicode="&#x107;" horiz-adv-x="548" 
d="M520 122l-18 -84c-35 -24 -100 -48 -178 -48c-137 0 -219 76 -219 210c0 204 108 340 312 340c73 0 128 -17 154 -35l-20 -88c-27 22 -78 48 -144 48c-138 0 -213 -96 -213 -251c0 -85 49 -149 159 -149c61 0 125 26 167 57zM400 620l112 140h112l-153 -140h-71z" />
    <glyph glyph-name="Ccircumflex" unicode="&#x108;" horiz-adv-x="644" 
d="M709 671l-20 -91c-45 33 -97 50 -170 50c-83 0 -142 -20 -196 -75c-63 -66 -105 -193 -105 -303c0 -127 70 -182 196 -182c78 0 147 26 187 47l-19 -90c-45 -18 -108 -37 -184 -37c-170 0 -276 73 -276 254c0 113 47 281 144 374c68 64 154 92 261 92
c85 0 144 -19 182 -39zM370 765l154 150h96l91 -150h-71l-75 101l-118 -101h-77z" />
    <glyph glyph-name="ccircumflex" unicode="&#x109;" horiz-adv-x="548" 
d="M520 122l-18 -84c-35 -24 -100 -48 -178 -48c-137 0 -219 76 -219 210c0 204 108 340 312 340c73 0 128 -17 154 -35l-20 -88c-27 22 -78 48 -144 48c-138 0 -213 -96 -213 -251c0 -85 49 -149 159 -149c61 0 125 26 167 57zM280 620l140 140h93l81 -140h-69l-65 92
l-104 -92h-76z" />
    <glyph glyph-name="Cdotaccent" unicode="&#x10a;" horiz-adv-x="644" 
d="M709 671l-20 -91c-45 33 -97 50 -170 50c-83 0 -142 -20 -196 -75c-63 -66 -105 -193 -105 -303c0 -127 70 -182 196 -182c78 0 147 26 187 47l-19 -90c-45 -18 -108 -37 -184 -37c-170 0 -276 73 -276 254c0 113 47 281 144 374c68 64 154 92 261 92
c85 0 144 -19 182 -39zM556 786c-37 0 -56 19 -56 54s19 54 56 54s56 -19 56 -54s-19 -54 -56 -54z" />
    <glyph glyph-name="cdotaccent" unicode="&#x10b;" horiz-adv-x="548" 
d="M520 122l-18 -84c-35 -24 -100 -48 -178 -48c-137 0 -219 76 -219 210c0 204 108 340 312 340c73 0 128 -17 154 -35l-20 -88c-27 22 -78 48 -144 48c-138 0 -213 -96 -213 -251c0 -85 49 -149 159 -149c61 0 125 26 167 57zM452 638c-37 0 -56 19 -56 52s19 52 56 52
c36 0 55 -19 55 -52s-19 -52 -55 -52z" />
    <glyph glyph-name="Ccaron" unicode="&#x10c;" horiz-adv-x="644" 
d="M709 671l-20 -91c-45 33 -97 50 -170 50c-83 0 -142 -20 -196 -75c-63 -66 -105 -193 -105 -303c0 -127 70 -182 196 -182c78 0 147 26 187 47l-19 -90c-45 -18 -108 -37 -184 -37c-170 0 -276 73 -276 254c0 113 47 281 144 374c68 64 154 92 261 92
c85 0 144 -19 182 -39zM492 768l-90 150h70l76 -102l118 102h77l-154 -150h-97z" />
    <glyph glyph-name="ccaron" unicode="&#x10d;" horiz-adv-x="548" 
d="M520 122l-18 -84c-35 -24 -100 -48 -178 -48c-137 0 -219 76 -219 210c0 204 108 340 312 340c73 0 128 -17 154 -35l-20 -88c-27 22 -78 48 -144 48c-138 0 -213 -96 -213 -251c0 -85 49 -149 159 -149c61 0 125 26 167 57zM392 620l-81 140h69l65 -91l104 91h75
l-140 -140h-92z" />
    <glyph glyph-name="Dcaron" unicode="&#x10e;" horiz-adv-x="733" 
d="M292 -5c-78 0 -133 3 -186 7l148 697c64 4 122 6 206 6c178 0 295 -75 295 -254c0 -159 -55 -298 -137 -366s-181 -90 -326 -90zM212 79c35 -4 58 -4 90 -4c106 0 185 12 245 63c65 54 112 158 112 302c0 139 -85 185 -218 185c-43 0 -73 -1 -114 -4zM442 768l-90 150h70
l76 -102l118 102h77l-154 -150h-97z" />
    <glyph glyph-name="dcaron" unicode="&#x10f;" horiz-adv-x="708" 
d="M478 0l10 96c-41 -68 -97 -106 -190 -106c-127 0 -193 69 -193 188c0 179 79 362 289 362c95 0 151 -46 162 -119l69 329h86l-159 -750h-74zM194 194c0 -88 49 -129 135 -129c106 0 167 73 186 167l11 57c21 103 -20 176 -126 176c-150 0 -206 -141 -206 -271zM762 545
l96 205h90l-121 -205h-65z" />
    <glyph glyph-name="Dcroat" unicode="&#x110;" horiz-adv-x="743" 
d="M89 325l15 70h94l65 304c64 4 122 6 206 6c178 0 295 -75 295 -254c0 -159 -55 -298 -137 -366s-181 -90 -326 -90c-78 0 -133 3 -186 7l68 323h-94zM221 79c35 -4 58 -4 90 -4c106 0 185 12 245 63c65 54 112 158 112 302c0 139 -85 185 -218 185c-43 0 -73 -1 -114 -4
l-48 -226h184l-15 -70h-184z" />
    <glyph glyph-name="dcroat" unicode="&#x111;" horiz-adv-x="641" 
d="M388 603l14 64h205l18 83h86l-19 -83h96l-14 -64h-95l-127 -603h-74l10 96c-41 -68 -97 -106 -190 -106c-127 0 -193 69 -193 188c0 179 79 362 289 362c95 0 151 -46 162 -119l37 182h-205zM194 194c0 -88 49 -129 135 -129c106 0 167 73 186 167l11 57
c21 103 -20 176 -126 176c-150 0 -206 -141 -206 -271z" />
    <glyph glyph-name="Emacron" unicode="&#x112;" horiz-adv-x="602" 
d="M105 0l149 700h430l-17 -80h-340l-47 -223h310l-17 -77h-310l-51 -240h340l-17 -80h-430zM350 808v64h298v-64h-298z" />
    <glyph glyph-name="emacron" unicode="&#x113;" horiz-adv-x="573" 
d="M322 -10c-143 0 -214 78 -214 213c0 193 117 337 296 337c146 0 196 -60 196 -138c0 -101 -88 -157 -273 -157h-127c-2 -11 -5 -33 -5 -53c0 -79 43 -130 148 -130c68 0 148 23 196 65l-16 -81c-40 -31 -120 -56 -201 -56zM336 306c147 0 175 40 175 84
c0 41 -25 78 -107 78c-102 0 -165 -53 -192 -162h124zM291 660v60h281v-60h-281z" />
    <glyph glyph-name="Edotaccent" unicode="&#x116;" horiz-adv-x="602" 
d="M105 0l149 700h430l-17 -80h-340l-47 -223h310l-17 -77h-310l-51 -240h340l-17 -80h-430zM498 786c-37 0 -56 19 -56 54s19 54 56 54s56 -19 56 -54s-19 -54 -56 -54z" />
    <glyph glyph-name="edotaccent" unicode="&#x117;" horiz-adv-x="573" 
d="M322 -10c-143 0 -214 78 -214 213c0 193 117 337 296 337c146 0 196 -60 196 -138c0 -101 -88 -157 -273 -157h-127c-2 -11 -5 -33 -5 -53c0 -79 43 -130 148 -130c68 0 148 23 196 65l-16 -81c-40 -31 -120 -56 -201 -56zM336 306c147 0 175 40 175 84
c0 41 -25 78 -107 78c-102 0 -165 -53 -192 -162h124zM432 638c-37 0 -56 19 -56 52s19 52 56 52c36 0 55 -19 55 -52s-19 -52 -55 -52z" />
    <glyph glyph-name="Eogonek" unicode="&#x118;" horiz-adv-x="602" 
d="M105 0l149 700h430l-17 -80h-340l-47 -223h310l-17 -77h-310l-51 -240h340l-17 -80h-41c-45 -29 -113 -86 -113 -144c0 -25 20 -39 52 -39c22 0 45 5 66 16l-11 -52c-25 -11 -55 -20 -90 -20c-63 0 -90 29 -90 70c0 75 71 132 131 169h-334z" />
    <glyph glyph-name="eogonek" unicode="&#x119;" horiz-adv-x="573" 
d="M322 -10c-143 0 -214 78 -214 213c0 193 117 337 296 337c146 0 196 -61 196 -139c0 -101 -88 -158 -273 -158h-127c-2 -11 -5 -31 -5 -51c0 -79 43 -130 148 -130c68 0 148 23 196 65l-16 -81c-28 -22 -77 -41 -131 -50c-42 -29 -93 -75 -93 -129c0 -23 14 -37 44 -37
c19 0 39 5 60 16l-10 -49c-22 -10 -48 -19 -81 -19c-60 0 -86 30 -86 68c0 61 51 111 101 144h-5zM336 304c147 0 175 41 175 85c0 41 -25 79 -107 79c-102 0 -165 -55 -192 -164h124z" />
    <glyph glyph-name="Ecaron" unicode="&#x11a;" horiz-adv-x="602" 
d="M105 0l149 700h430l-17 -80h-340l-47 -223h310l-17 -77h-310l-51 -240h340l-17 -80h-430zM434 768l-90 150h70l76 -102l118 102h77l-154 -150h-97z" />
    <glyph glyph-name="ecaron" unicode="&#x11b;" horiz-adv-x="573" 
d="M322 -10c-143 0 -214 78 -214 213c0 193 117 337 296 337c146 0 196 -60 196 -138c0 -101 -88 -157 -273 -157h-127c-2 -11 -5 -33 -5 -53c0 -79 43 -130 148 -130c68 0 148 23 196 65l-16 -81c-40 -31 -120 -56 -201 -56zM336 306c147 0 175 40 175 84
c0 41 -25 78 -107 78c-102 0 -165 -53 -192 -162h124zM371 620l-81 140h69l65 -91l104 91h75l-140 -140h-92z" />
    <glyph glyph-name="Gcircumflex" unicode="&#x11c;" horiz-adv-x="691" 
d="M414 -10c-177 0 -290 79 -290 263c0 148 71 312 162 383c70 55 146 74 264 74c76 0 144 -24 175 -39l-19 -92c-35 25 -104 51 -170 51c-80 0 -133 -10 -190 -55c-74 -59 -126 -195 -126 -314c0 -145 79 -191 211 -191c47 0 95 10 130 23l40 190h-152l16 77h235l-69 -324
c-40 -18 -121 -46 -217 -46zM381 765l154 150h96l91 -150h-71l-75 101l-118 -101h-77z" />
    <glyph glyph-name="gcircumflex" unicode="&#x11d;" horiz-adv-x="638" 
d="M260 -190c-86 0 -147 20 -181 39l20 93c24 -25 85 -57 173 -57c124 0 179 47 199 143l19 92c-41 -68 -95 -110 -189 -110c-126 0 -192 63 -192 187c0 172 74 343 283 343c95 0 153 -50 164 -123l38 113h66l-105 -497c-34 -163 -133 -223 -295 -223zM332 85
c110 0 168 78 185 162l9 44c21 104 -22 174 -127 174c-149 0 -199 -123 -199 -251c0 -89 45 -129 132 -129zM276 620l140 140h93l81 -140h-69l-65 92l-104 -92h-76z" />
    <glyph glyph-name="Gbreve" unicode="&#x11e;" horiz-adv-x="691" 
d="M414 -10c-177 0 -290 79 -290 263c0 148 71 312 162 383c70 55 146 74 264 74c76 0 144 -24 175 -39l-19 -92c-35 25 -104 51 -170 51c-80 0 -133 -10 -190 -55c-74 -59 -126 -195 -126 -314c0 -145 79 -191 211 -191c47 0 95 10 130 23l40 190h-152l16 77h235l-69 -324
c-40 -18 -121 -46 -217 -46zM423 894l59 16c5 -50 27 -79 82 -79s89 29 116 79l52 -16c-40 -81 -101 -124 -181 -124s-123 43 -128 124z" />
    <glyph glyph-name="gbreve" unicode="&#x11f;" horiz-adv-x="638" 
d="M260 -190c-86 0 -147 20 -181 39l20 93c24 -25 85 -57 173 -57c124 0 179 47 199 143l19 92c-41 -68 -95 -110 -189 -110c-126 0 -192 63 -192 187c0 172 74 343 283 343c95 0 153 -50 164 -123l38 113h66l-105 -497c-34 -163 -133 -223 -295 -223zM332 85
c110 0 168 78 185 162l9 44c21 104 -22 174 -127 174c-149 0 -199 -123 -199 -251c0 -89 45 -129 132 -129zM304 743l57 17c5 -50 28 -80 83 -80s91 30 118 80l50 -17c-41 -81 -101 -123 -181 -123s-121 42 -127 123z" />
    <glyph glyph-name="Gdotaccent" unicode="&#x120;" horiz-adv-x="691" 
d="M414 -10c-177 0 -290 79 -290 263c0 148 71 312 162 383c70 55 146 74 264 74c76 0 144 -24 175 -39l-19 -92c-35 25 -104 51 -170 51c-80 0 -133 -10 -190 -55c-74 -59 -126 -195 -126 -314c0 -145 79 -191 211 -191c47 0 95 10 130 23l40 190h-152l16 77h235l-69 -324
c-40 -18 -121 -46 -217 -46zM566 786c-37 0 -56 19 -56 54s19 54 56 54s56 -19 56 -54s-19 -54 -56 -54z" />
    <glyph glyph-name="gdotaccent" unicode="&#x121;" horiz-adv-x="638" 
d="M260 -190c-86 0 -147 20 -181 39l20 93c24 -25 85 -57 173 -57c124 0 179 47 199 143l19 92c-41 -68 -95 -110 -189 -110c-126 0 -192 63 -192 187c0 172 74 343 283 343c95 0 153 -50 164 -123l38 113h66l-105 -497c-34 -163 -133 -223 -295 -223zM332 85
c110 0 168 78 185 162l9 44c21 104 -22 174 -127 174c-149 0 -199 -123 -199 -251c0 -89 45 -129 132 -129zM448 638c-37 0 -56 19 -56 52s19 52 56 52c36 0 55 -19 55 -52s-19 -52 -55 -52z" />
    <glyph glyph-name="Gcommaaccent" unicode="&#x122;" horiz-adv-x="691" 
d="M414 -10c-177 0 -290 79 -290 263c0 148 71 312 162 383c70 55 146 74 264 74c76 0 144 -24 175 -39l-19 -92c-35 25 -104 51 -170 51c-80 0 -133 -10 -190 -55c-74 -59 -126 -195 -126 -314c0 -145 79 -191 211 -191c47 0 95 10 130 23l40 190h-152l16 77h235l-69 -324
c-40 -18 -121 -46 -217 -46zM282 -236l8 40c39 9 65 23 75 59h-12c-32 0 -50 13 -50 35c0 37 30 53 73 53c31 0 53 -14 53 -47c0 -67 -63 -129 -147 -140z" />
    <glyph glyph-name="gcommaaccent" unicode="&#x123;" horiz-adv-x="638" 
d="M260 -190c-86 0 -147 20 -181 39l20 93c24 -25 85 -57 173 -57c124 0 179 47 199 143l19 92c-41 -68 -95 -110 -189 -110c-126 0 -192 63 -192 187c0 172 74 343 283 343c95 0 153 -50 164 -123l38 113h66l-105 -497c-34 -163 -133 -223 -295 -223zM332 85
c110 0 168 78 185 162l9 44c21 104 -22 174 -127 174c-149 0 -199 -123 -199 -251c0 -89 45 -129 132 -129zM525 817l-1 -37c-35 -9 -66 -26 -76 -62c7 1 12 1 16 1c27 0 44 -13 44 -35c0 -35 -34 -51 -72 -51c-30 0 -51 14 -51 48c0 73 75 125 140 136z" />
    <glyph glyph-name="Hcircumflex" unicode="&#x124;" horiz-adv-x="771" 
d="M105 0l149 700h90l-64 -300h381l64 300h90l-149 -700h-90l67 320h-380l-68 -320h-90zM378 765l154 150h96l91 -150h-71l-75 101l-118 -101h-77z" />
    <glyph glyph-name="hcircumflex" unicode="&#x125;" horiz-adv-x="625" 
d="M90 0l160 750h85l-67 -316c45 67 108 106 203 106c107 0 155 -39 155 -122c0 -21 -3 -44 -9 -71l-73 -347h-87l70 330c4 20 6 41 6 55c0 60 -34 80 -110 80c-103 0 -162 -64 -180 -149l-67 -316h-86zM141 780l140 140h93l81 -140h-69l-65 92l-104 -92h-76z" />
    <glyph glyph-name="Hbar" unicode="&#x126;" horiz-adv-x="805" 
d="M137 515l15 70h94l25 115h90l-25 -115h381l25 115h90l-25 -115h95l-15 -70h-95l-109 -515h-90l67 320h-380l-68 -320h-90l109 515h-94zM297 400h381l24 115h-381z" />
    <glyph glyph-name="hbar" unicode="&#x127;" horiz-adv-x="625" 
d="M124 603l14 64h94l18 83h85l-18 -83h207l-14 -64h-206l-36 -169c45 67 108 106 203 106c107 0 155 -39 155 -122c0 -21 -3 -44 -9 -71l-73 -347h-87l70 330c4 20 6 41 6 55c0 60 -34 80 -110 80c-103 0 -162 -64 -180 -149l-67 -316h-86l129 603h-95z" />
    <glyph glyph-name="Imacron" unicode="&#x12a;" horiz-adv-x="310" 
d="M110 0l149 700h90l-149 -700h-90zM186 808v64h298v-64h-298z" />
    <glyph glyph-name="imacron" unicode="&#x12b;" horiz-adv-x="291" 
d="M188 0h-86l113 530h86zM151 660v60h281v-60h-281z" />
    <glyph glyph-name="Iogonek" unicode="&#x12e;" horiz-adv-x="310" 
d="M110 0l149 700h90l-149 -700h-19c-45 -29 -113 -86 -113 -144c0 -25 20 -39 52 -39c22 0 45 5 66 16l-11 -52c-25 -11 -55 -20 -90 -20c-63 0 -90 29 -90 70c0 75 71 132 131 169h-16z" />
    <glyph glyph-name="iogonek" unicode="&#x12f;" horiz-adv-x="291" 
d="M84 -222c-60 0 -86 30 -86 68c0 68 64 120 119 154h-15l113 530h86l-113 -530h-16c-44 -28 -101 -76 -101 -133c0 -23 14 -37 44 -37c19 0 39 5 60 16l-10 -49c-22 -10 -48 -19 -81 -19zM292 633c-37 0 -56 19 -56 52s19 52 56 52c36 0 55 -19 55 -52s-19 -52 -55 -52z
" />
    <glyph glyph-name="Idotaccent" unicode="&#x130;" horiz-adv-x="310" 
d="M110 0l149 700h90l-149 -700h-90zM332 786c-37 0 -56 19 -56 54s19 54 56 54s56 -19 56 -54s-19 -54 -56 -54z" />
    <glyph glyph-name="dotlessi" unicode="&#x131;" horiz-adv-x="291" 
d="M188 0h-86l113 530h86z" />
    <glyph glyph-name="Jcircumflex" unicode="&#x134;" horiz-adv-x="408" 
d="M131 -5c-37 0 -74 8 -105 25l18 85c32 -22 57 -30 92 -30c67 0 99 29 117 113l109 512h90l-111 -525c-27 -128 -89 -180 -210 -180zM250 765l154 150h96l91 -150h-71l-75 101l-118 -101h-77z" />
    <glyph glyph-name="jcircumflex" unicode="&#x135;" horiz-adv-x="291" 
d="M-67 -175l17 82c14 -9 35 -14 63 -14c48 0 72 22 84 80l118 557h86l-118 -556c-24 -112 -77 -159 -179 -159c-33 0 -59 4 -71 10zM120 620l140 140h93l81 -140h-69l-65 92l-104 -92h-76z" />
    <glyph glyph-name="Kcommaaccent" unicode="&#x136;" horiz-adv-x="693" 
d="M564 0l-232 319h-69l-68 -319h-90l149 700h90l-64 -301h57l330 301h114l-378 -340l263 -360h-102zM278 -236l8 40c39 9 65 23 75 59h-12c-32 0 -50 13 -50 35c0 37 30 53 73 53c31 0 53 -14 53 -47c0 -67 -63 -129 -147 -140z" />
    <glyph glyph-name="kcommaaccent" unicode="&#x137;" horiz-adv-x="566" 
d="M90 0l159 750h86l-92 -437h41l237 217h109l-279 -259l188 -271h-104l-168 238h-40l-51 -238h-86zM192 -233l1 37c35 9 66 26 76 62c-7 -1 -12 -1 -16 -1c-27 0 -44 13 -44 35c0 35 34 51 72 51c30 0 51 -14 51 -48c0 -73 -75 -125 -140 -136z" />
    <glyph glyph-name="Lacute" unicode="&#x139;" horiz-adv-x="563" 
d="M105 0l149 700h90l-132 -620h335l-16 -80h-426zM276 765l122 150h114l-163 -150h-73z" />
    <glyph glyph-name="lacute" unicode="&#x13a;" horiz-adv-x="327" 
d="M220 -5c-72 0 -110 23 -110 82c0 12 2 26 5 42l135 631h86l-130 -611c-3 -12 -4 -22 -4 -30c0 -30 15 -39 53 -39c20 0 41 5 64 14l-16 -73c-16 -7 -47 -16 -83 -16zM260 777l112 140h112l-153 -140h-71z" />
    <glyph glyph-name="Lcommaaccent" unicode="&#x13b;" horiz-adv-x="563" 
d="M105 0l149 700h90l-132 -620h335l-16 -80h-426zM212 -236l8 40c39 9 65 23 75 59h-12c-32 0 -50 13 -50 35c0 37 30 53 73 53c31 0 53 -14 53 -47c0 -67 -63 -129 -147 -140z" />
    <glyph glyph-name="lcommaaccent" unicode="&#x13c;" horiz-adv-x="327" 
d="M220 -5c-72 0 -110 23 -110 82c0 12 2 26 5 42l135 631h86l-130 -611c-3 -12 -4 -22 -4 -30c0 -30 15 -39 53 -39c20 0 41 5 64 14l-16 -73c-16 -7 -47 -16 -83 -16zM93 -233l1 37c35 9 66 26 76 62c-7 -1 -12 -1 -16 -1c-27 0 -44 13 -44 35c0 35 34 51 72 51
c30 0 51 -14 51 -48c0 -73 -75 -125 -140 -136z" />
    <glyph glyph-name="Lcaron" unicode="&#x13d;" horiz-adv-x="563" 
d="M105 0l149 700h90l-132 -620h335l-16 -80h-426zM394 495l96 205h90l-121 -205h-65z" />
    <glyph glyph-name="lcaron" unicode="&#x13e;" horiz-adv-x="332" 
d="M220 -5c-72 0 -110 23 -110 82c0 12 2 26 5 42l135 631h86l-130 -611c-3 -12 -4 -22 -4 -30c0 -30 15 -39 53 -39c20 0 41 5 64 14l-16 -73c-16 -7 -47 -16 -83 -16zM386 545l96 205h90l-121 -205h-65z" />
    <glyph glyph-name="Ldot" unicode="&#x13f;" horiz-adv-x="563" 
d="M105 0l149 700h90l-132 -620h335l-16 -80h-426zM512 316c-43 0 -64 21 -64 63c0 41 21 62 64 62c42 0 63 -21 63 -62c0 -42 -21 -63 -63 -63z" />
    <glyph glyph-name="ldot" unicode="&#x140;" horiz-adv-x="362" 
d="M220 -5c-72 0 -110 23 -110 82c0 12 2 26 5 42l135 631h86l-130 -611c-3 -12 -4 -22 -4 -30c0 -30 15 -39 53 -39c20 0 41 5 64 14l-16 -73c-16 -7 -47 -16 -83 -16zM397 318c-43 0 -64 21 -64 63c0 41 21 62 64 62c42 0 63 -21 63 -62c0 -42 -21 -63 -63 -63z" />
    <glyph glyph-name="Lslash" unicode="&#x141;" horiz-adv-x="581" 
d="M84 263l17 79l107 55l64 303h90l-53 -251l177 91l-16 -78l-178 -92l-62 -290h335l-16 -80h-426l68 318z" />
    <glyph glyph-name="lslash" unicode="&#x142;" horiz-adv-x="365" 
d="M90 295l16 76l112 57l68 322h86l-57 -272l121 62l-16 -75l-121 -63l-56 -263c-3 -12 -4 -22 -4 -30c0 -30 15 -39 53 -39c20 0 41 5 64 14l-16 -73c-16 -7 -47 -16 -83 -16c-72 0 -110 23 -110 82c0 12 2 26 5 42l50 233z" />
    <glyph glyph-name="Nacute" unicode="&#x143;" horiz-adv-x="764" 
d="M105 0l149 700h92l208 -469c17 -39 31 -70 46 -113c6 43 10 74 18 113l100 469h90l-149 -700h-92l-208 468c-18 40 -30 70 -45 114c-6 -44 -11 -74 -19 -114l-99 -468h-91zM507 765l122 150h114l-163 -150h-73z" />
    <glyph glyph-name="nacute" unicode="&#x144;" horiz-adv-x="625" 
d="M90 0l113 530h73l-8 -94c47 71 114 104 201 104c102 0 157 -32 157 -122c0 -21 -3 -46 -9 -74l-73 -344h-87l69 322c5 25 7 46 7 64c0 60 -33 79 -110 79c-98 0 -161 -57 -181 -151l-66 -314h-86zM413 620l112 140h112l-153 -140h-71z" />
    <glyph glyph-name="Ncommaaccent" unicode="&#x145;" horiz-adv-x="764" 
d="M105 0l149 700h92l208 -469c17 -39 31 -70 46 -113c6 43 10 74 18 113l100 469h90l-149 -700h-92l-208 468c-18 40 -30 70 -45 114c-6 -44 -11 -74 -19 -114l-99 -468h-91zM275 -236l8 40c39 9 65 23 75 59h-12c-32 0 -50 13 -50 35c0 37 30 53 73 53c31 0 53 -14 53 -47
c0 -67 -63 -129 -147 -140z" />
    <glyph glyph-name="ncommaaccent" unicode="&#x146;" horiz-adv-x="625" 
d="M90 0l113 530h73l-8 -94c47 71 114 104 201 104c102 0 157 -32 157 -122c0 -21 -3 -46 -9 -74l-73 -344h-87l69 322c5 25 7 46 7 64c0 60 -33 79 -110 79c-98 0 -161 -57 -181 -151l-66 -314h-86zM217 -233l1 37c35 9 66 26 76 62c-7 -1 -12 -1 -16 -1
c-27 0 -44 13 -44 35c0 35 34 51 72 51c30 0 51 -14 51 -48c0 -73 -75 -125 -140 -136z" />
    <glyph glyph-name="Ncaron" unicode="&#x147;" horiz-adv-x="764" 
d="M105 0l149 700h92l208 -469c17 -39 31 -70 46 -113c6 43 10 74 18 113l100 469h90l-149 -700h-92l-208 468c-18 40 -30 70 -45 114c-6 -44 -11 -74 -19 -114l-99 -468h-91zM496 768l-90 150h70l76 -102l118 102h77l-154 -150h-97z" />
    <glyph glyph-name="ncaron" unicode="&#x148;" horiz-adv-x="625" 
d="M90 0l113 530h73l-8 -94c47 71 114 104 201 104c102 0 157 -32 157 -122c0 -21 -3 -46 -9 -74l-73 -344h-87l69 322c5 25 7 46 7 64c0 60 -33 79 -110 79c-98 0 -161 -57 -181 -151l-66 -314h-86zM402 620l-81 140h69l65 -91l104 91h75l-140 -140h-92z" />
    <glyph glyph-name="Omacron" unicode="&#x14c;" horiz-adv-x="773" 
d="M397 -10c-167 0 -271 100 -271 267c0 132 49 290 154 377c72 60 151 76 249 76c169 0 266 -96 266 -266c0 -149 -60 -305 -152 -378c-73 -57 -155 -76 -246 -76zM411 70c79 0 136 20 181 64c72 71 107 195 107 299c0 129 -59 197 -190 197c-66 0 -116 -13 -162 -50
c-87 -69 -125 -211 -125 -315c0 -125 63 -195 189 -195zM416 808v64h298v-64h-298z" />
    <glyph glyph-name="omacron" unicode="&#x14d;" horiz-adv-x="616" 
d="M105 194c0 209 114 346 308 346c119 0 207 -67 207 -201c0 -212 -103 -349 -289 -349c-153 0 -226 84 -226 204zM194 210c0 -88 39 -145 143 -145c134 0 194 122 194 259c0 91 -40 141 -127 141c-128 0 -210 -102 -210 -255zM312 660v60h281v-60h-281z" />
    <glyph glyph-name="Ohungarumlaut" unicode="&#x150;" horiz-adv-x="773" 
d="M397 -10c-167 0 -271 100 -271 267c0 132 49 290 154 377c72 60 151 76 249 76c169 0 266 -96 266 -266c0 -149 -60 -305 -152 -378c-73 -57 -155 -76 -246 -76zM411 70c79 0 136 20 181 64c72 71 107 195 107 299c0 129 -59 197 -190 197c-66 0 -116 -13 -162 -50
c-87 -69 -125 -211 -125 -315c0 -125 63 -195 189 -195zM420 765l95 150h107l-129 -150h-73zM588 765l129 150h117l-167 -150h-79z" />
    <glyph glyph-name="ohungarumlaut" unicode="&#x151;" horiz-adv-x="616" 
d="M105 194c0 209 114 346 308 346c119 0 207 -67 207 -201c0 -212 -103 -349 -289 -349c-153 0 -226 84 -226 204zM194 210c0 -88 39 -145 143 -145c134 0 194 122 194 259c0 91 -40 141 -127 141c-128 0 -210 -102 -210 -255zM322 617l93 140h105l-126 -140h-72zM472 617
l127 140h115l-165 -140h-77z" />
    <glyph glyph-name="OE" unicode="&#x152;" horiz-adv-x="957" 
d="M890 0h-398c-28 -6 -58 -10 -93 -10c-170 0 -277 73 -277 254c0 113 48 281 145 374c68 64 154 92 261 92c38 0 72 -4 100 -10h411l-17 -80h-327l-47 -223h297l-17 -77h-298l-50 -240h326zM415 70c26 0 51 2 74 8l116 542c-26 7 -54 10 -85 10c-83 0 -142 -20 -195 -75
c-64 -66 -106 -193 -106 -303c0 -127 70 -182 196 -182z" />
    <glyph glyph-name="oe" unicode="&#x153;" horiz-adv-x="994" 
d="M747 244h-127c-2 -11 -4 -30 -4 -50c0 -79 42 -132 147 -132c68 0 148 23 196 65l-16 -81c-40 -31 -120 -56 -201 -56c-101 0 -163 38 -190 108c-48 -69 -122 -108 -221 -108c-154 0 -226 85 -226 205c0 209 114 345 308 345c90 0 158 -38 186 -112
c50 69 127 112 225 112c146 0 196 -61 196 -139c0 -101 -88 -157 -273 -157zM194 211c0 -88 39 -146 143 -146c134 0 195 124 195 261c0 90 -41 139 -127 139c-130 0 -211 -101 -211 -254zM756 305c147 0 175 40 175 85c0 41 -24 78 -108 78c-100 0 -163 -53 -190 -163h123z
" />
    <glyph glyph-name="Racute" unicode="&#x154;" horiz-adv-x="663" 
d="M105 0l148 696c66 5 131 9 197 9c137 0 218 -54 218 -173c0 -125 -61 -208 -188 -239l151 -293h-97l-146 280h-133l-59 -280h-91zM272 357h105c132 0 195 50 195 166c0 71 -48 102 -135 102c-41 0 -70 0 -109 -5zM433 765l122 150h114l-163 -150h-73z" />
    <glyph glyph-name="racute" unicode="&#x155;" horiz-adv-x="416" 
d="M90 0l113 530h73l-6 -90c38 69 100 100 170 100c21 0 41 -3 54 -8l-20 -88c-17 14 -38 21 -71 21c-86 0 -138 -51 -161 -156l-66 -309h-86zM332 620l112 140h112l-153 -140h-71z" />
    <glyph glyph-name="Rcommaaccent" unicode="&#x156;" horiz-adv-x="663" 
d="M105 0l148 696c66 5 131 9 197 9c137 0 218 -54 218 -173c0 -125 -61 -208 -188 -239l151 -293h-97l-146 280h-133l-59 -280h-91zM272 357h105c132 0 195 50 195 166c0 71 -48 102 -135 102c-41 0 -70 0 -109 -5zM261 -236l8 40c39 9 65 23 75 59h-12
c-32 0 -50 13 -50 35c0 37 30 53 73 53c31 0 53 -14 53 -47c0 -67 -63 -129 -147 -140z" />
    <glyph glyph-name="rcommaaccent" unicode="&#x157;" horiz-adv-x="416" 
d="M90 0l113 530h73l-6 -90c38 69 100 100 170 100c21 0 41 -3 54 -8l-20 -88c-17 14 -38 21 -71 21c-86 0 -138 -51 -161 -156l-66 -309h-86zM31 -233l1 37c35 9 66 26 76 62c-7 -1 -12 -1 -16 -1c-27 0 -44 13 -44 35c0 35 34 51 72 51c30 0 51 -14 51 -48
c0 -73 -75 -125 -140 -136z" />
    <glyph glyph-name="Rcaron" unicode="&#x158;" horiz-adv-x="663" 
d="M105 0l148 696c66 5 131 9 197 9c137 0 218 -54 218 -173c0 -125 -61 -208 -188 -239l151 -293h-97l-146 280h-133l-59 -280h-91zM272 357h105c132 0 195 50 195 166c0 71 -48 102 -135 102c-41 0 -70 0 -109 -5zM419 768l-90 150h70l76 -102l118 102h77l-154 -150h-97z
" />
    <glyph glyph-name="rcaron" unicode="&#x159;" horiz-adv-x="416" 
d="M90 0l113 530h73l-6 -90c38 69 100 100 170 100c21 0 41 -3 54 -8l-20 -88c-17 14 -38 21 -71 21c-86 0 -138 -51 -161 -156l-66 -309h-86zM320 620l-81 140h69l65 -91l104 91h75l-140 -140h-92z" />
    <glyph glyph-name="Sacute" unicode="&#x15a;" horiz-adv-x="585" 
d="M291 -10c-78 0 -168 23 -211 57l22 100c46 -51 116 -79 191 -79c117 0 179 46 179 136c0 154 -294 95 -294 298c0 127 102 208 259 208c74 0 152 -16 197 -42l-20 -97c-45 39 -105 61 -175 61c-108 0 -165 -38 -165 -114c0 -152 294 -94 294 -304
c0 -142 -102 -224 -277 -224zM403 765l122 150h114l-163 -150h-73z" />
    <glyph glyph-name="sacute" unicode="&#x15b;" horiz-adv-x="494" 
d="M66 25l20 96c31 -35 93 -59 156 -59c94 0 138 36 138 101c0 102 -239 48 -239 198c0 102 63 179 232 179c62 0 114 -13 141 -26l-19 -93c-35 31 -78 47 -135 47c-93 0 -130 -32 -130 -85c0 -101 239 -43 239 -198c0 -129 -91 -195 -242 -195c-65 0 -122 13 -161 35z
M343 620l112 140h112l-153 -140h-71z" />
    <glyph glyph-name="Scircumflex" unicode="&#x15c;" horiz-adv-x="585" 
d="M291 -10c-78 0 -168 23 -211 57l22 100c46 -51 116 -79 191 -79c117 0 179 46 179 136c0 154 -294 95 -294 298c0 127 102 208 259 208c74 0 152 -16 197 -42l-20 -97c-45 39 -105 61 -175 61c-108 0 -165 -38 -165 -114c0 -152 294 -94 294 -304
c0 -142 -102 -224 -277 -224zM289 765l154 150h96l91 -150h-71l-75 101l-118 -101h-77z" />
    <glyph glyph-name="scircumflex" unicode="&#x15d;" horiz-adv-x="494" 
d="M66 25l20 96c31 -35 93 -59 156 -59c94 0 138 36 138 101c0 102 -239 48 -239 198c0 102 63 179 232 179c62 0 114 -13 141 -26l-19 -93c-35 31 -78 47 -135 47c-93 0 -130 -32 -130 -85c0 -101 239 -43 239 -198c0 -129 -91 -195 -242 -195c-65 0 -122 13 -161 35z
M221 620l140 140h93l81 -140h-69l-65 92l-104 -92h-76z" />
    <glyph glyph-name="Scedilla" unicode="&#x15e;" horiz-adv-x="585" 
d="M254 -239c-39 0 -62 6 -81 16l17 47c19 -9 37 -13 63 -13c35 0 72 18 72 58c0 27 -29 35 -57 35c-9 0 -25 0 -34 -2l31 88c-71 4 -147 26 -185 57l22 100c46 -51 116 -80 191 -80c117 0 179 47 179 137c0 154 -294 95 -294 298c0 127 102 208 259 208
c74 0 152 -16 197 -42l-20 -97c-45 39 -105 61 -175 61c-108 0 -165 -38 -165 -114c0 -152 294 -94 294 -304c0 -135 -92 -216 -250 -224l-16 -44c55 0 95 -19 95 -65c0 -76 -73 -120 -143 -120z" />
    <glyph glyph-name="scedilla" unicode="&#x15f;" horiz-adv-x="494" 
d="M188 -89l29 78c-61 2 -114 14 -151 35l20 96c31 -35 93 -59 156 -59c94 0 138 36 138 101c0 102 -239 49 -239 199c0 102 63 179 232 179c62 0 114 -13 141 -26l-19 -93c-35 31 -78 47 -135 47c-93 0 -130 -32 -130 -85c0 -101 239 -44 239 -199
c0 -117 -75 -183 -202 -193l-14 -39c59 -1 96 -22 83 -83c-11 -53 -62 -91 -128 -91c-33 0 -56 6 -75 16l17 45c18 -8 32 -13 56 -13c32 0 58 15 65 47s-23 39 -50 39c-9 0 -24 0 -33 -1z" />
    <glyph glyph-name="Scaron" unicode="&#x160;" horiz-adv-x="585" 
d="M291 -10c-78 0 -168 23 -211 57l22 100c46 -51 116 -79 191 -79c117 0 179 46 179 136c0 154 -294 95 -294 298c0 127 102 208 259 208c74 0 152 -16 197 -42l-20 -97c-45 39 -105 61 -175 61c-108 0 -165 -38 -165 -114c0 -152 294 -94 294 -304
c0 -142 -102 -224 -277 -224zM412 768l-90 150h70l76 -102l118 102h77l-154 -150h-97z" />
    <glyph glyph-name="scaron" unicode="&#x161;" horiz-adv-x="494" 
d="M66 25l20 96c31 -35 93 -59 156 -59c94 0 138 36 138 101c0 102 -239 48 -239 198c0 102 63 179 232 179c62 0 114 -13 141 -26l-19 -93c-35 31 -78 47 -135 47c-93 0 -130 -32 -130 -85c0 -101 239 -43 239 -198c0 -129 -91 -195 -242 -195c-65 0 -122 13 -161 35z
M332 620l-81 140h69l65 -91l104 91h75l-140 -140h-92z" />
    <glyph glyph-name="Tcedilla" unicode="&#x162;" horiz-adv-x="583" 
d="M246 0l132 620h-221l17 80h532l-17 -80h-221l-132 -620h-18l-20 -54c55 0 95 -19 95 -65c0 -76 -73 -120 -143 -120c-39 0 -62 6 -81 16l17 47c19 -9 37 -13 63 -13c35 0 72 18 72 58c0 27 -29 35 -57 35c-9 0 -25 0 -34 -2l35 98h-19z" />
    <glyph glyph-name="tcedilla" unicode="&#x163;" horiz-adv-x="436" 
d="M223 -89l31 84c-69 4 -103 31 -103 96c0 17 3 35 8 58l64 306h-102l15 75h102l23 100l92 30l-29 -130h175l-16 -75h-174l-63 -299c-3 -15 -5 -27 -5 -38c0 -41 22 -49 64 -49c46 0 83 14 109 28l-16 -78c-19 -11 -54 -21 -94 -24l-16 -43c59 -1 96 -22 83 -83
c-11 -53 -62 -91 -128 -91c-33 0 -56 6 -75 16l17 45c18 -8 32 -13 56 -13c32 0 58 15 65 47s-23 39 -50 39c-9 0 -24 0 -33 -1z" />
    <glyph glyph-name="Tcaron" unicode="&#x164;" horiz-adv-x="583" 
d="M246 0l132 620h-221l17 80h532l-17 -80h-221l-132 -620h-90zM406 768l-90 150h70l76 -102l118 102h77l-154 -150h-97z" />
    <glyph glyph-name="tcaron" unicode="&#x165;" horiz-adv-x="436" 
d="M159 149l64 306h-102l15 75h102l22 100l92 30l-28 -130h175l-16 -75h-174l-63 -299c-3 -15 -5 -27 -5 -38c0 -41 22 -48 64 -48c46 0 83 14 109 28l-16 -78c-23 -13 -70 -25 -120 -25c-85 0 -127 24 -127 96c0 17 3 35 8 58zM427 580l96 205h90l-121 -205h-65z" />
    <glyph glyph-name="Umacron" unicode="&#x16a;" horiz-adv-x="735" 
d="M368 -10c-129 0 -218 61 -218 190c0 33 7 86 20 148l79 372h90l-81 -379c-13 -60 -18 -106 -18 -130c0 -91 56 -121 141 -121c138 0 191 54 223 203l90 427h91l-92 -428c-43 -203 -128 -282 -325 -282zM397 808v64h298v-64h-298z" />
    <glyph glyph-name="umacron" unicode="&#x16b;" horiz-adv-x="618" 
d="M122 174l76 356h87l-72 -337c-4 -19 -6 -35 -6 -49c0 -57 32 -79 102 -79c102 0 159 55 180 152l67 313h86l-113 -530h-74l7 95c-47 -74 -114 -105 -201 -105c-98 0 -146 40 -146 121c0 19 2 40 7 63zM311 660v60h281v-60h-281z" />
    <glyph glyph-name="Ubreve" unicode="&#x16c;" horiz-adv-x="735" 
d="M368 -10c-129 0 -218 61 -218 190c0 33 7 86 20 148l79 372h90l-81 -379c-13 -60 -18 -106 -18 -130c0 -91 56 -121 141 -121c138 0 191 54 223 203l90 427h91l-92 -428c-43 -203 -128 -282 -325 -282zM403 894l59 16c5 -50 27 -79 82 -79s89 29 116 79l52 -16
c-40 -81 -101 -124 -181 -124s-123 43 -128 124z" />
    <glyph glyph-name="ubreve" unicode="&#x16d;" horiz-adv-x="618" 
d="M122 174l76 356h87l-72 -337c-4 -19 -6 -35 -6 -49c0 -57 32 -79 102 -79c102 0 159 55 180 152l67 313h86l-113 -530h-74l7 95c-47 -74 -114 -105 -201 -105c-98 0 -146 40 -146 121c0 19 2 40 7 63zM310 743l57 17c5 -50 28 -80 83 -80s91 30 118 80l50 -17
c-41 -81 -101 -123 -181 -123s-121 42 -127 123z" />
    <glyph glyph-name="Uring" unicode="&#x16e;" horiz-adv-x="735" 
d="M368 -10c-129 0 -218 61 -218 190c0 33 7 86 20 148l79 372h90l-81 -379c-13 -60 -18 -106 -18 -130c0 -91 56 -121 141 -121c138 0 191 54 223 203l90 427h91l-92 -428c-43 -203 -128 -282 -325 -282zM545 741c-58 0 -99 41 -99 99s41 99 99 99s99 -41 99 -99
s-41 -99 -99 -99zM545 790c32 0 50 18 50 50s-18 50 -50 50c-31 0 -50 -18 -50 -50s19 -50 50 -50z" />
    <glyph glyph-name="uring" unicode="&#x16f;" horiz-adv-x="618" 
d="M122 174l76 356h87l-72 -337c-4 -19 -6 -35 -6 -49c0 -57 32 -79 102 -79c102 0 159 55 180 152l67 313h86l-113 -530h-74l7 95c-47 -74 -114 -105 -201 -105c-98 0 -146 40 -146 121c0 19 2 40 7 63zM452 593c-58 0 -97 39 -97 97s39 97 97 97s97 -39 97 -97
s-39 -97 -97 -97zM452 642c30 0 49 18 49 48s-19 49 -49 49s-48 -19 -48 -49s18 -48 48 -48z" />
    <glyph glyph-name="Uhungarumlaut" unicode="&#x170;" horiz-adv-x="735" 
d="M368 -10c-129 0 -218 61 -218 190c0 33 7 86 20 148l79 372h90l-81 -379c-13 -60 -18 -106 -18 -130c0 -91 56 -121 141 -121c138 0 191 54 223 203l90 427h91l-92 -428c-43 -203 -128 -282 -325 -282zM419 791l93 140h105l-126 -140h-72zM569 791l127 140h115l-165 -140
h-77z" />
    <glyph glyph-name="uhungarumlaut" unicode="&#x171;" horiz-adv-x="618" 
d="M122 174l76 356h87l-72 -337c-4 -19 -6 -35 -6 -49c0 -57 32 -79 102 -79c102 0 159 55 180 152l67 313h86l-113 -530h-74l7 95c-47 -74 -114 -105 -201 -105c-98 0 -146 40 -146 121c0 19 2 40 7 63zM324 617l93 140h105l-126 -140h-72zM474 617l127 140h115l-165 -140
h-77z" />
    <glyph glyph-name="Uogonek" unicode="&#x172;" horiz-adv-x="735" 
d="M368 -10c-129 0 -218 61 -218 190c0 33 7 86 20 148l79 372h90l-81 -379c-13 -60 -18 -106 -18 -130c0 -91 56 -121 141 -121c138 0 191 54 223 203l90 427h91l-92 -428c-38 -177 -107 -260 -255 -278c-42 -29 -91 -74 -91 -127c0 -23 14 -37 44 -37c19 0 39 5 60 16
l-10 -49c-22 -10 -48 -19 -81 -19c-60 0 -86 30 -86 68c0 61 51 111 101 144h-7z" />
    <glyph glyph-name="uogonek" unicode="&#x173;" horiz-adv-x="618" 
d="M425 -222c-60 0 -86 30 -86 68c0 68 64 120 119 154h-3l7 95c-47 -74 -114 -105 -201 -105c-98 0 -146 40 -146 121c0 19 2 40 7 63l76 356h87l-72 -337c-4 -19 -6 -35 -6 -49c0 -57 32 -79 102 -79c102 0 159 55 180 152l67 313h86l-113 -530h-16
c-44 -28 -101 -76 -101 -133c0 -23 14 -37 44 -37c19 0 39 5 60 16l-10 -49c-22 -10 -48 -19 -81 -19z" />
    <glyph glyph-name="Ydieresis" unicode="&#x178;" horiz-adv-x="618" 
d="M264 0l58 273l-152 427h96l118 -334l257 334h105l-333 -427l-59 -273h-90zM387 787c-36 0 -55 19 -55 53s19 53 55 53c37 0 55 -19 55 -53s-18 -53 -55 -53zM588 787c-36 0 -55 19 -55 53s19 53 55 53c37 0 55 -19 55 -53s-18 -53 -55 -53z" />
    <glyph glyph-name="Zacute" unicode="&#x179;" horiz-adv-x="606" 
d="M51 0l12 57l502 563h-370l17 80h495l-12 -57l-502 -563h388l-17 -80h-513zM435 765l122 150h114l-163 -150h-73z" />
    <glyph glyph-name="zacute" unicode="&#x17a;" horiz-adv-x="514" 
d="M45 0l12 57l387 398h-297l17 75h411l-11 -57l-387 -398h308l-16 -75h-424zM353 620l112 140h112l-153 -140h-71z" />
    <glyph glyph-name="Zdotaccent" unicode="&#x17b;" horiz-adv-x="606" 
d="M51 0l12 57l502 563h-370l17 80h495l-12 -57l-502 -563h388l-17 -80h-513zM485 786c-37 0 -56 19 -56 54s19 54 56 54s56 -19 56 -54s-19 -54 -56 -54z" />
    <glyph glyph-name="zdotaccent" unicode="&#x17c;" horiz-adv-x="514" 
d="M45 0l12 57l387 398h-297l17 75h411l-11 -57l-387 -398h308l-16 -75h-424zM403 638c-37 0 -56 19 -56 52s19 52 56 52c36 0 55 -19 55 -52s-19 -52 -55 -52z" />
    <glyph glyph-name="Zcaron" unicode="&#x17d;" horiz-adv-x="606" 
d="M51 0l12 57l502 563h-370l17 80h495l-12 -57l-502 -563h388l-17 -80h-513zM422 768l-90 150h70l76 -102l118 102h77l-154 -150h-97z" />
    <glyph glyph-name="zcaron" unicode="&#x17e;" horiz-adv-x="514" 
d="M45 0l12 57l387 398h-297l17 75h411l-11 -57l-387 -398h308l-16 -75h-424zM342 620l-81 140h69l65 -91l104 91h75l-140 -140h-92z" />
    <glyph glyph-name="uni018F" unicode="&#x18f;" horiz-adv-x="696" 
d="M339 -10c-139 0 -223 69 -223 221c0 57 11 110 24 166h480c5 26 9 53 9 79c0 92 -42 174 -194 174c-65 0 -129 -9 -184 -29l17 83c61 17 123 26 193 26c187 0 264 -89 264 -235c0 -224 -131 -485 -386 -485zM355 68c108 0 207 69 249 236h-388c-7 -29 -11 -60 -11 -91
c0 -95 50 -145 150 -145z" />
    <glyph glyph-name="florin" unicode="&#x192;" horiz-adv-x="601" 
d="M239 455l15 75h101l11 53c25 122 78 177 187 177c23 0 47 -2 71 -7l-15 -72c-10 2 -31 6 -56 6c-64 0 -87 -25 -106 -112l-10 -45h139l-15 -75h-140l-95 -455c-29 -139 -77 -190 -184 -190c-18 0 -33 1 -45 4l16 73c9 -2 18 -3 28 -3c52 0 83 28 101 115l97 456h-100z
" />
    <glyph glyph-name="uni01DD" unicode="&#x1dd;" horiz-adv-x="573" 
d="M359 287h127c2 11 4 30 4 50c0 79 -42 131 -147 131c-69 0 -149 -23 -197 -65l17 81c40 31 119 56 200 56c144 0 214 -78 214 -214c0 -193 -116 -336 -295 -336c-146 0 -196 61 -196 139c0 101 88 158 273 158zM349 226c-146 0 -175 -41 -175 -86c0 -41 25 -78 108 -78
c101 0 165 54 191 164h-124z" />
    <glyph glyph-name="Gcaron" unicode="&#x1e6;" horiz-adv-x="691" 
d="M414 -10c-177 0 -290 79 -290 263c0 148 71 312 162 383c70 55 146 74 264 74c76 0 144 -24 175 -39l-19 -92c-35 25 -104 51 -170 51c-80 0 -133 -10 -190 -55c-74 -59 -126 -195 -126 -314c0 -145 79 -191 211 -191c47 0 95 10 130 23l40 190h-152l16 77h235l-69 -324
c-40 -18 -121 -46 -217 -46zM503 768l-90 150h70l76 -102l118 102h77l-154 -150h-97z" />
    <glyph glyph-name="gcaron" unicode="&#x1e7;" horiz-adv-x="638" 
d="M260 -190c-86 0 -147 20 -181 39l20 93c24 -25 85 -57 173 -57c124 0 179 47 199 143l19 92c-41 -68 -95 -110 -189 -110c-126 0 -192 63 -192 187c0 172 74 343 283 343c95 0 153 -50 164 -123l38 113h66l-105 -497c-34 -163 -133 -223 -295 -223zM332 85
c110 0 168 78 185 162l9 44c21 104 -22 174 -127 174c-149 0 -199 -123 -199 -251c0 -89 45 -129 132 -129zM387 620l-81 140h69l65 -91l104 91h75l-140 -140h-92z" />
    <glyph glyph-name="Scommaaccent" unicode="&#x218;" horiz-adv-x="585" 
d="M291 -10c-78 0 -168 23 -211 57l22 100c46 -51 116 -79 191 -79c117 0 179 46 179 136c0 154 -294 95 -294 298c0 127 102 208 259 208c74 0 152 -16 197 -42l-20 -97c-45 39 -105 61 -175 61c-108 0 -165 -38 -165 -114c0 -152 294 -94 294 -304
c0 -142 -102 -224 -277 -224zM190 -236l8 40c39 9 65 23 75 59h-12c-32 0 -50 13 -50 35c0 37 30 53 73 53c31 0 53 -14 53 -47c0 -67 -63 -129 -147 -140z" />
    <glyph glyph-name="scommaaccent" unicode="&#x219;" horiz-adv-x="494" 
d="M66 25l20 96c31 -35 93 -59 156 -59c94 0 138 36 138 101c0 102 -239 48 -239 198c0 102 63 179 232 179c62 0 114 -13 141 -26l-19 -93c-35 31 -78 47 -135 47c-93 0 -130 -32 -130 -85c0 -101 239 -43 239 -198c0 -129 -91 -195 -242 -195c-65 0 -122 13 -161 35z
M147 -233l1 37c35 9 66 26 76 62c-7 -1 -12 -1 -16 -1c-27 0 -44 13 -44 35c0 35 34 51 72 51c30 0 51 -14 51 -48c0 -73 -75 -125 -140 -136z" />
    <glyph glyph-name="Tcommaaccent" unicode="&#x21a;" horiz-adv-x="583" 
d="M246 0l132 620h-221l17 80h532l-17 -80h-221l-132 -620h-90zM188 -236l8 40c39 9 65 23 75 59h-12c-32 0 -50 13 -50 35c0 37 30 53 73 53c31 0 53 -14 53 -47c0 -67 -63 -129 -147 -140z" />
    <glyph glyph-name="tcommaaccent" unicode="&#x21b;" horiz-adv-x="436" 
d="M159 149l64 306h-102l15 75h102l22 100l92 30l-28 -130h175l-16 -75h-174l-63 -299c-3 -15 -5 -27 -5 -38c0 -41 22 -48 64 -48c46 0 83 14 109 28l-16 -78c-23 -13 -70 -25 -120 -25c-85 0 -127 24 -127 96c0 17 3 35 8 58zM182 -233l1 37c35 9 66 26 76 62
c-7 -1 -12 -1 -16 -1c-27 0 -44 13 -44 35c0 35 34 51 72 51c30 0 51 -14 51 -48c0 -73 -75 -125 -140 -136z" />
    <glyph glyph-name="uni0237" unicode="&#x237;" horiz-adv-x="291" 
d="M-67 -175l17 82c14 -9 35 -14 63 -14c48 0 72 22 84 80l118 557h86l-118 -556c-24 -112 -77 -159 -179 -159c-33 0 -59 4 -71 10z" />
    <glyph glyph-name="uni0259" unicode="&#x259;" horiz-adv-x="573" 
d="M359 287h127c2 11 4 30 4 50c0 79 -42 131 -147 131c-69 0 -149 -23 -197 -65l17 81c40 31 119 56 200 56c144 0 214 -78 214 -214c0 -193 -116 -336 -295 -336c-146 0 -196 61 -196 139c0 101 88 158 273 158zM349 226c-146 0 -175 -41 -175 -86c0 -41 25 -78 108 -78
c101 0 165 54 191 164h-124z" />
    <glyph glyph-name="afii57929" unicode="&#x2bc;" horiz-adv-x="260" 
d="M164 495l96 205h90l-121 -205h-65z" />
    <glyph glyph-name="circumflex" unicode="&#x2c6;" horiz-adv-x="334" 
d="M141 620l140 140h93l81 -140h-69l-65 92l-104 -92h-76z" />
    <glyph glyph-name="caron" unicode="&#x2c7;" horiz-adv-x="334" 
d="M252 620l-81 140h69l65 -91l104 91h75l-140 -140h-92z" />
    <glyph glyph-name="breve" unicode="&#x2d8;" horiz-adv-x="328" 
d="M168 743l57 17c5 -50 28 -80 83 -80s91 30 118 80l50 -17c-41 -81 -101 -123 -181 -123s-121 42 -127 123z" />
    <glyph glyph-name="dotaccent" unicode="&#x2d9;" horiz-adv-x="135" 
d="M214 638c-37 0 -56 19 -56 52s19 52 56 52c36 0 55 -19 55 -52s-19 -52 -55 -52z" />
    <glyph glyph-name="ring" unicode="&#x2da;" horiz-adv-x="219" 
d="M255 593c-58 0 -97 39 -97 97s39 97 97 97s97 -39 97 -97s-39 -97 -97 -97zM255 642c30 0 49 18 49 48s-19 49 -49 49s-48 -19 -48 -49s18 -48 48 -48z" />
    <glyph glyph-name="ogonek" unicode="&#x2db;" horiz-adv-x="201" 
d="M66 -222c-60 0 -86 30 -86 68c0 75 78 131 136 164l43 -7c-44 -28 -106 -77 -106 -136c0 -23 14 -37 44 -37c19 0 39 5 60 16l-10 -49c-22 -10 -48 -19 -81 -19z" />
    <glyph glyph-name="tilde" unicode="&#x2dc;" horiz-adv-x="312" 
d="M200 638l-51 11c4 59 37 94 85 94c25 0 45 -11 74 -24c27 -12 42 -21 60 -21s30 12 36 44l51 -12c-6 -60 -41 -93 -84 -93c-23 0 -37 5 -76 24c-25 11 -38 22 -57 22c-17 0 -31 -12 -38 -45z" />
    <glyph glyph-name="hungarumlaut" unicode="&#x2dd;" horiz-adv-x="383" 
d="M141 617l93 140h105l-126 -140h-72zM291 617l127 140h115l-165 -140h-77z" />
    <glyph glyph-name="acutecomb" unicode="&#x301;" horiz-adv-x="0" 
d="M-212 620l112 140h112l-153 -140h-71z" />
    <glyph glyph-name="uni0394" unicode="&#x394;" horiz-adv-x="647" 
d="M25 0l252 700h94l252 -700h-598zM141 81h361l-179 516h-2z" />
    <glyph glyph-name="uni0394" unicode="&#x2206;" horiz-adv-x="647" 
d="M25 0l252 700h94l252 -700h-598zM141 81h361l-179 516h-2z" />
    <glyph glyph-name="uni03A9" unicode="&#x3a9;" horiz-adv-x="891" 
d="M191 0v78h178v61c-103 34 -189 115 -189 270c0 180 126 301 319 301c196 0 318 -119 318 -301c0 -151 -92 -235 -187 -270v-61h176v-78h-258v192c123 21 178 117 178 212c0 137 -90 227 -227 227s-228 -90 -228 -227c0 -99 53 -191 180 -212v-192h-260z" />
    <glyph glyph-name="uni03A9" unicode="&#x2126;" horiz-adv-x="891" 
d="M191 0v78h178v61c-103 34 -189 115 -189 270c0 180 126 301 319 301c196 0 318 -119 318 -301c0 -151 -92 -235 -187 -270v-61h176v-78h-258v192c123 21 178 117 178 212c0 137 -90 227 -227 227s-228 -90 -228 -227c0 -99 53 -191 180 -212v-192h-260z" />
    <glyph glyph-name="pi" unicode="&#x3c0;" horiz-adv-x="669" 
d="M144 0l95 452c-35 0 -72 -15 -95 -30l-14 72c28 17 77 36 162 36h434l-17 -76h-76l-67 -314c-3 -15 -5 -27 -5 -37c0 -24 9 -35 33 -35c8 0 18 1 26 3l-16 -77c-17 -3 -33 -5 -49 -5c-59 0 -86 24 -86 77c0 16 2 34 7 55l71 333h-221l-97 -454h-85z" />
    <glyph glyph-name="afii10023" unicode="&#x401;" horiz-adv-x="602" 
d="M105 0l149 700h430l-17 -80h-340l-47 -223h310l-17 -77h-310l-51 -240h340l-17 -80h-430zM397 787c-36 0 -55 19 -55 53s19 53 55 53c37 0 55 -19 55 -53s-18 -53 -55 -53zM598 787c-36 0 -55 19 -55 53s19 53 55 53c37 0 55 -19 55 -53s-18 -53 -55 -53z" />
    <glyph glyph-name="afii10051" unicode="&#x402;" horiz-adv-x="796" 
d="M246 0l132 620h-221l17 80h532l-17 -80h-221l-46 -214c52 23 111 40 186 40c130 0 181 -60 181 -143c0 -15 -1 -32 -5 -49l-14 -65c-27 -126 -103 -200 -228 -200c-28 0 -57 4 -76 10l17 77c14 -8 34 -13 61 -13c70 0 116 44 133 124l9 43c3 14 6 33 6 45
c0 58 -34 92 -121 92c-63 0 -118 -18 -165 -38l-70 -329h-90z" />
    <glyph glyph-name="afii10052" unicode="&#x403;" horiz-adv-x="552" 
d="M105 0l149 700h411l-18 -80h-320l-132 -620h-90zM436 765l122 150h114l-163 -150h-73z" />
    <glyph glyph-name="afii10053" unicode="&#x404;" horiz-adv-x="650" 
d="M730 670l-20 -91c-45 33 -117 51 -190 51c-83 0 -142 -20 -195 -75c-37 -39 -67 -96 -86 -160h334l-16 -73h-333c-4 -24 -5 -47 -5 -70c0 -127 70 -182 196 -182c79 0 161 27 200 48l-19 -90c-44 -18 -121 -38 -197 -38c-169 0 -277 73 -277 254c0 113 48 281 145 374
c68 64 154 92 261 92c85 0 164 -20 202 -40z" />
    <glyph glyph-name="afii10054" unicode="&#x405;" horiz-adv-x="585" 
d="M291 -10c-78 0 -168 23 -211 57l22 100c46 -51 116 -79 191 -79c117 0 179 46 179 136c0 154 -294 95 -294 298c0 127 102 208 259 208c74 0 152 -16 197 -42l-20 -97c-45 39 -105 61 -175 61c-108 0 -165 -38 -165 -114c0 -152 294 -94 294 -304
c0 -142 -102 -224 -277 -224z" />
    <glyph glyph-name="afii10055" unicode="&#x406;" horiz-adv-x="310" 
d="M110 0l149 700h90l-149 -700h-90z" />
    <glyph glyph-name="afii10056" unicode="&#x407;" horiz-adv-x="310" 
d="M110 0l149 700h90l-149 -700h-90zM233 787c-36 0 -55 19 -55 53s19 53 55 53c37 0 55 -19 55 -53s-18 -53 -55 -53zM434 787c-36 0 -55 19 -55 53s19 53 55 53c37 0 55 -19 55 -53s-18 -53 -55 -53z" />
    <glyph glyph-name="afii10057" unicode="&#x408;" horiz-adv-x="408" 
d="M131 -5c-37 0 -74 8 -105 25l18 85c32 -22 57 -30 92 -30c67 0 99 29 117 113l109 512h90l-111 -525c-27 -128 -89 -180 -210 -180z" />
    <glyph glyph-name="afii10058" unicode="&#x409;" horiz-adv-x="1040" 
d="M61 -7c-12 0 -29 3 -41 7l20 95c7 -5 21 -8 31 -8c77 0 130 103 222 473l35 140h432l-55 -257c43 4 72 6 111 6c140 0 219 -66 219 -173c0 -228 -142 -281 -340 -281c-58 0 -120 3 -173 9l131 616h-257l-29 -109c-101 -379 -162 -518 -306 -518zM628 78
c28 -2 60 -2 91 -2c135 0 219 35 219 182c0 91 -70 111 -154 111c-37 0 -59 -2 -96 -5z" />
    <glyph glyph-name="afii10059" unicode="&#x40a;" horiz-adv-x="1071" 
d="M725 -5c-58 0 -119 3 -172 9l67 316h-357l-68 -320h-90l149 700h90l-64 -300h357l64 300h90l-55 -257c43 4 72 6 111 6c140 0 219 -66 219 -173c0 -228 -142 -281 -341 -281zM659 78c28 -2 60 -2 91 -2c134 0 219 35 219 182c0 91 -70 111 -154 111c-37 0 -60 -2 -96 -5z
" />
    <glyph glyph-name="afii10060" unicode="&#x40b;" horiz-adv-x="798" 
d="M246 0l132 620h-221l17 80h532l-17 -80h-221l-45 -213c55 27 113 38 174 38c119 0 190 -56 190 -148c0 -27 -7 -71 -12 -96l-43 -201h-90l39 183c8 34 14 73 14 89c0 68 -49 93 -132 93c-52 0 -105 -9 -157 -34l-70 -331h-90z" />
    <glyph glyph-name="afii10061" unicode="&#x40c;" horiz-adv-x="693" 
d="M564 0l-232 319h-69l-68 -319h-90l149 700h90l-64 -301h57l330 301h114l-378 -340l263 -360h-102zM472 765l122 150h114l-163 -150h-73z" />
    <glyph glyph-name="afii10062" unicode="&#x40e;" horiz-adv-x="663" 
d="M151 10l19 87c15 -14 38 -27 65 -27c45 0 81 46 109 93l-168 537h99l132 -442l277 442h101l-362 -564c-71 -112 -121 -146 -197 -146c-28 0 -57 9 -75 20zM494 770c-84 0 -133 34 -133 109c0 10 1 20 2 31h74c-2 -7 -3 -17 -3 -24c0 -42 23 -59 72 -59c57 0 89 23 107 83
h71c-26 -97 -96 -140 -190 -140z" />
    <glyph glyph-name="afii10145" unicode="&#x40f;" horiz-adv-x="748" 
d="M105 0l149 700h90l-131 -620h357l132 620h90l-149 -700h-228l-28 -135h-84l28 135h-226z" />
    <glyph glyph-name="afii10017" unicode="&#x410;" horiz-adv-x="671" 
d="M25 0l410 700h99l112 -700h-91l-28 187h-300l-107 -187h-95zM465 600l-193 -335h243z" />
    <glyph glyph-name="afii10018" unicode="&#x411;" horiz-adv-x="653" 
d="M298 -5c-67 0 -128 1 -192 7l149 698h423l-18 -80h-332l-43 -202c52 4 89 5 128 5c141 0 221 -48 221 -173c0 -177 -131 -255 -336 -255zM212 80c37 -5 67 -5 107 -5c154 0 219 50 219 170c0 73 -46 103 -159 103c-29 0 -67 -2 -111 -6z" />
    <glyph glyph-name="afii10019" unicode="&#x412;" horiz-adv-x="654" 
d="M105 1l148 698c72 4 141 6 201 6c135 0 225 -33 225 -142c0 -113 -48 -180 -158 -203c76 -11 117 -53 117 -129c0 -77 -24 -144 -84 -185c-53 -37 -143 -51 -237 -51c-69 0 -150 0 -212 6zM264 325l-52 -249c41 -3 82 -3 123 -3c145 0 206 43 206 154
c0 68 -37 98 -141 98h-136zM278 393h126c122 0 179 45 179 142c0 63 -31 92 -133 92c-41 0 -79 -1 -123 -3z" />
    <glyph glyph-name="afii10020" unicode="&#x413;" horiz-adv-x="552" 
d="M105 0l149 700h411l-18 -80h-320l-132 -620h-90z" />
    <glyph glyph-name="afii10021" unicode="&#x414;" horiz-adv-x="739" 
d="M1 -135l46 215h68c97 134 155 309 200 515l23 105h424l-132 -620h85l-46 -215h-82l29 135h-504l-29 -135h-82zM540 80l114 540h-249l-12 -54c-40 -176 -98 -353 -186 -486h333z" />
    <glyph glyph-name="afii10022" unicode="&#x415;" horiz-adv-x="602" 
d="M105 0l149 700h430l-17 -80h-340l-47 -223h310l-17 -77h-310l-51 -240h340l-17 -80h-430z" />
    <glyph glyph-name="afii10024" unicode="&#x416;" horiz-adv-x="909" 
d="M27 0l320 362l-156 338h94l139 -304h71l64 304h90l-64 -304h58l270 304h101l-296 -338l164 -362h-99l-143 321h-71l-69 -321h-90l68 321h-58l-283 -321h-110z" />
    <glyph glyph-name="afii10025" unicode="&#x417;" horiz-adv-x="591" 
d="M70 37l20 98c51 -45 112 -65 196 -65c59 0 107 12 138 33c36 26 58 67 58 121c0 61 -47 99 -146 99h-97l16 71h87c111 0 183 46 183 138c0 56 -37 98 -132 98c-66 0 -133 -16 -192 -51l20 98c55 20 120 33 202 33c132 0 198 -57 198 -148c0 -107 -61 -173 -168 -201
c78 -11 125 -57 125 -130c0 -85 -34 -151 -98 -193c-52 -34 -126 -48 -211 -48c-83 0 -162 24 -199 47z" />
    <glyph glyph-name="afii10026" unicode="&#x418;" horiz-adv-x="771" 
d="M105 0l149 700h89l-95 -448c-7 -34 -21 -94 -33 -132c25 34 64 83 91 114l413 466h96l-149 -700h-90l95 448c7 33 22 94 32 132c-25 -33 -65 -85 -90 -113l-412 -467h-96z" />
    <glyph glyph-name="afii10027" unicode="&#x419;" horiz-adv-x="771" 
d="M105 0l149 700h89l-95 -448c-7 -34 -21 -94 -33 -132c25 34 64 83 91 114l413 466h96l-149 -700h-90l95 448c7 33 22 94 32 132c-25 -33 -65 -85 -90 -113l-412 -467h-96zM549 770c-84 0 -133 34 -133 109c0 10 1 20 2 31h74c-2 -7 -3 -17 -3 -24c0 -42 23 -59 72 -59
c57 0 89 23 107 83h71c-26 -97 -96 -140 -190 -140z" />
    <glyph glyph-name="afii10028" unicode="&#x41a;" horiz-adv-x="693" 
d="M564 0l-232 319h-69l-68 -319h-90l149 700h90l-64 -301h57l330 301h114l-378 -340l263 -360h-102z" />
    <glyph glyph-name="afii10029" unicode="&#x41b;" horiz-adv-x="718" 
d="M61 -5c-12 0 -29 3 -41 7l20 95c7 -4 20 -8 31 -8c77 0 129 101 222 471l35 140h434l-149 -700h-90l131 620h-258l-29 -109c-101 -379 -162 -516 -306 -516z" />
    <glyph glyph-name="afii10030" unicode="&#x41c;" horiz-adv-x="882" 
d="M105 0l149 700h109l132 -434l314 434h116l-148 -700h-90l100 466c7 31 19 83 29 120c-27 -40 -64 -95 -81 -119l-220 -301h-75l-93 300c-8 27 -23 83 -33 123c-5 -38 -14 -91 -21 -122l-99 -467h-89z" />
    <glyph glyph-name="afii10031" unicode="&#x41d;" horiz-adv-x="771" 
d="M105 0l149 700h90l-64 -300h381l64 300h90l-149 -700h-90l67 320h-380l-68 -320h-90z" />
    <glyph glyph-name="afii10032" unicode="&#x41e;" horiz-adv-x="773" 
d="M397 -10c-167 0 -271 100 -271 267c0 132 49 290 154 377c72 60 151 76 249 76c169 0 266 -96 266 -266c0 -149 -60 -305 -152 -378c-73 -57 -155 -76 -246 -76zM411 70c79 0 136 20 181 64c72 71 107 195 107 299c0 129 -59 197 -190 197c-66 0 -116 -13 -162 -50
c-87 -69 -125 -211 -125 -315c0 -125 63 -195 189 -195z" />
    <glyph glyph-name="afii10033" unicode="&#x41f;" horiz-adv-x="758" 
d="M105 0l149 700h548l-149 -700h-90l131 620h-367l-132 -620h-90z" />
    <glyph glyph-name="afii10034" unicode="&#x420;" horiz-adv-x="636" 
d="M104 0l148 696c57 5 117 9 193 9c169 0 237 -67 237 -183c0 -102 -32 -180 -102 -233c-51 -38 -136 -56 -237 -56c-34 0 -66 2 -98 6l-50 -239h-91zM262 318c36 -4 61 -5 98 -5c62 0 126 3 169 39c37 32 57 83 57 157c0 69 -35 116 -156 116c-37 0 -66 -1 -103 -4z" />
    <glyph glyph-name="afii10035" unicode="&#x421;" horiz-adv-x="644" 
d="M709 671l-20 -91c-45 33 -97 50 -170 50c-83 0 -142 -20 -196 -75c-63 -66 -105 -193 -105 -303c0 -127 70 -182 196 -182c78 0 147 26 187 47l-19 -90c-45 -18 -108 -37 -184 -37c-170 0 -276 73 -276 254c0 113 47 281 144 374c68 64 154 92 261 92
c85 0 144 -19 182 -39z" />
    <glyph glyph-name="afii10036" unicode="&#x422;" horiz-adv-x="583" 
d="M246 0l132 620h-221l17 80h532l-17 -80h-221l-132 -620h-90z" />
    <glyph glyph-name="afii10037" unicode="&#x423;" horiz-adv-x="663" 
d="M151 10l19 87c15 -14 38 -27 65 -27c45 0 81 46 109 93l-168 537h99l132 -442l277 442h101l-362 -564c-71 -112 -121 -146 -197 -146c-28 0 -57 9 -75 20z" />
    <glyph glyph-name="afii10038" unicode="&#x424;" horiz-adv-x="904" 
d="M401 -20l18 82h-16c-166 0 -273 68 -273 227c0 131 57 245 140 301c62 42 144 62 252 62h22l15 68h90l-15 -68h21c150 0 270 -56 270 -227c0 -117 -43 -235 -126 -298c-65 -48 -148 -65 -268 -65h-21l-18 -82h-91zM525 142h21c107 0 149 9 190 40c58 45 93 133 93 232
c0 123 -75 158 -192 158h-20zM437 142l92 430h-17c-75 0 -141 -8 -188 -44c-51 -40 -98 -128 -98 -232c0 -118 76 -154 190 -154h21z" />
    <glyph glyph-name="afii10039" unicode="&#x425;" horiz-adv-x="651" 
d="M28 0l314 362l-147 338h98l119 -273l235 273h110l-295 -341l162 -359h-99l-135 295l-252 -295h-110z" />
    <glyph glyph-name="afii10040" unicode="&#x426;" horiz-adv-x="759" 
d="M607 -135l29 135h-531l149 700h90l-132 -620h347l133 620h90l-132 -620h85l-46 -215h-82z" />
    <glyph glyph-name="afii10041" unicode="&#x427;" horiz-adv-x="657" 
d="M462 0l62 293c-39 -22 -101 -38 -174 -38c-119 0 -190 56 -190 148c0 27 8 71 13 96l42 201h90l-39 -183c-7 -34 -13 -74 -13 -89c0 -69 48 -93 131 -93c64 0 120 14 157 35l70 330h90l-149 -700h-90z" />
    <glyph glyph-name="afii10042" unicode="&#x428;" horiz-adv-x="956" 
d="M105 0l149 700h90l-132 -620h238l132 620h90l-132 -620h238l132 620h91l-149 -700h-747z" />
    <glyph glyph-name="afii10043" unicode="&#x429;" horiz-adv-x="978" 
d="M105 0l149 700h90l-132 -620h238l132 620h90l-132 -620h238l132 620h91l-132 -620h84l-45 -215h-83l29 135h-749z" />
    <glyph glyph-name="afii10044" unicode="&#x42a;" horiz-adv-x="694" 
d="M157 620l17 80h240l-55 -257c43 4 72 6 111 6c140 0 218 -66 218 -173c0 -228 -141 -281 -340 -281c-58 0 -119 3 -172 9l131 616h-150zM282 78c28 -2 60 -2 91 -2c134 0 219 35 219 182c0 91 -70 111 -154 111c-37 0 -60 -2 -96 -5z" />
    <glyph glyph-name="afii10045" unicode="&#x42b;" horiz-adv-x="852" 
d="M656 -1l149 701h90l-149 -701h-90zM278 -5c-58 0 -119 4 -172 10l148 695h90l-55 -256c43 4 72 6 111 6c140 0 218 -66 218 -173c0 -228 -142 -282 -340 -282zM212 80c28 -3 60 -5 91 -5c134 0 219 37 219 184c0 91 -70 111 -154 111c-37 0 -60 -2 -96 -5z" />
    <glyph glyph-name="afii10046" unicode="&#x42c;" horiz-adv-x="624" 
d="M278 -5c-58 0 -119 2 -172 8l148 697h90l-55 -257c43 4 72 6 111 6c139 0 218 -65 218 -173c0 -229 -142 -281 -340 -281zM211 78c29 -2 60 -3 92 -3c134 0 219 35 219 183c0 92 -70 111 -154 111c-37 0 -60 -1 -96 -5z" />
    <glyph glyph-name="afii10047" unicode="&#x42d;" horiz-adv-x="655" 
d="M233 322l15 73h329c1 17 2 33 2 48c0 127 -65 187 -195 187c-84 0 -149 -22 -201 -52l21 99c43 16 115 33 201 33s156 -21 199 -62c48 -45 71 -112 71 -195c0 -160 -48 -301 -137 -378c-78 -67 -164 -85 -277 -85c-88 0 -157 25 -190 44l20 94c40 -32 98 -58 185 -58
c81 0 147 17 200 63c49 43 77 118 91 189h-334z" />
    <glyph glyph-name="afii10048" unicode="&#x42e;" horiz-adv-x="1017" 
d="M652 -10c-166 0 -258 94 -258 264c0 22 1 43 3 65h-134l-68 -319h-90l149 700h90l-64 -301h131c24 100 71 186 131 235c70 56 145 76 241 76c176 0 256 -101 256 -264c0 -162 -63 -316 -159 -388c-65 -50 -137 -68 -228 -68zM667 70c168 0 275 142 275 365
c0 136 -55 195 -180 195c-66 0 -121 -21 -163 -60c-69 -65 -110 -176 -110 -307c0 -128 58 -193 178 -193z" />
    <glyph glyph-name="afii10049" unicode="&#x42f;" horiz-adv-x="661" 
d="M42 0l248 277c-61 15 -112 70 -112 148c0 98 36 188 112 235c54 34 134 45 233 45c62 0 126 -3 180 -7l-148 -698h-90l56 263h-140l-231 -263h-108zM538 340l60 282c-42 2 -70 3 -106 3c-65 0 -116 -8 -152 -32c-46 -30 -66 -85 -66 -154c0 -68 44 -99 138 -99h126z" />
    <glyph glyph-name="afii10065" unicode="&#x430;" horiz-adv-x="642" 
d="M480 0l8 96c-43 -67 -102 -106 -194 -106c-122 0 -189 70 -189 188c0 179 79 362 288 362c90 0 151 -43 167 -121l39 111h66l-112 -530h-73zM194 194c0 -88 50 -129 133 -129c109 0 167 73 189 167l11 58c4 17 5 33 5 48c0 78 -43 127 -134 127
c-148 0 -204 -140 -204 -271z" />
    <glyph glyph-name="afii10066" unicode="&#x431;" horiz-adv-x="636" 
d="M345 -10c-137 0 -222 61 -222 202c0 29 1 61 7 97c55 351 169 425 360 449c75 9 157 16 203 34l-20 -90c-28 -11 -71 -16 -178 -27c-141 -13 -224 -53 -267 -230l-10 -39c55 92 139 134 244 134c107 0 179 -62 179 -180c0 -210 -111 -350 -296 -350zM346 65
c140 0 206 109 206 251c0 91 -55 129 -125 129c-142 0 -215 -99 -215 -241c0 -93 44 -139 134 -139z" />
    <glyph glyph-name="afii10067" unicode="&#x432;" horiz-adv-x="578" 
d="M112 103l91 427c53 2 119 5 193 5c147 0 183 -36 183 -106c0 -67 -34 -127 -126 -148c66 -8 97 -38 97 -103c0 -111 -77 -183 -269 -183c-135 0 -185 31 -169 108zM227 243l-26 -124c-8 -40 18 -53 103 -53c109 0 158 27 158 108c0 51 -31 69 -106 69h-129zM240 305h125
c77 0 126 28 126 99c0 43 -22 60 -108 60c-47 0 -75 -1 -108 -3z" />
    <glyph glyph-name="afii10068" unicode="&#x433;" horiz-adv-x="466" 
d="M90 0l113 530h341l-16 -77h-255l-96 -453h-87z" />
    <glyph glyph-name="afii10069" unicode="&#x434;" horiz-adv-x="628" 
d="M329 -10c-149 0 -221 82 -221 202c0 213 110 333 281 333c86 0 154 -40 173 -98c2 15 2 27 2 34c0 162 -83 219 -237 233l16 66c224 -8 299 -122 299 -288c0 -68 -9 -138 -24 -213c-34 -178 -132 -269 -289 -269zM333 65c140 0 205 122 205 247c0 90 -52 138 -143 138
c-120 0 -198 -86 -198 -242c0 -86 38 -143 136 -143z" />
    <glyph glyph-name="afii10070" unicode="&#x435;" horiz-adv-x="573" 
d="M322 -10c-143 0 -214 78 -214 213c0 193 117 337 296 337c146 0 196 -60 196 -138c0 -101 -88 -157 -273 -157h-127c-2 -11 -5 -33 -5 -53c0 -79 43 -130 148 -130c68 0 148 23 196 65l-16 -81c-40 -31 -120 -56 -201 -56zM336 306c147 0 175 40 175 84
c0 41 -25 78 -107 78c-102 0 -165 -53 -192 -162h124z" />
    <glyph glyph-name="afii10072" unicode="&#x436;" horiz-adv-x="779" 
d="M27 0l243 287l-115 243h88l100 -218h70l47 218h87l-47 -218h71l184 218h96l-216 -262l117 -268h-95l-100 237h-74l-49 -237h-87l50 237h-68l-201 -237h-101z" />
    <glyph glyph-name="afii10073" unicode="&#x437;" horiz-adv-x="517" 
d="M61 25l20 95c32 -29 91 -57 173 -57c109 0 153 41 153 111c0 44 -30 67 -118 67h-80l13 62h88c92 0 127 46 127 104c0 40 -27 60 -108 60c-69 0 -124 -20 -175 -51l20 91c49 19 108 33 185 33c125 0 171 -36 171 -102c0 -75 -34 -138 -130 -159c65 -4 99 -38 99 -93
c0 -115 -79 -196 -266 -196c-58 0 -129 11 -172 35z" />
    <glyph glyph-name="afii10074" unicode="&#x438;" horiz-adv-x="618" 
d="M122 174l76 356h87l-72 -337c-4 -19 -6 -35 -6 -49c0 -57 32 -79 102 -79c102 0 159 55 180 152l67 313h86l-113 -530h-74l7 95c-47 -74 -114 -105 -201 -105c-98 0 -146 40 -146 121c0 19 2 40 7 63z" />
    <glyph glyph-name="afii10075" unicode="&#x439;" horiz-adv-x="618" 
d="M122 174l76 356h87l-72 -337c-4 -19 -6 -35 -6 -49c0 -57 32 -79 102 -79c102 0 159 55 180 152l67 313h86l-113 -530h-74l7 95c-47 -74 -114 -105 -201 -105c-98 0 -146 40 -146 121c0 19 2 40 7 63zM436 620c-78 0 -126 36 -126 110c0 9 0 19 2 30h71
c-1 -8 -1 -15 -1 -22c0 -42 22 -62 66 -62c51 0 86 27 103 84h69c-26 -94 -96 -140 -184 -140z" />
    <glyph glyph-name="afii10076" unicode="&#x43a;" horiz-adv-x="576" 
d="M90 0l113 530h86l-47 -218h66l230 218h106l-265 -254l170 -276h-104l-144 237h-75l-50 -237h-86z" />
    <glyph glyph-name="afii10077" unicode="&#x43b;" horiz-adv-x="608" 
d="M29 0l20 95c8 -3 15 -5 24 -5c60 0 106 65 176 376l15 64h368l-113 -530h-87l97 455h-202l-9 -39c-73 -325 -148 -421 -251 -421c-15 0 -27 2 -38 5z" />
    <glyph glyph-name="afii10078" unicode="&#x43c;" horiz-adv-x="722" 
d="M90 0l113 530h109l95 -314l225 314h113l-113 -530h-83l70 333c7 36 20 79 31 118c-25 -39 -57 -87 -75 -111l-157 -213h-59l-65 212c-8 26 -21 74 -31 112c-5 -36 -11 -83 -19 -120l-71 -331h-83z" />
    <glyph glyph-name="afii10079" unicode="&#x43d;" horiz-adv-x="626" 
d="M90 0l113 530h86l-47 -222h274l47 222h86l-113 -530h-86l49 233h-274l-49 -233h-86z" />
    <glyph glyph-name="afii10080" unicode="&#x43e;" horiz-adv-x="616" 
d="M105 194c0 209 114 346 308 346c119 0 207 -67 207 -201c0 -212 -103 -349 -289 -349c-153 0 -226 84 -226 204zM194 210c0 -88 39 -145 143 -145c134 0 194 122 194 259c0 91 -40 141 -127 141c-128 0 -210 -102 -210 -255z" />
    <glyph glyph-name="afii10081" unicode="&#x43f;" horiz-adv-x="625" 
d="M90 0l113 530h73l-8 -94c47 71 114 104 201 104c102 0 157 -32 157 -122c0 -21 -3 -46 -9 -74l-73 -344h-87l69 322c5 25 7 46 7 64c0 60 -33 79 -110 79c-98 0 -161 -57 -181 -151l-66 -314h-86z" />
    <glyph glyph-name="afii10082" unicode="&#x440;" horiz-adv-x="642" 
d="M51 -180l152 710h71l-10 -95c41 68 99 105 193 105c126 0 192 -69 192 -187c0 -179 -79 -363 -288 -363c-93 0 -151 50 -163 118l-61 -288h-86zM354 65c148 0 206 142 206 272c0 88 -49 128 -134 128c-106 0 -167 -73 -187 -166l-12 -56c-22 -104 26 -178 127 -178z" />
    <glyph glyph-name="afii10083" unicode="&#x441;" horiz-adv-x="548" 
d="M520 122l-18 -84c-35 -24 -100 -48 -178 -48c-137 0 -219 76 -219 210c0 204 108 340 312 340c73 0 128 -17 154 -35l-20 -88c-27 22 -78 48 -144 48c-138 0 -213 -96 -213 -251c0 -85 49 -149 159 -149c61 0 125 26 167 57z" />
    <glyph glyph-name="afii10084" unicode="&#x442;" horiz-adv-x="896" 
d="M90 0l112 530h73l-9 -95c36 66 100 105 182 105c86 0 127 -36 125 -111c39 77 109 111 194 111c94 0 133 -39 133 -109c0 -18 -2 -37 -7 -59l-78 -372h-86l72 345c4 18 6 34 6 47c0 51 -27 73 -94 73c-80 0 -131 -52 -148 -134l-70 -331h-86l72 342c4 18 5 35 5 48
c0 55 -29 75 -89 75c-87 0 -136 -57 -152 -134l-69 -331h-86z" />
    <glyph glyph-name="afii10085" unicode="&#x443;" horiz-adv-x="541" 
d="M66 -178l18 82c12 -9 29 -19 54 -19c41 0 71 44 111 116l-115 529h94l79 -426l227 426h96l-303 -537c-86 -153 -135 -183 -204 -183c-24 0 -44 6 -57 12z" />
    <glyph glyph-name="afii10086" unicode="&#x444;" horiz-adv-x="776" 
d="M305 -180l38 179c-18 -4 -35 -4 -56 -4c-126 0 -183 55 -183 173c0 235 112 367 308 367c18 0 32 -1 45 -4l45 219h86l-45 -220c18 4 34 5 56 5c127 0 185 -53 185 -171c0 -238 -109 -369 -309 -369c-16 0 -32 1 -46 3l-38 -178h-86zM528 457l-83 -385c11 -1 20 -2 34 -2
c140 0 214 96 214 275c0 83 -37 115 -127 115c-17 0 -26 -1 -38 -3zM358 72l83 385c-9 2 -20 3 -35 3c-137 0 -212 -95 -212 -272c0 -82 39 -118 122 -118c20 0 30 0 42 2z" />
    <glyph glyph-name="afii10087" unicode="&#x445;" horiz-adv-x="539" 
d="M27 0l244 275l-117 255h94l88 -196l172 196h101l-226 -252l128 -278h-95l-99 217l-188 -217h-102z" />
    <glyph glyph-name="afii10088" unicode="&#x446;" horiz-adv-x="634" 
d="M90 0l113 530h85l-97 -455h259l97 455h85l-97 -455h77l-45 -210h-81l29 135h-425z" />
    <glyph glyph-name="afii10089" unicode="&#x447;" horiz-adv-x="570" 
d="M393 0l44 206c-31 -13 -91 -25 -143 -25c-102 0 -162 30 -162 111c0 12 1 30 5 47l40 191h86l-38 -174c-2 -11 -4 -20 -4 -31c0 -48 33 -69 104 -69c50 0 95 9 127 21l54 253h86l-113 -530h-86z" />
    <glyph glyph-name="afii10090" unicode="&#x448;" horiz-adv-x="822" 
d="M90 0l113 530h86l-97 -455h192l96 455h87l-97 -455h192l97 455h86l-113 -530h-642z" />
    <glyph glyph-name="afii10091" unicode="&#x449;" horiz-adv-x="847" 
d="M90 0l113 530h86l-97 -455h192l96 455h87l-97 -455h192l97 455h86l-97 -455h77l-45 -210h-80l28 135h-638z" />
    <glyph glyph-name="afii10092" unicode="&#x44a;" horiz-adv-x="615" 
d="M122 455l16 75h218l-38 -179c39 3 61 4 103 4c134 0 191 -35 191 -125c0 -154 -83 -235 -284 -235c-118 0 -155 23 -155 70c0 8 1 17 3 27l77 363h-131zM351 67c117 0 172 40 172 143c0 57 -37 73 -138 73c-31 0 -50 -1 -84 -4l-35 -164c-1 -6 -2 -12 -2 -17
c0 -22 18 -31 87 -31z" />
    <glyph glyph-name="afii10093" unicode="&#x44b;" horiz-adv-x="741" 
d="M252 -5c-116 0 -146 23 -146 70c0 8 1 18 3 27l94 438h86l-38 -179c39 3 59 4 93 4c124 0 181 -35 181 -125c0 -154 -82 -235 -273 -235zM274 67c108 0 163 40 163 142c0 58 -37 74 -129 74c-24 0 -41 -1 -74 -5l-35 -163c-1 -6 -2 -12 -2 -17c0 -22 11 -31 77 -31z
M651 0h-86l113 530h86z" />
    <glyph glyph-name="afii10094" unicode="&#x44c;" horiz-adv-x="547" 
d="M261 -5c-118 0 -155 23 -155 70c0 8 1 17 3 27l93 438h87l-38 -179c39 3 61 4 103 4c134 0 191 -35 191 -125c0 -154 -83 -235 -284 -235zM284 67c117 0 172 40 172 143c0 57 -37 73 -138 73c-31 0 -50 -1 -84 -4l-35 -164c-1 -6 -2 -12 -2 -17c0 -22 18 -31 87 -31z" />
    <glyph glyph-name="afii10095" unicode="&#x44d;" horiz-adv-x="548" 
d="M202 237l14 66h247v12c0 94 -52 149 -155 149c-60 0 -125 -21 -171 -55l17 82c41 28 110 49 181 49c131 0 217 -73 217 -210c0 -215 -118 -340 -311 -340c-66 0 -126 15 -156 36l18 86c37 -29 93 -47 154 -47c108 0 177 62 199 172h-254z" />
    <glyph glyph-name="afii10096" unicode="&#x44e;" horiz-adv-x="817" 
d="M90 0l113 530h86l-48 -222h92c31 141 134 233 285 233c119 0 203 -68 203 -200c0 -215 -102 -351 -282 -351c-154 0 -216 84 -216 220v23h-98l-49 -233h-86zM541 65c133 0 191 122 191 261c0 88 -37 140 -123 140c-129 0 -201 -98 -201 -246c0 -97 40 -155 133 -155z" />
    <glyph glyph-name="afii10097" unicode="&#x44f;" horiz-adv-x="581" 
d="M42 0l187 203c-59 13 -85 55 -85 114c0 145 81 218 287 218c114 0 155 -16 155 -72c0 -10 -3 -26 -6 -41l-89 -422h-87l41 190h-135l-172 -190h-96zM460 260l29 141c2 8 3 16 3 22c0 29 -19 39 -76 39c-118 0 -183 -25 -183 -130c0 -57 41 -72 111 -72h116z" />
    <glyph glyph-name="afii10071" unicode="&#x451;" horiz-adv-x="573" 
d="M322 -10c-143 0 -214 78 -214 213c0 193 117 337 296 337c146 0 196 -60 196 -138c0 -101 -88 -157 -273 -157h-127c-2 -11 -5 -33 -5 -53c0 -79 43 -130 148 -130c68 0 148 23 196 65l-16 -81c-40 -31 -120 -56 -201 -56zM336 306c147 0 175 40 175 84
c0 41 -25 78 -107 78c-102 0 -165 -53 -192 -162h124zM345 639c-35 0 -53 18 -53 51c0 34 18 51 53 51c36 0 54 -17 54 -51c0 -33 -18 -51 -54 -51zM518 639c-35 0 -53 18 -53 51c0 34 18 51 53 51c36 0 54 -17 54 -51c0 -33 -18 -51 -54 -51z" />
    <glyph glyph-name="afii10099" unicode="&#x452;" horiz-adv-x="657" 
d="M134 466l14 64h95l47 223h86l-47 -223h205l-14 -64h-204l-42 -201c44 67 108 105 202 105c107 0 156 -38 156 -121c0 -21 -2 -44 -9 -71l-8 -33c-37 -139 -124 -247 -257 -319l-48 42c128 87 186 158 217 274l4 16c5 19 8 41 8 58c0 60 -34 79 -110 79
c-104 0 -162 -63 -180 -148l-32 -147h-86l98 466h-95z" />
    <glyph glyph-name="afii10100" unicode="&#x453;" horiz-adv-x="466" 
d="M90 0l113 530h341l-16 -77h-255l-96 -453h-87zM357 620l112 140h112l-153 -140h-71z" />
    <glyph glyph-name="afii10101" unicode="&#x454;" horiz-adv-x="553" 
d="M530 122l-19 -85c-38 -26 -111 -47 -183 -47c-134 0 -219 75 -219 212c0 215 116 338 311 338c68 0 132 -15 160 -35l-20 -88c-34 29 -95 48 -155 48c-104 0 -174 -58 -198 -161h254l-14 -66h-249v-22c0 -93 57 -151 153 -151c60 0 131 23 179 57z" />
    <glyph glyph-name="afii10102" unicode="&#x455;" horiz-adv-x="494" 
d="M66 25l20 96c31 -35 93 -59 156 -59c94 0 138 36 138 101c0 102 -239 48 -239 198c0 102 63 179 232 179c62 0 114 -13 141 -26l-19 -93c-35 31 -78 47 -135 47c-93 0 -130 -32 -130 -85c0 -101 239 -43 239 -198c0 -129 -91 -195 -242 -195c-65 0 -122 13 -161 35z" />
    <glyph glyph-name="afii10103" unicode="&#x456;" horiz-adv-x="291" 
d="M188 0h-86l113 530h86zM292 638c-37 0 -56 19 -56 52s19 52 56 52c36 0 55 -19 55 -52s-19 -52 -55 -52z" />
    <glyph glyph-name="afii10104" unicode="&#x457;" horiz-adv-x="291" 
d="M188 0h-86l113 530h86zM205 639c-35 0 -53 18 -53 51c0 34 18 51 53 51c36 0 54 -17 54 -51c0 -33 -18 -51 -54 -51zM378 639c-35 0 -53 18 -53 51c0 34 18 51 53 51c36 0 54 -17 54 -51c0 -33 -18 -51 -54 -51z" />
    <glyph glyph-name="afii10105" unicode="&#x458;" horiz-adv-x="291" 
d="M-67 -175l17 82c14 -9 35 -14 63 -14c48 0 72 22 84 80l118 557h86l-118 -556c-24 -112 -77 -159 -179 -159c-33 0 -59 4 -71 10zM291 638c-37 0 -56 19 -56 52s19 52 56 52c36 0 55 -19 55 -52s-19 -52 -55 -52z" />
    <glyph glyph-name="afii10106" unicode="&#x459;" horiz-adv-x="881" 
d="M596 -5c-119 0 -156 23 -156 70c0 8 1 18 3 27l78 363h-194l-10 -42c-73 -326 -147 -418 -250 -418c-15 0 -27 2 -38 6l20 95c8 -4 15 -6 24 -6c60 0 105 61 175 372l16 68h359l-38 -179c39 3 61 4 103 4c134 0 191 -35 191 -125c0 -154 -83 -235 -283 -235zM618 67
c118 0 172 40 172 142c0 58 -37 74 -138 74c-31 0 -50 -1 -84 -5l-35 -163c-1 -6 -2 -12 -2 -17c0 -22 18 -31 87 -31z" />
    <glyph glyph-name="afii10107" unicode="&#x45a;" horiz-adv-x="888" 
d="M602 -5c-119 0 -156 22 -156 69c0 8 2 18 4 27l29 141h-255l-48 -232h-86l113 530h86l-48 -223h254l48 223h86l-38 -177c39 3 62 4 103 4c134 0 192 -35 192 -125c0 -154 -83 -237 -284 -237zM625 67c117 0 172 42 172 144c0 58 -37 74 -139 74c-31 0 -49 -1 -84 -5
l-34 -166c-1 -6 -2 -12 -2 -17c0 -22 18 -30 87 -30z" />
    <glyph glyph-name="afii10108" unicode="&#x45b;" horiz-adv-x="656" 
d="M134 466l14 64h94l48 223h86l-47 -223h204l-14 -64h-204l-42 -201c45 67 108 105 202 105c108 0 155 -38 155 -121c0 -21 -2 -44 -8 -71l-38 -178h-87l35 161c4 20 6 41 6 55c0 60 -34 79 -110 79c-103 0 -161 -63 -180 -148l-32 -147h-86l99 466h-95z" />
    <glyph glyph-name="afii10109" unicode="&#x45c;" horiz-adv-x="576" 
d="M90 0l113 530h86l-47 -218h66l230 218h106l-265 -254l170 -276h-104l-144 237h-75l-50 -237h-86zM391 620l112 140h112l-153 -140h-71z" />
    <glyph glyph-name="afii10110" unicode="&#x45e;" horiz-adv-x="541" 
d="M66 -178l18 82c12 -9 29 -19 54 -19c41 0 71 44 111 116l-115 529h94l79 -426l227 426h96l-303 -537c-86 -153 -135 -183 -204 -183c-24 0 -44 6 -57 12zM400 620c-78 0 -126 36 -126 110c0 9 0 19 2 30h71c-1 -8 -1 -15 -1 -22c0 -42 22 -62 66 -62c51 0 86 27 103 84
h69c-26 -94 -96 -140 -184 -140z" />
    <glyph glyph-name="afii10193" unicode="&#x45f;" horiz-adv-x="616" 
d="M90 0l113 530h86l-97 -455h264l97 455h86l-113 -530h-179l-28 -135h-79l29 135h-179z" />
    <glyph glyph-name="afii10050" unicode="&#x490;" horiz-adv-x="552" 
d="M105 0l149 700h327l29 135h83l-45 -215h-321l-132 -620h-90z" />
    <glyph glyph-name="afii10098" unicode="&#x491;" horiz-adv-x="466" 
d="M90 0l113 530h263l29 135h78l-45 -212h-255l-96 -453h-87z" />
    <glyph glyph-name="uni0492" unicode="&#x492;" horiz-adv-x="569" 
d="M94 315l15 70h95l67 315h411l-18 -80h-320l-50 -235h213l-15 -70h-213l-67 -315h-90l67 315h-95z" />
    <glyph glyph-name="uni0493" unicode="&#x493;" horiz-adv-x="491" 
d="M69 233l14 64h93l51 233h341l-16 -77h-255l-34 -156h163l-14 -64h-162l-49 -233h-87l49 233h-94z" />
    <glyph glyph-name="uni049A" unicode="&#x49a;" horiz-adv-x="713" 
d="M105 0l149 700h90l-64 -301h57l330 301h114l-378 -340l204 -280h117l-45 -215h-83l29 135h-61l-232 319h-69l-68 -319h-90z" />
    <glyph glyph-name="uni049B" unicode="&#x49b;" horiz-adv-x="596" 
d="M90 0l113 530h86l-47 -218h66l229 218h106l-264 -254l123 -201h97l-46 -210h-80l29 135h-57l-144 237h-75l-50 -237h-86z" />
    <glyph glyph-name="uni04A2" unicode="&#x4a2;" horiz-adv-x="792" 
d="M105 0l149 700h90l-64 -300h381l64 300h90l-132 -620h85l-45 -215h-83l29 135h-93l67 320h-380l-68 -320h-90z" />
    <glyph glyph-name="uni04A3" unicode="&#x4a3;" horiz-adv-x="651" 
d="M90 0l113 530h86l-47 -222h274l47 222h86l-97 -455h76l-46 -210h-80l29 135h-81l49 233h-274l-49 -233h-86z" />
    <glyph glyph-name="uni04AE" unicode="&#x4ae;" horiz-adv-x="618" 
d="M264 0l58 273l-152 427h96l118 -334l257 334h105l-333 -427l-59 -273h-90z" />
    <glyph glyph-name="uni04AF" unicode="&#x4af;" horiz-adv-x="536" 
d="M272 -180h-86l38 180l-90 530h92l62 -428l242 428h96l-315 -529z" />
    <glyph glyph-name="uni04B0" unicode="&#x4b0;" horiz-adv-x="618" 
d="M155 233l15 71h141l-141 396h96l118 -334l257 334h105l-309 -396h139l-14 -71h-158l-50 -233h-90l49 233h-158z" />
    <glyph glyph-name="uni04B1" unicode="&#x4b1;" horiz-adv-x="536" 
d="M81 -46l14 65h126l-87 511h92l62 -428l242 428h96l-305 -511h133l-13 -65h-140l-29 -134h-86l29 134h-134z" />
    <glyph glyph-name="uni04BA" unicode="&#x4ba;" horiz-adv-x="657" 
d="M344 700l-62 -293c39 22 101 38 174 38c119 0 190 -56 190 -148c0 -27 -8 -71 -13 -96l-42 -201h-90l39 183c7 34 13 73 13 89c0 69 -48 93 -131 93c-64 0 -120 -14 -157 -35l-70 -330h-90l149 700h90z" />
    <glyph glyph-name="uni04BB" unicode="&#x4bb;" horiz-adv-x="625" 
d="M90 0l160 750h85l-67 -316c45 67 108 106 203 106c107 0 155 -39 155 -122c0 -21 -3 -44 -9 -71l-73 -347h-87l70 330c4 20 6 41 6 55c0 60 -34 80 -110 80c-103 0 -162 -64 -180 -149l-67 -316h-86z" />
    <glyph glyph-name="uni04C0" unicode="&#x4c0;" horiz-adv-x="310" 
d="M110 0l149 700h90l-149 -700h-90z" />
    <glyph glyph-name="uni04CF" unicode="&#x4cf;" horiz-adv-x="291" 
d="M189 0h-87l160 750h86z" />
    <glyph glyph-name="uni04D8" unicode="&#x4d8;" horiz-adv-x="696" 
d="M339 -10c-139 0 -223 69 -223 221c0 57 11 110 24 166h480c5 26 9 53 9 79c0 92 -42 174 -194 174c-65 0 -129 -9 -184 -29l17 83c61 17 123 26 193 26c187 0 264 -89 264 -235c0 -224 -131 -485 -386 -485zM355 68c108 0 207 69 249 236h-388c-7 -29 -11 -60 -11 -91
c0 -95 50 -145 150 -145z" />
    <glyph glyph-name="afii10846" unicode="&#x4d9;" horiz-adv-x="573" 
d="M359 287h127c2 11 4 30 4 50c0 79 -42 131 -147 131c-69 0 -149 -23 -197 -65l17 81c40 31 119 56 200 56c144 0 214 -78 214 -214c0 -193 -116 -336 -295 -336c-146 0 -196 61 -196 139c0 101 88 158 273 158zM349 226c-146 0 -175 -41 -175 -86c0 -41 25 -78 108 -78
c101 0 165 54 191 164h-124z" />
    <glyph glyph-name="uni04E8" unicode="&#x4e8;" horiz-adv-x="773" 
d="M397 -10c-167 0 -271 100 -271 267c0 132 49 290 154 377c72 60 151 76 249 76c169 0 266 -96 266 -266c0 -149 -60 -305 -152 -378c-73 -57 -155 -76 -246 -76zM411 70c79 0 136 20 181 64c47 47 79 118 95 190h-462c-2 -21 -3 -41 -3 -59c0 -125 63 -195 189 -195z
M347 580c-54 -43 -89 -114 -108 -186h458c1 13 2 26 2 39c0 129 -59 197 -190 197c-66 0 -116 -13 -162 -50z" />
    <glyph glyph-name="uni04E9" unicode="&#x4e9;" horiz-adv-x="618" 
d="M107 193c0 209 114 347 308 347c119 0 207 -66 207 -200c0 -212 -103 -350 -289 -350c-153 0 -226 83 -226 203zM196 209c0 -88 39 -144 143 -144c102 0 162 73 184 168h-327v-24zM406 465c-102 0 -175 -65 -200 -167h326c0 9 1 18 1 27c0 91 -40 140 -127 140z" />
    <glyph glyph-name="uni1E9E" unicode="&#x1e9e;" horiz-adv-x="692" 
d="M96 0l100 472c34 161 148 238 291 238c87 0 166 -30 216 -113l-197 -190v-1c134 -7 164 -73 164 -140c0 -162 -131 -276 -291 -276c-29 0 -57 2 -82 8l17 80c26 -7 51 -8 70 -8c112 0 189 66 189 180c0 63 -46 94 -152 94h-28l11 52l191 186c-30 35 -66 48 -124 48
c-113 0 -167 -77 -186 -164l-99 -466h-90z" />
    <glyph glyph-name="figuredash" unicode="&#x2012;" horiz-adv-x="601" 
d="M157 393h424l-13 -76h-424z" />
    <glyph glyph-name="endash" unicode="&#x2013;" horiz-adv-x="720" 
d="M172 313h508l-16 -76h-508z" />
    <glyph glyph-name="emdash" unicode="&#x2014;" horiz-adv-x="887" 
d="M161 313h697l-16 -76h-697z" />
    <glyph glyph-name="quoteleft" unicode="&#x2018;" horiz-adv-x="323" 
d="M397 657c-55 -12 -105 -54 -121 -103c37 0 58 -20 58 -58c0 -43 -24 -66 -70 -66c-41 0 -66 25 -66 66c0 93 69 185 160 214z" />
    <glyph glyph-name="quoteright" unicode="&#x2019;" horiz-adv-x="323" 
d="M167 483c55 12 105 54 121 103c-37 0 -58 20 -58 58c0 43 24 66 70 66c41 0 66 -25 66 -66c0 -93 -69 -185 -160 -214z" />
    <glyph glyph-name="quotesinglbase" unicode="&#x201a;" horiz-adv-x="323" 
d="M42 -107c55 12 105 54 121 103c-37 0 -58 20 -58 58c0 43 24 66 70 66c41 0 66 -25 66 -66c0 -93 -69 -185 -160 -214z" />
    <glyph glyph-name="quotedblleft" unicode="&#x201c;" horiz-adv-x="549" 
d="M397 657c-55 -12 -105 -54 -121 -103c37 0 58 -20 58 -58c0 -43 -24 -66 -70 -66c-41 0 -66 25 -66 66c0 93 69 185 160 214zM623 657c-55 -12 -105 -54 -121 -103c37 0 58 -20 58 -58c0 -43 -24 -66 -70 -66c-41 0 -66 25 -66 66c0 93 69 185 160 214z" />
    <glyph glyph-name="quotedblright" unicode="&#x201d;" horiz-adv-x="549" 
d="M167 483c55 12 105 54 121 103c-37 0 -58 20 -58 58c0 43 24 66 70 66c41 0 66 -25 66 -66c0 -93 -69 -185 -160 -214zM394 483c55 12 105 54 121 103c-37 0 -58 20 -58 58c0 43 24 66 70 66c41 0 66 -25 66 -66c0 -93 -69 -185 -160 -214z" />
    <glyph glyph-name="quotedblbase" unicode="&#x201e;" horiz-adv-x="549" 
d="M42 -107c55 12 105 54 121 103c-37 0 -58 20 -58 58c0 43 24 66 70 66c41 0 66 -25 66 -66c0 -93 -69 -185 -160 -214zM268 -107c55 12 105 54 121 103c-37 0 -58 20 -58 58c0 43 24 66 70 66c41 0 66 -25 66 -66c0 -93 -69 -185 -160 -214z" />
    <glyph glyph-name="dagger" unicode="&#x2020;" horiz-adv-x="531" 
d="M149 454l15 71h172l38 175h81l-38 -175h173l-15 -71h-173l-96 -454h-81l96 454h-172z" />
    <glyph glyph-name="daggerdbl" unicode="&#x2021;" horiz-adv-x="531" 
d="M149 454l15 71h172l38 175h81l-38 -175h174l-16 -71h-173l-44 -208h173l-15 -71h-173l-37 -175h-81l37 175h-173l16 71h172l44 208h-172z" />
    <glyph glyph-name="bullet" unicode="&#x2022;" horiz-adv-x="391" 
d="M270 244c-64 0 -106 42 -106 106s42 106 106 106c63 0 105 -42 105 -106s-42 -106 -105 -106z" />
    <glyph glyph-name="ellipsis" unicode="&#x2026;" horiz-adv-x="987" 
d="M174 -5c-43 0 -64 21 -64 63c0 41 21 62 64 62c42 0 63 -21 63 -62c0 -42 -21 -63 -63 -63zM506 -5c-43 0 -64 21 -64 63c0 41 21 62 64 62c42 0 63 -21 63 -62c0 -42 -21 -63 -63 -63zM837 -5c-43 0 -64 21 -64 63c0 41 21 62 64 62c42 0 63 -21 63 -62
c0 -42 -21 -63 -63 -63z" />
    <glyph glyph-name="perthousand" unicode="&#x2030;" horiz-adv-x="1294" 
d="M333 380c-87 0 -147 48 -147 136c0 120 91 194 205 194c85 0 141 -48 141 -135c0 -117 -84 -195 -199 -195zM256 523c0 -53 33 -80 86 -80c78 0 120 47 120 124c0 53 -29 81 -83 81c-78 0 -123 -48 -123 -125zM657 -10c-87 0 -147 48 -147 136c0 120 91 194 205 194
c85 0 141 -48 141 -135c0 -117 -84 -195 -199 -195zM580 133c0 -53 33 -80 86 -80c78 0 120 47 120 124c0 53 -29 81 -83 81c-78 0 -123 -48 -123 -125zM1058 -10c-87 0 -147 48 -147 136c0 120 91 194 205 194c85 0 141 -48 141 -135c0 -117 -84 -195 -199 -195zM981 133
c0 -53 33 -80 86 -80c78 0 120 47 120 124c0 53 -29 81 -83 81c-78 0 -123 -48 -123 -125zM248 0h-83l629 700h84z" />
    <glyph glyph-name="guilsinglleft" unicode="&#x2039;" horiz-adv-x="360" 
d="M223 67l-97 208l179 208h89l-185 -212l96 -204h-82z" />
    <glyph glyph-name="guilsinglright" unicode="&#x203a;" horiz-adv-x="360" 
d="M83 67l184 216l-95 200h82l97 -206l-180 -210h-88z" />
    <glyph glyph-name="fraction" unicode="&#x2044;" horiz-adv-x="253" 
d="M-72 0h-83l629 700h84z" />
    <glyph glyph-name="uni2070" unicode="&#x2070;" 
d="M305 375c-103 0 -154 45 -154 133c0 25 4 55 11 84c33 158 115 213 234 213c102 0 154 -40 154 -134c0 -24 -3 -50 -11 -81c-33 -156 -115 -215 -234 -215zM317 435c77 0 120 43 146 153c7 30 9 52 9 70c0 62 -26 87 -88 87c-72 0 -119 -32 -146 -141
c-8 -33 -11 -62 -11 -83c0 -58 31 -86 90 -86z" />
    <glyph glyph-name="uni2074" unicode="&#x2074;" 
d="M124 475l11 57l308 268h87l-57 -265h55l-12 -60h-55l-20 -95h-70l20 95h-267zM404 535l42 200h-1l-230 -200h189z" />
    <glyph glyph-name="uni2075" unicode="&#x2075;" 
d="M291 375c-44 0 -100 5 -142 18l13 63c44 -14 83 -19 139 -19c70 0 128 35 128 94c0 43 -28 62 -99 62c-50 0 -96 -2 -137 -5l58 212h292l-13 -61h-238l-25 -94c29 2 67 3 103 3c94 0 136 -34 136 -103c0 -99 -90 -170 -215 -170z" />
    <glyph glyph-name="uni2076" unicode="&#x2076;" 
d="M308 375c-99 0 -150 46 -150 135c0 174 113 295 272 295c38 0 75 -5 107 -13l-13 -62c-28 9 -62 14 -111 14c-90 0 -153 -50 -176 -141c45 32 101 51 161 51c82 0 125 -35 125 -103c0 -103 -90 -176 -215 -176zM323 432c70 0 125 43 125 102c0 42 -28 64 -82 64
c-48 0 -99 -17 -136 -47c-3 -10 -4 -21 -4 -31c0 -56 36 -88 97 -88z" />
    <glyph glyph-name="uni2077" unicode="&#x2077;" 
d="M209 380l270 359h-275l14 61h355l-11 -49l-275 -371h-78z" />
    <glyph glyph-name="uni2078" unicode="&#x2078;" 
d="M304 375c-108 0 -161 31 -161 97c0 65 50 116 124 128c-45 10 -69 38 -69 79c0 77 81 126 203 126c97 0 148 -31 148 -90c0 -55 -46 -102 -112 -115c52 -9 80 -38 80 -87c0 -85 -84 -138 -213 -138zM316 433c77 0 130 32 130 81c0 39 -31 58 -96 58
c-82 0 -132 -30 -132 -80c0 -40 31 -59 98 -59zM388 747c-77 0 -122 -26 -122 -70c0 -35 30 -53 89 -53c74 0 122 29 122 73c0 35 -29 50 -89 50z" />
    <glyph glyph-name="uni2079" unicode="&#x2079;" 
d="M289 375c-54 0 -91 5 -132 16l14 63c39 -13 73 -17 126 -17c82 0 143 53 167 148c-44 -37 -103 -58 -159 -58c-78 0 -123 39 -123 109c0 98 90 169 212 169c98 0 148 -43 148 -129c0 -175 -108 -301 -253 -301zM333 581c45 0 95 21 139 57c1 6 2 17 2 25
c0 54 -36 85 -96 85c-71 0 -121 -41 -121 -100c0 -44 27 -67 76 -67z" />
    <glyph glyph-name="uni2080" unicode="&#x2080;" 
d="M204 -105c-103 0 -154 45 -154 133c0 25 4 55 11 84c33 158 115 213 234 213c102 0 154 -40 154 -134c0 -24 -3 -50 -11 -81c-33 -156 -115 -215 -234 -215zM216 -45c77 0 120 43 146 153c7 30 9 52 9 70c0 62 -26 87 -88 87c-72 0 -119 -32 -146 -141
c-8 -33 -11 -62 -11 -83c0 -58 31 -86 90 -86z" />
    <glyph glyph-name="uni2081" unicode="&#x2081;" 
d="M205 -100l72 340l-135 -64l-17 55l185 89h59l-89 -420h-75z" />
    <glyph glyph-name="uni2082" unicode="&#x2082;" 
d="M35 -100l14 66l140 86c120 74 159 110 159 158c0 35 -30 52 -90 52c-43 0 -95 -9 -134 -26l14 65c49 17 96 24 143 24c100 0 148 -31 148 -96c0 -70 -55 -125 -209 -216l-82 -49v-1h242l-14 -63h-331z" />
    <glyph glyph-name="uni2083" unicode="&#x2083;" 
d="M176 -105c-42 0 -96 3 -138 20l14 64c36 -18 84 -22 131 -22c56 0 132 13 132 78c0 42 -30 55 -91 55h-79l11 53h73c49 0 115 13 115 70c0 39 -29 50 -94 50c-45 0 -97 -6 -134 -20l13 62c45 16 106 20 156 20c97 0 138 -33 138 -89c0 -69 -63 -101 -127 -116l-1 -1
c74 -11 95 -43 95 -85c0 -102 -125 -139 -214 -139z" />
    <glyph glyph-name="uni2084" unicode="&#x2084;" 
d="M24 -5l11 57l308 268h87l-57 -265h55l-12 -60h-55l-20 -95h-70l20 95h-267zM304 55l42 200h-1l-230 -200h189z" />
    <glyph glyph-name="uni2085" unicode="&#x2085;" 
d="M189 -105c-44 0 -100 5 -142 18l13 63c44 -14 83 -19 139 -19c70 0 128 35 128 94c0 43 -28 62 -99 62c-50 0 -96 -2 -137 -5l58 212h292l-13 -61h-238l-25 -94c29 2 67 3 103 3c94 0 136 -34 136 -103c0 -99 -90 -170 -215 -170z" />
    <glyph glyph-name="uni2086" unicode="&#x2086;" 
d="M213 -105c-99 0 -150 46 -150 135c0 174 113 295 272 295c38 0 75 -5 107 -13l-13 -62c-28 9 -62 14 -111 14c-90 0 -153 -50 -176 -141c45 32 101 51 161 51c82 0 125 -35 125 -103c0 -103 -90 -176 -215 -176zM228 -48c70 0 125 43 125 102c0 42 -28 64 -82 64
c-48 0 -99 -17 -136 -47c-3 -10 -4 -21 -4 -31c0 -56 36 -88 97 -88z" />
    <glyph glyph-name="uni2087" unicode="&#x2087;" 
d="M107 -100l270 359h-275l14 61h355l-11 -49l-275 -371h-78z" />
    <glyph glyph-name="uni2088" unicode="&#x2088;" 
d="M202 -105c-108 0 -161 31 -161 97c0 65 50 116 124 128c-45 10 -69 38 -69 79c0 77 81 126 203 126c97 0 148 -31 148 -90c0 -55 -46 -102 -112 -115c52 -9 80 -38 80 -87c0 -85 -84 -138 -213 -138zM214 -47c77 0 130 32 130 81c0 39 -31 58 -96 58
c-82 0 -132 -30 -132 -80c0 -40 31 -59 98 -59zM286 267c-77 0 -122 -26 -122 -70c0 -35 30 -53 89 -53c74 0 122 29 122 73c0 35 -29 50 -89 50z" />
    <glyph glyph-name="uni2089" unicode="&#x2089;" 
d="M209 -5c-54 0 -91 5 -132 16l14 63c39 -13 73 -17 126 -17c82 0 143 53 167 148c-44 -37 -103 -58 -159 -58c-78 0 -123 39 -123 109c0 98 90 169 212 169c98 0 148 -43 148 -129c0 -175 -108 -301 -253 -301zM253 201c45 0 95 21 139 57c1 6 2 17 2 25
c0 54 -36 85 -96 85c-71 0 -121 -41 -121 -100c0 -44 27 -67 76 -67z" />
    <glyph glyph-name="Euro" unicode="&#x20ac;" horiz-adv-x="601" 
d="M112 395l34 71h60c56 153 174 244 333 244c77 0 120 -11 165 -34l-38 -77c-40 24 -78 31 -130 31c-109 0 -191 -59 -235 -164h300l-35 -71h-287c-6 -24 -10 -49 -12 -75h263l-35 -72h-231c1 -121 50 -178 169 -178c69 0 120 20 160 41l-19 -90c-45 -19 -91 -31 -160 -31
c-163 0 -244 88 -244 254v4h-87l36 72h54c3 26 7 51 12 75h-73z" />
    <glyph glyph-name="uni20B4" unicode="&#x20b4;" horiz-adv-x="601" 
d="M163 396l15 72h276c43 36 73 72 73 110c0 39 -35 56 -90 56c-60 0 -99 -7 -163 -26l17 79c58 16 129 23 171 23c106 0 162 -38 162 -109c0 -49 -25 -93 -63 -133h60l-15 -72h-126c-33 -26 -69 -51 -103 -75h213l-15 -72h-287c-37 -35 -61 -71 -61 -109
c0 -48 47 -74 125 -74c44 0 103 6 153 27l-17 -79c-60 -19 -122 -24 -170 -24c-116 0 -187 50 -187 133c0 46 20 88 51 126h-50l15 72h109c33 26 67 51 102 75h-195z" />
    <glyph glyph-name="uni20B8" unicode="&#x20b8;" horiz-adv-x="601" 
d="M255 0l103 482h-221l15 72h533l-15 -72h-222l-102 -482h-91zM168 629l15 72h532l-15 -72h-532z" />
    <glyph glyph-name="uni20BD" unicode="&#x20bd;" horiz-adv-x="601" 
d="M69 148l15 72h92l16 75h-92l17 81h92l69 322c65 5 105 7 177 7c144 0 216 -55 216 -167c0 -162 -97 -243 -300 -243h-89l-16 -75h206l-15 -72h-206l-31 -148h-91l31 148h-91zM352 623l-53 -247h84c135 0 192 45 192 148c0 68 -43 101 -131 101c-37 0 -58 0 -92 -2z" />
    <glyph glyph-name="afii61352" unicode="&#x2116;" horiz-adv-x="1108" 
d="M805 231l15 68h276l-14 -68h-277zM105 0l149 700h92l208 -469c17 -39 31 -70 46 -113c6 43 10 74 18 113l100 469h90l-149 -700h-92l-208 468c-18 40 -30 70 -45 114c-6 -44 -11 -74 -19 -114l-99 -468h-91zM840 493c0 115 51 212 200 212c87 0 139 -43 139 -118
c0 -134 -69 -212 -202 -212c-82 0 -137 44 -137 118zM1030 649c-87 0 -119 -63 -119 -145c0 -57 36 -73 81 -73c73 0 117 55 117 145c0 55 -34 73 -79 73z" />
    <glyph glyph-name="uni2120" unicode="&#x2120;" horiz-adv-x="853" 
d="M311 375c-37 0 -82 6 -113 20v63c24 -19 69 -31 113 -31c60 0 85 11 85 46c0 74 -199 21 -199 145c0 54 30 87 142 87c38 0 77 -9 98 -16v-60c-24 15 -57 26 -99 26c-60 0 -80 -10 -80 -36c0 -74 199 -17 199 -142c0 -69 -40 -102 -146 -102zM526 380v320h68l104 -183h1
l102 183h69v-320h-58v235h-1l-95 -163h-38l-93 163h-1v-235h-58z" />
    <glyph glyph-name="trademark" unicode="&#x2122;" horiz-adv-x="818" 
d="M293 380v266h-104v54h271v-54h-105v-266h-62zM514 380v320h69l104 -183h1l102 183h69v-320h-58v235h-1l-95 -163h-38l-93 163h-1v-235h-59z" />
    <glyph glyph-name="onethird" unicode="&#x2153;" horiz-adv-x="950" 
d="M220 0h-83l629 700h84zM228 280l72 340l-135 -64l-17 55l185 89h59l-89 -420h-75zM702 -5c-42 0 -96 3 -138 20l14 64c36 -18 84 -22 131 -22c56 0 132 13 132 78c0 42 -30 55 -91 55h-79l11 53h73c49 0 115 13 115 70c0 39 -29 50 -94 50c-45 0 -97 -6 -134 -20l13 62
c45 16 106 20 156 20c97 0 138 -33 138 -89c0 -69 -63 -101 -127 -116l-1 -1c74 -11 95 -43 95 -85c0 -102 -125 -139 -214 -139z" />
    <glyph glyph-name="twothirds" unicode="&#x2154;" horiz-adv-x="950" 
d="M285 0h-83l629 700h84zM84 280l14 66l140 86c120 74 159 110 159 158c0 35 -30 52 -90 52c-43 0 -95 -9 -134 -26l14 65c49 17 96 24 143 24c100 0 148 -31 148 -96c0 -70 -55 -125 -209 -216l-82 -49v-1h242l-14 -63h-331zM731 -5c-42 0 -96 3 -138 20l14 64
c36 -18 84 -22 131 -22c56 0 132 13 132 78c0 42 -30 55 -91 55h-79l11 53h73c49 0 115 13 115 70c0 39 -29 50 -94 50c-45 0 -97 -6 -134 -20l13 62c45 16 106 20 156 20c97 0 138 -33 138 -89c0 -69 -63 -101 -127 -116l-1 -1c74 -11 95 -43 95 -85
c0 -102 -125 -139 -214 -139z" />
    <glyph glyph-name="oneeighth" unicode="&#x215b;" horiz-adv-x="950" 
d="M228 0h-83l629 700h84zM236 280l72 340l-135 -64l-17 55l185 89h59l-89 -420h-75zM723 -5c-108 0 -161 31 -161 97c0 65 50 116 124 128c-45 10 -69 38 -69 79c0 77 81 126 203 126c97 0 148 -31 148 -90c0 -55 -46 -102 -112 -115c52 -9 80 -38 80 -87
c0 -85 -84 -138 -213 -138zM735 53c77 0 130 32 130 81c0 39 -31 58 -96 58c-82 0 -132 -30 -132 -80c0 -40 31 -59 98 -59zM807 367c-77 0 -122 -26 -122 -70c0 -35 30 -53 89 -53c74 0 122 29 122 73c0 35 -29 50 -89 50z" />
    <glyph glyph-name="threeeighths" unicode="&#x215c;" horiz-adv-x="950" 
d="M255 0h-83l629 700h84zM235 275c-42 0 -96 3 -138 20l14 64c36 -18 84 -22 131 -22c56 0 132 13 132 78c0 42 -30 55 -91 55h-79l11 53h73c49 0 115 13 115 70c0 39 -29 50 -94 50c-45 0 -97 -6 -134 -20l13 62c45 16 106 20 156 20c97 0 138 -33 138 -89
c0 -69 -63 -101 -127 -116l-1 -1c74 -11 95 -43 95 -85c0 -102 -125 -139 -214 -139zM723 -5c-108 0 -161 31 -161 97c0 65 50 116 124 128c-45 10 -69 38 -69 79c0 77 81 126 203 126c97 0 148 -31 148 -90c0 -55 -46 -102 -112 -115c52 -9 80 -38 80 -87
c0 -85 -84 -138 -213 -138zM735 53c77 0 130 32 130 81c0 39 -31 58 -96 58c-82 0 -132 -30 -132 -80c0 -40 31 -59 98 -59zM807 367c-77 0 -122 -26 -122 -70c0 -35 30 -53 89 -53c74 0 122 29 122 73c0 35 -29 50 -89 50z" />
    <glyph glyph-name="fiveeighths" unicode="&#x215d;" horiz-adv-x="950" 
d="M250 0h-83l629 700h84zM243 275c-44 0 -100 5 -142 18l13 63c44 -14 83 -19 139 -19c70 0 128 35 128 94c0 43 -28 62 -99 62c-50 0 -96 -2 -137 -5l58 212h292l-13 -61h-238l-25 -94c29 2 67 3 103 3c94 0 136 -34 136 -103c0 -99 -90 -170 -215 -170zM715 -5
c-108 0 -161 31 -161 97c0 65 50 116 124 128c-45 10 -69 38 -69 79c0 77 81 126 203 126c97 0 148 -31 148 -90c0 -55 -46 -102 -112 -115c52 -9 80 -38 80 -87c0 -85 -84 -138 -213 -138zM727 53c77 0 130 32 130 81c0 39 -31 58 -96 58c-82 0 -132 -30 -132 -80
c0 -40 31 -59 98 -59zM799 367c-77 0 -122 -26 -122 -70c0 -35 30 -53 89 -53c74 0 122 29 122 73c0 35 -29 50 -89 50z" />
    <glyph glyph-name="seveneighths" unicode="&#x215e;" horiz-adv-x="950" 
d="M212 0h-83l629 700h84zM183 280l270 359h-275l14 61h355l-11 -49l-275 -371h-78zM720 -5c-108 0 -161 31 -161 97c0 65 50 116 124 128c-45 10 -69 38 -69 79c0 77 81 126 203 126c97 0 148 -31 148 -90c0 -55 -46 -102 -112 -115c52 -9 80 -38 80 -87
c0 -85 -84 -138 -213 -138zM732 53c77 0 130 32 130 81c0 39 -31 58 -96 58c-82 0 -132 -30 -132 -80c0 -40 31 -59 98 -59zM804 367c-77 0 -122 -26 -122 -70c0 -35 30 -53 89 -53c74 0 122 29 122 73c0 35 -29 50 -89 50z" />
    <glyph glyph-name="minus" unicode="&#x2212;" horiz-adv-x="601" 
d="M154 366h431v-75h-431v75z" />
    <glyph glyph-name="infinity" unicode="&#x221e;" horiz-adv-x="701" 
d="M479 250l-54 55l-54 -56c-37 -38 -78 -48 -115 -48c-99 0 -139 80 -139 148s40 150 139 150c35 0 77 -9 115 -48l54 -56l56 58c34 36 76 46 114 46c95 0 138 -74 138 -150c0 -65 -39 -148 -138 -148c-36 0 -78 11 -116 49zM465 349l50 -50c21 -21 45 -33 75 -33
c54 0 78 40 78 83c0 49 -30 85 -77 85c-30 0 -57 -10 -83 -39zM386 349l-52 53c-21 21 -42 32 -72 32c-57 0 -78 -44 -78 -85c0 -48 30 -82 76 -82c28 0 55 11 81 37z" />
    <glyph glyph-name="approxequal" unicode="&#x2248;" horiz-adv-x="601" 
d="M479 151c-84 0 -151 76 -214 76c-48 0 -87 -25 -111 -52v83c27 30 70 44 113 44c81 0 149 -76 220 -76c38 0 77 22 98 53v-87c-24 -26 -65 -41 -106 -41zM479 355c-84 0 -151 76 -214 76c-48 0 -87 -25 -111 -52v83c27 30 70 44 113 44c81 0 149 -76 220 -76
c38 0 77 22 98 53v-87c-24 -26 -65 -41 -106 -41z" />
    <glyph glyph-name="notequal" unicode="&#x2260;" horiz-adv-x="601" 
d="M154 468h253l53 101h70l-53 -101h108v-75h-147l-67 -129h214v-75h-253l-52 -101h-71l52 101h-107v75h146l68 129h-214v75z" />
    <glyph glyph-name="lessequal" unicode="&#x2264;" horiz-adv-x="601" 
d="M572 221l-430 172v72l430 172v-80l-329 -127v-2l329 -125v-82zM142 146h431v-75h-431v75z" />
    <glyph glyph-name="greaterequal" unicode="&#x2265;" horiz-adv-x="601" 
d="M160 221v79l329 127v2l-329 126v82l430 -172v-73zM159 146h431v-75h-431v75z" />
    <glyph glyph-name="lozenge" unicode="&#x25ca;" horiz-adv-x="601" 
d="M374 -10l-251 360l251 360l252 -360zM374 119l161 231l-161 230l-161 -230z" />
    <glyph glyph-name="uniF406" unicode="&#xf406;" horiz-adv-x="328" 
d="M200 894l59 16c5 -50 27 -79 82 -79s89 29 116 79l52 -16c-40 -81 -101 -124 -181 -124s-123 43 -128 124z" />
    <glyph glyph-name="uniF407" unicode="&#xf407;" horiz-adv-x="224" 
d="M44 -239c-39 0 -62 6 -81 16l17 47c19 -9 37 -13 63 -13c35 0 72 18 72 58c0 27 -29 35 -57 35c-9 0 -25 0 -34 -2l35 98h53l-20 -54c55 0 95 -19 95 -65c0 -76 -73 -120 -143 -120z" />
    <glyph glyph-name="uniF408" unicode="&#xf408;" horiz-adv-x="361" 
d="M173 765l154 150h96l91 -150h-71l-75 101l-118 -101h-77z" />
    <glyph glyph-name="uniF409" unicode="&#xf409;" horiz-adv-x="147" 
d="M-33 -236l8 40c39 9 65 23 75 59h-12c-32 0 -50 13 -50 35c0 37 30 53 73 53c31 0 53 -14 53 -47c0 -67 -63 -129 -147 -140z" />
    <glyph glyph-name="uniF40A" unicode="&#xf40a;" horiz-adv-x="260" 
d="M164 495l96 205h90l-121 -205h-65z" />
    <glyph glyph-name="uniF40B" unicode="&#xf40b;" horiz-adv-x="136" 
d="M246 786c-37 0 -56 19 -56 54s19 54 56 54s56 -19 56 -54s-19 -54 -56 -54z" />
    <glyph glyph-name="uniF40C" unicode="&#xf40c;" horiz-adv-x="223" 
d="M290 741c-58 0 -99 41 -99 99s41 99 99 99s99 -41 99 -99s-41 -99 -99 -99zM290 790c32 0 50 18 50 50s-18 50 -50 50c-31 0 -50 -18 -50 -50s19 -50 50 -50z" />
    <glyph glyph-name="uniF40D" unicode="&#xf40d;" horiz-adv-x="322" 
d="M233 788l-52 11c5 59 42 94 90 94c26 0 46 -11 75 -24c27 -12 42 -22 60 -22s34 13 41 44l50 -11c-6 -60 -45 -93 -88 -93c-24 0 -37 5 -76 23c-25 12 -40 23 -57 23c-18 0 -36 -12 -43 -45z" />
    <glyph glyph-name="uniF40E" unicode="&#xf40e;" horiz-adv-x="214" 
d="M67 -239c-63 0 -90 29 -90 70c0 81 85 142 147 178l44 -6c-45 -28 -118 -87 -118 -147c0 -25 20 -39 52 -39c22 0 45 5 66 16l-11 -52c-25 -11 -55 -20 -90 -20z" />
    <glyph glyph-name="zero.tab" unicode="&#xf4e0;" horiz-adv-x="646" 
d="M322 -10c-137 0 -195 91 -195 218c0 123 38 315 136 414c57 65 124 88 214 88c137 0 191 -86 191 -212c0 -119 -37 -304 -127 -402c-60 -84 -136 -106 -219 -106zM336 64c63 0 103 23 136 71c71 82 107 247 107 355c0 85 -29 146 -121 146c-56 0 -94 -18 -131 -67
c-74 -78 -111 -239 -111 -357c0 -83 29 -148 120 -148z" />
    <glyph glyph-name="one.tab" unicode="&#xf4e1;" horiz-adv-x="646" 
d="M117 75h208l111 521l-233 -117l18 86l262 135h62l-133 -625h163l-16 -75h-458z" />
    <glyph glyph-name="two.tab" unicode="&#xf4e2;" horiz-adv-x="646" 
d="M88 0l13 62c75 53 246 182 322 241c95 74 147 128 147 212c0 85 -43 116 -153 116c-74 0 -144 -29 -201 -66l20 97c63 30 137 48 213 48c127 0 209 -58 209 -176c0 -125 -71 -195 -185 -282c-58 -44 -138 -105 -239 -175h343l-17 -77h-472z" />
    <glyph glyph-name="three.tab" unicode="&#xf4e3;" horiz-adv-x="646" 
d="M67 41l20 82c39 -31 105 -58 196 -58c114 0 205 35 205 161c0 62 -48 96 -162 96h-78l16 73h72c132 0 201 51 201 143c0 64 -40 97 -137 97c-90 0 -162 -23 -212 -51l21 85c68 29 141 41 226 41c139 0 191 -67 191 -146c0 -117 -67 -178 -179 -205
c92 -13 130 -58 130 -139c0 -82 -36 -143 -97 -183c-54 -36 -119 -47 -204 -47c-88 0 -161 23 -209 51z" />
    <glyph glyph-name="four.tab" unicode="&#xf4e4;" horiz-adv-x="646" 
d="M71 183l12 53l425 464h109l-93 -441h96l-15 -76h-98l-39 -183h-86l39 183h-350zM197 259h241l72 342z" />
    <glyph glyph-name="five.tab" unicode="&#xf4e5;" horiz-adv-x="646" 
d="M169 343l103 357h386l-16 -75h-312l-59 -200c26 3 56 7 109 7c123 0 219 -44 219 -169c0 -193 -144 -273 -319 -273c-73 0 -143 14 -188 36l19 87c48 -33 110 -48 176 -48c117 0 223 50 223 181c0 101 -88 114 -174 114c-63 0 -119 -7 -167 -17z" />
    <glyph glyph-name="six.tab" unicode="&#xf4e6;" horiz-adv-x="650" 
d="M668 680l-19 -86c-28 21 -73 41 -145 41c-175 0 -254 -137 -281 -301c51 75 112 116 217 116c117 0 193 -65 193 -182c0 -171 -118 -278 -289 -278c-128 0 -213 79 -213 223c0 164 54 321 150 410c73 67 149 87 245 87c55 0 109 -12 142 -30zM352 65
c113 0 192 71 192 186c0 86 -52 127 -136 127c-102 0 -188 -63 -188 -169c0 -89 45 -144 132 -144z" />
    <glyph glyph-name="seven.tab" unicode="&#xf4e7;" horiz-adv-x="650" 
d="M174 0l417 625h-381l15 75h490l-10 -49l-428 -651h-103z" />
    <glyph glyph-name="eight.tab" unicode="&#xf4e8;" horiz-adv-x="650" 
d="M321 -10c-113 0 -212 51 -212 176c0 119 80 191 191 210c-70 21 -101 62 -101 123c0 152 137 211 269 211c103 0 205 -44 205 -156c0 -106 -64 -159 -163 -185c78 -15 112 -72 112 -142c0 -77 -32 -144 -93 -185c-52 -36 -121 -52 -208 -52zM341 65c103 0 192 46 192 162
c0 88 -71 110 -145 110c-93 0 -190 -45 -190 -151c0 -84 66 -121 143 -121zM458 635c-88 0 -171 -37 -171 -139c0 -71 61 -96 127 -96c88 0 170 33 170 134c0 73 -61 101 -126 101z" />
    <glyph glyph-name="nine.tab" unicode="&#xf4e9;" horiz-adv-x="650" 
d="M271 -10c-56 0 -116 14 -146 30l20 88c25 -20 79 -43 142 -43c180 0 261 145 282 303c-43 -76 -113 -119 -218 -119c-109 0 -189 70 -189 181c0 90 33 160 84 208c52 48 116 72 197 72c150 0 223 -84 223 -231c0 -155 -48 -292 -116 -370c-68 -80 -152 -119 -279 -119z
M377 324c108 0 200 61 200 172c0 89 -57 139 -144 139c-115 0 -182 -87 -182 -194c0 -79 50 -117 126 -117z" />
    <glyph glyph-name="dollar.tab" unicode="&#xf4ec;" horiz-adv-x="650" 
d="M265 -120l24 110c-71 5 -144 27 -181 57l22 100c47 -51 117 -80 192 -80c117 0 179 47 179 137c0 154 -295 95 -295 298c0 120 92 200 235 208l19 90h73l-19 -92c58 -5 114 -20 150 -41l-21 -96c-45 39 -105 62 -174 62c-109 0 -166 -39 -166 -115
c0 -152 294 -94 294 -303c0 -132 -86 -213 -236 -224l-24 -111h-72z" />
    <glyph glyph-name="Euro.tab" unicode="&#xf4ed;" horiz-adv-x="650" 
d="M136 395l34 71h60c56 153 174 244 333 244c77 0 120 -11 165 -34l-38 -77c-40 24 -78 31 -130 31c-109 0 -191 -59 -235 -164h300l-35 -71h-287c-6 -24 -10 -49 -12 -75h263l-35 -72h-231c1 -121 50 -178 169 -178c69 0 120 20 160 41l-19 -90c-45 -19 -91 -31 -160 -31
c-163 0 -244 88 -244 254v4h-87l36 72h54c3 26 7 51 12 75h-73z" />
    <glyph glyph-name="cent.tab" unicode="&#xf4ee;" horiz-adv-x="650" 
d="M584 121l-19 -85c-33 -22 -94 -45 -177 -47l-23 -109h-74l24 114c-107 19 -166 94 -166 208c0 192 94 322 282 337l19 91h74l-19 -90c64 -4 108 -19 130 -34l-20 -88c-27 22 -78 48 -154 48c-148 0 -223 -94 -223 -250c0 -85 49 -152 169 -152c70 0 135 26 177 57z" />
    <glyph glyph-name="sterling.tab" unicode="&#xf4ef;" horiz-adv-x="650" 
d="M171 340l13 61h94l16 75c34 156 127 234 278 234c48 0 97 -8 127 -18l-18 -81c-40 12 -73 19 -114 19c-105 0 -159 -47 -183 -158l-16 -71h180l-13 -61h-180l-56 -260h270l-17 -80h-453l16 80h94l56 260h-94z" />
    <glyph glyph-name="yen.tab" unicode="&#xf4fa;" horiz-adv-x="650" 
d="M171 281l15 72h128l-120 347h96l112 -332l244 332h106l-268 -347h129l-15 -72h-169l-16 -75h169l-15 -72h-170l-28 -134h-90l28 134h-167l15 72h168l16 74l-1 1h-167z" />
    <glyph glyph-name="florin.tab" unicode="&#xf4fb;" horiz-adv-x="650" 
d="M264 455l15 75h101l11 53c25 122 78 177 187 177c23 0 47 -2 71 -7l-15 -72c-10 2 -31 6 -56 6c-64 0 -87 -25 -106 -112l-10 -45h139l-15 -75h-140l-95 -455c-29 -139 -77 -190 -184 -190c-18 0 -33 1 -45 4l16 73c9 -2 18 -3 28 -3c52 0 83 28 101 115l97 456h-100z
" />
    <glyph glyph-name="uni20B4.tab" unicode="&#xf4fc;" horiz-adv-x="653" 
d="M189 396l15 72h276c43 36 73 72 73 110c0 39 -35 56 -90 56c-60 0 -99 -7 -163 -26l17 79c58 16 129 23 171 23c106 0 162 -38 162 -109c0 -49 -25 -93 -63 -133h60l-15 -72h-126c-33 -26 -69 -51 -103 -75h213l-15 -72h-287c-37 -35 -61 -71 -61 -109
c0 -48 47 -74 125 -74c44 0 103 6 153 27l-17 -79c-60 -19 -122 -24 -170 -24c-116 0 -187 50 -187 133c0 46 20 88 51 126h-50l15 72h109c33 26 67 51 102 75h-195z" />
    <glyph glyph-name="uni20BD.tab" unicode="&#xf4fd;" horiz-adv-x="650" 
d="M93 148l15 72h92l16 75h-92l17 81h92l69 322c65 5 105 7 177 7c144 0 216 -55 216 -167c0 -162 -97 -243 -300 -243h-89l-16 -75h206l-15 -72h-206l-31 -148h-91l31 148h-91zM376 623l-53 -247h84c135 0 192 45 192 148c0 68 -43 101 -131 101c-37 0 -58 0 -92 -2z" />
    <glyph glyph-name="uni20B8.tab" unicode="&#xf5f3;" horiz-adv-x="650" 
d="M279 0l103 482h-221l15 72h533l-15 -72h-222l-102 -482h-91zM192 629l15 72h532l-15 -72h-532z" />
    <glyph glyph-name="zero.denominator" unicode="&#xf655;" 
d="M225 -5c-103 0 -154 45 -154 133c0 25 4 55 11 84c33 158 115 213 234 213c102 0 154 -40 154 -134c0 -24 -3 -50 -11 -81c-33 -156 -115 -215 -234 -215zM237 55c77 0 120 43 146 153c7 30 9 52 9 70c0 62 -26 87 -88 87c-72 0 -119 -32 -146 -141
c-8 -33 -11 -62 -11 -83c0 -58 31 -86 90 -86z" />
    <glyph glyph-name="one.denominator" unicode="&#xf656;" 
d="M226 0l72 340l-135 -64l-17 55l185 89h59l-89 -420h-75z" />
    <glyph glyph-name="two.denominator" unicode="&#xf657;" 
d="M56 0l14 66l140 86c120 74 159 110 159 158c0 35 -30 52 -90 52c-43 0 -95 -9 -134 -26l14 65c49 17 96 24 143 24c100 0 148 -31 148 -96c0 -70 -55 -125 -209 -216l-82 -49v-1h242l-14 -63h-331z" />
    <glyph glyph-name="three.denominator" unicode="&#xf658;" 
d="M198 -5c-42 0 -96 3 -138 20l14 64c36 -18 84 -22 131 -22c56 0 132 13 132 78c0 42 -30 55 -91 55h-79l11 53h73c49 0 115 13 115 70c0 39 -29 50 -94 50c-45 0 -97 -6 -134 -20l13 62c45 16 106 20 156 20c97 0 138 -33 138 -89c0 -69 -63 -101 -127 -116l-1 -1
c74 -11 95 -43 95 -85c0 -102 -125 -139 -214 -139z" />
    <glyph glyph-name="four.denominator" unicode="&#xf659;" 
d="M43 95l11 57l308 268h87l-57 -265h55l-12 -60h-55l-20 -95h-70l20 95h-267zM323 155l42 200h-1l-230 -200h189z" />
    <glyph glyph-name="five.denominator" unicode="&#xf65a;" 
d="M211 -5c-44 0 -100 5 -142 18l13 63c44 -14 83 -19 139 -19c70 0 128 35 128 94c0 43 -28 62 -99 62c-50 0 -96 -2 -137 -5l58 212h292l-13 -61h-238l-25 -94c29 2 67 3 103 3c94 0 136 -34 136 -103c0 -99 -90 -170 -215 -170z" />
    <glyph glyph-name="six.denominator" unicode="&#xf65b;" 
d="M227 -5c-99 0 -150 46 -150 135c0 174 113 295 272 295c38 0 75 -5 107 -13l-13 -62c-28 9 -62 14 -111 14c-90 0 -153 -50 -176 -141c45 32 101 51 161 51c82 0 125 -35 125 -103c0 -103 -90 -176 -215 -176zM242 52c70 0 125 43 125 102c0 42 -28 64 -82 64
c-48 0 -99 -17 -136 -47c-3 -10 -4 -21 -4 -31c0 -56 36 -88 97 -88z" />
    <glyph glyph-name="seven.denominator" unicode="&#xf65c;" 
d="M129 0l270 359h-275l14 61h355l-11 -49l-275 -371h-78z" />
    <glyph glyph-name="eight.denominator" unicode="&#xf65d;" 
d="M224 -5c-108 0 -161 31 -161 97c0 65 50 116 124 128c-45 10 -69 38 -69 79c0 77 81 126 203 126c97 0 148 -31 148 -90c0 -55 -46 -102 -112 -115c52 -9 80 -38 80 -87c0 -85 -84 -138 -213 -138zM236 53c77 0 130 32 130 81c0 39 -31 58 -96 58
c-82 0 -132 -30 -132 -80c0 -40 31 -59 98 -59zM308 367c-77 0 -122 -26 -122 -70c0 -35 30 -53 89 -53c74 0 122 29 122 73c0 35 -29 50 -89 50z" />
    <glyph glyph-name="nine.denominator" unicode="&#xf65e;" 
d="M209 -5c-54 0 -91 5 -132 16l14 63c39 -13 73 -17 126 -17c82 0 143 53 167 148c-44 -37 -103 -58 -159 -58c-78 0 -123 39 -123 109c0 98 90 169 212 169c98 0 148 -43 148 -129c0 -175 -108 -301 -253 -301zM253 201c45 0 95 21 139 57c1 6 2 17 2 25
c0 54 -36 85 -96 85c-71 0 -121 -41 -121 -100c0 -44 27 -67 76 -67z" />
    <glyph glyph-name="zero.numerator" unicode="&#xf661;" 
d="M285 275c-103 0 -154 45 -154 133c0 25 4 55 11 84c33 158 115 213 234 213c102 0 154 -40 154 -134c0 -24 -3 -50 -11 -81c-33 -156 -115 -215 -234 -215zM297 335c77 0 120 43 146 153c7 30 9 52 9 70c0 62 -26 87 -88 87c-72 0 -119 -32 -146 -141
c-8 -33 -11 -62 -11 -83c0 -58 31 -86 90 -86z" />
    <glyph glyph-name="one.numerator" unicode="&#xf662;" 
d="M286 280l72 340l-135 -64l-17 55l185 89h59l-89 -420h-75z" />
    <glyph glyph-name="two.numerator" unicode="&#xf663;" 
d="M116 280l14 66l140 86c120 74 159 110 159 158c0 35 -30 52 -90 52c-43 0 -95 -9 -134 -26l14 65c49 17 96 24 143 24c100 0 148 -31 148 -96c0 -70 -55 -125 -209 -216l-82 -49v-1h242l-14 -63h-331z" />
    <glyph glyph-name="three.numerator" unicode="&#xf664;" 
d="M257 275c-42 0 -96 3 -138 20l14 64c36 -18 84 -22 131 -22c56 0 132 13 132 78c0 42 -30 55 -91 55h-79l11 53h73c49 0 115 13 115 70c0 39 -29 50 -94 50c-45 0 -97 -6 -134 -20l13 62c45 16 106 20 156 20c97 0 138 -33 138 -89c0 -69 -63 -101 -127 -116l-1 -1
c74 -11 95 -43 95 -85c0 -102 -125 -139 -214 -139z" />
    <glyph glyph-name="four.numerator" unicode="&#xf665;" 
d="M103 375l11 57l308 268h87l-57 -265h55l-12 -60h-55l-20 -95h-70l20 95h-267zM383 435l42 200h-1l-230 -200h189z" />
    <glyph glyph-name="five.numerator" unicode="&#xf666;" 
d="M270 275c-44 0 -100 5 -142 18l13 63c44 -14 83 -19 139 -19c70 0 128 35 128 94c0 43 -28 62 -99 62c-50 0 -96 -2 -137 -5l58 212h292l-13 -61h-238l-25 -94c29 2 67 3 103 3c94 0 136 -34 136 -103c0 -99 -90 -170 -215 -170z" />
    <glyph glyph-name="six.numerator" unicode="&#xf667;" 
d="M286 275c-99 0 -150 46 -150 135c0 174 113 295 272 295c38 0 75 -5 107 -13l-13 -62c-28 9 -62 14 -111 14c-90 0 -153 -50 -176 -141c45 32 101 51 161 51c82 0 125 -35 125 -103c0 -103 -90 -176 -215 -176zM301 332c70 0 125 43 125 102c0 42 -28 64 -82 64
c-48 0 -99 -17 -136 -47c-3 -10 -4 -21 -4 -31c0 -56 36 -88 97 -88z" />
    <glyph glyph-name="seven.numerator" unicode="&#xf668;" 
d="M188 280l270 359h-275l14 61h355l-11 -49l-275 -371h-78z" />
    <glyph glyph-name="eight.numerator" unicode="&#xf669;" 
d="M283 275c-108 0 -161 31 -161 97c0 65 50 116 124 128c-45 10 -69 38 -69 79c0 77 81 126 203 126c97 0 148 -31 148 -90c0 -55 -46 -102 -112 -115c52 -9 80 -38 80 -87c0 -85 -84 -138 -213 -138zM295 333c77 0 130 32 130 81c0 39 -31 58 -96 58
c-82 0 -132 -30 -132 -80c0 -40 31 -59 98 -59zM367 647c-77 0 -122 -26 -122 -70c0 -35 30 -53 89 -53c74 0 122 29 122 73c0 35 -29 50 -89 50z" />
    <glyph glyph-name="nine.numerator" unicode="&#xf66a;" 
d="M268 275c-54 0 -91 5 -132 16l14 63c39 -13 73 -17 126 -17c82 0 143 53 167 148c-44 -37 -103 -58 -159 -58c-78 0 -123 39 -123 109c0 98 90 169 212 169c98 0 148 -43 148 -129c0 -175 -108 -301 -253 -301zM312 481c45 0 95 21 139 57c1 6 2 17 2 25
c0 54 -36 85 -96 85c-71 0 -121 -41 -121 -100c0 -44 27 -67 76 -67z" />
    <glyph glyph-name="uniF6BA" unicode="&#xf6ba;" horiz-adv-x="475" 
d="M166 312l16 75h276l-16 -75h-276z" />
    <glyph glyph-name="uniF6BB" unicode="&#xf6bb;" horiz-adv-x="720" 
d="M187 389h508l-16 -76h-508z" />
    <glyph glyph-name="uniF6BC" unicode="&#xf6bc;" horiz-adv-x="887" 
d="M176 389h697l-16 -76h-697z" />
    <glyph glyph-name="uniF6C3" unicode="&#xf6c3;" horiz-adv-x="144" 
d="M-27 -233l1 37c35 9 66 26 76 62c-7 -1 -12 -1 -16 -1c-27 0 -44 13 -44 35c0 35 34 51 72 51c30 0 51 -14 51 -48c0 -73 -75 -125 -140 -136z" />
    <glyph glyph-name="uniF6C9" unicode="&#xf6c9;" horiz-adv-x="225" 
d="M173 765l122 150h114l-163 -150h-73z" />
    <glyph glyph-name="uniF6CA" unicode="&#xf6ca;" horiz-adv-x="361" 
d="M295 768l-90 150h70l76 -102l118 102h77l-154 -150h-97z" />
    <glyph glyph-name="uniF6CB" unicode="&#xf6cb;" horiz-adv-x="335" 
d="M245 787c-36 0 -55 19 -55 53s19 53 55 53c37 0 55 -19 55 -53s-18 -53 -55 -53zM446 787c-36 0 -55 19 -55 53s19 53 55 53c37 0 55 -19 55 -53s-18 -53 -55 -53z" />
    <glyph glyph-name="uniF6CE" unicode="&#xf6ce;" horiz-adv-x="211" 
d="M295 777l-90 140h110l51 -140h-71z" />
    <glyph glyph-name="uniF6CF" unicode="&#xf6cf;" horiz-adv-x="402" 
d="M173 765l95 150h107l-129 -150h-73zM341 765l129 150h117l-167 -150h-79z" />
    <glyph glyph-name="uniF6D0" unicode="&#xf6d0;" horiz-adv-x="333" 
d="M196 808v64h298v-64h-298z" />
    <glyph glyph-name="uniF6D1" unicode="&#xf6d1;" horiz-adv-x="341" 
d="M334 770c-84 0 -133 34 -133 109c0 10 1 20 2 31h74c-2 -7 -3 -17 -3 -24c0 -42 23 -59 72 -59c57 0 89 23 107 83h71c-26 -97 -96 -140 -190 -140z" />
    <glyph glyph-name="uniF6D4" unicode="&#xf6d4;" horiz-adv-x="328" 
d="M294 620c-78 0 -126 36 -126 110c0 9 0 19 2 30h71c-1 -8 -1 -15 -1 -22c0 -42 22 -62 66 -62c51 0 86 27 103 84h69c-26 -94 -96 -140 -184 -140z" />
    <glyph glyph-name="uniFEFF" unicode="&#xfeff;" horiz-adv-x="0" 
 />
    <glyph glyph-name="percent.tab" horiz-adv-x="650" 
d="M381 100c0 101 52 225 170 225c66 0 103 -34 103 -105c0 -102 -53 -225 -171 -225c-67 0 -102 35 -102 105zM496 57c63 0 90 98 90 152c0 38 -15 54 -47 54c-68 0 -90 -92 -90 -149c0 -39 16 -57 47 -57zM145 479c0 101 52 226 170 226c66 0 103 -36 103 -107
c0 -102 -53 -223 -171 -223c-67 0 -102 34 -102 104zM260 437c63 0 90 96 90 150c0 38 -15 56 -47 56c-68 0 -90 -93 -90 -150c0 -39 16 -56 47 -56zM128 0h-83l629 700h84z" />
    <glyph glyph-name="plus.tab" horiz-adv-x="650" 
d="M357 113v178h-178v75h178v178h75v-178h178v-75h-178v-178h-75z" />
    <glyph glyph-name="less.tab" horiz-adv-x="650" 
d="M590 121l-430 172v72l430 172v-80l-329 -127v-2l329 -125v-82z" />
    <glyph glyph-name="equal.tab" horiz-adv-x="650" 
d="M178 264h431v-75h-431v75zM178 468h431v-75h-431v75z" />
    <glyph glyph-name="greater.tab" horiz-adv-x="650" 
d="M197 121v79l329 127v2l-329 126v82l430 -172v-73z" />
    <glyph glyph-name="multiply.tab" horiz-adv-x="650" 
d="M258 141l-52 52l135 136l-135 135l52 53l136 -136l135 136l53 -53l-136 -135l136 -136l-53 -52l-135 135z" />
    <glyph glyph-name="divide.tab" horiz-adv-x="650" 
d="M179 366h431v-75h-431v75zM395 100c-43 0 -64 21 -64 63c0 41 21 62 64 62c42 0 63 -21 63 -62c0 -42 -21 -63 -63 -63zM395 432c-43 0 -64 21 -64 63c0 41 21 62 64 62c42 0 63 -21 63 -62c0 -42 -21 -63 -63 -63z" />
    <glyph glyph-name="perthousand.tab" horiz-adv-x="650" 
d="M506 -5c-63 0 -98 26 -98 88c0 15 2 32 6 52c20 96 74 140 149 140c61 0 98 -26 98 -90c0 -14 -2 -31 -6 -50c-21 -100 -76 -140 -149 -140zM519 56c36 0 60 15 74 79c3 15 5 28 5 38c0 31 -16 41 -46 41c-38 0 -63 -19 -75 -79c-3 -14 -5 -26 -5 -36
c0 -33 17 -43 47 -43zM236 -5c-63 0 -98 26 -98 88c0 15 2 32 6 52c20 96 74 140 149 140c61 0 98 -26 98 -90c0 -14 -2 -31 -6 -50c-21 -100 -76 -140 -149 -140zM249 56c36 0 60 15 74 79c3 15 5 28 5 38c0 31 -16 41 -46 41c-39 0 -63 -19 -75 -79c-3 -14 -5 -26 -5 -36
c0 -33 17 -43 47 -43zM111 260l-18 44l511 218l18 -45zM236 425c-63 0 -98 25 -98 87c0 15 2 33 6 53c20 95 74 140 149 140c61 0 98 -26 98 -90c0 -14 -2 -31 -6 -50c-21 -100 -76 -140 -149 -140zM249 486c36 0 60 15 74 79c3 14 5 27 5 37c0 31 -16 42 -46 42
c-38 0 -63 -20 -75 -79c-3 -14 -5 -26 -5 -36c0 -33 17 -43 47 -43z" />
    <glyph glyph-name="minus.tab" horiz-adv-x="650" 
d="M178 366h431v-75h-431v75z" />
    <glyph glyph-name="f_b" horiz-adv-x="1004" 
d="M456 0l143 674c-60 2 -113 6 -157 6c-66 0 -90 -13 -105 -84l-14 -66h121l-16 -75h-121l-97 -455h-87l97 455h-85l15 75h86l17 77c24 113 86 148 199 148c53 0 145 -5 249 -5l-66 -309c44 66 103 99 201 99c110 0 174 -71 174 -190c0 -172 -76 -360 -285 -360
c-93 0 -154 54 -165 126l-38 -116h-66zM719 65c147 0 203 141 203 270c0 89 -47 130 -126 130c-113 0 -173 -73 -192 -167l-11 -57c-21 -103 25 -176 126 -176z" />
    <glyph glyph-name="f_f_b" horiz-adv-x="1338" 
d="M457 0l97 455h-247l-97 -455h-87l97 455h-85l15 75h86l17 77c24 113 86 148 192 148c37 0 67 -5 85 -11l-17 -81c-18 10 -46 17 -79 17c-58 0 -82 -13 -97 -84l-14 -66h247l17 77c24 113 85 148 198 148c53 0 145 -5 250 -5l-67 -309c45 66 104 99 201 99
c110 0 175 -71 175 -190c0 -172 -76 -360 -286 -360c-92 0 -154 54 -165 126l-38 -116h-66l143 674c-59 2 -113 6 -157 6c-66 0 -90 -13 -105 -84l-14 -66h121l-15 -75h-122l-97 -455h-86zM1052 65c148 0 203 141 203 270c0 89 -47 130 -126 130c-112 0 -173 -73 -192 -167
l-11 -57c-21 -103 25 -176 126 -176z" />
    <glyph glyph-name="f_f_h" horiz-adv-x="1324" 
d="M457 0l97 455h-247l-97 -455h-87l97 455h-85l15 75h86l17 77c24 113 86 148 192 148c37 0 67 -5 85 -11l-17 -81c-18 10 -46 17 -79 17c-58 0 -82 -13 -97 -84l-14 -66h247l17 77c24 113 85 148 198 148c53 0 143 -5 248 -5l-66 -316c45 67 108 106 202 106
c108 0 156 -39 156 -121c0 -22 -3 -45 -9 -72l-73 -347h-87l70 330c4 20 6 41 6 56c0 59 -34 79 -110 79c-104 0 -162 -64 -180 -149l-67 -316h-86l142 674c-59 2 -112 6 -156 6c-66 0 -90 -13 -105 -84l-14 -66h121l-15 -75h-122l-97 -455h-86z" />
    <glyph glyph-name="f_f_j" horiz-adv-x="965" 
d="M457 0l97 455h-247l-97 -455h-87l97 455h-85l15 75h86l17 77c24 113 86 148 192 148c37 0 67 -5 85 -11l-17 -81c-18 10 -46 17 -79 17c-58 0 -82 -13 -97 -84l-14 -66h247l17 77c24 113 85 148 189 148c33 0 64 -5 82 -11l-18 -81c-18 11 -46 17 -76 17
c-55 0 -79 -13 -94 -84l-14 -66h332l-119 -556c-24 -112 -77 -159 -178 -159c-34 0 -59 5 -72 11l18 82c14 -9 35 -15 62 -15c48 0 72 22 84 80l103 482h-246l-97 -455h-86zM979 633c-37 0 -56 19 -56 52s19 52 56 52s55 -19 55 -52s-18 -52 -55 -52z" />
    <glyph glyph-name="f_f_k" horiz-adv-x="1265" 
d="M457 0l97 455h-247l-97 -455h-87l97 455h-85l15 75h86l17 77c24 113 86 148 192 148c37 0 67 -5 85 -11l-17 -81c-18 10 -46 17 -79 17c-58 0 -82 -13 -97 -84l-14 -66h247l17 77c24 113 85 148 198 148c46 0 122 -4 210 -5h39l-92 -437h40l237 217h110l-279 -259
l188 -271h-104l-168 238h-40l-51 -238h-86l142 674c-59 2 -112 6 -156 6c-66 0 -90 -13 -105 -84l-14 -66h121l-15 -75h-122l-97 -455h-86z" />
    <glyph glyph-name="f_h" horiz-adv-x="990" 
d="M456 0l142 674c-59 2 -112 6 -156 6c-66 0 -90 -13 -105 -84l-14 -66h121l-16 -75h-121l-97 -455h-87l97 455h-85l15 75h86l17 77c24 113 86 148 199 148c53 0 143 -5 248 -5l-66 -316c45 67 108 106 202 106c108 0 155 -39 155 -121c0 -22 -2 -45 -8 -72l-74 -347h-86
l70 330c4 20 6 41 6 56c0 59 -34 79 -110 79c-104 0 -162 -64 -180 -149l-67 -316h-86z" />
    <glyph glyph-name="f_j" horiz-adv-x="632" 
d="M286 -174l18 82c14 -9 35 -15 62 -15c48 0 72 22 84 80l103 482h-246l-97 -455h-87l97 455h-85l15 75h86l17 77c24 113 86 148 190 148c33 0 64 -5 82 -11l-18 -81c-18 11 -47 17 -76 17c-55 0 -79 -13 -94 -84l-14 -66h332l-119 -556c-24 -112 -77 -159 -178 -159
c-34 0 -60 5 -72 11zM645 633c-37 0 -55 19 -55 52s18 52 55 52s56 -19 56 -52s-19 -52 -56 -52z" />
    <glyph glyph-name="f_k" horiz-adv-x="932" 
d="M456 0l142 674c-59 2 -112 6 -156 6c-66 0 -90 -13 -105 -84l-14 -66h121l-16 -75h-121l-97 -455h-87l97 455h-85l15 75h86l17 77c24 113 86 148 199 148c53 0 144 -5 249 -5l-93 -437h40l238 217h110l-280 -259l189 -271h-104l-169 238h-40l-50 -238h-86z" />
    </font>
</defs>
</svg>
