<?xml version="1.0" standalone="no"?>
<!DOCTYPE svg PUBLIC "-//W3C//DTD SVG 1.1//EN" "http://www.w3.org/Graphics/SVG/1.1/DTD/svg11.dtd" >
<svg xmlns="http://www.w3.org/2000/svg" xmlns:xlink="http://www.w3.org/1999/xlink" version="1.1">
<metadata>
Created by FontForge 20190801 at Wed Apr 17 13:05:11 2019
 By Jimmy Wärting
Copyright (c) 2018 ParaType Inc., ParaType Ltd. All rights reserved.
</metadata>
<defs>
<font id="SBSansText-Light" horiz-adv-x="450" >
  <font-face 
    font-family="SB Sans Text Light"
    font-weight="300"
    font-stretch="normal"
    units-per-em="1000"
    panose-1="2 11 3 3 4 5 4 2 2 4"
    ascent="801"
    descent="-199"
    x-height="520"
    cap-height="700"
    bbox="-332 -240 1215 940"
    underline-thickness="50"
    underline-position="-113"
    stemh="58"
    stemv="59"
    unicode-range="U+0020-FEFF"
  />
<missing-glyph horiz-adv-x="500" 
 />
    <glyph glyph-name="f_f" unicode="ff" horiz-adv-x="690" 
d="M443 0v465h-259v-465h-59v465h-88v55h88v90c0 107 52 146 153 146c33 0 56 -4 73 -10v-65c-19 12 -44 20 -77 20c-72 0 -90 -27 -90 -103v-78h259v90c0 107 52 146 153 146c32 0 56 -4 73 -10v-65c-20 12 -44 20 -78 20c-71 0 -89 -27 -89 -103v-78h166v-55h-166v-465
h-59z" />
    <glyph glyph-name="fi" unicode="fi" horiz-adv-x="610" 
d="M429 691c0 23 12 41 43 41c30 0 44 -18 44 -41c0 -24 -14 -43 -44 -43c-31 0 -43 19 -43 43zM125 520v90c0 107 50 146 148 146c30 0 55 -5 74 -10v-65c-22 12 -50 20 -79 20c-67 0 -84 -27 -84 -103v-78h318v-520h-59v465h-259v-465h-59v465h-88v55h88z" />
    <glyph glyph-name="fl" unicode="fl" horiz-adv-x="659" 
d="M125 520v80c0 115 53 156 156 156c56 0 106 -6 166 -6h55v-625c0 -61 20 -76 70 -76c25 0 49 7 63 15v-57c-14 -8 -43 -15 -74 -15c-81 0 -118 39 -118 115v588c-56 2 -103 6 -162 6c-77 0 -97 -31 -97 -113v-68h167v-55h-167v-465h-59v465h-88v55h88z" />
    <glyph glyph-name="f_f_i" unicode="ffi" horiz-adv-x="928" 
d="M125 0v465h-88v55h88v90c0 107 52 146 153 146c33 0 56 -4 73 -10v-65c-19 12 -44 20 -77 20c-72 0 -90 -27 -90 -103v-78h259v90c0 107 50 146 147 146c30 0 56 -5 75 -10v-65c-22 12 -50 20 -79 20c-67 0 -84 -27 -84 -103v-78h317v-520h-59v465h-258v-465h-59v465
h-259v-465h-59zM746 691c0 23 13 41 44 41c29 0 43 -18 43 -41c0 -24 -14 -43 -43 -43c-31 0 -44 19 -44 43z" />
    <glyph glyph-name="f_f_l" unicode="ffl" horiz-adv-x="977" 
d="M125 0v465h-88v55h88v90c0 107 52 146 153 146c33 0 56 -4 73 -10v-65c-19 12 -44 20 -77 20c-72 0 -90 -27 -90 -103v-78h259v80c0 115 53 156 155 156c57 0 106 -6 167 -6h54v-625c0 -61 21 -76 70 -76c26 0 50 7 64 15v-57c-14 -8 -44 -15 -74 -15
c-81 0 -119 39 -119 115v588c-56 2 -102 6 -161 6c-78 0 -97 -31 -97 -113v-68h166v-55h-166v-465h-59v465h-259v-465h-59z" />
    <glyph glyph-name=".notdef" horiz-adv-x="500" 
 />
    <glyph glyph-name="space" unicode=" " horiz-adv-x="298" 
 />
    <glyph glyph-name="exclam" unicode="!" horiz-adv-x="375" 
d="M149 40c0 28 15 49 51 49s51 -21 51 -49s-15 -50 -51 -50s-51 22 -51 50zM168 220v480h63v-480h-63z" />
    <glyph glyph-name="quotedbl" unicode="&#x22;" horiz-adv-x="510" 
d="M132 439v261h58v-261h-58zM320 439v261h58v-261h-58z" />
    <glyph glyph-name="numbersign" unicode="#" horiz-adv-x="710" 
d="M123 0l44 206h-112l13 54h113l40 185h-118l13 53h119l42 202h56l-42 -202h193l42 202h56l-42 -202h114l-13 -53h-115l-40 -185h121l-13 -54h-121l-44 -206h-56l43 206h-192l-44 -206h-57zM237 260h193l40 185h-193z" />
    <glyph glyph-name="dollar" unicode="$" horiz-adv-x="590" 
d="M440 182c0 205 -356 96 -356 347c0 110 58 168 186 178v93h47v-91c68 -1 128 -16 161 -33v-79c-37 32 -103 54 -168 54c-112 0 -160 -32 -160 -115c0 -201 358 -86 358 -350c0 -112 -58 -183 -191 -193v-113h-47v111c-80 2 -151 24 -189 52v88c36 -39 107 -82 192 -82
c122 0 167 48 167 133z" />
    <glyph glyph-name="percent" unicode="%" horiz-adv-x="871" 
d="M155 0l504 700h61l-501 -700h-64zM472 150c0 99 58 163 163 163c100 0 158 -60 158 -163c0 -101 -60 -164 -165 -164c-101 0 -156 63 -156 164zM739 150c0 71 -33 110 -107 110c-72 0 -106 -40 -106 -110s37 -111 107 -111c71 0 106 38 106 111zM78 547
c0 99 59 163 164 163c100 0 158 -60 158 -163c0 -101 -60 -164 -165 -164c-102 0 -157 63 -157 164zM345 547c0 71 -32 110 -106 110c-72 0 -106 -40 -106 -110s37 -111 107 -111s105 38 105 111z" />
    <glyph glyph-name="ampersand" unicode="&#x26;" horiz-adv-x="884" 
d="M689 515h61c-1 -138 -51 -285 -138 -389c51 -33 102 -58 148 -69v-70c-61 16 -126 50 -190 94c-66 -59 -148 -95 -240 -95c-148 0 -231 72 -231 208c0 99 57 166 165 214c-35 59 -55 115 -55 159c0 87 49 144 165 144c87 0 152 -44 152 -134c0 -100 -73 -148 -183 -189
c53 -79 130 -158 223 -230c84 94 123 229 123 357zM523 116c-98 79 -177 163 -233 249c-79 -35 -128 -82 -128 -164c0 -92 50 -154 175 -154c63 0 125 21 186 69zM318 429c89 35 146 66 146 138c0 54 -27 88 -97 88c-58 0 -98 -27 -98 -92c0 -37 19 -84 49 -134z" />
    <glyph glyph-name="quotesingle" unicode="'" horiz-adv-x="322" 
d="M132 439v261h58v-261h-58z" />
    <glyph glyph-name="parenleft" unicode="(" horiz-adv-x="335" 
d="M290 -163l-30 -27c-86 80 -181 260 -181 475c0 197 88 391 180 475l31 -27c-68 -76 -150 -227 -150 -448c0 -210 83 -373 150 -448z" />
    <glyph glyph-name="parenright" unicode=")" horiz-adv-x="335" 
d="M45 733l30 27c86 -80 181 -260 181 -475c0 -197 -88 -391 -180 -475l-31 27c68 76 150 227 150 448c0 210 -83 373 -150 448z" />
    <glyph glyph-name="asterisk" unicode="*" horiz-adv-x="529" 
d="M131 391l99 116l-146 42l19 59l141 -60l-11 152h63l-10 -152l140 60l20 -59l-147 -42l100 -116l-52 -36l-83 127l-82 -127z" />
    <glyph glyph-name="plus" unicode="+" horiz-adv-x="590" 
d="M79 305v59h186v185h59v-185h186v-59h-186v-185h-59v185h-186z" />
    <glyph glyph-name="comma" unicode="," horiz-adv-x="313" 
d="M61 -106c56 15 90 49 98 97c-35 0 -55 13 -55 49c0 27 15 50 51 50c37 0 58 -25 58 -73c0 -78 -51 -140 -113 -163z" />
    <glyph glyph-name="hyphen" unicode="-" horiz-adv-x="468" 
d="M104 261v59h260v-59h-260z" />
    <glyph glyph-name="period" unicode="." horiz-adv-x="307" 
d="M103 40c0 29 14 50 51 50c35 0 50 -22 50 -50s-14 -49 -50 -49s-51 21 -51 49z" />
    <glyph glyph-name="slash" unicode="/" horiz-adv-x="357" 
d="M4 -180l292 930h57l-292 -930h-57z" />
    <glyph glyph-name="zero" unicode="0" horiz-adv-x="590" 
d="M58 349c0 260 74 360 241 360c174 0 233 -107 233 -360c0 -269 -74 -359 -237 -359c-169 0 -237 114 -237 359zM121 349c0 -222 50 -303 178 -303c126 0 169 75 169 302c0 234 -41 305 -174 305c-128 0 -173 -78 -173 -304z" />
    <glyph glyph-name="one" unicode="1" horiz-adv-x="590" 
d="M101 0v58h205v573l-205 -126v64l222 138h43v-649h141v-58h-406z" />
    <glyph glyph-name="two" unicode="2" horiz-adv-x="590" 
d="M60 0v47c299 273 385 319 385 453c0 103 -55 149 -173 149c-73 0 -144 -29 -192 -64v79c56 29 133 45 203 45c153 0 226 -66 226 -202c0 -152 -94 -222 -356 -449h369v-58h-462z" />
    <glyph glyph-name="three" unicode="3" horiz-adv-x="590" 
d="M183 332v55h76c120 0 178 52 178 137c0 90 -42 126 -162 126c-95 0 -160 -33 -198 -57v74c46 22 124 42 209 42c156 0 212 -57 213 -172c0 -100 -53 -150 -145 -170c112 -10 170 -66 170 -174c0 -137 -85 -202 -240 -202c-89 0 -171 18 -216 43v81
c42 -31 113 -62 210 -62c152 0 184 58 184 146c0 85 -59 133 -202 133h-77z" />
    <glyph glyph-name="four" unicode="4" horiz-adv-x="590" 
d="M41 192v45l341 463h74v-450h102v-58h-102v-192h-60v192h-355zM396 250v377l-277 -377h277z" />
    <glyph glyph-name="five" unicode="5" horiz-adv-x="590" 
d="M92 357l27 343h382v-58h-331l-17 -221c26 3 75 5 136 5c165 0 235 -65 235 -201c0 -146 -68 -234 -257 -234c-69 0 -142 11 -186 31v77c50 -34 121 -47 180 -47c142 0 199 52 199 166c0 110 -52 152 -196 152c-67 0 -131 -5 -172 -13z" />
    <glyph glyph-name="six" unicode="6" horiz-adv-x="590" 
d="M308 -9c-175 0 -250 107 -250 328c0 280 110 390 297 390c52 0 96 -9 129 -22v-74c-31 20 -70 35 -137 35c-136 0 -231 -80 -231 -300c0 -19 0 -28 1 -38c35 85 104 137 213 137c138 0 207 -81 207 -214c0 -170 -106 -242 -229 -242zM130 264c1 -137 61 -212 182 -212
c95 0 163 53 163 171s-55 166 -161 166c-119 0 -167 -72 -184 -125z" />
    <glyph glyph-name="seven" unicode="7" horiz-adv-x="590" 
d="M168 0l293 636h-400v64h473v-46l-298 -654h-68z" />
    <glyph glyph-name="eight" unicode="8" horiz-adv-x="590" 
d="M59 190c0 84 28 156 149 180c-101 17 -133 73 -133 163c0 108 72 178 223 178c152 0 214 -62 214 -163c0 -89 -25 -152 -129 -176c116 -18 151 -82 151 -178c0 -120 -71 -203 -235 -203c-162 0 -240 74 -240 199zM121 199c0 -98 57 -147 179 -147c121 0 173 51 173 145
c0 100 -64 147 -173 145c-136 -3 -179 -59 -179 -143zM136 522c0 -80 51 -134 165 -131c116 3 150 60 150 134c0 87 -41 125 -155 125c-119 0 -160 -50 -160 -128z" />
    <glyph glyph-name="nine" unicode="9" horiz-adv-x="590" 
d="M285 709c181 0 249 -107 249 -335c0 -273 -110 -383 -297 -383c-52 0 -96 9 -129 22v74c31 -20 70 -35 137 -35c136 0 229 80 231 300c0 19 0 28 -1 38c-32 -88 -101 -137 -210 -137c-138 0 -210 81 -210 214c0 170 107 242 230 242zM464 446c-3 123 -55 202 -183 202
c-96 -1 -163 -53 -164 -171s58 -166 164 -166c122 0 170 73 183 135z" />
    <glyph glyph-name="colon" unicode=":" horiz-adv-x="307" 
d="M103 40c0 29 14 50 51 50c35 0 50 -22 50 -50s-14 -49 -50 -49s-51 21 -51 49zM103 454c0 29 14 50 51 50c35 0 50 -22 50 -50s-14 -49 -50 -49s-51 21 -51 49z" />
    <glyph glyph-name="semicolon" unicode=";" horiz-adv-x="313" 
d="M104 454c0 29 14 50 51 50c35 0 50 -22 50 -50s-14 -49 -50 -49s-51 21 -51 49zM61 -106c56 15 90 49 98 97c-35 0 -55 13 -55 49c0 27 15 50 51 50c37 0 58 -25 58 -73c0 -78 -51 -140 -113 -163z" />
    <glyph glyph-name="less" unicode="&#x3c;" horiz-adv-x="590" 
d="M70 296v50l431 174v-60l-358 -138v-2l358 -138v-61z" />
    <glyph glyph-name="equal" unicode="=" horiz-adv-x="591" 
d="M78 197v57h434v-57h-434zM78 400v57h434v-57h-434z" />
    <glyph glyph-name="greater" unicode="&#x3e;" horiz-adv-x="590" 
d="M89 121v61l358 138v2l-358 138v60l431 -174v-50z" />
    <glyph glyph-name="question" unicode="?" horiz-adv-x="540" 
d="M191 208c0 187 212 154 212 317c0 88 -52 126 -155 126c-73 0 -121 -20 -162 -47v74c49 22 108 31 162 31c143 0 216 -52 216 -184c0 -193 -215 -168 -215 -317h-58zM170 40c0 28 15 49 50 49c37 0 51 -21 51 -49s-14 -50 -51 -50c-35 0 -50 22 -50 50z" />
    <glyph glyph-name="at" unicode="@" horiz-adv-x="1013" 
d="M731 63c-68 0 -98 25 -104 103c-18 -66 -62 -103 -150 -103c-126 0 -169 76 -169 225c0 157 77 225 181 225c91 0 120 -38 135 -90l9 80h45v-316c0 -49 12 -74 56 -74c58 0 122 54 122 218c0 203 -121 323 -342 323c-227 0 -356 -133 -356 -371c0 -232 130 -366 364 -366
c68 0 137 17 176 42v-54c-38 -18 -107 -35 -175 -35c-270 0 -414 158 -414 414c0 247 144 416 408 416c242 0 387 -140 387 -367c0 -193 -84 -270 -173 -270zM366 288c0 -115 26 -174 124 -174c89 0 130 51 130 156v50c0 99 -45 140 -121 140c-86 0 -133 -42 -133 -172z" />
    <glyph glyph-name="A" unicode="A" horiz-adv-x="655" 
d="M556 0l-74 200h-314l-74 -200h-65l266 700h65l266 -700h-70zM326 625l-137 -367h272z" />
    <glyph glyph-name="B" unicode="B" horiz-adv-x="637" 
d="M110 2v696c58 4 133 7 198 7c181 0 233 -52 233 -178c0 -88 -35 -139 -122 -161c103 -11 149 -69 149 -161c0 -135 -65 -211 -259 -211c-77 0 -144 3 -199 8zM173 58c46 -5 92 -6 139 -6c148 0 192 52 192 151c0 94 -57 130 -170 130h-161v-275zM173 385h139
c124 0 165 46 165 127c0 106 -28 135 -169 135c-47 0 -89 0 -135 -3v-259z" />
    <glyph glyph-name="C" unicode="C" horiz-adv-x="647" 
d="M558 682v-72c-40 22 -104 41 -175 41c-159 0 -245 -80 -245 -297c0 -225 92 -305 251 -305c75 0 144 26 179 44v-66c-35 -17 -101 -36 -183 -36c-206 0 -314 104 -314 355c0 258 108 363 314 363c84 0 139 -16 173 -27z" />
    <glyph glyph-name="D" unicode="D" horiz-adv-x="715" 
d="M110 3v696c56 4 98 7 188 7c266 0 345 -108 345 -337c0 -270 -110 -375 -360 -375c-79 0 -123 5 -173 9zM173 57c39 -3 64 -5 105 -5c222 0 299 90 299 310c0 206 -60 286 -283 286c-48 0 -77 -2 -121 -5v-586z" />
    <glyph glyph-name="E" unicode="E" horiz-adv-x="599" 
d="M110 0v700h412v-58h-349v-256h322v-57h-322v-271h349v-58h-412z" />
    <glyph glyph-name="F" unicode="F" horiz-adv-x="571" 
d="M110 0v700h402v-58h-339v-277h324v-57h-324v-308h-63z" />
    <glyph glyph-name="G" unicode="G" horiz-adv-x="687" 
d="M389 288v57h222v-315c-37 -17 -109 -39 -197 -39c-232 0 -343 104 -343 355s115 363 344 363c70 0 123 -15 156 -29v-70c-36 22 -99 41 -160 41c-187 0 -273 -88 -273 -297c0 -224 89 -305 278 -305c48 0 98 8 135 21v218h-162z" />
    <glyph glyph-name="H" unicode="H" horiz-adv-x="760" 
d="M110 0v700h63v-311h414v311h63v-700h-63v331h-414v-331h-63z" />
    <glyph glyph-name="I" unicode="I" horiz-adv-x="294" 
d="M115 0v700h63v-700h-63z" />
    <glyph glyph-name="J" unicode="J" horiz-adv-x="391" 
d="M217 165v535h64v-541c0 -111 -50 -166 -167 -166c-44 0 -74 8 -98 16v66c19 -13 60 -25 97 -25c72 0 104 33 104 115z" />
    <glyph glyph-name="K" unicode="K" horiz-adv-x="673" 
d="M110 0v700h63v-313h53l312 313h83l-342 -336l367 -364h-84l-337 336h-52v-336h-63z" />
    <glyph glyph-name="L" unicode="L" horiz-adv-x="556" 
d="M110 0v700h63v-642h346v-58h-409z" />
    <glyph glyph-name="M" unicode="M" horiz-adv-x="861" 
d="M110 0v700h76l248 -457l247 457h70v-700h-63v491c0 22 1 89 3 116c-14 -30 -49 -99 -57 -115l-173 -317h-57l-173 315c-10 19 -46 90 -62 121c3 -29 4 -97 4 -120v-491h-63z" />
    <glyph glyph-name="N" unicode="N" horiz-adv-x="754" 
d="M110 0v700h68l340 -497c13 -20 56 -86 66 -102c-2 19 -3 88 -3 112v487h63v-700h-66l-335 495c-14 19 -60 91 -74 116c2 -23 4 -86 4 -112v-499h-63z" />
    <glyph glyph-name="O" unicode="O" horiz-adv-x="760" 
d="M71 350c0 241 106 360 313 360c213 0 304 -121 304 -360c0 -255 -114 -360 -309 -360c-192 0 -308 110 -308 360zM138 348c0 -210 86 -300 245 -300c156 0 239 87 239 300c0 214 -77 304 -244 304c-163 0 -240 -103 -240 -304z" />
    <glyph glyph-name="P" unicode="P" horiz-adv-x="619" 
d="M110 0v697c54 4 108 9 174 9c198 0 270 -66 270 -219c0 -159 -71 -240 -272 -240c-38 0 -69 1 -109 4v-251h-63zM173 308c40 -3 69 -4 109 -4c153 0 206 46 206 178c0 106 -36 166 -204 166c-40 0 -71 -1 -111 -5v-335z" />
    <glyph glyph-name="Q" unicode="Q" horiz-adv-x="760" 
d="M71 350c0 241 106 360 313 360c213 0 304 -121 304 -360c0 -214 -80 -322 -221 -351l138 -142h-79l-132 133h-15c-192 0 -308 110 -308 360zM138 348c0 -210 86 -300 245 -300c156 0 239 87 239 300c0 214 -77 304 -244 304c-163 0 -240 -103 -240 -304z" />
    <glyph glyph-name="R" unicode="R" horiz-adv-x="650" 
d="M173 0h-63v695c57 5 122 11 186 11c169 0 240 -62 240 -196c0 -106 -43 -171 -151 -199l221 -311h-75l-215 301h-143v-301zM173 354h118c136 0 178 60 178 151c0 95 -40 143 -176 143c-47 0 -78 -1 -120 -5v-289z" />
    <glyph glyph-name="S" unicode="S" horiz-adv-x="564" 
d="M430 182c0 205 -356 96 -356 347c0 122 71 180 229 180c70 0 132 -16 165 -33v-79c-37 32 -104 54 -168 54c-113 0 -161 -32 -161 -115c0 -201 358 -86 358 -350c0 -122 -67 -195 -229 -195c-83 0 -157 23 -198 52v88c37 -39 108 -82 192 -82c122 0 168 48 168 133z" />
    <glyph glyph-name="T" unicode="T" horiz-adv-x="569" 
d="M252 0v642h-226v58h516v-58h-226v-642h-64z" />
    <glyph glyph-name="U" unicode="U" horiz-adv-x="725" 
d="M103 263v437h63v-428c0 -193 82 -225 203 -225c111 0 190 28 190 219v434h64v-432c0 -212 -94 -278 -259 -278c-184 0 -261 80 -261 273z" />
    <glyph glyph-name="V" unicode="V" horiz-adv-x="634" 
d="M284 0l-258 700h70l226 -624l219 624h66l-254 -700h-69z" />
    <glyph glyph-name="W" unicode="W" horiz-adv-x="913" 
d="M201 0l-151 700h67l98 -456c5 -25 24 -116 27 -142c7 25 32 116 41 141l143 457h67l141 -456c8 -25 35 -117 42 -143c3 26 22 118 27 143l97 456h62l-151 -700h-62l-191 613l-193 -613h-64z" />
    <glyph glyph-name="X" unicode="X" horiz-adv-x="627" 
d="M29 0l240 361l-222 339h76l189 -294l196 294h73l-229 -335l246 -365h-77l-211 318l-208 -318h-73z" />
    <glyph glyph-name="Y" unicode="Y" horiz-adv-x="597" 
d="M267 0v280l-243 420h71l206 -358l202 358h70l-242 -420v-280h-64z" />
    <glyph glyph-name="Z" unicode="Z" horiz-adv-x="585" 
d="M41 0v43l415 599h-403v58h485v-44l-414 -598h420v-58h-503z" />
    <glyph glyph-name="bracketleft" unicode="[" horiz-adv-x="392" 
d="M111 -180v930h211v-55h-152v-820h152v-55h-211z" />
    <glyph glyph-name="backslash" unicode="\" horiz-adv-x="357" 
d="M296 -180l-292 930h58l291 -930h-57z" />
    <glyph glyph-name="bracketright" unicode="]" horiz-adv-x="392" 
d="M70 -180v55h152v820h-152v55h210v-930h-210z" />
    <glyph glyph-name="asciicircum" unicode="^" horiz-adv-x="590" 
d="M65 358l187 342h85l188 -342h-64l-166 305l-165 -305h-65z" />
    <glyph glyph-name="underscore" unicode="_" horiz-adv-x="417" 
d="M4 -185v56h409v-56h-409z" />
    <glyph glyph-name="grave" unicode="`" horiz-adv-x="613" 
d="M347 615h-54l-106 130h84z" />
    <glyph glyph-name="a" unicode="a" horiz-adv-x="543" 
d="M402 0l-6 100c-24 -65 -79 -110 -166 -110c-112 0 -171 53 -171 155c0 107 55 152 212 152h123v57c0 90 -43 121 -138 121c-62 0 -126 -27 -159 -55v72c35 20 105 37 165 37c139 0 192 -52 192 -179v-350h-52zM120 153c0 -69 34 -106 122 -106c97 0 152 61 152 156v49
h-120c-124 0 -154 -31 -154 -99z" />
    <glyph glyph-name="b" unicode="b" horiz-adv-x="612" 
d="M95 0v750h59v-332c28 74 87 111 184 111c141 0 211 -72 211 -259c0 -194 -70 -280 -218 -280c-91 0 -152 37 -180 107l-6 -97h-50zM153 294v-62c0 -104 54 -188 169 -188c121 0 167 71 167 223c0 153 -47 208 -163 208c-113 0 -173 -65 -173 -181z" />
    <glyph glyph-name="c" unicode="c" horiz-adv-x="511" 
d="M442 504v-68c-29 19 -81 37 -135 37c-121 0 -183 -63 -183 -208c0 -151 65 -218 196 -218c48 0 106 17 135 41v-66c-26 -17 -82 -32 -146 -32c-166 0 -247 88 -247 277c0 172 80 262 248 262c60 0 105 -13 132 -25z" />
    <glyph glyph-name="d" unicode="d" horiz-adv-x="612" 
d="M464 0l-5 109c-29 -74 -80 -119 -182 -119c-142 0 -215 82 -215 265c0 198 80 274 221 274c102 0 154 -44 175 -98v319h59v-750h-53zM290 44c113 0 169 62 168 191v68c0 94 -41 173 -169 173c-116 0 -167 -60 -167 -218c0 -147 53 -214 168 -214z" />
    <glyph glyph-name="e" unicode="e" horiz-adv-x="566" 
d="M504 243h-381c0 -133 60 -199 187 -199c67 0 121 24 158 55v-64c-27 -20 -85 -45 -159 -45c-167 0 -247 84 -247 277c0 178 85 262 228 262c160 0 214 -95 214 -250v-36zM290 476c-106 0 -164 -59 -167 -181h321c0 108 -35 181 -154 181z" />
    <glyph glyph-name="f" unicode="f" horiz-adv-x="373" 
d="M125 0v465h-88v55h88v90c0 107 52 146 153 146c33 0 56 -4 73 -10v-65c-19 12 -44 20 -77 20c-72 0 -90 -27 -90 -103v-78h167v-55h-167v-465h-59z" />
    <glyph glyph-name="g" unicode="g" horiz-adv-x="612" 
d="M106 -148v73c28 -26 96 -58 177 -58c127 0 175 45 175 148v101c-27 -73 -86 -115 -182 -115c-142 0 -214 83 -214 257c0 197 79 271 226 271c93 0 151 -44 172 -104l5 95h53v-501c-1 -150 -84 -206 -230 -206c-84 0 -145 19 -182 39zM289 55c107 0 170 53 170 187v53
c0 112 -51 180 -168 180c-112 0 -169 -59 -169 -215c0 -144 63 -205 167 -205z" />
    <glyph glyph-name="h" unicode="h" horiz-adv-x="606" 
d="M95 0v750h59v-331c22 71 87 110 181 110c134 0 183 -57 183 -189v-340h-60v330c0 109 -41 146 -144 146c-112 0 -160 -60 -160 -160v-316h-59z" />
    <glyph glyph-name="i" unicode="i" horiz-adv-x="276" 
d="M109 0v520h59v-520h-59zM138 638c-27 0 -42 15 -42 42s15 42 42 42s42 -15 42 -42s-15 -42 -42 -42z" />
    <glyph glyph-name="j" unicode="j" horiz-adv-x="260" 
d="M100 -35v555h59v-551c0 -94 -31 -154 -131 -154c-30 0 -55 5 -69 10v66c18 -12 41 -19 68 -19c48 0 73 21 73 93zM130 638c-27 0 -42 15 -42 42s15 42 42 42s42 -15 42 -42s-15 -42 -42 -42z" />
    <glyph glyph-name="k" unicode="k" horiz-adv-x="532" 
d="M95 750h59v-449h39l222 219h71l-245 -239l267 -281h-75l-243 253h-36v-253h-59v750z" />
    <glyph glyph-name="l" unicode="l" horiz-adv-x="312" 
d="M154 125c0 -61 21 -76 70 -76c26 0 50 7 64 15v-57c-14 -8 -44 -15 -74 -15c-81 0 -119 39 -119 115v643h59v-625z" />
    <glyph glyph-name="m" unicode="m" horiz-adv-x="875" 
d="M95 0v520h52l6 -104c18 71 77 113 160 113c91 0 136 -42 146 -113c21 77 84 113 168 113c118 0 159 -59 159 -163v-366h-59v345c0 92 -33 128 -125 128c-88 0 -132 -58 -132 -144v-329h-59v341c0 98 -38 132 -119 132c-96 0 -138 -64 -138 -144v-329h-59z" />
    <glyph glyph-name="n" unicode="n" horiz-adv-x="606" 
d="M95 0v520h53l5 -102c32 72 90 111 180 111c126 0 185 -48 185 -196v-333h-60v322c0 117 -38 154 -143 154s-161 -64 -161 -164v-312h-59z" />
    <glyph glyph-name="o" unicode="o" horiz-adv-x="596" 
d="M62 261c0 174 86 268 241 268c154 0 230 -88 230 -269c0 -182 -88 -270 -235 -270c-161 0 -236 99 -236 271zM122 263v-3c0 -141 57 -216 179 -216c116 0 172 70 172 217v3c0 141 -52 212 -175 212c-119 0 -176 -73 -176 -213z" />
    <glyph glyph-name="p" unicode="p" horiz-adv-x="612" 
d="M94 -180v700h52l6 -106c28 82 96 115 192 115c139 0 205 -76 205 -259c0 -194 -70 -280 -216 -280c-92 0 -153 40 -180 108v-278h-59zM153 224c0 -96 52 -180 169 -180c121 0 167 71 167 223c0 149 -49 208 -163 208c-112 0 -173 -66 -173 -176v-75z" />
    <glyph glyph-name="q" unicode="q" horiz-adv-x="612" 
d="M458 -180v284c-28 -73 -86 -114 -178 -114c-143 0 -218 82 -218 262c0 198 79 277 227 277c92 0 148 -44 171 -104l6 95h51v-700h-59zM293 44c108 0 165 61 165 181v76c0 98 -47 174 -167 174c-116 0 -169 -63 -169 -221c0 -150 56 -210 171 -210z" />
    <glyph glyph-name="r" unicode="r" horiz-adv-x="394" 
d="M95 0v520h50l6 -95c21 75 84 105 154 105c20 0 43 -3 55 -8v-69c-18 15 -44 23 -73 23c-87 0 -133 -55 -133 -165v-311h-59z" />
    <glyph glyph-name="s" unicode="s" horiz-adv-x="472" 
d="M382 502v-74c-34 28 -75 48 -133 48c-86 0 -120 -26 -120 -82c0 -145 279 -47 279 -249c0 -104 -62 -155 -187 -155c-67 0 -120 15 -156 36v76c36 -35 100 -58 157 -58c85 0 126 31 126 98c0 146 -279 56 -279 247c0 81 40 140 179 140c64 0 111 -15 134 -27z" />
    <glyph glyph-name="t" unicode="t" horiz-adv-x="424" 
d="M138 141v326h-109v53h109v109l59 22v-131h173v-53h-173v-325c0 -73 26 -97 82 -97c48 0 81 14 103 28v-59c-19 -13 -60 -23 -103 -23c-96 0 -141 40 -141 150z" />
    <glyph glyph-name="u" unicode="u" horiz-adv-x="600" 
d="M452 0l-5 104c-30 -82 -96 -114 -183 -114c-119 0 -174 61 -174 177v353h59v-341c0 -99 40 -135 132 -135c113 0 165 63 165 166v310h59v-520h-53z" />
    <glyph glyph-name="v" unicode="v" horiz-adv-x="522" 
d="M232 0l-201 520h67l165 -447l165 447h63l-201 -520h-58z" />
    <glyph glyph-name="w" unicode="w" horiz-adv-x="783" 
d="M174 0l-133 520h63l110 -447l147 447h65l147 -445l111 445h58l-136 -520h-67l-146 455l-152 -455h-67z" />
    <glyph glyph-name="x" unicode="x" horiz-adv-x="510" 
d="M29 0l189 270l-174 250h73l140 -206l140 206h69l-175 -247l190 -273h-73l-155 227l-155 -227h-69z" />
    <glyph glyph-name="y" unicode="y" horiz-adv-x="525" 
d="M155 -131c54 0 70 45 99 128l-220 523h67l184 -448l151 448h63l-193 -534c-53 -149 -92 -173 -153 -173c-22 0 -38 3 -50 9v62c13 -9 29 -15 52 -15z" />
    <glyph glyph-name="z" unicode="z" horiz-adv-x="489" 
d="M46 0v41l314 426h-301v53h378v-40l-315 -426h318v-54h-394z" />
    <glyph glyph-name="braceleft" unicode="{" horiz-adv-x="432" 
d="M167 -31v176c0 71 -45 110 -100 113v54c55 3 100 47 100 114v175c0 77 26 149 139 149h59v-55h-55c-68 0 -86 -44 -86 -99v-172c0 -70 -27 -118 -97 -139c70 -16 97 -75 97 -143v-168c0 -55 18 -99 86 -99h55v-55h-59c-113 0 -139 71 -139 149z" />
    <glyph glyph-name="bar" unicode="|" horiz-adv-x="304" 
d="M121 -180v930h63v-930h-63z" />
    <glyph glyph-name="braceright" unicode="}" horiz-adv-x="432" 
d="M265 601v-176c0 -71 45 -110 100 -113v-54c-55 -3 -100 -47 -100 -114v-175c0 -77 -26 -149 -139 -149h-59v55h55c68 0 86 44 86 99v172c0 70 27 118 97 139c-70 16 -97 75 -97 143v168c0 55 -18 99 -86 99h-55v55h59c113 0 139 -71 139 -149z" />
    <glyph glyph-name="asciitilde" unicode="~" horiz-adv-x="590" 
d="M90 285v67c26 28 64 41 106 41c78 0 143 -77 213 -77c39 0 74 23 92 53v-71c-24 -27 -60 -39 -98 -39c-84 0 -151 77 -210 77c-49 0 -78 -24 -103 -51z" />
    <glyph glyph-name="uni00A0" unicode="&#xa0;" horiz-adv-x="298" 
 />
    <glyph glyph-name="exclamdown" unicode="&#xa1;" horiz-adv-x="375" 
d="M149 481c0 28 15 49 51 49s51 -21 51 -49c0 -29 -15 -50 -51 -50s-51 21 -51 50zM168 301h63v-480h-63v480z" />
    <glyph glyph-name="cent" unicode="&#xa2;" horiz-adv-x="559" 
d="M296 -120v114c-143 12 -205 113 -205 270c0 156 68 251 205 262v94h42v-92c53 -2 94 -14 116 -21v-59c-25 12 -68 26 -117 26c-123 0 -182 -70 -182 -204c0 -149 63 -224 189 -224c46 0 96 15 119 29v-59c-23 -10 -69 -23 -125 -24v-112h-42z" />
    <glyph glyph-name="sterling" unicode="&#xa3;" horiz-adv-x="569" 
d="M74 0v60h91v291h-91v44h91v82c0 80 22 232 219 232c48 0 92 -8 117 -17v-59c-40 11 -70 18 -119 18c-112 0 -153 -77 -153 -175v-81h187v-44h-187v-291h277v-60h-432z" />
    <glyph glyph-name="currency" unicode="&#xa4;" horiz-adv-x="555" 
d="M88 121l-36 36l66 69c-24 28 -41 71 -41 123c0 53 17 95 41 124l-66 70l36 37l66 -69c28 25 72 42 123 42c53 0 96 -18 124 -41l67 69l36 -37l-66 -71c22 -28 40 -71 40 -124c0 -51 -18 -94 -40 -123l65 -69l-36 -37l-65 68c-30 -25 -73 -42 -125 -42s-96 17 -123 42z
M125 349c0 -93 70 -155 152 -155c84 0 153 62 153 155c0 92 -69 157 -153 157c-82 0 -152 -66 -152 -157z" />
    <glyph glyph-name="yen" unicode="&#xa5;" horiz-adv-x="602" 
d="M123 175v43h147v78l-6 10h-141v43h118l-198 351h74l185 -336l184 336h74l-199 -351h119v-43h-142l-4 -10v-78h146v-43h-146v-175h-64v175h-147z" />
    <glyph glyph-name="brokenbar" unicode="&#xa6;" horiz-adv-x="315" 
d="M129 -180v390h58v-390h-58zM129 360v390h58v-390h-58z" />
    <glyph glyph-name="section" unicode="&#xa7;" horiz-adv-x="516" 
d="M410 685v-64c-48 22 -91 30 -133 30c-68 0 -117 -27 -117 -83c0 -42 25 -64 106 -105c10 -5 52 -26 63 -30c60 -32 116 -66 116 -142c0 -50 -33 -104 -91 -150c44 -31 67 -62 67 -110c0 -108 -98 -148 -184 -148c-49 0 -107 10 -147 29v64c49 -27 92 -37 143 -37
c84 0 122 40 122 87c0 52 -39 73 -113 112c-10 4 -56 27 -66 33c-61 30 -104 71 -104 139c0 56 33 99 94 141c-47 28 -72 65 -72 114c0 98 83 144 187 144c51 0 102 -14 129 -24zM136 322c0 -49 23 -79 91 -113c13 -8 71 -37 86 -45c34 31 67 68 67 116c0 45 -23 74 -85 107
c-13 6 -66 31 -85 42c-43 -30 -74 -64 -74 -107z" />
    <glyph glyph-name="dieresis" unicode="&#xa8;" horiz-adv-x="616" 
d="M230 638c-27 0 -42 15 -42 42s15 42 42 42s42 -15 42 -42s-15 -42 -42 -42zM386 638c-27 0 -42 15 -42 42s15 42 42 42s42 -15 42 -42s-15 -42 -42 -42z" />
    <glyph glyph-name="copyright" unicode="&#xa9;" horiz-adv-x="931" 
d="M86 304c0 217 155 376 379 376c225 0 379 -159 379 -376c0 -216 -154 -374 -379 -374c-224 0 -379 158 -379 374zM140 305c0 -187 134 -326 325 -326c192 0 325 139 325 326s-133 325 -325 325c-191 0 -325 -138 -325 -325zM559 496v-43c-24 9 -53 11 -77 11
c-94 0 -143 -51 -143 -155c0 -111 55 -155 143 -155c24 0 54 3 79 14l-1 -46c-23 -8 -50 -13 -83 -13c-130 0 -188 75 -188 198c0 134 68 200 188 200c34 0 61 -4 82 -11z" />
    <glyph glyph-name="ordfeminine" unicode="&#xaa;" horiz-adv-x="378" 
d="M269 373l-2 59h-1c-16 -33 -51 -64 -108 -64c-72 0 -110 35 -110 99c0 66 44 102 133 102c14 0 74 -1 82 -2v28c0 49 -22 73 -87 73c-32 0 -69 -10 -97 -24v46c28 11 66 19 104 19c100 0 131 -41 131 -123v-213h-45zM101 470c0 -36 25 -59 71 -59c57 0 91 38 91 90v30
c-6 0 -64 1 -74 1c-65 0 -88 -21 -88 -62z" />
    <glyph glyph-name="guillemotleft" unicode="&#xab;" horiz-adv-x="550" 
d="M211 59l-138 204l140 207h64l-138 -205l138 -206h-66zM406 59l-138 204l140 207h64l-138 -205l138 -206h-66z" />
    <glyph glyph-name="logicalnot" unicode="&#xac;" horiz-adv-x="654" 
d="M53 336v54h525v-221h-56v167h-469z" />
    <glyph glyph-name="uni00AD" unicode="&#xad;" horiz-adv-x="468" 
d="M104 261v59h260v-59h-260z" />
    <glyph glyph-name="registered" unicode="&#xae;" horiz-adv-x="598" 
d="M50 520c0 148 100 246 249 246s249 -98 249 -246s-100 -246 -249 -246s-249 98 -249 246zM90 521c0 -125 86 -211 209 -211s209 86 209 211s-86 209 -209 209s-209 -84 -209 -209zM204 392v271h103c35 0 91 -5 91 -82c0 -41 -23 -69 -50 -76l70 -113h-51l-64 106h-54
v-106h-45zM249 536h54c25 0 50 9 50 45c0 37 -23 43 -50 43h-54v-88z" />
    <glyph glyph-name="macron" unicode="&#xaf;" horiz-adv-x="613" 
d="M177 657v46h260v-46h-260z" />
    <glyph glyph-name="degree" unicode="&#xb0;" horiz-adv-x="417" 
d="M62 558c0 96 59 152 145 152s149 -53 149 -152c0 -100 -61 -153 -145 -153c-90 0 -149 53 -149 153zM112 557c0 -66 39 -103 98 -103c57 0 96 35 96 103c0 65 -38 103 -98 103c-59 0 -96 -38 -96 -103z" />
    <glyph glyph-name="plusminus" unicode="&#xb1;" horiz-adv-x="597" 
d="M82 97v56h433v-56h-433zM82 398v56h189v168h55v-168h189v-56h-189v-168h-55v168h-189z" />
    <glyph glyph-name="twosuperior" unicode="&#xb2;" 
d="M56 382v54l118 85c91 66 136 107 136 161c0 55 -43 77 -105 77c-48 0 -98 -10 -131 -27v53c43 17 89 24 138 24c91 0 159 -32 159 -116c0 -72 -52 -129 -163 -204l-80 -55v-1h250v-51h-322z" />
    <glyph glyph-name="threesuperior" unicode="&#xb3;" 
d="M140 578v43h73c71 0 109 24 109 69c0 51 -38 69 -112 69c-47 0 -99 -6 -132 -21v51c39 16 98 20 149 20c101 0 153 -41 153 -107c0 -58 -42 -85 -105 -99v-2c90 -12 116 -57 116 -100c0 -93 -92 -126 -178 -126c-47 0 -99 3 -142 20v52c36 -17 86 -22 136 -22
c90 0 124 34 124 76c0 55 -40 77 -114 77h-77z" />
    <glyph glyph-name="acute" unicode="&#xb4;" horiz-adv-x="613" 
d="M285 615l76 130h84l-106 -130h-54z" />
    <glyph glyph-name="mu" unicode="&#xb5;" horiz-adv-x="610" 
d="M461 0l-6 104c-31 -82 -98 -114 -187 -114c-53 0 -92 13 -119 35v-235h-59v730h62v-340c0 -98 41 -134 134 -134c115 0 167 63 167 165v309h63v-520h-55z" />
    <glyph glyph-name="mu" unicode="&#x3bc;" horiz-adv-x="610" 
d="M461 0l-6 104c-31 -82 -98 -114 -187 -114c-53 0 -92 13 -119 35v-235h-59v730h62v-340c0 -98 41 -134 134 -134c115 0 167 63 167 165v309h63v-520h-55z" />
    <glyph glyph-name="paragraph" unicode="&#xb6;" horiz-adv-x="534" 
d="M227 -210v594c-110 0 -163 68 -163 155c0 136 114 161 187 161h178v-910h-48v865h-106v-865h-48z" />
    <glyph glyph-name="periodcentered" unicode="&#xb7;" horiz-adv-x="214" 
d="M61 344c0 29 16 46 46 46c28 0 47 -18 47 -46c0 -30 -18 -47 -47 -47s-46 18 -46 47z" />
    <glyph glyph-name="cedilla" unicode="&#xb8;" horiz-adv-x="533" 
d="M220 -84l12 84h38l-6 -47c60 -1 98 -21 98 -78c0 -50 -40 -85 -101 -85c-31 0 -50 6 -69 15l6 38c20 -9 34 -13 58 -13c32 0 55 14 55 47c0 34 -32 41 -59 41c-8 0 -24 0 -32 -2z" />
    <glyph glyph-name="onesuperior" unicode="&#xb9;" 
d="M237 382v352l-128 -66l-24 45l166 87h46v-418h-60z" />
    <glyph glyph-name="ordmasculine" unicode="&#xba;" horiz-adv-x="394" 
d="M43 539c0 108 57 170 153 170c100 0 155 -59 155 -170c0 -108 -58 -171 -155 -171c-98 0 -153 60 -153 171zM96 539c0 -89 41 -127 100 -127c63 0 102 40 102 127c0 83 -34 126 -102 126c-61 0 -100 -40 -100 -126z" />
    <glyph glyph-name="guillemotright" unicode="&#xbb;" horiz-adv-x="550" 
d="M477 263l-138 -204h-65l138 205l-138 206h64zM282 263l-138 -204h-66l138 205l-137 206h64z" />
    <glyph glyph-name="onequarter" unicode="&#xbc;" horiz-adv-x="950" 
d="M173 -11l513 721h61l-511 -721h-63zM218 282v352l-128 -66l-24 45l166 87h46v-418h-60zM497 99v46l259 274h71v-271h55v-49h-55v-98h-55v98h-275zM772 148v216h-1l-205 -216h206z" />
    <glyph glyph-name="onehalf" unicode="&#xbd;" horiz-adv-x="950" 
d="M139 -11l513 721h61l-511 -721h-63zM214 282v352l-128 -66l-24 45l166 87h46v-418h-60zM557 1v54l118 85c91 66 136 107 136 161c0 55 -43 77 -105 77c-48 0 -98 -10 -131 -27v53c43 17 89 24 138 24c91 0 159 -32 159 -116c0 -72 -52 -129 -163 -204l-80 -55v-1h250v-51
h-322z" />
    <glyph glyph-name="threequarters" unicode="&#xbe;" horiz-adv-x="950" 
d="M208 -11l513 721h61l-511 -721h-63zM503 99v46l259 274h71v-271h55v-49h-55v-98h-55v98h-275zM778 148v216h-1l-205 -216h206zM139 478v43h73c71 0 109 24 109 69c0 51 -38 69 -112 69c-47 0 -99 -6 -132 -21v51c39 16 98 20 149 20c101 0 153 -41 153 -107
c0 -58 -42 -85 -105 -99v-2c90 -12 116 -57 116 -100c0 -93 -92 -126 -178 -126c-47 0 -99 3 -142 20v52c36 -17 86 -22 136 -22c90 0 124 34 124 76c0 55 -40 77 -114 77h-77z" />
    <glyph glyph-name="questiondown" unicode="&#xbf;" horiz-adv-x="540" 
d="M359 312c0 -187 -212 -154 -212 -317c0 -88 53 -126 155 -126c74 0 121 19 162 46v-73c-48 -22 -108 -31 -161 -31c-143 0 -217 52 -217 183c0 194 216 168 216 318h57zM380 480c0 -29 -14 -50 -50 -50s-51 21 -51 50c0 28 15 49 51 49s50 -21 50 -49z" />
    <glyph glyph-name="Agrave" unicode="&#xc0;" horiz-adv-x="655" 
d="M556 0l-74 200h-314l-74 -200h-65l266 700h65l266 -700h-70zM326 625l-137 -367h272zM300 785l-106 130h82l78 -130h-54z" />
    <glyph glyph-name="Aacute" unicode="&#xc1;" horiz-adv-x="655" 
d="M556 0l-74 200h-314l-74 -200h-65l266 700h65l266 -700h-70zM326 625l-137 -367h272zM299 770l84 140h86l-114 -140h-56z" />
    <glyph glyph-name="Acircumflex" unicode="&#xc2;" horiz-adv-x="655" 
d="M556 0l-74 200h-314l-74 -200h-65l266 700h65l266 -700h-70zM326 625l-137 -367h272zM166 770l123 140h74l123 -140h-58l-103 100l-103 -100h-56z" />
    <glyph glyph-name="Atilde" unicode="&#xc3;" horiz-adv-x="655" 
d="M556 0l-74 200h-314l-74 -200h-65l266 700h65l266 -700h-70zM326 625l-137 -367h272zM223 795l-41 11c5 49 38 80 81 80c24 0 43 -11 70 -23c24 -11 42 -22 59 -22s33 11 40 43l40 -11c-7 -52 -43 -79 -79 -79c-20 0 -33 4 -72 23c-23 11 -39 22 -56 22s-34 -10 -42 -44z
" />
    <glyph glyph-name="Adieresis" unicode="&#xc4;" horiz-adv-x="655" 
d="M556 0l-74 200h-314l-74 -200h-65l266 700h65l266 -700h-70zM326 625l-137 -367h272zM231 796c-28 0 -44 16 -44 44s16 44 44 44s44 -16 44 -44s-16 -44 -44 -44zM423 796c-28 0 -44 16 -44 44s16 44 44 44s44 -16 44 -44s-16 -44 -44 -44z" />
    <glyph glyph-name="Aring" unicode="&#xc5;" horiz-adv-x="655" 
d="M556 0l-74 200h-314l-74 -200h-65l266 700h65l266 -700h-70zM326 625l-137 -367h272zM235 840c0 54 38 92 92 92s92 -38 92 -92s-38 -92 -92 -92s-92 38 -92 92zM275 840c0 -33 19 -52 52 -52s52 19 52 52s-19 52 -52 52s-52 -19 -52 -52z" />
    <glyph glyph-name="AE" unicode="&#xc6;" horiz-adv-x="956" 
d="M479 0v200h-266l-119 -200h-69l419 700h437v-58h-339v-256h317v-57h-317v-271h345v-58h-408zM248 258h231v386z" />
    <glyph glyph-name="Ccedilla" unicode="&#xc7;" horiz-adv-x="647" 
d="M337 -93l11 86c-182 12 -277 117 -277 353c0 258 108 363 314 363c84 0 139 -16 173 -27v-72c-40 22 -104 41 -175 41c-159 0 -245 -80 -245 -297c0 -225 92 -305 251 -305c75 0 144 26 179 44v-66c-35 -17 -99 -35 -179 -36l-6 -45c66 -1 110 -23 110 -84
c0 -57 -48 -92 -111 -92c-37 0 -59 6 -78 16l6 39c21 -10 38 -13 66 -13c32 0 62 13 62 50c0 36 -36 48 -67 48c-9 0 -26 0 -34 -3z" />
    <glyph glyph-name="Egrave" unicode="&#xc8;" horiz-adv-x="599" 
d="M110 0v700h412v-58h-349v-256h322v-57h-322v-271h349v-58h-412zM287 785l-106 130h82l78 -130h-54z" />
    <glyph glyph-name="Eacute" unicode="&#xc9;" horiz-adv-x="599" 
d="M110 0v700h412v-58h-349v-256h322v-57h-322v-271h349v-58h-412zM286 770l84 140h86l-114 -140h-56z" />
    <glyph glyph-name="Ecircumflex" unicode="&#xca;" horiz-adv-x="599" 
d="M110 0v700h412v-58h-349v-256h322v-57h-322v-271h349v-58h-412zM154 770l123 140h74l123 -140h-58l-103 100l-103 -100h-56z" />
    <glyph glyph-name="Edieresis" unicode="&#xcb;" horiz-adv-x="599" 
d="M110 0v700h412v-58h-349v-256h322v-57h-322v-271h349v-58h-412zM220 796c-28 0 -44 16 -44 44s16 44 44 44s44 -16 44 -44s-16 -44 -44 -44zM412 796c-28 0 -44 16 -44 44s16 44 44 44s44 -16 44 -44s-16 -44 -44 -44z" />
    <glyph glyph-name="Igrave" unicode="&#xcc;" horiz-adv-x="294" 
d="M115 0v700h63v-700h-63zM120 785l-106 130h82l78 -130h-54z" />
    <glyph glyph-name="Iacute" unicode="&#xcd;" horiz-adv-x="294" 
d="M115 0v700h63v-700h-63zM119 770l84 140h86l-114 -140h-56z" />
    <glyph glyph-name="Icircumflex" unicode="&#xce;" horiz-adv-x="294" 
d="M115 0v700h63v-700h-63zM-14 770l123 140h74l123 -140h-58l-103 100l-103 -100h-56z" />
    <glyph glyph-name="Idieresis" unicode="&#xcf;" horiz-adv-x="294" 
d="M115 0v700h63v-700h-63zM50 796c-28 0 -44 16 -44 44s16 44 44 44s44 -16 44 -44s-16 -44 -44 -44zM242 796c-28 0 -44 16 -44 44s16 44 44 44s44 -16 44 -44s-16 -44 -44 -44z" />
    <glyph glyph-name="Eth" unicode="&#xd0;" horiz-adv-x="720" 
d="M22 331v49h93v319c56 4 98 7 188 7c266 0 345 -108 345 -337c0 -270 -110 -375 -360 -375c-79 0 -123 5 -173 9v328h-93zM178 57c39 -3 64 -5 105 -5c222 0 298 90 298 310c0 206 -59 286 -282 286c-48 0 -77 -2 -121 -5v-263h208v-49h-208v-274z" />
    <glyph glyph-name="Ntilde" unicode="&#xd1;" horiz-adv-x="754" 
d="M110 0v700h68l340 -497l66 -102c-2 19 -3 88 -3 112v487h63v-700h-66l-335 495c-14 19 -60 91 -74 116c2 -23 4 -86 4 -112v-499h-63zM273 795l-41 11c5 49 38 80 81 80c24 0 43 -11 70 -23c24 -11 42 -22 59 -22s33 11 40 43l40 -11c-7 -52 -43 -79 -79 -79
c-20 0 -33 4 -72 23c-23 11 -39 22 -56 22s-34 -10 -42 -44z" />
    <glyph glyph-name="Ograve" unicode="&#xd2;" horiz-adv-x="760" 
d="M71 350c0 241 106 360 313 360c213 0 304 -121 304 -360c0 -255 -114 -360 -309 -360c-192 0 -308 110 -308 360zM138 348c0 -210 86 -300 245 -300c156 0 239 87 239 300c0 214 -77 304 -244 304c-163 0 -240 -103 -240 -304zM353 785l-106 130h82l78 -130h-54z" />
    <glyph glyph-name="Oacute" unicode="&#xd3;" horiz-adv-x="760" 
d="M71 350c0 241 106 360 313 360c213 0 304 -121 304 -360c0 -255 -114 -360 -309 -360c-192 0 -308 110 -308 360zM138 348c0 -210 86 -300 245 -300c156 0 239 87 239 300c0 214 -77 304 -244 304c-163 0 -240 -103 -240 -304zM352 770l84 140h86l-114 -140h-56z" />
    <glyph glyph-name="Ocircumflex" unicode="&#xd4;" horiz-adv-x="760" 
d="M71 350c0 241 106 360 313 360c213 0 304 -121 304 -360c0 -255 -114 -360 -309 -360c-192 0 -308 110 -308 360zM138 348c0 -210 86 -300 245 -300c156 0 239 87 239 300c0 214 -77 304 -244 304c-163 0 -240 -103 -240 -304zM219 770l123 140h74l123 -140h-58l-103 100
l-103 -100h-56z" />
    <glyph glyph-name="Otilde" unicode="&#xd5;" horiz-adv-x="760" 
d="M71 350c0 241 106 360 313 360c213 0 304 -121 304 -360c0 -255 -114 -360 -309 -360c-192 0 -308 110 -308 360zM138 348c0 -210 86 -300 245 -300c156 0 239 87 239 300c0 214 -77 304 -244 304c-163 0 -240 -103 -240 -304zM276 795l-41 11c5 49 38 80 81 80
c24 0 43 -11 70 -23c24 -11 42 -22 59 -22s33 11 40 43l40 -11c-7 -52 -43 -79 -79 -79c-20 0 -33 4 -72 23c-23 11 -39 22 -56 22s-34 -10 -42 -44z" />
    <glyph glyph-name="Odieresis" unicode="&#xd6;" horiz-adv-x="760" 
d="M71 350c0 241 106 360 313 360c213 0 304 -121 304 -360c0 -255 -114 -360 -309 -360c-192 0 -308 110 -308 360zM138 348c0 -210 86 -300 245 -300c156 0 239 87 239 300c0 214 -77 304 -244 304c-163 0 -240 -103 -240 -304zM283 796c-28 0 -44 16 -44 44s16 44 44 44
s44 -16 44 -44s-16 -44 -44 -44zM475 796c-28 0 -44 16 -44 44s16 44 44 44s44 -16 44 -44s-16 -44 -44 -44z" />
    <glyph glyph-name="multiply" unicode="&#xd7;" horiz-adv-x="549" 
d="M90 171l147 152l-147 153l39 38l145 -150l146 150l39 -38l-147 -153l147 -152l-39 -37l-146 150l-145 -150z" />
    <glyph glyph-name="Oslash" unicode="&#xd8;" horiz-adv-x="760" 
d="M71 350c0 241 106 360 313 360c86 0 152 -20 200 -60l57 75l40 -29l-62 -81c47 -60 69 -149 69 -265c0 -255 -114 -360 -309 -360c-78 0 -143 18 -193 55l-57 -75l-40 28l61 81c-51 59 -79 148 -79 271zM138 348c0 -96 18 -168 53 -216l354 466c-40 37 -95 54 -167 54
c-163 0 -240 -103 -240 -304zM622 348c0 93 -15 162 -45 211l-353 -463c40 -33 93 -48 159 -48c156 0 239 87 239 300z" />
    <glyph glyph-name="Ugrave" unicode="&#xd9;" horiz-adv-x="725" 
d="M103 263v437h63v-428c0 -193 82 -225 203 -225c111 0 190 28 190 219v434h64v-432c0 -212 -94 -278 -259 -278c-184 0 -261 80 -261 273zM335 785l-106 130h82l78 -130h-54z" />
    <glyph glyph-name="Uacute" unicode="&#xda;" horiz-adv-x="725" 
d="M103 263v437h63v-428c0 -193 82 -225 203 -225c111 0 190 28 190 219v434h64v-432c0 -212 -94 -278 -259 -278c-184 0 -261 80 -261 273zM334 770l84 140h86l-114 -140h-56z" />
    <glyph glyph-name="Ucircumflex" unicode="&#xdb;" horiz-adv-x="725" 
d="M103 263v437h63v-428c0 -193 82 -225 203 -225c111 0 190 28 190 219v434h64v-432c0 -212 -94 -278 -259 -278c-184 0 -261 80 -261 273zM202 770l123 140h74l123 -140h-58l-103 100l-103 -100h-56z" />
    <glyph glyph-name="Udieresis" unicode="&#xdc;" horiz-adv-x="725" 
d="M103 263v437h63v-428c0 -193 82 -225 203 -225c111 0 190 28 190 219v434h64v-432c0 -212 -94 -278 -259 -278c-184 0 -261 80 -261 273zM267 796c-28 0 -44 16 -44 44s16 44 44 44s44 -16 44 -44s-16 -44 -44 -44zM459 796c-28 0 -44 16 -44 44s16 44 44 44
s44 -16 44 -44s-16 -44 -44 -44z" />
    <glyph glyph-name="Yacute" unicode="&#xdd;" horiz-adv-x="597" 
d="M267 0v280l-243 420h71l206 -358l202 358h70l-242 -420v-280h-64zM270 770l84 140h86l-114 -140h-56z" />
    <glyph glyph-name="Thorn" unicode="&#xde;" horiz-adv-x="598" 
d="M110 0v700h63v-105h125c153 0 237 -58 237 -206c0 -138 -78 -216 -243 -216h-119v-173h-63zM173 233h119c139 0 175 69 175 155c0 89 -36 147 -175 147h-119v-302z" />
    <glyph glyph-name="germandbls" unicode="&#xdf;" horiz-adv-x="605" 
d="M93 0v498c0 155 49 260 219 260c94 0 187 -46 187 -181c0 -83 -36 -141 -106 -165v-3c101 -11 144 -91 144 -191c0 -145 -85 -227 -205 -227c-27 0 -55 2 -78 10v55c21 -6 44 -10 73 -10c71 0 147 38 147 169c0 129 -70 161 -151 161h-53v55h45c60 0 122 38 122 144
c0 76 -44 129 -130 129c-122 0 -152 -92 -152 -196v-508h-62z" />
    <glyph glyph-name="agrave" unicode="&#xe0;" horiz-adv-x="543" 
d="M402 0l-6 100c-24 -65 -79 -110 -166 -110c-112 0 -171 53 -171 155c0 107 55 152 212 152h123v57c0 90 -43 121 -138 121c-62 0 -126 -27 -159 -55v72c35 20 105 37 165 37c139 0 192 -52 192 -179v-350h-52zM120 153c0 -69 34 -106 122 -106c97 0 152 61 152 156v49
h-120c-124 0 -154 -31 -154 -99zM310 615h-54l-106 130h84z" />
    <glyph glyph-name="aacute" unicode="&#xe1;" horiz-adv-x="543" 
d="M402 0l-6 100c-24 -65 -79 -110 -166 -110c-112 0 -171 53 -171 155c0 107 55 152 212 152h123v57c0 90 -43 121 -138 121c-62 0 -126 -27 -159 -55v72c35 20 105 37 165 37c139 0 192 -52 192 -179v-350h-52zM120 153c0 -69 34 -106 122 -106c97 0 152 61 152 156v49
h-120c-124 0 -154 -31 -154 -99zM244 615l76 130h84l-106 -130h-54z" />
    <glyph glyph-name="acircumflex" unicode="&#xe2;" horiz-adv-x="543" 
d="M402 0l-6 100c-24 -65 -79 -110 -166 -110c-112 0 -171 53 -171 155c0 107 55 152 212 152h123v57c0 90 -43 121 -138 121c-62 0 -126 -27 -159 -55v72c35 20 105 37 165 37c139 0 192 -52 192 -179v-350h-52zM120 153c0 -69 34 -106 122 -106c97 0 152 61 152 156v49
h-120c-124 0 -154 -31 -154 -99zM126 615l110 130h70l110 -130h-56l-89 90l-91 -90h-54z" />
    <glyph glyph-name="atilde" unicode="&#xe3;" horiz-adv-x="543" 
d="M402 0l-6 100c-24 -65 -79 -110 -166 -110c-112 0 -171 53 -171 155c0 107 55 152 212 152h123v57c0 90 -43 121 -138 121c-62 0 -126 -27 -159 -55v72c35 20 105 37 165 37c139 0 192 -52 192 -179v-350h-52zM120 153c0 -69 34 -106 122 -106c97 0 152 61 152 156v49
h-120c-124 0 -154 -31 -154 -99zM172 635l-41 11c5 49 33 80 76 80c24 0 43 -11 70 -23c24 -11 41 -22 59 -22c17 0 28 11 35 43l40 -11c-7 -52 -38 -79 -74 -79c-20 0 -33 4 -72 23c-23 11 -37 22 -56 22c-17 0 -29 -10 -37 -44z" />
    <glyph glyph-name="adieresis" unicode="&#xe4;" horiz-adv-x="543" 
d="M402 0l-6 100c-24 -65 -79 -110 -166 -110c-112 0 -171 53 -171 155c0 107 55 152 212 152h123v57c0 90 -43 121 -138 121c-62 0 -126 -27 -159 -55v72c35 20 105 37 165 37c139 0 192 -52 192 -179v-350h-52zM120 153c0 -69 34 -106 122 -106c97 0 152 61 152 156v49
h-120c-124 0 -154 -31 -154 -99zM193 638c-27 0 -42 15 -42 42s15 42 42 42s42 -15 42 -42s-15 -42 -42 -42zM349 638c-27 0 -42 15 -42 42s15 42 42 42s42 -15 42 -42s-15 -42 -42 -42z" />
    <glyph glyph-name="aring" unicode="&#xe5;" horiz-adv-x="543" 
d="M402 0l-6 100c-24 -65 -79 -110 -166 -110c-112 0 -171 53 -171 155c0 107 55 152 212 152h123v57c0 90 -43 121 -138 121c-62 0 -126 -27 -159 -55v72c35 20 105 37 165 37c139 0 192 -52 192 -179v-350h-52zM120 153c0 -69 34 -106 122 -106c97 0 152 61 152 156v49
h-120c-124 0 -154 -31 -154 -99zM181 680c0 54 36 90 90 90s90 -36 90 -90s-36 -90 -90 -90s-90 36 -90 90zM221 680c0 -31 19 -50 50 -50s50 19 50 50s-19 50 -50 50s-50 -19 -50 -50z" />
    <glyph glyph-name="ae" unicode="&#xe6;" horiz-adv-x="898" 
d="M836 245h-377c1 -134 56 -201 183 -201c67 0 121 24 158 55v-64c-27 -20 -85 -45 -159 -45c-106 0 -175 35 -211 109c-28 -62 -80 -109 -196 -109c-111 0 -175 53 -175 155c0 107 59 152 217 152h123v57c0 90 -43 121 -139 121c-61 0 -130 -27 -163 -55v72
c35 20 110 37 170 37c98 0 152 -27 175 -87c37 60 98 87 180 87c160 0 214 -95 214 -250v-34zM622 476c-106 0 -160 -58 -163 -180h317c0 108 -35 180 -154 180zM120 153c0 -69 38 -106 127 -106c96 0 152 61 152 156v44h-120c-124 0 -159 -26 -159 -94z" />
    <glyph glyph-name="ccedilla" unicode="&#xe7;" horiz-adv-x="511" 
d="M262 -84l11 76c-142 12 -211 100 -211 275c0 172 80 262 248 262c60 0 105 -13 132 -25v-68c-29 19 -81 37 -135 37c-121 0 -183 -63 -183 -208c0 -151 65 -218 196 -218c48 0 106 17 135 41v-66c-26 -17 -81 -32 -145 -32l-4 -37c60 -1 98 -21 98 -78
c0 -50 -40 -85 -101 -85c-31 0 -50 6 -69 15l6 38c20 -9 34 -13 58 -13c32 0 55 14 55 47c0 34 -32 41 -59 41c-8 0 -24 0 -32 -2z" />
    <glyph glyph-name="egrave" unicode="&#xe8;" horiz-adv-x="566" 
d="M504 243h-381c0 -133 60 -199 187 -199c67 0 121 24 158 55v-64c-27 -20 -85 -45 -159 -45c-167 0 -247 84 -247 277c0 178 85 262 228 262c160 0 214 -95 214 -250v-36zM290 476c-106 0 -164 -59 -167 -181h321c0 108 -35 181 -154 181zM327 615h-54l-106 130h84z" />
    <glyph glyph-name="eacute" unicode="&#xe9;" horiz-adv-x="566" 
d="M504 243h-381c0 -133 60 -199 187 -199c67 0 121 24 158 55v-64c-27 -20 -85 -45 -159 -45c-167 0 -247 84 -247 277c0 178 85 262 228 262c160 0 214 -95 214 -250v-36zM290 476c-106 0 -164 -59 -167 -181h321c0 108 -35 181 -154 181zM261 615l76 130h84l-106 -130
h-54z" />
    <glyph glyph-name="ecircumflex" unicode="&#xea;" horiz-adv-x="566" 
d="M504 243h-381c0 -133 60 -199 187 -199c67 0 121 24 158 55v-64c-27 -20 -85 -45 -159 -45c-167 0 -247 84 -247 277c0 178 85 262 228 262c160 0 214 -95 214 -250v-36zM290 476c-106 0 -164 -59 -167 -181h321c0 108 -35 181 -154 181zM143 615l110 130h70l110 -130
h-56l-89 90l-91 -90h-54z" />
    <glyph glyph-name="edieresis" unicode="&#xeb;" horiz-adv-x="566" 
d="M504 243h-381c0 -133 60 -199 187 -199c67 0 121 24 158 55v-64c-27 -20 -85 -45 -159 -45c-167 0 -247 84 -247 277c0 178 85 262 228 262c160 0 214 -95 214 -250v-36zM290 476c-106 0 -164 -59 -167 -181h321c0 108 -35 181 -154 181zM210 638c-27 0 -42 15 -42 42
s15 42 42 42s42 -15 42 -42s-15 -42 -42 -42zM366 638c-27 0 -42 15 -42 42s15 42 42 42s42 -15 42 -42s-15 -42 -42 -42z" />
    <glyph glyph-name="igrave" unicode="&#xec;" horiz-adv-x="276" 
d="M109 0v520h59v-520h-59zM177 615h-54l-106 130h84z" />
    <glyph glyph-name="iacute" unicode="&#xed;" horiz-adv-x="276" 
d="M109 0v520h59v-520h-59zM111 615l76 130h84l-106 -130h-54z" />
    <glyph glyph-name="icircumflex" unicode="&#xee;" horiz-adv-x="276" 
d="M109 0v520h59v-520h-59zM-7 615l110 130h70l110 -130h-56l-89 90l-91 -90h-54z" />
    <glyph glyph-name="idieresis" unicode="&#xef;" horiz-adv-x="276" 
d="M109 0v520h59v-520h-59zM60 638c-27 0 -42 15 -42 42s15 42 42 42s42 -15 42 -42s-15 -42 -42 -42zM216 638c-27 0 -42 15 -42 42s15 42 42 42s42 -15 42 -42s-15 -42 -42 -42z" />
    <glyph glyph-name="eth" unicode="&#xf0;" horiz-adv-x="599" 
d="M200 570l-21 35l99 49c-54 31 -98 45 -137 52l25 50c60 -11 113 -32 172 -70l123 60l21 -35l-108 -54c117 -111 150 -260 150 -404c0 -161 -82 -261 -227 -261c-147 0 -228 91 -228 261c0 168 84 259 217 259c47 0 108 -10 147 -77l3 2c-19 76 -53 137 -120 190zM129 252
c0 -150 71 -206 168 -206c98 0 167 58 167 206c0 144 -54 206 -167 206c-101 0 -168 -58 -168 -206z" />
    <glyph glyph-name="ntilde" unicode="&#xf1;" horiz-adv-x="606" 
d="M95 0v520h53l5 -102c32 72 90 111 180 111c126 0 185 -48 185 -196v-333h-60v322c0 117 -38 154 -143 154s-161 -64 -161 -164v-312h-59zM214 635l-41 11c5 49 33 80 76 80c24 0 43 -11 70 -23c24 -11 41 -22 59 -22c17 0 28 11 35 43l40 -11c-7 -52 -38 -79 -74 -79
c-20 0 -33 4 -72 23c-23 11 -37 22 -56 22c-17 0 -29 -10 -37 -44z" />
    <glyph glyph-name="ograve" unicode="&#xf2;" horiz-adv-x="596" 
d="M62 261c0 174 86 268 241 268c154 0 230 -88 230 -269c0 -182 -88 -270 -235 -270c-161 0 -236 99 -236 271zM122 263v-3c0 -141 57 -216 179 -216c116 0 172 70 172 217v3c0 141 -52 212 -175 212c-119 0 -176 -73 -176 -213zM336 615h-54l-106 130h84z" />
    <glyph glyph-name="oacute" unicode="&#xf3;" horiz-adv-x="596" 
d="M62 261c0 174 86 268 241 268c154 0 230 -88 230 -269c0 -182 -88 -270 -235 -270c-161 0 -236 99 -236 271zM122 263v-3c0 -141 57 -216 179 -216c116 0 172 70 172 217v3c0 141 -52 212 -175 212c-119 0 -176 -73 -176 -213zM268 615l76 130h84l-106 -130h-54z" />
    <glyph glyph-name="ocircumflex" unicode="&#xf4;" horiz-adv-x="596" 
d="M62 261c0 174 86 268 241 268c154 0 230 -88 230 -269c0 -182 -88 -270 -235 -270c-161 0 -236 99 -236 271zM122 263v-3c0 -141 57 -216 179 -216c116 0 172 70 172 217v3c0 141 -52 212 -175 212c-119 0 -176 -73 -176 -213zM153 615l110 130h70l110 -130h-56l-89 90
l-91 -90h-54z" />
    <glyph glyph-name="otilde" unicode="&#xf5;" horiz-adv-x="596" 
d="M62 261c0 174 86 268 241 268c154 0 230 -88 230 -269c0 -182 -88 -270 -235 -270c-161 0 -236 99 -236 271zM122 263v-3c0 -141 57 -216 179 -216c116 0 172 70 172 217v3c0 141 -52 212 -175 212c-119 0 -176 -73 -176 -213zM199 635l-41 11c5 49 33 80 76 80
c24 0 43 -11 70 -23c24 -11 41 -22 59 -22c17 0 28 11 35 43l40 -11c-7 -52 -38 -79 -74 -79c-20 0 -33 4 -72 23c-23 11 -37 22 -56 22c-17 0 -29 -10 -37 -44z" />
    <glyph glyph-name="odieresis" unicode="&#xf6;" horiz-adv-x="596" 
d="M62 261c0 174 86 268 241 268c154 0 230 -88 230 -269c0 -182 -88 -270 -235 -270c-161 0 -236 99 -236 271zM122 263v-3c0 -141 57 -216 179 -216c116 0 172 70 172 217v3c0 141 -52 212 -175 212c-119 0 -176 -73 -176 -213zM219 638c-27 0 -42 15 -42 42s15 42 42 42
s42 -15 42 -42s-15 -42 -42 -42zM375 638c-27 0 -42 15 -42 42s15 42 42 42s42 -15 42 -42s-15 -42 -42 -42z" />
    <glyph glyph-name="divide" unicode="&#xf7;" horiz-adv-x="580" 
d="M240 156c0 33 20 51 50 51s51 -19 51 -51s-19 -51 -51 -51c-30 0 -50 19 -50 51zM240 491c0 33 20 51 50 51s51 -19 51 -51s-19 -51 -51 -51c-30 0 -50 19 -50 51zM73 295v57h434v-57h-434z" />
    <glyph glyph-name="oslash" unicode="&#xf8;" horiz-adv-x="596" 
d="M62 261c0 174 86 268 241 268c59 0 106 -13 142 -39l43 56l37 -26l-47 -61c37 -45 55 -111 55 -199c0 -182 -88 -270 -235 -270c-61 0 -109 14 -146 40l-43 -57l-35 26l46 61c-39 46 -58 114 -58 201zM122 263v-3c0 -64 12 -115 36 -151l252 334c-27 22 -64 33 -112 33
c-119 0 -176 -73 -176 -213zM473 264c0 62 -10 111 -32 146l-253 -333c28 -22 65 -33 113 -33c116 0 172 70 172 217v3z" />
    <glyph glyph-name="ugrave" unicode="&#xf9;" horiz-adv-x="600" 
d="M452 0l-5 104c-30 -82 -96 -114 -183 -114c-119 0 -174 61 -174 177v353h59v-341c0 -99 40 -135 132 -135c113 0 165 63 165 166v310h59v-520h-53zM338 615h-54l-106 130h84z" />
    <glyph glyph-name="uacute" unicode="&#xfa;" horiz-adv-x="600" 
d="M452 0l-5 104c-30 -82 -96 -114 -183 -114c-119 0 -174 61 -174 177v353h59v-341c0 -99 40 -135 132 -135c113 0 165 63 165 166v310h59v-520h-53zM273 615l76 130h84l-106 -130h-54z" />
    <glyph glyph-name="ucircumflex" unicode="&#xfb;" horiz-adv-x="600" 
d="M452 0l-5 104c-30 -82 -96 -114 -183 -114c-119 0 -174 61 -174 177v353h59v-341c0 -99 40 -135 132 -135c113 0 165 63 165 166v310h59v-520h-53zM155 615l110 130h70l110 -130h-56l-89 90l-91 -90h-54z" />
    <glyph glyph-name="udieresis" unicode="&#xfc;" horiz-adv-x="600" 
d="M452 0l-5 104c-30 -82 -96 -114 -183 -114c-119 0 -174 61 -174 177v353h59v-341c0 -99 40 -135 132 -135c113 0 165 63 165 166v310h59v-520h-53zM219 638c-27 0 -42 15 -42 42s15 42 42 42s42 -15 42 -42s-15 -42 -42 -42zM375 638c-27 0 -42 15 -42 42s15 42 42 42
s42 -15 42 -42s-15 -42 -42 -42z" />
    <glyph glyph-name="yacute" unicode="&#xfd;" horiz-adv-x="525" 
d="M155 -131c54 0 70 45 99 128l-220 523h67l184 -448l151 448h63l-193 -534c-53 -149 -92 -173 -153 -173c-22 0 -38 3 -50 9v62c13 -9 29 -15 52 -15zM236 615l76 130h84l-106 -130h-54z" />
    <glyph glyph-name="thorn" unicode="&#xfe;" horiz-adv-x="612" 
d="M94 -180v905h59v-311c28 82 96 115 191 115c139 0 205 -76 205 -259c0 -194 -70 -280 -216 -280c-92 0 -153 40 -180 108v-278h-59zM153 224c0 -96 52 -180 169 -180c121 0 167 71 167 223c0 149 -49 208 -163 208c-112 0 -173 -66 -173 -176v-75z" />
    <glyph glyph-name="ydieresis" unicode="&#xff;" horiz-adv-x="525" 
d="M155 -131c54 0 70 45 99 128l-220 523h67l184 -448l151 448h63l-193 -534c-53 -149 -92 -173 -153 -173c-22 0 -38 3 -50 9v62c13 -9 29 -15 52 -15zM188 638c-27 0 -42 15 -42 42s15 42 42 42s42 -15 42 -42s-15 -42 -42 -42zM344 638c-27 0 -42 15 -42 42s15 42 42 42
s42 -15 42 -42s-15 -42 -42 -42z" />
    <glyph glyph-name="Amacron" unicode="&#x100;" horiz-adv-x="655" 
d="M556 0l-74 200h-314l-74 -200h-65l266 700h65l266 -700h-70zM326 625l-137 -367h272zM186 815v51h280v-51h-280z" />
    <glyph glyph-name="amacron" unicode="&#x101;" horiz-adv-x="543" 
d="M402 0l-6 100c-24 -65 -79 -110 -166 -110c-112 0 -171 53 -171 155c0 107 55 152 212 152h123v57c0 90 -43 121 -138 121c-62 0 -126 -27 -159 -55v72c35 20 105 37 165 37c139 0 192 -52 192 -179v-350h-52zM120 153c0 -69 34 -106 122 -106c97 0 152 61 152 156v49
h-120c-124 0 -154 -31 -154 -99zM141 657v46h260v-46h-260z" />
    <glyph glyph-name="Abreve" unicode="&#x102;" horiz-adv-x="655" 
d="M556 0l-74 200h-314l-74 -200h-65l266 700h65l266 -700h-70zM326 625l-137 -367h272zM181 892l42 13c16 -50 43 -82 103 -82s87 32 103 82l42 -13c-21 -75 -70 -117 -145 -117s-124 42 -145 117z" />
    <glyph glyph-name="abreve" unicode="&#x103;" horiz-adv-x="543" 
d="M402 0l-6 100c-24 -65 -79 -110 -166 -110c-112 0 -171 53 -171 155c0 107 55 152 212 152h123v57c0 90 -43 121 -138 121c-62 0 -126 -27 -159 -55v72c35 20 105 37 165 37c139 0 192 -52 192 -179v-350h-52zM120 153c0 -69 34 -106 122 -106c97 0 152 61 152 156v49
h-120c-124 0 -154 -31 -154 -99zM126 732l40 13c16 -50 45 -84 105 -84s89 34 105 84l40 -13c-23 -75 -70 -117 -145 -117s-122 42 -145 117z" />
    <glyph glyph-name="Aogonek" unicode="&#x104;" horiz-adv-x="655" 
d="M556 0l-74 200h-314l-74 -200h-65l266 700h65l266 -700h-18c-47 -35 -83 -82 -83 -133c0 -31 23 -50 61 -50c22 0 44 5 63 17v-45c-22 -11 -49 -19 -81 -19c-65 0 -98 34 -98 88c0 53 36 100 93 142h-7zM326 625l-137 -367h272z" />
    <glyph glyph-name="aogonek" unicode="&#x105;" horiz-adv-x="543" 
d="M480 -151v-41c-20 -10 -42 -18 -71 -18c-60 0 -92 34 -92 82c0 53 37 95 85 129l-6 99c-24 -65 -79 -110 -166 -110c-112 0 -171 53 -171 155c0 107 55 152 212 152h123v57c0 90 -43 121 -138 121c-62 0 -126 -27 -159 -55v72c35 20 105 37 165 37
c139 0 192 -52 192 -179v-350h-9c-41 -32 -73 -68 -73 -120c0 -27 17 -47 52 -47c19 0 37 5 56 16zM120 153c0 -69 34 -106 122 -106c97 0 152 61 152 156v49h-120c-124 0 -154 -31 -154 -99z" />
    <glyph glyph-name="Cacute" unicode="&#x106;" horiz-adv-x="647" 
d="M558 682v-72c-40 22 -104 41 -175 41c-159 0 -245 -80 -245 -297c0 -225 92 -305 251 -305c75 0 144 26 179 44v-66c-35 -17 -101 -36 -183 -36c-206 0 -314 104 -314 355c0 258 108 363 314 363c84 0 139 -16 173 -27zM340 770l84 140h86l-114 -140h-56z" />
    <glyph glyph-name="cacute" unicode="&#x107;" horiz-adv-x="511" 
d="M442 504v-68c-29 19 -81 37 -135 37c-121 0 -183 -63 -183 -208c0 -151 65 -218 196 -218c48 0 106 17 135 41v-66c-26 -17 -82 -32 -146 -32c-166 0 -247 88 -247 277c0 172 80 262 248 262c60 0 105 -13 132 -25zM265 615l76 130h84l-106 -130h-54z" />
    <glyph glyph-name="Ccircumflex" unicode="&#x108;" horiz-adv-x="647" 
d="M558 682v-72c-40 22 -104 41 -175 41c-159 0 -245 -80 -245 -297c0 -225 92 -305 251 -305c75 0 144 26 179 44v-66c-35 -17 -101 -36 -183 -36c-206 0 -314 104 -314 355c0 258 108 363 314 363c84 0 139 -16 173 -27zM208 770l123 140h74l123 -140h-58l-103 100
l-103 -100h-56z" />
    <glyph glyph-name="ccircumflex" unicode="&#x109;" horiz-adv-x="511" 
d="M442 504v-68c-29 19 -81 37 -135 37c-121 0 -183 -63 -183 -208c0 -151 65 -218 196 -218c48 0 106 17 135 41v-66c-26 -17 -82 -32 -146 -32c-166 0 -247 88 -247 277c0 172 80 262 248 262c60 0 105 -13 132 -25zM147 615l110 130h70l110 -130h-56l-89 90l-91 -90h-54z
" />
    <glyph glyph-name="Cdotaccent" unicode="&#x10a;" horiz-adv-x="647" 
d="M558 682v-72c-40 22 -104 41 -175 41c-159 0 -245 -80 -245 -297c0 -225 92 -305 251 -305c75 0 144 26 179 44v-66c-35 -17 -101 -36 -183 -36c-206 0 -314 104 -314 355c0 258 108 363 314 363c84 0 139 -16 173 -27zM369 796c-28 0 -44 16 -44 44s16 44 44 44
s44 -16 44 -44s-16 -44 -44 -44z" />
    <glyph glyph-name="cdotaccent" unicode="&#x10b;" horiz-adv-x="511" 
d="M442 504v-68c-29 19 -81 37 -135 37c-121 0 -183 -63 -183 -208c0 -151 65 -218 196 -218c48 0 106 17 135 41v-66c-26 -17 -82 -32 -146 -32c-166 0 -247 88 -247 277c0 172 80 262 248 262c60 0 105 -13 132 -25zM293 638c-27 0 -42 15 -42 42s15 42 42 42
s42 -15 42 -42s-15 -42 -42 -42z" />
    <glyph glyph-name="Ccaron" unicode="&#x10c;" horiz-adv-x="647" 
d="M558 682v-72c-40 22 -104 41 -175 41c-159 0 -245 -80 -245 -297c0 -225 92 -305 251 -305c75 0 144 26 179 44v-66c-35 -17 -101 -36 -183 -36c-206 0 -314 104 -314 355c0 258 108 363 314 363c84 0 139 -16 173 -27zM331 770l-123 140h58l103 -100l103 100h56
l-123 -140h-74z" />
    <glyph glyph-name="ccaron" unicode="&#x10d;" horiz-adv-x="511" 
d="M442 504v-68c-29 19 -81 37 -135 37c-121 0 -183 -63 -183 -208c0 -151 65 -218 196 -218c48 0 106 17 135 41v-66c-26 -17 -82 -32 -146 -32c-166 0 -247 88 -247 277c0 172 80 262 248 262c60 0 105 -13 132 -25zM257 615l-110 130h56l89 -90l91 90h54l-110 -130h-70z
" />
    <glyph glyph-name="Dcaron" unicode="&#x10e;" horiz-adv-x="715" 
d="M110 3v696c56 4 98 7 188 7c266 0 345 -108 345 -337c0 -270 -110 -375 -360 -375c-79 0 -123 5 -173 9zM173 57c39 -3 64 -5 105 -5c222 0 299 90 299 310c0 206 -60 286 -283 286c-48 0 -77 -2 -121 -5v-586zM314 770l-123 140h58l103 -100l103 100h56l-123 -140h-74z
" />
    <glyph glyph-name="dcaron" unicode="&#x10f;" horiz-adv-x="645" 
d="M464 0l-5 109c-29 -74 -80 -119 -182 -119c-142 0 -215 82 -215 265c0 198 80 274 221 274c102 0 154 -44 175 -98v319h59v-750h-53zM290 44c113 0 169 62 168 191v68c0 94 -41 173 -169 173c-116 0 -167 -60 -167 -218c0 -147 53 -214 168 -214zM585 570l46 180h64
l-66 -180h-44z" />
    <glyph glyph-name="Dcroat" unicode="&#x110;" horiz-adv-x="725" 
d="M27 331v49h93v319c56 4 98 7 188 7c266 0 345 -108 345 -337c0 -270 -110 -375 -360 -375c-79 0 -123 5 -173 9v328h-93zM183 57c39 -3 64 -5 105 -5c222 0 298 90 298 310c0 206 -59 286 -282 286c-48 0 -77 -2 -121 -5v-263h208v-49h-208v-274z" />
    <glyph glyph-name="dcroat" unicode="&#x111;" horiz-adv-x="621" 
d="M464 0l-5 109c-29 -74 -80 -119 -182 -119c-142 0 -215 82 -215 265c0 198 80 274 221 274c102 0 154 -44 175 -98v169h-224v46h224v104h59v-104h83v-46h-83v-600h-53zM290 44c113 0 169 62 168 191v68c0 94 -41 173 -169 173c-116 0 -167 -60 -167 -218
c0 -147 53 -214 168 -214z" />
    <glyph glyph-name="Emacron" unicode="&#x112;" horiz-adv-x="599" 
d="M110 0v700h412v-58h-349v-256h322v-57h-322v-271h349v-58h-412zM174 815v51h280v-51h-280z" />
    <glyph glyph-name="emacron" unicode="&#x113;" horiz-adv-x="566" 
d="M504 243h-381c0 -133 60 -199 187 -199c67 0 121 24 158 55v-64c-27 -20 -85 -45 -159 -45c-167 0 -247 84 -247 277c0 178 85 262 228 262c160 0 214 -95 214 -250v-36zM290 476c-106 0 -164 -59 -167 -181h321c0 108 -35 181 -154 181zM158 657v46h260v-46h-260z" />
    <glyph glyph-name="Edotaccent" unicode="&#x116;" horiz-adv-x="599" 
d="M110 0v700h412v-58h-349v-256h322v-57h-322v-271h349v-58h-412zM315 796c-28 0 -44 16 -44 44s16 44 44 44s44 -16 44 -44s-16 -44 -44 -44z" />
    <glyph glyph-name="edotaccent" unicode="&#x117;" horiz-adv-x="566" 
d="M504 243h-381c0 -133 60 -199 187 -199c67 0 121 24 158 55v-64c-27 -20 -85 -45 -159 -45c-167 0 -247 84 -247 277c0 178 85 262 228 262c160 0 214 -95 214 -250v-36zM290 476c-106 0 -164 -59 -167 -181h321c0 108 -35 181 -154 181zM289 638c-27 0 -42 15 -42 42
s15 42 42 42s42 -15 42 -42s-15 -42 -42 -42z" />
    <glyph glyph-name="Eogonek" unicode="&#x118;" horiz-adv-x="599" 
d="M110 0v700h412v-58h-349v-256h322v-57h-322v-271h349v-58h-7c-47 -35 -83 -82 -83 -133c0 -31 23 -50 61 -50c22 0 44 5 63 17v-45c-22 -11 -49 -19 -81 -19c-65 0 -98 34 -98 88c0 53 36 100 93 142h-360z" />
    <glyph glyph-name="eogonek" unicode="&#x119;" horiz-adv-x="566" 
d="M412 -151v-41c-20 -10 -42 -18 -71 -18c-60 0 -92 34 -92 82s29 86 70 118h-10c-167 0 -247 84 -247 277c0 178 85 262 228 262c160 0 214 -95 214 -250v-36h-381c0 -133 60 -199 187 -199c67 0 121 24 158 55v-64c-19 -14 -52 -30 -96 -38c-39 -32 -68 -67 -68 -117
c0 -27 17 -47 52 -47c19 0 37 5 56 16zM290 476c-106 0 -164 -59 -167 -181h321c0 108 -35 181 -154 181z" />
    <glyph glyph-name="Ecaron" unicode="&#x11a;" horiz-adv-x="599" 
d="M110 0v700h412v-58h-349v-256h322v-57h-322v-271h349v-58h-412zM277 770l-123 140h58l103 -100l103 100h56l-123 -140h-74z" />
    <glyph glyph-name="ecaron" unicode="&#x11b;" horiz-adv-x="566" 
d="M504 243h-381c0 -133 60 -199 187 -199c67 0 121 24 158 55v-64c-27 -20 -85 -45 -159 -45c-167 0 -247 84 -247 277c0 178 85 262 228 262c160 0 214 -95 214 -250v-36zM290 476c-106 0 -164 -59 -167 -181h321c0 108 -35 181 -154 181zM253 615l-110 130h56l89 -90
l91 90h54l-110 -130h-70z" />
    <glyph glyph-name="Gcircumflex" unicode="&#x11c;" horiz-adv-x="687" 
d="M389 288v57h222v-315c-37 -17 -109 -39 -197 -39c-232 0 -343 104 -343 355s115 363 344 363c70 0 123 -15 156 -29v-70c-36 22 -99 41 -160 41c-187 0 -273 -88 -273 -297c0 -224 89 -305 278 -305c48 0 98 8 135 21v218h-162zM234 770l123 140h74l123 -140h-58
l-103 100l-103 -100h-56z" />
    <glyph glyph-name="gcircumflex" unicode="&#x11d;" horiz-adv-x="612" 
d="M106 -148v73c28 -26 96 -58 177 -58c127 0 175 45 175 148v101c-27 -73 -86 -115 -182 -115c-142 0 -214 83 -214 257c0 197 79 271 226 271c93 0 151 -44 172 -104l5 95h53v-501c-1 -150 -84 -206 -230 -206c-84 0 -145 19 -182 39zM289 55c107 0 170 53 170 187v53
c0 112 -51 180 -168 180c-112 0 -169 -59 -169 -215c0 -144 63 -205 167 -205zM161 615l110 130h70l110 -130h-56l-89 90l-91 -90h-54z" />
    <glyph glyph-name="Gbreve" unicode="&#x11e;" horiz-adv-x="687" 
d="M389 288v57h222v-315c-37 -17 -109 -39 -197 -39c-232 0 -343 104 -343 355s115 363 344 363c70 0 123 -15 156 -29v-70c-36 22 -99 41 -160 41c-187 0 -273 -88 -273 -297c0 -224 89 -305 278 -305c48 0 98 8 135 21v218h-162zM245 892l42 13c16 -50 43 -82 103 -82
s87 32 103 82l42 -13c-21 -75 -70 -117 -145 -117s-124 42 -145 117z" />
    <glyph glyph-name="gbreve" unicode="&#x11f;" horiz-adv-x="612" 
d="M106 -148v73c28 -26 96 -58 177 -58c127 0 175 45 175 148v101c-27 -73 -86 -115 -182 -115c-142 0 -214 83 -214 257c0 197 79 271 226 271c93 0 151 -44 172 -104l5 95h53v-501c-1 -150 -84 -206 -230 -206c-84 0 -145 19 -182 39zM289 55c107 0 170 53 170 187v53
c0 112 -51 180 -168 180c-112 0 -169 -59 -169 -215c0 -144 63 -205 167 -205zM145 732l40 13c16 -50 45 -84 105 -84s89 34 105 84l40 -13c-23 -75 -70 -117 -145 -117s-122 42 -145 117z" />
    <glyph glyph-name="Gdotaccent" unicode="&#x120;" horiz-adv-x="687" 
d="M389 288v57h222v-315c-37 -17 -109 -39 -197 -39c-232 0 -343 104 -343 355s115 363 344 363c70 0 123 -15 156 -29v-70c-36 22 -99 41 -160 41c-187 0 -273 -88 -273 -297c0 -224 89 -305 278 -305c48 0 98 8 135 21v218h-162zM394 796c-28 0 -44 16 -44 44s16 44 44 44
s44 -16 44 -44s-16 -44 -44 -44z" />
    <glyph glyph-name="gdotaccent" unicode="&#x121;" horiz-adv-x="612" 
d="M106 -148v73c28 -26 96 -58 177 -58c127 0 175 45 175 148v101c-27 -73 -86 -115 -182 -115c-142 0 -214 83 -214 257c0 197 79 271 226 271c93 0 151 -44 172 -104l5 95h53v-501c-1 -150 -84 -206 -230 -206c-84 0 -145 19 -182 39zM289 55c107 0 170 53 170 187v53
c0 112 -51 180 -168 180c-112 0 -169 -59 -169 -215c0 -144 63 -205 167 -205zM307 638c-27 0 -42 15 -42 42s15 42 42 42s42 -15 42 -42s-15 -42 -42 -42z" />
    <glyph glyph-name="Gcommaaccent" unicode="&#x122;" horiz-adv-x="687" 
d="M389 288v57h222v-315c-37 -17 -109 -39 -197 -39c-232 0 -343 104 -343 355s115 363 344 363c70 0 123 -15 156 -29v-70c-36 22 -99 41 -160 41c-187 0 -273 -88 -273 -297c0 -224 89 -305 278 -305c48 0 98 8 135 21v218h-162zM349 -207c30 12 56 31 58 68
c-34 -4 -57 12 -57 38c0 22 17 41 53 41c30 0 52 -18 52 -61c0 -41 -26 -101 -97 -119z" />
    <glyph glyph-name="gcommaaccent" unicode="&#x123;" horiz-adv-x="612" 
d="M106 -148v73c28 -26 96 -58 177 -58c127 0 175 45 175 148v101c-27 -73 -86 -115 -182 -115c-142 0 -214 83 -214 257c0 197 79 271 226 271c93 0 151 -44 172 -104l5 95h53v-501c-1 -150 -84 -206 -230 -206c-84 0 -145 19 -182 39zM289 55c107 0 170 53 170 187v53
c0 112 -51 180 -168 180c-112 0 -169 -59 -169 -215c0 -144 63 -205 167 -205zM354 763c-29 -12 -55 -31 -57 -70c35 4 57 -12 57 -38c0 -21 -17 -40 -52 -40c-30 0 -53 18 -53 60c0 44 26 102 96 120z" />
    <glyph glyph-name="Hcircumflex" unicode="&#x124;" horiz-adv-x="760" 
d="M110 0v700h63v-311h414v311h63v-700h-63v331h-414v-331h-63zM220 770l123 140h74l123 -140h-58l-103 100l-103 -100h-56z" />
    <glyph glyph-name="hcircumflex" unicode="&#x125;" horiz-adv-x="606" 
d="M95 0v750h59v-331c22 71 87 110 181 110c134 0 183 -57 183 -189v-340h-60v330c0 109 -41 146 -144 146c-112 0 -160 -60 -160 -160v-316h-59zM-21 790l110 130h70l110 -130h-56l-89 90l-91 -90h-54z" />
    <glyph glyph-name="Hbar" unicode="&#x126;" horiz-adv-x="770" 
d="M115 0v523h-83v50h83v127h63v-127h413v127h64v-127h84v-50h-84v-523h-64v331h-413v-331h-63zM178 389h413v134h-413v-134z" />
    <glyph glyph-name="hbar" unicode="&#x127;" horiz-adv-x="615" 
d="M103 0v600h-83v46h83v104h59v-104h231v-46h-231v-216c23 71 87 110 182 110c133 0 182 -57 182 -189v-305h-59v295c0 109 -41 146 -145 146c-112 0 -160 -60 -160 -160v-281h-59z" />
    <glyph glyph-name="Imacron" unicode="&#x12a;" horiz-adv-x="294" 
d="M115 0v700h63v-700h-63zM6 815v51h280v-51h-280z" />
    <glyph glyph-name="imacron" unicode="&#x12b;" horiz-adv-x="276" 
d="M109 0v520h59v-520h-59zM8 657v46h260v-46h-260z" />
    <glyph glyph-name="Iogonek" unicode="&#x12e;" horiz-adv-x="294" 
d="M115 0v700h63v-700h-8c-47 -35 -83 -82 -83 -133c0 -31 23 -50 61 -50c22 0 44 5 63 17v-45c-22 -11 -49 -19 -81 -19c-65 0 -98 34 -98 88c0 53 36 100 93 142h-10z" />
    <glyph glyph-name="iogonek" unicode="&#x12f;" horiz-adv-x="276" 
d="M109 0v520h59v-520h-11c-41 -32 -73 -68 -73 -120c0 -27 17 -47 52 -47c19 0 37 5 56 16v-41c-20 -10 -42 -18 -71 -18c-60 0 -92 34 -92 82c0 52 36 94 83 128h-3zM138 638c-27 0 -42 15 -42 42s15 42 42 42s42 -15 42 -42s-15 -42 -42 -42z" />
    <glyph glyph-name="Idotaccent" unicode="&#x130;" horiz-adv-x="294" 
d="M115 0v700h63v-700h-63zM147 796c-28 0 -44 16 -44 44s16 44 44 44s44 -16 44 -44s-16 -44 -44 -44z" />
    <glyph glyph-name="dotlessi" unicode="&#x131;" horiz-adv-x="276" 
d="M109 0v520h59v-520h-59z" />
    <glyph glyph-name="Jcircumflex" unicode="&#x134;" horiz-adv-x="391" 
d="M217 165v535h64v-541c0 -111 -50 -166 -167 -166c-44 0 -74 8 -98 16v66c19 -13 60 -25 97 -25c72 0 104 33 104 115zM89 770l123 140h74l123 -140h-58l-103 100l-103 -100h-56z" />
    <glyph glyph-name="jcircumflex" unicode="&#x135;" horiz-adv-x="260" 
d="M100 -35v555h59v-551c0 -94 -31 -154 -131 -154c-30 0 -55 5 -69 10v66c18 -12 41 -19 68 -19c48 0 73 21 73 93zM-14 615l110 130h70l110 -130h-56l-89 90l-91 -90h-54z" />
    <glyph glyph-name="Kcommaaccent" unicode="&#x136;" horiz-adv-x="673" 
d="M110 0v700h63v-313h53l312 313h83l-342 -336l367 -364h-84l-337 336h-52v-336h-63zM286 -207c30 12 56 31 58 68c-34 -4 -57 12 -57 38c0 22 17 41 53 41c30 0 52 -18 52 -61c0 -41 -26 -101 -97 -119z" />
    <glyph glyph-name="kcommaaccent" unicode="&#x137;" horiz-adv-x="532" 
d="M95 750h59v-449h39l222 219h71l-245 -239l267 -281h-75l-243 253h-36v-253h-59v750zM215 -208c29 12 55 31 57 70c-35 -4 -57 12 -57 38c0 21 17 40 52 40c30 0 53 -18 53 -60c0 -44 -26 -102 -96 -120z" />
    <glyph glyph-name="Lacute" unicode="&#x139;" horiz-adv-x="556" 
d="M110 0v700h63v-642h346v-58h-409zM107 770l84 140h86l-114 -140h-56z" />
    <glyph glyph-name="lacute" unicode="&#x13a;" horiz-adv-x="312" 
d="M154 125c0 -61 21 -76 70 -76c26 0 50 7 64 15v-57c-14 -8 -44 -15 -74 -15c-81 0 -119 39 -119 115v643h59v-625zM100 810l76 130h84l-106 -130h-54z" />
    <glyph glyph-name="Lcommaaccent" unicode="&#x13b;" horiz-adv-x="556" 
d="M110 0v700h63v-642h346v-58h-409zM247 -207c30 12 56 31 58 68c-34 -4 -57 12 -57 38c0 22 17 41 53 41c30 0 52 -18 52 -61c0 -41 -26 -101 -97 -119z" />
    <glyph glyph-name="lcommaaccent" unicode="&#x13c;" horiz-adv-x="312" 
d="M154 125c0 -61 21 -76 70 -76c26 0 50 7 64 15v-57c-14 -8 -44 -15 -74 -15c-81 0 -119 39 -119 115v643h59v-625zM140 -208c29 12 55 31 57 70c-35 -4 -57 12 -57 38c0 21 17 40 52 40c30 0 53 -18 53 -60c0 -44 -26 -102 -96 -120z" />
    <glyph glyph-name="Lcaron" unicode="&#x13d;" horiz-adv-x="556" 
d="M110 0v700h63v-642h346v-58h-409zM343 520l46 180h64l-66 -180h-44z" />
    <glyph glyph-name="lcaron" unicode="&#x13e;" horiz-adv-x="324" 
d="M154 125c0 -61 21 -76 70 -76c26 0 50 7 64 15v-57c-14 -8 -44 -15 -74 -15c-81 0 -119 39 -119 115v643h59v-625zM254 570l46 180h64l-66 -180h-44z" />
    <glyph glyph-name="Ldot" unicode="&#x13f;" horiz-adv-x="556" 
d="M110 0v700h63v-642h346v-58h-409zM373 344c0 29 16 46 46 46c28 0 47 -18 47 -46c0 -30 -18 -47 -47 -47s-46 18 -46 47z" />
    <glyph glyph-name="ldot" unicode="&#x140;" horiz-adv-x="319" 
d="M154 125c0 -61 21 -76 70 -76c26 0 50 7 64 15v-57c-14 -8 -44 -15 -74 -15c-81 0 -119 39 -119 115v643h59v-625zM235 344c0 29 16 46 46 46c28 0 47 -18 47 -46c0 -30 -18 -47 -47 -47s-46 18 -46 47z" />
    <glyph glyph-name="Lslash" unicode="&#x141;" horiz-adv-x="579" 
d="M133 0v267l-90 -59v59l90 59v374h64v-332l184 120v-59l-184 -120v-251h346v-58h-410z" />
    <glyph glyph-name="lslash" unicode="&#x142;" horiz-adv-x="322" 
d="M164 125c0 -61 21 -76 70 -76c26 0 50 7 64 15v-57c-14 -8 -44 -15 -74 -15c-81 0 -119 39 -119 115v202l-85 -55v58l85 55v383h59v-345l111 72v-58l-111 -72v-222z" />
    <glyph glyph-name="Nacute" unicode="&#x143;" horiz-adv-x="754" 
d="M110 0v700h68l340 -497l66 -102c-2 19 -3 88 -3 112v487h63v-700h-66l-335 495c-14 19 -60 91 -74 116c2 -23 4 -86 4 -112v-499h-63zM349 770l84 140h86l-114 -140h-56z" />
    <glyph glyph-name="nacute" unicode="&#x144;" horiz-adv-x="606" 
d="M95 0v520h53l5 -102c32 72 90 111 180 111c126 0 185 -48 185 -196v-333h-60v322c0 117 -38 154 -143 154s-161 -64 -161 -164v-312h-59zM287 615l76 130h84l-106 -130h-54z" />
    <glyph glyph-name="Ncommaaccent" unicode="&#x145;" horiz-adv-x="754" 
d="M110 0v700h68l340 -497l66 -102c-2 19 -3 88 -3 112v487h63v-700h-66l-335 495c-14 19 -60 91 -74 116c2 -23 4 -86 4 -112v-499h-63zM327 -207c30 12 56 31 58 68c-34 -4 -57 12 -57 38c0 22 17 41 53 41c30 0 52 -18 52 -61c0 -41 -26 -101 -97 -119z" />
    <glyph glyph-name="ncommaaccent" unicode="&#x146;" horiz-adv-x="606" 
d="M95 0v520h53l5 -102c32 72 90 111 180 111c126 0 185 -48 185 -196v-333h-60v322c0 117 -38 154 -143 154s-161 -64 -161 -164v-312h-59zM252 -208c29 12 55 31 57 70c-35 -4 -57 12 -57 38c0 21 17 40 52 40c30 0 53 -18 53 -60c0 -44 -26 -102 -96 -120z" />
    <glyph glyph-name="Ncaron" unicode="&#x147;" horiz-adv-x="754" 
d="M110 0v700h68l340 -497l66 -102c-2 19 -3 88 -3 112v487h63v-700h-66l-335 495c-14 19 -60 91 -74 116c2 -23 4 -86 4 -112v-499h-63zM339 770l-123 140h58l103 -100l103 100h56l-123 -140h-74z" />
    <glyph glyph-name="ncaron" unicode="&#x148;" horiz-adv-x="606" 
d="M95 0v520h53l5 -102c32 72 90 111 180 111c126 0 185 -48 185 -196v-333h-60v322c0 117 -38 154 -143 154s-161 -64 -161 -164v-312h-59zM278 615l-110 130h56l89 -90l91 90h54l-110 -130h-70z" />
    <glyph glyph-name="Omacron" unicode="&#x14c;" horiz-adv-x="760" 
d="M71 350c0 241 106 360 313 360c213 0 304 -121 304 -360c0 -255 -114 -360 -309 -360c-192 0 -308 110 -308 360zM138 348c0 -210 86 -300 245 -300c156 0 239 87 239 300c0 214 -77 304 -244 304c-163 0 -240 -103 -240 -304zM239 815v51h280v-51h-280z" />
    <glyph glyph-name="omacron" unicode="&#x14d;" horiz-adv-x="596" 
d="M62 261c0 174 86 268 241 268c154 0 230 -88 230 -269c0 -182 -88 -270 -235 -270c-161 0 -236 99 -236 271zM122 263v-3c0 -141 57 -216 179 -216c116 0 172 70 172 217v3c0 141 -52 212 -175 212c-119 0 -176 -73 -176 -213zM168 657v46h260v-46h-260z" />
    <glyph glyph-name="Ohungarumlaut" unicode="&#x150;" horiz-adv-x="760" 
d="M71 350c0 241 106 360 313 360c213 0 304 -121 304 -360c0 -255 -114 -360 -309 -360c-192 0 -308 110 -308 360zM138 348c0 -210 86 -300 245 -300c156 0 239 87 239 300c0 214 -77 304 -244 304c-163 0 -240 -103 -240 -304zM272 770l68 140h84l-96 -140h-56zM426 770
l96 140h90l-126 -140h-60z" />
    <glyph glyph-name="ohungarumlaut" unicode="&#x151;" horiz-adv-x="596" 
d="M62 261c0 174 86 268 241 268c154 0 230 -88 230 -269c0 -182 -88 -270 -235 -270c-161 0 -236 99 -236 271zM122 263v-3c0 -141 57 -216 179 -216c116 0 172 70 172 217v3c0 141 -52 212 -175 212c-119 0 -176 -73 -176 -213zM200 615l68 130h82l-96 -130h-54zM336 615
l96 130h88l-126 -130h-58z" />
    <glyph glyph-name="OE" unicode="&#x152;" horiz-adv-x="951" 
d="M384 710c33 0 65 -4 94 -10h398v-58h-339v-256h317v-57h-317v-271h345v-58h-404c-30 -7 -65 -10 -99 -10c-192 0 -308 110 -308 360c0 241 106 360 313 360zM383 48c32 0 64 2 91 10v584c-28 7 -61 10 -96 10c-163 0 -240 -103 -240 -304c0 -210 86 -300 245 -300z" />
    <glyph glyph-name="oe" unicode="&#x153;" horiz-adv-x="977" 
d="M62 261c0 174 86 268 241 268c101 0 167 -37 201 -113c35 77 104 113 197 113c161 0 215 -95 215 -250v-36h-382c1 -133 60 -199 187 -199c67 0 122 24 159 55v-64c-27 -20 -85 -45 -160 -45c-110 0 -181 38 -217 118c-37 -78 -107 -118 -205 -118
c-161 0 -236 99 -236 271zM701 476c-106 0 -164 -59 -167 -181h321c1 108 -35 181 -154 181zM122 263v-3c0 -141 57 -216 179 -216c116 0 172 70 172 217v3c0 141 -52 212 -175 212c-119 0 -176 -73 -176 -213z" />
    <glyph glyph-name="Racute" unicode="&#x154;" horiz-adv-x="650" 
d="M173 0h-63v695c57 5 122 11 186 11c169 0 240 -62 240 -196c0 -106 -43 -171 -151 -199l221 -311h-75l-215 301h-143v-301zM173 354h118c136 0 178 60 178 151c0 95 -40 143 -176 143c-47 0 -78 -1 -120 -5v-289zM297 770l84 140h86l-114 -140h-56z" />
    <glyph glyph-name="racute" unicode="&#x155;" horiz-adv-x="394" 
d="M95 0v520h50l6 -95c21 75 84 105 154 105c20 0 43 -3 55 -8v-69c-18 15 -44 23 -73 23c-87 0 -133 -55 -133 -165v-311h-59zM181 615l76 130h84l-106 -130h-54z" />
    <glyph glyph-name="Rcommaaccent" unicode="&#x156;" horiz-adv-x="650" 
d="M173 0h-63v695c57 5 122 11 186 11c169 0 240 -62 240 -196c0 -106 -43 -171 -151 -199l221 -311h-75l-215 301h-143v-301zM173 354h118c136 0 178 60 178 151c0 95 -40 143 -176 143c-47 0 -78 -1 -120 -5v-289zM275 -207c30 12 56 31 58 68c-34 -4 -57 12 -57 38
c0 22 17 41 53 41c30 0 52 -18 52 -61c0 -41 -26 -101 -97 -119z" />
    <glyph glyph-name="rcommaaccent" unicode="&#x157;" horiz-adv-x="394" 
d="M95 0v520h50l6 -95c21 75 84 105 154 105c20 0 43 -3 55 -8v-69c-18 15 -44 23 -73 23c-87 0 -133 -55 -133 -165v-311h-59zM112 -208c29 12 55 31 57 70c-35 -4 -57 12 -57 38c0 21 17 40 52 40c30 0 53 -18 53 -60c0 -44 -26 -102 -96 -120z" />
    <glyph glyph-name="Rcaron" unicode="&#x158;" horiz-adv-x="650" 
d="M173 0h-63v695c57 5 122 11 186 11c169 0 240 -62 240 -196c0 -106 -43 -171 -151 -199l221 -311h-75l-215 301h-143v-301zM173 354h118c136 0 178 60 178 151c0 95 -40 143 -176 143c-47 0 -78 -1 -120 -5v-289zM287 770l-123 140h58l103 -100l103 100h56l-123 -140h-74
z" />
    <glyph glyph-name="rcaron" unicode="&#x159;" horiz-adv-x="394" 
d="M95 0v520h50l6 -95c21 75 84 105 154 105c20 0 43 -3 55 -8v-69c-18 15 -44 23 -73 23c-87 0 -133 -55 -133 -165v-311h-59zM173 615l-110 130h56l89 -90l91 90h54l-110 -130h-70z" />
    <glyph glyph-name="Sacute" unicode="&#x15a;" horiz-adv-x="564" 
d="M430 182c0 205 -356 96 -356 347c0 122 71 180 229 180c70 0 132 -16 165 -33v-79c-37 32 -104 54 -168 54c-113 0 -161 -32 -161 -115c0 -201 358 -86 358 -350c0 -122 -67 -195 -229 -195c-83 0 -157 23 -198 52v88c37 -39 108 -82 192 -82c122 0 168 48 168 133z
M264 770l84 140h86l-114 -140h-56z" />
    <glyph glyph-name="sacute" unicode="&#x15b;" horiz-adv-x="472" 
d="M382 502v-74c-34 28 -75 48 -133 48c-86 0 -120 -26 -120 -82c0 -145 279 -47 279 -249c0 -104 -62 -155 -187 -155c-67 0 -120 15 -156 36v76c36 -35 100 -58 157 -58c85 0 126 31 126 98c0 146 -279 56 -279 247c0 81 40 140 179 140c64 0 111 -15 134 -27zM220 615
l76 130h84l-106 -130h-54z" />
    <glyph glyph-name="Scircumflex" unicode="&#x15c;" horiz-adv-x="564" 
d="M430 182c0 205 -356 96 -356 347c0 122 71 180 229 180c70 0 132 -16 165 -33v-79c-37 32 -104 54 -168 54c-113 0 -161 -32 -161 -115c0 -201 358 -86 358 -350c0 -122 -67 -195 -229 -195c-83 0 -157 23 -198 52v88c37 -39 108 -82 192 -82c122 0 168 48 168 133z
M131 770l123 140h74l123 -140h-58l-103 100l-103 -100h-56z" />
    <glyph glyph-name="scircumflex" unicode="&#x15d;" horiz-adv-x="472" 
d="M382 502v-74c-34 28 -75 48 -133 48c-86 0 -120 -26 -120 -82c0 -145 279 -47 279 -249c0 -104 -62 -155 -187 -155c-67 0 -120 15 -156 36v76c36 -35 100 -58 157 -58c85 0 126 31 126 98c0 146 -279 56 -279 247c0 81 40 140 179 140c64 0 111 -15 134 -27zM102 615
l110 130h70l110 -130h-56l-89 90l-91 -90h-54z" />
    <glyph glyph-name="Scedilla" unicode="&#x15e;" horiz-adv-x="564" 
d="M244 -93l11 84c-78 2 -146 24 -185 52v88c37 -39 108 -82 192 -82c122 0 168 48 168 133c0 205 -356 96 -356 347c0 122 71 180 229 180c70 0 132 -16 165 -33v-79c-37 32 -104 54 -168 54c-113 0 -161 -32 -161 -115c0 -201 358 -86 358 -350c0 -115 -59 -186 -200 -194
l-7 -46c66 -1 110 -23 110 -84c0 -57 -48 -92 -111 -92c-37 0 -59 6 -78 16l6 39c21 -10 38 -13 66 -13c32 0 62 13 62 50c0 36 -36 48 -67 48c-9 0 -26 0 -34 -3z" />
    <glyph glyph-name="scedilla" unicode="&#x15f;" horiz-adv-x="472" 
d="M192 -84l10 74c-58 3 -105 17 -137 36v76c36 -35 100 -58 157 -58c85 0 126 31 126 98c0 146 -279 56 -279 247c0 81 40 140 179 140c64 0 111 -15 134 -27v-74c-34 28 -75 48 -133 48c-86 0 -120 -26 -120 -82c0 -145 279 -47 279 -249c0 -99 -56 -149 -167 -154l-5 -38
c60 -1 98 -21 98 -78c0 -50 -40 -85 -101 -85c-31 0 -50 6 -69 15l6 38c20 -9 34 -13 58 -13c32 0 55 14 55 47c0 34 -32 41 -59 41c-8 0 -24 0 -32 -2z" />
    <glyph glyph-name="Scaron" unicode="&#x160;" horiz-adv-x="564" 
d="M430 182c0 205 -356 96 -356 347c0 122 71 180 229 180c70 0 132 -16 165 -33v-79c-37 32 -104 54 -168 54c-113 0 -161 -32 -161 -115c0 -201 358 -86 358 -350c0 -122 -67 -195 -229 -195c-83 0 -157 23 -198 52v88c37 -39 108 -82 192 -82c122 0 168 48 168 133z
M254 770l-123 140h58l103 -100l103 100h56l-123 -140h-74z" />
    <glyph glyph-name="scaron" unicode="&#x161;" horiz-adv-x="472" 
d="M382 502v-74c-34 28 -75 48 -133 48c-86 0 -120 -26 -120 -82c0 -145 279 -47 279 -249c0 -104 -62 -155 -187 -155c-67 0 -120 15 -156 36v76c36 -35 100 -58 157 -58c85 0 126 31 126 98c0 146 -279 56 -279 247c0 81 40 140 179 140c64 0 111 -15 134 -27zM212 615
l-110 130h56l89 -90l91 90h54l-110 -130h-70z" />
    <glyph glyph-name="Tcedilla" unicode="&#x162;" horiz-adv-x="569" 
d="M252 0v642h-226v58h516v-58h-226v-642h-11l-8 -54c66 -1 110 -23 110 -84c0 -57 -48 -92 -111 -92c-37 0 -59 6 -78 16l6 39c21 -10 38 -13 66 -13c32 0 62 13 62 50c0 36 -36 48 -67 48c-9 0 -26 0 -34 -3l12 93h-11z" />
    <glyph glyph-name="tcedilla" unicode="&#x163;" horiz-adv-x="424" 
d="M227 -84l11 78c-68 11 -100 54 -100 147v326h-109v53h109v109l59 22v-131h173v-53h-173v-325c0 -73 26 -97 82 -97c48 0 81 14 103 28v-59c-19 -13 -60 -23 -103 -23h-3l-5 -38c60 -1 98 -21 98 -78c0 -50 -40 -85 -101 -85c-31 0 -50 6 -69 15l6 38c20 -9 34 -13 58 -13
c32 0 55 14 55 47c0 34 -32 41 -59 41c-8 0 -24 0 -32 -2z" />
    <glyph glyph-name="Tcaron" unicode="&#x164;" horiz-adv-x="569" 
d="M252 0v642h-226v58h516v-58h-226v-642h-64zM247 770l-123 140h58l103 -100l103 100h56l-123 -140h-74z" />
    <glyph glyph-name="tcaron" unicode="&#x165;" horiz-adv-x="424" 
d="M138 141v326h-109v53h109v109l59 22v-131h173v-53h-173v-325c0 -73 26 -97 82 -97c48 0 81 14 103 28v-59c-19 -13 -60 -23 -103 -23c-96 0 -141 40 -141 150zM297 620l46 180h64l-66 -180h-44z" />
    <glyph glyph-name="Umacron" unicode="&#x16a;" horiz-adv-x="725" 
d="M103 263v437h63v-428c0 -193 82 -225 203 -225c111 0 190 28 190 219v434h64v-432c0 -212 -94 -278 -259 -278c-184 0 -261 80 -261 273zM222 815v51h280v-51h-280z" />
    <glyph glyph-name="umacron" unicode="&#x16b;" horiz-adv-x="600" 
d="M452 0l-5 104c-30 -82 -96 -114 -183 -114c-119 0 -174 61 -174 177v353h59v-341c0 -99 40 -135 132 -135c113 0 165 63 165 166v310h59v-520h-53zM170 657v46h260v-46h-260z" />
    <glyph glyph-name="Ubreve" unicode="&#x16c;" horiz-adv-x="725" 
d="M103 263v437h63v-428c0 -193 82 -225 203 -225c111 0 190 28 190 219v434h64v-432c0 -212 -94 -278 -259 -278c-184 0 -261 80 -261 273zM218 892l42 13c16 -50 43 -82 103 -82s87 32 103 82l42 -13c-21 -75 -70 -117 -145 -117s-124 42 -145 117z" />
    <glyph glyph-name="ubreve" unicode="&#x16d;" horiz-adv-x="600" 
d="M452 0l-5 104c-30 -82 -96 -114 -183 -114c-119 0 -174 61 -174 177v353h59v-341c0 -99 40 -135 132 -135c113 0 165 63 165 166v310h59v-520h-53zM152 732l40 13c16 -50 45 -84 105 -84s89 34 105 84l40 -13c-23 -75 -70 -117 -145 -117s-122 42 -145 117z" />
    <glyph glyph-name="Uring" unicode="&#x16e;" horiz-adv-x="725" 
d="M103 263v437h63v-428c0 -193 82 -225 203 -225c111 0 190 28 190 219v434h64v-432c0 -212 -94 -278 -259 -278c-184 0 -261 80 -261 273zM271 840c0 54 38 92 92 92s92 -38 92 -92s-38 -92 -92 -92s-92 38 -92 92zM311 840c0 -33 19 -52 52 -52s52 19 52 52
s-19 52 -52 52s-52 -19 -52 -52z" />
    <glyph glyph-name="uring" unicode="&#x16f;" horiz-adv-x="600" 
d="M452 0l-5 104c-30 -82 -96 -114 -183 -114c-119 0 -174 61 -174 177v353h59v-341c0 -99 40 -135 132 -135c113 0 165 63 165 166v310h59v-520h-53zM207 680c0 54 36 90 90 90s90 -36 90 -90s-36 -90 -90 -90s-90 36 -90 90zM247 680c0 -31 19 -50 50 -50s50 19 50 50
s-19 50 -50 50s-50 -19 -50 -50z" />
    <glyph glyph-name="Uhungarumlaut" unicode="&#x170;" horiz-adv-x="725" 
d="M103 263v437h63v-428c0 -193 82 -225 203 -225c111 0 190 28 190 219v434h64v-432c0 -212 -94 -278 -259 -278c-184 0 -261 80 -261 273zM256 770l68 140h84l-96 -140h-56zM410 770l96 140h90l-126 -140h-60z" />
    <glyph glyph-name="uhungarumlaut" unicode="&#x171;" horiz-adv-x="600" 
d="M452 0l-5 104c-30 -82 -96 -114 -183 -114c-119 0 -174 61 -174 177v353h59v-341c0 -99 40 -135 132 -135c113 0 165 63 165 166v310h59v-520h-53zM200 615l68 130h82l-96 -130h-54zM336 615l96 130h88l-126 -130h-58z" />
    <glyph glyph-name="Uogonek" unicode="&#x172;" horiz-adv-x="725" 
d="M103 263v437h63v-428c0 -193 82 -225 203 -225c111 0 190 28 190 219v434h64v-432c0 -180 -68 -255 -190 -273c-43 -35 -75 -80 -75 -128c0 -31 23 -50 61 -50c22 0 44 5 63 17v-45c-22 -11 -49 -19 -81 -19c-65 0 -98 34 -98 88c0 49 31 93 81 133c-7 0 -13 -1 -20 -1
c-184 0 -261 80 -261 273z" />
    <glyph glyph-name="uogonek" unicode="&#x173;" horiz-adv-x="600" 
d="M532 -151v-41c-20 -10 -42 -18 -71 -18c-60 0 -92 34 -92 82c0 52 36 94 83 128l-5 104c-30 -82 -96 -114 -183 -114c-119 0 -174 61 -174 177v353h59v-341c0 -99 40 -135 132 -135c113 0 165 63 165 166v310h59v-520h-8c-41 -32 -73 -68 -73 -120c0 -27 17 -47 52 -47
c19 0 37 5 56 16z" />
    <glyph glyph-name="Ydieresis" unicode="&#x178;" horiz-adv-x="597" 
d="M267 0v280l-243 420h71l206 -358l202 358h70l-242 -420v-280h-64zM202 796c-28 0 -44 16 -44 44s16 44 44 44s44 -16 44 -44s-16 -44 -44 -44zM394 796c-28 0 -44 16 -44 44s16 44 44 44s44 -16 44 -44s-16 -44 -44 -44z" />
    <glyph glyph-name="Zacute" unicode="&#x179;" horiz-adv-x="585" 
d="M41 0v43l415 599h-403v58h485v-44l-414 -598h420v-58h-503zM264 770l84 140h86l-114 -140h-56z" />
    <glyph glyph-name="zacute" unicode="&#x17a;" horiz-adv-x="489" 
d="M46 0v41l314 426h-301v53h378v-40l-315 -426h318v-54h-394zM218 615l76 130h84l-106 -130h-54z" />
    <glyph glyph-name="Zdotaccent" unicode="&#x17b;" horiz-adv-x="585" 
d="M41 0v43l415 599h-403v58h485v-44l-414 -598h420v-58h-503zM293 796c-28 0 -44 16 -44 44s16 44 44 44s44 -16 44 -44s-16 -44 -44 -44z" />
    <glyph glyph-name="zdotaccent" unicode="&#x17c;" horiz-adv-x="489" 
d="M46 0v41l314 426h-301v53h378v-40l-315 -426h318v-54h-394zM246 638c-27 0 -42 15 -42 42s15 42 42 42s42 -15 42 -42s-15 -42 -42 -42z" />
    <glyph glyph-name="Zcaron" unicode="&#x17d;" horiz-adv-x="585" 
d="M41 0v43l415 599h-403v58h485v-44l-414 -598h420v-58h-503zM255 770l-123 140h58l103 -100l103 100h56l-123 -140h-74z" />
    <glyph glyph-name="zcaron" unicode="&#x17e;" horiz-adv-x="489" 
d="M46 0v41l314 426h-301v53h378v-40l-315 -426h318v-54h-394zM210 615l-110 130h56l89 -90l91 90h54l-110 -130h-70z" />
    <glyph glyph-name="uni018F" unicode="&#x18f;" horiz-adv-x="696" 
d="M68 372h488c0 131 -44 278 -252 278c-63 0 -123 -9 -173 -28v60c52 16 108 27 179 27c212 0 315 -125 315 -357c0 -184 -72 -361 -284 -361c-167 0 -273 103 -273 337v44zM136 300c2 -167 68 -250 205 -250c116 0 209 77 215 263h-420v-13z" />
    <glyph glyph-name="florin" unicode="&#x192;" horiz-adv-x="526" 
d="M-14 -210l13 58c10 -3 18 -4 27 -4c54 0 89 26 108 121l99 491h-99l11 54h98l17 83c22 110 76 165 175 165c18 0 34 -2 57 -6l-11 -55c-10 3 -26 7 -48 7c-69 0 -98 -35 -117 -130l-14 -64h142l-11 -54h-141l-96 -483c-23 -113 -58 -187 -174 -187c-12 0 -24 1 -36 4z
" />
    <glyph glyph-name="uni01DD" unicode="&#x1dd;" horiz-adv-x="566" 
d="M61 276h382c-1 134 -60 199 -187 199c-67 0 -121 -24 -158 -55v65c27 20 85 44 159 44c167 0 246 -84 246 -276c0 -178 -84 -263 -227 -263c-160 0 -215 96 -215 251v35zM276 44c106 0 164 59 167 181h-321c-1 -108 35 -181 154 -181z" />
    <glyph glyph-name="Gcaron" unicode="&#x1e6;" horiz-adv-x="687" 
d="M389 288v57h222v-315c-37 -17 -109 -39 -197 -39c-232 0 -343 104 -343 355s115 363 344 363c70 0 123 -15 156 -29v-70c-36 22 -99 41 -160 41c-187 0 -273 -88 -273 -297c0 -224 89 -305 278 -305c48 0 98 8 135 21v218h-162zM357 770l-123 140h58l103 -100l103 100h56
l-123 -140h-74z" />
    <glyph glyph-name="gcaron" unicode="&#x1e7;" horiz-adv-x="612" 
d="M106 -148v73c28 -26 96 -58 177 -58c127 0 175 45 175 148v101c-27 -73 -86 -115 -182 -115c-142 0 -214 83 -214 257c0 197 79 271 226 271c93 0 151 -44 172 -104l5 95h53v-501c-1 -150 -84 -206 -230 -206c-84 0 -145 19 -182 39zM289 55c107 0 170 53 170 187v53
c0 112 -51 180 -168 180c-112 0 -169 -59 -169 -215c0 -144 63 -205 167 -205zM253 615l-110 130h56l89 -90l91 90h54l-110 -130h-70z" />
    <glyph glyph-name="Scommaaccent" unicode="&#x218;" horiz-adv-x="564" 
d="M430 182c0 205 -356 96 -356 347c0 122 71 180 229 180c70 0 132 -16 165 -33v-79c-37 32 -104 54 -168 54c-113 0 -161 -32 -161 -115c0 -201 358 -86 358 -350c0 -122 -67 -195 -229 -195c-83 0 -157 23 -198 52v88c37 -39 108 -82 192 -82c122 0 168 48 168 133z
M226 -207c30 12 56 31 58 68c-34 -4 -57 12 -57 38c0 22 17 41 53 41c30 0 52 -18 52 -61c0 -41 -26 -101 -97 -119z" />
    <glyph glyph-name="scommaaccent" unicode="&#x219;" horiz-adv-x="472" 
d="M382 502v-74c-34 28 -75 48 -133 48c-86 0 -120 -26 -120 -82c0 -145 279 -47 279 -249c0 -104 -62 -155 -187 -155c-67 0 -120 15 -156 36v76c36 -35 100 -58 157 -58c85 0 126 31 126 98c0 146 -279 56 -279 247c0 81 40 140 179 140c64 0 111 -15 134 -27zM181 -208
c29 12 55 31 57 70c-35 -4 -57 12 -57 38c0 21 17 40 52 40c30 0 53 -18 53 -60c0 -44 -26 -102 -96 -120z" />
    <glyph glyph-name="Tcommaaccent" unicode="&#x21a;" horiz-adv-x="569" 
d="M252 0v642h-226v58h516v-58h-226v-642h-64zM234 -207c30 12 56 31 58 68c-34 -4 -57 12 -57 38c0 22 17 41 53 41c30 0 52 -18 52 -61c0 -41 -26 -101 -97 -119z" />
    <glyph glyph-name="tcommaaccent" unicode="&#x21b;" horiz-adv-x="424" 
d="M138 141v326h-109v53h109v109l59 22v-131h173v-53h-173v-325c0 -73 26 -97 82 -97c48 0 81 14 103 28v-59c-19 -13 -60 -23 -103 -23c-96 0 -141 40 -141 150zM216 -208c29 12 55 31 57 70c-35 -4 -57 12 -57 38c0 21 17 40 52 40c30 0 53 -18 53 -60
c0 -44 -26 -102 -96 -120z" />
    <glyph glyph-name="uni0237" unicode="&#x237;" horiz-adv-x="260" 
d="M100 -35v555h59v-551c0 -94 -31 -154 -131 -154c-30 0 -55 5 -69 10v66c18 -12 41 -19 68 -19c48 0 73 21 73 93z" />
    <glyph glyph-name="uni0259" unicode="&#x259;" horiz-adv-x="566" 
d="M61 276h382c-1 134 -60 199 -187 199c-67 0 -121 -24 -158 -55v65c27 20 85 44 159 44c167 0 246 -84 246 -276c0 -178 -84 -263 -227 -263c-160 0 -215 96 -215 251v35zM276 44c106 0 164 59 167 181h-321c-1 -108 35 -181 154 -181z" />
    <glyph glyph-name="afii57929" unicode="&#x2bc;" horiz-adv-x="180" 
d="M45 520l46 180h64l-66 -180h-44z" />
    <glyph glyph-name="circumflex" unicode="&#x2c6;" horiz-adv-x="613" 
d="M162 615l110 130h70l110 -130h-56l-89 90l-91 -90h-54z" />
    <glyph glyph-name="caron" unicode="&#x2c7;" horiz-adv-x="613" 
d="M272 615l-110 130h56l89 -90l91 90h54l-110 -130h-70z" />
    <glyph glyph-name="breve" unicode="&#x2d8;" horiz-adv-x="613" 
d="M162 732l40 13c16 -50 45 -84 105 -84s89 34 105 84l40 -13c-23 -75 -70 -117 -145 -117s-122 42 -145 117z" />
    <glyph glyph-name="dotaccent" unicode="&#x2d9;" horiz-adv-x="437" 
d="M220 638c-27 0 -42 15 -42 42s15 42 42 42s42 -15 42 -42s-15 -42 -42 -42z" />
    <glyph glyph-name="ring" unicode="&#x2da;" horiz-adv-x="613" 
d="M217 680c0 54 36 90 90 90s90 -36 90 -90s-36 -90 -90 -90s-90 36 -90 90zM257 680c0 -31 19 -50 50 -50s50 19 50 50s-19 50 -50 50s-50 -19 -50 -50z" />
    <glyph glyph-name="ogonek" unicode="&#x2db;" horiz-adv-x="606" 
d="M472 -151v-41c-20 -10 -42 -18 -71 -18c-60 0 -92 34 -92 82c0 57 43 101 96 137l36 -6c-43 -33 -77 -70 -77 -123c0 -27 17 -47 52 -47c19 0 37 5 56 16z" />
    <glyph glyph-name="tilde" unicode="&#x2dc;" horiz-adv-x="613" 
d="M208 635l-41 11c5 49 33 80 76 80c24 0 43 -11 70 -23c24 -11 41 -22 59 -22c17 0 28 11 35 43l40 -11c-7 -52 -38 -79 -74 -79c-20 0 -33 4 -72 23c-23 11 -37 22 -56 22c-17 0 -29 -10 -37 -44z" />
    <glyph glyph-name="hungarumlaut" unicode="&#x2dd;" horiz-adv-x="613" 
d="M207 615l68 130h82l-96 -130h-54zM343 615l96 130h88l-126 -130h-58z" />
    <glyph glyph-name="acutecomb" unicode="&#x301;" horiz-adv-x="0" 
d="M-332 615l76 130h84l-106 -130h-54z" />
    <glyph glyph-name="uni0394" unicode="&#x394;" horiz-adv-x="641" 
d="M24 0l266 702h65l263 -702h-594zM108 60h423l-208 564h-2z" />
    <glyph glyph-name="uni0394" unicode="&#x2206;" horiz-adv-x="641" 
d="M24 0l266 702h65l263 -702h-594zM108 60h423l-208 564h-2z" />
    <glyph glyph-name="uni03A9" unicode="&#x3a9;" horiz-adv-x="787" 
d="M91 0v60h190v68c-105 29 -190 115 -190 277c0 188 113 304 303 304s302 -116 302 -304c0 -162 -85 -248 -188 -277v-68h188v-60h-247v171c127 22 180 127 180 234c0 118 -62 245 -235 245c-174 0 -236 -127 -236 -245c0 -107 54 -212 181 -234v-171h-248z" />
    <glyph glyph-name="uni03A9" unicode="&#x2126;" horiz-adv-x="787" 
d="M91 0v60h190v68c-105 29 -190 115 -190 277c0 188 113 304 303 304s302 -116 302 -304c0 -162 -85 -248 -188 -277v-68h188v-60h-247v171c127 22 180 127 180 234c0 118 -62 245 -235 245c-174 0 -236 -127 -236 -245c0 -107 54 -212 181 -234v-171h-248z" />
    <glyph glyph-name="pi" unicode="&#x3c0;" horiz-adv-x="640" 
d="M143 0v464c-35 0 -69 -14 -89 -28l-23 52c24 15 65 32 142 32h410v-54h-77v-345c0 -49 10 -73 41 -73c6 0 17 2 24 3l3 -58c-12 -1 -31 -3 -41 -3c-63 0 -87 42 -87 124v352h-244v-466h-59z" />
    <glyph glyph-name="afii10023" unicode="&#x401;" horiz-adv-x="599" 
d="M110 0v700h412v-58h-349v-256h322v-57h-322v-271h349v-58h-412zM220 796c-28 0 -44 16 -44 44s16 44 44 44s44 -16 44 -44s-16 -44 -44 -44zM412 796c-28 0 -44 16 -44 44s16 44 44 44s44 -16 44 -44s-16 -44 -44 -44z" />
    <glyph glyph-name="afii10051" unicode="&#x402;" horiz-adv-x="781" 
d="M252 0v642h-226v58h516v-58h-226v-241c40 20 99 41 185 41c145 0 216 -72 216 -185v-70c0 -125 -66 -194 -183 -194c-28 0 -56 4 -75 10v61c18 -9 39 -14 68 -14c79 0 125 49 125 138v47c0 88 -42 150 -164 150c-72 0 -134 -17 -172 -39v-346h-64z" />
    <glyph glyph-name="afii10052" unicode="&#x403;" horiz-adv-x="543" 
d="M110 0v700h392v-58h-329v-642h-63zM269 770l84 140h86l-114 -140h-56z" />
    <glyph glyph-name="afii10053" unicode="&#x404;" horiz-adv-x="643" 
d="M400 49c83 0 139 25 174 49v-76c-33 -13 -86 -31 -173 -31c-229 0 -329 121 -329 373c0 237 102 345 318 345c82 0 154 -18 189 -32v-77c-38 26 -98 51 -184 51c-180 0 -251 -88 -257 -263h338v-58h-338c6 -185 80 -281 262 -281z" />
    <glyph glyph-name="afii10054" unicode="&#x405;" horiz-adv-x="564" 
d="M430 182c0 205 -356 96 -356 347c0 122 71 180 229 180c70 0 132 -16 165 -33v-79c-37 32 -104 54 -168 54c-113 0 -161 -32 -161 -115c0 -201 358 -86 358 -350c0 -122 -67 -195 -229 -195c-83 0 -157 23 -198 52v88c37 -39 108 -82 192 -82c122 0 168 48 168 133z" />
    <glyph glyph-name="afii10055" unicode="&#x406;" horiz-adv-x="294" 
d="M115 0v700h63v-700h-63z" />
    <glyph glyph-name="afii10056" unicode="&#x407;" horiz-adv-x="294" 
d="M115 0v700h63v-700h-63zM50 796c-28 0 -44 16 -44 44s16 44 44 44s44 -16 44 -44s-16 -44 -44 -44zM242 796c-28 0 -44 16 -44 44s16 44 44 44s44 -16 44 -44s-16 -44 -44 -44z" />
    <glyph glyph-name="afii10057" unicode="&#x408;" horiz-adv-x="391" 
d="M217 165v535h64v-541c0 -111 -50 -166 -167 -166c-44 0 -74 8 -98 16v66c19 -13 60 -25 97 -25c72 0 104 33 104 115z" />
    <glyph glyph-name="afii10058" unicode="&#x409;" horiz-adv-x="1028" 
d="M22 -2v70c10 -5 19 -8 33 -8c61 0 107 73 124 505l5 135h409v-289c45 4 73 5 114 5c186 0 255 -60 255 -200c0 -154 -82 -223 -275 -223c-48 0 -107 4 -157 10v639h-286l-2 -62c-21 -523 -85 -588 -184 -588c-13 0 -24 1 -36 6zM593 58c38 -5 69 -6 106 -6
c158 0 196 62 196 160c0 95 -29 147 -196 147c-40 0 -66 -1 -106 -5v-296z" />
    <glyph glyph-name="afii10059" unicode="&#x40a;" horiz-adv-x="1085" 
d="M110 0v700h63v-311h414v311h63v-289c44 4 73 5 114 5c185 0 254 -60 254 -200c0 -154 -82 -223 -274 -223c-48 0 -107 4 -157 10v328h-414v-331h-63zM650 58c38 -5 69 -6 106 -6c158 0 196 62 196 160c0 95 -30 147 -196 147c-40 0 -66 -1 -106 -5v-296z" />
    <glyph glyph-name="afii10060" unicode="&#x40b;" horiz-adv-x="785" 
d="M252 0v642h-226v58h516v-58h-226v-242c40 20 98 42 186 42c138 0 210 -56 210 -180v-262h-64v235c0 91 -32 150 -159 150c-70 0 -134 -17 -173 -39v-346h-64z" />
    <glyph glyph-name="afii10061" unicode="&#x40c;" horiz-adv-x="673" 
d="M110 0v700h63v-313h53l312 313h83l-342 -336l367 -364h-84l-337 336h-52v-336h-63zM298 770l84 140h86l-114 -140h-56z" />
    <glyph glyph-name="afii10062" unicode="&#x40e;" horiz-adv-x="637" 
d="M150 5l1 68c16 -11 36 -22 65 -22c43 0 77 44 98 95l-285 554h74l245 -479l203 479h67l-248 -572c-45 -103 -90 -137 -154 -137c-25 0 -47 6 -66 14zM323 775c-90 0 -142 42 -150 130h58c5 -60 32 -82 92 -82s87 22 94 82h56c-8 -88 -60 -130 -150 -130z" />
    <glyph glyph-name="afii10145" unicode="&#x40f;" horiz-adv-x="727" 
d="M333 -130v130h-223v700h63v-642h381v642h63v-700h-223v-130h-61z" />
    <glyph glyph-name="afii10017" unicode="&#x410;" horiz-adv-x="655" 
d="M556 0l-74 200h-314l-74 -200h-65l266 700h65l266 -700h-70zM326 625l-137 -367h272z" />
    <glyph glyph-name="afii10018" unicode="&#x411;" horiz-adv-x="626" 
d="M110 1v699h399v-58h-336v-229c56 3 100 5 142 5c165 0 241 -52 241 -203c0 -153 -92 -222 -267 -222c-63 0 -124 2 -179 8zM173 57c41 -4 75 -5 119 -5c161 0 197 66 197 160c0 93 -30 148 -188 148c-39 0 -79 -2 -128 -5v-298z" />
    <glyph glyph-name="afii10019" unicode="&#x412;" horiz-adv-x="637" 
d="M110 2v696c58 4 133 7 198 7c181 0 233 -52 233 -178c0 -88 -35 -139 -122 -161c103 -11 149 -69 149 -161c0 -135 -65 -211 -259 -211c-77 0 -144 3 -199 8zM173 58c46 -5 92 -6 139 -6c148 0 192 52 192 151c0 94 -57 130 -170 130h-161v-275zM173 385h139
c124 0 165 46 165 127c0 106 -28 135 -169 135c-47 0 -89 0 -135 -3v-259z" />
    <glyph glyph-name="afii10020" unicode="&#x413;" horiz-adv-x="543" 
d="M110 0v700h392v-58h-329v-642h-63z" />
    <glyph glyph-name="afii10021" unicode="&#x414;" horiz-adv-x="707" 
d="M16 -130v188h68c63 120 93 322 94 538l1 104h398v-642h86v-188h-61v130h-525v-130h-61zM514 58v584h-273l-1 -58c-1 -189 -31 -407 -89 -526h363z" />
    <glyph glyph-name="afii10022" unicode="&#x415;" horiz-adv-x="599" 
d="M110 0v700h412v-58h-349v-256h322v-57h-322v-271h349v-58h-412z" />
    <glyph glyph-name="afii10024" unicode="&#x416;" horiz-adv-x="883" 
d="M124 700l217 -314h69v314h63v-314h68l220 314h69l-233 -333l260 -367h-78l-238 337h-68v-337h-63v337h-67l-240 -337h-77l260 362l-236 338h74z" />
    <glyph glyph-name="afii10025" unicode="&#x417;" horiz-adv-x="580" 
d="M166 331v55h89c107 0 160 53 160 134c0 79 -38 131 -161 131c-62 0 -123 -20 -174 -54v77c50 19 107 35 185 35c141 0 217 -50 217 -175c0 -90 -48 -143 -131 -164c107 -12 160 -69 160 -171c0 -141 -83 -208 -257 -208c-83 0 -152 18 -192 39v84c40 -39 116 -65 199 -65
c151 0 183 69 183 153c0 88 -59 129 -181 129h-97z" />
    <glyph glyph-name="afii10026" unicode="&#x418;" horiz-adv-x="759" 
d="M110 0v700h63v-489c0 -22 -2 -104 -5 -130c11 20 55 88 68 108l345 511h68v-700h-63v486c0 22 2 106 5 134c-13 -22 -58 -94 -68 -110l-345 -510h-68z" />
    <glyph glyph-name="afii10027" unicode="&#x419;" horiz-adv-x="759" 
d="M110 0v700h63v-489c0 -22 -2 -104 -5 -130c11 20 55 88 68 108l345 511h68v-700h-63v486c0 22 2 106 5 134c-13 -22 -58 -94 -68 -110l-345 -510h-68zM379 775c-90 0 -142 42 -150 130h58c5 -60 32 -82 92 -82s87 22 94 82h56c-8 -88 -60 -130 -150 -130z" />
    <glyph glyph-name="afii10028" unicode="&#x41a;" horiz-adv-x="673" 
d="M110 0v700h63v-313h53l312 313h83l-342 -336l367 -364h-84l-337 336h-52v-336h-63z" />
    <glyph glyph-name="afii10029" unicode="&#x41b;" horiz-adv-x="703" 
d="M22 -2v70c10 -5 19 -8 33 -8c61 0 107 73 124 505l5 135h409v-700h-63v642h-286l-2 -62c-21 -523 -85 -588 -184 -588c-13 0 -24 1 -36 6z" />
    <glyph glyph-name="afii10030" unicode="&#x41c;" horiz-adv-x="861" 
d="M110 0v700h76l248 -457l247 457h70v-700h-63v491c0 22 1 89 3 116c-14 -30 -49 -99 -57 -115l-173 -317h-57l-173 315l-62 121c3 -29 4 -97 4 -120v-491h-63z" />
    <glyph glyph-name="afii10031" unicode="&#x41d;" horiz-adv-x="760" 
d="M110 0v700h63v-311h414v311h63v-700h-63v331h-414v-331h-63z" />
    <glyph glyph-name="afii10032" unicode="&#x41e;" horiz-adv-x="760" 
d="M71 350c0 241 106 360 313 360c213 0 304 -121 304 -360c0 -255 -114 -360 -309 -360c-192 0 -308 110 -308 360zM138 348c0 -210 86 -300 245 -300c156 0 239 87 239 300c0 214 -77 304 -244 304c-163 0 -240 -103 -240 -304z" />
    <glyph glyph-name="afii10033" unicode="&#x41f;" horiz-adv-x="746" 
d="M110 0v700h526v-700h-63v642h-400v-642h-63z" />
    <glyph glyph-name="afii10034" unicode="&#x420;" horiz-adv-x="619" 
d="M110 0v697c54 4 108 9 174 9c198 0 270 -66 270 -219c0 -159 -71 -240 -272 -240c-38 0 -69 1 -109 4v-251h-63zM173 308c40 -3 69 -4 109 -4c153 0 206 46 206 178c0 106 -36 166 -204 166c-40 0 -71 -1 -111 -5v-335z" />
    <glyph glyph-name="afii10035" unicode="&#x421;" horiz-adv-x="647" 
d="M558 682v-72c-40 22 -104 41 -175 41c-159 0 -245 -80 -245 -297c0 -225 92 -305 251 -305c75 0 144 26 179 44v-66c-35 -17 -101 -36 -183 -36c-206 0 -314 104 -314 355c0 258 108 363 314 363c84 0 139 -16 173 -27z" />
    <glyph glyph-name="afii10036" unicode="&#x422;" horiz-adv-x="569" 
d="M252 0v642h-226v58h516v-58h-226v-642h-64z" />
    <glyph glyph-name="afii10037" unicode="&#x423;" horiz-adv-x="637" 
d="M150 5l1 68c16 -11 36 -22 65 -22c43 0 77 44 98 95l-285 554h74l245 -479l203 479h67l-248 -572c-45 -103 -90 -137 -154 -137c-25 0 -47 6 -66 14z" />
    <glyph glyph-name="afii10038" unicode="&#x424;" horiz-adv-x="877" 
d="M406 -19v84h-26c-220 0 -314 97 -314 291c0 199 97 291 317 291h23v72h64v-72h24c223 0 316 -89 316 -291c0 -200 -104 -291 -317 -291h-23v-84h-64zM406 119v473h-22c-196 0 -251 -79 -251 -232c0 -166 70 -241 250 -241h23zM470 119h23c192 0 250 83 250 238
c0 166 -60 235 -251 235h-22v-473z" />
    <glyph glyph-name="afii10039" unicode="&#x425;" horiz-adv-x="627" 
d="M29 0l240 361l-222 339h76l189 -294l196 294h73l-229 -335l246 -365h-77l-211 318l-208 -318h-73z" />
    <glyph glyph-name="afii10040" unicode="&#x426;" horiz-adv-x="744" 
d="M110 0v700h63v-642h381v642h63v-642h83v-188h-60v130h-530z" />
    <glyph glyph-name="afii10041" unicode="&#x427;" horiz-adv-x="653" 
d="M480 0v306c-36 -24 -103 -42 -183 -42c-138 0 -216 56 -216 179v257h64v-230c0 -111 54 -149 164 -149c69 0 133 16 171 40v339h63v-700h-63z" />
    <glyph glyph-name="afii10042" unicode="&#x428;" horiz-adv-x="935" 
d="M110 0v700h63v-642h263v642h63v-642h263v642h63v-700h-715z" />
    <glyph glyph-name="afii10043" unicode="&#x429;" horiz-adv-x="952" 
d="M110 0v700h63v-642h263v642h63v-642h263v642h63v-642h83v-188h-60v130h-738z" />
    <glyph glyph-name="afii10044" unicode="&#x42a;" horiz-adv-x="686" 
d="M187 3v639h-156v58h220v-270c44 4 73 5 114 5c185 0 254 -64 254 -214c0 -158 -82 -228 -274 -228c-49 0 -107 4 -158 10zM251 58c38 -5 69 -6 106 -6c158 0 195 64 195 165c0 102 -29 160 -195 160c-40 0 -66 -1 -106 -4v-315z" />
    <glyph glyph-name="afii10045" unicode="&#x42b;" horiz-adv-x="823" 
d="M110 3v697h63v-270c45 3 73 5 121 5c177 0 243 -66 243 -214c0 -155 -79 -228 -269 -228c-54 0 -108 5 -158 10zM173 58c39 -4 69 -6 107 -6c156 0 191 65 191 165s-28 160 -188 160c-44 0 -70 -1 -110 -4v-315zM650 0v700h63v-700h-63z" />
    <glyph glyph-name="afii10046" unicode="&#x42c;" horiz-adv-x="608" 
d="M110 3v697h63v-270c45 4 73 5 114 5c186 0 255 -64 255 -214c0 -158 -82 -228 -274 -228c-49 0 -108 4 -158 10zM173 58c38 -5 69 -6 106 -6c158 0 197 64 197 165c0 102 -30 160 -197 160c-40 0 -66 -1 -106 -4v-315z" />
    <glyph glyph-name="afii10047" unicode="&#x42d;" horiz-adv-x="643" 
d="M243 49c182 0 256 96 262 281h-338v58h338c-6 175 -77 263 -257 263c-86 0 -146 -25 -184 -51v77c35 14 107 32 189 32c216 0 318 -108 318 -345c0 -252 -100 -373 -329 -373c-87 0 -140 18 -173 31v76c35 -24 91 -49 174 -49z" />
    <glyph glyph-name="afii10048" unicode="&#x42e;" horiz-adv-x="989" 
d="M628 710c189 0 290 -100 290 -360c0 -277 -122 -360 -300 -360c-202 0 -285 124 -290 339h-155v-329h-63v700h63v-314h155c9 214 103 324 300 324zM391 350c0 -214 75 -302 231 -302c165 0 230 90 230 300c0 221 -70 304 -230 304c-146 0 -231 -80 -231 -302z" />
    <glyph glyph-name="afii10049" unicode="&#x42f;" horiz-adv-x="646" 
d="M46 0l196 286c-103 20 -152 83 -152 201c0 152 79 220 283 220c53 0 105 -4 163 -8v-699h-64v278h-164l-186 -278h-76zM472 336v308c-46 4 -74 5 -115 5c-165 0 -201 -61 -201 -163c0 -105 46 -150 171 -150h145z" />
    <glyph glyph-name="afii10065" unicode="&#x430;" horiz-adv-x="543" 
d="M402 0l-6 100c-24 -65 -79 -110 -166 -110c-112 0 -171 53 -171 155c0 107 55 152 212 152h123v57c0 90 -43 121 -138 121c-62 0 -126 -27 -159 -55v72c35 20 105 37 165 37c139 0 192 -52 192 -179v-350h-52zM120 153c0 -69 34 -106 122 -106c97 0 152 61 152 156v49
h-120c-124 0 -154 -31 -154 -99z" />
    <glyph glyph-name="afii10066" unicode="&#x431;" horiz-adv-x="602" 
d="M498 765v-68c-26 -10 -62 -14 -171 -25c-137 -14 -195 -45 -202 -285h2c35 83 98 133 206 133c135 0 206 -63 206 -252c0 -190 -84 -277 -233 -277c-165 0 -239 98 -239 312c0 321 60 404 240 429c64 9 150 17 191 33zM308 47c112 0 169 65 169 216
c0 155 -56 202 -161 202c-125 0 -185 -78 -185 -196c0 -156 60 -222 177 -222z" />
    <glyph glyph-name="afii10067" unicode="&#x432;" horiz-adv-x="551" 
d="M95 -1v522c51 3 100 5 174 5c158 0 199 -45 199 -129c0 -62 -25 -104 -99 -122c85 -7 123 -46 123 -125c0 -102 -56 -157 -213 -157c-70 0 -130 3 -184 6zM154 51c45 -3 80 -5 127 -5c121 0 150 33 150 105c0 69 -45 92 -137 92h-140v-192zM154 294h141
c70 0 113 25 113 89c0 62 -25 91 -134 91c-52 0 -82 -1 -120 -3v-177z" />
    <glyph glyph-name="afii10068" unicode="&#x433;" horiz-adv-x="448" 
d="M95 0v520h319v-55h-260v-465h-59z" />
    <glyph glyph-name="afii10069" unicode="&#x434;" horiz-adv-x="584" 
d="M21 -130v186h57c39 75 64 212 67 401l1 63h326v-464h75v-186h-57v130h-412v-130h-57zM412 56v409h-210l-1 -37c-3 -140 -23 -289 -64 -372h275z" />
    <glyph glyph-name="afii10070" unicode="&#x435;" horiz-adv-x="566" 
d="M504 243h-381c0 -133 60 -199 187 -199c67 0 121 24 158 55v-64c-27 -20 -85 -45 -159 -45c-167 0 -247 84 -247 277c0 178 85 262 228 262c160 0 214 -95 214 -250v-36zM290 476c-106 0 -164 -59 -167 -181h321c0 108 -35 181 -154 181z" />
    <glyph glyph-name="afii10072" unicode="&#x436;" horiz-adv-x="752" 
d="M101 0h-70l186 269l-174 251h68l155 -229h80v229h59v-229h81l157 229h66l-174 -249l185 -271h-70l-165 244h-80v-244h-59v244h-77z" />
    <glyph glyph-name="afii10073" unicode="&#x437;" horiz-adv-x="500" 
d="M57 24v76c34 -28 95 -56 180 -56c98 0 142 34 142 104c0 61 -36 94 -145 94h-80v48h86c84 0 116 39 116 98s-29 88 -128 88c-72 0 -119 -21 -159 -51v73c39 17 90 31 165 31c138 0 183 -47 183 -126c0 -75 -30 -116 -99 -131c78 -4 121 -45 121 -120
c0 -105 -62 -162 -215 -162c-56 0 -124 12 -167 34z" />
    <glyph glyph-name="afii10074" unicode="&#x438;" horiz-adv-x="608" 
d="M95 0v520h59v-331c0 -31 -2 -90 -4 -103l3 -1c12 21 43 65 58 85l249 350h53v-520h-59v311c0 38 2 106 3 125h-2c-8 -15 -40 -64 -55 -84l-252 -352h-53z" />
    <glyph glyph-name="afii10075" unicode="&#x439;" horiz-adv-x="608" 
d="M95 0v520h59v-331c0 -31 -2 -90 -4 -103l3 -1c12 21 43 65 58 85l249 350h53v-520h-59v311c0 38 2 106 3 125h-2c-8 -15 -40 -64 -55 -84l-252 -352h-53zM304 615c-85 0 -137 47 -145 130h56c5 -55 34 -84 89 -84s84 29 91 84h54c-8 -83 -60 -130 -145 -130z" />
    <glyph glyph-name="afii10076" unicode="&#x43a;" horiz-adv-x="549" 
d="M447 0l-220 244h-73v-244h-59v520h59v-229h73l207 229h71l-227 -248l244 -272h-75z" />
    <glyph glyph-name="afii10077" unicode="&#x43b;" horiz-adv-x="586" 
d="M27 -5v72c8 -4 16 -5 25 -5c59 0 96 61 101 399l1 59h337v-520h-60v464h-222l-1 -38c-6 -345 -58 -435 -150 -435c-12 0 -20 0 -31 4z" />
    <glyph glyph-name="afii10078" unicode="&#x43c;" horiz-adv-x="691" 
d="M95 0v520h78l176 -331l171 331h76v-520h-59v340c0 30 4 93 6 123c-15 -33 -44 -97 -55 -117l-120 -218h-45l-117 219c-12 21 -42 83 -58 116c3 -30 6 -94 6 -125v-338h-59z" />
    <glyph glyph-name="afii10079" unicode="&#x43d;" horiz-adv-x="604" 
d="M95 0v520h59v-227h296v227h60v-520h-60v237h-296v-237h-59z" />
    <glyph glyph-name="afii10080" unicode="&#x43e;" horiz-adv-x="596" 
d="M62 261c0 174 86 268 241 268c154 0 230 -88 230 -269c0 -182 -88 -270 -235 -270c-161 0 -236 99 -236 271zM122 263v-3c0 -141 57 -216 179 -216c116 0 172 70 172 217v3c0 141 -52 212 -175 212c-119 0 -176 -73 -176 -213z" />
    <glyph glyph-name="afii10081" unicode="&#x43f;" horiz-adv-x="595" 
d="M95 0v520h405v-520h-60v465h-286v-465h-59z" />
    <glyph glyph-name="afii10082" unicode="&#x440;" horiz-adv-x="612" 
d="M94 -180v700h52l6 -106c28 82 96 115 192 115c139 0 205 -76 205 -259c0 -194 -70 -280 -216 -280c-92 0 -153 40 -180 108v-278h-59zM153 224c0 -96 52 -180 169 -180c121 0 167 71 167 223c0 149 -49 208 -163 208c-112 0 -173 -66 -173 -176v-75z" />
    <glyph glyph-name="afii10083" unicode="&#x441;" horiz-adv-x="511" 
d="M442 504v-68c-29 19 -81 37 -135 37c-121 0 -183 -63 -183 -208c0 -151 65 -218 196 -218c48 0 106 17 135 41v-66c-26 -17 -82 -32 -146 -32c-166 0 -247 88 -247 277c0 172 80 262 248 262c60 0 105 -13 132 -25z" />
    <glyph glyph-name="afii10084" unicode="&#x442;" horiz-adv-x="461" 
d="M201 0v465h-176v55h410v-55h-175v-465h-59z" />
    <glyph glyph-name="afii10085" unicode="&#x443;" horiz-adv-x="525" 
d="M155 -131c54 0 70 45 99 128l-220 523h67l184 -448l151 448h63l-193 -534c-53 -149 -92 -173 -153 -173c-22 0 -38 3 -50 9v62c13 -9 29 -15 52 -15z" />
    <glyph glyph-name="afii10086" unicode="&#x444;" horiz-adv-x="731" 
d="M395 -180h-59v177c-17 -5 -34 -5 -54 -5c-157 0 -220 80 -220 267c0 172 59 267 231 267c17 0 31 0 43 -3v227h59v-228c17 3 31 5 53 5c157 0 221 -77 221 -265c0 -182 -67 -270 -230 -270c-15 0 -30 1 -44 3v-175zM288 45c26 0 37 0 48 2v423c-11 2 -23 4 -39 4
c-131 0 -175 -70 -175 -211c0 -143 37 -218 166 -218zM395 47c14 -1 23 -2 38 -2c132 0 176 70 176 213c0 153 -41 216 -172 216c-19 0 -28 -1 -42 -3v-424z" />
    <glyph glyph-name="afii10087" unicode="&#x445;" horiz-adv-x="510" 
d="M29 0l189 270l-174 250h73l140 -206l140 206h69l-175 -247l190 -273h-73l-155 227l-155 -227h-69z" />
    <glyph glyph-name="afii10088" unicode="&#x446;" horiz-adv-x="606" 
d="M95 0v520h59v-464h281v464h59v-464h75v-186h-57v130h-417z" />
    <glyph glyph-name="afii10089" unicode="&#x447;" horiz-adv-x="546" 
d="M69 339v181h59v-173c0 -73 37 -106 129 -106c55 0 104 10 135 22v257h59v-520h-59v212c-27 -12 -83 -25 -139 -25c-119 0 -184 41 -184 152z" />
    <glyph glyph-name="afii10090" unicode="&#x448;" horiz-adv-x="794" 
d="M95 0v520h59v-464h214v464h59v-464h214v464h59v-520h-605z" />
    <glyph glyph-name="afii10091" unicode="&#x449;" horiz-adv-x="811" 
d="M95 0v520h59v-464h214v464h59v-464h214v464h59v-464h74v-186h-57v130h-622z" />
    <glyph glyph-name="afii10092" unicode="&#x44a;" horiz-adv-x="585" 
d="M152 0v465h-127v55h187v-186c40 3 69 4 114 4c143 0 209 -39 209 -167c0 -120 -60 -177 -224 -177c-57 0 -107 2 -159 6zM212 52c39 -4 64 -4 106 -4c117 0 157 31 157 122c0 92 -42 118 -167 118c-35 0 -59 -2 -96 -5v-231z" />
    <glyph glyph-name="afii10093" unicode="&#x44b;" horiz-adv-x="701" 
d="M154 334c35 3 58 4 92 4c157 0 212 -46 212 -167c0 -109 -61 -177 -223 -177c-46 0 -88 1 -140 6v520h59v-186zM154 52c34 -3 53 -4 86 -4c117 0 158 39 158 122c0 84 -36 118 -161 118c-32 0 -51 -1 -83 -5v-231zM547 0v520h59v-520h-59z" />
    <glyph glyph-name="afii10094" unicode="&#x44c;" horiz-adv-x="527" 
d="M95 0v520h59v-186c40 3 64 4 108 4c152 0 214 -39 214 -167c0 -120 -67 -177 -219 -177c-65 0 -111 2 -162 6zM154 52c39 -4 59 -4 108 -4c107 0 155 31 155 122c0 92 -40 118 -171 118c-36 0 -55 -1 -92 -5v-231z" />
    <glyph glyph-name="afii10095" unicode="&#x44d;" horiz-adv-x="528" 
d="M218 44c129 0 182 56 187 198h-259v49h259c-5 123 -51 185 -192 185c-67 0 -111 -22 -148 -48v71c32 16 84 30 151 30c172 0 249 -83 249 -260c0 -189 -73 -279 -246 -279c-78 0 -127 18 -157 31v73c30 -24 88 -50 156 -50z" />
    <glyph glyph-name="afii10096" unicode="&#x44e;" horiz-adv-x="788" 
d="M500 529c147 0 225 -72 225 -269s-83 -270 -228 -270c-150 0 -221 85 -226 249h-117v-239h-59v520h59v-227h118c8 144 67 236 228 236zM330 260c0 -149 53 -215 167 -215c105 0 167 51 167 214c0 161 -47 216 -170 216c-117 0 -164 -57 -164 -215z" />
    <glyph glyph-name="afii10097" unicode="&#x44f;" horiz-adv-x="558" 
d="M46 0l147 208c-84 13 -116 68 -116 152c0 110 59 165 226 165c53 0 113 -2 160 -6v-519h-59v198h-150l-139 -198h-69zM404 247v221c-34 3 -64 4 -105 4c-122 0 -162 -29 -162 -114c0 -90 54 -111 142 -111h125z" />
    <glyph glyph-name="afii10071" unicode="&#x451;" horiz-adv-x="566" 
d="M504 243h-381c0 -133 60 -199 187 -199c67 0 121 24 158 55v-64c-27 -20 -85 -45 -159 -45c-167 0 -247 84 -247 277c0 178 85 262 228 262c160 0 214 -95 214 -250v-36zM290 476c-106 0 -164 -59 -167 -181h321c0 108 -35 181 -154 181zM210 638c-27 0 -42 15 -42 42
s15 42 42 42s42 -15 42 -42s-15 -42 -42 -42zM366 638c-27 0 -42 15 -42 42s15 42 42 42s42 -15 42 -42s-15 -42 -42 -42z" />
    <glyph glyph-name="afii10099" unicode="&#x452;" horiz-adv-x="593" 
d="M393 600h-231v-216c23 71 87 110 182 110c133 0 182 -57 182 -189v-50c0 -167 -36 -337 -182 -427l-39 30c125 81 162 202 162 390v47c0 109 -41 146 -145 146c-112 0 -160 -60 -160 -160v-281h-59v600h-83v46h83v104h59v-104h231v-46z" />
    <glyph glyph-name="afii10100" unicode="&#x453;" horiz-adv-x="448" 
d="M95 0v520h319v-55h-260v-465h-59zM223 615l76 130h84l-106 -130h-54z" />
    <glyph glyph-name="afii10101" unicode="&#x454;" horiz-adv-x="528" 
d="M310 44c68 0 126 26 156 50v-73c-30 -13 -79 -31 -157 -31c-173 0 -246 90 -246 279c0 177 77 260 249 260c67 0 119 -14 151 -30v-71c-37 26 -81 48 -148 48c-141 0 -187 -62 -192 -185h259v-49h-259c5 -142 58 -198 187 -198z" />
    <glyph glyph-name="afii10102" unicode="&#x455;" horiz-adv-x="472" 
d="M382 502v-74c-34 28 -75 48 -133 48c-86 0 -120 -26 -120 -82c0 -145 279 -47 279 -249c0 -104 -62 -155 -187 -155c-67 0 -120 15 -156 36v76c36 -35 100 -58 157 -58c85 0 126 31 126 98c0 146 -279 56 -279 247c0 81 40 140 179 140c64 0 111 -15 134 -27z" />
    <glyph glyph-name="afii10103" unicode="&#x456;" horiz-adv-x="276" 
d="M109 0v520h59v-520h-59zM138 638c-27 0 -42 15 -42 42s15 42 42 42s42 -15 42 -42s-15 -42 -42 -42z" />
    <glyph glyph-name="afii10104" unicode="&#x457;" horiz-adv-x="276" 
d="M109 0v520h59v-520h-59zM60 638c-27 0 -42 15 -42 42s15 42 42 42s42 -15 42 -42s-15 -42 -42 -42zM216 638c-27 0 -42 15 -42 42s15 42 42 42s42 -15 42 -42s-15 -42 -42 -42z" />
    <glyph glyph-name="afii10105" unicode="&#x458;" horiz-adv-x="260" 
d="M100 -35v555h59v-551c0 -94 -31 -154 -131 -154c-30 0 -55 5 -69 10v66c18 -12 41 -19 68 -19c48 0 73 21 73 93zM130 638c-27 0 -42 15 -42 42s15 42 42 42s42 -15 42 -42s-15 -42 -42 -42z" />
    <glyph glyph-name="afii10106" unicode="&#x459;" horiz-adv-x="864" 
d="M27 -5v72c8 -4 16 -5 25 -5c59 0 96 61 101 399l1 59h337v-202c40 4 64 5 108 5c152 0 214 -38 214 -159c0 -115 -67 -170 -219 -170c-66 0 -111 2 -163 6v463h-222l-1 -38c-7 -344 -58 -434 -150 -434c-12 0 -20 0 -31 4zM491 52c39 -4 59 -4 108 -4
c107 0 154 29 154 115c0 85 -39 110 -171 110c-35 0 -54 -2 -91 -5v-216z" />
    <glyph glyph-name="afii10107" unicode="&#x45a;" horiz-adv-x="883" 
d="M95 0v520h59v-227h296v227h60v-202c40 4 64 5 108 5c152 0 214 -38 214 -159c0 -115 -67 -170 -219 -170c-66 0 -111 2 -163 6v237h-296v-237h-59zM510 52c39 -4 59 -4 108 -4c107 0 154 29 154 115c0 85 -39 110 -171 110c-35 0 -54 -2 -91 -5v-216z" />
    <glyph glyph-name="afii10108" unicode="&#x45b;" horiz-adv-x="615" 
d="M103 0v600h-83v46h83v104h59v-104h231v-46h-231v-216c23 71 87 110 182 110c133 0 182 -57 182 -189v-305h-59v295c0 109 -41 146 -145 146c-112 0 -160 -60 -160 -160v-281h-59z" />
    <glyph glyph-name="afii10109" unicode="&#x45c;" horiz-adv-x="549" 
d="M447 0l-220 244h-73v-244h-59v520h59v-229h73l207 229h71l-227 -248l244 -272h-75zM258 615l76 130h84l-106 -130h-54z" />
    <glyph glyph-name="afii10110" unicode="&#x45e;" horiz-adv-x="525" 
d="M155 -131c54 0 70 45 99 128l-220 523h67l184 -448l151 448h63l-193 -534c-53 -149 -92 -173 -153 -173c-22 0 -38 3 -50 9v62c13 -9 29 -15 52 -15zM266 615c-85 0 -137 47 -145 130h56c5 -55 34 -84 89 -84s84 29 91 84h54c-8 -83 -60 -130 -145 -130z" />
    <glyph glyph-name="afii10193" unicode="&#x45f;" horiz-adv-x="589" 
d="M266 -130v130h-171v520h59v-464h281v464h59v-520h-171v-130h-57z" />
    <glyph glyph-name="afii10050" unicode="&#x490;" horiz-adv-x="543" 
d="M110 0v700h332v135h60v-193h-329v-642h-63z" />
    <glyph glyph-name="afii10098" unicode="&#x491;" horiz-adv-x="448" 
d="M95 0v520h263v126h56v-181h-260v-465h-59z" />
    <glyph glyph-name="uni0492" unicode="&#x492;" horiz-adv-x="582" 
d="M38 338v60h111v302h392v-58h-329v-244h217v-60h-217v-338h-63v338h-111z" />
    <glyph glyph-name="uni0493" unicode="&#x493;" horiz-adv-x="469" 
d="M115 0v233h-84v53h84v234h320v-55h-260v-179h160v-53h-160v-233h-60z" />
    <glyph glyph-name="uni049A" unicode="&#x49a;" horiz-adv-x="678" 
d="M110 0v700h63v-313h53l312 313h83l-342 -336l309 -307h75v-187h-60v130h-41l-337 336h-52v-336h-63z" />
    <glyph glyph-name="uni049B" unicode="&#x49b;" horiz-adv-x="555" 
d="M447 0l-220 244h-73v-244h-59v520h59v-229h73l207 229h71l-227 -248l194 -216h67v-186h-56v130h-36z" />
    <glyph glyph-name="uni04A2" unicode="&#x4a2;" horiz-adv-x="777" 
d="M110 0v700h63v-311h414v311h63v-642h83v-188h-60v130h-86v331h-414v-331h-63z" />
    <glyph glyph-name="uni04A3" unicode="&#x4a3;" horiz-adv-x="622" 
d="M95 0v520h59v-227h296v227h60v-464h74v-186h-56v130h-78v237h-296v-237h-59z" />
    <glyph glyph-name="uni04AE" unicode="&#x4ae;" horiz-adv-x="597" 
d="M267 0v280l-243 420h71l206 -358l202 358h70l-242 -420v-280h-64z" />
    <glyph glyph-name="uni04AF" unicode="&#x4af;" horiz-adv-x="509" 
d="M225 -6l-194 526h65l160 -441l159 441h62l-193 -525v-205h-59v204z" />
    <glyph glyph-name="uni04B0" unicode="&#x4b0;" horiz-adv-x="597" 
d="M98 247v56h155l-229 397h71l206 -358l202 358h70l-229 -397h156v-56h-169v-247h-64v247h-169z" />
    <glyph glyph-name="uni04B1" unicode="&#x4b1;" horiz-adv-x="509" 
d="M425 -53h-141v-157h-59v157h-141v53h139l-192 520h65l160 -441l159 441h62l-191 -520h139v-53z" />
    <glyph glyph-name="uni04BA" unicode="&#x4ba;" horiz-adv-x="647" 
d="M113 0v700h63v-299c40 20 99 41 188 41c138 0 210 -56 210 -180v-262h-64v235c0 91 -32 150 -159 150c-71 0 -136 -17 -175 -38v-347h-63z" />
    <glyph glyph-name="uni04BB" unicode="&#x4bb;" horiz-adv-x="606" 
d="M95 0v750h59v-331c22 71 87 110 181 110c134 0 183 -57 183 -189v-340h-60v330c0 109 -41 146 -144 146c-112 0 -160 -60 -160 -160v-316h-59z" />
    <glyph glyph-name="uni04C0" unicode="&#x4c0;" horiz-adv-x="294" 
d="M115 0v700h63v-700h-63z" />
    <glyph glyph-name="uni04CF" unicode="&#x4cf;" horiz-adv-x="249" 
d="M154 0h-59v750h59v-750z" />
    <glyph glyph-name="uni04D8" unicode="&#x4d8;" horiz-adv-x="696" 
d="M68 372h488c0 131 -44 278 -252 278c-63 0 -123 -9 -173 -28v60c52 16 108 27 179 27c212 0 315 -125 315 -357c0 -184 -72 -361 -284 -361c-167 0 -273 103 -273 337v44zM136 300c2 -167 68 -250 205 -250c116 0 209 77 215 263h-420v-13z" />
    <glyph glyph-name="afii10846" unicode="&#x4d9;" horiz-adv-x="566" 
d="M61 276h382c-1 134 -60 199 -187 199c-67 0 -121 -24 -158 -55v65c27 20 85 44 159 44c167 0 246 -84 246 -276c0 -178 -84 -263 -227 -263c-160 0 -215 96 -215 251v35zM276 44c106 0 164 59 167 181h-321c-1 -108 35 -181 154 -181z" />
    <glyph glyph-name="uni04E8" unicode="&#x4e8;" horiz-adv-x="760" 
d="M71 350c0 241 106 360 313 360c213 0 304 -121 304 -360c0 -255 -114 -360 -309 -360c-192 0 -308 110 -308 360zM383 48c149 0 232 80 238 275h-483c7 -192 92 -275 245 -275zM378 652c-154 0 -231 -92 -239 -270h482c-8 189 -85 270 -243 270z" />
    <glyph glyph-name="uni04E9" unicode="&#x4e9;" horiz-adv-x="596" 
d="M62 261c0 174 86 268 241 268c154 0 230 -88 230 -269c0 -182 -88 -270 -235 -270c-161 0 -236 99 -236 271zM301 44c109 0 165 61 171 191h-350c7 -125 64 -191 179 -191zM298 476c-112 0 -169 -65 -176 -188h350c-6 125 -58 188 -174 188z" />
    <glyph glyph-name="uni1E9E" unicode="&#x1e9e;" horiz-adv-x="680" 
d="M110 0v476c0 154 88 233 229 233c81 0 162 -26 223 -106l-164 -197v-1c181 -7 211 -113 211 -195c0 -127 -82 -219 -235 -219c-26 0 -53 2 -77 7v61c28 -7 55 -9 75 -9c109 0 170 52 170 160c0 97 -54 146 -193 146h-25v35l159 195c-26 40 -79 64 -143 64
c-127 0 -167 -85 -167 -179v-471h-63z" />
    <glyph glyph-name="figuredash" unicode="&#x2012;" horiz-adv-x="717" 
d="M109 325v58h499v-58h-499z" />
    <glyph glyph-name="endash" unicode="&#x2013;" horiz-adv-x="717" 
d="M109 262v58h499v-58h-499z" />
    <glyph glyph-name="emdash" unicode="&#x2014;" horiz-adv-x="887" 
d="M109 262v58h669v-58h-669z" />
    <glyph glyph-name="quoteleft" unicode="&#x2018;" horiz-adv-x="313" 
d="M252 685c-56 -15 -90 -49 -98 -97c35 0 55 -13 55 -49c0 -27 -15 -50 -51 -50c-37 0 -58 25 -58 73c0 78 51 140 113 163z" />
    <glyph glyph-name="quoteright" unicode="&#x2019;" horiz-adv-x="313" 
d="M61 529c56 15 90 49 98 97c-35 0 -55 13 -55 49c0 27 15 50 51 50c37 0 58 -25 58 -73c0 -78 -51 -140 -113 -163z" />
    <glyph glyph-name="quotesinglbase" unicode="&#x201a;" horiz-adv-x="324" 
d="M61 -106c56 15 90 49 98 97c-35 0 -55 13 -55 49c0 27 15 50 51 50c37 0 58 -25 58 -73c0 -78 -51 -140 -113 -163z" />
    <glyph glyph-name="quotedblleft" unicode="&#x201c;" horiz-adv-x="489" 
d="M252 685c-56 -15 -90 -49 -98 -97c35 0 55 -13 55 -49c0 -27 -15 -50 -51 -50c-37 0 -58 25 -58 73c0 78 51 140 113 163zM428 685c-56 -15 -90 -49 -98 -97c35 0 55 -13 55 -49c0 -27 -15 -50 -51 -50c-37 0 -58 25 -58 73c0 78 51 140 113 163z" />
    <glyph glyph-name="quotedblright" unicode="&#x201d;" horiz-adv-x="488" 
d="M61 529c56 15 90 49 98 97c-35 0 -55 13 -55 49c0 27 15 50 51 50c37 0 58 -25 58 -73c0 -78 -51 -140 -113 -163zM236 529c56 15 90 49 98 97c-35 0 -55 13 -55 49c0 27 15 50 51 50c37 0 58 -25 58 -73c0 -78 -51 -140 -113 -163z" />
    <glyph glyph-name="quotedblbase" unicode="&#x201e;" horiz-adv-x="499" 
d="M236 -106c56 15 90 49 98 97c-35 0 -55 13 -55 49c0 27 15 50 51 50c37 0 58 -25 58 -73c0 -78 -51 -140 -113 -163zM61 -106c56 15 90 49 98 97c-35 0 -55 13 -55 49c0 27 15 50 51 50c37 0 58 -25 58 -73c0 -78 -51 -140 -113 -163z" />
    <glyph glyph-name="dagger" unicode="&#x2020;" horiz-adv-x="522" 
d="M230 0v468h-172v52h172v180h63v-180h172v-52h-172v-468h-63z" />
    <glyph glyph-name="daggerdbl" unicode="&#x2021;" horiz-adv-x="522" 
d="M58 180v52h172v236h-172v52h172v180h63v-180h172v-52h-172v-236h172v-52h-172v-180h-63v180h-172z" />
    <glyph glyph-name="bullet" unicode="&#x2022;" horiz-adv-x="368" 
d="M93 354c0 50 30 91 91 91c62 0 92 -41 92 -91c0 -49 -30 -90 -92 -90c-61 0 -91 41 -91 90z" />
    <glyph glyph-name="ellipsis" unicode="&#x2026;" horiz-adv-x="948" 
d="M103 40c0 29 14 50 51 50c35 0 50 -22 50 -50s-14 -49 -50 -49s-51 21 -51 49zM424 40c0 29 14 50 51 50c35 0 50 -22 50 -50s-14 -49 -50 -49s-51 21 -51 49zM744 40c0 29 14 50 51 50c35 0 50 -22 50 -50s-14 -49 -50 -49s-51 21 -51 49z" />
    <glyph glyph-name="perthousand" unicode="&#x2030;" horiz-adv-x="1222" 
d="M140 0l505 700h60l-503 -700h-62zM457 150c0 99 58 163 163 163c100 0 158 -60 158 -163c0 -101 -60 -164 -165 -164c-101 0 -156 63 -156 164zM508 150c0 -70 40 -114 110 -114c71 0 109 41 109 114c0 71 -36 113 -110 113c-72 0 -109 -43 -109 -113zM843 150
c0 99 59 163 164 163c100 0 158 -60 158 -163c0 -101 -60 -164 -165 -164c-101 0 -157 63 -157 164zM895 150c0 -70 39 -114 110 -114c70 0 108 41 108 114c0 71 -35 113 -109 113c-73 0 -109 -43 -109 -113zM63 547c0 99 59 163 164 163c100 0 158 -60 158 -163
c0 -101 -60 -164 -165 -164c-102 0 -157 63 -157 164zM115 547c0 -70 40 -114 110 -114s108 41 108 114c0 71 -35 113 -109 113c-72 0 -109 -43 -109 -113z" />
    <glyph glyph-name="guilsinglleft" unicode="&#x2039;" horiz-adv-x="355" 
d="M211 59l-138 204l140 207h64l-138 -205l138 -206h-66z" />
    <glyph glyph-name="guilsinglright" unicode="&#x203a;" horiz-adv-x="355" 
d="M78 59l138 206l-138 205h65l139 -204l-141 -207h-63z" />
    <glyph glyph-name="fraction" unicode="&#x2044;" horiz-adv-x="253" 
d="M-161 -11l513 721h61l-511 -721h-63z" />
    <glyph glyph-name="uni2070" unicode="&#x2070;" 
d="M41 592c0 156 71 217 183 217c124 0 185 -61 185 -217c0 -160 -69 -217 -184 -217c-118 0 -184 63 -184 217zM100 592c0 -124 48 -169 128 -169c76 0 121 46 121 169c0 125 -44 169 -125 169c-74 0 -124 -45 -124 -169z" />
    <glyph glyph-name="uni2074" unicode="&#x2074;" 
d="M31 480v46l259 274h71v-271h55v-49h-55v-98h-55v98h-275zM306 529v216h-1l-205 -216h206z" />
    <glyph glyph-name="uni2075" unicode="&#x2075;" 
d="M78 594l12 206h285v-50h-241l-6 -108c29 1 59 4 106 4c100 0 157 -42 157 -127c0 -89 -60 -144 -169 -144c-46 0 -103 4 -146 17v52c58 -20 94 -19 145 -19c68 0 111 30 111 90c0 56 -32 84 -118 84c-50 0 -83 -2 -136 -5z" />
    <glyph glyph-name="uni2076" unicode="&#x2076;" 
d="M229 375c-130 0 -179 83 -179 202c0 131 54 232 202 232c37 0 74 -4 111 -13v-51c-37 13 -79 14 -110 14c-86 0 -149 -48 -153 -162c32 30 84 56 146 56c88 0 158 -35 158 -131c0 -95 -74 -147 -175 -147zM104 552c0 -72 42 -131 126 -131c61 0 115 30 115 100
c0 62 -51 85 -108 85c-49 0 -99 -21 -133 -54z" />
    <glyph glyph-name="uni2077" unicode="&#x2077;" 
d="M137 382l198 368h-284v50h347v-39l-201 -379h-60z" />
    <glyph glyph-name="uni2078" unicode="&#x2078;" 
d="M225 375c-116 0 -182 40 -182 121c0 56 41 96 105 105c-56 12 -93 49 -93 96c0 71 60 112 170 112s170 -41 170 -112c0 -47 -37 -84 -93 -96c64 -9 105 -49 105 -105c0 -81 -66 -121 -182 -121zM225 423c99 0 126 40 126 78c0 43 -36 76 -126 76s-126 -33 -126 -76
c0 -38 27 -78 126 -78zM225 760c-89 0 -116 -29 -116 -68c0 -43 42 -68 116 -68s116 25 116 68c0 39 -27 68 -116 68z" />
    <glyph glyph-name="uni2079" unicode="&#x2079;" 
d="M218 809c136 0 184 -78 184 -194c0 -133 -50 -240 -188 -240c-54 0 -90 7 -133 16v52c44 -13 84 -18 132 -18c78 0 135 53 139 170c-31 -35 -86 -64 -147 -64c-80 0 -152 39 -152 136c0 91 69 142 165 142zM349 642c-2 62 -41 120 -132 120c-55 0 -106 -28 -106 -93
c0 -66 48 -92 102 -92c57 0 105 32 136 65z" />
    <glyph glyph-name="uni2080" unicode="&#x2080;" 
d="M41 111c0 156 71 217 183 217c124 0 185 -61 185 -217c0 -160 -69 -217 -184 -217c-118 0 -184 63 -184 217zM100 111c0 -124 48 -169 128 -169c76 0 121 46 121 169c0 125 -44 169 -125 169c-74 0 -124 -45 -124 -169z" />
    <glyph glyph-name="uni2081" unicode="&#x2081;" 
d="M237 -99v352l-128 -66l-24 45l166 87h46v-418h-60z" />
    <glyph glyph-name="uni2082" unicode="&#x2082;" 
d="M56 -99v54l118 85c91 66 136 107 136 161c0 55 -43 77 -105 77c-48 0 -98 -10 -131 -27v53c43 17 89 24 138 24c91 0 159 -32 159 -116c0 -72 -52 -129 -163 -204l-80 -55v-1h250v-51h-322z" />
    <glyph glyph-name="uni2083" unicode="&#x2083;" 
d="M140 97v43h73c71 0 109 24 109 69c0 51 -38 69 -112 69c-47 0 -99 -6 -132 -21v51c39 16 98 20 149 20c101 0 153 -41 153 -107c0 -58 -42 -85 -105 -99v-2c90 -12 116 -57 116 -100c0 -93 -92 -126 -178 -126c-47 0 -99 3 -142 20v52c36 -17 86 -22 136 -22
c90 0 124 34 124 76c0 55 -40 77 -114 77h-77z" />
    <glyph glyph-name="uni2084" unicode="&#x2084;" 
d="M31 -1v46l259 274h71v-271h55v-49h-55v-98h-55v98h-275zM306 48v216h-1l-205 -216h206z" />
    <glyph glyph-name="uni2085" unicode="&#x2085;" 
d="M78 113l12 206h285v-50h-241l-6 -108c29 1 59 4 106 4c100 0 157 -42 157 -127c0 -89 -60 -144 -169 -144c-46 0 -103 4 -146 17v52c58 -20 94 -19 145 -19c68 0 111 30 111 90c0 56 -32 84 -118 84c-50 0 -83 -2 -136 -5z" />
    <glyph glyph-name="uni2086" unicode="&#x2086;" 
d="M229 -106c-130 0 -179 83 -179 202c0 131 54 232 202 232c37 0 74 -4 111 -13v-51c-37 13 -79 14 -110 14c-86 0 -149 -48 -153 -162c32 30 84 56 146 56c88 0 158 -35 158 -131c0 -95 -74 -147 -175 -147zM104 71c0 -72 42 -131 126 -131c61 0 115 30 115 100
c0 62 -51 85 -108 85c-49 0 -99 -21 -133 -54z" />
    <glyph glyph-name="uni2087" unicode="&#x2087;" 
d="M137 -99l198 368h-284v50h347v-39l-201 -379h-60z" />
    <glyph glyph-name="uni2088" unicode="&#x2088;" 
d="M225 -106c-116 0 -182 40 -182 121c0 56 41 96 105 105c-56 12 -93 49 -93 96c0 71 60 112 170 112s170 -41 170 -112c0 -47 -37 -84 -93 -96c64 -9 105 -49 105 -105c0 -81 -66 -121 -182 -121zM225 -58c99 0 126 40 126 78c0 43 -36 76 -126 76s-126 -33 -126 -76
c0 -38 27 -78 126 -78zM225 279c-89 0 -116 -29 -116 -68c0 -43 42 -68 116 -68s116 25 116 68c0 39 -27 68 -116 68z" />
    <glyph glyph-name="uni2089" unicode="&#x2089;" 
d="M218 328c136 0 184 -78 184 -194c0 -133 -50 -240 -188 -240c-54 0 -90 7 -133 16v52c44 -13 84 -18 132 -18c78 0 135 53 139 170c-31 -35 -86 -64 -147 -64c-80 0 -152 39 -152 136c0 91 69 142 165 142zM349 161c-2 62 -41 120 -132 120c-55 0 -106 -28 -106 -93
c0 -66 48 -92 102 -92c57 0 105 32 136 65z" />
    <glyph glyph-name="Euro" unicode="&#x20ac;" horiz-adv-x="580" 
d="M376 709c66 0 109 -11 139 -22v-67c-36 16 -81 31 -141 31c-117 0 -184 -59 -206 -195h291l-12 -52h-287c-1 -16 -2 -33 -2 -50c0 -20 0 -38 2 -55h264l-11 -52h-245c26 -139 101 -198 212 -198c55 0 113 17 146 34v-61c-33 -16 -89 -31 -150 -31
c-148 0 -244 81 -271 256h-74l12 52h55c-1 15 -1 31 -1 47c0 20 1 39 2 58h-65l11 52h62c28 173 119 253 269 253z" />
    <glyph glyph-name="uni20B4" unicode="&#x20b4;" horiz-adv-x="608" 
d="M94 270v42h113c17 16 84 72 101 88h-214v42h259c55 44 81 84 81 126c0 67 -59 82 -113 82c-61 0 -96 -6 -157 -26v61c54 17 121 24 157 24c152 0 180 -70 180 -133c0 -52 -28 -95 -72 -134h86v-42h-125c-17 -16 -87 -72 -104 -88h229v-42h-268c-45 -37 -59 -80 -59 -116
c0 -56 40 -104 151 -104c40 0 98 4 145 26v-61c-55 -19 -115 -24 -153 -24c-154 0 -210 78 -210 156c0 51 18 90 51 123h-78z" />
    <glyph glyph-name="uni20B8" unicode="&#x20b8;" horiz-adv-x="603" 
d="M271 0v524h-213v53h488v-53h-212v-524h-63zM58 647v53h488v-53h-488z" />
    <glyph glyph-name="uni20BD" unicode="&#x20bd;" horiz-adv-x="585" 
d="M283 302h-96v-95h208v-55h-208v-152h-61v152h-79v55h79v95h-79v55h79v340c50 4 104 9 166 9c155 0 233 -54 233 -191c0 -146 -64 -213 -242 -213zM287 646c-39 0 -65 -2 -100 -5v-284h91c140 0 183 47 183 149c0 88 -30 140 -174 140z" />
    <glyph glyph-name="afii61352" unicode="&#x2116;" horiz-adv-x="1055" 
d="M104 0v700h66l324 -495c11 -17 52 -81 59 -95c-1 16 -1 82 -1 103v487h63v-700h-64l-321 492c-11 18 -54 88 -66 110c2 -19 3 -80 3 -103v-499h-63zM723 246v57h260v-57h-260zM708 547c0 103 51 163 141 163s144 -58 144 -163c0 -106 -53 -165 -140 -165
c-93 0 -145 59 -145 165zM761 547c0 -73 33 -114 91 -114c56 0 88 38 88 114c0 71 -30 113 -89 113c-60 0 -90 -42 -90 -113z" />
    <glyph glyph-name="uni2120" unicode="&#x2120;" horiz-adv-x="853" 
d="M416 376v324h55l110 -190h1l109 190h55v-324h-46v255l-104 -176h-30l-103 176h-1v-255h-46zM321 691v-51c-23 15 -56 26 -96 26c-65 0 -88 -15 -88 -45c0 -82 203 -25 203 -149c0 -68 -41 -103 -140 -103c-39 0 -83 6 -110 19v54c24 -19 69 -30 111 -30c63 0 91 17 91 57
c0 82 -202 28 -202 151c0 49 27 87 136 87c40 0 78 -9 95 -16z" />
    <glyph glyph-name="trademark" unicode="&#x2122;" horiz-adv-x="806" 
d="M369 376v324h56l110 -190l109 190h56v-324h-47v255l-104 -176h-30l-102 176h-1v-255h-47zM154 376v280h-106v44h262v-44h-107v-280h-49z" />
    <glyph glyph-name="onethird" unicode="&#x2153;" horiz-adv-x="950" 
d="M143 -11l513 721h61l-511 -721h-63zM211 282v352l-128 -66l-24 45l166 87h46v-418h-60zM645 197v43h73c71 0 109 24 109 69c0 51 -38 69 -112 69c-47 0 -99 -6 -132 -21v51c39 16 98 20 149 20c101 0 153 -41 153 -107c0 -58 -42 -85 -105 -99v-2
c90 -12 116 -57 116 -100c0 -93 -92 -126 -178 -126c-47 0 -99 3 -142 20v52c36 -17 86 -22 136 -22c90 0 124 34 124 76c0 55 -40 77 -114 77h-77z" />
    <glyph glyph-name="twothirds" unicode="&#x2154;" horiz-adv-x="950" 
d="M193 -11l513 721h61l-511 -721h-63zM35 282v54l118 85c91 66 136 107 136 161c0 55 -43 77 -105 77c-48 0 -98 -10 -131 -27v53c43 17 89 24 138 24c91 0 159 -32 159 -116c0 -72 -52 -129 -163 -204l-80 -55v-1h250v-51h-322zM664 197v43h73c71 0 109 24 109 69
c0 51 -38 69 -112 69c-47 0 -99 -6 -132 -21v51c39 16 98 20 149 20c101 0 153 -41 153 -107c0 -58 -42 -85 -105 -99v-2c90 -12 116 -57 116 -100c0 -93 -92 -126 -178 -126c-47 0 -99 3 -142 20v52c36 -17 86 -22 136 -22c90 0 124 34 124 76c0 55 -40 77 -114 77h-77z
" />
    <glyph glyph-name="oneeighth" unicode="&#x215b;" horiz-adv-x="950" 
d="M139 -11l513 721h61l-511 -721h-63zM209 282v352l-128 -66l-24 45l166 87h46v-418h-60zM724 -6c-116 0 -182 40 -182 121c0 56 41 96 105 105c-56 12 -93 49 -93 96c0 71 60 112 170 112s170 -41 170 -112c0 -47 -37 -84 -93 -96c64 -9 105 -49 105 -105
c0 -81 -66 -121 -182 -121zM724 42c99 0 126 40 126 78c0 43 -36 76 -126 76s-126 -33 -126 -76c0 -38 27 -78 126 -78zM724 379c-89 0 -116 -29 -116 -68c0 -43 42 -68 116 -68s116 25 116 68c0 39 -27 68 -116 68z" />
    <glyph glyph-name="threeeighths" unicode="&#x215c;" horiz-adv-x="950" 
d="M172 -11l513 721h61l-511 -721h-63zM731 -6c-116 0 -182 40 -182 121c0 56 41 96 105 105c-56 12 -93 49 -93 96c0 71 60 112 170 112s170 -41 170 -112c0 -47 -37 -84 -93 -96c64 -9 105 -49 105 -105c0 -81 -66 -121 -182 -121zM731 42c99 0 126 40 126 78
c0 43 -36 76 -126 76s-126 -33 -126 -76c0 -38 27 -78 126 -78zM731 379c-89 0 -116 -29 -116 -68c0 -43 42 -68 116 -68s116 25 116 68c0 39 -27 68 -116 68zM125 478v43h73c71 0 109 24 109 69c0 51 -38 69 -112 69c-47 0 -99 -6 -132 -21v51c39 16 98 20 149 20
c101 0 153 -41 153 -107c0 -58 -42 -85 -105 -99v-2c90 -12 116 -57 116 -100c0 -93 -92 -126 -178 -126c-47 0 -99 3 -142 20v52c36 -17 86 -22 136 -22c90 0 124 34 124 76c0 55 -40 77 -114 77h-77z" />
    <glyph glyph-name="fiveeighths" unicode="&#x215d;" horiz-adv-x="950" 
d="M174 -11l513 721h61l-511 -721h-63zM67 494l12 206h285v-50h-241l-6 -108c29 1 59 4 106 4c100 0 157 -42 157 -127c0 -89 -60 -144 -169 -144c-46 0 -103 4 -146 17v52c58 -20 94 -19 145 -19c68 0 111 30 111 90c0 56 -32 84 -118 84c-50 0 -83 -2 -136 -5zM734 -6
c-116 0 -182 40 -182 121c0 56 41 96 105 105c-56 12 -93 49 -93 96c0 71 60 112 170 112s170 -41 170 -112c0 -47 -37 -84 -93 -96c64 -9 105 -49 105 -105c0 -81 -66 -121 -182 -121zM734 42c99 0 126 40 126 78c0 43 -36 76 -126 76s-126 -33 -126 -76
c0 -38 27 -78 126 -78zM734 379c-89 0 -116 -29 -116 -68c0 -43 42 -68 116 -68s116 25 116 68c0 39 -27 68 -116 68z" />
    <glyph glyph-name="seveneighths" unicode="&#x215e;" horiz-adv-x="950" 
d="M133 -11l513 721h61l-511 -721h-63zM723 -6c-116 0 -182 40 -182 121c0 56 41 96 105 105c-56 12 -93 49 -93 96c0 71 60 112 170 112s170 -41 170 -112c0 -47 -37 -84 -93 -96c64 -9 105 -49 105 -105c0 -81 -66 -121 -182 -121zM723 42c99 0 126 40 126 78
c0 43 -36 76 -126 76s-126 -33 -126 -76c0 -38 27 -78 126 -78zM723 379c-89 0 -116 -29 -116 -68c0 -43 42 -68 116 -68s116 25 116 68c0 39 -27 68 -116 68zM149 282l198 368h-284v50h347v-39l-201 -379h-60z" />
    <glyph glyph-name="minus" unicode="&#x2212;" horiz-adv-x="570" 
d="M68 295v57h434v-57h-434z" />
    <glyph glyph-name="infinity" unicode="&#x221e;" horiz-adv-x="703" 
d="M407 259l-55 55l-56 -56c-37 -39 -76 -48 -111 -48c-95 0 -132 75 -132 140c0 63 37 141 132 141c33 0 73 -9 111 -49l56 -56l57 60c35 36 74 45 110 45c93 0 131 -73 131 -141c0 -62 -37 -140 -131 -140c-34 0 -74 9 -112 49zM384 350l54 -54c22 -22 45 -34 77 -34
c61 0 85 44 85 88c0 49 -31 90 -84 90c-32 0 -59 -13 -85 -41zM320 350l-56 55c-21 22 -43 35 -75 35c-62 0 -84 -49 -84 -90c0 -50 30 -88 82 -88c31 0 58 13 84 39z" />
    <glyph glyph-name="approxequal" unicode="&#x2248;" horiz-adv-x="616" 
d="M119 171l-23 48c20 40 62 75 114 75c77 0 135 -65 195 -65c45 0 76 41 92 67l23 -47c-19 -41 -62 -76 -113 -76c-77 0 -134 65 -195 65c-46 0 -77 -43 -93 -67zM119 336l-23 47c20 40 62 76 114 76c77 0 135 -66 195 -66c45 0 76 42 92 68l23 -47
c-19 -41 -62 -76 -113 -76c-77 0 -135 65 -195 65c-46 0 -77 -42 -93 -67z" />
    <glyph glyph-name="notequal" unicode="&#x2260;" horiz-adv-x="590" 
d="M78 400v56h263l60 99h58l-60 -99h113v-56h-146l-88 -146h234v-56h-268l-63 -105h-59l63 105h-107v56h141l88 146h-229z" />
    <glyph glyph-name="lessequal" unicode="&#x2264;" horiz-adv-x="571" 
d="M70 82v57h431v-57h-431zM70 371v50l431 174v-60l-358 -138v-2l358 -138v-61z" />
    <glyph glyph-name="greaterequal" unicode="&#x2265;" horiz-adv-x="571" 
d="M70 82v57h431v-57h-431zM70 196v61l358 138v2l-358 138v60l431 -174v-50z" />
    <glyph glyph-name="lozenge" unicode="&#x25ca;" horiz-adv-x="644" 
d="M322 -9l-246 359l246 359l246 -359zM322 96l175 254l-175 253l-175 -253z" />
    <glyph glyph-name="uniF406" unicode="&#xf406;" horiz-adv-x="697" 
d="M203 892l42 13c16 -50 43 -82 103 -82s87 32 103 82l42 -13c-21 -75 -70 -117 -145 -117s-124 42 -145 117z" />
    <glyph glyph-name="uniF407" unicode="&#xf407;" horiz-adv-x="613" 
d="M284 -93l12 93h42l-8 -54c66 -1 110 -23 110 -84c0 -57 -48 -92 -111 -92c-37 0 -59 6 -78 16l6 39c21 -10 38 -13 66 -13c32 0 62 13 62 50c0 36 -36 48 -67 48c-9 0 -26 0 -34 -3z" />
    <glyph glyph-name="uniF408" unicode="&#xf408;" horiz-adv-x="697" 
d="M188 770l123 140h74l123 -140h-58l-103 100l-103 -100h-56z" />
    <glyph glyph-name="uniF409" unicode="&#xf409;" horiz-adv-x="642" 
d="M270 -207c30 12 56 31 58 68c-34 -4 -57 12 -57 38c0 22 17 41 53 41c30 0 52 -18 52 -61c0 -41 -26 -101 -97 -119z" />
    <glyph glyph-name="uniF40A" unicode="&#xf40a;" horiz-adv-x="180" 
d="M45 520l46 180h64l-66 -180h-44z" />
    <glyph glyph-name="uniF40B" unicode="&#xf40b;" horiz-adv-x="552" 
d="M276 796c-28 0 -44 16 -44 44s16 44 44 44s44 -16 44 -44s-16 -44 -44 -44z" />
    <glyph glyph-name="uniF40C" unicode="&#xf40c;" horiz-adv-x="697" 
d="M256 840c0 54 38 92 92 92s92 -38 92 -92s-38 -92 -92 -92s-92 38 -92 92zM296 840c0 -33 19 -52 52 -52s52 19 52 52s-19 52 -52 52s-52 -19 -52 -52z" />
    <glyph glyph-name="uniF40D" unicode="&#xf40d;" horiz-adv-x="697" 
d="M245 795l-41 11c5 49 38 80 81 80c24 0 43 -11 70 -23c24 -11 42 -22 59 -22s33 11 40 43l40 -11c-7 -52 -43 -79 -79 -79c-20 0 -33 4 -72 23c-23 11 -39 22 -56 22s-34 -10 -42 -44z" />
    <glyph glyph-name="uniF40E" unicode="&#xf40e;" horiz-adv-x="672" 
d="M404 9l36 -6c-49 -36 -87 -84 -87 -136c0 -31 23 -50 61 -50c22 0 44 5 63 17v-45c-22 -11 -49 -19 -81 -19c-65 0 -98 34 -98 88c0 56 42 106 106 151z" />
    <glyph glyph-name="zero.tab" unicode="&#xf4e0;" horiz-adv-x="650" 
d="M88 349c0 260 74 360 241 360c174 0 233 -107 233 -360c0 -269 -74 -359 -237 -359c-169 0 -237 114 -237 359zM151 349c0 -222 50 -303 178 -303c126 0 169 75 169 302c0 234 -41 305 -174 305c-128 0 -173 -78 -173 -304z" />
    <glyph glyph-name="one.tab" unicode="&#xf4e1;" horiz-adv-x="650" 
d="M134 0v58h205v573l-205 -126v64l222 138h43v-649h141v-58h-406z" />
    <glyph glyph-name="two.tab" unicode="&#xf4e2;" horiz-adv-x="650" 
d="M92 0v47c299 273 385 319 385 453c0 103 -55 149 -173 149c-73 0 -144 -29 -192 -64v79c56 29 133 45 203 45c153 0 226 -66 226 -202c0 -152 -94 -222 -356 -449h369v-58h-462z" />
    <glyph glyph-name="three.tab" unicode="&#xf4e3;" horiz-adv-x="650" 
d="M213 332v55h76c120 0 178 52 178 137c0 90 -42 126 -162 126c-95 0 -160 -33 -198 -57v74c46 22 124 42 209 42c156 0 212 -57 213 -172c0 -100 -53 -150 -145 -170c112 -10 170 -66 170 -174c0 -137 -85 -202 -240 -202c-89 0 -171 18 -216 43v81
c42 -31 113 -62 210 -62c152 0 184 58 184 146c0 85 -59 133 -202 133h-77z" />
    <glyph glyph-name="four.tab" unicode="&#xf4e4;" horiz-adv-x="650" 
d="M67 192v45l341 463h74v-450h102v-58h-102v-192h-60v192h-355zM422 250v377l-277 -377h277z" />
    <glyph glyph-name="five.tab" unicode="&#xf4e5;" horiz-adv-x="650" 
d="M117 357l27 343h382v-58h-331l-17 -221c26 3 75 5 136 5c165 0 235 -65 235 -201c0 -146 -68 -234 -257 -234c-69 0 -142 11 -186 31v77c50 -34 121 -47 180 -47c142 0 199 52 199 166c0 110 -52 152 -196 152c-67 0 -131 -5 -172 -13z" />
    <glyph glyph-name="six.tab" unicode="&#xf4e6;" horiz-adv-x="650" 
d="M338 -9c-175 0 -250 107 -250 328c0 280 110 390 297 390c52 0 96 -9 129 -22v-74c-31 20 -70 35 -137 35c-136 0 -231 -80 -231 -300c0 -19 0 -28 1 -38c35 85 104 137 213 137c138 0 207 -81 207 -214c0 -170 -106 -242 -229 -242zM160 264c1 -137 61 -212 182 -212
c95 0 163 53 163 171s-55 166 -161 166c-119 0 -167 -72 -184 -125z" />
    <glyph glyph-name="seven.tab" unicode="&#xf4e7;" horiz-adv-x="650" 
d="M200 0l293 636h-400v64h473v-46l-298 -654h-68z" />
    <glyph glyph-name="eight.tab" unicode="&#xf4e8;" horiz-adv-x="650" 
d="M87 190c0 84 28 156 149 180c-101 17 -133 73 -133 163c0 108 72 178 223 178c152 0 214 -62 214 -163c0 -89 -25 -152 -129 -176c116 -18 151 -82 151 -178c0 -120 -71 -203 -235 -203c-162 0 -240 74 -240 199zM149 199c0 -98 57 -147 179 -147c121 0 173 51 173 145
c0 100 -64 147 -173 145c-136 -3 -179 -59 -179 -143zM164 522c0 -80 51 -134 165 -131c116 3 150 60 150 134c0 87 -41 125 -155 125c-119 0 -160 -50 -160 -128z" />
    <glyph glyph-name="nine.tab" unicode="&#xf4e9;" horiz-adv-x="650" 
d="M315 709c181 0 249 -107 249 -335c0 -273 -110 -383 -297 -383c-52 0 -96 9 -129 22v74c31 -20 70 -35 137 -35c136 0 229 80 231 300c0 19 0 28 -1 38c-32 -88 -101 -137 -210 -137c-138 0 -210 81 -210 214c0 170 107 242 230 242zM494 446c-3 123 -55 202 -183 202
c-96 -1 -163 -53 -164 -171s58 -166 164 -166c122 0 170 73 183 135z" />
    <glyph glyph-name="dollar.tab" unicode="&#xf4ec;" horiz-adv-x="650" 
d="M478 182c0 205 -356 96 -356 347c0 110 58 168 186 178v93h47v-91c68 -1 128 -16 161 -33v-79c-37 32 -103 54 -168 54c-112 0 -160 -32 -160 -115c0 -201 358 -86 358 -350c0 -112 -58 -183 -191 -193v-113h-47v111c-80 2 -151 24 -189 52v88c36 -39 107 -82 192 -82
c122 0 167 48 167 133z" />
    <glyph glyph-name="Euro.tab" unicode="&#xf4ed;" horiz-adv-x="650" 
d="M409 709c66 0 109 -11 139 -22v-67c-36 16 -81 31 -141 31c-117 0 -184 -59 -206 -195h291l-12 -52h-287c-1 -16 -2 -33 -2 -50c0 -20 0 -38 2 -55h264l-11 -52h-245c26 -139 101 -198 212 -198c55 0 113 17 146 34v-61c-33 -16 -89 -31 -150 -31
c-148 0 -244 81 -271 256h-74l12 52h55c-1 15 -1 31 -1 47c0 20 1 39 2 58h-65l11 52h62c28 173 119 253 269 253z" />
    <glyph glyph-name="cent.tab" unicode="&#xf4ee;" horiz-adv-x="650" 
d="M328 -120v114c-143 12 -205 113 -205 270c0 156 68 251 205 262v94h42v-92c53 -2 94 -14 116 -21v-59c-25 12 -68 26 -117 26c-123 0 -182 -70 -182 -204c0 -149 63 -224 189 -224c46 0 96 15 119 29v-59c-23 -10 -69 -23 -125 -24v-112h-42z" />
    <glyph glyph-name="sterling.tab" unicode="&#xf4ef;" horiz-adv-x="650" 
d="M116 0v60h91v291h-91v44h91v82c0 80 22 232 219 232c48 0 92 -8 117 -17v-59c-40 11 -70 18 -119 18c-112 0 -153 -77 -153 -175v-81h187v-44h-187v-291h277v-60h-432z" />
    <glyph glyph-name="yen.tab" unicode="&#xf4fa;" horiz-adv-x="650" 
d="M147 175v43h147v78l-6 10h-141v43h118l-198 351h74l185 -336l184 336h74l-199 -351h119v-43h-142l-4 -10v-78h146v-43h-146v-175h-64v175h-147z" />
    <glyph glyph-name="florin.tab" unicode="&#xf4fb;" horiz-adv-x="650" 
d="M54 -210l13 58c10 -3 18 -4 27 -4c54 0 89 26 108 121l99 491h-99l11 54h98l17 83c22 110 76 165 175 165c18 0 34 -2 57 -6l-11 -55c-10 3 -26 7 -48 7c-69 0 -98 -35 -117 -130l-14 -64h142l-11 -54h-141l-96 -483c-23 -113 -58 -187 -174 -187c-12 0 -24 1 -36 4z" />
    <glyph glyph-name="uni20B4.tab" unicode="&#xf4fc;" horiz-adv-x="650" 
d="M109 270v42h113c17 16 84 72 101 88h-214v42h259c55 44 81 84 81 126c0 67 -59 82 -113 82c-61 0 -96 -6 -157 -26v61c54 17 121 24 157 24c152 0 180 -70 180 -133c0 -52 -28 -95 -72 -134h86v-42h-125c-17 -16 -87 -72 -104 -88h229v-42h-268c-45 -37 -59 -80 -59 -116
c0 -56 40 -104 151 -104c40 0 98 4 145 26v-61c-55 -19 -115 -24 -153 -24c-154 0 -210 78 -210 156c0 51 18 90 51 123h-78z" />
    <glyph glyph-name="uni20BD.tab" unicode="&#xf4fd;" horiz-adv-x="650" 
d="M315 302h-96v-95h208v-55h-208v-152h-61v152h-79v55h79v95h-79v55h79v340c50 4 104 9 166 9c155 0 233 -54 233 -191c0 -146 -64 -213 -242 -213zM319 646c-39 0 -65 -2 -100 -5v-284h91c140 0 183 47 183 149c0 88 -30 140 -174 140z" />
    <glyph glyph-name="uni20B8.tab" unicode="&#xf5f3;" horiz-adv-x="650" 
d="M294 0v524h-213v53h488v-53h-212v-524h-63zM81 647v53h488v-53h-488z" />
    <glyph glyph-name="zero.denominator" unicode="&#xf655;" 
d="M41 210c0 156 71 217 183 217c124 0 185 -61 185 -217c0 -160 -69 -217 -184 -217c-118 0 -184 63 -184 217zM100 210c0 -124 48 -169 128 -169c76 0 121 46 121 169c0 125 -44 169 -125 169c-74 0 -124 -45 -124 -169z" />
    <glyph glyph-name="one.denominator" unicode="&#xf656;" 
d="M237 0v352l-128 -66l-24 45l166 87h46v-418h-60z" />
    <glyph glyph-name="two.denominator" unicode="&#xf657;" 
d="M56 0v54l118 85c91 66 136 107 136 161c0 55 -43 77 -105 77c-48 0 -98 -10 -131 -27v53c43 17 89 24 138 24c91 0 159 -32 159 -116c0 -72 -52 -129 -163 -204l-80 -55v-1h250v-51h-322z" />
    <glyph glyph-name="three.denominator" unicode="&#xf658;" 
d="M140 196v43h73c71 0 109 24 109 69c0 51 -38 69 -112 69c-47 0 -99 -6 -132 -21v51c39 16 98 20 149 20c101 0 153 -41 153 -107c0 -58 -42 -85 -105 -99v-2c90 -12 116 -57 116 -100c0 -93 -92 -126 -178 -126c-47 0 -99 3 -142 20v52c36 -17 86 -22 136 -22
c90 0 124 34 124 76c0 55 -40 77 -114 77h-77z" />
    <glyph glyph-name="four.denominator" unicode="&#xf659;" 
d="M31 98v46l259 274h71v-271h55v-49h-55v-98h-55v98h-275zM306 147v216h-1l-205 -216h206z" />
    <glyph glyph-name="five.denominator" unicode="&#xf65a;" 
d="M78 212l12 206h285v-50h-241l-6 -108c29 1 59 4 106 4c100 0 157 -42 157 -127c0 -89 -60 -144 -169 -144c-46 0 -103 4 -146 17v52c58 -20 94 -19 145 -19c68 0 111 30 111 90c0 56 -32 84 -118 84c-50 0 -83 -2 -136 -5z" />
    <glyph glyph-name="six.denominator" unicode="&#xf65b;" 
d="M229 -7c-130 0 -179 83 -179 202c0 131 54 232 202 232c37 0 74 -4 111 -13v-51c-37 13 -79 14 -110 14c-86 0 -149 -48 -153 -162c32 30 84 56 146 56c88 0 158 -35 158 -131c0 -95 -74 -147 -175 -147zM104 170c0 -72 42 -131 126 -131c61 0 115 30 115 100
c0 62 -51 85 -108 85c-49 0 -99 -21 -133 -54z" />
    <glyph glyph-name="seven.denominator" unicode="&#xf65c;" 
d="M137 0l198 368h-284v50h347v-39l-201 -379h-60z" />
    <glyph glyph-name="eight.denominator" unicode="&#xf65d;" 
d="M225 -7c-116 0 -182 40 -182 121c0 56 41 96 105 105c-56 12 -93 49 -93 96c0 71 60 112 170 112s170 -41 170 -112c0 -47 -37 -84 -93 -96c64 -9 105 -49 105 -105c0 -81 -66 -121 -182 -121zM225 41c99 0 126 40 126 78c0 43 -36 76 -126 76s-126 -33 -126 -76
c0 -38 27 -78 126 -78zM225 378c-89 0 -116 -29 -116 -68c0 -43 42 -68 116 -68s116 25 116 68c0 39 -27 68 -116 68z" />
    <glyph glyph-name="nine.denominator" unicode="&#xf65e;" 
d="M218 427c136 0 184 -78 184 -194c0 -133 -50 -240 -188 -240c-54 0 -90 7 -133 16v52c44 -13 84 -18 132 -18c78 0 135 53 139 170c-31 -35 -86 -64 -147 -64c-80 0 -152 39 -152 136c0 91 69 142 165 142zM349 260c-2 62 -41 120 -132 120c-55 0 -106 -28 -106 -93
c0 -66 48 -92 102 -92c57 0 105 32 136 65z" />
    <glyph glyph-name="zero.numerator" unicode="&#xf661;" 
d="M41 492c0 156 71 217 183 217c124 0 185 -61 185 -217c0 -160 -69 -217 -184 -217c-118 0 -184 63 -184 217zM100 492c0 -124 48 -169 128 -169c76 0 121 46 121 169c0 125 -44 169 -125 169c-74 0 -124 -45 -124 -169z" />
    <glyph glyph-name="one.numerator" unicode="&#xf662;" 
d="M237 282v352l-128 -66l-24 45l166 87h46v-418h-60z" />
    <glyph glyph-name="two.numerator" unicode="&#xf663;" 
d="M56 282v54l118 85c91 66 136 107 136 161c0 55 -43 77 -105 77c-48 0 -98 -10 -131 -27v53c43 17 89 24 138 24c91 0 159 -32 159 -116c0 -72 -52 -129 -163 -204l-80 -55v-1h250v-51h-322z" />
    <glyph glyph-name="three.numerator" unicode="&#xf664;" 
d="M140 478v43h73c71 0 109 24 109 69c0 51 -38 69 -112 69c-47 0 -99 -6 -132 -21v51c39 16 98 20 149 20c101 0 153 -41 153 -107c0 -58 -42 -85 -105 -99v-2c90 -12 116 -57 116 -100c0 -93 -92 -126 -178 -126c-47 0 -99 3 -142 20v52c36 -17 86 -22 136 -22
c90 0 124 34 124 76c0 55 -40 77 -114 77h-77z" />
    <glyph glyph-name="four.numerator" unicode="&#xf665;" 
d="M31 380v46l259 274h71v-271h55v-49h-55v-98h-55v98h-275zM306 429v216h-1l-205 -216h206z" />
    <glyph glyph-name="five.numerator" unicode="&#xf666;" 
d="M78 494l12 206h285v-50h-241l-6 -108c29 1 59 4 106 4c100 0 157 -42 157 -127c0 -89 -60 -144 -169 -144c-46 0 -103 4 -146 17v52c58 -20 94 -19 145 -19c68 0 111 30 111 90c0 56 -32 84 -118 84c-50 0 -83 -2 -136 -5z" />
    <glyph glyph-name="six.numerator" unicode="&#xf667;" 
d="M229 275c-130 0 -179 83 -179 202c0 131 54 232 202 232c37 0 74 -4 111 -13v-51c-37 13 -79 14 -110 14c-86 0 -149 -48 -153 -162c32 30 84 56 146 56c88 0 158 -35 158 -131c0 -95 -74 -147 -175 -147zM104 452c0 -72 42 -131 126 -131c61 0 115 30 115 100
c0 62 -51 85 -108 85c-49 0 -99 -21 -133 -54z" />
    <glyph glyph-name="seven.numerator" unicode="&#xf668;" 
d="M137 282l198 368h-284v50h347v-39l-201 -379h-60z" />
    <glyph glyph-name="eight.numerator" unicode="&#xf669;" 
d="M225 275c-116 0 -182 40 -182 121c0 56 41 96 105 105c-56 12 -93 49 -93 96c0 71 60 112 170 112s170 -41 170 -112c0 -47 -37 -84 -93 -96c64 -9 105 -49 105 -105c0 -81 -66 -121 -182 -121zM225 323c99 0 126 40 126 78c0 43 -36 76 -126 76s-126 -33 -126 -76
c0 -38 27 -78 126 -78zM225 660c-89 0 -116 -29 -116 -68c0 -43 42 -68 116 -68s116 25 116 68c0 39 -27 68 -116 68z" />
    <glyph glyph-name="nine.numerator" unicode="&#xf66a;" 
d="M218 709c136 0 184 -78 184 -194c0 -133 -50 -240 -188 -240c-54 0 -90 7 -133 16v52c44 -13 84 -18 132 -18c78 0 135 53 139 170c-31 -35 -86 -64 -147 -64c-80 0 -152 39 -152 136c0 91 69 142 165 142zM349 542c-2 62 -41 120 -132 120c-55 0 -106 -28 -106 -93
c0 -66 48 -92 102 -92c57 0 105 32 136 65z" />
    <glyph glyph-name="uniF6BA" unicode="&#xf6ba;" horiz-adv-x="468" 
d="M104 325v59h260v-59h-260z" />
    <glyph glyph-name="uniF6BB" unicode="&#xf6bb;" horiz-adv-x="717" 
d="M109 325v58h499v-58h-499z" />
    <glyph glyph-name="uniF6BC" unicode="&#xf6bc;" horiz-adv-x="887" 
d="M109 325v58h669v-58h-669z" />
    <glyph glyph-name="uniF6C3" unicode="&#xf6c3;" horiz-adv-x="606" 
d="M252 -208c29 12 55 31 57 70c-35 -4 -57 12 -57 38c0 21 17 40 52 40c30 0 53 -18 53 -60c0 -44 -26 -102 -96 -120z" />
    <glyph glyph-name="uniF6C9" unicode="&#xf6c9;" horiz-adv-x="718" 
d="M321 770l84 140h86l-114 -140h-56z" />
    <glyph glyph-name="uniF6CA" unicode="&#xf6ca;" horiz-adv-x="697" 
d="M311 770l-123 140h58l103 -100l103 100h56l-123 -140h-74z" />
    <glyph glyph-name="uniF6CB" unicode="&#xf6cb;" horiz-adv-x="719" 
d="M263 796c-28 0 -44 16 -44 44s16 44 44 44s44 -16 44 -44s-16 -44 -44 -44zM455 796c-28 0 -44 16 -44 44s16 44 44 44s44 -16 44 -44s-16 -44 -44 -44z" />
    <glyph glyph-name="uniF6CE" unicode="&#xf6ce;" horiz-adv-x="697" 
d="M327 785l-106 130h82l78 -130h-54z" />
    <glyph glyph-name="uniF6CF" unicode="&#xf6cf;" horiz-adv-x="697" 
d="M256 770l68 140h84l-96 -140h-56zM410 770l96 140h90l-126 -140h-60z" />
    <glyph glyph-name="uniF6D0" unicode="&#xf6d0;" horiz-adv-x="697" 
d="M208 815v51h280v-51h-280z" />
    <glyph glyph-name="uniF6D1" unicode="&#xf6d1;" horiz-adv-x="622" 
d="M311 775c-90 0 -142 42 -150 130h58c5 -60 32 -82 92 -82s87 22 94 82h56c-8 -88 -60 -130 -150 -130z" />
    <glyph glyph-name="uniF6D4" unicode="&#xf6d4;" horiz-adv-x="614" 
d="M307 615c-85 0 -137 47 -145 130h56c5 -55 34 -84 89 -84s84 29 91 84h54c-8 -83 -60 -130 -145 -130z" />
    <glyph glyph-name="uniFEFF" unicode="&#xfeff;" horiz-adv-x="8" 
 />
    <glyph glyph-name="percent.tab" horiz-adv-x="650" 
d="M48 0l493 700h62l-491 -700h-64zM43 547c0 104 44 163 124 163c81 0 128 -55 128 -163s-45 -164 -125 -164c-83 0 -127 55 -127 164zM240 547c0 76 -22 110 -71 110s-72 -35 -72 -110c0 -78 25 -111 73 -111c47 0 69 31 70 111zM361 154c0 104 44 163 124 163
c81 0 128 -55 128 -163s-46 -164 -125 -164c-83 0 -127 55 -127 164zM558 154c0 76 -22 110 -72 110c-48 0 -70 -35 -70 -110c0 -78 24 -111 71 -111c48 0 71 31 71 111z" />
    <glyph glyph-name="plus.tab" horiz-adv-x="650" 
d="M109 305v59h186v185h59v-185h186v-59h-186v-185h-59v185h-186z" />
    <glyph glyph-name="less.tab" horiz-adv-x="650" 
d="M100 296v50l431 174v-60l-358 -138v-2l358 -138v-61z" />
    <glyph glyph-name="equal.tab" horiz-adv-x="650" 
d="M108 197v57h434v-57h-434zM108 400v57h434v-57h-434z" />
    <glyph glyph-name="greater.tab" horiz-adv-x="650" 
d="M119 121v61l358 138v2l-358 138v60l431 -174v-50z" />
    <glyph glyph-name="multiply.tab" horiz-adv-x="650" 
d="M140 171l147 152l-147 153l39 38l145 -150l146 150l39 -38l-147 -153l147 -152l-39 -37l-146 150l-145 -150z" />
    <glyph glyph-name="divide.tab" horiz-adv-x="650" 
d="M275 156c0 33 20 51 50 51s51 -19 51 -51s-19 -51 -51 -51c-30 0 -50 19 -50 51zM275 491c0 33 20 51 50 51s51 -19 51 -51s-19 -51 -51 -51c-30 0 -50 19 -50 51zM108 295v57h434v-57h-434z" />
    <glyph glyph-name="perthousand.tab" horiz-adv-x="650" 
d="M517 481l-465 -218l-19 38l466 218zM27 567c0 94 41 143 116 143c76 0 120 -45 120 -143s-42 -144 -116 -144c-78 0 -120 46 -120 144zM81 567c0 -67 22 -91 65 -91c42 0 62 22 63 91c0 65 -19 90 -64 90c-43 0 -64 -25 -64 -90zM122 134c0 94 42 143 117 143
c76 0 120 -45 120 -143s-43 -144 -117 -144c-78 0 -120 46 -120 144zM177 134c0 -67 22 -91 65 -91c42 0 62 22 62 91c0 65 -19 90 -63 90s-64 -25 -64 -90zM392 134c0 94 41 143 117 143s120 -45 120 -143s-43 -144 -117 -144c-78 0 -120 46 -120 144zM447 134
c0 -67 22 -91 64 -91c43 0 63 22 63 91c0 65 -19 90 -64 90c-43 0 -63 -25 -63 -90z" />
    <glyph glyph-name="minus.tab" horiz-adv-x="650" 
d="M108 295v57h434v-57h-434z" />
    <glyph glyph-name="f_b" horiz-adv-x="960" 
d="M443 0v695c-59 2 -104 6 -162 6c-77 0 -97 -31 -97 -113v-68h167v-55h-167v-465h-59v465h-88v55h88v80c0 115 53 156 156 156c54 0 103 -5 162 -6h59v-332c28 74 87 111 184 111c141 0 211 -72 211 -259c0 -194 -70 -280 -218 -280c-91 0 -152 37 -180 107l-6 -97h-50z
M501 294v-62c0 -104 54 -188 169 -188c121 0 168 71 168 223c0 153 -47 208 -164 208c-113 0 -173 -65 -173 -181z" />
    <glyph glyph-name="f_f_b" horiz-adv-x="1277" 
d="M125 0v465h-88v55h88v90c0 107 52 146 153 146c33 0 56 -4 73 -10v-65c-19 12 -44 20 -77 20c-72 0 -90 -27 -90 -103v-78h259v80c0 115 53 156 155 156c60 0 112 -6 177 -6h44v-332c28 74 87 111 185 111c141 0 211 -72 211 -259c0 -194 -70 -280 -218 -280
c-91 0 -153 37 -180 107l-6 -97h-51v695c-59 2 -103 6 -161 6c-78 0 -97 -31 -97 -113v-68h166v-55h-166v-465h-59v465h-259v-465h-59zM818 294v-62c0 -104 54 -188 170 -188c121 0 167 71 167 223c0 153 -47 208 -163 208c-113 0 -173 -65 -174 -181z" />
    <glyph glyph-name="f_f_h" horiz-adv-x="1272" 
d="M125 0v465h-88v55h88v90c0 107 52 146 153 146c33 0 56 -4 73 -10v-65c-19 12 -44 20 -77 20c-72 0 -90 -27 -90 -103v-78h259v80c0 115 53 156 155 156c55 0 104 -5 162 -6h59v-331c23 71 87 110 182 110c133 0 182 -57 182 -189v-340h-59v330c0 109 -41 146 -145 146
c-112 0 -160 -60 -160 -160v-316h-59v695c-59 2 -103 6 -161 6c-78 0 -97 -31 -97 -113v-68h166v-55h-166v-465h-59v465h-259v-465h-59z" />
    <glyph glyph-name="f_f_j" horiz-adv-x="921" 
d="M125 0v465h-88v55h88v90c0 107 52 146 153 146c33 0 56 -4 73 -10v-65c-19 12 -44 20 -77 20c-72 0 -90 -27 -90 -103v-78h259v90c0 107 50 146 147 146c30 0 56 -5 75 -10v-65c-22 12 -50 20 -79 20c-67 0 -84 -27 -84 -103v-78h317v-555c0 -92 -32 -151 -131 -151
c-30 0 -54 5 -68 10v66c17 -12 41 -19 68 -19c47 0 72 21 72 93v501h-258v-465h-59v465h-259v-465h-59zM746 691c0 23 13 41 44 41c29 0 43 -18 43 -41c0 -24 -14 -43 -43 -43c-31 0 -44 19 -44 43z" />
    <glyph glyph-name="f_f_k" horiz-adv-x="1197" 
d="M125 0v465h-88v55h88v90c0 107 52 146 153 146c33 0 56 -4 73 -10v-65c-19 12 -44 20 -77 20c-72 0 -90 -27 -90 -103v-78h259v80c0 115 53 156 155 156c55 0 104 -5 162 -6h59v-449h39l223 219h71l-245 -239l266 -281h-75l-242 253h-37v-253h-59v695
c-59 2 -103 6 -161 6c-78 0 -97 -31 -97 -113v-68h166v-55h-166v-465h-59v465h-259v-465h-59z" />
    <glyph glyph-name="f_h" horiz-adv-x="954" 
d="M443 0v695c-59 2 -104 6 -162 6c-77 0 -97 -31 -97 -113v-68h167v-55h-167v-465h-59v465h-88v55h88v80c0 115 53 156 156 156c54 0 103 -5 162 -6h59v-331c22 71 87 110 181 110c134 0 183 -57 183 -189v-340h-59v330c0 109 -41 146 -145 146c-112 0 -160 -60 -160 -160
v-316h-59z" />
    <glyph glyph-name="f_j" horiz-adv-x="603" 
d="M429 691c0 23 12 41 43 41c30 0 44 -18 44 -41c0 -24 -14 -43 -44 -43c-31 0 -43 19 -43 43zM443 -36v501h-259v-465h-59v465h-88v55h88v90c0 107 50 146 148 146c30 0 55 -5 74 -10v-65c-22 12 -50 20 -79 20c-67 0 -84 -27 -84 -103v-78h318v-555
c0 -92 -32 -151 -131 -151c-30 0 -55 5 -68 10v66c17 -12 40 -19 67 -19c48 0 73 21 73 93z" />
    <glyph glyph-name="f_k" horiz-adv-x="880" 
d="M457 750h45v-449h39l222 219h71l-245 -239l267 -281h-75l-243 253h-36v-253h-59v695c-59 2 -104 6 -162 6c-77 0 -97 -31 -97 -113v-68h167v-55h-167v-465h-59v465h-88v55h88v80c0 115 53 156 156 156c59 0 111 -6 176 -6z" />
    </font>
</defs>
</svg>
