<?xml version="1.0" standalone="no"?>
<!DOCTYPE svg PUBLIC "-//W3C//DTD SVG 1.1//EN" "http://www.w3.org/Graphics/SVG/1.1/DTD/svg11.dtd" >
<svg xmlns="http://www.w3.org/2000/svg" xmlns:xlink="http://www.w3.org/1999/xlink" version="1.1">
<metadata>
Created by FontForge 20190801 at Wed Apr 17 13:04:54 2019
 By Jimmy Wärting
Copyright (c) 2018 ParaType Inc., ParaType Ltd. All rights reserved.
</metadata>
<defs>
<font id="SBSansText-LightItalic" horiz-adv-x="590" >
  <font-face 
    font-family="SB Sans Text Light"
    font-weight="300"
    font-style="italic"
    font-stretch="normal"
    units-per-em="1000"
    panose-1="2 11 3 3 4 5 4 2 9 4"
    ascent="801"
    descent="-199"
    x-height="520"
    cap-height="700"
    bbox="-187 -230 1291 932"
    underline-thickness="50"
    underline-position="-113"
    slope="-12"
    stemh="54"
    stemv="56"
    unicode-range="U+0020-FEFF"
  />
<missing-glyph horiz-adv-x="322" 
 />
    <glyph glyph-name="f_f" unicode="ff" horiz-adv-x="690" 
d="M445 0l99 466h-260l-99 -466h-60l99 466h-84l11 54h85l20 93c23 108 83 142 174 142c33 0 63 -5 78 -11l-13 -62c-20 12 -48 19 -81 19c-60 0 -84 -20 -100 -97l-18 -84h260l20 93c23 108 83 142 174 142c33 0 63 -5 78 -11l-13 -62c-20 12 -48 19 -81 19
c-60 0 -84 -20 -100 -97l-18 -84h162l-11 -54h-163l-99 -466h-60z" />
    <glyph glyph-name="fi" unicode="fi" horiz-adv-x="600" 
d="M505 0h-60l99 466h-260l-99 -466h-60l99 466h-84l11 54h85l20 93c23 108 83 142 174 142c33 0 63 -5 78 -11l-13 -62c-20 12 -48 19 -81 19c-60 0 -84 -20 -100 -97l-18 -84h320zM620 638c-27 0 -42 15 -42 42s15 42 42 42s42 -15 42 -42s-15 -42 -42 -42z" />
    <glyph glyph-name="fl" unicode="fl" horiz-adv-x="660" 
d="M561 -5c-65 0 -97 22 -97 76c0 11 1 23 4 37l124 586c-59 2 -121 7 -168 7c-70 0 -94 -20 -110 -97l-18 -84h128l-11 -54h-129l-99 -466h-60l99 466h-84l11 54h85l20 93c23 108 83 142 184 142c45 0 145 -5 224 -5l-132 -624c-3 -13 -4 -24 -4 -33c0 -32 15 -44 56 -44
c19 0 41 6 65 16l-11 -53c-16 -7 -46 -17 -77 -17z" />
    <glyph glyph-name="f_f_i" unicode="ffi" horiz-adv-x="920" 
d="M445 0l99 466h-260l-99 -466h-60l99 466h-84l11 54h85l20 93c23 108 83 142 174 142c33 0 63 -5 78 -11l-13 -62c-20 12 -48 19 -81 19c-60 0 -84 -20 -100 -97l-18 -84h260l20 93c23 108 83 142 174 142c33 0 63 -5 78 -11l-13 -62c-20 12 -48 19 -81 19
c-60 0 -84 -20 -100 -97l-18 -84h320l-111 -520h-60l99 466h-260l-99 -466h-60zM941 638c-27 0 -42 15 -42 42s15 42 42 42s42 -15 42 -42s-15 -42 -42 -42z" />
    <glyph glyph-name="f_f_l" unicode="ffl" horiz-adv-x="980" 
d="M445 0l99 466h-260l-99 -466h-60l99 466h-84l11 54h85l20 93c23 108 83 142 174 142c33 0 63 -5 78 -11l-13 -62c-20 12 -48 19 -81 19c-60 0 -84 -20 -100 -97l-18 -84h260l20 93c23 108 83 142 184 142c39 0 121 -4 193 -5h31l-132 -624c-3 -13 -4 -24 -4 -33
c0 -32 15 -44 56 -44c19 0 41 6 65 16l-11 -53c-16 -7 -46 -17 -77 -17c-65 0 -97 22 -97 76c0 11 1 23 4 37l124 586c-59 2 -121 7 -168 7c-70 0 -94 -20 -110 -97l-18 -84h128l-11 -54h-129l-99 -466h-60z" />
    <glyph glyph-name=".notdef" horiz-adv-x="322" 
 />
    <glyph glyph-name="space" unicode=" " horiz-adv-x="300" 
 />
    <glyph glyph-name="exclam" unicode="!" horiz-adv-x="380" 
d="M205 220l102 480h64l-102 -480h-64zM199 -5c-33 0 -50 17 -50 50s17 50 50 50s50 -17 50 -50s-17 -50 -50 -50z" />
    <glyph glyph-name="quotedbl" unicode="&#x22;" horiz-adv-x="510" 
d="M284 440h-60l55 260h60zM474 440h-60l55 260h60z" />
    <glyph glyph-name="numbersign" unicode="#" horiz-adv-x="710" 
d="M448 0l44 208h-184l-44 -208h-60l44 208h-132l13 54h131l37 176h-132l11 54h133l44 208h60l-44 -208h184l44 208h54l-44 -208h136l-11 -54h-137l-37 -176h138l-13 -54h-137l-44 -208h-54zM357 438l-37 -176h184l37 176h-184z" />
    <glyph glyph-name="dollar" unicode="$" 
d="M245 -120l24 111c-71 4 -141 26 -177 57l18 79c45 -51 110 -79 183 -79c126 0 193 54 193 159c0 168 -293 103 -293 302c0 117 89 194 229 200l19 91h54l-19 -92c57 -4 111 -19 147 -40l-16 -75c-44 39 -99 59 -166 59c-117 0 -180 -46 -180 -133
c0 -164 293 -97 293 -308c0 -131 -85 -211 -231 -220l-24 -111h-54z" />
    <glyph glyph-name="percent" unicode="%" horiz-adv-x="870" 
d="M640 -5c-87 0 -141 54 -141 141c0 113 88 189 196 189c85 0 135 -53 135 -138c0 -111 -80 -192 -190 -192zM647 49c83 0 127 50 127 133c0 59 -31 91 -89 91c-82 0 -130 -52 -130 -135c0 -58 35 -89 92 -89zM331 375c-87 0 -141 54 -141 141c0 113 88 189 196 189
c85 0 135 -53 135 -138c0 -111 -80 -192 -190 -192zM338 429c83 0 127 50 127 133c0 59 -31 91 -89 91c-82 0 -130 -52 -130 -135c0 -58 35 -89 92 -89zM228 0h-68l632 700h68z" />
    <glyph glyph-name="ampersand" unicode="&#x26;" horiz-adv-x="850" 
d="M772 60l-14 -70c-58 16 -119 43 -171 91c-82 -69 -167 -91 -259 -91c-115 0 -195 71 -195 187c0 124 92 194 217 231c-21 44 -29 91 -29 127c0 124 81 175 195 175c74 0 130 -45 130 -116c0 -115 -87 -164 -225 -210c37 -82 99 -164 171 -229c98 90 164 214 192 345h62
c-31 -138 -106 -279 -212 -378c46 -36 95 -51 138 -62zM197 179c0 -92 65 -135 151 -135c66 0 136 22 198 73c-76 72 -138 155 -177 244c-104 -26 -172 -80 -172 -182zM381 539c0 -31 6 -77 23 -110c120 40 178 67 178 154c0 41 -24 73 -82 73c-76 0 -119 -38 -119 -117z
" />
    <glyph glyph-name="quotesingle" unicode="'" horiz-adv-x="320" 
d="M284 440h-60l55 260h60z" />
    <glyph glyph-name="parenleft" unicode="(" horiz-adv-x="360" 
d="M241 -190c-52 61 -110 215 -110 365c0 255 159 466 305 585l30 -27c-111 -101 -275 -303 -275 -558c0 -138 46 -283 84 -338z" />
    <glyph glyph-name="parenright" unicode=")" horiz-adv-x="360" 
d="M240 760c52 -61 110 -215 110 -365c0 -255 -159 -466 -305 -585l-30 27c111 101 275 303 275 558c0 138 -46 283 -84 338z" />
    <glyph glyph-name="asterisk" unicode="*" horiz-adv-x="530" 
d="M248 391l99 117l-146 41l19 60l141 -61l-11 152h63l-10 -152l140 61l20 -60l-147 -42l100 -116l-52 -36l-83 127l-82 -127z" />
    <glyph glyph-name="plus" unicode="+" 
d="M338 120v183h-183v54h183v183h54v-183h183v-54h-183v-183h-54z" />
    <glyph glyph-name="comma" unicode="," horiz-adv-x="310" 
d="M45 -110c52 13 99 57 114 105c-32 0 -50 16 -50 46c0 36 18 54 55 54c35 0 55 -20 55 -54c0 -77 -64 -165 -140 -191z" />
    <glyph glyph-name="hyphen" unicode="-" horiz-adv-x="470" 
d="M155 236l12 58h260l-12 -58h-260z" />
    <glyph glyph-name="period" unicode="." horiz-adv-x="310" 
d="M164 -5c-33 0 -50 17 -50 50s17 50 50 50s50 -17 50 -50s-17 -50 -50 -50z" />
    <glyph glyph-name="slash" unicode="/" horiz-adv-x="360" 
d="M-28 -180l477 930h60l-477 -930h-60z" />
    <glyph glyph-name="zero" unicode="0" 
d="M296 -10c-134 0 -189 97 -189 218c0 132 40 339 151 435c56 50 114 67 192 67c134 0 184 -91 184 -212c0 -122 -41 -336 -150 -439c-58 -55 -125 -69 -188 -69zM303 44c65 0 106 20 141 53c87 84 128 268 128 395c0 93 -32 164 -136 164c-54 0 -93 -10 -134 -46
c-91 -80 -133 -266 -133 -399c0 -90 31 -167 134 -167z" />
    <glyph glyph-name="one" unicode="1" 
d="M112 54h206l122 571l-232 -119l13 64l251 130h44l-138 -646h173l-12 -54h-439z" />
    <glyph glyph-name="two" unicode="2" 
d="M70 0l10 47c64 48 268 204 350 268c77 60 133 119 133 213c0 89 -49 121 -162 121c-73 0 -143 -27 -199 -64l16 75c63 31 134 49 204 49c112 0 203 -48 203 -172s-75 -197 -165 -267c-67 -52 -164 -126 -289 -216h370l-12 -54h-459z" />
    <glyph glyph-name="three" unicode="3" 
d="M69 42l16 58c36 -29 99 -56 194 -56c118 0 220 42 220 183c0 68 -54 106 -177 106h-78l11 54h76c142 0 216 61 216 164c0 67 -44 105 -144 105c-95 0 -162 -23 -208 -50l16 63c67 29 130 41 216 41c129 0 182 -68 182 -144c0 -123 -68 -179 -179 -206
c93 -13 131 -59 131 -138c0 -81 -33 -141 -88 -181c-51 -37 -116 -51 -201 -51c-89 0 -156 23 -203 52z" />
    <glyph glyph-name="four" unicode="4" 
d="M71 192l10 42l440 466h74l-96 -452h103l-11 -56h-104l-41 -192h-60l41 192h-356zM164 248h275l80 376z" />
    <glyph glyph-name="five" unicode="5" 
d="M166 354l101 346h372l-11 -54h-317l-67 -230c26 3 47 8 108 8c113 0 225 -32 225 -165c0 -191 -143 -269 -313 -269c-69 0 -138 15 -178 36l15 65c53 -37 111 -47 171 -47c127 0 243 57 243 203c0 109 -94 123 -182 123c-68 0 -116 -6 -167 -16z" />
    <glyph glyph-name="six" unicode="6" 
d="M628 680l-15 -64c-27 20 -72 40 -139 40c-186 0 -267 -155 -295 -332c52 82 117 121 223 121c113 0 192 -61 192 -178c0 -169 -115 -277 -280 -277c-115 0 -202 78 -202 218c0 164 49 314 133 402c75 78 152 100 250 100c52 0 103 -13 133 -30zM322 44
c120 0 210 78 210 207c0 96 -59 140 -151 140c-109 0 -207 -67 -207 -185c0 -98 51 -162 148 -162z" />
    <glyph glyph-name="seven" unicode="7" 
d="M159 0l431 646h-397l11 54h474l-7 -36l-440 -664h-72z" />
    <glyph glyph-name="eight" unicode="8" 
d="M294 -10c-110 0 -204 53 -204 174c0 122 82 193 194 212c-72 21 -105 64 -105 122c0 149 131 212 262 212c96 0 192 -45 192 -153c0 -111 -66 -161 -166 -187c80 -15 115 -74 115 -143c0 -72 -28 -139 -83 -180c-49 -37 -111 -57 -205 -57zM308 44c114 0 212 55 212 183
c0 96 -80 118 -160 118c-102 0 -208 -50 -208 -166c0 -93 72 -135 156 -135zM432 656c-96 0 -191 -43 -191 -156c0 -81 71 -105 142 -105c95 0 188 35 188 145c0 80 -67 116 -139 116z" />
    <glyph glyph-name="nine" unicode="9" 
d="M241 -10c-53 0 -109 15 -134 30l16 65c27 -21 74 -41 131 -41c192 0 281 165 300 334c-45 -82 -117 -125 -226 -125c-104 0 -184 71 -184 178c0 92 34 162 85 209c51 46 115 70 188 70c138 0 210 -78 210 -216c0 -161 -47 -305 -122 -391c-66 -76 -146 -113 -264 -113z
M343 311c116 0 222 68 222 190c0 98 -64 155 -160 155c-122 0 -199 -98 -199 -217c0 -86 54 -128 137 -128z" />
    <glyph glyph-name="colon" unicode=":" horiz-adv-x="310" 
d="M164 -5c-33 0 -50 17 -50 50s17 50 50 50s50 -17 50 -50s-17 -50 -50 -50zM252 405c-33 0 -50 17 -50 50s17 50 50 50s50 -17 50 -50s-17 -50 -50 -50z" />
    <glyph glyph-name="semicolon" unicode=";" horiz-adv-x="310" 
d="M45 -110c52 13 99 57 114 105c-32 0 -50 16 -50 46c0 36 18 54 55 54c35 0 55 -20 55 -54c0 -77 -64 -165 -140 -191zM252 405c-33 0 -50 17 -50 50s17 50 50 50s50 -17 50 -50s-17 -50 -50 -50z" />
    <glyph glyph-name="less" unicode="&#x3c;" 
d="M556 130l-420 175v50l420 175v-60l-347 -139v-2l347 -138v-61z" />
    <glyph glyph-name="equal" unicode="=" 
d="M155 257h420v-54h-420v54zM155 457h420v-54h-420v54z" />
    <glyph glyph-name="greater" unicode="&#x3e;" 
d="M173 130v60l347 139v2l-347 138v61l420 -175v-50z" />
    <glyph glyph-name="question" unicode="?" horiz-adv-x="540" 
d="M296 210h-64c42 214 283 145 283 338c0 67 -41 104 -128 104c-74 0 -122 -20 -168 -47l15 73c53 22 112 32 165 32c121 0 184 -52 184 -149c0 -241 -254 -181 -287 -351zM230 -5c-33 0 -50 17 -50 50s17 50 50 50s50 -17 50 -50s-17 -50 -50 -50z" />
    <glyph glyph-name="at" unicode="@" horiz-adv-x="1010" 
d="M591 -130c-270 0 -417 159 -417 414c0 247 149 426 413 426c229 0 387 -139 387 -366c0 -151 -89 -281 -201 -281c-68 0 -99 33 -98 104c-23 -71 -80 -104 -168 -104c-89 0 -139 68 -139 152c0 69 23 185 95 250c39 35 88 48 139 48c85 0 115 -40 119 -90l25 81h45
l-60 -279c-5 -23 -9 -51 -9 -57c0 -37 20 -54 54 -54c104 0 150 145 150 228c0 202 -135 320 -342 320c-227 0 -362 -141 -362 -379c0 -232 134 -365 368 -365c68 0 137 16 176 41v-54c-38 -18 -107 -35 -175 -35zM422 220c0 -65 31 -105 99 -105c77 0 125 36 151 112
c16 41 28 100 28 144c0 63 -37 90 -99 90c-41 0 -76 -9 -103 -33c-57 -52 -76 -155 -76 -208z" />
    <glyph glyph-name="A" unicode="A" horiz-adv-x="660" 
d="M30 0l418 700h64l118 -700h-65l-32 201h-316l-118 -201h-69zM466 625l-215 -366h273z" />
    <glyph glyph-name="B" unicode="B" horiz-adv-x="639" 
d="M111 2l148 697c60 4 127 6 192 6c142 0 211 -44 211 -137c0 -118 -53 -187 -161 -208c76 -10 117 -54 117 -124s-17 -137 -72 -182c-46 -38 -118 -59 -235 -59c-77 0 -145 2 -200 7zM246 335l-59 -277c45 -4 90 -5 137 -5c159 0 226 52 226 174c0 72 -45 108 -144 108
h-160zM256 387h135c139 0 203 50 203 159c0 67 -35 101 -146 101c-47 0 -91 0 -137 -2z" />
    <glyph glyph-name="C" unicode="C" horiz-adv-x="640" 
d="M696 672l-15 -69c-44 33 -94 49 -165 49c-94 0 -160 -21 -220 -89c-62 -70 -104 -197 -104 -316c0 -139 73 -199 209 -199c75 0 144 27 183 47l-14 -66c-39 -17 -104 -39 -173 -39c-173 0 -273 75 -273 256c0 109 42 266 129 359c69 73 156 105 272 105
c84 0 136 -20 171 -38z" />
    <glyph glyph-name="D" unicode="D" horiz-adv-x="720" 
d="M283 -5c-75 0 -125 4 -173 8l148 697c57 4 112 5 192 5c170 0 291 -68 291 -251c0 -165 -60 -309 -145 -375c-83 -64 -178 -84 -313 -84zM186 58c38 -4 63 -5 97 -5c119 0 205 12 272 71s118 167 118 326c0 156 -100 197 -238 197c-48 0 -80 0 -125 -3z" />
    <glyph glyph-name="E" unicode="E" 
d="M110 0l149 700h409l-12 -58h-345l-54 -253h319l-13 -58h-319l-58 -273h345l-12 -58h-409z" />
    <glyph glyph-name="F" unicode="F" horiz-adv-x="570" 
d="M110 0l149 700h402l-12 -58h-338l-60 -278h324l-13 -58h-323l-65 -306h-64z" />
    <glyph glyph-name="G" unicode="G" horiz-adv-x="680" 
d="M407 -10c-170 0 -282 80 -282 260c0 151 72 314 160 384c67 54 140 76 263 76c70 0 130 -25 160 -39l-15 -70c-33 25 -99 51 -160 51c-88 0 -140 -10 -202 -57c-82 -63 -138 -208 -138 -343c0 -155 86 -204 228 -204c48 0 102 12 139 28l45 214h-160l12 58h222l-67 -314
c-41 -17 -117 -44 -205 -44z" />
    <glyph glyph-name="H" unicode="H" horiz-adv-x="760" 
d="M110 0l149 700h64l-66 -311h412l66 311h64l-149 -700h-64l70 331h-412l-70 -331h-64z" />
    <glyph glyph-name="I" unicode="I" horiz-adv-x="294" 
d="M115 0l149 700h64l-149 -700h-64z" />
    <glyph glyph-name="J" unicode="J" horiz-adv-x="390" 
d="M120 -5c-34 0 -68 8 -96 24l13 62c32 -21 57 -28 91 -28c72 0 105 30 124 118l112 529h64l-114 -538c-25 -117 -83 -167 -194 -167z" />
    <glyph glyph-name="K" unicode="K" horiz-adv-x="680" 
d="M576 0l-270 331h-62l-70 -331h-64l149 700h64l-66 -311h53l364 311h86l-402 -340l292 -360h-74z" />
    <glyph glyph-name="L" unicode="L" horiz-adv-x="555" 
d="M110 0l149 700h64l-137 -642h346l-12 -58h-410z" />
    <glyph glyph-name="M" unicode="M" horiz-adv-x="860" 
d="M110 0l149 700h69l153 -456l344 456h74l-149 -700h-64l105 492c6 27 19 81 28 116c-26 -38 -67 -96 -82 -116l-241 -317h-54l-107 316c-7 22 -25 82 -36 120c-5 -36 -14 -91 -20 -119l-105 -492h-64z" />
    <glyph glyph-name="N" unicode="N" horiz-adv-x="750" 
d="M110 0l149 700h64l228 -500c18 -40 31 -70 48 -115c7 45 12 75 20 115l106 500h64l-149 -700h-64l-228 500c-18 40 -31 70 -48 115c-7 -45 -12 -75 -20 -115l-106 -500h-64z" />
    <glyph glyph-name="O" unicode="O" horiz-adv-x="760" 
d="M398 -10c-170 0 -269 108 -269 275c0 132 50 284 154 370c71 59 143 75 239 75c170 0 258 -107 258 -273c0 -155 -64 -304 -155 -375c-67 -52 -143 -72 -227 -72zM404 48c86 0 145 23 193 69c80 78 115 208 115 317c0 140 -63 218 -208 218c-71 0 -122 -15 -171 -53
c-97 -75 -136 -223 -136 -334c0 -134 67 -217 207 -217z" />
    <glyph glyph-name="P" unicode="P" horiz-adv-x="620" 
d="M110 0l148 696c55 5 110 9 176 9c164 0 229 -66 229 -176c0 -92 -23 -167 -89 -222c-47 -39 -136 -60 -239 -60c-38 0 -70 2 -107 7l-54 -254h-64zM240 311c39 -5 67 -6 107 -6c66 0 140 4 188 45c39 34 60 86 60 169c0 74 -37 128 -171 128c-40 0 -72 -1 -113 -4z" />
    <glyph glyph-name="Q" unicode="Q" horiz-adv-x="760" 
d="M398 -10c-170 0 -269 108 -269 275c0 132 50 284 154 370c71 59 143 75 239 75c170 0 258 -107 258 -273c0 -155 -64 -304 -155 -375c-44 -34 -91 -55 -142 -64l115 -138h-74l-108 130h-18zM404 48c86 0 145 23 193 69c80 78 115 208 115 317c0 140 -63 218 -208 218
c-71 0 -122 -15 -171 -53c-97 -75 -136 -223 -136 -334c0 -134 67 -217 207 -217z" />
    <glyph glyph-name="R" unicode="R" horiz-adv-x="650" 
d="M110 0l148 695c59 5 124 10 188 10c131 0 205 -58 205 -161c0 -129 -63 -206 -197 -239l161 -305h-69l-160 296h-149l-63 -296h-64zM250 354h116c149 0 217 58 217 184c0 75 -49 109 -152 109c-47 0 -76 0 -120 -5z" />
    <glyph glyph-name="S" unicode="S" horiz-adv-x="565" 
d="M284 -10c-78 0 -162 24 -202 58l18 79c45 -51 110 -79 183 -79c126 0 193 54 193 159c0 168 -293 103 -293 302c0 122 97 201 246 201c70 0 140 -16 184 -42l-16 -75c-44 39 -99 59 -166 59c-117 0 -180 -46 -180 -133c0 -164 293 -97 293 -308
c0 -139 -96 -221 -260 -221z" />
    <glyph glyph-name="T" unicode="T" horiz-adv-x="570" 
d="M253 0l136 642h-227l12 58h519l-12 -58h-228l-136 -642h-64z" />
    <glyph glyph-name="U" unicode="U" horiz-adv-x="730" 
d="M364 -10c-120 0 -210 58 -210 188c0 29 6 79 19 140l81 382h64l-82 -385c-12 -57 -19 -106 -19 -132c0 -102 60 -135 155 -135c159 0 214 65 246 218l92 434h64l-92 -431c-41 -191 -120 -279 -318 -279z" />
    <glyph glyph-name="V" unicode="V" horiz-adv-x="640" 
d="M287 0l-108 700h64l93 -624l352 624h71l-403 -700h-69z" />
    <glyph glyph-name="W" unicode="W" horiz-adv-x="910" 
d="M201 0l-2 700h61l2 -456c0 -40 -1 -101 -3 -142c19 40 50 101 71 141l239 457h69l43 -456c4 -39 8 -102 12 -143c14 41 40 103 57 143l194 456h65l-300 -700h-62l-59 614l-323 -614h-64z" />
    <glyph glyph-name="X" unicode="X" horiz-adv-x="630" 
d="M30 0l325 363l-158 337h69l135 -289l254 289h78l-304 -342l171 -358h-69l-148 310l-275 -310h-78z" />
    <glyph glyph-name="Y" unicode="Y" horiz-adv-x="600" 
d="M268 0l60 280l-154 420h67l129 -358l280 358h74l-332 -419l-60 -281h-64z" />
    <glyph glyph-name="Z" unicode="Z" 
d="M50 0l9 43l535 599h-395l12 58h482l-9 -44l-534 -598h412l-12 -58h-500z" />
    <glyph glyph-name="bracketleft" unicode="[" horiz-adv-x="360" 
d="M62 -180l197 930h209l-11 -54h-149l-174 -822h149l-12 -54h-209z" />
    <glyph glyph-name="backslash" unicode="\" horiz-adv-x="360" 
d="M354 -180l-284 930h56l284 -930h-56z" />
    <glyph glyph-name="bracketright" unicode="]" horiz-adv-x="360" 
d="M12 -180l11 54h149l174 822h-149l12 54h209l-197 -930h-209z" />
    <glyph glyph-name="asciicircum" unicode="^" 
d="M141 358l188 342h84l188 -342h-64l-166 305l-165 -305h-65z" />
    <glyph glyph-name="underscore" unicode="_" horiz-adv-x="450" 
d="M-32 -126h449v-54h-449v54z" />
    <glyph glyph-name="grave" unicode="`" horiz-adv-x="207" 
d="M328 615h-54l-106 130h84z" />
    <glyph glyph-name="a" unicode="a" horiz-adv-x="625" 
d="M479 0l11 100c-47 -73 -106 -110 -196 -110c-121 0 -184 69 -184 182c0 179 78 358 287 358c82 0 148 -42 163 -130l40 120h40l-111 -520h-50zM172 183c0 -92 50 -139 139 -139c121 0 183 87 205 182l14 61c4 17 5 33 5 49c0 81 -43 140 -143 140
c-160 0 -220 -152 -220 -293z" />
    <glyph glyph-name="b" unicode="b" horiz-adv-x="620" 
d="M95 0l160 750h60l-70 -327c48 76 109 107 209 107c106 0 167 -71 167 -185c0 -169 -75 -355 -284 -355c-91 0 -155 54 -163 135l-39 -125h-40zM339 44c163 0 220 152 220 293c0 92 -47 139 -131 139c-126 0 -194 -86 -213 -182l-12 -61c-21 -106 21 -189 136 -189z" />
    <glyph glyph-name="c" unicode="c" horiz-adv-x="540" 
d="M508 103l-14 -66c-35 -24 -103 -47 -176 -47c-136 0 -208 81 -208 208c0 195 98 332 298 332c68 0 123 -16 147 -33l-15 -69c-25 20 -76 48 -143 48c-147 0 -225 -103 -225 -268c0 -91 48 -164 165 -164c59 0 129 28 171 59z" />
    <glyph glyph-name="d" unicode="d" horiz-adv-x="624" 
d="M480 0l13 100c-44 -75 -102 -110 -193 -110c-128 0 -190 69 -190 182c0 179 77 358 286 358c92 0 152 -48 160 -129l73 349h60l-159 -750h-50zM172 183c0 -92 49 -139 142 -139c118 0 185 86 204 182l12 61c21 106 -20 189 -136 189c-163 0 -222 -152 -222 -293z" />
    <glyph glyph-name="e" unicode="e" horiz-adv-x="560" 
d="M312 -10c-133 0 -199 74 -199 215c0 185 114 325 278 325c140 0 189 -60 189 -136c0 -109 -103 -149 -260 -149h-140c-2 -12 -5 -35 -5 -58c0 -84 42 -143 152 -143c65 0 143 21 191 64l-13 -64c-41 -31 -118 -54 -193 -54zM326 295c162 0 192 44 192 92
c0 46 -29 89 -121 89c-106 0 -177 -59 -206 -181h135z" />
    <glyph glyph-name="f" unicode="f" horiz-adv-x="370" 
d="M140 466l11 54h85l20 93c23 108 83 142 174 142c33 0 63 -5 78 -11l-13 -62c-20 12 -48 19 -81 19c-60 0 -84 -20 -100 -97l-18 -84h162l-11 -54h-163l-99 -466h-60l99 466h-84z" />
    <glyph glyph-name="g" unicode="g" horiz-adv-x="619" 
d="M259 -190c-84 0 -141 22 -174 42l16 73c22 -27 83 -61 164 -61c127 0 185 48 206 151l21 102c-44 -75 -99 -117 -190 -117c-128 0 -189 69 -189 185c0 181 73 345 282 345c91 0 154 -54 162 -135l39 125h40l-107 -502c-32 -151 -125 -208 -270 -208zM316 54
c117 0 184 91 203 187l9 46c21 106 -20 189 -135 189c-163 0 -218 -137 -218 -280c0 -95 48 -142 141 -142z" />
    <glyph glyph-name="h" unicode="h" horiz-adv-x="605" 
d="M95 0l159 750h59l-70 -332c47 70 110 112 205 112c106 0 152 -38 152 -119c0 -21 -2 -45 -8 -72l-72 -339h-60l69 329c5 22 7 45 7 61c0 65 -36 86 -118 86c-112 0 -178 -74 -196 -161l-67 -315h-60z" />
    <glyph glyph-name="i" unicode="i" horiz-adv-x="280" 
d="M170 0h-60l111 520h60zM285 638c-27 0 -42 15 -42 42s15 42 42 42s42 -15 42 -42s-15 -42 -42 -42z" />
    <glyph glyph-name="j" unicode="j" horiz-adv-x="280" 
d="M-67 -176l14 65c14 -11 36 -17 65 -17c52 0 77 26 91 92l118 556h60l-118 -553c-23 -106 -73 -152 -167 -152c-27 0 -51 3 -63 9zM285 638c-27 0 -42 15 -42 42s15 42 42 42s42 -15 42 -42s-15 -42 -42 -42z" />
    <glyph glyph-name="k" unicode="k" horiz-adv-x="540" 
d="M95 0l159 750h60l-96 -453h38l264 223h80l-294 -254l204 -266h-75l-191 243h-37l-52 -243h-60z" />
    <glyph glyph-name="l" unicode="l" horiz-adv-x="310" 
d="M211 -5c-65 0 -97 22 -97 76c0 11 1 23 4 37l136 642h60l-132 -624c-3 -13 -4 -24 -4 -33c0 -32 15 -44 56 -44c19 0 41 6 65 16l-11 -53c-16 -7 -46 -17 -77 -17z" />
    <glyph glyph-name="m" unicode="m" horiz-adv-x="870" 
d="M95 0l111 520h50l-12 -100c33 66 97 110 180 110c87 0 127 -37 122 -115c38 78 108 115 192 115c94 0 132 -39 132 -107c0 -17 -3 -36 -7 -57l-78 -366h-60l73 345c4 19 6 36 6 51c0 55 -29 80 -102 80c-88 0 -144 -61 -162 -147l-70 -329h-60l72 340c4 20 6 38 6 53
c0 59 -31 83 -96 83c-96 0 -150 -68 -167 -148l-70 -328h-60z" />
    <glyph glyph-name="n" unicode="n" horiz-adv-x="605" 
d="M95 0l111 520h50l-12 -100c46 72 112 110 202 110c101 0 154 -31 154 -121c0 -21 -3 -48 -9 -77l-71 -332h-60l68 322c5 26 8 49 8 68c0 65 -36 86 -118 86c-105 0 -176 -65 -197 -165l-66 -311h-60z" />
    <glyph glyph-name="o" unicode="o" horiz-adv-x="600" 
d="M110 184c0 216 111 346 297 346c114 0 190 -67 190 -192c0 -216 -101 -348 -273 -348c-148 0 -214 80 -214 194zM172 203c0 -97 41 -159 154 -159c141 0 209 120 209 276c0 100 -41 156 -134 156c-136 0 -229 -100 -229 -273z" />
    <glyph glyph-name="p" unicode="p" horiz-adv-x="625" 
d="M57 -180l149 700h46l-12 -100c44 75 105 110 196 110c128 0 190 -68 190 -181c0 -179 -77 -359 -286 -359c-91 0 -151 51 -160 127l-63 -297h-60zM342 44c163 0 222 153 222 294c0 92 -49 138 -142 138c-117 0 -185 -85 -205 -181l-13 -61c-23 -106 23 -190 138 -190z
" />
    <glyph glyph-name="q" unicode="q" horiz-adv-x="624" 
d="M432 -180l60 280c-44 -75 -101 -110 -192 -110c-128 0 -190 69 -190 182c0 179 77 358 286 358c91 0 153 -50 165 -130l40 120h40l-149 -700h-60zM172 183c0 -92 49 -139 142 -139c117 0 187 86 207 182l13 61c23 106 -25 189 -140 189c-163 0 -222 -152 -222 -293z" />
    <glyph glyph-name="r" unicode="r" horiz-adv-x="395" 
d="M95 0l111 520h50l-10 -95c39 73 101 105 172 105c20 0 41 -3 53 -8l-16 -65c-17 13 -35 19 -65 19c-87 0 -144 -54 -168 -165l-67 -311h-60z" />
    <glyph glyph-name="s" unicode="s" horiz-adv-x="470" 
d="M66 25l16 77c29 -35 89 -58 147 -58c102 0 151 42 151 115c0 115 -237 55 -237 203c0 79 37 168 214 168c63 0 111 -16 132 -28l-15 -74c-34 32 -76 48 -127 48c-104 0 -142 -36 -142 -98c0 -113 237 -49 237 -203c0 -115 -74 -185 -226 -185c-67 0 -118 14 -150 35z" />
    <glyph glyph-name="t" unicode="t" horiz-adv-x="410" 
d="M155 139l69 327h-104l11 54h104l23 108l65 22l-28 -130h176l-12 -54h-175l-69 -326c-3 -16 -5 -29 -5 -40c0 -42 22 -51 65 -51c48 0 86 15 111 29l-12 -59c-22 -13 -67 -24 -110 -24c-77 0 -116 20 -116 88c0 16 3 35 7 56z" />
    <glyph glyph-name="u" unicode="u" horiz-adv-x="600" 
d="M126 167l75 353h60l-72 -341c-4 -19 -6 -35 -6 -50c0 -61 34 -85 109 -85c113 0 176 63 198 166l66 310h60l-111 -520h-50l11 100c-47 -78 -116 -110 -203 -110c-97 0 -144 41 -144 119c0 17 3 37 7 58z" />
    <glyph glyph-name="v" unicode="v" horiz-adv-x="510" 
d="M284 0h-58l-90 520h62l71 -447l261 447h66z" />
    <glyph glyph-name="w" unicode="w" horiz-adv-x="790" 
d="M177 0l-21 520h58l15 -447l242 447h65l52 -445l206 445h62l-247 -520h-67l-49 456l-249 -456h-67z" />
    <glyph glyph-name="x" unicode="x" horiz-adv-x="510" 
d="M30 0l246 270l-119 250h66l95 -206l183 206h74l-226 -247l131 -273h-67l-107 228l-202 -228h-74z" />
    <glyph glyph-name="y" unicode="y" horiz-adv-x="520" 
d="M61 -178l13 62c11 -9 23 -17 47 -17c42 0 70 42 126 140l-111 513h64l91 -445l248 445h67l-307 -534c-86 -149 -129 -176 -190 -176c-22 0 -37 6 -48 12z" />
    <glyph glyph-name="z" unicode="z" horiz-adv-x="490" 
d="M45 0l9 42l406 424h-311l12 54h390l-9 -42l-406 -424h320l-11 -54h-400z" />
    <glyph glyph-name="braceleft" unicode="{" horiz-adv-x="380" 
d="M292 -180h-55c-92 0 -119 58 -119 104c0 19 2 30 7 56l33 160c1 7 11 45 11 64c0 41 -28 52 -74 55l11 52c56 3 100 51 114 119l34 160c23 108 65 160 178 160h57l-11 -54h-54c-69 0 -95 -36 -110 -106l-34 -160c-15 -69 -50 -125 -124 -145c51 -12 68 -39 68 -87
c0 -14 -3 -43 -6 -58l-33 -160c-2 -12 -6 -32 -6 -43c0 -34 16 -63 69 -63h55z" />
    <glyph glyph-name="bar" unicode="|" horiz-adv-x="300" 
d="M142 -180h-60l198 930h60z" />
    <glyph glyph-name="braceright" unicode="}" horiz-adv-x="380" 
d="M12 -180l11 54h54c69 0 95 36 110 106l34 160c15 69 50 125 124 145c-51 12 -68 39 -68 87c0 14 3 43 6 58l33 160c2 12 6 32 6 43c0 34 -16 63 -69 63h-55l11 54h55c92 0 119 -58 119 -104c0 -19 -2 -30 -7 -56l-33 -160c-1 -7 -11 -45 -11 -64c0 -41 28 -52 74 -55
l-11 -52c-56 -3 -100 -51 -114 -119l-34 -160c-23 -108 -65 -160 -178 -160h-57z" />
    <glyph glyph-name="asciitilde" unicode="~" 
d="M472 265c-84 0 -151 76 -210 76c-49 0 -83 -25 -108 -52v67c26 28 69 39 111 39c78 0 143 -76 213 -76c39 0 78 24 96 54v-71c-24 -26 -64 -37 -102 -37z" />
    <glyph glyph-name="uni00A0" unicode="&#xa0;" horiz-adv-x="300" 
 />
    <glyph glyph-name="exclamdown" unicode="&#xa1;" horiz-adv-x="380" 
d="M285 300l-102 -480h-64l102 480h64zM291 425c-33 0 -50 17 -50 50s17 50 50 50s50 -17 50 -50s-17 -50 -50 -50z" />
    <glyph glyph-name="cent" unicode="&#xa2;" 
d="M547 103l-14 -66c-35 -24 -103 -47 -186 -47l-23 -110h-60l24 115c-107 19 -159 94 -159 203c0 184 87 316 274 330l19 92h60l-19 -91c64 -3 110 -17 131 -32l-15 -69c-25 20 -76 48 -153 48c-157 0 -235 -103 -235 -268c0 -91 48 -164 175 -164c69 0 139 28 181 59z" />
    <glyph glyph-name="sterling" unicode="&#xa3;" 
d="M150 353l9 44h100l17 80c33 155 123 233 268 233c48 0 95 -9 118 -18l-13 -59c-38 11 -70 19 -113 19c-110 0 -170 -54 -196 -176l-17 -79h187l-9 -44h-188l-63 -295h277l-12 -58h-440l12 58h99l63 295h-99z" />
    <glyph glyph-name="currency" unicode="&#xa4;" 
d="M182 131l-36 36l66 69c-24 28 -41 71 -41 123c0 53 17 95 41 124l-66 70l36 37l66 -69c28 25 72 42 123 42c53 0 96 -18 124 -41l67 69l36 -37l-66 -71c22 -28 40 -71 40 -124c0 -51 -18 -94 -40 -123l65 -69l-36 -37l-65 68c-30 -25 -73 -42 -125 -42s-96 17 -123 42z
M219 359c0 -93 70 -155 152 -155c84 0 153 62 153 155c0 92 -69 157 -153 157c-82 0 -152 -66 -152 -157z" />
    <glyph glyph-name="yen" unicode="&#xa5;" 
d="M157 281l12 58h133l-128 361h67l126 -361l273 361h74l-282 -361h135l-12 -58h-168l-17 -78h168l-12 -58h-168l-31 -145h-64l31 145h-166l12 58h166l17 78h-166z" />
    <glyph glyph-name="brokenbar" unicode="&#xa6;" horiz-adv-x="300" 
d="M82 -180l83 390h60l-83 -390h-60zM197 360l83 390h60l-83 -390h-60z" />
    <glyph glyph-name="section" unicode="&#xa7;" horiz-adv-x="500" 
d="M549 686l-13 -60c-43 22 -85 30 -127 30c-61 0 -142 -28 -142 -101c0 -32 27 -53 91 -88l57 -31c46 -25 87 -55 87 -111c0 -76 -67 -141 -125 -180c31 -25 47 -50 47 -84c0 -97 -95 -171 -218 -171c-49 0 -105 10 -141 29l13 62c44 -27 85 -37 136 -37
c88 0 148 42 148 104c0 30 -31 57 -97 94l-59 33c-46 26 -77 59 -77 109c0 81 62 133 126 171c-33 22 -50 51 -50 86c0 119 117 169 220 169c51 0 99 -14 124 -24zM295 433c-49 -29 -104 -70 -104 -132c0 -35 25 -59 74 -88l76 -45c44 34 99 80 99 140c0 32 -24 58 -69 83z
" />
    <glyph glyph-name="dieresis" unicode="&#xa8;" horiz-adv-x="263" 
d="M198 638c-27 0 -42 15 -42 42s15 42 42 42s42 -15 42 -42s-15 -42 -42 -42zM354 638c-27 0 -42 15 -42 42s15 42 42 42s42 -15 42 -42s-15 -42 -42 -42z" />
    <glyph glyph-name="copyright" unicode="&#xa9;" horiz-adv-x="930" 
d="M533 -55c-224 0 -379 158 -379 374c0 217 155 376 379 376c225 0 379 -159 379 -376c0 -216 -154 -374 -379 -374zM533 -6c192 0 325 139 325 326s-133 325 -325 325c-191 0 -325 -138 -325 -325s134 -326 325 -326zM545 124c-130 0 -188 75 -188 198
c0 134 68 200 188 200c34 0 61 -4 82 -11v-43c-24 9 -53 11 -77 11c-94 0 -143 -51 -143 -155c0 -111 55 -155 143 -155c24 0 54 3 79 14v-46c-23 -8 -51 -13 -84 -13z" />
    <glyph glyph-name="ordfeminine" unicode="&#xaa;" horiz-adv-x="355" 
d="M226 375c-55 0 -86 25 -86 80c0 83 72 119 158 119h81l3 17c2 10 3 16 3 22c0 31 -21 44 -75 44c-32 0 -74 -12 -105 -26l11 55c31 11 69 19 112 19c79 0 111 -27 111 -83c0 -10 -1 -24 -5 -40l-43 -202h-46l4 55c-23 -28 -60 -60 -123 -60zM249 423c62 0 106 39 115 83
l5 24h-73c-49 0 -98 -10 -98 -63c0 -32 17 -44 51 -44z" />
    <glyph glyph-name="guillemotleft" unicode="&#xab;" horiz-adv-x="550" 
d="M235 65l-103 205l182 205h68l-188 -207l100 -203h-59zM429 65l-103 205l182 205h68l-188 -207l100 -203h-59z" />
    <glyph glyph-name="logicalnot" unicode="&#xac;" 
d="M155 357h420v-207h-54v153h-366v54z" />
    <glyph glyph-name="uni00AD" unicode="&#xad;" horiz-adv-x="470" 
d="M155 236l12 58h260l-12 -58h-260z" />
    <glyph glyph-name="registered" unicode="&#xae;" horiz-adv-x="600" 
d="M410 270c-149 0 -249 97 -249 245s100 245 249 245s249 -97 249 -245s-100 -245 -249 -245zM410 306c123 0 209 85 209 210s-86 208 -209 208s-209 -83 -209 -208s86 -210 209 -210zM315 387v271h103c35 0 91 -5 91 -82c0 -41 -23 -69 -50 -76l70 -113h-51l-64 106h-54
v-106h-45zM360 531h54c25 0 50 9 50 45c0 37 -23 43 -50 43h-54v-88z" />
    <glyph glyph-name="macron" unicode="&#xaf;" horiz-adv-x="330" 
d="M179 657v46h260v-46h-260z" />
    <glyph glyph-name="degree" unicode="&#xb0;" horiz-adv-x="400" 
d="M321 424c-87 0 -147 60 -147 143s60 143 147 143s147 -60 147 -143s-60 -143 -147 -143zM321 470c59 0 99 40 99 97s-40 97 -99 97s-99 -40 -99 -97s40 -97 99 -97z" />
    <glyph glyph-name="plusminus" unicode="&#xb1;" 
d="M344 240v183h-183v54h183v183h54v-183h183v-54h-183v-183h-54zM161 114h420v-54h-420v54z" />
    <glyph glyph-name="twosuperior" unicode="&#xb2;" horiz-adv-x="450" 
d="M141 380l11 54l137 87c133 85 174 124 174 177c0 37 -33 57 -95 57c-45 0 -97 -10 -134 -27l11 53c47 17 94 24 141 24c96 0 142 -30 142 -93c0 -70 -55 -126 -212 -223l-92 -57v-1h253l-11 -51h-325z" />
    <glyph glyph-name="threesuperior" unicode="&#xb3;" horiz-adv-x="450" 
d="M282 375c-47 0 -98 3 -138 20l12 52c32 -17 81 -22 131 -22c62 0 140 18 140 89c0 46 -33 62 -98 62h-77l9 43h73c55 0 124 17 124 80c0 43 -32 56 -99 56c-45 0 -98 -6 -135 -21l11 51c43 16 102 20 153 20c89 0 132 -31 132 -88c0 -69 -62 -102 -127 -116l-1 -2
c74 -10 95 -43 95 -85c0 -99 -119 -139 -205 -139z" />
    <glyph glyph-name="acute" unicode="&#xb4;" horiz-adv-x="180" 
d="M141 615l104 130h84l-134 -130h-54z" />
    <glyph glyph-name="mu" unicode="&#xb5;" horiz-adv-x="605" 
d="M117 -180h-60l149 700h60l-77 -360c-2 -11 -2 -21 -2 -31c0 -61 35 -85 110 -85c113 0 176 63 198 166l66 310h60l-111 -520h-50l11 100c-47 -78 -116 -110 -203 -110c-49 0 -85 12 -107 37z" />
    <glyph glyph-name="mu" unicode="&#x3bc;" horiz-adv-x="605" 
d="M117 -180h-60l149 700h60l-77 -360c-2 -11 -2 -21 -2 -31c0 -61 35 -85 110 -85c113 0 176 63 198 166l66 310h60l-111 -520h-50l11 100c-47 -78 -116 -110 -203 -110c-49 0 -85 12 -107 37z" />
    <glyph glyph-name="paragraph" unicode="&#xb6;" horiz-adv-x="560" 
d="M185 -180l120 564c-93 0 -134 48 -134 116c0 130 103 200 225 200h203l-187 -880h-60l176 826h-107l-176 -826h-60z" />
    <glyph glyph-name="periodcentered" unicode="&#xb7;" horiz-adv-x="310" 
d="M229 300c-33 0 -50 17 -50 50s17 50 50 50s50 -17 50 -50s-17 -50 -50 -50z" />
    <glyph glyph-name="cedilla" unicode="&#xb8;" horiz-adv-x="191" 
d="M21 -84l30 84h38l-16 -47c59 -1 93 -21 81 -78c-11 -50 -58 -85 -119 -85c-31 0 -49 6 -66 15l14 38c18 -9 31 -13 55 -13c32 0 58 14 65 47c8 34 -23 41 -50 41c-8 0 -24 0 -32 -2z" />
    <glyph glyph-name="onesuperior" unicode="&#xb9;" horiz-adv-x="450" 
d="M311 380l75 354l-140 -66l-14 45l182 87h46l-89 -420h-60z" />
    <glyph glyph-name="ordmasculine" unicode="&#xba;" horiz-adv-x="390" 
d="M148 490c0 108 41 215 190 215c83 0 134 -42 134 -115c0 -133 -67 -215 -194 -215c-78 0 -130 43 -130 115zM332 661c-97 0 -129 -75 -129 -161c0 -66 41 -81 89 -81c78 0 126 62 126 161c0 62 -38 81 -86 81z" />
    <glyph glyph-name="guillemotright" unicode="&#xbb;" horiz-adv-x="550" 
d="M89 65l187 212l-99 198h59l102 -203l-184 -207h-65zM284 65l187 212l-99 198h59l102 -203l-184 -207h-65z" />
    <glyph glyph-name="onequarter" unicode="&#xbc;" horiz-adv-x="950" 
d="M248 0h-68l632 700h68zM229 280l75 354l-140 -66l-14 45l182 87h46l-89 -420h-60zM527 100l9 46l318 274h71l-58 -271h54l-10 -49h-54l-21 -100h-55l21 100h-275zM812 149l46 216h-1l-251 -216h206z" />
    <glyph glyph-name="onehalf" unicode="&#xbd;" horiz-adv-x="950" 
d="M218 0h-68l632 700h68zM229 280l75 354l-140 -66l-14 45l182 87h46l-89 -420h-60zM585 0l11 54l137 87c133 85 174 124 174 177c0 37 -33 57 -95 57c-45 0 -97 -10 -134 -27l11 53c47 17 94 24 141 24c96 0 142 -30 142 -93c0 -70 -55 -126 -212 -223l-92 -57v-1h253
l-11 -51h-325z" />
    <glyph glyph-name="threequarters" unicode="&#xbe;" horiz-adv-x="950" 
d="M298 0h-68l632 700h68zM251 275c-47 0 -98 3 -138 20l12 52c32 -17 81 -22 131 -22c62 0 140 18 140 89c0 46 -33 62 -98 62h-77l9 43h73c55 0 124 17 124 80c0 43 -32 56 -99 56c-45 0 -98 -6 -135 -21l11 51c43 16 102 20 153 20c89 0 132 -31 132 -88
c0 -69 -62 -102 -127 -116l-1 -2c74 -10 95 -43 95 -85c0 -99 -119 -139 -205 -139zM527 100l9 46l318 274h71l-58 -271h54l-10 -49h-54l-21 -100h-55l21 100h-275zM812 149l46 216h-1l-251 -216h206z" />
    <glyph glyph-name="questiondown" unicode="&#xbf;" horiz-adv-x="540" 
d="M231 -190c-121 0 -184 52 -184 149c0 241 254 181 287 351h64c-42 -214 -283 -145 -283 -338c0 -67 41 -104 128 -104c74 0 122 20 168 47l-15 -73c-53 -22 -112 -32 -165 -32zM400 425c-33 0 -50 17 -50 50s17 50 50 50s50 -17 50 -50s-17 -50 -50 -50z" />
    <glyph glyph-name="Agrave" unicode="&#xc0;" horiz-adv-x="660" 
d="M30 0l418 700h64l118 -700h-65l-32 201h-316l-118 -201h-69zM466 625l-215 -366h273zM470 785l-78 130h82l50 -130h-54z" />
    <glyph glyph-name="Aacute" unicode="&#xc1;" horiz-adv-x="660" 
d="M30 0l418 700h64l118 -700h-65l-32 201h-316l-118 -201h-69zM466 625l-215 -366h273zM467 770l114 140h86l-144 -140h-56z" />
    <glyph glyph-name="Acircumflex" unicode="&#xc2;" horiz-adv-x="660" 
d="M30 0l418 700h64l118 -700h-65l-32 201h-316l-118 -201h-69zM466 625l-215 -366h273zM334 770l153 140h74l93 -140h-54l-82 100l-124 -100h-60z" />
    <glyph glyph-name="Atilde" unicode="&#xc3;" horiz-adv-x="660" 
d="M30 0l418 700h64l118 -700h-65l-32 201h-316l-118 -201h-69zM466 625l-215 -366h273zM405 795l-41 11c5 49 38 80 81 80c24 0 43 -11 70 -23c24 -11 42 -22 59 -22s33 11 40 43l40 -11c-7 -52 -43 -79 -79 -79c-20 0 -33 4 -72 23c-23 11 -39 22 -56 22s-34 -10 -42 -44z
" />
    <glyph glyph-name="Adieresis" unicode="&#xc4;" horiz-adv-x="660" 
d="M30 0l418 700h64l118 -700h-65l-32 201h-316l-118 -201h-69zM466 625l-215 -366h273zM412 796c-28 0 -44 16 -44 44s16 44 44 44s44 -16 44 -44s-16 -44 -44 -44zM604 796c-28 0 -44 16 -44 44s16 44 44 44s44 -16 44 -44s-16 -44 -44 -44z" />
    <glyph glyph-name="Aring" unicode="&#xc5;" horiz-adv-x="660" 
d="M30 0l418 700h64l118 -700h-65l-32 201h-316l-118 -201h-69zM466 625l-215 -366h273zM508 748c-54 0 -92 38 -92 92s38 92 92 92s92 -38 92 -92s-38 -92 -92 -92zM508 788c33 0 52 19 52 52s-19 52 -52 52s-52 -19 -52 -52s19 -52 52 -52z" />
    <glyph glyph-name="AE" unicode="&#xc6;" horiz-adv-x="960" 
d="M480 0l43 201h-263l-161 -201h-69l563 700h445l-12 -58h-345l-54 -253h319l-13 -58h-319l-58 -273h345l-12 -58h-409zM307 259h228l82 387z" />
    <glyph glyph-name="Ccedilla" unicode="&#xc7;" horiz-adv-x="640" 
d="M350 -230c-37 0 -58 6 -75 16l14 39c19 -10 36 -13 64 -13c36 0 73 19 73 60c0 28 -30 38 -58 38c-9 0 -26 0 -34 -3l29 84c-152 9 -239 86 -239 255c0 109 42 266 129 359c69 73 156 105 272 105c84 0 136 -20 171 -38l-15 -69c-44 33 -94 49 -165 49
c-94 0 -160 -21 -220 -89c-62 -70 -104 -197 -104 -316c0 -139 73 -199 209 -199c75 0 144 27 183 47l-14 -66c-38 -17 -100 -37 -166 -39l-16 -44c57 0 94 -18 94 -62c0 -72 -65 -114 -132 -114z" />
    <glyph glyph-name="Egrave" unicode="&#xc8;" 
d="M110 0l149 700h409l-12 -58h-345l-54 -253h319l-13 -58h-319l-58 -273h345l-12 -58h-409zM456 785l-78 130h82l50 -130h-54z" />
    <glyph glyph-name="Eacute" unicode="&#xc9;" 
d="M110 0l149 700h409l-12 -58h-345l-54 -253h319l-13 -58h-319l-58 -273h345l-12 -58h-409zM452 770l114 140h86l-144 -140h-56z" />
    <glyph glyph-name="Ecircumflex" unicode="&#xca;" 
d="M110 0l149 700h409l-12 -58h-345l-54 -253h319l-13 -58h-319l-58 -273h345l-12 -58h-409zM319 770l153 140h74l93 -140h-54l-82 100l-124 -100h-60z" />
    <glyph glyph-name="Edieresis" unicode="&#xcb;" 
d="M110 0l149 700h409l-12 -58h-345l-54 -253h319l-13 -58h-319l-58 -273h345l-12 -58h-409zM397 796c-28 0 -44 16 -44 44s16 44 44 44s44 -16 44 -44s-16 -44 -44 -44zM589 796c-28 0 -44 16 -44 44s16 44 44 44s44 -16 44 -44s-16 -44 -44 -44z" />
    <glyph glyph-name="Igrave" unicode="&#xcc;" horiz-adv-x="294" 
d="M115 0l149 700h64l-149 -700h-64zM288 785l-78 130h82l50 -130h-54z" />
    <glyph glyph-name="Iacute" unicode="&#xcd;" horiz-adv-x="294" 
d="M115 0l149 700h64l-149 -700h-64zM284 770l114 140h86l-144 -140h-56z" />
    <glyph glyph-name="Icircumflex" unicode="&#xce;" horiz-adv-x="294" 
d="M115 0l149 700h64l-149 -700h-64zM151 770l153 140h74l93 -140h-54l-82 100l-124 -100h-60z" />
    <glyph glyph-name="Idieresis" unicode="&#xcf;" horiz-adv-x="294" 
d="M115 0l149 700h64l-149 -700h-64zM230 796c-28 0 -44 16 -44 44s16 44 44 44s44 -16 44 -44s-16 -44 -44 -44zM422 796c-28 0 -44 16 -44 44s16 44 44 44s44 -16 44 -44s-16 -44 -44 -44z" />
    <glyph glyph-name="Eth" unicode="&#xd0;" horiz-adv-x="730" 
d="M91 332l12 56h99l66 312c57 4 112 5 192 5c170 0 291 -68 291 -251c0 -165 -60 -309 -145 -375c-83 -64 -178 -84 -313 -84c-75 0 -125 4 -173 8l70 329h-99zM196 58c38 -4 63 -5 97 -5c119 0 205 12 272 71s118 167 118 326c0 156 -100 197 -238 197
c-48 0 -80 0 -125 -3l-54 -256h205l-12 -56h-205z" />
    <glyph glyph-name="Ntilde" unicode="&#xd1;" horiz-adv-x="750" 
d="M110 0l149 700h64l228 -500c18 -40 31 -70 48 -115c7 45 12 75 20 115l106 500h64l-149 -700h-64l-228 500c-18 40 -31 70 -48 115c-7 -45 -12 -75 -20 -115l-106 -500h-64zM450 795l-41 11c5 49 38 80 81 80c24 0 43 -11 70 -23c24 -11 42 -22 59 -22s33 11 40 43
l40 -11c-7 -52 -43 -79 -79 -79c-20 0 -33 4 -72 23c-23 11 -39 22 -56 22s-34 -10 -42 -44z" />
    <glyph glyph-name="Ograve" unicode="&#xd2;" horiz-adv-x="760" 
d="M398 -10c-170 0 -269 108 -269 275c0 132 50 284 154 370c71 59 143 75 239 75c170 0 258 -107 258 -273c0 -155 -64 -304 -155 -375c-67 -52 -143 -72 -227 -72zM404 48c86 0 145 23 193 69c80 78 115 208 115 317c0 140 -63 218 -208 218c-71 0 -122 -15 -171 -53
c-97 -75 -136 -223 -136 -334c0 -134 67 -217 207 -217zM521 785l-78 130h82l50 -130h-54z" />
    <glyph glyph-name="Oacute" unicode="&#xd3;" horiz-adv-x="760" 
d="M398 -10c-170 0 -269 108 -269 275c0 132 50 284 154 370c71 59 143 75 239 75c170 0 258 -107 258 -273c0 -155 -64 -304 -155 -375c-67 -52 -143 -72 -227 -72zM404 48c86 0 145 23 193 69c80 78 115 208 115 317c0 140 -63 218 -208 218c-71 0 -122 -15 -171 -53
c-97 -75 -136 -223 -136 -334c0 -134 67 -217 207 -217zM516 770l114 140h86l-144 -140h-56z" />
    <glyph glyph-name="Ocircumflex" unicode="&#xd4;" horiz-adv-x="760" 
d="M398 -10c-170 0 -269 108 -269 275c0 132 50 284 154 370c71 59 143 75 239 75c170 0 258 -107 258 -273c0 -155 -64 -304 -155 -375c-67 -52 -143 -72 -227 -72zM404 48c86 0 145 23 193 69c80 78 115 208 115 317c0 140 -63 218 -208 218c-71 0 -122 -15 -171 -53
c-97 -75 -136 -223 -136 -334c0 -134 67 -217 207 -217zM384 770l153 140h74l93 -140h-54l-82 100l-124 -100h-60z" />
    <glyph glyph-name="Otilde" unicode="&#xd5;" horiz-adv-x="760" 
d="M398 -10c-170 0 -269 108 -269 275c0 132 50 284 154 370c71 59 143 75 239 75c170 0 258 -107 258 -273c0 -155 -64 -304 -155 -375c-67 -52 -143 -72 -227 -72zM404 48c86 0 145 23 193 69c80 78 115 208 115 317c0 140 -63 218 -208 218c-71 0 -122 -15 -171 -53
c-97 -75 -136 -223 -136 -334c0 -134 67 -217 207 -217zM456 795l-41 11c5 49 38 80 81 80c24 0 43 -11 70 -23c24 -11 42 -22 59 -22s33 11 40 43l40 -11c-7 -52 -43 -79 -79 -79c-20 0 -33 4 -72 23c-23 11 -39 22 -56 22s-34 -10 -42 -44z" />
    <glyph glyph-name="Odieresis" unicode="&#xd6;" horiz-adv-x="760" 
d="M398 -10c-170 0 -269 108 -269 275c0 132 50 284 154 370c71 59 143 75 239 75c170 0 258 -107 258 -273c0 -155 -64 -304 -155 -375c-67 -52 -143 -72 -227 -72zM404 48c86 0 145 23 193 69c80 78 115 208 115 317c0 140 -63 218 -208 218c-71 0 -122 -15 -171 -53
c-97 -75 -136 -223 -136 -334c0 -134 67 -217 207 -217zM463 796c-28 0 -44 16 -44 44s16 44 44 44s44 -16 44 -44s-16 -44 -44 -44zM655 796c-28 0 -44 16 -44 44s16 44 44 44s44 -16 44 -44s-16 -44 -44 -44z" />
    <glyph glyph-name="multiply" unicode="&#xd7;" 
d="M226 150l-41 41l139 139l-139 139l41 41l139 -139l139 139l41 -41l-139 -139l139 -139l-41 -41l-139 139z" />
    <glyph glyph-name="Oslash" unicode="&#xd8;" horiz-adv-x="760" 
d="M398 -10c-82 0 -146 25 -192 69l-87 -89l-34 28l92 94c-32 46 -48 104 -48 173c0 132 50 284 154 370c71 59 143 75 239 75c82 0 145 -25 188 -70l82 85l33 -29l-88 -90c28 -45 43 -102 43 -169c0 -155 -64 -304 -155 -375c-67 -52 -143 -72 -227 -72zM197 265
c0 -49 9 -91 27 -125l440 453c-34 39 -86 59 -160 59c-71 0 -122 -15 -171 -53c-97 -75 -136 -223 -136 -334zM404 48c86 0 145 23 193 69c80 78 115 208 115 317c0 48 -8 89 -23 122l-439 -452c34 -36 85 -56 154 -56z" />
    <glyph glyph-name="Ugrave" unicode="&#xd9;" horiz-adv-x="730" 
d="M364 -10c-120 0 -210 58 -210 188c0 29 6 79 19 140l81 382h64l-82 -385c-12 -57 -19 -106 -19 -132c0 -102 60 -135 155 -135c159 0 214 65 246 218l92 434h64l-92 -431c-41 -191 -120 -279 -318 -279zM507 785l-78 130h82l50 -130h-54z" />
    <glyph glyph-name="Uacute" unicode="&#xda;" horiz-adv-x="730" 
d="M364 -10c-120 0 -210 58 -210 188c0 29 6 79 19 140l81 382h64l-82 -385c-12 -57 -19 -106 -19 -132c0 -102 60 -135 155 -135c159 0 214 65 246 218l92 434h64l-92 -431c-41 -191 -120 -279 -318 -279zM501 770l114 140h86l-144 -140h-56z" />
    <glyph glyph-name="Ucircumflex" unicode="&#xdb;" horiz-adv-x="730" 
d="M364 -10c-120 0 -210 58 -210 188c0 29 6 79 19 140l81 382h64l-82 -385c-12 -57 -19 -106 -19 -132c0 -102 60 -135 155 -135c159 0 214 65 246 218l92 434h64l-92 -431c-41 -191 -120 -279 -318 -279zM369 770l153 140h74l93 -140h-54l-82 100l-124 -100h-60z" />
    <glyph glyph-name="Udieresis" unicode="&#xdc;" horiz-adv-x="730" 
d="M364 -10c-120 0 -210 58 -210 188c0 29 6 79 19 140l81 382h64l-82 -385c-12 -57 -19 -106 -19 -132c0 -102 60 -135 155 -135c159 0 214 65 246 218l92 434h64l-92 -431c-41 -191 -120 -279 -318 -279zM448 796c-28 0 -44 16 -44 44s16 44 44 44s44 -16 44 -44
s-16 -44 -44 -44zM640 796c-28 0 -44 16 -44 44s16 44 44 44s44 -16 44 -44s-16 -44 -44 -44z" />
    <glyph glyph-name="Yacute" unicode="&#xdd;" horiz-adv-x="600" 
d="M268 0l60 280l-154 420h67l129 -358l280 358h74l-332 -419l-60 -281h-64zM435 770l114 140h86l-144 -140h-56z" />
    <glyph glyph-name="Thorn" unicode="&#xde;" horiz-adv-x="620" 
d="M110 0l149 700h64l-24 -115c32 2 68 4 109 4c164 0 230 -66 230 -176c0 -216 -131 -282 -329 -282c-48 0 -76 1 -106 4l-29 -135h-64zM215 193c31 -3 61 -4 106 -4c156 0 249 44 249 214c0 74 -38 128 -172 128c-40 0 -71 -1 -112 -4z" />
    <glyph glyph-name="germandbls" unicode="&#xdf;" horiz-adv-x="610" 
d="M96 0l105 498c33 155 105 262 275 262c81 0 154 -34 154 -130c0 -95 -53 -188 -147 -218l-1 -3c78 -9 110 -60 110 -131c0 -146 -104 -288 -259 -288c-27 0 -55 2 -76 10l11 55c20 -6 42 -10 71 -10c122 0 191 113 191 225c0 83 -57 106 -125 106h-53l12 55h45
c94 0 157 93 157 181c0 57 -35 94 -107 94c-122 0 -174 -94 -196 -198l-107 -508h-60z" />
    <glyph glyph-name="agrave" unicode="&#xe0;" horiz-adv-x="625" 
d="M479 0l11 100c-47 -73 -106 -110 -196 -110c-121 0 -184 69 -184 182c0 179 78 358 287 358c82 0 148 -42 163 -130l40 120h40l-111 -520h-50zM172 183c0 -92 50 -139 139 -139c121 0 183 87 205 182l14 61c4 17 5 33 5 49c0 81 -43 140 -143 140
c-160 0 -220 -152 -220 -293zM453 615h-54l-106 130h84z" />
    <glyph glyph-name="aacute" unicode="&#xe1;" horiz-adv-x="625" 
d="M479 0l11 100c-47 -73 -106 -110 -196 -110c-121 0 -184 69 -184 182c0 179 78 358 287 358c82 0 148 -42 163 -130l40 120h40l-111 -520h-50zM172 183c0 -92 50 -139 139 -139c121 0 183 87 205 182l14 61c4 17 5 33 5 49c0 81 -43 140 -143 140
c-160 0 -220 -152 -220 -293zM399 615l104 130h84l-134 -130h-54z" />
    <glyph glyph-name="acircumflex" unicode="&#xe2;" horiz-adv-x="625" 
d="M479 0l11 100c-47 -73 -106 -110 -196 -110c-121 0 -184 69 -184 182c0 179 78 358 287 358c82 0 148 -42 163 -130l40 120h40l-111 -520h-50zM172 183c0 -92 50 -139 139 -139c121 0 183 87 205 182l14 61c4 17 5 33 5 49c0 81 -43 140 -143 140
c-160 0 -220 -152 -220 -293zM281 615l138 130h70l82 -130h-52l-70 90l-110 -90h-58z" />
    <glyph glyph-name="atilde" unicode="&#xe3;" horiz-adv-x="625" 
d="M479 0l11 100c-47 -73 -106 -110 -196 -110c-121 0 -184 69 -184 182c0 179 78 358 287 358c82 0 148 -42 163 -130l40 120h40l-111 -520h-50zM172 183c0 -92 50 -139 139 -139c121 0 183 87 205 182l14 61c4 17 5 33 5 49c0 81 -43 140 -143 140
c-160 0 -220 -152 -220 -293zM341 635l-41 11c5 49 33 80 76 80c24 0 43 -11 70 -23c24 -11 41 -22 59 -22c17 0 28 11 35 43l40 -11c-7 -52 -38 -79 -74 -79c-20 0 -33 4 -72 23c-23 11 -37 22 -56 22c-17 0 -29 -10 -37 -44z" />
    <glyph glyph-name="adieresis" unicode="&#xe4;" horiz-adv-x="625" 
d="M479 0l11 100c-47 -73 -106 -110 -196 -110c-121 0 -184 69 -184 182c0 179 78 358 287 358c82 0 148 -42 163 -130l40 120h40l-111 -520h-50zM172 183c0 -92 50 -139 139 -139c121 0 183 87 205 182l14 61c4 17 5 33 5 49c0 81 -43 140 -143 140
c-160 0 -220 -152 -220 -293zM362 638c-27 0 -42 15 -42 42s15 42 42 42s42 -15 42 -42s-15 -42 -42 -42zM518 638c-27 0 -42 15 -42 42s15 42 42 42s42 -15 42 -42s-15 -42 -42 -42z" />
    <glyph glyph-name="aring" unicode="&#xe5;" horiz-adv-x="625" 
d="M479 0l11 100c-47 -73 -106 -110 -196 -110c-121 0 -184 69 -184 182c0 179 78 358 287 358c82 0 148 -42 163 -130l40 120h40l-111 -520h-50zM172 183c0 -92 50 -139 139 -139c121 0 183 87 205 182l14 61c4 17 5 33 5 49c0 81 -43 140 -143 140
c-160 0 -220 -152 -220 -293zM439 590c-54 0 -90 36 -90 90s36 90 90 90s90 -36 90 -90s-36 -90 -90 -90zM439 630c31 0 50 19 50 50s-19 50 -50 50s-50 -19 -50 -50s19 -50 50 -50z" />
    <glyph glyph-name="ae" unicode="&#xe6;" horiz-adv-x="890" 
d="M649 245h-140c-3 -22 -3 -43 -3 -61c0 -93 55 -140 161 -140c67 0 136 33 180 64l-12 -64c-31 -20 -97 -54 -171 -54c-12 0 -24 0 -35 1c-98 8 -151 52 -169 119c-45 -67 -108 -120 -230 -120v0c-93 0 -147 46 -147 114c0 159 115 193 255 193h123l8 38c1 6 3 13 4 19
c2 11 4 22 4 31c5 67 -34 91 -118 91c-61 0 -135 -28 -174 -56l15 72c39 20 118 38 178 38c12 0 24 0 34 -1c75 -6 113 -32 122 -85c50 60 117 86 200 86c123 0 176 -57 176 -136c0 -101 -87 -149 -261 -149zM722 476c-99 0 -173 -59 -202 -180h135c135 0 196 28 196 91
c0 7 -1 14 -2 21c-10 40 -49 68 -127 68zM330 247c-94 0 -183 -13 -183 -125c0 -49 37 -78 105 -78c103 0 168 64 189 159l9 44h-120z" />
    <glyph glyph-name="ccedilla" unicode="&#xe7;" horiz-adv-x="540" 
d="M275 -84l26 75c-125 6 -191 85 -191 207c0 195 98 332 298 332c68 0 123 -16 147 -33l-15 -69c-25 20 -76 48 -143 48c-147 0 -225 -103 -225 -268c0 -91 48 -164 165 -164c59 0 129 28 171 59l-14 -66c-32 -22 -90 -42 -154 -46l-13 -38c59 -1 93 -21 81 -78
c-11 -50 -58 -85 -119 -85c-31 0 -49 6 -66 15l14 38c18 -9 31 -13 55 -13c32 0 58 14 65 47c8 34 -23 41 -50 41c-8 0 -24 0 -32 -2z" />
    <glyph glyph-name="egrave" unicode="&#xe8;" horiz-adv-x="560" 
d="M312 -10c-133 0 -199 74 -199 215c0 185 114 325 278 325c140 0 189 -60 189 -136c0 -109 -103 -149 -260 -149h-140c-2 -12 -5 -35 -5 -58c0 -84 42 -143 152 -143c65 0 143 21 191 64l-13 -64c-41 -31 -118 -54 -193 -54zM326 295c162 0 192 44 192 92
c0 46 -29 89 -121 89c-106 0 -177 -59 -206 -181h135zM438 615h-54l-106 130h84z" />
    <glyph glyph-name="eacute" unicode="&#xe9;" horiz-adv-x="560" 
d="M312 -10c-133 0 -199 74 -199 215c0 185 114 325 278 325c140 0 189 -60 189 -136c0 -109 -103 -149 -260 -149h-140c-2 -12 -5 -35 -5 -58c0 -84 42 -143 152 -143c65 0 143 21 191 64l-13 -64c-41 -31 -118 -54 -193 -54zM326 295c162 0 192 44 192 92
c0 46 -29 89 -121 89c-106 0 -177 -59 -206 -181h135zM384 615l104 130h84l-134 -130h-54z" />
    <glyph glyph-name="ecircumflex" unicode="&#xea;" horiz-adv-x="560" 
d="M312 -10c-133 0 -199 74 -199 215c0 185 114 325 278 325c140 0 189 -60 189 -136c0 -109 -103 -149 -260 -149h-140c-2 -12 -5 -35 -5 -58c0 -84 42 -143 152 -143c65 0 143 21 191 64l-13 -64c-41 -31 -118 -54 -193 -54zM326 295c162 0 192 44 192 92
c0 46 -29 89 -121 89c-106 0 -177 -59 -206 -181h135zM265 615l138 130h70l82 -130h-52l-70 90l-110 -90h-58z" />
    <glyph glyph-name="edieresis" unicode="&#xeb;" horiz-adv-x="560" 
d="M312 -10c-133 0 -199 74 -199 215c0 185 114 325 278 325c140 0 189 -60 189 -136c0 -109 -103 -149 -260 -149h-140c-2 -12 -5 -35 -5 -58c0 -84 42 -143 152 -143c65 0 143 21 191 64l-13 -64c-41 -31 -118 -54 -193 -54zM326 295c162 0 192 44 192 92
c0 46 -29 89 -121 89c-106 0 -177 -59 -206 -181h135zM346 638c-27 0 -42 15 -42 42s15 42 42 42s42 -15 42 -42s-15 -42 -42 -42zM502 638c-27 0 -42 15 -42 42s15 42 42 42s42 -15 42 -42s-15 -42 -42 -42z" />
    <glyph glyph-name="igrave" unicode="&#xec;" horiz-adv-x="280" 
d="M170 0h-60l111 520h60zM297 615h-54l-106 130h84z" />
    <glyph glyph-name="iacute" unicode="&#xed;" horiz-adv-x="280" 
d="M170 0h-60l111 520h60zM246 615l104 130h84l-134 -130h-54z" />
    <glyph glyph-name="icircumflex" unicode="&#xee;" horiz-adv-x="280" 
d="M170 0h-60l111 520h60zM127 615l138 130h70l82 -130h-52l-70 90l-110 -90h-58z" />
    <glyph glyph-name="idieresis" unicode="&#xef;" horiz-adv-x="280" 
d="M170 0h-60l111 520h60zM206 638c-27 0 -42 15 -42 42s15 42 42 42s42 -15 42 -42s-15 -42 -42 -42zM362 638c-27 0 -42 15 -42 42s15 42 42 42s42 -15 42 -42s-15 -42 -42 -42z" />
    <glyph glyph-name="eth" unicode="&#xf0;" horiz-adv-x="563" 
d="M315 570l-14 35l116 54c-34 25 -76 44 -123 56l26 45c60 -16 112 -41 153 -75l140 65l14 -35l-125 -58c58 -62 89 -146 89 -248c0 -259 -117 -419 -302 -419c-120 0 -183 62 -183 176c0 199 118 344 282 344c65 0 119 -28 139 -77l3 2c0 79 -29 147 -81 197zM300 44
c124 0 223 128 223 290c0 86 -46 122 -135 122c-128 0 -220 -116 -220 -278c0 -95 53 -134 132 -134z" />
    <glyph glyph-name="ntilde" unicode="&#xf1;" horiz-adv-x="605" 
d="M95 0l111 520h50l-12 -100c46 72 112 110 202 110c101 0 154 -31 154 -121c0 -21 -3 -48 -9 -77l-71 -332h-60l68 322c5 26 8 49 8 68c0 65 -36 86 -118 86c-105 0 -176 -65 -197 -165l-66 -311h-60zM353 635l-41 11c5 49 33 80 76 80c24 0 43 -11 70 -23
c24 -11 41 -22 59 -22c17 0 28 11 35 43l40 -11c-7 -52 -38 -79 -74 -79c-20 0 -33 4 -72 23c-23 11 -37 22 -56 22c-17 0 -29 -10 -37 -44z" />
    <glyph glyph-name="ograve" unicode="&#xf2;" horiz-adv-x="600" 
d="M110 184c0 216 111 346 297 346c114 0 190 -67 190 -192c0 -216 -101 -348 -273 -348c-148 0 -214 80 -214 194zM172 203c0 -97 41 -159 154 -159c141 0 209 120 209 276c0 100 -41 156 -134 156c-136 0 -229 -100 -229 -273zM458 615h-54l-106 130h84z" />
    <glyph glyph-name="oacute" unicode="&#xf3;" horiz-adv-x="600" 
d="M110 184c0 216 111 346 297 346c114 0 190 -67 190 -192c0 -216 -101 -348 -273 -348c-148 0 -214 80 -214 194zM172 203c0 -97 41 -159 154 -159c141 0 209 120 209 276c0 100 -41 156 -134 156c-136 0 -229 -100 -229 -273zM405 615l104 130h84l-134 -130h-54z" />
    <glyph glyph-name="ocircumflex" unicode="&#xf4;" horiz-adv-x="600" 
d="M110 184c0 216 111 346 297 346c114 0 190 -67 190 -192c0 -216 -101 -348 -273 -348c-148 0 -214 80 -214 194zM172 203c0 -97 41 -159 154 -159c141 0 209 120 209 276c0 100 -41 156 -134 156c-136 0 -229 -100 -229 -273zM285 615l138 130h70l82 -130h-52l-70 90
l-110 -90h-58z" />
    <glyph glyph-name="otilde" unicode="&#xf5;" horiz-adv-x="600" 
d="M110 184c0 216 111 346 297 346c114 0 190 -67 190 -192c0 -216 -101 -348 -273 -348c-148 0 -214 80 -214 194zM172 203c0 -97 41 -159 154 -159c141 0 209 120 209 276c0 100 -41 156 -134 156c-136 0 -229 -100 -229 -273zM345 635l-41 11c5 49 33 80 76 80
c24 0 43 -11 70 -23c24 -11 41 -22 59 -22c17 0 28 11 35 43l40 -11c-7 -52 -38 -79 -74 -79c-20 0 -33 4 -72 23c-23 11 -37 22 -56 22c-17 0 -29 -10 -37 -44z" />
    <glyph glyph-name="odieresis" unicode="&#xf6;" horiz-adv-x="600" 
d="M110 184c0 216 111 346 297 346c114 0 190 -67 190 -192c0 -216 -101 -348 -273 -348c-148 0 -214 80 -214 194zM172 203c0 -97 41 -159 154 -159c141 0 209 120 209 276c0 100 -41 156 -134 156c-136 0 -229 -100 -229 -273zM366 638c-27 0 -42 15 -42 42s15 42 42 42
s42 -15 42 -42s-15 -42 -42 -42zM522 638c-27 0 -42 15 -42 42s15 42 42 42s42 -15 42 -42s-15 -42 -42 -42z" />
    <glyph glyph-name="divide" unicode="&#xf7;" 
d="M155 357h420v-54h-420v54zM365 130c-33 0 -50 17 -50 50s17 50 50 50s50 -17 50 -50s-17 -50 -50 -50zM365 430c-33 0 -50 17 -50 50s17 50 50 50s50 -17 50 -50s-17 -50 -50 -50z" />
    <glyph glyph-name="oslash" unicode="&#xf8;" horiz-adv-x="600" 
d="M110 184c0 216 111 346 297 346c56 0 103 -16 136 -48l62 64l31 -26l-68 -69c19 -30 29 -68 29 -113c0 -216 -101 -348 -273 -348c-70 0 -122 17 -157 48l-63 -65l-30 26l67 69c-21 32 -31 71 -31 116zM172 203c0 -34 5 -63 16 -87l312 322c-22 25 -54 38 -99 38
c-136 0 -229 -100 -229 -273zM535 320c0 32 -5 60 -14 82l-311 -319c25 -25 62 -39 116 -39c141 0 209 120 209 276z" />
    <glyph glyph-name="ugrave" unicode="&#xf9;" horiz-adv-x="600" 
d="M126 167l75 353h60l-72 -341c-4 -19 -6 -35 -6 -50c0 -61 34 -85 109 -85c113 0 176 63 198 166l66 310h60l-111 -520h-50l11 100c-47 -78 -116 -110 -203 -110c-97 0 -144 41 -144 119c0 17 3 37 7 58zM455 615h-54l-106 130h84z" />
    <glyph glyph-name="uacute" unicode="&#xfa;" horiz-adv-x="600" 
d="M126 167l75 353h60l-72 -341c-4 -19 -6 -35 -6 -50c0 -61 34 -85 109 -85c113 0 176 63 198 166l66 310h60l-111 -520h-50l11 100c-47 -78 -116 -110 -203 -110c-97 0 -144 41 -144 119c0 17 3 37 7 58zM403 615l104 130h84l-134 -130h-54z" />
    <glyph glyph-name="ucircumflex" unicode="&#xfb;" horiz-adv-x="600" 
d="M126 167l75 353h60l-72 -341c-4 -19 -6 -35 -6 -50c0 -61 34 -85 109 -85c113 0 176 63 198 166l66 310h60l-111 -520h-50l11 100c-47 -78 -116 -110 -203 -110c-97 0 -144 41 -144 119c0 17 3 37 7 58zM283 615l138 130h70l82 -130h-52l-70 90l-110 -90h-58z" />
    <glyph glyph-name="udieresis" unicode="&#xfc;" horiz-adv-x="600" 
d="M126 167l75 353h60l-72 -341c-4 -19 -6 -35 -6 -50c0 -61 34 -85 109 -85c113 0 176 63 198 166l66 310h60l-111 -520h-50l11 100c-47 -78 -116 -110 -203 -110c-97 0 -144 41 -144 119c0 17 3 37 7 58zM364 638c-27 0 -42 15 -42 42s15 42 42 42s42 -15 42 -42
s-15 -42 -42 -42zM520 638c-27 0 -42 15 -42 42s15 42 42 42s42 -15 42 -42s-15 -42 -42 -42z" />
    <glyph glyph-name="yacute" unicode="&#xfd;" horiz-adv-x="520" 
d="M61 -178l13 62c11 -9 23 -17 47 -17c42 0 70 42 126 140l-111 513h64l91 -445l248 445h67l-307 -534c-86 -149 -129 -176 -190 -176c-22 0 -37 6 -48 12zM365 615l104 130h84l-134 -130h-54z" />
    <glyph glyph-name="thorn" unicode="&#xfe;" horiz-adv-x="625" 
d="M57 -180l197 930h60l-69 -330c44 75 100 110 191 110c128 0 190 -68 190 -181c0 -179 -77 -359 -286 -359c-91 0 -151 51 -160 127l-63 -297h-60zM345 44c160 0 219 153 219 294c0 92 -49 138 -138 138c-121 0 -189 -85 -209 -181l-13 -61c-23 -106 23 -190 141 -190z
" />
    <glyph glyph-name="ydieresis" unicode="&#xff;" horiz-adv-x="520" 
d="M61 -178l13 62c11 -9 23 -17 47 -17c42 0 70 42 126 140l-111 513h64l91 -445l248 445h67l-307 -534c-86 -149 -129 -176 -190 -176c-22 0 -37 6 -48 12zM326 638c-27 0 -42 15 -42 42s15 42 42 42s42 -15 42 -42s-15 -42 -42 -42zM482 638c-27 0 -42 15 -42 42
s15 42 42 42s42 -15 42 -42s-15 -42 -42 -42z" />
    <glyph glyph-name="Amacron" unicode="&#x100;" horiz-adv-x="660" 
d="M30 0l418 700h64l118 -700h-65l-32 201h-316l-118 -201h-69zM466 625l-215 -366h273zM369 815v51h280v-51h-280z" />
    <glyph glyph-name="amacron" unicode="&#x101;" horiz-adv-x="625" 
d="M479 0l11 100c-47 -73 -106 -110 -196 -110c-121 0 -184 69 -184 182c0 179 78 358 287 358c82 0 148 -42 163 -130l40 120h40l-111 -520h-50zM172 183c0 -92 50 -139 139 -139c121 0 183 87 205 182l14 61c4 17 5 33 5 49c0 81 -43 140 -143 140
c-160 0 -220 -152 -220 -293zM310 657v46h260v-46h-260z" />
    <glyph glyph-name="Abreve" unicode="&#x102;" horiz-adv-x="660" 
d="M30 0l418 700h64l118 -700h-65l-32 201h-316l-118 -201h-69zM466 625l-215 -366h273zM375 892l45 13c5 -50 25 -82 85 -82s94 32 121 82l39 -13c-37 -75 -95 -117 -170 -117s-115 42 -120 117z" />
    <glyph glyph-name="abreve" unicode="&#x103;" horiz-adv-x="625" 
d="M479 0l11 100c-47 -73 -106 -110 -196 -110c-121 0 -184 69 -184 182c0 179 78 358 287 358c82 0 148 -42 163 -130l40 120h40l-111 -520h-50zM172 183c0 -92 50 -139 139 -139c121 0 183 87 205 182l14 61c4 17 5 33 5 49c0 81 -43 140 -143 140
c-160 0 -220 -152 -220 -293zM306 732l43 13c5 -50 27 -84 87 -84s96 34 123 84l37 -13c-39 -75 -95 -117 -170 -117s-113 42 -120 117z" />
    <glyph glyph-name="Aogonek" unicode="&#x104;" horiz-adv-x="660" 
d="M530 -230c-55 0 -82 25 -82 65c0 72 69 128 126 165h-9l-32 201h-316l-118 -201h-69l418 700h64l118 -700h-12c-45 -29 -112 -88 -112 -144c0 -24 19 -39 52 -39c22 0 45 5 66 17l-9 -45c-25 -11 -53 -19 -85 -19zM466 625l-215 -366h273z" />
    <glyph glyph-name="aogonek" unicode="&#x105;" horiz-adv-x="625" 
d="M443 -210c-51 0 -77 25 -77 62c0 65 61 115 113 148l11 100c-47 -73 -106 -110 -196 -110c-121 0 -184 69 -184 182c0 179 78 358 287 358c82 0 148 -42 163 -130l40 120h40l-111 -520h-6c-43 -28 -99 -76 -99 -132c0 -21 13 -35 43 -35c19 0 38 5 59 16l-8 -41
c-22 -10 -46 -18 -75 -18zM172 183c0 -92 50 -139 139 -139c121 0 183 87 205 182l14 61c4 17 5 33 5 49c0 81 -43 140 -143 140c-160 0 -220 -152 -220 -293z" />
    <glyph glyph-name="Cacute" unicode="&#x106;" horiz-adv-x="640" 
d="M696 672l-15 -69c-44 33 -94 49 -165 49c-94 0 -160 -21 -220 -89c-62 -70 -104 -197 -104 -316c0 -139 73 -199 209 -199c75 0 144 27 183 47l-14 -66c-39 -17 -104 -39 -173 -39c-173 0 -273 75 -273 256c0 109 42 266 129 359c69 73 156 105 272 105
c84 0 136 -20 171 -38zM509 770l114 140h86l-144 -140h-56z" />
    <glyph glyph-name="cacute" unicode="&#x107;" horiz-adv-x="540" 
d="M508 103l-14 -66c-35 -24 -103 -47 -176 -47c-136 0 -208 81 -208 208c0 195 98 332 298 332c68 0 123 -16 147 -33l-15 -69c-25 20 -76 48 -143 48c-147 0 -225 -103 -225 -268c0 -91 48 -164 165 -164c59 0 129 28 171 59zM400 615l104 130h84l-134 -130h-54z" />
    <glyph glyph-name="Ccircumflex" unicode="&#x108;" horiz-adv-x="640" 
d="M696 672l-15 -69c-44 33 -94 49 -165 49c-94 0 -160 -21 -220 -89c-62 -70 -104 -197 -104 -316c0 -139 73 -199 209 -199c75 0 144 27 183 47l-14 -66c-39 -17 -104 -39 -173 -39c-173 0 -273 75 -273 256c0 109 42 266 129 359c69 73 156 105 272 105
c84 0 136 -20 171 -38zM379 770l153 140h74l93 -140h-54l-82 100l-124 -100h-60z" />
    <glyph glyph-name="ccircumflex" unicode="&#x109;" horiz-adv-x="540" 
d="M508 103l-14 -66c-35 -24 -103 -47 -176 -47c-136 0 -208 81 -208 208c0 195 98 332 298 332c68 0 123 -16 147 -33l-15 -69c-25 20 -76 48 -143 48c-147 0 -225 -103 -225 -268c0 -91 48 -164 165 -164c59 0 129 28 171 59zM285 615l138 130h70l82 -130h-52l-70 90
l-110 -90h-58z" />
    <glyph glyph-name="Cdotaccent" unicode="&#x10a;" horiz-adv-x="640" 
d="M696 672l-15 -69c-44 33 -94 49 -165 49c-94 0 -160 -21 -220 -89c-62 -70 -104 -197 -104 -316c0 -139 73 -199 209 -199c75 0 144 27 183 47l-14 -66c-39 -17 -104 -39 -173 -39c-173 0 -273 75 -273 256c0 109 42 266 129 359c69 73 156 105 272 105
c84 0 136 -20 171 -38zM554 796c-28 0 -44 16 -44 44s16 44 44 44s44 -16 44 -44s-16 -44 -44 -44z" />
    <glyph glyph-name="cdotaccent" unicode="&#x10b;" horiz-adv-x="540" 
d="M508 103l-14 -66c-35 -24 -103 -47 -176 -47c-136 0 -208 81 -208 208c0 195 98 332 298 332c68 0 123 -16 147 -33l-15 -69c-25 20 -76 48 -143 48c-147 0 -225 -103 -225 -268c0 -91 48 -164 165 -164c59 0 129 28 171 59zM444 638c-27 0 -42 15 -42 42s15 42 42 42
s42 -15 42 -42s-15 -42 -42 -42z" />
    <glyph glyph-name="Ccaron" unicode="&#x10c;" horiz-adv-x="640" 
d="M696 672l-15 -69c-44 33 -94 49 -165 49c-94 0 -160 -21 -220 -89c-62 -70 -104 -197 -104 -316c0 -139 73 -199 209 -199c75 0 144 27 183 47l-14 -66c-39 -17 -104 -39 -173 -39c-173 0 -273 75 -273 256c0 109 42 266 129 359c69 73 156 105 272 105
c84 0 136 -20 171 -38zM501 770l-93 140h54l82 -100l124 100h60l-153 -140h-74z" />
    <glyph glyph-name="ccaron" unicode="&#x10d;" horiz-adv-x="540" 
d="M508 103l-14 -66c-35 -24 -103 -47 -176 -47c-136 0 -208 81 -208 208c0 195 98 332 298 332c68 0 123 -16 147 -33l-15 -69c-25 20 -76 48 -143 48c-147 0 -225 -103 -225 -268c0 -91 48 -164 165 -164c59 0 129 28 171 59zM395 615l-82 130h52l70 -90l110 90h58
l-138 -130h-70z" />
    <glyph glyph-name="Dcaron" unicode="&#x10e;" horiz-adv-x="720" 
d="M283 -48c-75 0 -125 4 -173 8l148 697c57 4 112 5 192 5c170 0 291 -68 291 -251c0 -165 -60 -309 -145 -375c-83 -64 -178 -84 -313 -84zM186 15c38 -4 63 -5 97 -5c119 0 205 12 272 71s118 167 118 326c0 156 -100 197 -238 197c-48 0 -80 0 -125 -3zM454 770l-93 140
h54l82 -100l124 100h60l-153 -140h-74z" />
    <glyph glyph-name="dcaron" unicode="&#x10f;" horiz-adv-x="670" 
d="M480 0l13 100c-44 -75 -102 -110 -193 -110c-128 0 -190 69 -190 182c0 179 77 358 286 358c92 0 152 -48 160 -129l73 349h60l-159 -750h-50zM172 183c0 -92 49 -139 142 -139c118 0 185 86 204 182l12 61c21 106 -20 189 -136 189c-163 0 -222 -152 -222 -293zM746 550
l93 200h70l-113 -200h-50z" />
    <glyph glyph-name="Dcroat" unicode="&#x110;" horiz-adv-x="730" 
d="M91 332l12 56h99l66 312c57 4 112 5 192 5c170 0 291 -68 291 -251c0 -165 -60 -309 -145 -375c-83 -64 -178 -84 -313 -84c-75 0 -125 4 -173 8l70 329h-99zM196 58c38 -4 63 -5 97 -5c119 0 205 12 272 71s118 167 118 326c0 156 -100 197 -238 197
c-48 0 -80 0 -125 -3l-54 -256h205l-12 -56h-205z" />
    <glyph glyph-name="dcroat" unicode="&#x111;" horiz-adv-x="624" 
d="M387 605l11 50h211l20 95h60l-20 -95h99l-11 -50h-99l-128 -605h-50l13 100c-44 -75 -102 -110 -193 -110c-128 0 -190 69 -190 182c0 179 77 358 286 358c92 0 152 -48 160 -129l42 204h-211zM172 183c0 -92 49 -139 142 -139c118 0 185 86 204 182l12 61
c21 106 -20 189 -136 189c-163 0 -222 -152 -222 -293z" />
    <glyph glyph-name="Emacron" unicode="&#x112;" 
d="M110 0l149 700h409l-12 -58h-345l-54 -253h319l-13 -58h-319l-58 -273h345l-12 -58h-409zM354 815v51h280v-51h-280z" />
    <glyph glyph-name="emacron" unicode="&#x113;" horiz-adv-x="560" 
d="M312 -10c-133 0 -199 74 -199 215c0 185 114 325 278 325c140 0 189 -60 189 -136c0 -109 -103 -149 -260 -149h-140c-2 -12 -5 -35 -5 -58c0 -84 42 -143 152 -143c65 0 143 21 191 64l-13 -64c-41 -31 -118 -54 -193 -54zM326 295c162 0 192 44 192 92
c0 46 -29 89 -121 89c-106 0 -177 -59 -206 -181h135zM294 657v46h260v-46h-260z" />
    <glyph glyph-name="Edotaccent" unicode="&#x116;" 
d="M110 0l149 700h409l-12 -58h-345l-54 -253h319l-13 -58h-319l-58 -273h345l-12 -58h-409zM493 796c-28 0 -44 16 -44 44s16 44 44 44s44 -16 44 -44s-16 -44 -44 -44z" />
    <glyph glyph-name="edotaccent" unicode="&#x117;" horiz-adv-x="560" 
d="M312 -10c-133 0 -199 74 -199 215c0 185 114 325 278 325c140 0 189 -60 189 -136c0 -109 -103 -149 -260 -149h-140c-2 -12 -5 -35 -5 -58c0 -84 42 -143 152 -143c65 0 143 21 191 64l-13 -64c-41 -31 -118 -54 -193 -54zM326 295c162 0 192 44 192 92
c0 46 -29 89 -121 89c-106 0 -177 -59 -206 -181h135zM424 638c-27 0 -42 15 -42 42s15 42 42 42s42 -15 42 -42s-15 -42 -42 -42z" />
    <glyph glyph-name="Eogonek" unicode="&#x118;" 
d="M110 0l149 700h409l-12 -58h-345l-54 -253h319l-13 -58h-319l-58 -273h345l-12 -58h-42c-45 -29 -112 -88 -112 -144c0 -24 19 -39 52 -39c22 0 45 5 66 17l-9 -45c-25 -11 -53 -19 -85 -19c-55 0 -82 25 -82 65c0 72 69 128 126 165h-323z" />
    <glyph glyph-name="eogonek" unicode="&#x119;" horiz-adv-x="560" 
d="M312 -10c-133 0 -199 74 -199 215c0 185 114 325 278 325c140 0 189 -60 189 -136c0 -109 -103 -149 -260 -149h-140c-2 -12 -5 -35 -5 -58c0 -84 42 -143 152 -143c65 0 143 21 191 64l-13 -64c-29 -22 -77 -40 -129 -48c-41 -29 -92 -75 -92 -128c0 -21 13 -35 43 -35
c19 0 38 5 59 16l-8 -41c-22 -10 -46 -18 -75 -18c-51 0 -77 25 -77 62c0 59 49 105 97 138h-11zM326 295c162 0 192 44 192 92c0 46 -29 89 -121 89c-106 0 -177 -59 -206 -181h135z" />
    <glyph glyph-name="Ecaron" unicode="&#x11a;" 
d="M110 0l149 700h409l-12 -58h-345l-54 -253h319l-13 -58h-319l-58 -273h345l-12 -58h-409zM441 770l-93 140h54l82 -100l124 100h60l-153 -140h-74z" />
    <glyph glyph-name="ecaron" unicode="&#x11b;" horiz-adv-x="560" 
d="M312 -10c-133 0 -199 74 -199 215c0 185 114 325 278 325c140 0 189 -60 189 -136c0 -109 -103 -149 -260 -149h-140c-2 -12 -5 -35 -5 -58c0 -84 42 -143 152 -143c65 0 143 21 191 64l-13 -64c-41 -31 -118 -54 -193 -54zM326 295c162 0 192 44 192 92
c0 46 -29 89 -121 89c-106 0 -177 -59 -206 -181h135zM375 615l-82 130h52l70 -90l110 90h58l-138 -130h-70z" />
    <glyph glyph-name="Gcircumflex" unicode="&#x11c;" horiz-adv-x="680" 
d="M407 -10c-170 0 -282 80 -282 260c0 151 72 314 160 384c67 54 140 76 263 76c70 0 130 -25 160 -39l-15 -70c-33 25 -99 51 -160 51c-88 0 -140 -10 -202 -57c-82 -63 -138 -208 -138 -343c0 -155 86 -204 228 -204c48 0 102 12 139 28l45 214h-160l12 58h222l-67 -314
c-41 -17 -117 -44 -205 -44zM387 770l153 140h74l93 -140h-54l-82 100l-124 -100h-60z" />
    <glyph glyph-name="gcircumflex" unicode="&#x11d;" horiz-adv-x="619" 
d="M259 -190c-84 0 -141 22 -174 42l16 73c22 -27 83 -61 164 -61c127 0 185 48 206 151l21 102c-44 -75 -99 -117 -190 -117c-128 0 -189 69 -189 185c0 181 73 345 282 345c91 0 154 -54 162 -135l39 125h40l-107 -502c-32 -151 -125 -208 -270 -208zM316 54
c117 0 184 91 203 187l9 46c21 106 -20 189 -135 189c-163 0 -218 -137 -218 -280c0 -95 48 -142 141 -142zM279 615l138 130h70l82 -130h-52l-70 90l-110 -90h-58z" />
    <glyph glyph-name="Gbreve" unicode="&#x11e;" horiz-adv-x="680" 
d="M407 -10c-170 0 -282 80 -282 260c0 151 72 314 160 384c67 54 140 76 263 76c70 0 130 -25 160 -39l-15 -70c-33 25 -99 51 -160 51c-88 0 -140 -10 -202 -57c-82 -63 -138 -208 -138 -343c0 -155 86 -204 228 -204c48 0 102 12 139 28l45 214h-160l12 58h222l-67 -314
c-41 -17 -117 -44 -205 -44zM427 892l45 13c5 -50 25 -82 85 -82s94 32 121 82l39 -13c-37 -75 -95 -117 -170 -117s-115 42 -120 117z" />
    <glyph glyph-name="gbreve" unicode="&#x11f;" horiz-adv-x="619" 
d="M259 -190c-84 0 -141 22 -174 42l16 73c22 -27 83 -61 164 -61c127 0 185 48 206 151l21 102c-44 -75 -99 -117 -190 -117c-128 0 -189 69 -189 185c0 181 73 345 282 345c91 0 154 -54 162 -135l39 125h40l-107 -502c-32 -151 -125 -208 -270 -208zM316 54
c117 0 184 91 203 187l9 46c21 106 -20 189 -135 189c-163 0 -218 -137 -218 -280c0 -95 48 -142 141 -142zM303 732l43 13c5 -50 27 -84 87 -84s96 34 123 84l37 -13c-39 -75 -95 -117 -170 -117s-113 42 -120 117z" />
    <glyph glyph-name="Gdotaccent" unicode="&#x120;" horiz-adv-x="680" 
d="M407 -10c-170 0 -282 80 -282 260c0 151 72 314 160 384c67 54 140 76 263 76c70 0 130 -25 160 -39l-15 -70c-33 25 -99 51 -160 51c-88 0 -140 -10 -202 -57c-82 -63 -138 -208 -138 -343c0 -155 86 -204 228 -204c48 0 102 12 139 28l45 214h-160l12 58h222l-67 -314
c-41 -17 -117 -44 -205 -44zM561 796c-28 0 -44 16 -44 44s16 44 44 44s44 -16 44 -44s-16 -44 -44 -44z" />
    <glyph glyph-name="gdotaccent" unicode="&#x121;" horiz-adv-x="619" 
d="M259 -190c-84 0 -141 22 -174 42l16 73c22 -27 83 -61 164 -61c127 0 185 48 206 151l21 102c-44 -75 -99 -117 -190 -117c-128 0 -189 69 -189 185c0 181 73 345 282 345c91 0 154 -54 162 -135l39 125h40l-107 -502c-32 -151 -125 -208 -270 -208zM316 54
c117 0 184 91 203 187l9 46c21 106 -20 189 -135 189c-163 0 -218 -137 -218 -280c0 -95 48 -142 141 -142zM437 638c-27 0 -42 15 -42 42s15 42 42 42s42 -15 42 -42s-15 -42 -42 -42z" />
    <glyph glyph-name="Gcommaaccent" unicode="&#x122;" horiz-adv-x="680" 
d="M407 -10c-170 0 -282 80 -282 260c0 151 72 314 160 384c67 54 140 76 263 76c70 0 130 -25 160 -39l-15 -70c-33 25 -99 51 -160 51c-88 0 -140 -10 -202 -57c-82 -63 -138 -208 -138 -343c0 -155 86 -204 228 -204c48 0 102 12 139 28l45 214h-160l12 58h222l-67 -314
c-41 -17 -117 -44 -205 -44zM285 -230l7 35c36 12 58 28 68 65h-10c-26 0 -40 13 -40 32c0 32 20 48 60 48c25 0 44 -12 44 -41c0 -62 -58 -124 -129 -139z" />
    <glyph glyph-name="gcommaaccent" unicode="&#x123;" horiz-adv-x="619" 
d="M259 -190c-84 0 -141 22 -174 42l16 73c22 -27 83 -61 164 -61c127 0 185 48 206 151l21 102c-44 -75 -99 -117 -190 -117c-128 0 -189 69 -189 185c0 181 73 345 282 345c91 0 154 -54 162 -135l39 125h40l-107 -502c-32 -151 -125 -208 -270 -208zM316 54
c117 0 184 91 203 187l9 46c21 106 -20 189 -135 189c-163 0 -218 -137 -218 -280c0 -95 48 -142 141 -142zM509 818l3 -32c-32 -12 -62 -31 -72 -70c6 1 11 1 14 1c22 0 36 -13 36 -31c0 -32 -24 -48 -62 -48c-25 0 -42 12 -42 41c0 66 62 124 123 139z" />
    <glyph glyph-name="Hcircumflex" unicode="&#x124;" horiz-adv-x="760" 
d="M110 0l149 700h64l-66 -311h412l66 311h64l-149 -700h-64l70 331h-412l-70 -331h-64zM384 770l153 140h74l93 -140h-54l-82 100l-124 -100h-60z" />
    <glyph glyph-name="hcircumflex" unicode="&#x125;" horiz-adv-x="605" 
d="M95 0l159 750h59l-70 -332c47 70 110 112 205 112c106 0 152 -38 152 -119c0 -21 -2 -45 -8 -72l-72 -339h-60l69 329c5 22 7 45 7 61c0 65 -36 86 -118 86c-112 0 -178 -74 -196 -161l-67 -315h-60zM145 775l138 130h70l82 -130h-52l-70 90l-110 -90h-58z" />
    <glyph glyph-name="Hbar" unicode="&#x126;" horiz-adv-x="800" 
d="M141 522l12 56h99l26 122h64l-26 -122h412l26 122h64l-26 -122h101l-12 -56h-101l-111 -522h-64l70 331h-412l-70 -331h-64l111 522h-99zM276 389h412l28 133h-412z" />
    <glyph glyph-name="hbar" unicode="&#x127;" horiz-adv-x="605" 
d="M123 605l11 50h100l20 95h59l-20 -95h211l-11 -50h-211l-39 -187c47 70 110 112 205 112c106 0 152 -38 152 -119c0 -21 -2 -45 -8 -72l-72 -339h-60l69 329c5 22 7 45 7 61c0 65 -36 86 -118 86c-112 0 -178 -74 -196 -161l-67 -315h-60l128 605h-100z" />
    <glyph glyph-name="Imacron" unicode="&#x12a;" horiz-adv-x="294" 
d="M115 0l149 700h64l-149 -700h-64zM186 815v51h280v-51h-280z" />
    <glyph glyph-name="imacron" unicode="&#x12b;" horiz-adv-x="280" 
d="M170 0h-60l111 520h60zM155 657v46h260v-46h-260z" />
    <glyph glyph-name="Iogonek" unicode="&#x12e;" horiz-adv-x="294" 
d="M115 0l149 700h64l-149 -700h-11c-45 -29 -112 -88 -112 -144c0 -24 19 -39 52 -39c22 0 45 5 66 17l-9 -45c-25 -11 -53 -19 -85 -19c-55 0 -82 25 -82 65c0 72 69 128 126 165h-9z" />
    <glyph glyph-name="iogonek" unicode="&#x12f;" horiz-adv-x="280" 
d="M81 -210c-51 0 -77 25 -77 62c0 65 61 115 113 148h-7l111 520h60l-111 -520h-9c-43 -28 -99 -76 -99 -132c0 -21 13 -35 43 -35c19 0 38 5 59 16l-8 -41c-22 -10 -46 -18 -75 -18zM285 638c-27 0 -42 15 -42 42s15 42 42 42s42 -15 42 -42s-15 -42 -42 -42z" />
    <glyph glyph-name="Idotaccent" unicode="&#x130;" horiz-adv-x="294" 
d="M115 0l149 700h64l-149 -700h-64zM325 796c-28 0 -44 16 -44 44s16 44 44 44s44 -16 44 -44s-16 -44 -44 -44z" />
    <glyph glyph-name="dotlessi" unicode="&#x131;" horiz-adv-x="280" 
d="M170 0h-60l111 520h60z" />
    <glyph glyph-name="Jcircumflex" unicode="&#x134;" horiz-adv-x="390" 
d="M120 -5c-34 0 -68 8 -96 24l13 62c32 -21 57 -28 91 -28c72 0 105 30 124 118l112 529h64l-114 -538c-25 -117 -83 -167 -194 -167zM251 770l153 140h74l93 -140h-54l-82 100l-124 -100h-60z" />
    <glyph glyph-name="jcircumflex" unicode="&#x135;" horiz-adv-x="280" 
d="M-67 -176l14 65c14 -11 36 -17 65 -17c52 0 77 26 91 92l118 556h60l-118 -553c-23 -106 -73 -152 -167 -152c-27 0 -51 3 -63 9zM127 615l138 130h70l82 -130h-52l-70 90l-110 -90h-58z" />
    <glyph glyph-name="Kcommaaccent" unicode="&#x136;" horiz-adv-x="680" 
d="M576 0l-270 331h-62l-70 -331h-64l149 700h64l-66 -311h53l364 311h86l-402 -340l292 -360h-74zM282 -230l7 35c36 12 58 28 68 65h-10c-26 0 -40 13 -40 32c0 32 20 48 60 48c25 0 44 -12 44 -41c0 -62 -58 -124 -129 -139z" />
    <glyph glyph-name="kcommaaccent" unicode="&#x137;" horiz-adv-x="540" 
d="M95 0l159 750h60l-96 -453h38l264 223h80l-294 -254l204 -266h-75l-191 243h-37l-52 -243h-60zM180 -230l-3 32c32 12 62 31 72 70c-6 -1 -11 -1 -14 -1c-22 0 -36 13 -36 31c0 32 24 48 62 48c25 0 42 -12 42 -41c0 -66 -62 -124 -123 -139z" />
    <glyph glyph-name="Lacute" unicode="&#x139;" horiz-adv-x="555" 
d="M110 0l149 700h64l-137 -642h346l-12 -58h-410zM278 770l114 140h86l-144 -140h-56z" />
    <glyph glyph-name="lacute" unicode="&#x13a;" horiz-adv-x="310" 
d="M211 -5c-65 0 -97 22 -97 76c0 11 1 23 4 37l136 642h60l-132 -624c-3 -13 -4 -24 -4 -33c0 -32 15 -44 56 -44c19 0 41 6 65 16l-11 -53c-16 -7 -46 -17 -77 -17zM262 775l104 130h84l-134 -130h-54z" />
    <glyph glyph-name="Lcommaaccent" unicode="&#x13b;" horiz-adv-x="555" 
d="M110 0l149 700h64l-137 -642h346l-12 -58h-410zM218 -230l7 35c36 12 58 28 68 65h-10c-26 0 -40 13 -40 32c0 32 20 48 60 48c25 0 44 -12 44 -41c0 -62 -58 -124 -129 -139z" />
    <glyph glyph-name="lcommaaccent" unicode="&#x13c;" horiz-adv-x="310" 
d="M211 -5c-65 0 -97 22 -97 76c0 11 1 23 4 37l136 642h60l-132 -624c-3 -13 -4 -24 -4 -33c0 -32 15 -44 56 -44c19 0 41 6 65 16l-11 -53c-16 -7 -46 -17 -77 -17zM95 -230l-3 32c32 12 62 31 72 70c-6 -1 -11 -1 -14 -1c-22 0 -36 13 -36 31c0 32 24 48 62 48
c25 0 42 -12 42 -41c0 -66 -62 -124 -123 -139z" />
    <glyph glyph-name="Lcaron" unicode="&#x13d;" horiz-adv-x="555" 
d="M110 0l149 700h64l-137 -642h346l-12 -58h-410zM380 500l93 200h70l-113 -200h-50z" />
    <glyph glyph-name="lcaron" unicode="&#x13e;" horiz-adv-x="296" 
d="M211 -5c-65 0 -97 22 -97 76c0 11 1 23 4 37l136 642h60l-132 -624c-3 -13 -4 -24 -4 -33c0 -32 15 -44 56 -44c19 0 41 6 65 16l-11 -53c-16 -7 -46 -17 -77 -17zM372 550l93 200h70l-113 -200h-50z" />
    <glyph glyph-name="Ldot" unicode="&#x13f;" horiz-adv-x="555" 
d="M110 0l149 700h64l-137 -642h346l-12 -58h-410zM500 329c-33 0 -50 17 -50 50s17 50 50 50s50 -17 50 -50s-17 -50 -50 -50z" />
    <glyph glyph-name="ldot" unicode="&#x140;" horiz-adv-x="330" 
d="M211 -5c-65 0 -97 22 -97 76c0 11 1 23 4 37l136 642h60l-132 -624c-3 -13 -4 -24 -4 -33c0 -32 15 -44 56 -44c19 0 41 6 65 16l-11 -53c-16 -7 -46 -17 -77 -17zM374 330c-33 0 -50 17 -50 50s17 50 50 50s50 -17 50 -50s-17 -50 -50 -50z" />
    <glyph glyph-name="Lslash" unicode="&#x141;" horiz-adv-x="575" 
d="M89 273l13 64l112 58l65 305h64l-57 -268l190 98l-13 -64l-191 -99l-66 -309h346l-12 -58h-410l70 330z" />
    <glyph glyph-name="lslash" unicode="&#x142;" horiz-adv-x="345" 
d="M96 312l13 62l112 58l68 318h60l-60 -283l123 63l-13 -62l-123 -64l-59 -278c-3 -13 -4 -24 -4 -33c0 -32 15 -44 56 -44c19 0 41 6 65 16l-11 -53c-16 -7 -46 -17 -77 -17c-65 0 -97 22 -97 76c0 11 1 23 4 37l55 262z" />
    <glyph glyph-name="Nacute" unicode="&#x143;" horiz-adv-x="750" 
d="M110 0l149 700h64l228 -500c18 -40 31 -70 48 -115c7 45 12 75 20 115l106 500h64l-149 -700h-64l-228 500c-18 40 -31 70 -48 115c-7 -45 -12 -75 -20 -115l-106 -500h-64zM511 770l114 140h86l-144 -140h-56z" />
    <glyph glyph-name="nacute" unicode="&#x144;" horiz-adv-x="605" 
d="M95 0l111 520h50l-12 -100c46 72 112 110 202 110c101 0 154 -31 154 -121c0 -21 -3 -48 -9 -77l-71 -332h-60l68 322c5 26 8 49 8 68c0 65 -36 86 -118 86c-105 0 -176 -65 -197 -165l-66 -311h-60zM412 615l104 130h84l-134 -130h-54z" />
    <glyph glyph-name="Ncommaaccent" unicode="&#x145;" horiz-adv-x="750" 
d="M110 0l149 700h64l228 -500c18 -40 31 -70 48 -115c7 45 12 75 20 115l106 500h64l-149 -700h-64l-228 500c-18 40 -31 70 -48 115c-7 -45 -12 -75 -20 -115l-106 -500h-64zM277 -230l7 35c36 12 58 28 68 65h-10c-26 0 -40 13 -40 32c0 32 20 48 60 48
c25 0 44 -12 44 -41c0 -62 -58 -124 -129 -139z" />
    <glyph glyph-name="ncommaaccent" unicode="&#x146;" horiz-adv-x="605" 
d="M95 0l111 520h50l-12 -100c46 72 112 110 202 110c101 0 154 -31 154 -121c0 -21 -3 -48 -9 -77l-71 -332h-60l68 322c5 26 8 49 8 68c0 65 -36 86 -118 86c-105 0 -176 -65 -197 -165l-66 -311h-60zM215 -230l-3 32c32 12 62 31 72 70c-6 -1 -11 -1 -14 -1
c-22 0 -36 13 -36 31c0 32 24 48 62 48c25 0 42 -12 42 -41c0 -66 -62 -124 -123 -139z" />
    <glyph glyph-name="Ncaron" unicode="&#x147;" horiz-adv-x="750" 
d="M110 0l149 700h64l228 -500c18 -40 31 -70 48 -115c7 45 12 75 20 115l106 500h64l-149 -700h-64l-228 500c-18 40 -31 70 -48 115c-7 -45 -12 -75 -20 -115l-106 -500h-64zM501 770l-93 140h54l82 -100l124 100h60l-153 -140h-74z" />
    <glyph glyph-name="ncaron" unicode="&#x148;" horiz-adv-x="605" 
d="M95 0l111 520h50l-12 -100c46 72 112 110 202 110c101 0 154 -31 154 -121c0 -21 -3 -48 -9 -77l-71 -332h-60l68 322c5 26 8 49 8 68c0 65 -36 86 -118 86c-105 0 -176 -65 -197 -165l-66 -311h-60zM403 615l-82 130h52l70 -90l110 90h58l-138 -130h-70z" />
    <glyph glyph-name="Omacron" unicode="&#x14c;" horiz-adv-x="760" 
d="M398 -10c-170 0 -269 108 -269 275c0 132 50 284 154 370c71 59 143 75 239 75c170 0 258 -107 258 -273c0 -155 -64 -304 -155 -375c-67 -52 -143 -72 -227 -72zM404 48c86 0 145 23 193 69c80 78 115 208 115 317c0 140 -63 218 -208 218c-71 0 -122 -15 -171 -53
c-97 -75 -136 -223 -136 -334c0 -134 67 -217 207 -217zM419 815v51h280v-51h-280z" />
    <glyph glyph-name="omacron" unicode="&#x14d;" horiz-adv-x="600" 
d="M110 184c0 216 111 346 297 346c114 0 190 -67 190 -192c0 -216 -101 -348 -273 -348c-148 0 -214 80 -214 194zM172 203c0 -97 41 -159 154 -159c141 0 209 120 209 276c0 100 -41 156 -134 156c-136 0 -229 -100 -229 -273zM315 657v46h260v-46h-260z" />
    <glyph glyph-name="Ohungarumlaut" unicode="&#x150;" horiz-adv-x="760" 
d="M398 -10c-170 0 -269 108 -269 275c0 132 50 284 154 370c71 59 143 75 239 75c170 0 258 -107 258 -273c0 -155 -64 -304 -155 -375c-67 -52 -143 -72 -227 -72zM404 48c86 0 145 23 193 69c80 78 115 208 115 317c0 140 -63 218 -208 218c-71 0 -122 -15 -171 -53
c-97 -75 -136 -223 -136 -334c0 -134 67 -217 207 -217zM429 770l98 140h84l-126 -140h-56zM583 770l126 140h90l-156 -140h-60z" />
    <glyph glyph-name="ohungarumlaut" unicode="&#x151;" horiz-adv-x="600" 
d="M110 184c0 216 111 346 297 346c114 0 190 -67 190 -192c0 -216 -101 -348 -273 -348c-148 0 -214 80 -214 194zM172 203c0 -97 41 -159 154 -159c141 0 209 120 209 276c0 100 -41 156 -134 156c-136 0 -229 -100 -229 -273zM330 615l96 130h82l-124 -130h-54zM466 615
l124 130h88l-154 -130h-58z" />
    <glyph glyph-name="OE" unicode="&#x152;" horiz-adv-x="950" 
d="M879 0h-401c-25 -6 -53 -10 -81 -10c-173 0 -273 75 -273 256c0 109 42 266 129 359c69 73 156 105 272 105c39 0 72 -4 99 -10h404l-12 -58h-345l-54 -253h319l-13 -58h-319l-58 -273h345zM401 48c27 0 55 4 81 10l124 584c-26 7 -57 10 -90 10c-94 0 -160 -21 -220 -89
c-62 -70 -104 -197 -104 -316c0 -139 73 -199 209 -199z" />
    <glyph glyph-name="oe" unicode="&#x153;" horiz-adv-x="980" 
d="M740 245h-140c-2 -12 -5 -35 -5 -58c0 -84 42 -143 152 -143c65 0 143 21 191 64l-13 -64c-41 -31 -118 -54 -193 -54c-104 0 -163 45 -185 131c-44 -84 -119 -131 -222 -131c-148 0 -214 80 -214 194c0 216 111 346 297 346c94 0 158 -46 178 -132
c47 81 126 132 225 132c140 0 189 -60 189 -136c0 -109 -103 -149 -260 -149zM173 203c0 -97 41 -159 154 -159c141 0 209 120 209 276c0 100 -41 156 -134 156c-136 0 -229 -100 -229 -273zM746 295c162 0 192 44 192 92c0 46 -29 89 -121 89c-106 0 -177 -59 -206 -181
h135z" />
    <glyph glyph-name="Racute" unicode="&#x154;" horiz-adv-x="650" 
d="M110 0l148 695c59 5 124 10 188 10c131 0 205 -58 205 -161c0 -129 -63 -206 -197 -239l161 -305h-69l-160 296h-149l-63 -296h-64zM250 354h116c149 0 217 58 217 184c0 75 -49 109 -152 109c-47 0 -76 0 -120 -5zM434 770l114 140h86l-144 -140h-56z" />
    <glyph glyph-name="racute" unicode="&#x155;" horiz-adv-x="395" 
d="M95 0l111 520h50l-10 -95c39 73 101 105 172 105c20 0 41 -3 53 -8l-16 -65c-17 13 -35 19 -65 19c-87 0 -144 -54 -168 -165l-67 -311h-60zM332 615l104 130h84l-134 -130h-54z" />
    <glyph glyph-name="Rcommaaccent" unicode="&#x156;" horiz-adv-x="650" 
d="M110 0l148 695c59 5 124 10 188 10c131 0 205 -58 205 -161c0 -129 -63 -206 -197 -239l161 -305h-69l-160 296h-149l-63 -296h-64zM250 354h116c149 0 217 58 217 184c0 75 -49 109 -152 109c-47 0 -76 0 -120 -5zM265 -230l7 35c36 12 58 28 68 65h-10
c-26 0 -40 13 -40 32c0 32 20 48 60 48c25 0 44 -12 44 -41c0 -62 -58 -124 -129 -139z" />
    <glyph glyph-name="rcommaaccent" unicode="&#x157;" horiz-adv-x="395" 
d="M95 0l111 520h50l-10 -95c39 73 101 105 172 105c20 0 41 -3 53 -8l-16 -65c-17 13 -35 19 -65 19c-87 0 -144 -54 -168 -165l-67 -311h-60zM31 -230l-3 32c32 12 62 31 72 70c-6 -1 -11 -1 -14 -1c-22 0 -36 13 -36 31c0 32 24 48 62 48c25 0 42 -12 42 -41
c0 -66 -62 -124 -123 -139z" />
    <glyph glyph-name="Rcaron" unicode="&#x158;" horiz-adv-x="650" 
d="M110 0l148 695c59 5 124 10 188 10c131 0 205 -58 205 -161c0 -129 -63 -206 -197 -239l161 -305h-69l-160 296h-149l-63 -296h-64zM250 354h116c149 0 217 58 217 184c0 75 -49 109 -152 109c-47 0 -76 0 -120 -5zM427 770l-93 140h54l82 -100l124 100h60l-153 -140h-74
z" />
    <glyph glyph-name="rcaron" unicode="&#x159;" horiz-adv-x="395" 
d="M95 0l111 520h50l-10 -95c39 73 101 105 172 105c20 0 41 -3 53 -8l-16 -65c-17 13 -35 19 -65 19c-87 0 -144 -54 -168 -165l-67 -311h-60zM323 615l-82 130h52l70 -90l110 90h58l-138 -130h-70z" />
    <glyph glyph-name="Sacute" unicode="&#x15a;" horiz-adv-x="565" 
d="M284 -10c-78 0 -162 24 -202 58l18 79c45 -51 110 -79 183 -79c126 0 193 54 193 159c0 168 -293 103 -293 302c0 122 97 201 246 201c70 0 140 -16 184 -42l-16 -75c-44 39 -99 59 -166 59c-117 0 -180 -46 -180 -133c0 -164 293 -97 293 -308
c0 -139 -96 -221 -260 -221zM404 770l114 140h86l-144 -140h-56z" />
    <glyph glyph-name="sacute" unicode="&#x15b;" horiz-adv-x="470" 
d="M66 25l16 77c29 -35 89 -58 147 -58c102 0 151 42 151 115c0 115 -237 55 -237 203c0 79 37 168 214 168c63 0 111 -16 132 -28l-15 -74c-34 32 -76 48 -127 48c-104 0 -142 -36 -142 -98c0 -113 237 -49 237 -203c0 -115 -74 -185 -226 -185c-67 0 -118 14 -150 35z
M339 615l104 130h84l-134 -130h-54z" />
    <glyph glyph-name="Scircumflex" unicode="&#x15c;" horiz-adv-x="565" 
d="M284 -10c-78 0 -162 24 -202 58l18 79c45 -51 110 -79 183 -79c126 0 193 54 193 159c0 168 -293 103 -293 302c0 122 97 201 246 201c70 0 140 -16 184 -42l-16 -75c-44 39 -99 59 -166 59c-117 0 -180 -46 -180 -133c0 -164 293 -97 293 -308
c0 -139 -96 -221 -260 -221zM291 770l153 140h74l93 -140h-54l-82 100l-124 -100h-60z" />
    <glyph glyph-name="scircumflex" unicode="&#x15d;" horiz-adv-x="470" 
d="M66 25l16 77c29 -35 89 -58 147 -58c102 0 151 42 151 115c0 115 -237 55 -237 203c0 79 37 168 214 168c63 0 111 -16 132 -28l-15 -74c-34 32 -76 48 -127 48c-104 0 -142 -36 -142 -98c0 -113 237 -49 237 -203c0 -115 -74 -185 -226 -185c-67 0 -118 14 -150 35z
M221 615l138 130h70l82 -130h-52l-70 90l-110 -90h-58z" />
    <glyph glyph-name="Scedilla" unicode="&#x15e;" horiz-adv-x="565" 
d="M250 -230c-37 0 -58 6 -75 16l14 39c19 -10 36 -13 64 -13c36 0 73 19 73 60c0 28 -30 38 -58 38c-9 0 -26 0 -34 -3l28 84c-71 4 -144 26 -180 57l18 79c45 -51 110 -79 183 -79c126 0 193 54 193 159c0 168 -293 103 -293 302c0 122 97 201 246 201
c70 0 140 -16 184 -42l-16 -75c-44 39 -99 59 -166 59c-117 0 -180 -46 -180 -133c0 -164 293 -97 293 -308c0 -133 -88 -214 -240 -220l-16 -45c57 0 94 -18 94 -62c0 -72 -65 -114 -132 -114z" />
    <glyph glyph-name="scedilla" unicode="&#x15f;" horiz-adv-x="470" 
d="M185 -84l26 74c-65 1 -114 14 -145 35l16 77c29 -35 89 -58 147 -58c102 0 151 42 151 115c0 115 -237 55 -237 203c0 79 37 168 214 168c63 0 111 -16 132 -28l-15 -74c-34 32 -76 48 -127 48c-104 0 -142 -36 -142 -98c0 -113 237 -49 237 -203
c0 -106 -63 -174 -192 -184l-13 -38c59 -1 93 -21 81 -78c-11 -50 -58 -85 -119 -85c-31 0 -49 6 -66 15l14 38c18 -9 31 -13 55 -13c32 0 58 14 65 47c8 34 -23 41 -50 41c-8 0 -24 0 -32 -2z" />
    <glyph glyph-name="Scaron" unicode="&#x160;" horiz-adv-x="565" 
d="M284 -10c-78 0 -162 24 -202 58l18 79c45 -51 110 -79 183 -79c126 0 193 54 193 159c0 168 -293 103 -293 302c0 122 97 201 246 201c70 0 140 -16 184 -42l-16 -75c-44 39 -99 59 -166 59c-117 0 -180 -46 -180 -133c0 -164 293 -97 293 -308
c0 -139 -96 -221 -260 -221zM414 770l-93 140h54l82 -100l124 100h60l-153 -140h-74z" />
    <glyph glyph-name="scaron" unicode="&#x161;" horiz-adv-x="470" 
d="M66 25l16 77c29 -35 89 -58 147 -58c102 0 151 42 151 115c0 115 -237 55 -237 203c0 79 37 168 214 168c63 0 111 -16 132 -28l-15 -74c-34 32 -76 48 -127 48c-104 0 -142 -36 -142 -98c0 -113 237 -49 237 -203c0 -115 -74 -185 -226 -185c-67 0 -118 14 -150 35z
M330 615l-82 130h52l70 -90l110 90h58l-138 -130h-70z" />
    <glyph glyph-name="Tcedilla" unicode="&#x162;" horiz-adv-x="570" 
d="M253 0l136 642h-227l12 58h519l-12 -58h-228l-136 -642h-11l-20 -54c57 0 94 -18 94 -62c0 -72 -65 -114 -132 -114c-37 0 -58 6 -75 16l14 39c19 -10 36 -13 64 -13c36 0 73 19 73 60c0 28 -30 38 -58 38c-9 0 -26 0 -34 -3l32 93h-11z" />
    <glyph glyph-name="tcedilla" unicode="&#x163;" horiz-adv-x="410" 
d="M217 -84l28 80c-65 3 -97 24 -97 87c0 16 3 35 7 56l69 327h-104l11 54h104l23 108l65 22l-28 -130h176l-12 -54h-175l-69 -326c-3 -16 -5 -29 -5 -40c0 -42 22 -51 65 -51c48 0 86 15 111 29l-12 -59c-19 -11 -54 -21 -91 -23l-14 -43c59 -1 93 -21 81 -78
c-11 -50 -58 -85 -119 -85c-31 0 -49 6 -66 15l14 38c18 -9 31 -13 55 -13c32 0 58 14 65 47c8 34 -23 41 -50 41c-8 0 -24 0 -32 -2z" />
    <glyph glyph-name="Tcaron" unicode="&#x164;" horiz-adv-x="570" 
d="M253 0l136 642h-227l12 58h519l-12 -58h-228l-136 -642h-64zM412 770l-93 140h54l82 -100l124 100h60l-153 -140h-74z" />
    <glyph glyph-name="tcaron" unicode="&#x165;" horiz-adv-x="410" 
d="M155 139l69 327h-104l11 54h104l23 108l65 22l-28 -130h176l-12 -54h-175l-69 -326c-3 -16 -5 -29 -5 -40c0 -42 22 -51 65 -51c48 0 86 15 111 29l-12 -59c-22 -13 -67 -24 -110 -24c-77 0 -116 20 -116 88c0 16 3 35 7 56zM405 570l93 200h70l-113 -200h-50z" />
    <glyph glyph-name="Umacron" unicode="&#x16a;" horiz-adv-x="730" 
d="M364 -10c-120 0 -210 58 -210 188c0 29 6 79 19 140l81 382h64l-82 -385c-12 -57 -19 -106 -19 -132c0 -102 60 -135 155 -135c159 0 214 65 246 218l92 434h64l-92 -431c-41 -191 -120 -279 -318 -279zM404 815v51h280v-51h-280z" />
    <glyph glyph-name="umacron" unicode="&#x16b;" horiz-adv-x="600" 
d="M126 167l75 353h60l-72 -341c-4 -19 -6 -35 -6 -50c0 -61 34 -85 109 -85c113 0 176 63 198 166l66 310h60l-111 -520h-50l11 100c-47 -78 -116 -110 -203 -110c-97 0 -144 41 -144 119c0 17 3 37 7 58zM312 657v46h260v-46h-260z" />
    <glyph glyph-name="Ubreve" unicode="&#x16c;" horiz-adv-x="730" 
d="M364 -10c-120 0 -210 58 -210 188c0 29 6 79 19 140l81 382h64l-82 -385c-12 -57 -19 -106 -19 -132c0 -102 60 -135 155 -135c159 0 214 65 246 218l92 434h64l-92 -431c-41 -191 -120 -279 -318 -279zM410 892l45 13c5 -50 25 -82 85 -82s94 32 121 82l39 -13
c-37 -75 -95 -117 -170 -117s-115 42 -120 117z" />
    <glyph glyph-name="ubreve" unicode="&#x16d;" horiz-adv-x="600" 
d="M126 167l75 353h60l-72 -341c-4 -19 -6 -35 -6 -50c0 -61 34 -85 109 -85c113 0 176 63 198 166l66 310h60l-111 -520h-50l11 100c-47 -78 -116 -110 -203 -110c-97 0 -144 41 -144 119c0 17 3 37 7 58zM308 732l43 13c5 -50 27 -84 87 -84s96 34 123 84l37 -13
c-39 -75 -95 -117 -170 -117s-113 42 -120 117z" />
    <glyph glyph-name="Uring" unicode="&#x16e;" horiz-adv-x="730" 
d="M364 -10c-120 0 -210 58 -210 188c0 29 6 79 19 140l81 382h64l-82 -385c-12 -57 -19 -106 -19 -132c0 -102 60 -135 155 -135c159 0 214 65 246 218l92 434h64l-92 -431c-41 -191 -120 -279 -318 -279zM543 748c-54 0 -92 38 -92 92s38 92 92 92s92 -38 92 -92
s-38 -92 -92 -92zM543 788c33 0 52 19 52 52s-19 52 -52 52s-52 -19 -52 -52s19 -52 52 -52z" />
    <glyph glyph-name="uring" unicode="&#x16f;" horiz-adv-x="600" 
d="M126 167l75 353h60l-72 -341c-4 -19 -6 -35 -6 -50c0 -61 34 -85 109 -85c113 0 176 63 198 166l66 310h60l-111 -520h-50l11 100c-47 -78 -116 -110 -203 -110c-97 0 -144 41 -144 119c0 17 3 37 7 58zM442 590c-54 0 -90 36 -90 90s36 90 90 90s90 -36 90 -90
s-36 -90 -90 -90zM442 630c31 0 50 19 50 50s-19 50 -50 50s-50 -19 -50 -50s19 -50 50 -50z" />
    <glyph glyph-name="Uhungarumlaut" unicode="&#x170;" horiz-adv-x="730" 
d="M364 -10c-120 0 -210 58 -210 188c0 29 6 79 19 140l81 382h64l-82 -385c-12 -57 -19 -106 -19 -132c0 -102 60 -135 155 -135c159 0 214 65 246 218l92 434h64l-92 -431c-41 -191 -120 -279 -318 -279zM433 795l96 130h82l-124 -130h-54zM569 795l124 130h88l-154 -130
h-58z" />
    <glyph glyph-name="uhungarumlaut" unicode="&#x171;" horiz-adv-x="600" 
d="M126 167l75 353h60l-72 -341c-4 -19 -6 -35 -6 -50c0 -61 34 -85 109 -85c113 0 176 63 198 166l66 310h60l-111 -520h-50l11 100c-47 -78 -116 -110 -203 -110c-97 0 -144 41 -144 119c0 17 3 37 7 58zM330 615l96 130h82l-124 -130h-54zM466 615l124 130h88l-154 -130
h-58z" />
    <glyph glyph-name="Uogonek" unicode="&#x172;" horiz-adv-x="730" 
d="M362 -210c-51 0 -77 25 -77 62c0 59 49 105 97 138h-18c-120 0 -210 58 -210 188c0 29 6 79 19 140l81 382h64l-82 -385c-12 -57 -19 -106 -19 -132c0 -102 60 -135 155 -135c159 0 214 65 246 218l92 434h64l-92 -431c-36 -167 -101 -256 -249 -275
c-41 -29 -90 -74 -90 -126c0 -21 13 -35 43 -35c19 0 38 5 59 16l-8 -41c-22 -10 -46 -18 -75 -18z" />
    <glyph glyph-name="uogonek" unicode="&#x173;" horiz-adv-x="600" 
d="M418 -210c-51 0 -77 25 -77 62c0 66 62 116 114 149l11 99c-47 -78 -116 -110 -203 -110c-97 0 -144 41 -144 119c0 17 3 37 7 58l75 353h60l-72 -341c-4 -19 -6 -35 -6 -50c0 -61 34 -85 109 -85c113 0 176 63 198 166l66 310h60l-111 -520h-7c-43 -28 -99 -76 -99 -132
c0 -21 13 -35 43 -35c19 0 38 5 59 16l-8 -41c-22 -10 -46 -18 -75 -18z" />
    <glyph glyph-name="Ydieresis" unicode="&#x178;" horiz-adv-x="600" 
d="M268 0l60 280l-154 420h67l129 -358l280 358h74l-332 -419l-60 -281h-64zM383 796c-28 0 -44 16 -44 44s16 44 44 44s44 -16 44 -44s-16 -44 -44 -44zM575 796c-28 0 -44 16 -44 44s16 44 44 44s44 -16 44 -44s-16 -44 -44 -44z" />
    <glyph glyph-name="Zacute" unicode="&#x179;" 
d="M50 0l9 43l535 599h-395l12 58h482l-9 -44l-534 -598h412l-12 -58h-500zM437 770l114 140h86l-144 -140h-56z" />
    <glyph glyph-name="zacute" unicode="&#x17a;" horiz-adv-x="490" 
d="M45 0l9 42l406 424h-311l12 54h390l-9 -42l-406 -424h320l-11 -54h-400zM349 615l104 130h84l-134 -130h-54z" />
    <glyph glyph-name="Zdotaccent" unicode="&#x17b;" 
d="M50 0l9 43l535 599h-395l12 58h482l-9 -44l-534 -598h412l-12 -58h-500zM478 796c-28 0 -44 16 -44 44s16 44 44 44s44 -16 44 -44s-16 -44 -44 -44z" />
    <glyph glyph-name="zdotaccent" unicode="&#x17c;" horiz-adv-x="490" 
d="M45 0l9 42l406 424h-311l12 54h390l-9 -42l-406 -424h320l-11 -54h-400zM389 638c-27 0 -42 15 -42 42s15 42 42 42s42 -15 42 -42s-15 -42 -42 -42z" />
    <glyph glyph-name="Zcaron" unicode="&#x17d;" 
d="M50 0l9 43l535 599h-395l12 58h482l-9 -44l-534 -598h412l-12 -58h-500zM426 770l-93 140h54l82 -100l124 100h60l-153 -140h-74z" />
    <glyph glyph-name="zcaron" unicode="&#x17e;" horiz-adv-x="490" 
d="M45 0l9 42l406 424h-311l12 54h390l-9 -42l-406 -424h320l-11 -54h-400zM340 615l-82 130h52l70 -90l110 90h58l-138 -130h-70z" />
    <glyph glyph-name="uni018F" unicode="&#x18f;" horiz-adv-x="680" 
d="M333 -10c-135 0 -218 68 -218 217c0 57 11 108 24 164h489c6 31 11 63 11 94c0 99 -44 187 -203 187c-63 0 -125 -9 -179 -28l12 59c56 16 114 27 185 27c171 0 253 -82 253 -234c0 -218 -124 -486 -374 -486zM345 48c116 0 224 79 270 265h-421c-8 -34 -13 -69 -13 -104
c0 -106 55 -161 164 -161z" />
    <glyph glyph-name="florin" unicode="&#x192;" 
d="M247 466l11 54h100l14 65c26 125 75 175 173 175c20 0 42 -2 65 -6l-12 -55c-10 3 -31 7 -56 7c-66 0 -90 -28 -110 -121l-14 -65h142l-11 -54h-143l-100 -476c-29 -136 -69 -180 -166 -180c-15 0 -28 1 -40 4l12 54c10 -3 19 -4 29 -4c56 0 86 36 105 126l101 476h-100z
" />
    <glyph glyph-name="uni01DD" unicode="&#x1dd;" horiz-adv-x="560" 
d="M350 275h140c2 12 5 35 5 58c0 84 -42 143 -152 143c-65 0 -143 -21 -191 -64l13 64c41 31 118 54 193 54c133 0 199 -74 199 -215c0 -185 -114 -325 -278 -325c-140 0 -189 60 -189 136c0 109 103 149 260 149zM344 225c-162 0 -192 -44 -192 -92c0 -46 29 -89 121 -89
c106 0 177 59 206 181h-135z" />
    <glyph glyph-name="Gcaron" unicode="&#x1e6;" horiz-adv-x="680" 
d="M407 -10c-170 0 -282 80 -282 260c0 151 72 314 160 384c67 54 140 76 263 76c70 0 130 -25 160 -39l-15 -70c-33 25 -99 51 -160 51c-88 0 -140 -10 -202 -57c-82 -63 -138 -208 -138 -343c0 -155 86 -204 228 -204c48 0 102 12 139 28l45 214h-160l12 58h222l-67 -314
c-41 -17 -117 -44 -205 -44zM509 770l-93 140h54l82 -100l124 100h60l-153 -140h-74z" />
    <glyph glyph-name="gcaron" unicode="&#x1e7;" horiz-adv-x="619" 
d="M259 -190c-84 0 -141 22 -174 42l16 73c22 -27 83 -61 164 -61c127 0 185 48 206 151l21 102c-44 -75 -99 -117 -190 -117c-128 0 -189 69 -189 185c0 181 73 345 282 345c91 0 154 -54 162 -135l39 125h40l-107 -502c-32 -151 -125 -208 -270 -208zM316 54
c117 0 184 91 203 187l9 46c21 106 -20 189 -135 189c-163 0 -218 -137 -218 -280c0 -95 48 -142 141 -142zM388 615l-82 130h52l70 -90l110 90h58l-138 -130h-70z" />
    <glyph glyph-name="Scommaaccent" unicode="&#x218;" horiz-adv-x="565" 
d="M284 -10c-78 0 -162 24 -202 58l18 79c45 -51 110 -79 183 -79c126 0 193 54 193 159c0 168 -293 103 -293 302c0 122 97 201 246 201c70 0 140 -16 184 -42l-16 -75c-44 39 -99 59 -166 59c-117 0 -180 -46 -180 -133c0 -164 293 -97 293 -308
c0 -139 -96 -221 -260 -221zM189 -230l7 35c36 12 58 28 68 65h-10c-26 0 -40 13 -40 32c0 32 20 48 60 48c25 0 44 -12 44 -41c0 -62 -58 -124 -129 -139z" />
    <glyph glyph-name="scommaaccent" unicode="&#x219;" horiz-adv-x="470" 
d="M66 25l16 77c29 -35 89 -58 147 -58c102 0 151 42 151 115c0 115 -237 55 -237 203c0 79 37 168 214 168c63 0 111 -16 132 -28l-15 -74c-34 32 -76 48 -127 48c-104 0 -142 -36 -142 -98c0 -113 237 -49 237 -203c0 -115 -74 -185 -226 -185c-67 0 -118 14 -150 35z
M143 -230l-3 32c32 12 62 31 72 70c-6 -1 -11 -1 -14 -1c-22 0 -36 13 -36 31c0 32 24 48 62 48c25 0 42 -12 42 -41c0 -66 -62 -124 -123 -139z" />
    <glyph glyph-name="Tcommaaccent" unicode="&#x21a;" horiz-adv-x="570" 
d="M253 0l136 642h-227l12 58h519l-12 -58h-228l-136 -642h-64zM192 -230l7 35c36 12 58 28 68 65h-10c-26 0 -40 13 -40 32c0 32 20 48 60 48c25 0 44 -12 44 -41c0 -62 -58 -124 -129 -139z" />
    <glyph glyph-name="tcommaaccent" unicode="&#x21b;" horiz-adv-x="410" 
d="M155 139l69 327h-104l11 54h104l23 108l65 22l-28 -130h176l-12 -54h-175l-69 -326c-3 -16 -5 -29 -5 -40c0 -42 22 -51 65 -51c48 0 86 15 111 29l-12 -59c-22 -13 -67 -24 -110 -24c-77 0 -116 20 -116 88c0 16 3 35 7 56zM177 -230l-3 32c32 12 62 31 72 70
c-6 -1 -11 -1 -14 -1c-22 0 -36 13 -36 31c0 32 24 48 62 48c25 0 42 -12 42 -41c0 -66 -62 -124 -123 -139z" />
    <glyph glyph-name="uni0237" unicode="&#x237;" horiz-adv-x="280" 
d="M-67 -176l14 65c14 -11 36 -17 65 -17c52 0 77 26 91 92l118 556h60l-118 -553c-23 -106 -73 -152 -167 -152c-27 0 -51 3 -63 9z" />
    <glyph glyph-name="uni0259" unicode="&#x259;" horiz-adv-x="560" 
d="M350 275h140c2 12 5 35 5 58c0 84 -42 143 -152 143c-65 0 -143 -21 -191 -64l13 64c41 31 118 54 193 54c133 0 199 -74 199 -215c0 -185 -114 -325 -278 -325c-140 0 -189 60 -189 136c0 109 103 149 260 149zM344 225c-162 0 -192 -44 -192 -92c0 -46 29 -89 121 -89
c106 0 177 59 206 181h-135z" />
    <glyph glyph-name="afii57929" unicode="&#x2bc;" horiz-adv-x="260" 
d="M176 500l93 200h70l-113 -200h-50z" />
    <glyph glyph-name="circumflex" unicode="&#x2c6;" horiz-adv-x="310" 
d="M141 615l138 130h70l82 -130h-52l-70 90l-110 -90h-58z" />
    <glyph glyph-name="caron" unicode="&#x2c7;" horiz-adv-x="310" 
d="M250 615l-82 130h52l70 -90l110 90h58l-138 -130h-70z" />
    <glyph glyph-name="breve" unicode="&#x2d8;" horiz-adv-x="310" 
d="M166 732l43 13c5 -50 27 -84 87 -84s96 34 123 84l37 -13c-39 -75 -95 -117 -170 -117s-113 42 -120 117z" />
    <glyph glyph-name="dotaccent" unicode="&#x2d9;" horiz-adv-x="107" 
d="M198 638c-27 0 -42 15 -42 42s15 42 42 42s42 -15 42 -42s-15 -42 -42 -42z" />
    <glyph glyph-name="ring" unicode="&#x2da;" horiz-adv-x="205" 
d="M247 590c-54 0 -90 36 -90 90s36 90 90 90s90 -36 90 -90s-36 -90 -90 -90zM247 630c31 0 50 19 50 50s-19 50 -50 50s-50 -19 -50 -50s19 -50 50 -50z" />
    <glyph glyph-name="ogonek" unicode="&#x2db;" horiz-adv-x="184" 
d="M58 -210c-51 0 -77 25 -77 62c0 71 73 124 127 157l35 -6c-43 -28 -104 -77 -104 -135c0 -21 13 -35 43 -35c19 0 38 5 59 16l-8 -41c-22 -10 -46 -18 -75 -18z" />
    <glyph glyph-name="tilde" unicode="&#x2dc;" horiz-adv-x="287" 
d="M189 635l-41 11c5 49 33 80 76 80c24 0 43 -11 70 -23c24 -11 41 -22 59 -22c17 0 28 11 35 43l40 -11c-7 -52 -38 -79 -74 -79c-20 0 -33 4 -72 23c-23 11 -37 22 -56 22c-17 0 -29 -10 -37 -44z" />
    <glyph glyph-name="hungarumlaut" unicode="&#x2dd;" horiz-adv-x="341" 
d="M141 615l96 130h82l-124 -130h-54zM277 615l124 130h88l-154 -130h-58z" />
    <glyph glyph-name="acutecomb" unicode="&#x301;" horiz-adv-x="0" 
d="M-187 615l104 130h84l-134 -130h-54z" />
    <glyph glyph-name="uni0394" unicode="&#x394;" horiz-adv-x="650" 
d="M30 0l263 700h64l263 -700h-590zM118 60h410l-204 562h-2z" />
    <glyph glyph-name="uni0394" unicode="&#x2206;" horiz-adv-x="650" 
d="M30 0l263 700h64l263 -700h-590zM118 60h410l-204 562h-2z" />
    <glyph glyph-name="uni03A9" unicode="&#x3a9;" horiz-adv-x="895" 
d="M195 0v58h189v69c-112 33 -199 116 -199 278c0 183 123 305 315 305c197 0 315 -118 315 -305c0 -157 -96 -244 -198 -278v-69h188v-58h-252v171c132 22 196 127 196 234c0 150 -97 247 -249 247s-249 -97 -249 -247c0 -112 60 -212 197 -234v-171h-253z" />
    <glyph glyph-name="uni03A9" unicode="&#x2126;" horiz-adv-x="895" 
d="M195 0v58h189v69c-112 33 -199 116 -199 278c0 183 123 305 315 305c197 0 315 -118 315 -305c0 -157 -96 -244 -198 -278v-69h188v-58h-252v171c132 22 196 127 196 234c0 150 -97 247 -249 247s-249 -97 -249 -247c0 -112 60 -212 197 -234v-171h-253z" />
    <glyph glyph-name="pi" unicode="&#x3c0;" horiz-adv-x="640" 
d="M143 0l98 464c-35 0 -72 -14 -95 -28l-12 52c27 15 72 32 149 32h408l-12 -54h-74l-74 -345c-3 -15 -5 -27 -5 -37c0 -24 9 -36 34 -36c7 0 17 1 24 3l-12 -58c-15 -2 -25 -3 -36 -3c-53 0 -73 23 -73 69c0 15 2 34 7 55l75 352h-244l-99 -466h-59z" />
    <glyph glyph-name="afii10023" unicode="&#x401;" 
d="M110 0l149 700h409l-12 -58h-345l-54 -253h319l-13 -58h-319l-58 -273h345l-12 -58h-409zM397 796c-28 0 -44 16 -44 44s16 44 44 44s44 -16 44 -44s-16 -44 -44 -44zM589 796c-28 0 -44 16 -44 44s16 44 44 44s44 -16 44 -44s-16 -44 -44 -44z" />
    <glyph glyph-name="afii10051" unicode="&#x402;" horiz-adv-x="780" 
d="M253 0l136 642h-227l12 58h519l-12 -58h-228l-53 -248c54 26 117 46 191 46c123 0 179 -51 179 -136c0 -14 -1 -30 -5 -47l-15 -70c-27 -125 -101 -197 -218 -197c-28 0 -55 4 -73 10l13 61c16 -9 36 -14 65 -14c79 0 129 52 148 141l10 47c3 16 5 31 5 45
c0 63 -34 103 -134 103c-63 0 -125 -22 -178 -45l-71 -338h-64z" />
    <glyph glyph-name="afii10052" unicode="&#x403;" horiz-adv-x="540" 
d="M110 0l149 700h390l-13 -58h-326l-136 -642h-64zM441 770l114 140h86l-144 -140h-56z" />
    <glyph glyph-name="afii10053" unicode="&#x404;" horiz-adv-x="635" 
d="M716 672l-15 -69c-44 33 -114 49 -185 49c-94 0 -160 -21 -220 -89c-38 -43 -68 -106 -86 -175h346l-12 -56h-346c-4 -28 -6 -57 -6 -85c0 -139 73 -199 209 -199c75 0 155 27 194 47l-14 -66c-39 -17 -115 -39 -184 -39c-173 0 -273 75 -273 256c0 109 42 266 129 359
c69 73 156 105 272 105c84 0 156 -20 191 -38z" />
    <glyph glyph-name="afii10054" unicode="&#x405;" horiz-adv-x="565" 
d="M284 -10c-78 0 -162 24 -202 58l18 79c45 -51 110 -79 183 -79c126 0 193 54 193 159c0 168 -293 103 -293 302c0 122 97 201 246 201c70 0 140 -16 184 -42l-16 -75c-44 39 -99 59 -166 59c-117 0 -180 -46 -180 -133c0 -164 293 -97 293 -308
c0 -139 -96 -221 -260 -221z" />
    <glyph glyph-name="afii10055" unicode="&#x406;" horiz-adv-x="294" 
d="M115 0l149 700h64l-149 -700h-64z" />
    <glyph glyph-name="afii10056" unicode="&#x407;" horiz-adv-x="294" 
d="M115 0l149 700h64l-149 -700h-64zM230 796c-28 0 -44 16 -44 44s16 44 44 44s44 -16 44 -44s-16 -44 -44 -44zM422 796c-28 0 -44 16 -44 44s16 44 44 44s44 -16 44 -44s-16 -44 -44 -44z" />
    <glyph glyph-name="afii10057" unicode="&#x408;" horiz-adv-x="390" 
d="M120 -5c-34 0 -68 8 -96 24l13 62c32 -21 57 -28 91 -28c72 0 105 30 124 118l112 529h64l-114 -538c-25 -117 -83 -167 -194 -167z" />
    <glyph glyph-name="afii10058" unicode="&#x409;" horiz-adv-x="1029" 
d="M57 -5c-11 0 -26 2 -37 6l15 71c7 -5 21 -9 33 -9c82 0 139 130 234 503l34 134h407l-58 -270c46 4 73 5 114 5c136 0 217 -66 217 -172c0 -223 -138 -268 -330 -268c-49 0 -105 3 -155 8l135 639h-281l-33 -123c-96 -357 -154 -524 -295 -524zM606 58
c33 -3 66 -5 101 -5c146 0 241 35 241 198c0 106 -85 126 -172 126c-40 0 -63 -1 -104 -5z" />
    <glyph glyph-name="afii10059" unicode="&#x40a;" horiz-adv-x="1060" 
d="M718 -5c-49 0 -105 3 -155 8l69 328h-388l-70 -331h-64l149 700h64l-66 -311h388l66 311h64l-58 -270c46 4 73 5 114 5c136 0 217 -66 217 -172c0 -223 -138 -268 -330 -268zM638 58c33 -3 66 -5 101 -5c146 0 241 35 241 198c0 106 -85 126 -172 126
c-40 0 -63 -1 -104 -5z" />
    <glyph glyph-name="afii10060" unicode="&#x40b;" horiz-adv-x="783" 
d="M253 0l136 642h-227l12 58h519l-12 -58h-228l-53 -248c57 30 122 42 181 42c118 0 187 -53 187 -142c0 -26 -7 -66 -11 -84l-44 -210h-64l41 191c7 32 13 72 13 86c0 75 -52 101 -144 101c-56 0 -116 -11 -170 -39l-72 -339h-64z" />
    <glyph glyph-name="afii10061" unicode="&#x40c;" horiz-adv-x="680" 
d="M576 0l-270 331h-62l-70 -331h-64l149 700h64l-66 -311h53l364 311h86l-402 -340l292 -360h-74zM474 770l114 140h86l-144 -140h-56z" />
    <glyph glyph-name="afii10062" unicode="&#x40e;" horiz-adv-x="650" 
d="M151 9l14 66c14 -13 37 -27 62 -27c53 0 92 56 123 107l-171 545h69l147 -474l303 474h71l-370 -572c-67 -103 -115 -138 -182 -138c-25 0 -50 9 -66 19zM488 775c-81 0 -124 34 -124 104c0 8 1 17 2 26h58c-1 -5 -2 -15 -2 -22c0 -43 24 -60 76 -60c60 0 92 22 112 82
h56c-27 -88 -88 -130 -178 -130z" />
    <glyph glyph-name="afii10145" unicode="&#x40f;" horiz-adv-x="740" 
d="M110 0l149 700h64l-136 -642h392l136 642h64l-149 -700h-230l-28 -130h-60l28 130h-230z" />
    <glyph glyph-name="afii10017" unicode="&#x410;" horiz-adv-x="660" 
d="M30 0l418 700h64l118 -700h-65l-32 201h-316l-118 -201h-69zM466 625l-215 -366h273z" />
    <glyph glyph-name="afii10018" unicode="&#x411;" horiz-adv-x="640" 
d="M289 -5c-64 0 -123 2 -178 8l149 697h400l-13 -58h-335l-49 -230c56 4 91 5 133 5c150 0 219 -55 219 -176c0 -158 -117 -246 -326 -246zM187 59c40 -5 73 -6 118 -6c170 0 242 56 242 188c0 84 -51 118 -177 118c-30 0 -70 -2 -120 -6z" />
    <glyph glyph-name="afii10019" unicode="&#x412;" horiz-adv-x="639" 
d="M111 2l148 697c60 4 127 6 192 6c142 0 211 -44 211 -137c0 -118 -53 -187 -161 -208c76 -10 117 -54 117 -124s-17 -137 -72 -182c-46 -38 -118 -59 -235 -59c-77 0 -145 2 -200 7zM246 335l-59 -277c45 -4 90 -5 137 -5c159 0 226 52 226 174c0 72 -45 108 -144 108
h-160zM256 387h135c139 0 203 50 203 159c0 67 -35 101 -146 101c-47 0 -91 0 -137 -2z" />
    <glyph glyph-name="afii10020" unicode="&#x413;" horiz-adv-x="540" 
d="M110 0l149 700h390l-13 -58h-326l-136 -642h-64z" />
    <glyph glyph-name="afii10021" unicode="&#x414;" horiz-adv-x="725" 
d="M2 -130l40 188h68c109 150 161 322 209 538l23 104h403l-137 -642h84l-40 -188h-60l28 130h-530l-28 -130h-60zM544 58l124 584h-278l-13 -58c-43 -190 -101 -379 -201 -526h368z" />
    <glyph glyph-name="afii10022" unicode="&#x415;" 
d="M110 0l149 700h409l-12 -58h-345l-54 -253h319l-13 -58h-319l-58 -273h345l-12 -58h-409z" />
    <glyph glyph-name="afii10024" unicode="&#x416;" horiz-adv-x="880" 
d="M30 0l332 362l-169 338h65l155 -313h78l66 313h64l-66 -313h64l292 313h71l-310 -337l178 -363h-68l-161 333h-78l-71 -333h-64l71 333h-64l-307 -333h-78z" />
    <glyph glyph-name="afii10025" unicode="&#x417;" horiz-adv-x="580" 
d="M68 37l16 77c55 -50 112 -66 194 -66c63 0 117 14 151 38c40 28 65 74 65 135c0 69 -55 112 -161 112h-99l12 54h91c126 0 198 59 198 155c0 63 -41 110 -142 110c-63 0 -131 -16 -188 -52l16 77c54 20 115 33 192 33c121 0 190 -54 190 -148c0 -105 -58 -170 -168 -198
c79 -12 127 -57 127 -133c0 -85 -31 -148 -89 -189c-53 -37 -129 -52 -211 -52c-83 0 -158 24 -194 47z" />
    <glyph glyph-name="afii10026" unicode="&#x418;" horiz-adv-x="760" 
d="M110 0l149 700h63l-103 -485c-6 -30 -22 -95 -33 -130c23 30 66 82 91 110l454 505h68l-149 -700h-64l103 485c6 30 23 95 33 130c-24 -30 -71 -88 -91 -110l-453 -505h-68z" />
    <glyph glyph-name="afii10027" unicode="&#x419;" horiz-adv-x="760" 
d="M110 0l149 700h63l-103 -485c-6 -30 -22 -95 -33 -130c23 30 66 82 91 110l454 505h68l-149 -700h-64l103 485c6 30 23 95 33 130c-24 -30 -71 -88 -91 -110l-453 -505h-68zM545 775c-81 0 -124 34 -124 104c0 8 1 17 2 26h58c-1 -5 -2 -15 -2 -22c0 -43 24 -60 76 -60
c60 0 92 22 112 82h56c-27 -88 -88 -130 -178 -130z" />
    <glyph glyph-name="afii10028" unicode="&#x41a;" horiz-adv-x="680" 
d="M576 0l-270 331h-62l-70 -331h-64l149 700h64l-66 -311h53l364 311h86l-402 -340l292 -360h-74z" />
    <glyph glyph-name="afii10029" unicode="&#x41b;" horiz-adv-x="706" 
d="M57 -5c-11 0 -26 2 -37 6l15 71c7 -5 21 -9 33 -9c82 0 139 130 234 503l34 134h409l-149 -700h-64l136 642h-283l-33 -123c-96 -357 -154 -524 -295 -524z" />
    <glyph glyph-name="afii10030" unicode="&#x41c;" horiz-adv-x="860" 
d="M110 0l149 700h69l153 -456l344 456h74l-149 -700h-64l105 492c6 27 19 81 28 116c-26 -38 -67 -96 -82 -116l-241 -317h-54l-107 316c-7 22 -25 82 -36 120c-5 -36 -14 -91 -20 -119l-105 -492h-64z" />
    <glyph glyph-name="afii10031" unicode="&#x41d;" horiz-adv-x="760" 
d="M110 0l149 700h64l-66 -311h412l66 311h64l-149 -700h-64l70 331h-412l-70 -331h-64z" />
    <glyph glyph-name="afii10032" unicode="&#x41e;" horiz-adv-x="760" 
d="M398 -10c-170 0 -269 108 -269 275c0 132 50 284 154 370c71 59 143 75 239 75c170 0 258 -107 258 -273c0 -155 -64 -304 -155 -375c-67 -52 -143 -72 -227 -72zM404 48c86 0 145 23 193 69c80 78 115 208 115 317c0 140 -63 218 -208 218c-71 0 -122 -15 -171 -53
c-97 -75 -136 -223 -136 -334c0 -134 67 -217 207 -217z" />
    <glyph glyph-name="afii10033" unicode="&#x41f;" horiz-adv-x="750" 
d="M110 0l149 700h530l-149 -700h-64l136 642h-402l-136 -642h-64z" />
    <glyph glyph-name="afii10034" unicode="&#x420;" horiz-adv-x="620" 
d="M110 0l148 696c55 5 110 9 176 9c164 0 229 -66 229 -176c0 -92 -23 -167 -89 -222c-47 -39 -136 -60 -239 -60c-38 0 -70 2 -107 7l-54 -254h-64zM240 311c39 -5 67 -6 107 -6c66 0 140 4 188 45c39 34 60 86 60 169c0 74 -37 128 -171 128c-40 0 -72 -1 -113 -4z" />
    <glyph glyph-name="afii10035" unicode="&#x421;" horiz-adv-x="640" 
d="M696 672l-15 -69c-44 33 -94 49 -165 49c-94 0 -160 -21 -220 -89c-62 -70 -104 -197 -104 -316c0 -139 73 -199 209 -199c75 0 144 27 183 47l-14 -66c-39 -17 -104 -39 -173 -39c-173 0 -273 75 -273 256c0 109 42 266 129 359c69 73 156 105 272 105
c84 0 136 -20 171 -38z" />
    <glyph glyph-name="afii10036" unicode="&#x422;" horiz-adv-x="570" 
d="M253 0l136 642h-227l12 58h519l-12 -58h-228l-136 -642h-64z" />
    <glyph glyph-name="afii10037" unicode="&#x423;" horiz-adv-x="650" 
d="M151 9l14 66c14 -13 37 -27 62 -27c53 0 92 56 123 107l-171 545h69l147 -474l303 474h71l-370 -572c-67 -103 -115 -138 -182 -138c-25 0 -50 9 -66 19z" />
    <glyph glyph-name="afii10038" unicode="&#x424;" horiz-adv-x="880" 
d="M403 -20l18 83h-16c-157 0 -272 65 -272 236c0 128 54 235 140 292c61 40 141 58 249 58h23l15 71h64l-15 -71h24c152 0 265 -58 265 -229c0 -122 -44 -236 -127 -295c-64 -46 -143 -62 -263 -62h-23l-18 -83h-64zM497 121h23c116 0 164 10 211 45c62 46 100 140 100 248
c0 142 -86 177 -212 177h-22zM433 121l100 470h-16c-79 0 -154 -6 -205 -43c-60 -43 -111 -133 -111 -248c0 -134 85 -179 209 -179h23z" />
    <glyph glyph-name="afii10039" unicode="&#x425;" horiz-adv-x="630" 
d="M30 0l325 363l-158 337h69l135 -289l254 289h78l-304 -342l171 -358h-69l-148 310l-275 -310h-78z" />
    <glyph glyph-name="afii10040" unicode="&#x426;" horiz-adv-x="745" 
d="M612 -130l28 130h-530l149 700h64l-137 -642h378l137 642h64l-137 -642h84l-40 -188h-60z" />
    <glyph glyph-name="afii10041" unicode="&#x427;" horiz-adv-x="640" 
d="M466 0l65 306c-41 -24 -109 -42 -180 -42c-118 0 -187 53 -187 142c0 26 7 66 11 84l44 210h64l-41 -191c-7 -32 -13 -72 -13 -86c0 -75 52 -101 144 -101c67 0 131 16 170 39l72 339h64l-149 -700h-64z" />
    <glyph glyph-name="afii10042" unicode="&#x428;" horiz-adv-x="930" 
d="M110 0l149 700h64l-137 -642h259l137 642h64l-137 -642h259l137 642h64l-149 -700h-710z" />
    <glyph glyph-name="afii10043" unicode="&#x429;" horiz-adv-x="949" 
d="M110 0l149 700h64l-137 -642h259l137 642h64l-137 -642h259l137 642h64l-137 -642h84l-40 -188h-60l28 130h-734z" />
    <glyph glyph-name="afii10044" unicode="&#x42a;" horiz-adv-x="679" 
d="M162 642l12 58h218l-58 -270c46 4 73 5 114 5c136 0 217 -66 217 -172c0 -223 -138 -268 -330 -268c-49 0 -105 3 -155 8l135 639h-153zM255 58c33 -3 66 -5 101 -5c146 0 241 35 241 198c0 106 -85 126 -172 126c-40 0 -63 -1 -104 -5z" />
    <glyph glyph-name="afii10045" unicode="&#x42b;" horiz-adv-x="820" 
d="M646 -1l149 700h64l-149 -700h-64zM266 -6c-49 0 -105 3 -155 8l148 697h64l-58 -270c46 4 73 5 114 5c136 0 217 -66 217 -172c0 -223 -138 -268 -330 -268zM186 57c33 -3 66 -5 101 -5c146 0 241 35 241 198c0 106 -85 126 -172 126c-40 0 -63 -1 -104 -5z" />
    <glyph glyph-name="afii10046" unicode="&#x42c;" horiz-adv-x="609" 
d="M266 -5c-49 0 -105 3 -155 8l148 697h64l-58 -270c46 4 73 5 114 5c136 0 217 -66 217 -172c0 -223 -138 -268 -330 -268zM186 58c33 -3 66 -5 101 -5c146 0 241 35 241 198c0 106 -85 126 -172 126c-40 0 -63 -1 -104 -5z" />
    <glyph glyph-name="afii10047" unicode="&#x42d;" horiz-adv-x="640" 
d="M233 332l12 56h342c2 20 3 39 3 56c0 140 -72 208 -211 208c-85 0 -147 -25 -191 -51l16 77c38 14 107 32 189 32c84 0 153 -22 196 -64c46 -44 69 -110 69 -195c0 -153 -40 -295 -135 -378c-74 -64 -158 -83 -269 -83c-86 0 -151 24 -184 43l16 72
c41 -34 97 -57 180 -57c89 0 161 19 218 71c56 51 84 135 96 213h-347z" />
    <glyph glyph-name="afii10048" unicode="&#x42e;" horiz-adv-x="992" 
d="M640 -10c-163 0 -254 98 -254 275c0 22 1 44 3 66h-145l-70 -331h-64l149 700h64l-66 -311h141c22 106 69 197 133 247c70 55 145 74 232 74c173 0 248 -110 248 -275c0 -155 -60 -305 -150 -375c-67 -52 -137 -70 -221 -70zM649 48c181 0 294 147 294 384
c0 153 -60 220 -198 220c-65 0 -122 -20 -167 -57c-79 -65 -124 -181 -124 -330c0 -143 64 -217 195 -217z" />
    <glyph glyph-name="afii10049" unicode="&#x42f;" horiz-adv-x="645" 
d="M45 0l262 288c-63 11 -122 66 -122 148c0 99 35 184 108 227c52 31 129 42 226 42c53 0 107 -3 164 -7l-148 -698h-64l59 278h-156l-250 -278h-79zM542 336l66 308c-46 3 -76 3 -117 3c-71 0 -128 -8 -168 -36c-48 -33 -70 -90 -70 -167c0 -74 50 -108 152 -108h137z" />
    <glyph glyph-name="afii10065" unicode="&#x430;" horiz-adv-x="625" 
d="M479 0l11 100c-47 -73 -106 -110 -196 -110c-121 0 -184 69 -184 182c0 179 78 358 287 358c82 0 148 -42 163 -130l40 120h40l-111 -520h-50zM172 183c0 -92 50 -139 139 -139c121 0 183 87 205 182l14 61c4 17 5 33 5 49c0 81 -43 140 -143 140
c-160 0 -220 -152 -220 -293z" />
    <glyph glyph-name="afii10066" unicode="&#x431;" horiz-adv-x="620" 
d="M336 -10c-129 0 -209 63 -209 194c0 27 1 56 6 89c50 360 154 434 341 460c65 9 152 16 197 33l-15 -68c-28 -10 -65 -14 -176 -25c-140 -14 -219 -60 -266 -250l-11 -44c54 99 143 141 242 141c102 0 175 -61 175 -179c0 -214 -111 -351 -284 -351zM335 44
c151 0 223 119 223 280c0 101 -61 142 -133 142c-155 0 -236 -111 -236 -268c0 -103 49 -154 146 -154z" />
    <glyph glyph-name="afii10067" unicode="&#x432;" horiz-adv-x="560" 
d="M115 90l91 430c53 3 101 5 175 5c133 0 174 -34 174 -97c0 -64 -22 -128 -129 -152c68 -6 101 -37 101 -94c0 -108 -50 -187 -249 -187c-124 0 -177 27 -163 95zM207 244l-30 -140c-9 -43 21 -55 114 -55c121 0 174 29 174 123c0 53 -39 72 -119 72h-139zM218 296h140
c83 0 135 30 135 111c0 45 -28 64 -118 64c-52 0 -81 0 -120 -3z" />
    <glyph glyph-name="afii10068" unicode="&#x433;" horiz-adv-x="449" 
d="M95 0l110 520h319l-11 -54h-259l-99 -466h-60z" />
    <glyph glyph-name="afii10069" unicode="&#x434;" horiz-adv-x="610" 
d="M318 -10c-141 0 -206 80 -206 194c0 220 110 336 279 336c77 0 145 -36 164 -92c1 14 1 24 1 30c0 177 -80 234 -224 252l12 50c213 -11 271 -135 271 -296c0 -64 -9 -134 -20 -203c-28 -176 -124 -271 -277 -271zM320 44c148 0 222 122 222 269c0 97 -53 153 -153 153
c-123 0 -215 -86 -215 -263c0 -97 40 -159 146 -159z" />
    <glyph glyph-name="afii10070" unicode="&#x435;" horiz-adv-x="560" 
d="M312 -10c-133 0 -199 74 -199 215c0 185 114 325 278 325c140 0 189 -60 189 -136c0 -109 -103 -149 -260 -149h-140c-2 -12 -5 -35 -5 -58c0 -84 42 -143 152 -143c65 0 143 21 191 64l-13 -64c-41 -31 -118 -54 -193 -54zM326 295c162 0 192 44 192 92
c0 46 -29 89 -121 89c-106 0 -177 -59 -206 -181h135z" />
    <glyph glyph-name="afii10072" unicode="&#x436;" horiz-adv-x="740" 
d="M30 0l248 276l-122 244h59l111 -223h79l47 223h60l-47 -223h81l193 223h66l-215 -255l120 -265h-64l-110 243h-83l-52 -243h-60l52 243h-76l-218 -243h-69z" />
    <glyph glyph-name="afii10073" unicode="&#x437;" horiz-adv-x="497" 
d="M62 24l16 76c28 -28 83 -56 168 -56c119 0 167 46 167 125c0 47 -34 73 -128 73h-79l11 48h85c105 0 140 55 140 119c0 44 -30 67 -113 67c-72 0 -123 -20 -170 -51l16 73c43 17 96 32 171 32c118 0 160 -38 160 -100c0 -75 -30 -137 -130 -158c64 -3 99 -36 99 -93
c0 -109 -66 -189 -252 -189c-57 0 -122 12 -161 34z" />
    <glyph glyph-name="afii10074" unicode="&#x438;" horiz-adv-x="600" 
d="M126 167l75 353h60l-72 -341c-4 -19 -6 -35 -6 -50c0 -61 34 -85 109 -85c113 0 176 63 198 166l66 310h60l-111 -520h-50l11 100c-47 -78 -116 -110 -203 -110c-97 0 -144 41 -144 119c0 17 3 37 7 58z" />
    <glyph glyph-name="afii10075" unicode="&#x439;" horiz-adv-x="600" 
d="M126 167l75 353h60l-72 -341c-4 -19 -6 -35 -6 -50c0 -61 34 -85 109 -85c113 0 176 63 198 166l66 310h60l-111 -520h-50l11 100c-47 -78 -116 -110 -203 -110c-97 0 -144 41 -144 119c0 17 3 37 7 58zM427 615c-77 0 -118 38 -118 107c0 7 0 15 1 23h56
c-1 -6 -1 -12 -1 -18c0 -43 23 -66 72 -66c55 0 90 29 109 84h54c-26 -83 -88 -130 -173 -130z" />
    <glyph glyph-name="afii10076" unicode="&#x43a;" horiz-adv-x="550" 
d="M95 0l111 520h60l-48 -223h67l255 223h75l-279 -246l184 -274h-71l-165 243h-77l-52 -243h-60z" />
    <glyph glyph-name="afii10077" unicode="&#x43b;" 
d="M30 -1l16 72c7 -4 15 -6 24 -6c60 0 109 59 185 397l13 58h338l-111 -520h-60l99 466h-222l-9 -40c-77 -344 -150 -431 -242 -431c-12 0 -21 1 -31 4z" />
    <glyph glyph-name="afii10078" unicode="&#x43c;" horiz-adv-x="690" 
d="M95 0l111 520h74l105 -329l241 329h80l-111 -520h-58l72 341c7 35 20 84 32 124c-26 -40 -62 -95 -80 -118l-166 -217h-44l-71 217c-8 25 -24 79 -35 118c-4 -36 -12 -90 -20 -126l-72 -339h-58z" />
    <glyph glyph-name="afii10079" unicode="&#x43d;" horiz-adv-x="605" 
d="M95 0l111 520h60l-49 -228h295l49 228h60l-111 -520h-60l50 238h-295l-50 -238h-60z" />
    <glyph glyph-name="afii10080" unicode="&#x43e;" horiz-adv-x="600" 
d="M110 184c0 216 111 346 297 346c114 0 190 -67 190 -192c0 -216 -101 -348 -273 -348c-148 0 -214 80 -214 194zM172 203c0 -97 41 -159 154 -159c141 0 209 120 209 276c0 100 -41 156 -134 156c-136 0 -229 -100 -229 -273z" />
    <glyph glyph-name="afii10081" unicode="&#x43f;" horiz-adv-x="605" 
d="M95 0l111 520h50l-12 -100c46 72 112 110 202 110c101 0 154 -31 154 -121c0 -21 -3 -48 -9 -77l-71 -332h-60l68 322c5 26 8 49 8 68c0 65 -36 86 -118 86c-105 0 -176 -65 -197 -165l-66 -311h-60z" />
    <glyph glyph-name="afii10082" unicode="&#x440;" horiz-adv-x="625" 
d="M57 -180l149 700h46l-12 -100c44 75 105 110 196 110c128 0 190 -68 190 -181c0 -179 -77 -359 -286 -359c-91 0 -151 51 -160 127l-63 -297h-60zM342 44c163 0 222 153 222 294c0 92 -49 138 -142 138c-117 0 -185 -85 -205 -181l-13 -61c-23 -106 23 -190 138 -190z
" />
    <glyph glyph-name="afii10083" unicode="&#x441;" horiz-adv-x="540" 
d="M508 103l-14 -66c-35 -24 -103 -47 -176 -47c-136 0 -208 81 -208 208c0 195 98 332 298 332c68 0 123 -16 147 -33l-15 -69c-25 20 -76 48 -143 48c-147 0 -225 -103 -225 -268c0 -91 48 -164 165 -164c59 0 129 28 171 59z" />
    <glyph glyph-name="afii10084" unicode="&#x442;" horiz-adv-x="870" 
d="M95 0l111 520h50l-12 -100c33 66 97 110 180 110c87 0 127 -37 122 -115c38 78 108 115 192 115c94 0 132 -39 132 -107c0 -17 -3 -36 -7 -57l-78 -366h-60l73 345c4 19 6 36 6 51c0 55 -29 80 -102 80c-88 0 -144 -61 -162 -147l-70 -329h-60l72 340c4 20 6 38 6 53
c0 59 -31 83 -96 83c-96 0 -150 -68 -167 -148l-70 -328h-60z" />
    <glyph glyph-name="afii10085" unicode="&#x443;" horiz-adv-x="520" 
d="M61 -178l13 62c11 -9 23 -17 47 -17c42 0 70 42 126 140l-111 513h64l91 -445l248 445h67l-307 -534c-86 -149 -129 -176 -190 -176c-22 0 -37 6 -48 12z" />
    <glyph glyph-name="afii10086" unicode="&#x444;" horiz-adv-x="750" 
d="M304 -180l38 179c-17 -4 -33 -4 -54 -4c-123 0 -178 54 -178 173c0 233 105 357 302 357c17 0 30 0 42 -3l48 228h60l-48 -229c17 3 32 4 54 4c124 0 182 -54 182 -173c0 -237 -103 -357 -305 -357c-15 0 -30 1 -43 3l-38 -178h-60zM503 468l-90 -417c13 -1 22 -2 37 -2
c158 0 238 97 238 290c0 93 -43 132 -143 132c-19 0 -28 -1 -42 -3zM353 51l90 417c-11 2 -22 3 -38 3c-155 0 -234 -97 -234 -288c0 -92 43 -134 135 -134c25 0 35 0 47 2z" />
    <glyph glyph-name="afii10087" unicode="&#x445;" horiz-adv-x="510" 
d="M30 0l246 270l-119 250h66l95 -206l183 206h74l-226 -247l131 -273h-67l-107 228l-202 -228h-74z" />
    <glyph glyph-name="afii10088" unicode="&#x446;" horiz-adv-x="610" 
d="M485 -130l28 130h-418l111 520h58l-99 -466h284l99 466h58l-100 -466h75l-40 -184h-56z" />
    <glyph glyph-name="afii10089" unicode="&#x447;" horiz-adv-x="550" 
d="M395 0l45 213c-29 -13 -89 -26 -145 -26c-101 0 -157 29 -157 107c0 10 1 29 5 46l38 180h60l-38 -173c-3 -12 -5 -20 -5 -32c0 -51 36 -74 113 -74c55 0 106 10 140 23l55 256h60l-111 -520h-60z" />
    <glyph glyph-name="afii10090" unicode="&#x448;" horiz-adv-x="790" 
d="M95 0l111 520h60l-99 -466h210l99 466h60l-99 -466h210l99 466h60l-111 -520h-600z" />
    <glyph glyph-name="afii10091" unicode="&#x449;" horiz-adv-x="810" 
d="M95 0l111 520h60l-99 -466h210l99 466h60l-99 -466h210l99 466h60l-100 -466h75l-40 -184h-56l28 130h-618z" />
    <glyph glyph-name="afii10092" unicode="&#x44a;" horiz-adv-x="585" 
d="M124 466l12 54h189l-39 -184c41 3 63 4 107 4c127 0 184 -32 184 -123c0 -142 -72 -222 -262 -222c-115 0 -146 22 -146 63c0 8 1 17 3 26l81 382h-129zM331 49c130 0 184 46 184 155c0 65 -40 82 -149 82c-36 0 -55 -1 -93 -5l-39 -185c-1 -6 -2 -12 -2 -17
c0 -23 19 -30 99 -30z" />
    <glyph glyph-name="afii10093" unicode="&#x44b;" horiz-adv-x="705" 
d="M246 -5c-115 0 -136 22 -136 63c0 8 1 17 3 26l93 436h60l-39 -184c41 3 63 4 97 4c117 0 174 -32 174 -123c0 -142 -72 -222 -252 -222zM262 49c120 0 174 46 174 155c0 65 -40 82 -139 82c-26 0 -45 -1 -83 -5l-39 -185c-1 -6 -2 -12 -2 -17c0 -23 9 -30 89 -30zM610 0
h-60l111 520h60z" />
    <glyph glyph-name="afii10094" unicode="&#x44c;" horiz-adv-x="525" 
d="M256 -5c-115 0 -146 22 -146 63c0 8 1 17 3 26l93 436h60l-39 -184c41 3 63 4 107 4c127 0 184 -32 184 -123c0 -142 -72 -222 -262 -222zM272 49c130 0 184 46 184 155c0 65 -40 82 -149 82c-36 0 -55 -1 -93 -5l-39 -185c-1 -6 -2 -12 -2 -17c0 -23 19 -30 99 -30z" />
    <glyph glyph-name="afii10095" unicode="&#x44d;" horiz-adv-x="535" 
d="M198 238l11 54h260c1 6 1 13 1 20c0 102 -60 164 -159 164c-59 0 -124 -22 -172 -57l13 63c44 29 111 48 174 48c129 0 206 -77 206 -208c0 -208 -111 -332 -297 -332c-59 0 -113 13 -143 34l14 67c38 -30 89 -47 146 -47c114 0 191 70 212 194h-266z" />
    <glyph glyph-name="afii10096" unicode="&#x44e;" horiz-adv-x="780" 
d="M95 0l111 520h60l-49 -228h98c28 148 130 238 274 238c114 0 189 -65 189 -190c0 -220 -96 -350 -268 -350c-148 0 -203 80 -203 215c0 11 0 22 1 33h-102l-51 -238h-60zM512 44c141 0 204 122 204 278c0 100 -40 154 -133 154c-136 0 -216 -96 -216 -261
c0 -109 43 -171 145 -171z" />
    <glyph glyph-name="afii10097" unicode="&#x44f;" horiz-adv-x="560" 
d="M45 0l193 206c-63 10 -89 53 -89 113c0 123 52 206 267 206c105 0 143 -15 143 -69c0 -11 -2 -24 -5 -39l-90 -417h-60l42 196h-149l-184 -196h-68zM457 250l33 156c2 9 3 17 3 24c0 32 -20 41 -81 41c-133 0 -201 -27 -201 -141c0 -66 46 -80 122 -80h124z" />
    <glyph glyph-name="afii10071" unicode="&#x451;" horiz-adv-x="560" 
d="M312 -10c-133 0 -199 74 -199 215c0 185 114 325 278 325c140 0 189 -60 189 -136c0 -109 -103 -149 -260 -149h-140c-2 -12 -5 -35 -5 -58c0 -84 42 -143 152 -143c65 0 143 21 191 64l-13 -64c-41 -31 -118 -54 -193 -54zM326 295c162 0 192 44 192 92
c0 46 -29 89 -121 89c-106 0 -177 -59 -206 -181h135zM347 638c-27 0 -42 15 -42 42s15 42 42 42s42 -15 42 -42s-15 -42 -42 -42zM503 638c-27 0 -42 15 -42 42s15 42 42 42s42 -15 42 -42s-15 -42 -42 -42z" />
    <glyph glyph-name="afii10099" unicode="&#x452;" horiz-adv-x="645" 
d="M140 470l11 50h100l49 230h59l-48 -230h210l-11 -50h-210l-44 -212c47 70 110 112 205 112c106 0 155 -38 155 -119c0 -21 -1 -45 -8 -72l-8 -29c-38 -137 -125 -245 -253 -322l-33 30c137 99 192 170 224 292l5 19c6 22 9 45 9 61c0 65 -39 86 -121 86
c-112 0 -177 -74 -196 -161l-34 -155h-60l99 470h-100z" />
    <glyph glyph-name="afii10100" unicode="&#x453;" horiz-adv-x="449" 
d="M95 0l110 520h319l-11 -54h-259l-99 -466h-60zM359 615l104 130h84l-134 -130h-54z" />
    <glyph glyph-name="afii10101" unicode="&#x454;" horiz-adv-x="540" 
d="M513 103l-14 -66c-40 -28 -112 -47 -177 -47c-131 0 -208 77 -208 208c0 209 110 332 297 332c62 0 121 -13 149 -33l-15 -69c-36 29 -93 48 -152 48c-112 0 -186 -67 -209 -184h265l-11 -54h-261c-1 -10 -1 -20 -1 -30c0 -102 59 -164 157 -164c59 0 131 23 180 59z" />
    <glyph glyph-name="afii10102" unicode="&#x455;" horiz-adv-x="470" 
d="M66 25l16 77c29 -35 89 -58 147 -58c102 0 151 42 151 115c0 115 -237 55 -237 203c0 79 37 168 214 168c63 0 111 -16 132 -28l-15 -74c-34 32 -76 48 -127 48c-104 0 -142 -36 -142 -98c0 -113 237 -49 237 -203c0 -115 -74 -185 -226 -185c-67 0 -118 14 -150 35z" />
    <glyph glyph-name="afii10103" unicode="&#x456;" horiz-adv-x="280" 
d="M170 0h-60l111 520h60zM285 638c-27 0 -42 15 -42 42s15 42 42 42s42 -15 42 -42s-15 -42 -42 -42z" />
    <glyph glyph-name="afii10104" unicode="&#x457;" horiz-adv-x="280" 
d="M170 0h-60l111 520h60zM207 638c-27 0 -42 15 -42 42s15 42 42 42s42 -15 42 -42s-15 -42 -42 -42zM363 638c-27 0 -42 15 -42 42s15 42 42 42s42 -15 42 -42s-15 -42 -42 -42z" />
    <glyph glyph-name="afii10105" unicode="&#x458;" horiz-adv-x="280" 
d="M-67 -176l14 65c14 -11 36 -17 65 -17c52 0 77 26 91 92l118 556h60l-118 -553c-23 -106 -73 -152 -167 -152c-27 0 -51 3 -63 9zM284 638c-27 0 -42 15 -42 42s15 42 42 42s42 -15 42 -42s-15 -42 -42 -42z" />
    <glyph glyph-name="afii10106" unicode="&#x459;" horiz-adv-x="853" 
d="M584 -5c-115 0 -146 22 -146 63c0 8 1 17 3 26l81 382h-210l-9 -40c-77 -344 -150 -431 -242 -431c-12 0 -21 1 -31 4l16 72c7 -4 15 -6 24 -6c60 0 109 59 185 397l13 58h326l-39 -184c41 3 63 4 107 4c127 0 184 -32 184 -123c0 -142 -72 -222 -262 -222zM600 49
c130 0 184 46 184 155c0 65 -40 82 -149 82c-36 0 -55 -1 -93 -5l-39 -185c-1 -6 -2 -12 -2 -17c0 -23 19 -30 99 -30z" />
    <glyph glyph-name="afii10107" unicode="&#x45a;" horiz-adv-x="860" 
d="M591 -5c-115 0 -146 22 -146 63c0 8 1 17 3 26l33 154h-276l-50 -238h-60l111 520h60l-49 -228h275l49 228h60l-39 -184c41 3 63 4 107 4c127 0 184 -32 184 -123c0 -142 -72 -222 -262 -222zM607 49c130 0 184 46 184 155c0 65 -40 82 -149 82c-36 0 -55 -1 -93 -5
l-39 -185c-1 -6 -2 -12 -2 -17c0 -23 19 -30 99 -30z" />
    <glyph glyph-name="afii10108" unicode="&#x45b;" horiz-adv-x="642" 
d="M140 470l11 50h100l49 230h59l-48 -230h210l-11 -50h-210l-44 -212c47 70 110 112 205 112c106 0 152 -38 152 -119c0 -21 -2 -45 -8 -72l-39 -179h-60l36 169c5 22 7 45 7 61c0 65 -36 86 -118 86c-112 0 -177 -74 -196 -161l-34 -155h-60l99 470h-100z" />
    <glyph glyph-name="afii10109" unicode="&#x45c;" horiz-adv-x="550" 
d="M95 0l111 520h60l-48 -223h67l255 223h75l-279 -246l184 -274h-71l-165 243h-77l-52 -243h-60zM388 615l104 130h84l-134 -130h-54z" />
    <glyph glyph-name="afii10110" unicode="&#x45e;" horiz-adv-x="520" 
d="M61 -178l13 62c11 -9 23 -17 47 -17c42 0 70 42 126 140l-111 513h64l91 -445l248 445h67l-307 -534c-86 -149 -129 -176 -190 -176c-22 0 -37 6 -48 12zM390 615c-77 0 -118 38 -118 107c0 7 0 15 1 23h56c-1 -6 -1 -12 -1 -18c0 -43 23 -66 72 -66c55 0 90 29 109 84
h54c-26 -83 -88 -130 -173 -130z" />
    <glyph glyph-name="afii10193" unicode="&#x45f;" horiz-adv-x="595" 
d="M95 0l111 520h60l-99 -466h285l99 466h60l-111 -520h-175l-27 -130h-56l27 130h-174z" />
    <glyph glyph-name="afii10050" unicode="&#x490;" horiz-adv-x="540" 
d="M110 0l149 700h330l28 130h60l-40 -188h-327l-136 -642h-64z" />
    <glyph glyph-name="afii10098" unicode="&#x491;" horiz-adv-x="449" 
d="M95 0l110 520h263l28 130h56l-39 -184h-259l-99 -466h-60z" />
    <glyph glyph-name="uni0492" unicode="&#x492;" horiz-adv-x="560" 
d="M98 322l12 56h100l69 322h390l-13 -58h-326l-56 -264h221l-12 -56h-221l-68 -322h-64l68 322h-100z" />
    <glyph glyph-name="uni0493" unicode="&#x493;" horiz-adv-x="474" 
d="M70 235l11 50h98l50 235h319l-11 -54h-259l-39 -181h172l-11 -50h-171l-50 -235h-60l49 235h-98z" />
    <glyph glyph-name="uni049A" unicode="&#x49a;" horiz-adv-x="700" 
d="M110 0l149 700h64l-66 -311h53l364 311h86l-402 -340l245 -302h102l-40 -188h-60l28 130h-57l-270 331h-62l-70 -331h-64z" />
    <glyph glyph-name="uni049B" unicode="&#x49b;" horiz-adv-x="570" 
d="M95 0l111 520h60l-48 -223h67l255 223h75l-279 -246l147 -220h84l-40 -184h-56l28 130h-50l-165 243h-77l-52 -243h-60z" />
    <glyph glyph-name="uni04A2" unicode="&#x4a2;" horiz-adv-x="779" 
d="M110 0l149 700h64l-66 -311h412l66 311h64l-137 -642h84l-40 -188h-60l28 130h-88l70 331h-412l-70 -331h-64z" />
    <glyph glyph-name="uni04A3" unicode="&#x4a3;" horiz-adv-x="625" 
d="M95 0l111 520h60l-49 -228h295l49 228h60l-100 -466h75l-40 -184h-56l28 130h-78l50 238h-295l-50 -238h-60z" />
    <glyph glyph-name="uni04AE" unicode="&#x4ae;" horiz-adv-x="600" 
d="M268 0l60 280l-154 420h67l129 -358l280 358h74l-332 -419l-60 -281h-64z" />
    <glyph glyph-name="uni04AF" unicode="&#x4af;" horiz-adv-x="510" 
d="M246 -180h-60l38 180l-88 520h62l71 -447l261 447h66l-312 -520z" />
    <glyph glyph-name="uni04B0" unicode="&#x4b0;" horiz-adv-x="600" 
d="M159 247l12 56h148l-145 397h67l129 -358l280 358h74l-315 -397h150l-12 -56h-163l-52 -247h-64l53 247h-162z" />
    <glyph glyph-name="uni04B1" unicode="&#x4b1;" horiz-adv-x="510" 
d="M72 -50l11 50h141l-88 520h62l71 -447l261 447h66l-311 -519l-1 -1h138l-11 -50h-137l-28 -130h-60l28 130h-142z" />
    <glyph glyph-name="uni04BA" unicode="&#x4ba;" horiz-adv-x="640" 
d="M323 700l-65 -306c41 24 109 42 180 42c118 0 187 -53 187 -142c0 -26 -7 -66 -11 -84l-44 -210h-64l41 191c7 32 13 72 13 86c0 75 -52 101 -144 101c-67 0 -131 -16 -170 -39l-72 -339h-64l149 700h64z" />
    <glyph glyph-name="uni04BB" unicode="&#x4bb;" horiz-adv-x="605" 
d="M95 0l159 750h59l-70 -332c47 70 110 112 205 112c106 0 152 -38 152 -119c0 -21 -2 -45 -8 -72l-72 -339h-60l69 329c5 22 7 45 7 61c0 65 -36 86 -118 86c-112 0 -178 -74 -196 -161l-67 -315h-60z" />
    <glyph glyph-name="uni04C0" unicode="&#x4c0;" horiz-adv-x="294" 
d="M115 0l149 700h64l-149 -700h-64z" />
    <glyph glyph-name="uni04CF" unicode="&#x4cf;" horiz-adv-x="280" 
d="M170 0h-60l159 750h60z" />
    <glyph glyph-name="uni04D8" unicode="&#x4d8;" horiz-adv-x="680" 
d="M333 -10c-135 0 -218 68 -218 217c0 57 11 108 24 164h489c6 31 11 63 11 94c0 99 -44 187 -203 187c-63 0 -125 -9 -179 -28l12 59c56 16 114 27 185 27c171 0 253 -82 253 -234c0 -218 -124 -486 -374 -486zM345 48c116 0 224 79 270 265h-421c-8 -34 -13 -69 -13 -104
c0 -106 55 -161 164 -161z" />
    <glyph glyph-name="afii10846" unicode="&#x4d9;" horiz-adv-x="560" 
d="M350 275h140c2 12 5 35 5 58c0 84 -42 143 -152 143c-65 0 -143 -21 -191 -64l13 64c41 31 118 54 193 54c133 0 199 -74 199 -215c0 -185 -114 -325 -278 -325c-140 0 -189 60 -189 136c0 109 103 149 260 149zM344 225c-162 0 -192 -44 -192 -92c0 -46 29 -89 121 -89
c106 0 177 59 206 181h-135z" />
    <glyph glyph-name="uni04E8" unicode="&#x4e8;" horiz-adv-x="760" 
d="M398 -10c-170 0 -269 108 -269 275c0 132 50 284 154 370c71 59 143 75 239 75c170 0 258 -107 258 -273c0 -155 -64 -304 -155 -375c-67 -52 -143 -72 -227 -72zM404 48c86 0 145 23 193 69c56 54 90 134 105 215h-501c-3 -23 -4 -46 -4 -67c0 -134 67 -217 207 -217z
M333 599c-64 -50 -103 -130 -122 -211h499c1 15 2 31 2 46c0 140 -63 218 -208 218c-71 0 -122 -15 -171 -53z" />
    <glyph glyph-name="uni04E9" unicode="&#x4e9;" horiz-adv-x="600" 
d="M110 184c0 216 111 346 297 346c114 0 190 -67 190 -192c0 -216 -101 -348 -273 -348c-148 0 -214 80 -214 194zM172 203c0 -97 41 -159 154 -159s180 78 201 190h-354c-1 -10 -1 -21 -1 -31zM401 476c-113 0 -195 -69 -221 -190h354c0 11 1 22 1 34
c0 100 -41 156 -134 156z" />
    <glyph glyph-name="uni1E9E" unicode="&#x1e9e;" horiz-adv-x="680" 
d="M100 0l101 476c32 154 137 234 278 234c81 0 156 -26 205 -107l-206 -197v-1c140 -5 172 -72 172 -140c0 -160 -130 -275 -288 -275c-26 0 -53 2 -76 7l13 60c27 -7 53 -9 73 -9c123 0 210 81 210 204c0 69 -51 104 -168 104h-25l9 42l207 199c-33 40 -73 55 -137 55
c-127 0 -184 -87 -204 -181l-100 -471h-64z" />
    <glyph glyph-name="figuredash" unicode="&#x2012;" 
d="M157 384h408l-10 -58h-408z" />
    <glyph glyph-name="endash" unicode="&#x2013;" horiz-adv-x="720" 
d="M174 299h498l-12 -58h-498z" />
    <glyph glyph-name="emdash" unicode="&#x2014;" horiz-adv-x="890" 
d="M159 299h698l-12 -58h-698z" />
    <glyph glyph-name="quoteleft" unicode="&#x2018;" horiz-adv-x="310" 
d="M383 670c-52 -13 -99 -57 -114 -105c32 0 50 -16 50 -46c0 -36 -18 -54 -55 -54c-35 0 -55 20 -55 54c0 77 64 165 140 191z" />
    <glyph glyph-name="quoteright" unicode="&#x2019;" horiz-adv-x="310" 
d="M175 505c52 13 99 57 114 105c-32 0 -50 16 -50 46c0 36 18 54 55 54c35 0 55 -20 55 -54c0 -77 -64 -165 -140 -191z" />
    <glyph glyph-name="quotesinglbase" unicode="&#x201a;" horiz-adv-x="310" 
d="M45 -110c52 13 99 57 114 105c-32 0 -50 16 -50 46c0 36 18 54 55 54c35 0 55 -20 55 -54c0 -77 -64 -165 -140 -191z" />
    <glyph glyph-name="quotedblleft" unicode="&#x201c;" horiz-adv-x="510" 
d="M383 670c-52 -13 -99 -57 -114 -105c32 0 50 -16 50 -46c0 -36 -18 -54 -55 -54c-35 0 -55 20 -55 54c0 77 64 165 140 191zM583 670c-52 -13 -99 -57 -114 -105c32 0 50 -16 50 -46c0 -36 -18 -54 -55 -54c-35 0 -55 20 -55 54c0 77 64 165 140 191z" />
    <glyph glyph-name="quotedblright" unicode="&#x201d;" horiz-adv-x="510" 
d="M175 505c52 13 99 57 114 105c-32 0 -50 16 -50 46c0 36 18 54 55 54c35 0 55 -20 55 -54c0 -77 -64 -165 -140 -191zM375 505c52 13 99 57 114 105c-32 0 -50 16 -50 46c0 36 18 54 55 54c35 0 55 -20 55 -54c0 -77 -64 -165 -140 -191z" />
    <glyph glyph-name="quotedblbase" unicode="&#x201e;" horiz-adv-x="510" 
d="M45 -110c52 13 99 57 114 105c-32 0 -50 16 -50 46c0 36 18 54 55 54c35 0 55 -20 55 -54c0 -77 -64 -165 -140 -191zM244 -110c52 13 99 57 114 105c-32 0 -50 16 -50 46c0 36 18 54 55 54c35 0 55 -20 55 -54c0 -77 -64 -165 -140 -191z" />
    <glyph glyph-name="dagger" unicode="&#x2020;" horiz-adv-x="520" 
d="M159 466l12 54h169l39 180h60l-39 -180h171l-12 -54h-170l-99 -466h-60l99 466h-170z" />
    <glyph glyph-name="daggerdbl" unicode="&#x2021;" horiz-adv-x="520" 
d="M159 466l12 54h170l38 180h60l-38 -180h170l-12 -54h-170l-49 -232h170l-12 -54h-170l-38 -180h-60l38 180h-170l12 54h170l49 232h-170z" />
    <glyph glyph-name="bullet" unicode="&#x2022;" horiz-adv-x="370" 
d="M259 260c-55 0 -90 35 -90 90s35 90 90 90s90 -35 90 -90s-35 -90 -90 -90z" />
    <glyph glyph-name="ellipsis" unicode="&#x2026;" horiz-adv-x="950" 
d="M164 -5c-33 0 -50 17 -50 50s17 50 50 50s50 -17 50 -50s-17 -50 -50 -50zM484 -5c-33 0 -50 17 -50 50s17 50 50 50s50 -17 50 -50s-17 -50 -50 -50zM804 -5c-33 0 -50 17 -50 50s17 50 50 50s50 -17 50 -50s-17 -50 -50 -50z" />
    <glyph glyph-name="perthousand" unicode="&#x2030;" horiz-adv-x="1260" 
d="M640 -5c-87 0 -141 54 -141 141c0 113 88 189 196 189c85 0 135 -53 135 -138c0 -111 -80 -192 -190 -192zM647 49c83 0 127 50 127 133c0 59 -31 91 -89 91c-82 0 -130 -52 -130 -135c0 -58 35 -89 92 -89zM331 375c-87 0 -141 54 -141 141c0 113 88 189 196 189
c85 0 135 -53 135 -138c0 -111 -80 -192 -190 -192zM338 429c83 0 127 50 127 133c0 59 -31 91 -89 91c-82 0 -130 -52 -130 -135c0 -58 35 -89 92 -89zM228 0h-68l632 700h68zM1030 -5c-87 0 -141 54 -141 141c0 113 88 189 196 189c85 0 135 -53 135 -138
c0 -111 -80 -192 -190 -192zM1037 49c83 0 127 50 127 133c0 59 -31 91 -89 91c-82 0 -130 -52 -130 -135c0 -58 35 -89 92 -89z" />
    <glyph glyph-name="guilsinglleft" unicode="&#x2039;" horiz-adv-x="355" 
d="M235 65l-103 205l182 205h68l-188 -207l100 -203h-59z" />
    <glyph glyph-name="guilsinglright" unicode="&#x203a;" horiz-adv-x="355" 
d="M89 65l187 212l-99 198h59l102 -203l-184 -207h-65z" />
    <glyph glyph-name="fraction" unicode="&#x2044;" horiz-adv-x="250" 
d="M-82 0h-68l632 700h68z" />
    <glyph glyph-name="uni2070" unicode="&#x2070;" horiz-adv-x="450" 
d="M306 375c-101 0 -151 45 -151 132c0 25 4 54 10 82c34 164 118 216 231 216c98 0 150 -39 150 -133c0 -24 -3 -50 -10 -81c-34 -161 -117 -216 -230 -216zM315 423c84 0 132 49 160 166c7 29 9 53 9 71c0 68 -29 97 -97 97c-76 0 -131 -32 -161 -152
c-8 -33 -11 -65 -11 -88c0 -62 35 -94 100 -94z" />
    <glyph glyph-name="uni2074" unicode="&#x2074;" horiz-adv-x="450" 
d="M128 480l9 46l318 274h71l-58 -271h54l-10 -49h-54l-21 -100h-55l21 100h-275zM413 529l46 216h-1l-251 -216h206z" />
    <glyph glyph-name="uni2075" unicode="&#x2075;" horiz-adv-x="450" 
d="M298 375c-46 0 -105 4 -145 17l11 52c45 -14 85 -19 144 -19c80 0 133 45 133 107c0 47 -30 67 -103 67c-50 0 -96 -2 -139 -5l56 206h285l-11 -50h-241l-29 -108c31 2 72 4 109 4c91 0 134 -33 134 -102c0 -97 -87 -169 -204 -169z" />
    <glyph glyph-name="uni2076" unicode="&#x2076;" horiz-adv-x="450" 
d="M308 375c-96 0 -146 46 -146 133c0 174 112 297 269 297c32 0 70 -5 102 -13l-11 -51c-25 9 -58 14 -108 14c-97 0 -164 -56 -190 -158c46 36 107 56 170 56c83 0 125 -35 125 -104c0 -100 -90 -174 -211 -174zM322 421c77 0 136 49 136 114c0 47 -30 71 -88 71
c-53 0 -109 -20 -151 -54c-3 -12 -4 -24 -4 -34c0 -61 40 -97 107 -97z" />
    <glyph glyph-name="uni2077" unicode="&#x2077;" horiz-adv-x="450" 
d="M218 380l278 370h-287l11 50h350l-9 -39l-283 -381h-60z" />
    <glyph glyph-name="uni2078" unicode="&#x2078;" horiz-adv-x="450" 
d="M304 375c-105 0 -156 31 -156 96c0 66 51 117 127 128c-46 10 -71 39 -71 81c0 75 80 125 198 125c92 0 141 -31 141 -90c0 -56 -46 -102 -114 -116c54 -8 82 -38 82 -87c0 -83 -82 -137 -207 -137zM314 423c84 0 142 36 142 89c0 42 -35 63 -105 63
c-89 0 -145 -34 -145 -88c0 -43 35 -64 108 -64zM391 756c-84 0 -134 -28 -134 -76c0 -38 33 -58 97 -58c80 0 133 32 133 80c0 37 -31 54 -96 54z" />
    <glyph glyph-name="uni2079" unicode="&#x2079;" horiz-adv-x="450" 
d="M289 375c-52 0 -89 5 -126 16l11 52c38 -13 73 -18 125 -18c85 0 148 60 175 168c-44 -40 -107 -64 -166 -64c-76 0 -119 39 -119 108c0 97 86 168 205 168c94 0 142 -43 142 -127c0 -175 -105 -303 -247 -303zM329 575c49 0 104 24 152 65c1 6 2 17 2 26
c0 58 -38 92 -104 92c-77 0 -130 -46 -130 -111c0 -47 28 -72 80 -72z" />
    <glyph glyph-name="uni2080" unicode="&#x2080;" horiz-adv-x="450" 
d="M205 -105c-101 0 -151 45 -151 132c0 25 4 54 10 82c34 164 118 216 231 216c98 0 150 -39 150 -133c0 -24 -3 -50 -10 -81c-34 -161 -117 -216 -230 -216zM214 -57c84 0 132 49 160 166c7 29 9 53 9 71c0 68 -29 97 -97 97c-76 0 -131 -32 -161 -152
c-8 -33 -11 -65 -11 -88c0 -62 35 -94 100 -94z" />
    <glyph glyph-name="uni2081" unicode="&#x2081;" horiz-adv-x="450" 
d="M209 -100l75 354l-140 -66l-14 45l182 87h46l-89 -420h-60z" />
    <glyph glyph-name="uni2082" unicode="&#x2082;" horiz-adv-x="450" 
d="M39 -100l11 54l137 87c133 85 174 124 174 177c0 37 -33 57 -95 57c-45 0 -97 -10 -134 -27l11 53c47 17 94 24 141 24c96 0 142 -30 142 -93c0 -70 -55 -126 -212 -223l-92 -57v-1h253l-11 -51h-325z" />
    <glyph glyph-name="uni2083" unicode="&#x2083;" horiz-adv-x="450" 
d="M180 -105c-47 0 -98 3 -138 20l12 52c32 -17 81 -22 131 -22c62 0 140 18 140 89c0 46 -33 62 -98 62h-77l9 43h73c55 0 124 17 124 80c0 43 -32 56 -99 56c-45 0 -98 -6 -135 -21l11 51c43 16 102 20 153 20c89 0 132 -31 132 -88c0 -69 -62 -102 -127 -116l-1 -2
c74 -10 95 -43 95 -85c0 -99 -119 -139 -205 -139z" />
    <glyph glyph-name="uni2084" unicode="&#x2084;" horiz-adv-x="450" 
d="M26 0l9 46l318 274h71l-58 -271h54l-10 -49h-54l-21 -100h-55l21 100h-275zM311 49l46 216h-1l-251 -216h206z" />
    <glyph glyph-name="uni2085" unicode="&#x2085;" horiz-adv-x="450" 
d="M196 -105c-46 0 -105 4 -145 17l11 52c45 -14 85 -19 144 -19c80 0 133 45 133 107c0 47 -30 67 -103 67c-50 0 -96 -2 -139 -5l56 206h285l-11 -50h-241l-29 -108c31 2 72 4 109 4c91 0 134 -33 134 -102c0 -97 -87 -169 -204 -169z" />
    <glyph glyph-name="uni2086" unicode="&#x2086;" horiz-adv-x="450" 
d="M215 -105c-96 0 -146 46 -146 133c0 174 112 297 269 297c32 0 70 -5 102 -13l-11 -51c-25 9 -58 14 -108 14c-97 0 -164 -56 -190 -158c46 36 107 56 170 56c83 0 125 -35 125 -104c0 -100 -90 -174 -211 -174zM229 -59c77 0 136 49 136 114c0 47 -30 71 -88 71
c-53 0 -109 -20 -151 -54c-3 -12 -4 -24 -4 -34c0 -61 40 -97 107 -97z" />
    <glyph glyph-name="uni2087" unicode="&#x2087;" horiz-adv-x="450" 
d="M116 -100l278 370h-287l11 50h350l-9 -39l-283 -381h-60z" />
    <glyph glyph-name="uni2088" unicode="&#x2088;" horiz-adv-x="450" 
d="M202 -105c-105 0 -156 31 -156 96c0 66 51 117 127 128c-46 10 -71 39 -71 81c0 75 80 125 198 125c92 0 141 -31 141 -90c0 -56 -46 -102 -114 -116c54 -8 82 -38 82 -87c0 -83 -82 -137 -207 -137zM212 -57c84 0 142 36 142 89c0 42 -35 63 -105 63
c-89 0 -145 -34 -145 -88c0 -43 35 -64 108 -64zM289 276c-84 0 -134 -28 -134 -76c0 -38 33 -58 97 -58c80 0 133 32 133 80c0 37 -31 54 -96 54z" />
    <glyph glyph-name="uni2089" unicode="&#x2089;" horiz-adv-x="450" 
d="M209 -105c-52 0 -89 5 -126 16l11 52c38 -13 73 -18 125 -18c85 0 148 60 175 168c-44 -40 -107 -64 -166 -64c-76 0 -119 39 -119 108c0 97 86 168 205 168c94 0 142 -43 142 -127c0 -175 -105 -303 -247 -303zM249 95c49 0 104 24 152 65c1 6 2 17 2 26
c0 58 -38 92 -104 92c-77 0 -130 -46 -130 -111c0 -47 28 -72 80 -72z" />
    <glyph glyph-name="Euro" unicode="&#x20ac;" 
d="M115 399l28 58h62c53 158 171 253 334 253c74 0 116 -10 151 -28l-29 -59c-40 25 -76 29 -131 29c-124 0 -212 -71 -256 -195h306l-28 -58h-295c-6 -25 -10 -51 -12 -78h269l-28 -58h-244v-16c0 -134 52 -199 182 -199c66 0 115 17 154 37l-14 -66
c-39 -17 -84 -29 -147 -29c-168 0 -243 85 -243 256v17h-84l29 58h58c3 27 7 53 12 78h-74z" />
    <glyph glyph-name="uni20B4" unicode="&#x20b4;" 
d="M170 399l12 58h268c53 42 92 85 92 133c0 40 -33 62 -97 62c-61 0 -98 -7 -163 -27l13 61c58 17 126 24 162 24c101 0 153 -37 153 -105c0 -55 -32 -104 -79 -148h71l-12 -58h-128c-35 -27 -72 -52 -107 -78h218l-12 -58h-279c-47 -42 -80 -85 -80 -133
c0 -52 49 -82 133 -82c40 0 99 5 151 27l-13 -61c-59 -19 -120 -24 -158 -24c-112 0 -181 49 -181 130c0 54 27 100 66 143h-59l12 58h110c34 27 72 53 108 78h-201z" />
    <glyph glyph-name="uni20B8" unicode="&#x20b8;" 
d="M263 0l108 506h-228l12 58h520l-12 -58h-228l-108 -506h-64zM172 642l12 58h519l-12 -58h-519z" />
    <glyph glyph-name="uni20BD" unicode="&#x20bd;" 
d="M77 171l12 58h101l16 78h-100l12 58h100l71 333c51 4 92 7 157 7c140 0 212 -54 212 -160c0 -158 -97 -238 -294 -238h-94l-16 -78h205l-12 -58h-206l-36 -171h-64l36 171h-100zM342 645l-59 -280h88c155 0 219 52 219 169c0 76 -49 113 -148 113c-40 0 -64 0 -100 -2z
" />
    <glyph glyph-name="afii61352" unicode="&#x2116;" horiz-adv-x="1075" 
d="M793 249l11 52h259l-11 -52h-259zM110 0l149 700h64l228 -500c18 -40 31 -70 48 -115c7 45 12 75 20 115l106 500h64l-149 -700h-64l-228 500c-18 40 -31 70 -48 115c-7 -45 -12 -75 -20 -115l-106 -500h-64zM823 490c0 108 41 215 190 215c83 0 134 -42 134 -115
c0 -133 -67 -215 -194 -215c-78 0 -130 43 -130 115zM1007 661c-97 0 -129 -75 -129 -161c0 -66 41 -81 89 -81c78 0 126 62 126 161c0 62 -38 81 -86 81z" />
    <glyph glyph-name="uni2120" unicode="&#x2120;" horiz-adv-x="850" 
d="M314 375c-39 0 -83 6 -110 19v54c24 -19 69 -30 111 -30c63 0 91 14 91 54c0 82 -202 26 -202 149c0 49 27 84 136 84c40 0 78 -9 95 -16v-51c-23 15 -56 26 -96 26c-65 0 -88 -12 -88 -42c0 -82 203 -23 203 -147c0 -68 -41 -100 -140 -100zM530 380v320h56l110 -190h1
l108 190h56v-320h-47v251h-1l-104 -176h-29l-102 176h-1v-251h-47z" />
    <glyph glyph-name="trademark" unicode="&#x2122;" horiz-adv-x="810" 
d="M300 380v276h-106v44h262v-44h-107v-276h-49zM515 380v320h56l110 -190h1l108 190h56v-320h-47v251h-1l-104 -176h-29l-102 176h-1v-251h-47z" />
    <glyph glyph-name="onethird" unicode="&#x2153;" horiz-adv-x="950" 
d="M208 0h-68l632 700h68zM229 280l75 354l-140 -66l-14 45l182 87h46l-89 -420h-60zM701 -5c-47 0 -98 3 -138 20l12 52c32 -17 81 -22 131 -22c62 0 140 18 140 89c0 46 -33 62 -98 62h-77l9 43h73c55 0 124 17 124 80c0 43 -32 56 -99 56c-45 0 -98 -6 -135 -21l11 51
c43 16 102 20 153 20c89 0 132 -31 132 -88c0 -69 -62 -102 -127 -116l-1 -2c74 -10 95 -43 95 -85c0 -99 -119 -139 -205 -139z" />
    <glyph glyph-name="twothirds" unicode="&#x2154;" horiz-adv-x="950" 
d="M278 0h-68l632 700h68zM90 280l11 54l137 87c133 85 174 124 174 177c0 37 -33 57 -95 57c-45 0 -97 -10 -134 -27l11 53c47 17 94 24 141 24c96 0 142 -30 142 -93c0 -70 -55 -126 -212 -223l-92 -57v-1h253l-11 -51h-325zM731 -5c-47 0 -98 3 -138 20l12 52
c32 -17 81 -22 131 -22c62 0 140 18 140 89c0 46 -33 62 -98 62h-77l9 43h73c55 0 124 17 124 80c0 43 -32 56 -99 56c-45 0 -98 -6 -135 -21l11 51c43 16 102 20 153 20c89 0 132 -31 132 -88c0 -69 -62 -102 -127 -116l-1 -2c74 -10 95 -43 95 -85
c0 -99 -119 -139 -205 -139z" />
    <glyph glyph-name="oneeighth" unicode="&#x215b;" horiz-adv-x="950" 
d="M218 0h-68l632 700h68zM240 280l75 354l-140 -66l-14 45l182 87h46l-89 -420h-60zM723 -5c-105 0 -156 31 -156 96c0 66 51 117 127 128c-46 10 -71 39 -71 81c0 75 80 125 198 125c92 0 141 -31 141 -90c0 -56 -46 -102 -114 -116c54 -8 82 -38 82 -87
c0 -83 -82 -137 -207 -137zM733 43c84 0 142 36 142 89c0 42 -35 63 -105 63c-89 0 -145 -34 -145 -88c0 -43 35 -64 108 -64zM810 376c-84 0 -134 -28 -134 -76c0 -38 33 -58 97 -58c80 0 133 32 133 80c0 37 -31 54 -96 54z" />
    <glyph glyph-name="threeeighths" unicode="&#x215c;" horiz-adv-x="950" 
d="M248 0h-68l632 700h68zM241 275c-47 0 -98 3 -138 20l12 52c32 -17 81 -22 131 -22c62 0 140 18 140 89c0 46 -33 62 -98 62h-77l9 43h73c55 0 124 17 124 80c0 43 -32 56 -99 56c-45 0 -98 -6 -135 -21l11 51c43 16 102 20 153 20c89 0 132 -31 132 -88
c0 -69 -62 -102 -127 -116l-1 -2c74 -10 95 -43 95 -85c0 -99 -119 -139 -205 -139zM723 -5c-105 0 -156 31 -156 96c0 66 51 117 127 128c-46 10 -71 39 -71 81c0 75 80 125 198 125c92 0 141 -31 141 -90c0 -56 -46 -102 -114 -116c54 -8 82 -38 82 -87
c0 -83 -82 -137 -207 -137zM733 43c84 0 142 36 142 89c0 42 -35 63 -105 63c-89 0 -145 -34 -145 -88c0 -43 35 -64 108 -64zM810 376c-84 0 -134 -28 -134 -76c0 -38 33 -58 97 -58c80 0 133 32 133 80c0 37 -31 54 -96 54z" />
    <glyph glyph-name="fiveeighths" unicode="&#x215d;" horiz-adv-x="950" 
d="M243 0h-68l632 700h68zM252 275c-46 0 -105 4 -145 17l11 52c45 -14 85 -19 144 -19c80 0 133 45 133 107c0 47 -30 67 -103 67c-50 0 -96 -2 -139 -5l56 206h285l-11 -50h-241l-29 -108c31 2 72 4 109 4c91 0 134 -33 134 -102c0 -97 -87 -169 -204 -169zM713 -5
c-105 0 -156 31 -156 96c0 66 51 117 127 128c-46 10 -71 39 -71 81c0 75 80 125 198 125c92 0 141 -31 141 -90c0 -56 -46 -102 -114 -116c54 -8 82 -38 82 -87c0 -83 -82 -137 -207 -137zM723 43c84 0 142 36 142 89c0 42 -35 63 -105 63c-89 0 -145 -34 -145 -88
c0 -43 35 -64 108 -64zM800 376c-84 0 -134 -28 -134 -76c0 -38 33 -58 97 -58c80 0 133 32 133 80c0 37 -31 54 -96 54z" />
    <glyph glyph-name="seveneighths" unicode="&#x215e;" horiz-adv-x="950" 
d="M208 0h-68l632 700h68zM197 280l278 370h-287l11 50h350l-9 -39l-283 -381h-60zM723 -5c-105 0 -156 31 -156 96c0 66 51 117 127 128c-46 10 -71 39 -71 81c0 75 80 125 198 125c92 0 141 -31 141 -90c0 -56 -46 -102 -114 -116c54 -8 82 -38 82 -87
c0 -83 -82 -137 -207 -137zM733 43c84 0 142 36 142 89c0 42 -35 63 -105 63c-89 0 -145 -34 -145 -88c0 -43 35 -64 108 -64zM810 376c-84 0 -134 -28 -134 -76c0 -38 33 -58 97 -58c80 0 133 32 133 80c0 37 -31 54 -96 54z" />
    <glyph glyph-name="minus" unicode="&#x2212;" 
d="M155 357h420v-54h-420v54z" />
    <glyph glyph-name="infinity" unicode="&#x221e;" horiz-adv-x="690" 
d="M475 259l-55 55l-56 -56c-38 -38 -77 -48 -112 -48c-95 0 -132 75 -132 140c0 63 37 140 132 140c33 0 73 -9 112 -48l56 -56l57 59c35 36 76 45 112 45c93 0 131 -72 131 -140c0 -62 -37 -140 -131 -140c-34 0 -75 10 -114 49zM452 350l54 -54c22 -22 47 -34 79 -34
c61 0 85 44 85 88c0 49 -31 89 -84 89c-32 0 -61 -12 -87 -40zM388 350l-56 55c-22 21 -44 34 -76 34c-62 0 -84 -48 -84 -89c0 -50 30 -88 82 -88c31 0 59 13 85 39z" />
    <glyph glyph-name="approxequal" unicode="&#x2248;" 
d="M472 165c-84 0 -151 76 -210 76c-49 0 -83 -25 -108 -52v67c26 28 69 39 111 39c78 0 143 -76 213 -76c39 0 78 24 96 54v-71c-24 -26 -64 -37 -102 -37zM472 365c-84 0 -151 76 -210 76c-49 0 -83 -25 -108 -52v67c26 28 69 39 111 39c78 0 143 -76 213 -76
c39 0 78 24 96 54v-71c-24 -26 -64 -37 -102 -37z" />
    <glyph glyph-name="notequal" unicode="&#x2260;" 
d="M155 457h246l54 103h60l-54 -103h114v-54h-142l-77 -146h219v-54h-247l-53 -103h-60l53 103h-113v54h141l77 146h-218v54z" />
    <glyph glyph-name="lessequal" unicode="&#x2264;" 
d="M562 230l-420 175v50l420 175v-60l-347 -139v-2l347 -138v-61zM143 137h420v-54h-420v54z" />
    <glyph glyph-name="greaterequal" unicode="&#x2265;" 
d="M161 230v60l347 139v2l-347 138v61l420 -175v-50zM160 137h420v-54h-420v54z" />
    <glyph glyph-name="lozenge" unicode="&#x25ca;" 
d="M369 -10l-245 360l245 360l245 -360zM369 95l174 255l-174 254l-174 -254z" />
    <glyph glyph-name="uniF406" unicode="&#xf406;" horiz-adv-x="310" 
d="M200 892l45 13c5 -50 25 -82 85 -82s94 32 121 82l39 -13c-37 -75 -95 -117 -170 -117s-115 42 -120 117z" />
    <glyph glyph-name="uniF407" unicode="&#xf407;" horiz-adv-x="209" 
d="M40 -230c-37 0 -58 6 -75 16l14 39c19 -10 36 -13 64 -13c36 0 73 19 73 60c0 28 -30 38 -58 38c-9 0 -26 0 -34 -3l32 93h42l-20 -54c57 0 94 -18 94 -62c0 -72 -65 -114 -132 -114z" />
    <glyph glyph-name="uniF408" unicode="&#xf408;" horiz-adv-x="340" 
d="M174 770l153 140h74l93 -140h-54l-82 100l-124 -100h-60z" />
    <glyph glyph-name="uniF409" unicode="&#xf409;" horiz-adv-x="125" 
d="M-36 -230l7 35c36 12 58 28 68 65h-10c-26 0 -40 13 -40 32c0 32 20 48 60 48c25 0 44 -12 44 -41c0 -62 -58 -124 -129 -139z" />
    <glyph glyph-name="uniF40A" unicode="&#xf40a;" horiz-adv-x="260" 
d="M176 500l93 200h70l-113 -200h-50z" />
    <glyph glyph-name="uniF40B" unicode="&#xf40b;" horiz-adv-x="111" 
d="M234 796c-28 0 -44 16 -44 44s16 44 44 44s44 -16 44 -44s-16 -44 -44 -44z" />
    <glyph glyph-name="uniF40C" unicode="&#xf40c;" horiz-adv-x="209" 
d="M283 748c-54 0 -92 38 -92 92s38 92 92 92s92 -38 92 -92s-38 -92 -92 -92zM283 788c33 0 52 19 52 52s-19 52 -52 52s-52 -19 -52 -52s19 -52 52 -52z" />
    <glyph glyph-name="uniF40D" unicode="&#xf40d;" horiz-adv-x="297" 
d="M223 795l-41 11c5 49 38 80 81 80c24 0 43 -11 70 -23c24 -11 42 -22 59 -22s33 11 40 43l40 -11c-7 -52 -43 -79 -79 -79c-20 0 -33 4 -72 23c-23 11 -39 22 -56 22s-34 -10 -42 -44z" />
    <glyph glyph-name="uniF40E" unicode="&#xf40e;" horiz-adv-x="200" 
d="M60 -230c-55 0 -82 25 -82 65c0 78 81 137 140 174l35 -6c-44 -28 -117 -89 -117 -147c0 -24 19 -39 52 -39c22 0 45 5 66 17l-9 -45c-25 -11 -53 -19 -85 -19z" />
    <glyph glyph-name="zero.tab" unicode="&#xf4e0;" horiz-adv-x="650" 
d="M325 -10c-134 0 -189 97 -189 218c0 132 40 339 151 435c56 50 114 67 192 67c134 0 184 -91 184 -212c0 -122 -41 -336 -150 -439c-58 -55 -125 -69 -188 -69zM332 44c65 0 106 20 141 53c87 84 128 268 128 395c0 93 -32 164 -136 164c-54 0 -93 -10 -134 -46
c-91 -80 -133 -266 -133 -399c0 -90 31 -167 134 -167z" />
    <glyph glyph-name="one.tab" unicode="&#xf4e1;" horiz-adv-x="650" 
d="M142 54h206l122 571l-232 -119l13 64l251 130h44l-138 -646h173l-12 -54h-439z" />
    <glyph glyph-name="two.tab" unicode="&#xf4e2;" horiz-adv-x="650" 
d="M100 0l10 47c64 48 268 204 350 268c77 60 133 119 133 213c0 89 -49 121 -162 121c-73 0 -143 -27 -199 -64l16 75c63 31 134 49 204 49c112 0 203 -48 203 -172s-75 -197 -165 -267c-67 -52 -164 -126 -289 -216h370l-12 -54h-459z" />
    <glyph glyph-name="three.tab" unicode="&#xf4e3;" horiz-adv-x="650" 
d="M88 42l16 58c36 -29 99 -56 194 -56c118 0 220 42 220 183c0 68 -54 106 -177 106h-78l11 54h76c142 0 216 61 216 164c0 67 -44 105 -144 105c-95 0 -162 -23 -208 -50l16 63c67 29 130 41 216 41c129 0 182 -68 182 -144c0 -123 -68 -179 -179 -206
c93 -13 131 -59 131 -138c0 -81 -33 -141 -88 -181c-51 -37 -116 -51 -201 -51c-89 0 -156 23 -203 52z" />
    <glyph glyph-name="four.tab" unicode="&#xf4e4;" horiz-adv-x="650" 
d="M100 192l10 42l440 466h74l-96 -452h103l-11 -56h-104l-41 -192h-60l41 192h-356zM193 248h275l80 376z" />
    <glyph glyph-name="five.tab" unicode="&#xf4e5;" horiz-adv-x="650" 
d="M195 354l101 346h372l-11 -54h-317l-67 -230c26 3 47 8 108 8c113 0 225 -32 225 -165c0 -191 -143 -269 -313 -269c-69 0 -138 15 -178 36l15 65c53 -37 111 -47 171 -47c127 0 243 57 243 203c0 109 -94 123 -182 123c-68 0 -116 -6 -167 -16z" />
    <glyph glyph-name="six.tab" unicode="&#xf4e6;" horiz-adv-x="650" 
d="M657 680l-15 -64c-27 20 -72 40 -139 40c-186 0 -267 -155 -295 -332c52 82 117 121 223 121c113 0 192 -61 192 -178c0 -169 -115 -277 -280 -277c-115 0 -202 78 -202 218c0 164 49 314 133 402c75 78 152 100 250 100c52 0 103 -13 133 -30zM351 44
c120 0 210 78 210 207c0 96 -59 140 -151 140c-109 0 -207 -67 -207 -185c0 -98 51 -162 148 -162z" />
    <glyph glyph-name="seven.tab" unicode="&#xf4e7;" horiz-adv-x="650" 
d="M188 0l431 646h-397l11 54h474l-7 -36l-440 -664h-72z" />
    <glyph glyph-name="eight.tab" unicode="&#xf4e8;" horiz-adv-x="650" 
d="M324 -10c-110 0 -204 53 -204 174c0 122 82 193 194 212c-72 21 -105 64 -105 122c0 149 131 212 262 212c96 0 192 -45 192 -153c0 -111 -66 -161 -166 -187c80 -15 115 -74 115 -143c0 -72 -28 -139 -83 -180c-49 -37 -111 -57 -205 -57zM338 44c114 0 212 55 212 183
c0 96 -80 118 -160 118c-102 0 -208 -50 -208 -166c0 -93 72 -135 156 -135zM462 656c-96 0 -191 -43 -191 -156c0 -81 71 -105 142 -105c95 0 188 35 188 145c0 80 -67 116 -139 116z" />
    <glyph glyph-name="nine.tab" unicode="&#xf4e9;" horiz-adv-x="650" 
d="M271 -10c-53 0 -109 15 -134 30l16 65c27 -21 74 -41 131 -41c192 0 281 165 300 334c-45 -82 -117 -125 -226 -125c-104 0 -184 71 -184 178c0 92 34 162 85 209c51 46 115 70 188 70c138 0 210 -78 210 -216c0 -161 -47 -305 -122 -391c-66 -76 -146 -113 -264 -113z
M373 311c116 0 222 68 222 190c0 98 -64 155 -160 155c-122 0 -199 -98 -199 -217c0 -86 54 -128 137 -128z" />
    <glyph glyph-name="dollar.tab" unicode="&#xf4ec;" horiz-adv-x="650" 
d="M275 -120l24 111c-71 4 -141 26 -177 57l18 79c45 -51 110 -79 183 -79c126 0 193 54 193 159c0 168 -293 103 -293 302c0 117 89 194 229 200l19 91h54l-19 -92c57 -4 111 -19 147 -40l-16 -75c-44 39 -99 59 -166 59c-117 0 -180 -46 -180 -133
c0 -164 293 -97 293 -308c0 -131 -85 -211 -231 -220l-24 -111h-54z" />
    <glyph glyph-name="Euro.tab" unicode="&#xf4ed;" horiz-adv-x="650" 
d="M144 399l28 58h62c53 158 171 253 334 253c74 0 116 -10 151 -28l-29 -59c-40 25 -76 29 -131 29c-124 0 -212 -71 -256 -195h306l-28 -58h-295c-6 -25 -10 -51 -12 -78h269l-28 -58h-244v-16c0 -134 52 -199 182 -199c66 0 115 17 154 37l-14 -66
c-39 -17 -84 -29 -147 -29c-168 0 -243 85 -243 256v17h-84l29 58h58c3 27 7 53 12 78h-74z" />
    <glyph glyph-name="cent.tab" unicode="&#xf4ee;" horiz-adv-x="650" 
d="M576 103l-14 -66c-35 -24 -103 -47 -186 -47l-23 -110h-60l24 115c-107 19 -159 94 -159 203c0 184 87 316 274 330l19 92h60l-19 -91c64 -3 110 -17 131 -32l-15 -69c-25 20 -76 48 -153 48c-157 0 -235 -103 -235 -268c0 -91 48 -164 175 -164c69 0 139 28 181 59z" />
    <glyph glyph-name="sterling.tab" unicode="&#xf4ef;" horiz-adv-x="650" 
d="M180 353l9 44h100l17 80c33 155 123 233 268 233c48 0 95 -9 118 -18l-13 -59c-38 11 -70 19 -113 19c-110 0 -170 -54 -196 -176l-17 -79h187l-9 -44h-188l-63 -295h277l-12 -58h-440l12 58h99l63 295h-99z" />
    <glyph glyph-name="yen.tab" unicode="&#xf4fa;" horiz-adv-x="650" 
d="M186 281l12 58h133l-128 361h67l126 -361l273 361h74l-282 -361h135l-12 -58h-168l-17 -78h168l-12 -58h-168l-31 -145h-64l31 145h-166l12 58h166l17 78h-166z" />
    <glyph glyph-name="florin.tab" unicode="&#xf4fb;" horiz-adv-x="650" 
d="M277 466l11 54h100l14 65c26 125 75 175 173 175c20 0 42 -2 65 -6l-12 -55c-10 3 -31 7 -56 7c-66 0 -90 -28 -110 -121l-14 -65h142l-11 -54h-143l-100 -476c-29 -136 -69 -180 -166 -180c-15 0 -28 1 -40 4l12 54c10 -3 19 -4 29 -4c56 0 86 36 105 126l101 476h-100z
" />
    <glyph glyph-name="uni20B4.tab" unicode="&#xf4fc;" horiz-adv-x="650" 
d="M200 399l12 58h268c53 42 92 85 92 133c0 40 -33 62 -97 62c-61 0 -98 -7 -163 -27l13 61c58 17 126 24 162 24c101 0 153 -37 153 -105c0 -55 -32 -104 -79 -148h71l-12 -58h-128c-35 -27 -72 -52 -107 -78h218l-12 -58h-279c-47 -42 -80 -85 -80 -133
c0 -52 49 -82 133 -82c40 0 99 5 151 27l-13 -61c-59 -19 -120 -24 -158 -24c-112 0 -181 49 -181 130c0 54 27 100 66 143h-59l12 58h110c34 27 72 53 108 78h-201z" />
    <glyph glyph-name="uni20BD.tab" unicode="&#xf4fd;" horiz-adv-x="650" 
d="M106 171l12 58h101l16 78h-100l12 58h100l71 333c51 4 92 7 157 7c140 0 212 -54 212 -160c0 -158 -97 -238 -294 -238h-94l-16 -78h205l-12 -58h-206l-36 -171h-64l36 171h-100zM371 645l-59 -280h88c155 0 219 52 219 169c0 76 -49 113 -148 113c-40 0 -64 0 -100 -2z
" />
    <glyph glyph-name="uni20B8.tab" unicode="&#xf5f3;" horiz-adv-x="650" 
d="M293 0l108 506h-228l12 58h520l-12 -58h-228l-108 -506h-64zM202 642l12 58h519l-12 -58h-519z" />
    <glyph glyph-name="zero.denominator" unicode="&#xf655;" horiz-adv-x="450" 
d="M225 -5c-101 0 -151 45 -151 132c0 25 4 54 10 82c34 164 118 216 231 216c98 0 150 -39 150 -133c0 -24 -3 -50 -10 -81c-34 -161 -117 -216 -230 -216zM234 43c84 0 132 49 160 166c7 29 9 53 9 71c0 68 -29 97 -97 97c-76 0 -131 -32 -161 -152
c-8 -33 -11 -65 -11 -88c0 -62 35 -94 100 -94z" />
    <glyph glyph-name="one.denominator" unicode="&#xf656;" horiz-adv-x="450" 
d="M230 0l75 354l-140 -66l-14 45l182 87h46l-89 -420h-60z" />
    <glyph glyph-name="two.denominator" unicode="&#xf657;" horiz-adv-x="450" 
d="M60 0l11 54l137 87c133 85 174 124 174 177c0 37 -33 57 -95 57c-45 0 -97 -10 -134 -27l11 53c47 17 94 24 141 24c96 0 142 -30 142 -93c0 -70 -55 -126 -212 -223l-92 -57v-1h253l-11 -51h-325z" />
    <glyph glyph-name="three.denominator" unicode="&#xf658;" horiz-adv-x="450" 
d="M202 -5c-47 0 -98 3 -138 20l12 52c32 -17 81 -22 131 -22c62 0 140 18 140 89c0 46 -33 62 -98 62h-77l9 43h73c55 0 124 17 124 80c0 43 -32 56 -99 56c-45 0 -98 -6 -135 -21l11 51c43 16 102 20 153 20c89 0 132 -31 132 -88c0 -69 -62 -102 -127 -116l-1 -2
c74 -10 95 -43 95 -85c0 -99 -119 -139 -205 -139z" />
    <glyph glyph-name="four.denominator" unicode="&#xf659;" horiz-adv-x="450" 
d="M47 100l9 46l318 274h71l-58 -271h54l-10 -49h-54l-21 -100h-55l21 100h-275zM332 149l46 216h-1l-251 -216h206z" />
    <glyph glyph-name="five.denominator" unicode="&#xf65a;" horiz-adv-x="450" 
d="M218 -5c-46 0 -105 4 -145 17l11 52c45 -14 85 -19 144 -19c80 0 133 45 133 107c0 47 -30 67 -103 67c-50 0 -96 -2 -139 -5l56 206h285l-11 -50h-241l-29 -108c31 2 72 4 109 4c91 0 134 -33 134 -102c0 -97 -87 -169 -204 -169z" />
    <glyph glyph-name="six.denominator" unicode="&#xf65b;" horiz-adv-x="450" 
d="M227 -5c-96 0 -146 46 -146 133c0 174 112 297 269 297c32 0 70 -5 102 -13l-11 -51c-25 9 -58 14 -108 14c-97 0 -164 -56 -190 -158c46 36 107 56 170 56c83 0 125 -35 125 -104c0 -100 -90 -174 -211 -174zM241 41c77 0 136 49 136 114c0 47 -30 71 -88 71
c-53 0 -109 -20 -151 -54c-3 -12 -4 -24 -4 -34c0 -61 40 -97 107 -97z" />
    <glyph glyph-name="seven.denominator" unicode="&#xf65c;" horiz-adv-x="450" 
d="M138 0l278 370h-287l11 50h350l-9 -39l-283 -381h-60z" />
    <glyph glyph-name="eight.denominator" unicode="&#xf65d;" horiz-adv-x="450" 
d="M224 -5c-105 0 -156 31 -156 96c0 66 51 117 127 128c-46 10 -71 39 -71 81c0 75 80 125 198 125c92 0 141 -31 141 -90c0 -56 -46 -102 -114 -116c54 -8 82 -38 82 -87c0 -83 -82 -137 -207 -137zM234 43c84 0 142 36 142 89c0 42 -35 63 -105 63
c-89 0 -145 -34 -145 -88c0 -43 35 -64 108 -64zM311 376c-84 0 -134 -28 -134 -76c0 -38 33 -58 97 -58c80 0 133 32 133 80c0 37 -31 54 -96 54z" />
    <glyph glyph-name="nine.denominator" unicode="&#xf65e;" horiz-adv-x="450" 
d="M209 -5c-52 0 -89 5 -126 16l11 52c38 -13 73 -18 125 -18c85 0 148 60 175 168c-44 -40 -107 -64 -166 -64c-76 0 -119 39 -119 108c0 97 86 168 205 168c94 0 142 -43 142 -127c0 -175 -105 -303 -247 -303zM249 195c49 0 104 24 152 65c1 6 2 17 2 26
c0 58 -38 92 -104 92c-77 0 -130 -46 -130 -111c0 -47 28 -72 80 -72z" />
    <glyph glyph-name="zero.numerator" unicode="&#xf661;" horiz-adv-x="450" 
d="M285 275c-101 0 -151 45 -151 132c0 25 4 54 10 82c34 164 118 216 231 216c98 0 150 -39 150 -133c0 -24 -3 -50 -10 -81c-34 -161 -117 -216 -230 -216zM294 323c84 0 132 49 160 166c7 29 9 53 9 71c0 68 -29 97 -97 97c-76 0 -131 -32 -161 -152
c-8 -33 -11 -65 -11 -88c0 -62 35 -94 100 -94z" />
    <glyph glyph-name="one.numerator" unicode="&#xf662;" horiz-adv-x="450" 
d="M290 280l75 354l-140 -66l-14 45l182 87h46l-89 -420h-60z" />
    <glyph glyph-name="two.numerator" unicode="&#xf663;" horiz-adv-x="450" 
d="M120 280l11 54l137 87c133 85 174 124 174 177c0 37 -33 57 -95 57c-45 0 -97 -10 -134 -27l11 53c47 17 94 24 141 24c96 0 142 -30 142 -93c0 -70 -55 -126 -212 -223l-92 -57v-1h253l-11 -51h-325z" />
    <glyph glyph-name="three.numerator" unicode="&#xf664;" horiz-adv-x="450" 
d="M261 275c-47 0 -98 3 -138 20l12 52c32 -17 81 -22 131 -22c62 0 140 18 140 89c0 46 -33 62 -98 62h-77l9 43h73c55 0 124 17 124 80c0 43 -32 56 -99 56c-45 0 -98 -6 -135 -21l11 51c43 16 102 20 153 20c89 0 132 -31 132 -88c0 -69 -62 -102 -127 -116l-1 -2
c74 -10 95 -43 95 -85c0 -99 -119 -139 -205 -139z" />
    <glyph glyph-name="four.numerator" unicode="&#xf665;" horiz-adv-x="450" 
d="M107 380l9 46l318 274h71l-58 -271h54l-10 -49h-54l-21 -100h-55l21 100h-275zM392 429l46 216h-1l-251 -216h206z" />
    <glyph glyph-name="five.numerator" unicode="&#xf666;" horiz-adv-x="450" 
d="M277 275c-46 0 -105 4 -145 17l11 52c45 -14 85 -19 144 -19c80 0 133 45 133 107c0 47 -30 67 -103 67c-50 0 -96 -2 -139 -5l56 206h285l-11 -50h-241l-29 -108c31 2 72 4 109 4c91 0 134 -33 134 -102c0 -97 -87 -169 -204 -169z" />
    <glyph glyph-name="six.numerator" unicode="&#xf667;" horiz-adv-x="450" 
d="M286 275c-96 0 -146 46 -146 133c0 174 112 297 269 297c32 0 70 -5 102 -13l-11 -51c-25 9 -58 14 -108 14c-97 0 -164 -56 -190 -158c46 36 107 56 170 56c83 0 125 -35 125 -104c0 -100 -90 -174 -211 -174zM300 321c77 0 136 49 136 114c0 47 -30 71 -88 71
c-53 0 -109 -20 -151 -54c-3 -12 -4 -24 -4 -34c0 -61 40 -97 107 -97z" />
    <glyph glyph-name="seven.numerator" unicode="&#xf668;" horiz-adv-x="450" 
d="M197 280l278 370h-287l11 50h350l-9 -39l-283 -381h-60z" />
    <glyph glyph-name="eight.numerator" unicode="&#xf669;" horiz-adv-x="450" 
d="M283 275c-105 0 -156 31 -156 96c0 66 51 117 127 128c-46 10 -71 39 -71 81c0 75 80 125 198 125c92 0 141 -31 141 -90c0 -56 -46 -102 -114 -116c54 -8 82 -38 82 -87c0 -83 -82 -137 -207 -137zM293 323c84 0 142 36 142 89c0 42 -35 63 -105 63
c-89 0 -145 -34 -145 -88c0 -43 35 -64 108 -64zM370 656c-84 0 -134 -28 -134 -76c0 -38 33 -58 97 -58c80 0 133 32 133 80c0 37 -31 54 -96 54z" />
    <glyph glyph-name="nine.numerator" unicode="&#xf66a;" horiz-adv-x="450" 
d="M268 275c-52 0 -89 5 -126 16l11 52c38 -13 73 -18 125 -18c85 0 148 60 175 168c-44 -40 -107 -64 -166 -64c-76 0 -119 39 -119 108c0 97 86 168 205 168c94 0 142 -43 142 -127c0 -175 -105 -303 -247 -303zM308 475c49 0 104 24 152 65c1 6 2 17 2 26
c0 58 -38 92 -104 92c-77 0 -130 -46 -130 -111c0 -47 28 -72 80 -72z" />
    <glyph glyph-name="uniF6BA" unicode="&#xf6ba;" horiz-adv-x="470" 
d="M172 321l12 58h260l-12 -58h-260z" />
    <glyph glyph-name="uniF6BB" unicode="&#xf6bb;" horiz-adv-x="720" 
d="M190 379h498l-12 -58h-498z" />
    <glyph glyph-name="uniF6BC" unicode="&#xf6bc;" horiz-adv-x="890" 
d="M175 379h698l-12 -58h-698z" />
    <glyph glyph-name="uniF6C3" unicode="&#xf6c3;" horiz-adv-x="125" 
d="M-29 -230l-3 32c32 12 62 31 72 70c-6 -1 -11 -1 -14 -1c-22 0 -36 13 -36 31c0 32 24 48 62 48c25 0 42 -12 42 -41c0 -66 -62 -124 -123 -139z" />
    <glyph glyph-name="uniF6C9" unicode="&#xf6c9;" horiz-adv-x="191" 
d="M174 770l114 140h86l-144 -140h-56z" />
    <glyph glyph-name="uniF6CA" unicode="&#xf6ca;" horiz-adv-x="340" 
d="M296 770l-93 140h54l82 -100l124 100h60l-153 -140h-74z" />
    <glyph glyph-name="uniF6CB" unicode="&#xf6cb;" horiz-adv-x="303" 
d="M234 796c-28 0 -44 16 -44 44s16 44 44 44s44 -16 44 -44s-16 -44 -44 -44zM426 796c-28 0 -44 16 -44 44s16 44 44 44s44 -16 44 -44s-16 -44 -44 -44z" />
    <glyph glyph-name="uniF6CE" unicode="&#xf6ce;" horiz-adv-x="179" 
d="M282 785l-78 130h82l50 -130h-54z" />
    <glyph glyph-name="uniF6CF" unicode="&#xf6cf;" horiz-adv-x="361" 
d="M174 770l98 140h84l-126 -140h-56zM328 770l126 140h90l-156 -140h-60z" />
    <glyph glyph-name="uniF6D0" unicode="&#xf6d0;" horiz-adv-x="311" 
d="M194 815v51h280v-51h-280z" />
    <glyph glyph-name="uniF6D1" unicode="&#xf6d1;" horiz-adv-x="320" 
d="M324 775c-81 0 -124 34 -124 104c0 8 1 17 2 26h58c-1 -5 -2 -15 -2 -22c0 -43 24 -60 76 -60c60 0 92 22 112 82h56c-27 -88 -88 -130 -178 -130z" />
    <glyph glyph-name="uniF6D4" unicode="&#xf6d4;" horiz-adv-x="310" 
d="M285 615c-77 0 -118 38 -118 107c0 7 0 15 1 23h56c-1 -6 -1 -12 -1 -18c0 -43 23 -66 72 -66c55 0 90 29 109 84h54c-26 -83 -88 -130 -173 -130z" />
    <glyph glyph-name="uniFEFF" unicode="&#xfeff;" horiz-adv-x="0" 
 />
    <glyph glyph-name="percent.tab" horiz-adv-x="650" 
d="M384 98c0 98 50 227 165 227c65 0 101 -37 101 -106c0 -99 -52 -224 -167 -224c-66 0 -99 35 -99 103zM494 47c69 0 100 105 100 164c0 41 -18 62 -54 62c-75 0 -100 -101 -100 -163c0 -43 18 -63 54 -63zM150 478c0 98 50 227 165 227c65 0 101 -37 101 -106
c0 -99 -52 -224 -167 -224c-66 0 -99 35 -99 103zM260 427c69 0 100 105 100 164c0 41 -18 62 -54 62c-75 0 -100 -101 -100 -163c0 -43 18 -63 54 -63zM118 0h-68l632 700h68z" />
    <glyph glyph-name="plus.tab" horiz-adv-x="650" 
d="M368 120v183h-183v54h183v183h54v-183h183v-54h-183v-183h-54z" />
    <glyph glyph-name="less.tab" horiz-adv-x="650" 
d="M585 130l-420 175v50l420 175v-60l-347 -139v-2l347 -138v-61z" />
    <glyph glyph-name="equal.tab" horiz-adv-x="650" 
d="M184 257h420v-54h-420v54zM184 457h420v-54h-420v54z" />
    <glyph glyph-name="greater.tab" horiz-adv-x="650" 
d="M203 130v60l347 139v2l-347 138v61l420 -175v-50z" />
    <glyph glyph-name="multiply.tab" horiz-adv-x="650" 
d="M256 150l-41 41l139 139l-139 139l41 41l139 -139l139 139l41 -41l-139 -139l139 -139l-41 -41l-139 139z" />
    <glyph glyph-name="divide.tab" horiz-adv-x="650" 
d="M185 357h420v-54h-420v54zM395 130c-33 0 -50 17 -50 50s17 50 50 50s50 -17 50 -50s-17 -50 -50 -50zM395 430c-33 0 -50 17 -50 50s17 50 50 50s50 -17 50 -50s-17 -50 -50 -50z" />
    <glyph glyph-name="perthousand.tab" horiz-adv-x="650" 
d="M505 -5c-62 0 -96 27 -96 88c0 15 2 32 6 52c20 94 72 140 147 140c61 0 97 -27 97 -90c0 -14 -2 -31 -6 -50c-21 -98 -74 -140 -148 -140zM516 48c42 0 68 18 83 87c4 16 6 30 6 41c0 34 -18 46 -52 46c-43 0 -70 -22 -84 -87c-3 -15 -5 -28 -5 -39c0 -36 19 -48 52 -48
zM237 -5c-62 0 -96 27 -96 88c0 15 2 32 6 52c20 94 72 140 147 140c61 0 97 -27 97 -90c0 -14 -2 -31 -6 -50c-21 -98 -74 -140 -148 -140zM248 48c42 0 68 18 83 87c4 16 6 30 6 41c0 34 -18 46 -52 46c-43 0 -70 -22 -84 -87c-3 -15 -5 -28 -5 -39c0 -36 19 -48 52 -48z
M110 263l-15 38l510 218l14 -38zM235 425c-62 0 -96 27 -96 88c0 15 2 32 6 52c20 94 72 140 147 140c61 0 97 -27 97 -90c0 -14 -2 -31 -6 -50c-21 -98 -74 -140 -148 -140zM246 478c42 0 68 18 83 87c4 16 6 30 6 41c0 34 -18 46 -52 46c-43 0 -70 -22 -84 -87
c-3 -15 -5 -28 -5 -39c0 -36 19 -48 52 -48z" />
    <glyph glyph-name="minus.tab" horiz-adv-x="650" 
d="M185 357h420v-54h-420v54z" />
    <glyph glyph-name="f_b" horiz-adv-x="970" 
d="M445 0l148 695c-59 2 -122 6 -169 6c-70 0 -94 -20 -110 -97l-18 -84h128l-11 -54h-129l-99 -466h-60l99 466h-84l11 54h85l20 93c23 108 83 142 184 142c45 0 146 -5 225 -5l-70 -327c48 76 109 107 209 107c106 0 167 -71 167 -185c0 -169 -75 -355 -284 -355
c-91 0 -155 54 -163 135l-39 -125h-40zM689 44c163 0 220 152 220 293c0 92 -47 139 -131 139c-126 0 -194 -86 -213 -182l-12 -61c-21 -106 21 -189 136 -189z" />
    <glyph glyph-name="f_f_b" horiz-adv-x="1290" 
d="M445 0l99 466h-260l-99 -466h-60l99 466h-84l11 54h85l20 93c23 108 83 142 174 142c33 0 63 -5 78 -11l-13 -62c-20 12 -48 19 -81 19c-60 0 -84 -20 -100 -97l-18 -84h260l20 93c23 108 83 142 184 142c45 0 146 -5 225 -5l-70 -327c48 76 109 107 209 107
c106 0 167 -71 167 -185c0 -169 -75 -355 -284 -355c-91 0 -155 54 -163 135l-39 -125h-40l148 695c-59 2 -122 6 -169 6c-70 0 -94 -20 -110 -97l-18 -84h128l-11 -54h-129l-99 -466h-60zM1009 44c163 0 220 152 220 293c0 92 -47 139 -131 139c-126 0 -194 -86 -213 -182
l-12 -61c-21 -106 21 -189 136 -189z" />
    <glyph glyph-name="f_f_h" horiz-adv-x="1275" 
d="M445 0l99 466h-260l-99 -466h-60l99 466h-84l11 54h85l20 93c23 108 83 142 174 142c33 0 63 -5 78 -11l-13 -62c-20 12 -48 19 -81 19c-60 0 -84 -20 -100 -97l-18 -84h260l20 93c23 108 83 142 184 142c39 0 120 -4 192 -5h31l-70 -332c47 70 110 112 205 112
c106 0 152 -38 152 -119c0 -21 -2 -45 -8 -72l-72 -339h-60l69 329c5 22 7 45 7 61c0 65 -36 86 -118 86c-112 0 -178 -74 -196 -161l-67 -315h-60l147 694c-59 2 -121 7 -168 7c-70 0 -94 -20 -110 -97l-18 -84h128l-11 -54h-129l-99 -466h-60z" />
    <glyph glyph-name="f_f_j" horiz-adv-x="920" 
d="M445 0l99 466h-260l-99 -466h-60l99 466h-84l11 54h85l20 93c23 108 83 142 174 142c33 0 63 -5 78 -11l-13 -62c-20 12 -48 19 -81 19c-60 0 -84 -20 -100 -97l-18 -84h260l20 93c23 108 83 142 174 142c33 0 63 -5 78 -11l-13 -62c-20 12 -48 19 -81 19
c-60 0 -84 -20 -100 -97l-18 -84h320l-118 -553c-23 -106 -73 -152 -167 -152c-27 0 -51 3 -63 9l14 65c14 -11 36 -17 65 -17c52 0 77 26 91 92l106 502h-260l-99 -466h-60zM941 638c-27 0 -42 15 -42 42s15 42 42 42s42 -15 42 -42s-15 -42 -42 -42z" />
    <glyph glyph-name="f_f_k" horiz-adv-x="1210" 
d="M445 0l99 466h-260l-99 -466h-60l99 466h-84l11 54h85l20 93c23 108 83 142 174 142c33 0 63 -5 78 -11l-13 -62c-20 12 -48 19 -81 19c-60 0 -84 -20 -100 -97l-18 -84h260l20 93c23 108 83 142 184 142c45 0 145 -5 224 -5l-96 -453h38l264 223h80l-294 -254l204 -266
h-75l-191 243h-37l-52 -243h-60l147 694c-59 2 -121 7 -168 7c-70 0 -94 -20 -110 -97l-18 -84h128l-11 -54h-129l-99 -466h-60z" />
    <glyph glyph-name="f_h" horiz-adv-x="955" 
d="M445 0l147 694c-59 2 -121 7 -168 7c-70 0 -94 -20 -110 -97l-18 -84h128l-11 -54h-129l-99 -466h-60l99 466h-84l11 54h85l20 93c23 108 83 142 184 142c45 0 144 -5 223 -5l-70 -332c47 70 110 112 205 112c106 0 152 -38 152 -119c0 -21 -2 -45 -8 -72l-72 -339h-60
l69 329c5 22 7 45 7 61c0 65 -36 86 -118 86c-112 0 -178 -74 -196 -161l-67 -315h-60z" />
    <glyph glyph-name="f_j" horiz-adv-x="600" 
d="M268 -176l14 65c14 -11 36 -17 65 -17c52 0 77 26 91 92l106 502h-260l-99 -466h-60l99 466h-84l11 54h85l20 93c23 108 83 142 174 142c33 0 63 -5 78 -11l-13 -62c-20 12 -48 19 -81 19c-60 0 -84 -20 -100 -97l-18 -84h320l-118 -553c-23 -106 -73 -152 -167 -152
c-27 0 -51 3 -63 9zM621 638c-27 0 -42 15 -42 42s15 42 42 42s42 -15 42 -42s-15 -42 -42 -42z" />
    <glyph glyph-name="f_k" horiz-adv-x="890" 
d="M445 0l147 694c-59 2 -121 7 -168 7c-70 0 -94 -20 -110 -97l-18 -84h128l-11 -54h-129l-99 -466h-60l99 466h-84l11 54h85l20 93c23 108 83 142 184 142c39 0 121 -4 193 -5h31l-96 -453h38l264 223h80l-294 -254l204 -266h-75l-191 243h-37l-52 -243h-60z" />
    </font>
</defs>
</svg>
