<?xml version="1.0" standalone="no"?>
<!DOCTYPE svg PUBLIC "-//W3C//DTD SVG 1.1//EN" "http://www.w3.org/Graphics/SVG/1.1/DTD/svg11.dtd" >
<svg xmlns="http://www.w3.org/2000/svg" xmlns:xlink="http://www.w3.org/1999/xlink" version="1.1">
<metadata>
Created by FontForge 20190801 at Wed Apr 17 13:05:06 2019
 By Jimmy Wärting
Copyright (c) 2018 ParaType Inc., ParaType Ltd. All rights reserved.
</metadata>
<defs>
<font id="SBSansText-Regular" horiz-adv-x="650" >
  <font-face 
    font-family="SB Sans Text"
    font-weight="400"
    font-stretch="normal"
    units-per-em="1000"
    panose-1="2 11 5 3 4 5 4 2 2 4"
    ascent="801"
    descent="-199"
    x-height="530"
    cap-height="700"
    bbox="-350 -252 1255 955"
    underline-thickness="50"
    underline-position="-125"
    stemh="74"
    stemv="83"
    unicode-range="U+0020-FEFF"
  />
<missing-glyph horiz-adv-x="500" 
 />
    <glyph glyph-name="f_f" unicode="ff" horiz-adv-x="738" 
d="M454 0v452h-248v-452h-83v452h-83v78h84v60c0 126 63 165 181 165c41 0 69 -5 82 -9v-87c-18 8 -41 17 -83 17c-77 0 -98 -19 -98 -99v-47h249v60c0 126 63 165 181 165c41 0 69 -5 82 -9v-87c-18 8 -41 17 -83 17c-77 0 -98 -19 -98 -99v-47h180v-78h-180v-452h-83z" />
    <glyph glyph-name="fi" unicode="fi" horiz-adv-x="647" 
d="M440 702c0 28 13 51 55 51s56 -23 56 -51s-14 -54 -56 -54s-55 26 -55 54zM124 530v60c0 126 59 165 170 165c36 0 68 -6 85 -9v-87c-23 7 -53 17 -86 17c-68 0 -87 -19 -87 -99v-47h331v-530h-83v452h-248v-452h-83v452h-83v78h84z" />
    <glyph glyph-name="fl" unicode="fl" horiz-adv-x="705" 
d="M124 530v60c0 126 63 165 181 165c55 0 107 -5 149 -5h83v-599c0 -66 19 -82 75 -82c30 0 57 7 73 13v-74c-16 -9 -54 -18 -91 -18c-86 0 -140 37 -140 130v550c-40 3 -94 6 -150 6c-77 0 -98 -19 -98 -99v-47h180v-78h-180v-452h-83v452h-83v78h84z" />
    <glyph glyph-name="f_f_i" unicode="ffi" horiz-adv-x="978" 
d="M123 0v452h-83v78h84v60c0 126 63 165 181 165c41 0 69 -5 82 -9v-87c-18 8 -41 17 -83 17c-77 0 -98 -19 -98 -99v-47h249v60c0 126 59 165 170 165c36 0 68 -6 85 -9v-87c-23 7 -53 17 -86 17c-68 0 -87 -19 -87 -99v-47h331v-530h-83v452h-248v-452h-83v452h-248v-452
h-83zM771 702c0 28 13 51 55 51s56 -23 56 -51s-14 -54 -56 -54s-55 26 -55 54z" />
    <glyph glyph-name="f_f_l" unicode="ffl" horiz-adv-x="1036" 
d="M123 0v452h-83v78h84v60c0 126 63 165 181 165c41 0 69 -5 82 -9v-87c-18 8 -41 17 -83 17c-77 0 -98 -19 -98 -99v-47h249v60c0 126 63 165 181 165c55 0 107 -5 149 -5h83v-599c0 -66 19 -82 75 -82c30 0 57 7 73 13v-74c-16 -9 -54 -18 -91 -18
c-86 0 -140 37 -140 130v550c-40 3 -94 6 -150 6c-77 0 -98 -19 -98 -99v-47h180v-78h-180v-452h-83v452h-248v-452h-83z" />
    <glyph glyph-name=".notdef" horiz-adv-x="500" 
 />
    <glyph glyph-name="space" unicode=" " horiz-adv-x="300" 
 />
    <glyph glyph-name="exclam" unicode="!" horiz-adv-x="381" 
d="M150 54c0 36 15 65 65 65c51 0 66 -29 66 -65c0 -35 -15 -64 -66 -64c-50 0 -65 29 -65 64zM170 230v470h90v-470h-90z" />
    <glyph glyph-name="quotedbl" unicode="&#x22;" horiz-adv-x="594" 
d="M150 430v270h84v-270h-84zM360 430v270h84v-270h-84z" />
    <glyph glyph-name="numbersign" unicode="#" horiz-adv-x="759" 
d="M108 0l55 188h-123l26 75h119l53 182h-133l26 75h129l53 180h80l-53 -180h170l53 180h80l-53 -180h129l-26 -75h-125l-53 -182h139l-26 -75h-135l-55 -188h-80l55 188h-170l-55 -188h-80zM265 263h170l53 182h-170z" />
    <glyph glyph-name="dollar" unicode="$" horiz-adv-x="600" 
d="M434 185c0 187 -352 86 -352 331c0 111 53 176 189 189v95h64v-92c66 -2 123 -14 166 -36v-106c-40 37 -110 62 -180 62c-114 0 -146 -33 -146 -99c0 -180 354 -70 354 -338c0 -113 -58 -183 -194 -196v-115h-64v112c-78 2 -155 24 -198 58v118c45 -50 114 -96 208 -96
c106 0 153 38 153 113z" />
    <glyph glyph-name="percent" unicode="%" horiz-adv-x="931" 
d="M173 0l507 700h87l-504 -700h-90zM500 147c0 103 67 163 178 163c97 0 163 -55 163 -163c0 -105 -69 -165 -177 -165c-104 0 -164 60 -164 165zM770 147c0 58 -32 91 -99 91s-99 -33 -99 -91c0 -57 37 -93 101 -93c61 0 97 31 97 93zM90 547c0 103 67 163 178 163
c97 0 163 -55 163 -163c0 -105 -69 -165 -177 -165c-104 0 -164 60 -164 165zM360 547c0 58 -32 91 -99 91s-99 -33 -99 -91c0 -57 37 -93 101 -93c61 0 97 31 97 93z" />
    <glyph glyph-name="ampersand" unicode="&#x26;" horiz-adv-x="896" 
d="M670 520h86c0 -118 -34 -270 -112 -382c46 -27 91 -46 132 -52v-101c-59 13 -124 45 -188 88c-58 -55 -134 -91 -230 -91c-175 0 -258 71 -258 229c0 85 35 169 166 224c-21 45 -32 88 -32 126c0 99 49 150 163 150c86 0 145 -42 145 -126c0 -92 -44 -146 -168 -181
c49 -80 123 -159 206 -222c64 87 90 216 90 338zM523 122c-91 74 -170 160 -224 251c-80 -31 -111 -78 -111 -150c0 -110 53 -151 179 -151c57 0 110 15 156 50zM342 461c87 29 116 54 116 106c0 47 -18 65 -72 65c-46 0 -69 -17 -69 -77c0 -27 9 -59 25 -94z" />
    <glyph glyph-name="quotesingle" unicode="'" horiz-adv-x="384" 
d="M150 430v270h84v-270h-84z" />
    <glyph glyph-name="parenleft" unicode="(" horiz-adv-x="355" 
d="M312 -157l-40 -35c-35 24 -192 188 -192 477c0 254 143 444 191 478l44 -34c-33 -38 -150 -191 -150 -444c0 -248 114 -407 147 -442z" />
    <glyph glyph-name="parenright" unicode=")" horiz-adv-x="355" 
d="M43 -157c33 35 147 191 147 439c0 253 -117 409 -150 447l44 34c48 -34 191 -224 191 -478c0 -289 -157 -453 -192 -477z" />
    <glyph glyph-name="asterisk" unicode="*" horiz-adv-x="584" 
d="M140 368l101 118l-151 35l28 85l143 -61l-14 155h90l-14 -155l144 61l27 -85l-151 -35l102 -118l-73 -52l-80 133l-80 -133z" />
    <glyph glyph-name="plus" unicode="+" horiz-adv-x="600" 
d="M90 303v84h168v168h84v-168h168v-84h-168v-168h-84v168h-168z" />
    <glyph glyph-name="comma" unicode="," horiz-adv-x="364" 
d="M60 -102c67 7 110 45 120 93c-44 0 -68 17 -68 63c0 36 21 65 65 65c51 0 77 -34 77 -93c0 -115 -85 -175 -145 -187z" />
    <glyph glyph-name="hyphen" unicode="-" horiz-adv-x="467" 
d="M100 253v84h267v-84h-267z" />
    <glyph glyph-name="period" unicode="." horiz-adv-x="351" 
d="M110 54c0 36 15 65 65 65c51 0 66 -29 66 -65c0 -35 -15 -64 -66 -64c-50 0 -65 29 -65 64z" />
    <glyph glyph-name="slash" unicode="/" horiz-adv-x="330" 
d="M0 -180l251 880h80l-251 -880h-80z" />
    <glyph glyph-name="zero" unicode="0" horiz-adv-x="600" 
d="M60 349c0 268 81 359 251 359c163 0 229 -105 229 -359c0 -280 -85 -359 -240 -359c-166 0 -240 116 -240 359zM148 349c0 -212 50 -283 156 -283s148 57 148 280c0 232 -39 286 -152 286c-114 0 -152 -63 -152 -283z" />
    <glyph glyph-name="one" unicode="1" horiz-adv-x="600" 
d="M100 0v80h206v522l-206 -123v87l230 141h60v-627h128v-80h-418z" />
    <glyph glyph-name="two" unicode="2" horiz-adv-x="600" 
d="M58 0v56c287 247 369 302 369 433c0 95 -53 135 -162 135c-79 0 -139 -28 -196 -64v102c53 28 122 46 213 46c165 0 233 -74 233 -205c0 -151 -68 -233 -318 -423h334v-80h-473z" />
    <glyph glyph-name="three" unicode="3" horiz-adv-x="600" 
d="M185 318v75h55c120 0 171 43 171 130c0 69 -30 103 -143 103c-87 0 -154 -35 -198 -63v93c41 26 111 52 214 52c144 0 211 -48 212 -170c1 -90 -43 -145 -142 -171c110 -7 176 -62 176 -164c0 -136 -79 -211 -242 -211c-110 0 -184 23 -223 49v110
c39 -35 116 -72 216 -72c120 0 164 40 164 124c0 71 -44 115 -204 115h-56z" />
    <glyph glyph-name="four" unicode="4" horiz-adv-x="600" 
d="M42 193v57l315 450h107v-427h104v-80h-104v-193h-84v193h-338zM380 273v329l-226 -329h226z" />
    <glyph glyph-name="five" unicode="5" horiz-adv-x="600" 
d="M94 354l33 346h383v-80h-313l-18 -182c15 1 60 1 105 1c186 0 244 -79 244 -211c0 -151 -76 -236 -257 -236c-66 0 -143 9 -189 30v101c42 -28 126 -45 178 -45c136 0 180 50 180 142c0 100 -35 141 -194 141c-57 0 -118 -2 -152 -7z" />
    <glyph glyph-name="six" unicode="6" horiz-adv-x="600" 
d="M313 -8c-188 0 -259 121 -259 337c0 286 133 379 316 379c47 0 96 -8 129 -21v-96c-29 16 -66 31 -143 31c-130 0 -222 -74 -222 -269c0 -24 1 -26 2 -32c34 84 93 133 210 133c137 0 201 -97 201 -208c0 -179 -109 -254 -234 -254zM154 256c1 -108 54 -176 165 -176
c84 0 142 48 142 148c0 93 -39 145 -143 145s-146 -61 -164 -117z" />
    <glyph glyph-name="seven" unicode="7" horiz-adv-x="600" 
d="M159 0l280 610h-374v90h480v-58l-289 -642h-97z" />
    <glyph glyph-name="eight" unicode="8" horiz-adv-x="600" 
d="M59 200c0 67 19 144 129 174c-83 21 -113 64 -113 150c0 114 64 187 225 187c160 0 217 -71 217 -163c0 -85 -14 -147 -111 -173c103 -24 135 -77 135 -169c0 -125 -71 -214 -240 -214c-159 0 -242 80 -242 208zM147 213c0 -94 60 -135 155 -135c112 0 153 47 153 133
c0 84 -58 123 -154 123c-100 0 -154 -47 -154 -121zM158 513c0 -61 42 -112 141 -112c95 0 135 46 135 114c0 77 -35 110 -135 110s-141 -38 -141 -112z" />
    <glyph glyph-name="nine" unicode="9" horiz-adv-x="600" 
d="M288 708c188 0 259 -121 259 -337c0 -286 -133 -379 -316 -379c-47 0 -96 8 -129 21v96c29 -16 66 -31 143 -31c130 0 222 74 222 269c0 24 -1 26 -2 32c-34 -84 -88 -133 -205 -133c-137 0 -206 97 -206 208c0 179 109 254 234 254zM448 454c-5 97 -55 167 -166 166
c-84 -1 -140 -48 -142 -148c-2 -93 44 -145 148 -145s147 60 160 127z" />
    <glyph glyph-name="colon" unicode=":" horiz-adv-x="351" 
d="M110 54c0 36 15 65 65 65c51 0 66 -29 66 -65c0 -35 -15 -64 -66 -64c-50 0 -65 29 -65 64zM110 426c0 36 15 65 65 65c51 0 66 -29 66 -65c0 -35 -15 -64 -66 -64c-50 0 -65 29 -65 64z" />
    <glyph glyph-name="semicolon" unicode=";" horiz-adv-x="364" 
d="M112 425c0 36 15 65 65 65c51 0 66 -29 66 -65c0 -35 -15 -64 -66 -64c-50 0 -65 29 -65 64zM60 -102c67 7 110 45 120 93c-44 0 -68 17 -68 63c0 36 21 65 65 65c51 0 77 -34 77 -93c0 -115 -85 -175 -145 -187z" />
    <glyph glyph-name="less" unicode="&#x3c;" horiz-adv-x="600" 
d="M68 291v70l415 173v-84l-316 -123v-2l316 -123v-85z" />
    <glyph glyph-name="equal" unicode="=" horiz-adv-x="601" 
d="M88 184v79h425v-79h-425zM88 398v79h425v-79h-425z" />
    <glyph glyph-name="greater" unicode="&#x3e;" horiz-adv-x="600" 
d="M117 117v85l315 123v2l-315 123v84l415 -173v-70z" />
    <glyph glyph-name="question" unicode="?" horiz-adv-x="597" 
d="M197 230c0 168 226 140 226 290c0 63 -52 108 -157 108c-70 0 -114 -15 -156 -39v93c36 14 95 26 163 26c146 0 234 -54 234 -188c0 -189 -230 -181 -230 -290h-80zM172 54c0 36 15 65 65 65c51 0 66 -29 66 -65c0 -35 -15 -64 -66 -64c-50 0 -65 29 -65 64z" />
    <glyph glyph-name="at" unicode="@" horiz-adv-x="1053" 
d="M741 63c-75 0 -104 33 -115 95c-17 -57 -63 -95 -135 -95c-113 0 -170 62 -170 231c0 147 76 223 185 223c71 0 102 -38 115 -72l11 61h60v-307c0 -48 18 -65 54 -65c58 0 121 55 121 188c0 196 -116 315 -334 315c-219 0 -347 -116 -347 -347c0 -209 114 -351 349 -351
c79 0 148 24 182 54v-78c-32 -18 -103 -39 -182 -39c-268 0 -415 167 -415 416c0 243 147 408 415 408c246 0 398 -143 398 -378c0 -150 -79 -259 -192 -259zM401 296c0 -122 32 -163 108 -163c63 0 103 50 103 139v52c0 98 -46 121 -99 121c-70 0 -112 -41 -112 -149z" />
    <glyph glyph-name="A" unicode="A" horiz-adv-x="679" 
d="M555 0l-70 187h-299l-69 -187h-92l267 700h91l271 -700h-99zM335 588l-119 -321h239z" />
    <glyph glyph-name="B" unicode="B" horiz-adv-x="661" 
d="M112 4v693c43 4 140 9 197 9c191 0 251 -52 251 -176c0 -85 -35 -139 -110 -163c102 -12 146 -72 146 -163c0 -145 -76 -212 -274 -212c-86 0 -168 5 -210 12zM202 80c37 -6 87 -8 126 -8c136 0 177 39 177 131c0 90 -53 118 -161 118h-142v-241zM202 391h126
c107 0 142 43 142 114c0 100 -27 121 -157 121c-36 0 -78 0 -111 -3v-232z" />
    <glyph glyph-name="C" unicode="C" horiz-adv-x="658" 
d="M579 677v-100c-36 25 -107 51 -190 51c-148 0 -225 -69 -225 -269c0 -219 88 -286 233 -286c94 0 171 37 201 54v-91c-32 -18 -107 -44 -202 -44c-221 0 -326 104 -326 358c0 253 109 358 322 358c90 0 152 -20 187 -31z" />
    <glyph glyph-name="D" unicode="D" horiz-adv-x="743" 
d="M112 5v693c41 5 95 10 204 10c270 0 357 -108 357 -334c0 -278 -126 -382 -376 -382c-91 0 -151 8 -185 13zM202 79c27 -4 58 -7 89 -7c204 0 288 74 288 290c0 196 -62 266 -268 266c-40 0 -77 -3 -109 -7v-542z" />
    <glyph glyph-name="E" unicode="E" horiz-adv-x="608" 
d="M112 0v700h426v-80h-336v-225h308v-80h-308v-235h336v-80h-426z" />
    <glyph glyph-name="F" unicode="F" horiz-adv-x="587" 
d="M112 0v700h415v-80h-325v-253h308v-80h-308v-287h-90z" />
    <glyph glyph-name="G" unicode="G" horiz-adv-x="709" 
d="M401 271v79h238v-320c-32 -13 -105 -38 -208 -38c-244 0 -361 102 -361 358c0 247 125 358 356 358c77 0 131 -14 163 -31v-95c-38 22 -94 46 -169 46c-171 0 -256 -75 -256 -269c0 -220 91 -287 268 -287c47 0 90 6 123 15v184h-154z" />
    <glyph glyph-name="H" unicode="H" horiz-adv-x="790" 
d="M112 0v700h90v-300h386v300h90v-700h-90v320h-386v-320h-90z" />
    <glyph glyph-name="I" unicode="I" horiz-adv-x="324" 
d="M117 0v700h90v-700h-90z" />
    <glyph glyph-name="J" unicode="J" horiz-adv-x="393" 
d="M191 154v546h90v-549c0 -107 -49 -156 -170 -156c-33 0 -63 6 -96 18v87c12 -11 53 -25 94 -25c61 0 82 21 82 79z" />
    <glyph glyph-name="K" unicode="K" horiz-adv-x="691" 
d="M112 0v700h90v-308h52l269 308h116l-307 -339l344 -361h-116l-305 322h-53v-322h-90z" />
    <glyph glyph-name="L" unicode="L" horiz-adv-x="573" 
d="M112 0v700h90v-620h346v-80h-436z" />
    <glyph glyph-name="M" unicode="M" horiz-adv-x="905" 
d="M112 0v700h110l237 -465l235 465h99v-700h-90v420c0 44 3 100 7 155c-28 -61 -57 -124 -74 -157l-142 -278h-77l-142 277c-19 37 -50 103 -81 165c5 -57 8 -114 8 -160v-422h-90z" />
    <glyph glyph-name="N" unicode="N" horiz-adv-x="789" 
d="M112 0v700h93l322 -459c27 -40 46 -70 65 -102c-3 37 -5 74 -5 122v439h90v-700h-94l-301 433c-28 39 -60 94 -88 143c4 -46 8 -85 8 -138v-438h-90z" />
    <glyph glyph-name="O" unicode="O" horiz-adv-x="788" 
d="M70 350c0 245 109 360 335 360c212 0 313 -115 313 -360c0 -260 -123 -360 -325 -360c-185 0 -323 96 -323 360zM164 347c0 -207 96 -276 234 -276c141 0 226 69 226 276c0 214 -86 282 -231 282c-156 0 -229 -93 -229 -282z" />
    <glyph glyph-name="P" unicode="P" horiz-adv-x="641" 
d="M112 0v694c43 5 113 12 180 12c214 0 293 -74 293 -228c0 -177 -85 -257 -293 -257c-27 0 -61 1 -90 4v-225h-90zM202 304c29 -3 59 -4 90 -4c147 0 199 42 199 169c0 118 -51 157 -195 157c-31 0 -65 -1 -94 -4v-318z" />
    <glyph glyph-name="Q" unicode="Q" horiz-adv-x="788" 
d="M70 350c0 245 109 360 335 360c212 0 313 -115 313 -360c0 -204 -75 -309 -205 -345l140 -165h-105l-131 151c-8 -1 -16 -1 -24 -1c-185 0 -323 96 -323 360zM164 347c0 -207 96 -276 234 -276c141 0 226 69 226 276c0 214 -86 282 -231 282c-156 0 -229 -93 -229 -282z
" />
    <glyph glyph-name="R" unicode="R" horiz-adv-x="663" 
d="M202 0h-90v691c43 7 130 15 187 15c175 0 254 -60 255 -205c0 -101 -32 -169 -139 -205l228 -296h-109l-217 281h-115v-281zM202 351h86c126 0 171 44 171 142c0 93 -38 133 -166 133c-35 0 -65 -2 -91 -7v-268z" />
    <glyph glyph-name="S" unicode="S" horiz-adv-x="586" 
d="M426 185c0 187 -352 86 -352 331c0 125 67 192 242 192c71 0 132 -13 177 -36v-106c-40 37 -110 62 -180 62c-114 0 -146 -33 -146 -99c0 -180 354 -70 354 -338c0 -127 -73 -199 -247 -199c-81 0 -164 23 -209 58v118c45 -50 114 -96 208 -96c106 0 153 38 153 113z" />
    <glyph glyph-name="T" unicode="T" horiz-adv-x="582" 
d="M246 0v620h-221v80h532v-80h-221v-620h-90z" />
    <glyph glyph-name="U" unicode="U" horiz-adv-x="750" 
d="M107 259v441h90v-425c0 -176 77 -205 190 -205c92 0 166 21 166 193v437h90v-433c0 -223 -118 -277 -266 -277c-187 0 -270 82 -270 269z" />
    <glyph glyph-name="V" unicode="V" horiz-adv-x="652" 
d="M282 0l-262 700h98l216 -585l204 585h94l-259 -700h-91z" />
    <glyph glyph-name="W" unicode="W" horiz-adv-x="940" 
d="M190 0l-142 700h94l89 -435c10 -49 14 -78 20 -130c15 51 21 79 37 128l145 437h87l143 -434c16 -49 23 -79 38 -131c5 52 9 81 19 130l84 435h88l-138 -700h-91l-189 572l-192 -572h-92z" />
    <glyph glyph-name="X" unicode="X" horiz-adv-x="656" 
d="M30 0l233 356l-220 344h106l177 -281l189 281h102l-234 -337l243 -363h-106l-198 298l-190 -298h-102z" />
    <glyph glyph-name="Y" unicode="Y" horiz-adv-x="623" 
d="M267 0v267l-247 433h99l197 -347l190 347h96l-245 -432v-268h-90z" />
    <glyph glyph-name="Z" unicode="Z" horiz-adv-x="607" 
d="M40 0v50l400 570h-388v80h509v-51l-400 -569h406v-80h-527z" />
    <glyph glyph-name="bracketleft" unicode="[" horiz-adv-x="446" 
d="M100 -180v930h246v-80h-166v-770h166v-80h-246z" />
    <glyph glyph-name="backslash" unicode="\" horiz-adv-x="331" 
d="M251 -180l-251 930h80l251 -930h-80z" />
    <glyph glyph-name="bracketright" unicode="]" horiz-adv-x="446" 
d="M100 -180v80h166v770h-166v80h246v-930h-246z" />
    <glyph glyph-name="asciicircum" unicode="^" horiz-adv-x="600" 
d="M47 351l182 349h139l185 -349h-92l-161 313l-161 -313h-92z" />
    <glyph glyph-name="underscore" unicode="_" horiz-adv-x="320" 
d="M0 -160v84h320v-84h-320z" />
    <glyph glyph-name="grave" unicode="`" 
d="M363 625h-76l-114 130h116z" />
    <glyph glyph-name="a" unicode="a" horiz-adv-x="563" 
d="M397 0l-5 76c-27 -48 -84 -87 -160 -87c-106 0 -172 56 -172 158c0 117 59 162 211 162h119v50c0 85 -40 105 -129 105c-60 0 -125 -27 -161 -57v96c44 24 119 37 170 37c140 0 203 -43 203 -180v-360h-76zM145 160c0 -57 30 -91 103 -91c98 0 142 57 142 134v45h-116
c-101 0 -129 -24 -129 -88z" />
    <glyph glyph-name="b" unicode="b" horiz-adv-x="626" 
d="M96 0v750h83v-305c28 53 70 95 171 95c140 0 216 -68 216 -264c0 -206 -74 -287 -223 -287c-88 0 -140 31 -168 80l-5 -69h-74zM177 309v-80c0 -111 59 -165 153 -165c110 0 153 57 153 207c0 153 -49 194 -152 194c-106 0 -153 -61 -154 -156z" />
    <glyph glyph-name="c" unicode="c" horiz-adv-x="524" 
d="M453 513v-94c-32 23 -86 42 -145 42c-97 0 -162 -45 -162 -193c0 -149 66 -199 182 -199c54 0 107 17 142 46v-90c-28 -22 -83 -36 -154 -36c-160 0 -256 73 -256 286c0 181 87 265 259 265c65 0 103 -11 134 -27z" />
    <glyph glyph-name="d" unicode="d" horiz-adv-x="626" 
d="M454 0l-5 94c-29 -57 -70 -105 -170 -105c-144 0 -219 72 -219 270c0 202 78 281 223 281c94 0 140 -31 164 -69v279h83v-750h-76zM298 64c108 0 151 67 150 170v85c0 89 -40 147 -155 147c-105 0 -150 -49 -150 -201c0 -144 44 -201 155 -201z" />
    <glyph glyph-name="e" unicode="e" horiz-adv-x="582" 
d="M522 235h-378c0 -114 61 -171 177 -171c67 0 123 27 162 58v-86c-26 -19 -85 -47 -164 -47c-171 0 -259 80 -259 284c0 173 84 267 239 267c164 0 223 -101 223 -251v-54zM298 465c-97 0 -154 -50 -154 -158h295c0 108 -43 158 -141 158z" />
    <glyph glyph-name="f" unicode="f" horiz-adv-x="407" 
d="M123 0v452h-83v78h84v60c0 126 63 165 181 165c41 0 69 -5 82 -9v-87c-18 8 -41 17 -83 17c-77 0 -98 -19 -98 -99v-47h180v-78h-180v-452h-83z" />
    <glyph glyph-name="g" unicode="g" horiz-adv-x="627" 
d="M97 -149v97c29 -25 100 -60 179 -60c115 0 171 37 172 137v82c-26 -54 -83 -97 -171 -97c-144 0 -217 74 -217 254c0 201 75 276 233 276c76 0 134 -32 158 -80l5 70h75v-500c-1 -153 -95 -217 -245 -217c-91 0 -153 20 -189 38zM295 85c98 0 154 49 154 162v57
c0 124 -60 161 -153 161c-95 0 -153 -48 -153 -196c0 -138 64 -184 152 -184z" />
    <glyph glyph-name="h" unicode="h" horiz-adv-x="622" 
d="M96 0v750h83v-302c25 59 83 92 173 92c125 0 181 -51 181 -182v-358h-83v347c0 85 -36 119 -129 119c-94 0 -142 -42 -142 -147v-319h-83z" />
    <glyph glyph-name="i" unicode="i" horiz-adv-x="303" 
d="M110 0v530h83v-530h-83zM99 690c0 33 19 52 52 52s52 -19 52 -52s-19 -52 -52 -52s-52 19 -52 52z" />
    <glyph glyph-name="j" unicode="j" horiz-adv-x="303" 
d="M110 -8v538h83v-525c0 -125 -41 -191 -155 -191c-35 0 -64 7 -79 13v87c22 -14 51 -21 79 -21c51 0 72 28 72 99zM99 690c0 33 19 52 52 52s52 -19 52 -52s-19 -52 -52 -52s-52 19 -52 52z" />
    <glyph glyph-name="k" unicode="k" horiz-adv-x="566" 
d="M96 750h83v-446h47l193 226h95l-218 -251l250 -279h-105l-217 239h-45v-239h-83v750z" />
    <glyph glyph-name="l" unicode="l" horiz-adv-x="348" 
d="M180 151c0 -66 19 -82 75 -82c30 0 57 7 73 13v-74c-16 -9 -54 -18 -91 -18c-86 0 -140 37 -140 130v630h83v-599z" />
    <glyph glyph-name="m" unicode="m" horiz-adv-x="907" 
d="M96 0v530h78l5 -89c19 56 75 99 158 99c88 0 134 -46 144 -99c24 58 83 99 172 99c118 0 164 -57 164 -170v-370h-83v338c0 95 -35 123 -117 123c-76 0 -119 -48 -119 -136v-325h-83v348c0 91 -44 113 -110 113c-79 0 -126 -45 -126 -128v-333h-83z" />
    <glyph glyph-name="n" unicode="n" horiz-adv-x="622" 
d="M96 0v530h77l5 -84c35 61 90 94 174 94c127 0 181 -49 181 -202v-338h-83v321c0 109 -28 145 -128 145c-93 0 -143 -56 -143 -147v-319h-83z" />
    <glyph glyph-name="o" unicode="o" horiz-adv-x="615" 
d="M60 267c0 183 106 273 258 273c144 0 237 -84 237 -276c0 -199 -110 -275 -248 -275c-158 0 -247 103 -247 278zM143 267v-3c0 -126 60 -200 171 -200c99 0 158 60 158 200v3c0 134 -59 199 -165 199c-105 0 -164 -69 -164 -199z" />
    <glyph glyph-name="p" unicode="p" horiz-adv-x="626" 
d="M95 -180v710h76l5 -93c28 69 88 103 185 103c137 0 205 -76 205 -264c0 -206 -75 -287 -219 -287c-90 0 -143 38 -169 82v-251h-83zM178 213c0 -91 55 -149 152 -149c111 0 153 56 153 207c0 145 -53 194 -152 194c-105 0 -153 -63 -153 -146v-106z" />
    <glyph glyph-name="q" unicode="q" horiz-adv-x="626" 
d="M447 -180v263c-28 -53 -81 -94 -162 -94c-146 0 -225 73 -225 264c0 203 75 287 234 287c75 0 129 -32 157 -80l6 70h73v-710h-83zM303 64c100 0 144 65 144 150v102c0 97 -52 149 -151 149c-103 0 -153 -55 -153 -207c0 -151 51 -194 160 -194z" />
    <glyph glyph-name="r" unicode="r" horiz-adv-x="401" 
d="M96 0v530h74l5 -71c23 51 83 82 144 82c20 0 35 -1 47 -4v-94c-19 15 -43 24 -71 24c-82 0 -116 -54 -116 -144v-323h-83z" />
    <glyph glyph-name="s" unicode="s" horiz-adv-x="507" 
d="M419 509v-99c-39 33 -80 56 -145 56c-79 0 -112 -20 -112 -71c0 -122 280 -43 280 -238c0 -112 -67 -168 -195 -168c-83 0 -138 16 -182 42v103c41 -41 115 -70 182 -70c76 0 112 31 112 89c0 120 -280 45 -280 236c0 93 49 151 191 151c73 0 118 -16 149 -31z" />
    <glyph glyph-name="t" unicode="t" horiz-adv-x="467" 
d="M138 164v292h-113v74h113v109l83 31v-140h191v-74h-191v-289c0 -77 29 -102 90 -102c59 0 92 14 121 32v-77c-22 -16 -74 -30 -127 -30c-111 0 -167 47 -167 174z" />
    <glyph glyph-name="u" unicode="u" horiz-adv-x="617" 
d="M445 0l-5 84c-33 -63 -90 -95 -174 -95c-112 0 -175 54 -175 185v356h83v-331c0 -98 31 -135 122 -135c103 0 142 46 142 152v314h83v-530h-76z" />
    <glyph glyph-name="v" unicode="v" horiz-adv-x="541" 
d="M232 0l-202 530h93l151 -424l149 424h88l-203 -530h-76z" />
    <glyph glyph-name="w" unicode="w" horiz-adv-x="802" 
d="M164 0l-129 530h87l97 -417l142 417h86l145 -412l94 412h81l-131 -530h-88l-144 433l-152 -433h-88z" />
    <glyph glyph-name="x" unicode="x" horiz-adv-x="527" 
d="M25 0l186 271l-174 259h102l127 -195l127 195h97l-176 -252l188 -278h-102l-139 215l-139 -215h-97z" />
    <glyph glyph-name="y" unicode="y" horiz-adv-x="532" 
d="M154 -108c38 0 59 12 91 106l-215 532h96l162 -423l135 423h89l-183 -512c-70 -197 -123 -205 -174 -205c-21 0 -36 2 -47 8v83c14 -8 30 -12 46 -12z" />
    <glyph glyph-name="z" unicode="z" horiz-adv-x="505" 
d="M40 0v46l303 410h-285v74h400v-46l-306 -409h308v-75h-420z" />
    <glyph glyph-name="braceleft" unicode="{" horiz-adv-x="518" 
d="M172 -20v155c0 79 -60 112 -110 112v76c50 0 110 42 110 114v153c0 112 48 160 160 160h86v-80h-82c-59 0 -84 -25 -84 -84v-150c0 -81 -29 -124 -110 -151c81 -20 110 -81 110 -160v-141c0 -59 25 -84 84 -84h82v-80h-86c-112 0 -160 48 -160 160z" />
    <glyph glyph-name="bar" unicode="|" horiz-adv-x="330" 
d="M120 -180v930h90v-930h-90z" />
    <glyph glyph-name="braceright" unicode="}" horiz-adv-x="518" 
d="M346 -20c0 -112 -48 -160 -160 -160h-86v80h82c59 0 84 25 84 84v150c0 81 29 124 110 151c-81 20 -110 81 -110 160v141c0 59 -25 84 -84 84h-82v80h86c112 0 160 -48 160 -160v-155c0 -79 60 -112 110 -112v-76c-50 0 -110 -42 -110 -114v-153z" />
    <glyph glyph-name="asciitilde" unicode="~" horiz-adv-x="600" 
d="M90 288v83c30 27 71 40 111 40c88 0 150 -86 225 -86c26 0 63 14 84 47v-89c-26 -25 -62 -38 -98 -38c-90 0 -156 86 -216 86c-45 0 -73 -15 -106 -43z" />
    <glyph glyph-name="uni00A0" unicode="&#xa0;" horiz-adv-x="300" 
 />
    <glyph glyph-name="exclamdown" unicode="&#xa1;" horiz-adv-x="381" 
d="M150 476c0 35 15 64 65 64c51 0 66 -29 66 -64c0 -36 -15 -65 -66 -65c-50 0 -65 29 -65 65zM170 300h90v-470h-90v470z" />
    <glyph glyph-name="cent" unicode="&#xa2;" horiz-adv-x="560" 
d="M282 -120v115c-133 14 -197 116 -197 274c0 156 69 252 197 266v95h57v-93c52 -2 84 -12 106 -18v-76c-23 8 -60 19 -109 19c-103 0 -161 -58 -161 -185c0 -144 62 -209 169 -209c48 0 88 12 109 21v-75c-21 -9 -58 -20 -114 -22v-112h-57z" />
    <glyph glyph-name="sterling" unicode="&#xa3;" horiz-adv-x="550" 
d="M65 0v84h85v258h-85v60h85v78c0 83 17 229 220 229c45 0 86 -8 110 -16v-83c-38 10 -65 16 -111 16c-103 0 -129 -64 -129 -144v-80h159v-60h-159v-258h245v-84h-420z" />
    <glyph glyph-name="currency" unicode="&#xa4;" horiz-adv-x="550" 
d="M94 111l-49 49l61 67c-18 27 -35 68 -35 122c0 55 17 95 35 122l-61 68l48 51l61 -67c25 20 68 37 120 37c56 0 97 -18 120 -36l63 67l49 -49l-62 -71c17 -26 35 -68 35 -122c0 -53 -18 -95 -35 -122l61 -67l-49 -50l-60 65c-26 -20 -68 -37 -122 -37
c-53 0 -96 17 -120 37zM136 349c0 -95 65 -145 138 -145c76 0 140 50 140 145c0 91 -64 146 -140 146c-73 0 -138 -55 -138 -146z" />
    <glyph glyph-name="yen" unicode="&#xa5;" horiz-adv-x="592" 
d="M119 174v59h132v60l-8 14h-124v59h95l-170 334h104l149 -310l146 310h105l-170 -334h95v-59h-125l-7 -14v-60h132v-59h-132v-174h-90v174h-132z" />
    <glyph glyph-name="brokenbar" unicode="&#xa6;" horiz-adv-x="352" 
d="M135 -180v390h82v-390h-82zM135 360v390h82v-390h-82z" />
    <glyph glyph-name="section" unicode="&#xa7;" horiz-adv-x="470" 
d="M389 686v-88c-57 25 -101 29 -134 29c-58 0 -102 -18 -102 -72c0 -39 21 -57 99 -96c7 -5 40 -21 48 -24c59 -32 123 -67 123 -143c0 -42 -22 -93 -75 -135c36 -28 60 -59 60 -109c0 -126 -115 -165 -199 -165c-39 0 -106 7 -154 29v90c59 -33 104 -40 148 -40
c90 0 111 45 111 78c0 49 -31 65 -105 103c-8 3 -45 21 -53 26c-64 32 -109 75 -109 141c0 50 27 90 74 127c-38 26 -62 63 -62 113c0 101 75 159 200 159c47 0 100 -13 130 -23zM137 326c0 -42 22 -71 91 -105c6 -3 58 -28 64 -31c17 19 40 46 40 85c0 38 -22 67 -84 98
c-5 2 -57 28 -66 32c-26 -21 -45 -48 -45 -79z" />
    <glyph glyph-name="dieresis" unicode="&#xa8;" 
d="M185 690c0 33 19 52 52 52s52 -19 52 -52s-19 -52 -52 -52s-52 19 -52 52zM361 690c0 33 19 52 52 52s52 -19 52 -52s-19 -52 -52 -52s-52 19 -52 52z" />
    <glyph glyph-name="copyright" unicode="&#xa9;" horiz-adv-x="950" 
d="M80 260c0 234 158 390 395 390s395 -156 395 -390s-158 -390 -395 -390s-395 156 -395 390zM160 261c0 -191 129 -319 315 -319s315 128 315 319s-129 317 -315 317s-315 -126 -315 -317zM565 454v-59c-21 9 -51 10 -70 10c-86 0 -127 -42 -127 -137
c0 -102 48 -137 128 -137c19 0 49 2 70 12v-62c-21 -8 -47 -12 -78 -12c-132 0 -188 72 -188 197c0 137 69 199 186 199c31 0 59 -4 79 -11z" />
    <glyph glyph-name="ordfeminine" unicode="&#xaa;" horiz-adv-x="360" 
d="M250 373v52h-1c-18 -30 -47 -57 -101 -57c-71 0 -110 35 -110 102s45 104 142 104c27 0 48 -2 63 -3v21c0 39 -13 60 -75 60c-30 0 -72 -8 -99 -20v58c28 11 70 19 108 19c108 0 137 -42 137 -128v-208h-64zM112 474c0 -28 18 -47 57 -47c51 0 74 35 74 74v21
c-12 1 -31 3 -52 3c-61 0 -79 -17 -79 -51z" />
    <glyph glyph-name="guillemotleft" unicode="&#xab;" horiz-adv-x="581" 
d="M198 50l-138 218l141 222h89l-140 -220l141 -220h-93zM408 50l-138 218l141 222h89l-140 -220l141 -220h-93z" />
    <glyph glyph-name="logicalnot" unicode="&#xac;" horiz-adv-x="600" 
d="M37 324v75h510v-232h-79v157h-431z" />
    <glyph glyph-name="uni00AD" unicode="&#xad;" horiz-adv-x="467" 
d="M100 253v84h267v-84h-267z" />
    <glyph glyph-name="registered" unicode="&#xae;" horiz-adv-x="598" 
d="M50 520c0 148 100 246 249 246s249 -98 249 -246s-100 -246 -249 -246s-249 98 -249 246zM100 521c0 -121 82 -202 199 -202s199 81 199 202c0 120 -82 200 -199 200s-199 -80 -199 -200zM203 392v271h113c31 0 81 -4 81 -82c0 -41 -23 -70 -49 -76l70 -113h-64l-63 106
h-34v-106h-54zM257 545h48c18 0 35 7 35 36s-16 33 -34 33h-49v-69z" />
    <glyph glyph-name="macron" unicode="&#xaf;" 
d="M185 655v70h280v-70h-280z" />
    <glyph glyph-name="degree" unicode="&#xb0;" horiz-adv-x="414" 
d="M56 547c0 113 63 163 149 163c85 0 153 -45 153 -163c0 -120 -64 -165 -147 -165c-92 0 -155 45 -155 165zM128 547c0 -72 36 -93 82 -93c41 0 76 16 77 93c0 68 -33 91 -79 91c-48 0 -80 -23 -80 -91z" />
    <glyph glyph-name="plusminus" unicode="&#xb1;" horiz-adv-x="605" 
d="M90 86v79h425v-79h-425zM90 387v79h175v155h75v-155h175v-79h-175v-156h-75v156h-175z" />
    <glyph glyph-name="twosuperior" unicode="&#xb2;" horiz-adv-x="450" 
d="M53 382v75l120 85c87 62 119 92 119 135c0 41 -33 63 -93 63c-46 0 -96 -7 -129 -27v73c44 17 85 23 137 23c94 0 170 -29 170 -116c0 -68 -47 -124 -159 -195l-69 -44v-1h234v-71h-330z" />
    <glyph glyph-name="threesuperior" unicode="&#xb3;" horiz-adv-x="450" 
d="M136 570v59h79c62 0 91 14 91 56c0 38 -27 55 -98 55c-46 0 -98 -6 -132 -20v69c39 17 104 20 156 20c99 0 155 -41 155 -107c0 -59 -38 -82 -101 -99v-2c94 -13 111 -59 111 -100c0 -93 -93 -127 -182 -127c-46 0 -101 2 -145 19v71c35 -17 85 -21 137 -21
c74 0 107 19 107 59c0 52 -31 68 -92 68h-86z" />
    <glyph glyph-name="acute" unicode="&#xb4;" 
d="M288 625l76 130h114l-116 -130h-74z" />
    <glyph glyph-name="mu" unicode="&#xb5;" horiz-adv-x="638" 
d="M461 0l-6 84c-34 -63 -93 -95 -181 -95c-39 0 -72 6 -99 19v-218h-84v740h89v-329c0 -96 32 -133 127 -133c106 0 146 46 146 150v312h89v-530h-81z" />
    <glyph glyph-name="mu" unicode="&#x3bc;" horiz-adv-x="638" 
d="M461 0l-6 84c-34 -63 -93 -95 -181 -95c-39 0 -72 6 -99 19v-218h-84v740h89v-329c0 -96 32 -133 127 -133c106 0 146 46 146 150v312h89v-530h-81z" />
    <glyph glyph-name="paragraph" unicode="&#xb6;" horiz-adv-x="550" 
d="M227 -210v567c-102 0 -160 68 -160 167c0 173 148 176 203 176h177v-910h-66v848h-87v-848h-67z" />
    <glyph glyph-name="periodcentered" unicode="&#xb7;" horiz-adv-x="249" 
d="M65 342c0 37 21 60 59 60c37 0 60 -24 60 -60c0 -38 -22 -60 -60 -60c-37 0 -59 23 -59 60z" />
    <glyph glyph-name="cedilla" unicode="&#xb8;" 
d="M268 -93l13 93h52l-6 -44c55 -2 95 -19 95 -85c0 -55 -43 -93 -109 -93c-37 0 -55 6 -74 15l7 52c20 -9 34 -13 59 -13s47 11 47 43c0 30 -26 34 -48 34c-9 0 -27 0 -36 -2z" />
    <glyph glyph-name="onesuperior" unicode="&#xb9;" horiz-adv-x="450" 
d="M221 382v326l-122 -56l-32 63l173 85h64v-418h-83z" />
    <glyph glyph-name="ordmasculine" unicode="&#xba;" horiz-adv-x="391" 
d="M40 539c0 110 54 170 154 170c104 0 157 -58 157 -170c0 -111 -56 -171 -157 -171s-154 59 -154 171zM113 539c0 -84 33 -111 81 -111c53 0 83 28 83 111c0 81 -29 109 -83 109c-50 0 -81 -28 -81 -109z" />
    <glyph glyph-name="guillemotright" unicode="&#xbb;" horiz-adv-x="581" 
d="M521 268l-138 -218h-93l141 220l-140 220h89zM311 268l-138 -218h-93l141 220l-140 220h89z" />
    <glyph glyph-name="onequarter" unicode="&#xbc;" horiz-adv-x="950" 
d="M156 0l577 700h90l-574 -700h-93zM493 89v64l248 267h95v-263h55v-68h-55v-87h-75v87h-268zM761 157v183h-1l-171 -183h172zM213 282v326l-122 -56l-32 63l173 85h64v-418h-83z" />
    <glyph glyph-name="onehalf" unicode="&#xbd;" horiz-adv-x="950" 
d="M104 0l577 700h90l-574 -700h-93zM567 2v75l120 85c87 62 119 92 119 135c0 41 -33 63 -93 63c-46 0 -96 -7 -129 -27v73c44 17 85 23 137 23c94 0 170 -29 170 -116c0 -68 -47 -124 -159 -195l-69 -44v-1h234v-71h-330zM204 282v326l-122 -56l-32 63l173 85h64v-418h-83
z" />
    <glyph glyph-name="threequarters" unicode="&#xbe;" horiz-adv-x="950" 
d="M171 0l577 700h90l-574 -700h-93zM505 89v64l248 267h95v-263h55v-68h-55v-87h-75v87h-268zM773 157v183h-1l-171 -183h172zM132 470v59h79c62 0 91 14 91 56c0 38 -27 55 -98 55c-46 0 -98 -6 -132 -20v69c39 17 104 20 156 20c99 0 155 -41 155 -107
c0 -59 -38 -82 -101 -99v-2c94 -13 111 -59 111 -100c0 -93 -93 -127 -182 -127c-46 0 -101 2 -145 19v71c35 -17 85 -21 137 -21c74 0 107 19 107 59c0 52 -31 68 -92 68h-86z" />
    <glyph glyph-name="questiondown" unicode="&#xbf;" horiz-adv-x="597" 
d="M420 298c0 -168 -226 -140 -226 -290c0 -63 52 -108 157 -108c70 0 114 15 156 39v-93c-36 -14 -95 -26 -163 -26c-146 0 -234 54 -234 188c0 189 230 181 230 290h80zM445 474c0 -36 -15 -65 -65 -65c-51 0 -66 29 -66 65c0 35 15 64 66 64c50 0 65 -29 65 -64z" />
    <glyph glyph-name="Agrave" unicode="&#xc0;" horiz-adv-x="679" 
d="M555 0l-70 187h-299l-69 -187h-92l267 700h91l271 -700h-99zM335 588l-119 -321h239zM177 910h124l78 -140h-80z" />
    <glyph glyph-name="Aacute" unicode="&#xc1;" horiz-adv-x="679" 
d="M555 0l-70 187h-299l-69 -187h-92l267 700h91l271 -700h-99zM335 588l-119 -321h239zM301 770l84 140h116l-124 -140h-76z" />
    <glyph glyph-name="Acircumflex" unicode="&#xc2;" horiz-adv-x="679" 
d="M555 0l-70 187h-299l-69 -187h-92l267 700h91l271 -700h-99zM335 588l-119 -321h239zM184 770l105 140h100l105 -140h-87l-68 88l-68 -88h-87z" />
    <glyph glyph-name="Atilde" unicode="&#xc3;" horiz-adv-x="679" 
d="M555 0l-70 187h-299l-69 -187h-92l267 700h91l271 -700h-99zM335 588l-119 -321h239zM245 780l-61 14c3 66 39 106 89 106c28 0 47 -11 74 -26c22 -12 42 -22 56 -22c15 0 26 10 31 48l60 -15c-6 -68 -47 -105 -89 -105c-21 0 -34 6 -74 27c-26 13 -33 22 -53 22
c-15 0 -27 -11 -33 -49z" />
    <glyph glyph-name="Adieresis" unicode="&#xc4;" horiz-adv-x="679" 
d="M555 0l-70 187h-299l-69 -187h-92l267 700h91l271 -700h-99zM335 588l-119 -321h239zM189 840c0 34 20 54 54 54s54 -20 54 -54s-20 -54 -54 -54s-54 20 -54 54zM381 840c0 34 20 54 54 54s54 -20 54 -54s-20 -54 -54 -54s-54 20 -54 54z" />
    <glyph glyph-name="Aring" unicode="&#xc5;" horiz-adv-x="679" 
d="M555 0l-70 187h-299l-69 -187h-92l267 700h91l271 -700h-99zM335 588l-119 -321h239zM247 840c0 56 45 92 92 92s92 -36 92 -92c0 -55 -45 -92 -92 -92s-92 37 -92 92zM295 840c0 -27 17 -44 44 -44s44 17 44 44s-17 44 -44 44s-44 -17 -44 -44z" />
    <glyph glyph-name="AE" unicode="&#xc6;" horiz-adv-x="958" 
d="M462 0v187h-239l-103 -187h-95l388 700h464v-80h-325v-225h308v-80h-308v-235h336v-80h-426zM267 267h195v351z" />
    <glyph glyph-name="Ccedilla" unicode="&#xc7;" horiz-adv-x="658" 
d="M339 -101l11 95c-190 14 -280 120 -280 356c0 253 109 358 322 358c90 0 152 -20 187 -31v-100c-36 25 -107 51 -190 51c-148 0 -225 -69 -225 -269c0 -219 88 -286 233 -286c94 0 171 37 201 54v-91c-31 -18 -102 -42 -191 -44l-6 -41c59 -2 105 -20 105 -87
c0 -60 -51 -106 -120 -106c-41 0 -62 7 -81 16l8 54c21 -9 37 -13 64 -13c25 0 52 12 52 46c0 31 -29 41 -52 41c-10 0 -29 0 -38 -3z" />
    <glyph glyph-name="Egrave" unicode="&#xc8;" horiz-adv-x="608" 
d="M112 0v700h426v-80h-336v-225h308v-80h-308v-235h336v-80h-426zM162 910h124l78 -140h-80z" />
    <glyph glyph-name="Eacute" unicode="&#xc9;" horiz-adv-x="608" 
d="M112 0v700h426v-80h-336v-225h308v-80h-308v-235h336v-80h-426zM286 770l84 140h116l-124 -140h-76z" />
    <glyph glyph-name="Ecircumflex" unicode="&#xca;" horiz-adv-x="608" 
d="M112 0v700h426v-80h-336v-225h308v-80h-308v-235h336v-80h-426zM169 770l105 140h100l105 -140h-87l-68 88l-68 -88h-87z" />
    <glyph glyph-name="Edieresis" unicode="&#xcb;" horiz-adv-x="608" 
d="M112 0v700h426v-80h-336v-225h308v-80h-308v-235h336v-80h-426zM175 840c0 34 20 54 54 54s54 -20 54 -54s-20 -54 -54 -54s-54 20 -54 54zM367 840c0 34 20 54 54 54s54 -20 54 -54s-20 -54 -54 -54s-54 20 -54 54z" />
    <glyph glyph-name="Igrave" unicode="&#xcc;" horiz-adv-x="324" 
d="M117 0v700h90v-700h-90zM0 910h124l78 -140h-80z" />
    <glyph glyph-name="Iacute" unicode="&#xcd;" horiz-adv-x="324" 
d="M117 0v700h90v-700h-90zM124 770l84 140h116l-124 -140h-76z" />
    <glyph glyph-name="Icircumflex" unicode="&#xce;" horiz-adv-x="324" 
d="M117 0v700h90v-700h-90zM7 770l105 140h100l105 -140h-87l-68 88l-68 -88h-87z" />
    <glyph glyph-name="Idieresis" unicode="&#xcf;" horiz-adv-x="324" 
d="M117 0v700h90v-700h-90zM12 840c0 34 20 54 54 54s54 -20 54 -54s-20 -54 -54 -54s-54 20 -54 54zM204 840c0 34 20 54 54 54s54 -20 54 -54s-20 -54 -54 -54s-54 20 -54 54z" />
    <glyph glyph-name="Eth" unicode="&#xd0;" horiz-adv-x="743" 
d="M33 321v64h79v313c41 5 95 10 204 10c270 0 357 -108 357 -334c0 -278 -126 -382 -376 -382c-91 0 -151 8 -185 13v316h-79zM202 79c27 -4 58 -7 89 -7c204 0 288 74 288 290c0 196 -62 266 -268 266c-40 0 -77 -3 -109 -7v-236h199v-64h-199v-242z" />
    <glyph glyph-name="Ntilde" unicode="&#xd1;" horiz-adv-x="789" 
d="M112 0v700h93l322 -459c27 -40 46 -70 65 -102c-3 37 -5 74 -5 122v439h90v-700h-94l-301 433c-28 39 -60 94 -88 143c4 -46 8 -85 8 -138v-438h-90zM300 780l-61 14c3 66 39 106 89 106c28 0 47 -11 74 -26c22 -12 42 -22 56 -22c15 0 26 10 31 48l60 -15
c-6 -68 -47 -105 -89 -105c-21 0 -34 6 -74 27c-26 13 -33 22 -53 22c-15 0 -27 -11 -33 -49z" />
    <glyph glyph-name="Ograve" unicode="&#xd2;" horiz-adv-x="788" 
d="M70 350c0 245 109 360 335 360c212 0 313 -115 313 -360c0 -260 -123 -360 -325 -360c-185 0 -323 96 -323 360zM164 347c0 -207 96 -276 234 -276c141 0 226 69 226 276c0 214 -86 282 -231 282c-156 0 -229 -93 -229 -282zM232 910h124l78 -140h-80z" />
    <glyph glyph-name="Oacute" unicode="&#xd3;" horiz-adv-x="788" 
d="M70 350c0 245 109 360 335 360c212 0 313 -115 313 -360c0 -260 -123 -360 -325 -360c-185 0 -323 96 -323 360zM164 347c0 -207 96 -276 234 -276c141 0 226 69 226 276c0 214 -86 282 -231 282c-156 0 -229 -93 -229 -282zM356 770l84 140h116l-124 -140h-76z" />
    <glyph glyph-name="Ocircumflex" unicode="&#xd4;" horiz-adv-x="788" 
d="M70 350c0 245 109 360 335 360c212 0 313 -115 313 -360c0 -260 -123 -360 -325 -360c-185 0 -323 96 -323 360zM164 347c0 -207 96 -276 234 -276c141 0 226 69 226 276c0 214 -86 282 -231 282c-156 0 -229 -93 -229 -282zM239 770l105 140h100l105 -140h-87l-68 88
l-68 -88h-87z" />
    <glyph glyph-name="Otilde" unicode="&#xd5;" horiz-adv-x="788" 
d="M70 350c0 245 109 360 335 360c212 0 313 -115 313 -360c0 -260 -123 -360 -325 -360c-185 0 -323 96 -323 360zM164 347c0 -207 96 -276 234 -276c141 0 226 69 226 276c0 214 -86 282 -231 282c-156 0 -229 -93 -229 -282zM300 780l-61 14c3 66 39 106 89 106
c28 0 47 -11 74 -26c22 -12 42 -22 56 -22c15 0 26 10 31 48l60 -15c-6 -68 -47 -105 -89 -105c-21 0 -34 6 -74 27c-26 13 -33 22 -53 22c-15 0 -27 -11 -33 -49z" />
    <glyph glyph-name="Odieresis" unicode="&#xd6;" horiz-adv-x="788" 
d="M70 350c0 245 109 360 335 360c212 0 313 -115 313 -360c0 -260 -123 -360 -325 -360c-185 0 -323 96 -323 360zM164 347c0 -207 96 -276 234 -276c141 0 226 69 226 276c0 214 -86 282 -231 282c-156 0 -229 -93 -229 -282zM244 840c0 34 20 54 54 54s54 -20 54 -54
s-20 -54 -54 -54s-54 20 -54 54zM436 840c0 34 20 54 54 54s54 -20 54 -54s-20 -54 -54 -54s-54 20 -54 54z" />
    <glyph glyph-name="multiply" unicode="&#xd7;" horiz-adv-x="570" 
d="M96 175l138 148l-138 149l55 52l133 -144l135 144l55 -52l-138 -149l138 -148l-55 -51l-135 144l-133 -144z" />
    <glyph glyph-name="Oslash" unicode="&#xd8;" horiz-adv-x="788" 
d="M70 350c0 245 109 360 335 360c73 0 132 -14 179 -42l45 62l59 -40l-49 -67c53 -59 79 -150 79 -273c0 -260 -123 -360 -325 -360c-69 0 -131 13 -182 43l-53 -73l-59 40l56 78c-53 57 -85 145 -85 272zM164 347c0 -87 17 -150 47 -193l320 441c-37 24 -83 34 -138 34
c-156 0 -229 -93 -229 -282zM624 347c0 89 -15 152 -43 196l-319 -439c37 -24 84 -33 136 -33c141 0 226 69 226 276z" />
    <glyph glyph-name="Ugrave" unicode="&#xd9;" horiz-adv-x="750" 
d="M107 259v441h90v-425c0 -176 77 -205 190 -205c92 0 166 21 166 193v437h90v-433c0 -223 -118 -277 -266 -277c-187 0 -270 82 -270 269zM213 910h124l78 -140h-80z" />
    <glyph glyph-name="Uacute" unicode="&#xda;" horiz-adv-x="750" 
d="M107 259v441h90v-425c0 -176 77 -205 190 -205c92 0 166 21 166 193v437h90v-433c0 -223 -118 -277 -266 -277c-187 0 -270 82 -270 269zM337 770l84 140h116l-124 -140h-76z" />
    <glyph glyph-name="Ucircumflex" unicode="&#xdb;" horiz-adv-x="750" 
d="M107 259v441h90v-425c0 -176 77 -205 190 -205c92 0 166 21 166 193v437h90v-433c0 -223 -118 -277 -266 -277c-187 0 -270 82 -270 269zM220 770l105 140h100l105 -140h-87l-68 88l-68 -88h-87z" />
    <glyph glyph-name="Udieresis" unicode="&#xdc;" horiz-adv-x="750" 
d="M107 259v441h90v-425c0 -176 77 -205 190 -205c92 0 166 21 166 193v437h90v-433c0 -223 -118 -277 -266 -277c-187 0 -270 82 -270 269zM225 840c0 34 20 54 54 54s54 -20 54 -54s-20 -54 -54 -54s-54 20 -54 54zM417 840c0 34 20 54 54 54s54 -20 54 -54
s-20 -54 -54 -54s-54 20 -54 54z" />
    <glyph glyph-name="Yacute" unicode="&#xdd;" horiz-adv-x="623" 
d="M267 0v267l-247 433h99l197 -347l190 347h96l-245 -432v-268h-90zM273 770l84 140h116l-124 -140h-76z" />
    <glyph glyph-name="Thorn" unicode="&#xde;" horiz-adv-x="608" 
d="M112 0v700h90v-102h109c150 0 225 -64 225 -210c0 -137 -76 -216 -234 -216h-100v-172h-90zM202 256h100c101 0 137 46 137 130c0 88 -36 128 -137 128h-100v-258z" />
    <glyph glyph-name="germandbls" unicode="&#xdf;" horiz-adv-x="620" 
d="M95 0v482c0 179 56 276 226 276c95 0 187 -46 187 -184c0 -81 -32 -136 -98 -161v-3c93 -11 134 -89 134 -190c0 -130 -65 -229 -199 -229c-35 0 -62 2 -86 11v78c20 -7 47 -12 78 -12c70 0 118 40 118 148c0 122 -54 149 -132 149h-46v76h38c56 0 105 29 105 130
c0 71 -39 111 -107 111c-105 0 -129 -83 -129 -185v-497h-89z" />
    <glyph glyph-name="agrave" unicode="&#xe0;" horiz-adv-x="563" 
d="M397 0l-5 76c-27 -48 -84 -87 -160 -87c-106 0 -172 56 -172 158c0 117 59 162 211 162h119v50c0 85 -40 105 -129 105c-60 0 -125 -27 -161 -57v96c44 24 119 37 170 37c140 0 203 -43 203 -180v-360h-76zM145 160c0 -57 30 -91 103 -91c98 0 142 57 142 134v45h-116
c-101 0 -129 -24 -129 -88zM319 625h-76l-114 130h116z" />
    <glyph glyph-name="aacute" unicode="&#xe1;" horiz-adv-x="563" 
d="M397 0l-5 76c-27 -48 -84 -87 -160 -87c-106 0 -172 56 -172 158c0 117 59 162 211 162h119v50c0 85 -40 105 -129 105c-60 0 -125 -27 -161 -57v96c44 24 119 37 170 37c140 0 203 -43 203 -180v-360h-76zM145 160c0 -57 30 -91 103 -91c98 0 142 57 142 134v45h-116
c-101 0 -129 -24 -129 -88zM244 625l76 130h114l-116 -130h-74z" />
    <glyph glyph-name="acircumflex" unicode="&#xe2;" horiz-adv-x="563" 
d="M397 0l-5 76c-27 -48 -84 -87 -160 -87c-106 0 -172 56 -172 158c0 117 59 162 211 162h119v50c0 85 -40 105 -129 105c-60 0 -125 -27 -161 -57v96c44 24 119 37 170 37c140 0 203 -43 203 -180v-360h-76zM145 160c0 -57 30 -91 103 -91c98 0 142 57 142 134v45h-116
c-101 0 -129 -24 -129 -88zM131 625l102 130h96l102 -130h-79l-71 79l-71 -79h-79z" />
    <glyph glyph-name="atilde" unicode="&#xe3;" horiz-adv-x="563" 
d="M397 0l-5 76c-27 -48 -84 -87 -160 -87c-106 0 -172 56 -172 158c0 117 59 162 211 162h119v50c0 85 -40 105 -129 105c-60 0 -125 -27 -161 -57v96c44 24 119 37 170 37c140 0 203 -43 203 -180v-360h-76zM145 160c0 -57 30 -91 103 -91c98 0 142 57 142 134v45h-116
c-101 0 -129 -24 -129 -88zM187 634l-56 14c3 61 41 98 88 98c25 0 44 -12 70 -25c21 -10 37 -21 52 -21c14 0 30 11 34 46l56 -14c-5 -65 -49 -98 -88 -98c-20 0 -30 6 -69 25c-24 12 -33 22 -51 22c-14 0 -31 -12 -36 -47z" />
    <glyph glyph-name="adieresis" unicode="&#xe4;" horiz-adv-x="563" 
d="M397 0l-5 76c-27 -48 -84 -87 -160 -87c-106 0 -172 56 -172 158c0 117 59 162 211 162h119v50c0 85 -40 105 -129 105c-60 0 -125 -27 -161 -57v96c44 24 119 37 170 37c140 0 203 -43 203 -180v-360h-76zM145 160c0 -57 30 -91 103 -91c98 0 142 57 142 134v45h-116
c-101 0 -129 -24 -129 -88zM141 690c0 33 19 52 52 52s52 -19 52 -52s-19 -52 -52 -52s-52 19 -52 52zM317 690c0 33 19 52 52 52s52 -19 52 -52s-19 -52 -52 -52s-52 19 -52 52z" />
    <glyph glyph-name="aring" unicode="&#xe5;" horiz-adv-x="563" 
d="M397 0l-5 76c-27 -48 -84 -87 -160 -87c-106 0 -172 56 -172 158c0 117 59 162 211 162h119v50c0 85 -40 105 -129 105c-60 0 -125 -27 -161 -57v96c44 24 119 37 170 37c140 0 203 -43 203 -180v-360h-76zM145 160c0 -57 30 -91 103 -91c98 0 142 57 142 134v45h-116
c-101 0 -129 -24 -129 -88zM191 690c0 56 43 90 90 90s90 -34 90 -90c0 -55 -43 -90 -90 -90s-90 35 -90 90zM237 690c0 -27 17 -44 44 -44s44 17 44 44s-17 44 -44 44s-44 -17 -44 -44z" />
    <glyph glyph-name="ae" unicode="&#xe6;" horiz-adv-x="912" 
d="M852 238h-369c0 -114 52 -174 168 -174c67 0 123 27 162 58v-86c-26 -19 -85 -47 -164 -47c-100 0 -169 27 -209 91c-27 -44 -72 -91 -199 -91c-106 0 -181 56 -181 158c0 117 68 162 220 162h119v50c0 85 -40 105 -129 105c-60 0 -134 -27 -170 -57v96
c44 24 128 37 179 37c90 0 148 -18 178 -67c38 44 95 67 172 67c164 0 223 -101 223 -251v-51zM628 465c-97 0 -145 -47 -145 -155h286c0 108 -43 155 -141 155zM145 160c0 -57 39 -91 112 -91c98 0 142 57 142 134v35h-116c-101 0 -138 -14 -138 -78z" />
    <glyph glyph-name="ccedilla" unicode="&#xe7;" horiz-adv-x="524" 
d="M248 -93l12 86c-126 16 -200 95 -200 282c0 181 87 265 259 265c65 0 103 -11 134 -27v-94c-32 23 -86 42 -145 42c-97 0 -162 -45 -162 -193c0 -149 66 -199 182 -199c54 0 107 17 142 46v-90c-28 -22 -83 -36 -154 -36h-5l-4 -33c55 -2 95 -19 95 -85
c0 -55 -43 -93 -109 -93c-37 0 -55 6 -74 15l7 52c20 -9 34 -13 59 -13s47 11 47 43c0 30 -26 34 -48 34c-9 0 -27 0 -36 -2z" />
    <glyph glyph-name="egrave" unicode="&#xe8;" horiz-adv-x="582" 
d="M522 235h-378c0 -114 61 -171 177 -171c67 0 123 27 162 58v-86c-26 -19 -85 -47 -164 -47c-171 0 -259 80 -259 284c0 173 84 267 239 267c164 0 223 -101 223 -251v-54zM298 465c-97 0 -154 -50 -154 -158h295c0 108 -43 158 -141 158zM339 625h-76l-114 130h116z" />
    <glyph glyph-name="eacute" unicode="&#xe9;" horiz-adv-x="582" 
d="M522 235h-378c0 -114 61 -171 177 -171c67 0 123 27 162 58v-86c-26 -19 -85 -47 -164 -47c-171 0 -259 80 -259 284c0 173 84 267 239 267c164 0 223 -101 223 -251v-54zM298 465c-97 0 -154 -50 -154 -158h295c0 108 -43 158 -141 158zM264 625l76 130h114l-116 -130
h-74z" />
    <glyph glyph-name="ecircumflex" unicode="&#xea;" horiz-adv-x="582" 
d="M522 235h-378c0 -114 61 -171 177 -171c67 0 123 27 162 58v-86c-26 -19 -85 -47 -164 -47c-171 0 -259 80 -259 284c0 173 84 267 239 267c164 0 223 -101 223 -251v-54zM298 465c-97 0 -154 -50 -154 -158h295c0 108 -43 158 -141 158zM151 625l102 130h96l102 -130
h-79l-71 79l-71 -79h-79z" />
    <glyph glyph-name="edieresis" unicode="&#xeb;" horiz-adv-x="582" 
d="M522 235h-378c0 -114 61 -171 177 -171c67 0 123 27 162 58v-86c-26 -19 -85 -47 -164 -47c-171 0 -259 80 -259 284c0 173 84 267 239 267c164 0 223 -101 223 -251v-54zM298 465c-97 0 -154 -50 -154 -158h295c0 108 -43 158 -141 158zM161 690c0 33 19 52 52 52
s52 -19 52 -52s-19 -52 -52 -52s-52 19 -52 52zM337 690c0 33 19 52 52 52s52 -19 52 -52s-19 -52 -52 -52s-52 19 -52 52z" />
    <glyph glyph-name="igrave" unicode="&#xec;" horiz-adv-x="303" 
d="M110 0v530h83v-530h-83zM189 625h-76l-114 130h116z" />
    <glyph glyph-name="iacute" unicode="&#xed;" horiz-adv-x="303" 
d="M110 0v530h83v-530h-83zM114 625l76 130h114l-116 -130h-74z" />
    <glyph glyph-name="icircumflex" unicode="&#xee;" horiz-adv-x="303" 
d="M110 0v530h83v-530h-83zM1 625l102 130h96l102 -130h-79l-71 79l-71 -79h-79z" />
    <glyph glyph-name="idieresis" unicode="&#xef;" horiz-adv-x="303" 
d="M110 0v530h83v-530h-83zM11 690c0 33 19 52 52 52s52 -19 52 -52s-19 -52 -52 -52s-52 19 -52 52zM187 690c0 33 19 52 52 52s52 -19 52 -52s-19 -52 -52 -52s-52 19 -52 52z" />
    <glyph glyph-name="eth" unicode="&#xf0;" horiz-adv-x="620" 
d="M201 552l-29 47l85 45c-45 25 -82 37 -119 45l36 69c57 -11 109 -32 167 -69l119 60l28 -47l-99 -52c109 -111 143 -252 143 -398c0 -170 -82 -260 -227 -260c-152 0 -227 91 -227 260c0 170 80 258 211 258c39 0 81 -6 119 -47l3 2c-17 48 -43 96 -101 143zM162 252
c0 -138 56 -184 143 -184c95 0 143 48 143 184c0 135 -41 182 -143 182c-91 0 -143 -45 -143 -182z" />
    <glyph glyph-name="ntilde" unicode="&#xf1;" horiz-adv-x="622" 
d="M96 0v530h77l5 -84c35 61 90 94 174 94c127 0 181 -49 181 -202v-338h-83v321c0 109 -28 145 -128 145c-93 0 -143 -56 -143 -147v-319h-83zM237 634l-56 14c3 61 41 98 88 98c25 0 44 -12 70 -25c21 -10 37 -21 52 -21c14 0 30 11 34 46l56 -14c-5 -65 -49 -98 -88 -98
c-20 0 -30 6 -69 25c-24 12 -33 22 -51 22c-14 0 -31 -12 -36 -47z" />
    <glyph glyph-name="ograve" unicode="&#xf2;" horiz-adv-x="615" 
d="M60 267c0 183 106 273 258 273c144 0 237 -84 237 -276c0 -199 -110 -275 -248 -275c-158 0 -247 103 -247 278zM143 267v-3c0 -126 60 -200 171 -200c99 0 158 60 158 200v3c0 134 -59 199 -165 199c-105 0 -164 -69 -164 -199zM345 625h-76l-114 130h116z" />
    <glyph glyph-name="oacute" unicode="&#xf3;" horiz-adv-x="615" 
d="M60 267c0 183 106 273 258 273c144 0 237 -84 237 -276c0 -199 -110 -275 -248 -275c-158 0 -247 103 -247 278zM143 267v-3c0 -126 60 -200 171 -200c99 0 158 60 158 200v3c0 134 -59 199 -165 199c-105 0 -164 -69 -164 -199zM270 625l76 130h114l-116 -130h-74z" />
    <glyph glyph-name="ocircumflex" unicode="&#xf4;" horiz-adv-x="615" 
d="M60 267c0 183 106 273 258 273c144 0 237 -84 237 -276c0 -199 -110 -275 -248 -275c-158 0 -247 103 -247 278zM143 267v-3c0 -126 60 -200 171 -200c99 0 158 60 158 200v3c0 134 -59 199 -165 199c-105 0 -164 -69 -164 -199zM157 625l102 130h96l102 -130h-79l-71 79
l-71 -79h-79z" />
    <glyph glyph-name="otilde" unicode="&#xf5;" horiz-adv-x="615" 
d="M60 267c0 183 106 273 258 273c144 0 237 -84 237 -276c0 -199 -110 -275 -248 -275c-158 0 -247 103 -247 278zM143 267v-3c0 -126 60 -200 171 -200c99 0 158 60 158 200v3c0 134 -59 199 -165 199c-105 0 -164 -69 -164 -199zM213 634l-56 14c3 61 41 98 88 98
c25 0 44 -12 70 -25c21 -10 37 -21 52 -21c14 0 30 11 34 46l56 -14c-5 -65 -49 -98 -88 -98c-20 0 -30 6 -69 25c-24 12 -33 22 -51 22c-14 0 -31 -12 -36 -47z" />
    <glyph glyph-name="odieresis" unicode="&#xf6;" horiz-adv-x="615" 
d="M60 267c0 183 106 273 258 273c144 0 237 -84 237 -276c0 -199 -110 -275 -248 -275c-158 0 -247 103 -247 278zM143 267v-3c0 -126 60 -200 171 -200c99 0 158 60 158 200v3c0 134 -59 199 -165 199c-105 0 -164 -69 -164 -199zM167 690c0 33 19 52 52 52s52 -19 52 -52
s-19 -52 -52 -52s-52 19 -52 52zM343 690c0 33 19 52 52 52s52 -19 52 -52s-19 -52 -52 -52s-52 19 -52 52z" />
    <glyph glyph-name="divide" unicode="&#xf7;" horiz-adv-x="571" 
d="M222 151c0 42 25 66 64 66c38 0 64 -25 64 -66c0 -44 -24 -67 -64 -67c-39 0 -64 24 -64 67zM222 497c0 43 25 66 64 66c38 0 64 -24 64 -66c0 -43 -24 -67 -64 -67c-39 0 -64 25 -64 67zM73 284v79h425v-79h-425z" />
    <glyph glyph-name="oslash" unicode="&#xf8;" horiz-adv-x="615" 
d="M60 267c0 183 106 273 258 273c49 0 92 -10 127 -30l33 46l53 -36l-37 -51c39 -45 61 -113 61 -205c0 -199 -110 -275 -248 -275c-52 0 -96 11 -132 31l-34 -48l-52 36l37 52c-43 48 -66 118 -66 207zM143 267v-3c0 -55 11 -100 33 -133l222 312c-25 15 -55 23 -91 23
c-105 0 -164 -69 -164 -199zM472 267c0 54 -10 98 -29 130l-221 -311c25 -14 56 -22 92 -22c99 0 158 60 158 200v3z" />
    <glyph glyph-name="ugrave" unicode="&#xf9;" horiz-adv-x="617" 
d="M445 0l-5 84c-33 -63 -90 -95 -174 -95c-112 0 -175 54 -175 185v356h83v-331c0 -98 31 -135 122 -135c103 0 142 46 142 152v314h83v-530h-76zM346 625h-76l-114 130h116z" />
    <glyph glyph-name="uacute" unicode="&#xfa;" horiz-adv-x="617" 
d="M445 0l-5 84c-33 -63 -90 -95 -174 -95c-112 0 -175 54 -175 185v356h83v-331c0 -98 31 -135 122 -135c103 0 142 46 142 152v314h83v-530h-76zM271 625l76 130h114l-116 -130h-74z" />
    <glyph glyph-name="ucircumflex" unicode="&#xfb;" horiz-adv-x="617" 
d="M445 0l-5 84c-33 -63 -90 -95 -174 -95c-112 0 -175 54 -175 185v356h83v-331c0 -98 31 -135 122 -135c103 0 142 46 142 152v314h83v-530h-76zM158 625l102 130h96l102 -130h-79l-71 79l-71 -79h-79z" />
    <glyph glyph-name="udieresis" unicode="&#xfc;" horiz-adv-x="617" 
d="M445 0l-5 84c-33 -63 -90 -95 -174 -95c-112 0 -175 54 -175 185v356h83v-331c0 -98 31 -135 122 -135c103 0 142 46 142 152v314h83v-530h-76zM166 690c0 33 19 52 52 52s52 -19 52 -52s-19 -52 -52 -52s-52 19 -52 52zM342 690c0 33 19 52 52 52s52 -19 52 -52
s-19 -52 -52 -52s-52 19 -52 52z" />
    <glyph glyph-name="yacute" unicode="&#xfd;" horiz-adv-x="532" 
d="M154 -108c38 0 59 12 91 106l-215 532h96l162 -423l135 423h89l-183 -512c-70 -197 -123 -205 -174 -205c-21 0 -36 2 -47 8v83c14 -8 30 -12 46 -12zM229 625l76 130h114l-116 -130h-74z" />
    <glyph glyph-name="thorn" unicode="&#xfe;" horiz-adv-x="626" 
d="M95 -180v930h83v-313c28 69 87 103 183 103c137 0 205 -76 205 -264c0 -206 -75 -287 -219 -287c-90 0 -143 38 -169 82v-251h-83zM178 213c0 -91 55 -149 152 -149c111 0 153 56 153 207c0 145 -53 194 -152 194c-105 0 -153 -63 -153 -146v-106z" />
    <glyph glyph-name="ydieresis" unicode="&#xff;" horiz-adv-x="532" 
d="M154 -108c38 0 59 12 91 106l-215 532h96l162 -423l135 423h89l-183 -512c-70 -197 -123 -205 -174 -205c-21 0 -36 2 -47 8v83c14 -8 30 -12 46 -12zM131 690c0 33 19 52 52 52s52 -19 52 -52s-19 -52 -52 -52s-52 19 -52 52zM307 690c0 33 19 52 52 52s52 -19 52 -52
s-19 -52 -52 -52s-52 19 -52 52z" />
    <glyph glyph-name="Amacron" unicode="&#x100;" horiz-adv-x="679" 
d="M555 0l-70 187h-299l-69 -187h-92l267 700h91l271 -700h-99zM335 588l-119 -321h239zM194 804v72h290v-72h-290z" />
    <glyph glyph-name="amacron" unicode="&#x101;" horiz-adv-x="563" 
d="M397 0l-5 76c-27 -48 -84 -87 -160 -87c-106 0 -172 56 -172 158c0 117 59 162 211 162h119v50c0 85 -40 105 -129 105c-60 0 -125 -27 -161 -57v96c44 24 119 37 170 37c140 0 203 -43 203 -180v-360h-76zM145 160c0 -57 30 -91 103 -91c98 0 142 57 142 134v45h-116
c-101 0 -129 -24 -129 -88zM141 655v70h280v-70h-280z" />
    <glyph glyph-name="Abreve" unicode="&#x102;" horiz-adv-x="679" 
d="M555 0l-70 187h-299l-69 -187h-92l267 700h91l271 -700h-99zM335 588l-119 -321h239zM184 894l52 16c15 -50 48 -80 103 -80s88 30 103 80l52 -16c-20 -82 -75 -124 -155 -124s-135 42 -155 124z" />
    <glyph glyph-name="abreve" unicode="&#x103;" horiz-adv-x="563" 
d="M397 0l-5 76c-27 -48 -84 -87 -160 -87c-106 0 -172 56 -172 158c0 117 59 162 211 162h119v50c0 85 -40 105 -129 105c-60 0 -125 -27 -161 -57v96c44 24 119 37 170 37c140 0 203 -43 203 -180v-360h-76zM145 160c0 -57 30 -91 103 -91c98 0 142 57 142 134v45h-116
c-101 0 -129 -24 -129 -88zM126 744l50 16c15 -50 50 -82 105 -82s90 32 105 82l50 -16c-25 -82 -75 -124 -155 -124s-130 42 -155 124z" />
    <glyph glyph-name="Aogonek" unicode="&#x104;" horiz-adv-x="679" 
d="M555 0l-70 187h-299l-69 -187h-92l267 700h91l271 -700h-32c-42 -33 -77 -72 -77 -126c0 -27 19 -44 54 -44c17 0 38 6 57 17v-60c-23 -11 -49 -19 -83 -19c-70 0 -105 34 -105 93c0 60 46 103 93 139h-6zM335 588l-119 -321h239z" />
    <glyph glyph-name="aogonek" unicode="&#x105;" horiz-adv-x="563" 
d="M397 0l-5 76c-27 -48 -84 -87 -160 -87c-106 0 -172 56 -172 158c0 117 59 162 211 162h119v50c0 85 -40 105 -129 105c-60 0 -125 -27 -161 -57v96c44 24 119 37 170 37c140 0 203 -43 203 -180v-360h-13c-40 -31 -70 -68 -70 -122c0 -26 16 -42 47 -42c16 0 36 5 55 16
v-56c-21 -10 -45 -18 -77 -18c-65 0 -102 33 -102 87c0 62 44 105 87 135h-3zM145 160c0 -57 30 -91 103 -91c98 0 142 57 142 134v45h-116c-101 0 -129 -24 -129 -88z" />
    <glyph glyph-name="Cacute" unicode="&#x106;" horiz-adv-x="658" 
d="M579 677v-100c-36 25 -107 51 -190 51c-148 0 -225 -69 -225 -269c0 -219 88 -286 233 -286c94 0 171 37 201 54v-91c-32 -18 -107 -44 -202 -44c-221 0 -326 104 -326 358c0 253 109 358 322 358c90 0 152 -20 187 -31zM341 770l84 140h116l-124 -140h-76z" />
    <glyph glyph-name="cacute" unicode="&#x107;" horiz-adv-x="524" 
d="M453 513v-94c-32 23 -86 42 -145 42c-97 0 -162 -45 -162 -193c0 -149 66 -199 182 -199c54 0 107 17 142 46v-90c-28 -22 -83 -36 -154 -36c-160 0 -256 73 -256 286c0 181 87 265 259 265c65 0 103 -11 134 -27zM268 625l76 130h114l-116 -130h-74z" />
    <glyph glyph-name="Ccircumflex" unicode="&#x108;" horiz-adv-x="658" 
d="M579 677v-100c-36 25 -107 51 -190 51c-148 0 -225 -69 -225 -269c0 -219 88 -286 233 -286c94 0 171 37 201 54v-91c-32 -18 -107 -44 -202 -44c-221 0 -326 104 -326 358c0 253 109 358 322 358c90 0 152 -20 187 -31zM224 770l105 140h100l105 -140h-87l-68 88
l-68 -88h-87z" />
    <glyph glyph-name="ccircumflex" unicode="&#x109;" horiz-adv-x="524" 
d="M453 513v-94c-32 23 -86 42 -145 42c-97 0 -162 -45 -162 -193c0 -149 66 -199 182 -199c54 0 107 17 142 46v-90c-28 -22 -83 -36 -154 -36c-160 0 -256 73 -256 286c0 181 87 265 259 265c65 0 103 -11 134 -27zM155 625l102 130h96l102 -130h-79l-71 79l-71 -79h-79z
" />
    <glyph glyph-name="Cdotaccent" unicode="&#x10a;" horiz-adv-x="658" 
d="M579 677v-100c-36 25 -107 51 -190 51c-148 0 -225 -69 -225 -269c0 -219 88 -286 233 -286c94 0 171 37 201 54v-91c-32 -18 -107 -44 -202 -44c-221 0 -326 104 -326 358c0 253 109 358 322 358c90 0 152 -20 187 -31zM325 840c0 34 20 54 54 54s54 -20 54 -54
s-20 -54 -54 -54s-54 20 -54 54z" />
    <glyph glyph-name="cdotaccent" unicode="&#x10b;" horiz-adv-x="524" 
d="M453 513v-94c-32 23 -86 42 -145 42c-97 0 -162 -45 -162 -193c0 -149 66 -199 182 -199c54 0 107 17 142 46v-90c-28 -22 -83 -36 -154 -36c-160 0 -256 73 -256 286c0 181 87 265 259 265c65 0 103 -11 134 -27zM253 690c0 33 19 52 52 52s52 -19 52 -52
s-19 -52 -52 -52s-52 19 -52 52z" />
    <glyph glyph-name="Ccaron" unicode="&#x10c;" horiz-adv-x="658" 
d="M579 677v-100c-36 25 -107 51 -190 51c-148 0 -225 -69 -225 -269c0 -219 88 -286 233 -286c94 0 171 37 201 54v-91c-32 -18 -107 -44 -202 -44c-221 0 -326 104 -326 358c0 253 109 358 322 358c90 0 152 -20 187 -31zM329 770l-105 140h88l67 -88l68 88h87l-105 -140
h-100z" />
    <glyph glyph-name="ccaron" unicode="&#x10d;" horiz-adv-x="524" 
d="M453 513v-94c-32 23 -86 42 -145 42c-97 0 -162 -45 -162 -193c0 -149 66 -199 182 -199c54 0 107 17 142 46v-90c-28 -22 -83 -36 -154 -36c-160 0 -256 73 -256 286c0 181 87 265 259 265c65 0 103 -11 134 -27zM257 625l-102 130h79l71 -79l71 79h79l-102 -130h-96z
" />
    <glyph glyph-name="Dcaron" unicode="&#x10e;" horiz-adv-x="743" 
d="M112 5v693c41 5 95 10 204 10c270 0 357 -108 357 -334c0 -278 -126 -382 -376 -382c-91 0 -151 8 -185 13zM202 79c27 -4 58 -7 89 -7c204 0 288 74 288 290c0 196 -62 266 -268 266c-40 0 -77 -3 -109 -7v-542zM321 770l-105 140h88l67 -88l68 88h87l-105 -140h-100z
" />
    <glyph glyph-name="dcaron" unicode="&#x10f;" horiz-adv-x="626" 
d="M454 0l-5 94c-29 -57 -70 -105 -170 -105c-144 0 -219 72 -219 270c0 202 78 281 223 281c94 0 140 -31 164 -69v279h83v-750h-76zM298 64c108 0 151 67 150 170v85c0 89 -40 147 -155 147c-105 0 -150 -49 -150 -201c0 -144 44 -201 155 -201zM600 560l46 190h94
l-76 -190h-64z" />
    <glyph glyph-name="Dcroat" unicode="&#x110;" horiz-adv-x="743" 
d="M33 321v64h79v313c41 5 95 10 204 10c270 0 357 -108 357 -334c0 -278 -126 -382 -376 -382c-91 0 -151 8 -185 13v316h-79zM202 79c27 -4 58 -7 89 -7c204 0 288 74 288 290c0 196 -62 266 -268 266c-40 0 -77 -3 -109 -7v-236h199v-64h-199v-242z" />
    <glyph glyph-name="dcroat" unicode="&#x111;" horiz-adv-x="626" 
d="M454 0l-5 94c-29 -57 -70 -105 -170 -105c-144 0 -219 72 -219 270c0 202 78 281 223 281c94 0 140 -31 164 -69v120h-222v64h222v95h83v-95h63v-64h-63v-591h-76zM298 64c108 0 151 67 150 170v85c0 89 -40 147 -155 147c-105 0 -150 -49 -150 -201
c0 -144 44 -201 155 -201z" />
    <glyph glyph-name="Emacron" unicode="&#x112;" horiz-adv-x="608" 
d="M112 0v700h426v-80h-336v-225h308v-80h-308v-235h336v-80h-426zM180 804v72h290v-72h-290z" />
    <glyph glyph-name="emacron" unicode="&#x113;" horiz-adv-x="582" 
d="M522 235h-378c0 -114 61 -171 177 -171c67 0 123 27 162 58v-86c-26 -19 -85 -47 -164 -47c-171 0 -259 80 -259 284c0 173 84 267 239 267c164 0 223 -101 223 -251v-54zM298 465c-97 0 -154 -50 -154 -158h295c0 108 -43 158 -141 158zM161 655v70h280v-70h-280z" />
    <glyph glyph-name="Edotaccent" unicode="&#x116;" horiz-adv-x="608" 
d="M112 0v700h426v-80h-336v-225h308v-80h-308v-235h336v-80h-426zM271 840c0 34 20 54 54 54s54 -20 54 -54s-20 -54 -54 -54s-54 20 -54 54z" />
    <glyph glyph-name="edotaccent" unicode="&#x117;" horiz-adv-x="582" 
d="M522 235h-378c0 -114 61 -171 177 -171c67 0 123 27 162 58v-86c-26 -19 -85 -47 -164 -47c-171 0 -259 80 -259 284c0 173 84 267 239 267c164 0 223 -101 223 -251v-54zM298 465c-97 0 -154 -50 -154 -158h295c0 108 -43 158 -141 158zM249 690c0 33 19 52 52 52
s52 -19 52 -52s-19 -52 -52 -52s-52 19 -52 52z" />
    <glyph glyph-name="Eogonek" unicode="&#x118;" horiz-adv-x="608" 
d="M112 0v700h426v-80h-336v-225h308v-80h-308v-235h336v-80h-8c-42 -33 -77 -72 -77 -126c0 -27 19 -44 54 -44c17 0 38 6 57 17v-60c-23 -11 -49 -19 -83 -19c-70 0 -105 34 -105 93c0 60 46 103 93 139h-357z" />
    <glyph glyph-name="eogonek" unicode="&#x119;" horiz-adv-x="582" 
d="M431 -148v-56c-21 -10 -45 -18 -77 -18c-65 0 -102 33 -102 87c0 55 34 95 72 124h-5c-171 0 -259 80 -259 284c0 173 84 267 239 267c164 0 223 -101 223 -251v-54h-378c0 -114 61 -171 177 -171c67 0 123 27 162 58v-86c-17 -12 -46 -28 -86 -37
c-39 -31 -68 -68 -68 -121c0 -26 16 -42 47 -42c16 0 36 5 55 16zM298 465c-97 0 -154 -50 -154 -158h295c0 108 -43 158 -141 158z" />
    <glyph glyph-name="Ecaron" unicode="&#x11a;" horiz-adv-x="608" 
d="M112 0v700h426v-80h-336v-225h308v-80h-308v-235h336v-80h-426zM274 770l-105 140h88l67 -88l68 88h87l-105 -140h-100z" />
    <glyph glyph-name="ecaron" unicode="&#x11b;" horiz-adv-x="582" 
d="M522 235h-378c0 -114 61 -171 177 -171c67 0 123 27 162 58v-86c-26 -19 -85 -47 -164 -47c-171 0 -259 80 -259 284c0 173 84 267 239 267c164 0 223 -101 223 -251v-54zM298 465c-97 0 -154 -50 -154 -158h295c0 108 -43 158 -141 158zM253 625l-102 130h79l71 -79
l71 79h79l-102 -130h-96z" />
    <glyph glyph-name="Gcircumflex" unicode="&#x11c;" horiz-adv-x="709" 
d="M401 271v79h238v-320c-32 -13 -105 -38 -208 -38c-244 0 -361 102 -361 358c0 247 125 358 356 358c77 0 131 -14 163 -31v-95c-38 22 -94 46 -169 46c-171 0 -256 -75 -256 -269c0 -220 91 -287 268 -287c47 0 90 6 123 15v184h-154zM250 770l105 140h100l105 -140h-87
l-68 88l-68 -88h-87z" />
    <glyph glyph-name="gcircumflex" unicode="&#x11d;" horiz-adv-x="627" 
d="M97 -149v97c29 -25 100 -60 179 -60c115 0 171 37 172 137v82c-26 -54 -83 -97 -171 -97c-144 0 -217 74 -217 254c0 201 75 276 233 276c76 0 134 -32 158 -80l5 70h75v-500c-1 -153 -95 -217 -245 -217c-91 0 -153 20 -189 38zM295 85c98 0 154 49 154 162v57
c0 124 -60 161 -153 161c-95 0 -153 -48 -153 -196c0 -138 64 -184 152 -184zM163 625l102 130h96l102 -130h-79l-71 79l-71 -79h-79z" />
    <glyph glyph-name="Gbreve" unicode="&#x11e;" horiz-adv-x="709" 
d="M401 271v79h238v-320c-32 -13 -105 -38 -208 -38c-244 0 -361 102 -361 358c0 247 125 358 356 358c77 0 131 -14 163 -31v-95c-38 22 -94 46 -169 46c-171 0 -256 -75 -256 -269c0 -220 91 -287 268 -287c47 0 90 6 123 15v184h-154zM250 894l52 16
c15 -50 48 -80 103 -80s88 30 103 80l52 -16c-20 -82 -75 -124 -155 -124s-135 42 -155 124z" />
    <glyph glyph-name="gbreve" unicode="&#x11f;" horiz-adv-x="627" 
d="M97 -149v97c29 -25 100 -60 179 -60c115 0 171 37 172 137v82c-26 -54 -83 -97 -171 -97c-144 0 -217 74 -217 254c0 201 75 276 233 276c76 0 134 -32 158 -80l5 70h75v-500c-1 -153 -95 -217 -245 -217c-91 0 -153 20 -189 38zM295 85c98 0 154 49 154 162v57
c0 124 -60 161 -153 161c-95 0 -153 -48 -153 -196c0 -138 64 -184 152 -184zM140 744l50 16c15 -50 50 -82 105 -82s90 32 105 82l50 -16c-25 -82 -75 -124 -155 -124s-130 42 -155 124z" />
    <glyph glyph-name="Gdotaccent" unicode="&#x120;" horiz-adv-x="709" 
d="M401 271v79h238v-320c-32 -13 -105 -38 -208 -38c-244 0 -361 102 -361 358c0 247 125 358 356 358c77 0 131 -14 163 -31v-95c-38 22 -94 46 -169 46c-171 0 -256 -75 -256 -269c0 -220 91 -287 268 -287c47 0 90 6 123 15v184h-154zM351 840c0 34 20 54 54 54
s54 -20 54 -54s-20 -54 -54 -54s-54 20 -54 54z" />
    <glyph glyph-name="gdotaccent" unicode="&#x121;" horiz-adv-x="627" 
d="M97 -149v97c29 -25 100 -60 179 -60c115 0 171 37 172 137v82c-26 -54 -83 -97 -171 -97c-144 0 -217 74 -217 254c0 201 75 276 233 276c76 0 134 -32 158 -80l5 70h75v-500c-1 -153 -95 -217 -245 -217c-91 0 -153 20 -189 38zM295 85c98 0 154 49 154 162v57
c0 124 -60 161 -153 161c-95 0 -153 -48 -153 -196c0 -138 64 -184 152 -184zM261 690c0 33 19 52 52 52s52 -19 52 -52s-19 -52 -52 -52s-52 19 -52 52z" />
    <glyph glyph-name="Gcommaaccent" unicode="&#x122;" horiz-adv-x="709" 
d="M401 271v79h238v-320c-32 -13 -105 -38 -208 -38c-244 0 -361 102 -361 358c0 247 125 358 356 358c77 0 131 -14 163 -31v-95c-38 22 -94 46 -169 46c-171 0 -256 -75 -256 -269c0 -220 91 -287 268 -287c47 0 90 6 123 15v184h-154zM359 -209c30 4 62 20 62 53
c-6 -1 -13 -2 -19 -2c-30 0 -55 15 -55 43c0 25 23 47 66 47c38 0 68 -21 68 -70s-30 -108 -117 -114z" />
    <glyph glyph-name="gcommaaccent" unicode="&#x123;" horiz-adv-x="627" 
d="M97 -149v97c29 -25 100 -60 179 -60c115 0 171 37 172 137v82c-26 -54 -83 -97 -171 -97c-144 0 -217 74 -217 254c0 201 75 276 233 276c76 0 134 -32 158 -80l5 70h75v-500c-1 -153 -95 -217 -245 -217c-91 0 -153 20 -189 38zM295 85c98 0 154 49 154 162v57
c0 124 -60 161 -153 161c-95 0 -153 -48 -153 -196c0 -138 64 -184 152 -184zM368 789c-30 -4 -62 -20 -62 -53c6 1 13 2 19 2c30 0 55 -15 55 -43c0 -25 -23 -47 -66 -47c-38 0 -68 21 -68 70s30 108 117 114z" />
    <glyph glyph-name="Hcircumflex" unicode="&#x124;" horiz-adv-x="790" 
d="M112 0v700h90v-300h386v300h90v-700h-90v320h-386v-320h-90zM240 770l105 140h100l105 -140h-87l-68 88l-68 -88h-87z" />
    <glyph glyph-name="hcircumflex" unicode="&#x125;" horiz-adv-x="622" 
d="M96 0v750h83v-302c25 59 83 92 173 92c125 0 181 -51 181 -182v-358h-83v347c0 85 -36 119 -129 119c-94 0 -142 -42 -142 -147v-319h-83zM-13 805l102 130h96l102 -130h-79l-71 79l-71 -79h-79z" />
    <glyph glyph-name="Hbar" unicode="&#x126;" horiz-adv-x="790" 
d="M112 0v512h-74v68h74v120h90v-120h386v120h90v-120h74v-68h-74v-512h-90v320h-386v-320h-90zM202 400h386v112h-386v-112z" />
    <glyph glyph-name="hbar" unicode="&#x127;" horiz-adv-x="622" 
d="M96 0v591h-63v64h63v95h83v-95h222v-64h-222v-183c25 59 83 92 173 92c125 0 181 -51 181 -182v-318h-83v307c0 85 -36 119 -129 119c-94 0 -142 -42 -142 -147v-279h-83z" />
    <glyph glyph-name="Imacron" unicode="&#x12a;" horiz-adv-x="324" 
d="M117 0v700h90v-700h-90zM17 804v72h290v-72h-290z" />
    <glyph glyph-name="imacron" unicode="&#x12b;" horiz-adv-x="303" 
d="M110 0v530h83v-530h-83zM11 655v70h280v-70h-280z" />
    <glyph glyph-name="Iogonek" unicode="&#x12e;" horiz-adv-x="324" 
d="M117 0v700h90v-700h-9c-42 -33 -77 -72 -77 -126c0 -27 19 -44 54 -44c17 0 38 6 57 17v-60c-23 -11 -49 -19 -83 -19c-70 0 -105 34 -105 93c0 60 46 103 93 139h-20z" />
    <glyph glyph-name="iogonek" unicode="&#x12f;" horiz-adv-x="303" 
d="M110 0v530h83v-530h-14c-40 -31 -70 -68 -70 -122c0 -26 16 -42 47 -42c16 0 36 5 55 16v-56c-21 -10 -45 -18 -77 -18c-65 0 -102 33 -102 87c0 62 44 105 87 135h-9zM99 690c0 33 19 52 52 52s52 -19 52 -52s-19 -52 -52 -52s-52 19 -52 52z" />
    <glyph glyph-name="Idotaccent" unicode="&#x130;" horiz-adv-x="324" 
d="M117 0v700h90v-700h-90zM108 840c0 34 20 54 54 54s54 -20 54 -54s-20 -54 -54 -54s-54 20 -54 54z" />
    <glyph glyph-name="dotlessi" unicode="&#x131;" horiz-adv-x="303" 
d="M110 0v530h83v-530h-83z" />
    <glyph glyph-name="Jcircumflex" unicode="&#x134;" horiz-adv-x="393" 
d="M191 154v546h90v-549c0 -107 -49 -156 -170 -156c-33 0 -63 6 -96 18v87c12 -11 53 -25 94 -25c61 0 82 21 82 79zM79 770l105 140h100l105 -140h-87l-68 88l-68 -88h-87z" />
    <glyph glyph-name="jcircumflex" unicode="&#x135;" horiz-adv-x="303" 
d="M110 -8v538h83v-525c0 -125 -41 -191 -155 -191c-35 0 -64 7 -79 13v87c22 -14 51 -21 79 -21c51 0 72 28 72 99zM3 625l102 130h96l102 -130h-79l-71 79l-71 -79h-79z" />
    <glyph glyph-name="Kcommaaccent" unicode="&#x136;" horiz-adv-x="691" 
d="M112 0v700h90v-308h52l269 308h116l-307 -339l344 -361h-116l-305 322h-53v-322h-90zM289 -209c30 4 62 20 62 53c-6 -1 -13 -2 -19 -2c-30 0 -55 15 -55 43c0 25 23 47 66 47c38 0 68 -21 68 -70s-30 -108 -117 -114z" />
    <glyph glyph-name="kcommaaccent" unicode="&#x137;" horiz-adv-x="566" 
d="M96 750h83v-446h47l193 226h95l-218 -251l250 -279h-105l-217 239h-45v-239h-83v750zM227 -209c30 4 62 20 62 53c-6 -1 -13 -2 -19 -2c-30 0 -55 15 -55 43c0 25 23 47 66 47c38 0 68 -21 68 -70s-30 -108 -117 -114z" />
    <glyph glyph-name="Lacute" unicode="&#x139;" horiz-adv-x="573" 
d="M112 0v700h90v-620h346v-80h-436zM103 770l84 140h116l-124 -140h-76z" />
    <glyph glyph-name="lacute" unicode="&#x13a;" horiz-adv-x="348" 
d="M180 151c0 -66 19 -82 75 -82c30 0 57 7 73 13v-74c-16 -9 -54 -18 -91 -18c-86 0 -140 37 -140 130v630h83v-599zM103 825l76 130h114l-116 -130h-74z" />
    <glyph glyph-name="Lcommaaccent" unicode="&#x13b;" horiz-adv-x="573" 
d="M112 0v700h90v-620h346v-80h-436zM271 -209c30 4 62 20 62 53c-6 -1 -13 -2 -19 -2c-30 0 -55 15 -55 43c0 25 23 47 66 47c38 0 68 -21 68 -70s-30 -108 -117 -114z" />
    <glyph glyph-name="lcommaaccent" unicode="&#x13c;" horiz-adv-x="348" 
d="M180 151c0 -66 19 -82 75 -82c30 0 57 7 73 13v-74c-16 -9 -54 -18 -91 -18c-86 0 -140 37 -140 130v630h83v-599zM168 -209c30 4 62 20 62 53c-6 -1 -13 -2 -19 -2c-30 0 -55 15 -55 43c0 25 23 47 66 47c38 0 68 -21 68 -70s-30 -108 -117 -114z" />
    <glyph glyph-name="Lcaron" unicode="&#x13d;" horiz-adv-x="573" 
d="M112 0v700h90v-620h346v-80h-436zM352 510l46 190h94l-76 -190h-64z" />
    <glyph glyph-name="lcaron" unicode="&#x13e;" horiz-adv-x="348" 
d="M180 151c0 -66 19 -82 75 -82c30 0 57 7 73 13v-74c-16 -9 -54 -18 -91 -18c-86 0 -140 37 -140 130v630h83v-599zM270 560l46 190h94l-76 -190h-64z" />
    <glyph glyph-name="Ldot" unicode="&#x13f;" horiz-adv-x="573" 
d="M112 0v700h90v-620h346v-80h-436zM385 342c0 37 21 60 59 60c37 0 60 -24 60 -60c0 -38 -22 -60 -60 -60c-37 0 -59 23 -59 60z" />
    <glyph glyph-name="ldot" unicode="&#x140;" horiz-adv-x="348" 
d="M180 151c0 -66 19 -82 75 -82c30 0 57 7 73 13v-74c-16 -9 -54 -18 -91 -18c-86 0 -140 37 -140 130v630h83v-599zM252 342c0 37 21 60 59 60c37 0 60 -24 60 -60c0 -38 -22 -60 -60 -60c-37 0 -59 23 -59 60z" />
    <glyph glyph-name="Lslash" unicode="&#x141;" horiz-adv-x="573" 
d="M112 0v245l-73 -47v84l73 47v371h90v-312l175 115v-84l-175 -115v-224h346v-80h-436z" />
    <glyph glyph-name="lslash" unicode="&#x142;" horiz-adv-x="348" 
d="M180 151c0 -66 19 -82 75 -82c30 0 57 7 73 13v-74c-16 -9 -54 -18 -91 -18c-86 0 -140 37 -140 130v121l-67 -43v84l67 43v425h83v-370l115 75v-84l-115 -75v-145z" />
    <glyph glyph-name="Nacute" unicode="&#x143;" horiz-adv-x="789" 
d="M112 0v700h93l322 -459c27 -40 46 -70 65 -102c-3 37 -5 74 -5 122v439h90v-700h-94l-301 433c-28 39 -60 94 -88 143c4 -46 8 -85 8 -138v-438h-90zM356 770l84 140h116l-124 -140h-76z" />
    <glyph glyph-name="nacute" unicode="&#x144;" horiz-adv-x="622" 
d="M96 0v530h77l5 -84c35 61 90 94 174 94c127 0 181 -49 181 -202v-338h-83v321c0 109 -28 145 -128 145c-93 0 -143 -56 -143 -147v-319h-83zM294 625l76 130h114l-116 -130h-74z" />
    <glyph glyph-name="Ncommaaccent" unicode="&#x145;" horiz-adv-x="789" 
d="M112 0v700h93l322 -459c27 -40 46 -70 65 -102c-3 37 -5 74 -5 122v439h90v-700h-94l-301 433c-28 39 -60 94 -88 143c4 -46 8 -85 8 -138v-438h-90zM338 -209c30 4 62 20 62 53c-6 -1 -13 -2 -19 -2c-30 0 -55 15 -55 43c0 25 23 47 66 47c38 0 68 -21 68 -70
s-30 -108 -117 -114z" />
    <glyph glyph-name="ncommaaccent" unicode="&#x146;" horiz-adv-x="622" 
d="M96 0v530h77l5 -84c35 61 90 94 174 94c127 0 181 -49 181 -202v-338h-83v321c0 109 -28 145 -128 145c-93 0 -143 -56 -143 -147v-319h-83zM255 -209c30 4 62 20 62 53c-6 -1 -13 -2 -19 -2c-30 0 -55 15 -55 43c0 25 23 47 66 47c38 0 68 -21 68 -70
s-30 -108 -117 -114z" />
    <glyph glyph-name="Ncaron" unicode="&#x147;" horiz-adv-x="789" 
d="M112 0v700h93l322 -459c27 -40 46 -70 65 -102c-3 37 -5 74 -5 122v439h90v-700h-94l-301 433c-28 39 -60 94 -88 143c4 -46 8 -85 8 -138v-438h-90zM344 770l-105 140h88l67 -88l68 88h87l-105 -140h-100z" />
    <glyph glyph-name="ncaron" unicode="&#x148;" horiz-adv-x="622" 
d="M96 0v530h77l5 -84c35 61 90 94 174 94c127 0 181 -49 181 -202v-338h-83v321c0 109 -28 145 -128 145c-93 0 -143 -56 -143 -147v-319h-83zM266 625l-102 130h79l71 -79l71 79h79l-102 -130h-96z" />
    <glyph glyph-name="Omacron" unicode="&#x14c;" horiz-adv-x="788" 
d="M70 350c0 245 109 360 335 360c212 0 313 -115 313 -360c0 -260 -123 -360 -325 -360c-185 0 -323 96 -323 360zM164 347c0 -207 96 -276 234 -276c141 0 226 69 226 276c0 214 -86 282 -231 282c-156 0 -229 -93 -229 -282zM249 804v72h290v-72h-290z" />
    <glyph glyph-name="omacron" unicode="&#x14d;" horiz-adv-x="615" 
d="M60 267c0 183 106 273 258 273c144 0 237 -84 237 -276c0 -199 -110 -275 -248 -275c-158 0 -247 103 -247 278zM143 267v-3c0 -126 60 -200 171 -200c99 0 158 60 158 200v3c0 134 -59 199 -165 199c-105 0 -164 -69 -164 -199zM167 655v70h280v-70h-280z" />
    <glyph glyph-name="Ohungarumlaut" unicode="&#x150;" horiz-adv-x="788" 
d="M70 350c0 245 109 360 335 360c212 0 313 -115 313 -360c0 -260 -123 -360 -325 -360c-185 0 -323 96 -323 360zM164 347c0 -207 96 -276 234 -276c141 0 226 69 226 276c0 214 -86 282 -231 282c-156 0 -229 -93 -229 -282zM262 770l56 140h106l-86 -140h-76zM436 770
l86 140h120l-126 -140h-80z" />
    <glyph glyph-name="ohungarumlaut" unicode="&#x151;" horiz-adv-x="615" 
d="M60 267c0 183 106 273 258 273c144 0 237 -84 237 -276c0 -199 -110 -275 -248 -275c-158 0 -247 103 -247 278zM143 267v-3c0 -126 60 -200 171 -200c99 0 158 60 158 200v3c0 134 -59 199 -165 199c-105 0 -164 -69 -164 -199zM185 625l56 130h104l-86 -130h-74z
M341 625l86 130h118l-126 -130h-78z" />
    <glyph glyph-name="OE" unicode="&#x152;" horiz-adv-x="982" 
d="M405 710c31 0 60 -4 86 -10h410v-80h-325v-225h308v-80h-308v-235h336v-80h-423c-29 -7 -61 -10 -96 -10c-185 0 -323 96 -323 360c0 245 109 360 335 360zM398 71c32 0 62 2 88 9v539c-27 7 -58 10 -93 10c-156 0 -229 -93 -229 -282c0 -207 96 -276 234 -276z" />
    <glyph glyph-name="oe" unicode="&#x153;" horiz-adv-x="995" 
d="M60 267c0 183 106 273 258 273c87 0 155 -30 195 -97c40 64 107 97 199 97c164 0 223 -101 223 -251v-54h-378c0 -114 61 -171 177 -171c67 0 123 27 162 58v-86c-26 -19 -85 -47 -164 -47c-105 0 -178 30 -219 100c-45 -70 -120 -100 -206 -100
c-158 0 -247 103 -247 278zM711 465c-97 0 -154 -50 -154 -158h295c0 108 -43 158 -141 158zM143 267v-3c0 -126 60 -200 171 -200c99 0 158 60 158 200v3c0 134 -59 199 -165 199c-105 0 -164 -69 -164 -199z" />
    <glyph glyph-name="Racute" unicode="&#x154;" horiz-adv-x="663" 
d="M202 0h-90v691c43 7 130 15 187 15c175 0 254 -60 255 -205c0 -101 -32 -169 -139 -205l228 -296h-109l-217 281h-115v-281zM202 351h86c126 0 171 44 171 142c0 93 -38 133 -166 133c-35 0 -65 -2 -91 -7v-268zM293 770l84 140h116l-124 -140h-76z" />
    <glyph glyph-name="racute" unicode="&#x155;" horiz-adv-x="401" 
d="M96 0v530h74l5 -71c23 51 83 82 144 82c20 0 35 -1 47 -4v-94c-19 15 -43 24 -71 24c-82 0 -116 -54 -116 -144v-323h-83zM184 625l76 130h114l-116 -130h-74z" />
    <glyph glyph-name="Rcommaaccent" unicode="&#x156;" horiz-adv-x="663" 
d="M202 0h-90v691c43 7 130 15 187 15c175 0 254 -60 255 -205c0 -101 -32 -169 -139 -205l228 -296h-109l-217 281h-115v-281zM202 351h86c126 0 171 44 171 142c0 93 -38 133 -166 133c-35 0 -65 -2 -91 -7v-268zM275 -209c30 4 62 20 62 53c-6 -1 -13 -2 -19 -2
c-30 0 -55 15 -55 43c0 25 23 47 66 47c38 0 68 -21 68 -70s-30 -108 -117 -114z" />
    <glyph glyph-name="rcommaaccent" unicode="&#x157;" horiz-adv-x="401" 
d="M96 0v530h74l5 -71c23 51 83 82 144 82c20 0 35 -1 47 -4v-94c-19 15 -43 24 -71 24c-82 0 -116 -54 -116 -144v-323h-83zM76 -209c30 4 62 20 62 53c-6 -1 -13 -2 -19 -2c-30 0 -55 15 -55 43c0 25 23 47 66 47c38 0 68 -21 68 -70s-30 -108 -117 -114z" />
    <glyph glyph-name="Rcaron" unicode="&#x158;" horiz-adv-x="663" 
d="M202 0h-90v691c43 7 130 15 187 15c175 0 254 -60 255 -205c0 -101 -32 -169 -139 -205l228 -296h-109l-217 281h-115v-281zM202 351h86c126 0 171 44 171 142c0 93 -38 133 -166 133c-35 0 -65 -2 -91 -7v-268zM281 770l-105 140h88l67 -88l68 88h87l-105 -140h-100z
" />
    <glyph glyph-name="rcaron" unicode="&#x159;" horiz-adv-x="401" 
d="M96 0v530h74l5 -71c23 51 83 82 144 82c20 0 35 -1 47 -4v-94c-19 15 -43 24 -71 24c-82 0 -116 -54 -116 -144v-323h-83zM173 625l-102 130h79l71 -79l71 79h79l-102 -130h-96z" />
    <glyph glyph-name="Sacute" unicode="&#x15a;" horiz-adv-x="586" 
d="M426 185c0 187 -352 86 -352 331c0 125 67 192 242 192c71 0 132 -13 177 -36v-106c-40 37 -110 62 -180 62c-114 0 -146 -33 -146 -99c0 -180 354 -70 354 -338c0 -127 -73 -199 -247 -199c-81 0 -164 23 -209 58v118c45 -50 114 -96 208 -96c106 0 153 38 153 113z
M275 770l84 140h116l-124 -140h-76z" />
    <glyph glyph-name="sacute" unicode="&#x15b;" horiz-adv-x="507" 
d="M419 509v-99c-39 33 -80 56 -145 56c-79 0 -112 -20 -112 -71c0 -122 280 -43 280 -238c0 -112 -67 -168 -195 -168c-83 0 -138 16 -182 42v103c41 -41 115 -70 182 -70c76 0 112 31 112 89c0 120 -280 45 -280 236c0 93 49 151 191 151c73 0 118 -16 149 -31zM237 625
l76 130h114l-116 -130h-74z" />
    <glyph glyph-name="Scircumflex" unicode="&#x15c;" horiz-adv-x="586" 
d="M426 185c0 187 -352 86 -352 331c0 125 67 192 242 192c71 0 132 -13 177 -36v-106c-40 37 -110 62 -180 62c-114 0 -146 -33 -146 -99c0 -180 354 -70 354 -338c0 -127 -73 -199 -247 -199c-81 0 -164 23 -209 58v118c45 -50 114 -96 208 -96c106 0 153 38 153 113z
M158 770l105 140h100l105 -140h-87l-68 88l-68 -88h-87z" />
    <glyph glyph-name="scircumflex" unicode="&#x15d;" horiz-adv-x="507" 
d="M419 509v-99c-39 33 -80 56 -145 56c-79 0 -112 -20 -112 -71c0 -122 280 -43 280 -238c0 -112 -67 -168 -195 -168c-83 0 -138 16 -182 42v103c41 -41 115 -70 182 -70c76 0 112 31 112 89c0 120 -280 45 -280 236c0 93 49 151 191 151c73 0 118 -16 149 -31zM124 625
l102 130h96l102 -130h-79l-71 79l-71 -79h-79z" />
    <glyph glyph-name="Scedilla" unicode="&#x15e;" horiz-adv-x="586" 
d="M243 -101l11 94c-75 3 -148 25 -189 57v118c45 -50 114 -96 208 -96c106 0 153 38 153 113c0 187 -352 86 -352 331c0 125 67 192 242 192c71 0 132 -13 177 -36v-106c-40 37 -110 62 -180 62c-114 0 -146 -33 -146 -99c0 -180 354 -70 354 -338
c0 -118 -63 -188 -210 -198l-6 -42c59 -2 105 -20 105 -87c0 -60 -51 -106 -120 -106c-41 0 -62 7 -81 16l8 54c21 -9 37 -13 64 -13c25 0 52 12 52 46c0 31 -29 41 -52 41c-10 0 -29 0 -38 -3z" />
    <glyph glyph-name="scedilla" unicode="&#x15f;" horiz-adv-x="507" 
d="M190 -93l11 84c-58 5 -101 19 -136 40v103c41 -41 115 -70 182 -70c76 0 112 31 112 89c0 120 -280 45 -280 236c0 93 49 151 191 151c73 0 118 -16 149 -31v-99c-39 33 -80 56 -145 56c-79 0 -112 -20 -112 -71c0 -122 280 -43 280 -238c0 -110 -65 -166 -189 -168
l-4 -33c55 -2 95 -19 95 -85c0 -55 -43 -93 -109 -93c-37 0 -55 6 -74 15l7 52c20 -9 34 -13 59 -13s47 11 47 43c0 30 -26 34 -48 34c-9 0 -27 0 -36 -2z" />
    <glyph glyph-name="Scaron" unicode="&#x160;" horiz-adv-x="586" 
d="M426 185c0 187 -352 86 -352 331c0 125 67 192 242 192c71 0 132 -13 177 -36v-106c-40 37 -110 62 -180 62c-114 0 -146 -33 -146 -99c0 -180 354 -70 354 -338c0 -127 -73 -199 -247 -199c-81 0 -164 23 -209 58v118c45 -50 114 -96 208 -96c106 0 153 38 153 113z
M263 770l-105 140h88l67 -88l68 88h87l-105 -140h-100z" />
    <glyph glyph-name="scaron" unicode="&#x161;" horiz-adv-x="507" 
d="M419 509v-99c-39 33 -80 56 -145 56c-79 0 -112 -20 -112 -71c0 -122 280 -43 280 -238c0 -112 -67 -168 -195 -168c-83 0 -138 16 -182 42v103c41 -41 115 -70 182 -70c76 0 112 31 112 89c0 120 -280 45 -280 236c0 93 49 151 191 151c73 0 118 -16 149 -31zM226 625
l-102 130h79l71 -79l71 79h79l-102 -130h-96z" />
    <glyph glyph-name="Tcedilla" unicode="&#x162;" horiz-adv-x="582" 
d="M246 0v620h-221v80h532v-80h-221v-620h-16l-7 -49c59 -2 105 -20 105 -87c0 -60 -51 -106 -120 -106c-41 0 -62 7 -81 16l8 54c21 -9 37 -13 64 -13c25 0 52 12 52 46c0 31 -29 41 -52 41c-10 0 -29 0 -38 -3l12 101h-17z" />
    <glyph glyph-name="tcedilla" unicode="&#x163;" horiz-adv-x="467" 
d="M237 -93l12 88c-74 15 -111 65 -111 169v292h-113v74h113v109l83 31v-140h191v-74h-191v-289c0 -77 29 -102 90 -102c59 0 92 14 121 32v-77c-22 -16 -74 -30 -127 -30h-5l-4 -34c55 -2 95 -19 95 -85c0 -55 -43 -93 -109 -93c-37 0 -55 6 -74 15l7 52
c20 -9 34 -13 59 -13s47 11 47 43c0 30 -26 34 -48 34c-9 0 -27 0 -36 -2z" />
    <glyph glyph-name="Tcaron" unicode="&#x164;" horiz-adv-x="582" 
d="M246 0v620h-221v80h532v-80h-221v-620h-90zM241 770l-105 140h88l67 -88l68 88h87l-105 -140h-100z" />
    <glyph glyph-name="tcaron" unicode="&#x165;" horiz-adv-x="475" 
d="M138 164v292h-113v74h113v109l83 31v-140h191v-74h-191v-289c0 -77 29 -102 90 -102c59 0 92 14 121 32v-77c-22 -16 -74 -30 -127 -30c-111 0 -167 47 -167 174zM311 630l46 190h94l-76 -190h-64z" />
    <glyph glyph-name="Umacron" unicode="&#x16a;" horiz-adv-x="750" 
d="M107 259v441h90v-425c0 -176 77 -205 190 -205c92 0 166 21 166 193v437h90v-433c0 -223 -118 -277 -266 -277c-187 0 -270 82 -270 269zM230 804v72h290v-72h-290z" />
    <glyph glyph-name="umacron" unicode="&#x16b;" horiz-adv-x="617" 
d="M445 0l-5 84c-33 -63 -90 -95 -174 -95c-112 0 -175 54 -175 185v356h83v-331c0 -98 31 -135 122 -135c103 0 142 46 142 152v314h83v-530h-76zM166 655v70h280v-70h-280z" />
    <glyph glyph-name="Ubreve" unicode="&#x16c;" horiz-adv-x="750" 
d="M107 259v441h90v-425c0 -176 77 -205 190 -205c92 0 166 21 166 193v437h90v-433c0 -223 -118 -277 -266 -277c-187 0 -270 82 -270 269zM220 894l52 16c15 -50 48 -80 103 -80s88 30 103 80l52 -16c-20 -82 -75 -124 -155 -124s-135 42 -155 124z" />
    <glyph glyph-name="ubreve" unicode="&#x16d;" horiz-adv-x="617" 
d="M445 0l-5 84c-33 -63 -90 -95 -174 -95c-112 0 -175 54 -175 185v356h83v-331c0 -98 31 -135 122 -135c103 0 142 46 142 152v314h83v-530h-76zM151 744l50 16c15 -50 50 -82 105 -82s90 32 105 82l50 -16c-25 -82 -75 -124 -155 -124s-130 42 -155 124z" />
    <glyph glyph-name="Uring" unicode="&#x16e;" horiz-adv-x="750" 
d="M107 259v441h90v-425c0 -176 77 -205 190 -205c92 0 166 21 166 193v437h90v-433c0 -223 -118 -277 -266 -277c-187 0 -270 82 -270 269zM283 840c0 56 45 92 92 92s92 -36 92 -92c0 -55 -45 -92 -92 -92s-92 37 -92 92zM331 840c0 -27 17 -44 44 -44s44 17 44 44
s-17 44 -44 44s-44 -17 -44 -44z" />
    <glyph glyph-name="uring" unicode="&#x16f;" horiz-adv-x="617" 
d="M445 0l-5 84c-33 -63 -90 -95 -174 -95c-112 0 -175 54 -175 185v356h83v-331c0 -98 31 -135 122 -135c103 0 142 46 142 152v314h83v-530h-76zM216 690c0 56 43 90 90 90s90 -34 90 -90c0 -55 -43 -90 -90 -90s-90 35 -90 90zM262 690c0 -27 17 -44 44 -44s44 17 44 44
s-17 44 -44 44s-44 -17 -44 -44z" />
    <glyph glyph-name="Uhungarumlaut" unicode="&#x170;" horiz-adv-x="750" 
d="M107 259v441h90v-425c0 -176 77 -205 190 -205c92 0 166 21 166 193v437h90v-433c0 -223 -118 -277 -266 -277c-187 0 -270 82 -270 269zM243 770l56 140h106l-86 -140h-76zM417 770l86 140h120l-126 -140h-80z" />
    <glyph glyph-name="uhungarumlaut" unicode="&#x171;" horiz-adv-x="617" 
d="M445 0l-5 84c-33 -63 -90 -95 -174 -95c-112 0 -175 54 -175 185v356h83v-331c0 -98 31 -135 122 -135c103 0 142 46 142 152v314h83v-530h-76zM184 625l56 130h104l-86 -130h-74zM340 625l86 130h118l-126 -130h-78z" />
    <glyph glyph-name="Uogonek" unicode="&#x172;" horiz-adv-x="750" 
d="M107 259v441h90v-425c0 -176 77 -205 190 -205c92 0 166 21 166 193v437h90v-433c0 -187 -83 -255 -196 -272c-40 -32 -71 -70 -71 -121c0 -27 19 -44 54 -44c17 0 38 6 57 17v-60c-23 -11 -49 -19 -83 -19c-70 0 -105 34 -105 93c0 54 37 95 80 129h-2
c-187 0 -270 82 -270 269z" />
    <glyph glyph-name="uogonek" unicode="&#x173;" horiz-adv-x="617" 
d="M445 0l-5 84c-33 -63 -90 -95 -174 -95c-112 0 -175 54 -175 185v356h83v-331c0 -98 31 -135 122 -135c103 0 142 46 142 152v314h83v-530h-12c-40 -31 -70 -68 -70 -122c0 -26 16 -42 47 -42c16 0 36 5 55 16v-56c-21 -10 -45 -18 -77 -18c-65 0 -102 33 -102 87
c0 62 44 105 87 135h-4z" />
    <glyph glyph-name="Ydieresis" unicode="&#x178;" horiz-adv-x="623" 
d="M267 0v267l-247 433h99l197 -347l190 347h96l-245 -432v-268h-90zM161 840c0 34 20 54 54 54s54 -20 54 -54s-20 -54 -54 -54s-54 20 -54 54zM353 840c0 34 20 54 54 54s54 -20 54 -54s-20 -54 -54 -54s-54 20 -54 54z" />
    <glyph glyph-name="Zacute" unicode="&#x179;" horiz-adv-x="607" 
d="M40 0v50l400 570h-388v80h509v-51l-400 -569h406v-80h-527zM265 770l84 140h116l-124 -140h-76z" />
    <glyph glyph-name="zacute" unicode="&#x17a;" horiz-adv-x="505" 
d="M40 0v46l303 410h-285v74h400v-46l-306 -409h308v-75h-420zM215 625l76 130h114l-116 -130h-74z" />
    <glyph glyph-name="Zdotaccent" unicode="&#x17b;" horiz-adv-x="607" 
d="M40 0v50l400 570h-388v80h509v-51l-400 -569h406v-80h-527zM249 840c0 34 20 54 54 54s54 -20 54 -54s-20 -54 -54 -54s-54 20 -54 54z" />
    <glyph glyph-name="zdotaccent" unicode="&#x17c;" horiz-adv-x="505" 
d="M40 0v46l303 410h-285v74h400v-46l-306 -409h308v-75h-420zM200 690c0 33 19 52 52 52s52 -19 52 -52s-19 -52 -52 -52s-52 19 -52 52z" />
    <glyph glyph-name="Zcaron" unicode="&#x17d;" horiz-adv-x="607" 
d="M40 0v50l400 570h-388v80h509v-51l-400 -569h406v-80h-527zM253 770l-105 140h88l67 -88l68 88h87l-105 -140h-100z" />
    <glyph glyph-name="zcaron" unicode="&#x17e;" horiz-adv-x="505" 
d="M40 0v46l303 410h-285v74h400v-46l-306 -409h308v-75h-420zM204 625l-102 130h79l71 -79l71 79h79l-102 -130h-96z" />
    <glyph glyph-name="uni018F" unicode="&#x18f;" horiz-adv-x="699" 
d="M65 373h467c0 90 -10 252 -224 252c-70 0 -135 -9 -187 -28v84c58 16 116 28 196 28c216 0 312 -130 312 -362c0 -168 -61 -356 -286 -356c-169 0 -278 96 -278 338v44zM162 289c0 -149 56 -214 181 -214c88 0 181 45 189 216h-370v-2z" />
    <glyph glyph-name="florin" unicode="&#x192;" horiz-adv-x="550" 
d="M4 -210l18 81c11 -2 18 -3 26 -3c48 0 82 12 100 108l87 458h-94l15 76h93l15 76c19 102 66 172 183 172c20 0 37 -2 61 -6l-15 -76c-8 2 -24 6 -44 6c-65 0 -88 -23 -106 -121l-11 -51h130l-15 -76h-128l-85 -450c-23 -118 -59 -198 -189 -198c-16 0 -29 1 -41 4z" />
    <glyph glyph-name="uni01DD" unicode="&#x1dd;" horiz-adv-x="582" 
d="M60 294h378c0 114 -61 171 -177 171c-67 0 -123 -27 -162 -58v86c26 19 85 47 164 47c171 0 259 -80 259 -284c0 -173 -84 -267 -239 -267c-164 0 -223 101 -223 251v54zM284 64c97 0 154 50 154 158h-295c0 -108 43 -158 141 -158z" />
    <glyph glyph-name="Gcaron" unicode="&#x1e6;" horiz-adv-x="709" 
d="M401 271v79h238v-320c-32 -13 -105 -38 -208 -38c-244 0 -361 102 -361 358c0 247 125 358 356 358c77 0 131 -14 163 -31v-95c-38 22 -94 46 -169 46c-171 0 -256 -75 -256 -269c0 -220 91 -287 268 -287c47 0 90 6 123 15v184h-154zM355 770l-105 140h88l67 -88l68 88
h87l-105 -140h-100z" />
    <glyph glyph-name="gcaron" unicode="&#x1e7;" horiz-adv-x="627" 
d="M97 -149v97c29 -25 100 -60 179 -60c115 0 171 37 172 137v82c-26 -54 -83 -97 -171 -97c-144 0 -217 74 -217 254c0 201 75 276 233 276c76 0 134 -32 158 -80l5 70h75v-500c-1 -153 -95 -217 -245 -217c-91 0 -153 20 -189 38zM295 85c98 0 154 49 154 162v57
c0 124 -60 161 -153 161c-95 0 -153 -48 -153 -196c0 -138 64 -184 152 -184zM241 625l-102 130h79l71 -79l71 79h79l-102 -130h-96z" />
    <glyph glyph-name="Scommaaccent" unicode="&#x218;" horiz-adv-x="586" 
d="M426 185c0 187 -352 86 -352 331c0 125 67 192 242 192c71 0 132 -13 177 -36v-106c-40 37 -110 62 -180 62c-114 0 -146 -33 -146 -99c0 -180 354 -70 354 -338c0 -127 -73 -199 -247 -199c-81 0 -164 23 -209 58v118c45 -50 114 -96 208 -96c106 0 153 38 153 113z
M227 -209c30 4 62 20 62 53c-6 -1 -13 -2 -19 -2c-30 0 -55 15 -55 43c0 25 23 47 66 47c38 0 68 -21 68 -70s-30 -108 -117 -114z" />
    <glyph glyph-name="scommaaccent" unicode="&#x219;" horiz-adv-x="507" 
d="M419 509v-99c-39 33 -80 56 -145 56c-79 0 -112 -20 -112 -71c0 -122 280 -43 280 -238c0 -112 -67 -168 -195 -168c-83 0 -138 16 -182 42v103c41 -41 115 -70 182 -70c76 0 112 31 112 89c0 120 -280 45 -280 236c0 93 49 151 191 151c73 0 118 -16 149 -31zM191 -209
c30 4 62 20 62 53c-6 -1 -13 -2 -19 -2c-30 0 -55 15 -55 43c0 25 23 47 66 47c38 0 68 -21 68 -70s-30 -108 -117 -114z" />
    <glyph glyph-name="Tcommaaccent" unicode="&#x21a;" horiz-adv-x="582" 
d="M246 0v620h-221v80h532v-80h-221v-620h-90zM235 -209c30 4 62 20 62 53c-6 -1 -13 -2 -19 -2c-30 0 -55 15 -55 43c0 25 23 47 66 47c38 0 68 -21 68 -70s-30 -108 -117 -114z" />
    <glyph glyph-name="tcommaaccent" unicode="&#x21b;" horiz-adv-x="467" 
d="M138 164v292h-113v74h113v109l83 31v-140h191v-74h-191v-289c0 -77 29 -102 90 -102c59 0 92 14 121 32v-77c-22 -16 -74 -30 -127 -30c-111 0 -167 47 -167 174zM238 -209c30 4 62 20 62 53c-6 -1 -13 -2 -19 -2c-30 0 -55 15 -55 43c0 25 23 47 66 47
c38 0 68 -21 68 -70s-30 -108 -117 -114z" />
    <glyph glyph-name="uni0237" unicode="&#x237;" horiz-adv-x="303" 
d="M110 -8v538h83v-525c0 -125 -41 -191 -155 -191c-35 0 -64 7 -79 13v87c22 -14 51 -21 79 -21c51 0 72 28 72 99z" />
    <glyph glyph-name="uni0259" unicode="&#x259;" horiz-adv-x="582" 
d="M60 294h378c0 114 -61 171 -177 171c-67 0 -123 -27 -162 -58v86c26 19 85 47 164 47c171 0 259 -80 259 -284c0 -173 -84 -267 -239 -267c-164 0 -223 101 -223 251v54zM284 64c97 0 154 50 154 158h-295c0 -108 43 -158 141 -158z" />
    <glyph glyph-name="afii57929" unicode="&#x2bc;" horiz-adv-x="205" 
d="M45 510l46 190h94l-76 -190h-64z" />
    <glyph glyph-name="circumflex" unicode="&#x2c6;" 
d="M175 625l102 130h96l102 -130h-79l-71 79l-71 -79h-79z" />
    <glyph glyph-name="caron" unicode="&#x2c7;" 
d="M277 625l-102 130h79l71 -79l71 79h79l-102 -130h-96z" />
    <glyph glyph-name="breve" unicode="&#x2d8;" 
d="M170 744l50 16c15 -50 50 -82 105 -82s90 32 105 82l50 -16c-25 -82 -75 -124 -155 -124s-130 42 -155 124z" />
    <glyph glyph-name="dotaccent" unicode="&#x2d9;" 
d="M273 690c0 33 19 52 52 52s52 -19 52 -52s-19 -52 -52 -52s-52 19 -52 52z" />
    <glyph glyph-name="ring" unicode="&#x2da;" 
d="M235 690c0 56 43 90 90 90s90 -34 90 -90c0 -55 -43 -90 -90 -90s-90 35 -90 90zM281 690c0 -27 17 -44 44 -44s44 17 44 44s-17 44 -44 44s-44 -17 -44 -44z" />
    <glyph glyph-name="ogonek" unicode="&#x2db;" 
d="M495 -148v-56c-21 -10 -45 -18 -77 -18c-65 0 -102 33 -102 87c0 69 55 114 102 145l52 -5c-43 -32 -77 -70 -77 -127c0 -26 16 -42 47 -42c16 0 36 5 55 16z" />
    <glyph glyph-name="tilde" unicode="&#x2dc;" 
d="M231 634l-56 14c3 61 41 98 88 98c25 0 44 -12 70 -25c21 -10 37 -21 52 -21c14 0 30 11 34 46l56 -14c-5 -65 -49 -98 -88 -98c-20 0 -30 6 -69 25c-24 12 -33 22 -51 22c-14 0 -31 -12 -36 -47z" />
    <glyph glyph-name="hungarumlaut" unicode="&#x2dd;" 
d="M203 625l56 130h104l-86 -130h-74zM359 625l86 130h118l-126 -130h-78z" />
    <glyph glyph-name="acutecomb" unicode="&#x301;" horiz-adv-x="0" 
d="M-350 625l76 130h114l-116 -130h-74z" />
    <glyph glyph-name="uni0394" unicode="&#x394;" horiz-adv-x="634" 
d="M23 0l248 700h94l246 -700h-588zM140 84h350l-171 504h-2z" />
    <glyph glyph-name="uni0394" unicode="&#x2206;" horiz-adv-x="634" 
d="M23 0l248 700h94l246 -700h-588zM140 84h350l-171 504h-2z" />
    <glyph glyph-name="uni03A9" unicode="&#x3a9;" horiz-adv-x="810" 
d="M112 0v84h172v50c-77 23 -172 95 -172 269c0 198 108 306 293 306c186 0 293 -108 293 -306c0 -174 -94 -246 -171 -269v-50h171v-84h-253v194c135 22 158 141 158 209c0 91 -27 222 -198 222c-170 0 -198 -131 -198 -222c0 -68 24 -187 159 -209v-194h-254z" />
    <glyph glyph-name="uni03A9" unicode="&#x2126;" horiz-adv-x="810" 
d="M112 0v84h172v50c-77 23 -172 95 -172 269c0 198 108 306 293 306c186 0 293 -108 293 -306c0 -174 -94 -246 -171 -269v-50h171v-84h-253v194c135 22 158 141 158 209c0 91 -27 222 -198 222c-170 0 -198 -131 -198 -222c0 -68 24 -187 159 -209v-194h-254z" />
    <glyph glyph-name="pi" unicode="&#x3c0;" 
d="M146 0v452c-30 0 -58 -13 -76 -25l-30 73c23 13 64 30 142 30h401v-76h-71v-332c0 -35 9 -51 34 -51c6 0 17 1 25 3l3 -81c-14 -2 -38 -3 -49 -3c-66 0 -97 32 -97 121v343h-199v-454h-83z" />
    <glyph glyph-name="afii10023" unicode="&#x401;" horiz-adv-x="608" 
d="M112 0v700h426v-80h-336v-225h308v-80h-308v-235h336v-80h-426zM175 840c0 34 20 54 54 54s54 -20 54 -54s-20 -54 -54 -54s-54 20 -54 54zM367 840c0 34 20 54 54 54s54 -20 54 -54s-20 -54 -54 -54s-54 20 -54 54z" />
    <glyph glyph-name="afii10051" unicode="&#x402;" horiz-adv-x="774" 
d="M246 0v620h-221v80h532v-80h-221v-200c37 20 95 37 169 37c136 0 206 -59 206 -164v-131c0 -128 -59 -167 -146 -167c-33 0 -63 7 -77 13v87c11 -11 31 -20 62 -20c37 0 71 14 71 88v88c0 97 -45 127 -133 127c-59 0 -113 -10 -152 -32v-346h-90z" />
    <glyph glyph-name="afii10052" unicode="&#x403;" horiz-adv-x="557" 
d="M112 0v700h415v-80h-325v-620h-90zM291 770l84 140h116l-124 -140h-76z" />
    <glyph glyph-name="afii10053" unicode="&#x404;" horiz-adv-x="679" 
d="M421 73c95 0 160 36 189 56v-101c-34 -13 -89 -36 -189 -36c-233 0 -351 114 -351 374c0 240 122 342 333 342c92 0 184 -20 216 -33v-103c-30 21 -102 56 -206 56c-158 0 -238 -66 -248 -233h353v-80h-354c12 -178 104 -242 257 -242z" />
    <glyph glyph-name="afii10054" unicode="&#x405;" horiz-adv-x="586" 
d="M426 185c0 187 -352 86 -352 331c0 125 67 192 242 192c71 0 132 -13 177 -36v-106c-40 37 -110 62 -180 62c-114 0 -146 -33 -146 -99c0 -180 354 -70 354 -338c0 -127 -73 -199 -247 -199c-81 0 -164 23 -209 58v118c45 -50 114 -96 208 -96c106 0 153 38 153 113z" />
    <glyph glyph-name="afii10055" unicode="&#x406;" horiz-adv-x="324" 
d="M117 0v700h90v-700h-90z" />
    <glyph glyph-name="afii10056" unicode="&#x407;" horiz-adv-x="324" 
d="M117 0v700h90v-700h-90zM12 840c0 34 20 54 54 54s54 -20 54 -54s-20 -54 -54 -54s-54 20 -54 54zM204 840c0 34 20 54 54 54s54 -20 54 -54s-20 -54 -54 -54s-54 20 -54 54z" />
    <glyph glyph-name="afii10057" unicode="&#x408;" horiz-adv-x="393" 
d="M191 154v546h90v-549c0 -107 -49 -156 -170 -156c-33 0 -63 6 -96 18v87c12 -11 53 -25 94 -25c61 0 82 21 82 79z" />
    <glyph glyph-name="afii10058" unicode="&#x409;" horiz-adv-x="1037" 
d="M25 -2v97c10 -4 19 -5 27 -5c49 0 99 37 118 465l6 145h428v-258c39 4 68 5 100 5c198 0 273 -64 273 -216c0 -161 -72 -239 -298 -239c-39 0 -123 6 -165 13v615h-253l-3 -68c-22 -508 -98 -560 -191 -560c-17 0 -27 1 -42 6zM604 80c32 -5 68 -7 98 -7
c130 0 181 38 181 150c0 115 -41 144 -194 144c-30 0 -55 -1 -85 -4v-283z" />
    <glyph glyph-name="afii10059" unicode="&#x40a;" horiz-adv-x="1111" 
d="M112 0v700h90v-300h386v300h90v-258c39 4 68 5 100 5c198 0 273 -64 273 -216c0 -161 -72 -239 -298 -239c-39 0 -123 6 -165 13v315h-386v-320h-90zM678 80c32 -5 68 -7 98 -7c130 0 181 38 181 150c0 115 -41 144 -194 144c-30 0 -55 -1 -85 -4v-283z" />
    <glyph glyph-name="afii10060" unicode="&#x40b;" horiz-adv-x="784" 
d="M246 0v620h-221v80h532v-80h-221v-206c37 23 97 43 179 43c136 0 206 -59 206 -164v-293h-90v251c0 97 -45 127 -133 127c-64 0 -122 -12 -162 -38v-340h-90z" />
    <glyph glyph-name="afii10061" unicode="&#x40c;" horiz-adv-x="691" 
d="M112 0v700h90v-308h52l269 308h116l-307 -339l344 -361h-116l-305 322h-53v-322h-90zM287 770l84 140h116l-124 -140h-76z" />
    <glyph glyph-name="afii10062" unicode="&#x40e;" horiz-adv-x="654" 
d="M163 5v90c15 -10 33 -18 58 -18c27 0 61 13 83 64l-284 559h106l226 -449l193 449h94l-250 -569c-50 -113 -98 -139 -162 -139c-25 0 -46 5 -64 13zM164 910h78c5 -56 31 -80 87 -80s84 24 89 80h76c-10 -101 -72 -140 -165 -140s-155 39 -165 140z" />
    <glyph glyph-name="afii10145" unicode="&#x40f;" horiz-adv-x="757" 
d="M336 -130v130h-224v700h90v-620h353v620h90v-700h-224v-130h-85z" />
    <glyph glyph-name="afii10017" unicode="&#x410;" horiz-adv-x="679" 
d="M555 0l-70 187h-299l-69 -187h-92l267 700h91l271 -700h-99zM335 588l-119 -321h239z" />
    <glyph glyph-name="afii10018" unicode="&#x411;" horiz-adv-x="643" 
d="M112 2v698h419v-80h-329v-195c48 5 90 7 124 7c164 0 249 -50 249 -205c0 -152 -85 -235 -290 -235c-59 0 -131 3 -173 10zM202 79c26 -4 54 -6 89 -6c145 0 190 48 190 150c0 97 -38 129 -178 129c-30 0 -65 -2 -101 -7v-266z" />
    <glyph glyph-name="afii10019" unicode="&#x412;" horiz-adv-x="661" 
d="M112 4v693c43 4 140 9 197 9c191 0 251 -52 251 -176c0 -85 -35 -139 -110 -163c102 -12 146 -72 146 -163c0 -145 -76 -212 -274 -212c-86 0 -168 5 -210 12zM202 80c37 -6 87 -8 126 -8c136 0 177 39 177 131c0 90 -53 118 -161 118h-142v-241zM202 391h126
c107 0 142 43 142 114c0 100 -27 121 -157 121c-36 0 -78 0 -111 -3v-232z" />
    <glyph glyph-name="afii10020" unicode="&#x413;" horiz-adv-x="557" 
d="M112 0v700h415v-80h-325v-620h-90z" />
    <glyph glyph-name="afii10021" unicode="&#x414;" horiz-adv-x="718" 
d="M10 -130v210h74c40 97 80 260 83 475l2 145h424v-620h90v-210h-84v130h-505v-130h-84zM503 80v540h-247l-1 -68c-3 -185 -36 -359 -77 -472h325z" />
    <glyph glyph-name="afii10022" unicode="&#x415;" horiz-adv-x="608" 
d="M112 0v700h426v-80h-336v-225h308v-80h-308v-235h336v-80h-426z" />
    <glyph glyph-name="afii10024" unicode="&#x416;" horiz-adv-x="922" 
d="M150 700l196 -308h70v308h90v-308h68l202 308h96l-219 -334l254 -366h-110l-224 322h-67v-322h-90v322h-65l-226 -322h-110l255 356l-223 344h103z" />
    <glyph glyph-name="afii10025" unicode="&#x417;" horiz-adv-x="598" 
d="M165 318v75h100c106 0 138 56 138 121c0 82 -49 113 -153 113c-60 0 -118 -23 -164 -59v103c38 14 94 37 183 37c152 0 228 -49 228 -170c0 -88 -38 -140 -119 -164c102 -12 155 -64 155 -175c0 -134 -81 -207 -268 -207c-89 0 -159 21 -200 39v114
c35 -34 111 -72 210 -72c120 0 163 45 163 133c0 83 -51 112 -172 112h-101z" />
    <glyph glyph-name="afii10026" unicode="&#x418;" horiz-adv-x="789" 
d="M112 0v700h90v-440c0 -44 -5 -99 -10 -152c21 41 45 82 71 121l320 471h94v-700h-90v434c0 45 4 104 10 161c-24 -45 -49 -91 -70 -122l-321 -473h-94z" />
    <glyph glyph-name="afii10027" unicode="&#x419;" horiz-adv-x="789" 
d="M112 0v700h90v-440c0 -44 -5 -99 -10 -152c21 41 45 82 71 121l320 471h94v-700h-90v434c0 45 4 104 10 161c-24 -45 -49 -91 -70 -122l-321 -473h-94zM229 910h78c5 -56 31 -80 87 -80s84 24 89 80h76c-10 -101 -72 -140 -165 -140s-155 39 -165 140z" />
    <glyph glyph-name="afii10028" unicode="&#x41a;" horiz-adv-x="691" 
d="M112 0v700h90v-308h52l269 308h116l-307 -339l344 -361h-116l-305 322h-53v-322h-90z" />
    <glyph glyph-name="afii10029" unicode="&#x41b;" horiz-adv-x="716" 
d="M25 -2v97c10 -4 19 -5 27 -5c49 0 99 37 118 465l6 145h428v-700h-90v620h-253l-3 -68c-22 -508 -98 -560 -191 -560c-17 0 -27 1 -42 6z" />
    <glyph glyph-name="afii10030" unicode="&#x41c;" horiz-adv-x="905" 
d="M112 0v700h110l237 -465l235 465h99v-700h-90v420c0 44 3 100 7 155c-28 -61 -57 -124 -74 -157l-142 -278h-77l-142 277c-19 37 -50 103 -81 165c5 -57 8 -114 8 -160v-422h-90z" />
    <glyph glyph-name="afii10031" unicode="&#x41d;" horiz-adv-x="790" 
d="M112 0v700h90v-300h386v300h90v-700h-90v320h-386v-320h-90z" />
    <glyph glyph-name="afii10032" unicode="&#x41e;" horiz-adv-x="788" 
d="M70 350c0 245 109 360 335 360c212 0 313 -115 313 -360c0 -260 -123 -360 -325 -360c-185 0 -323 96 -323 360zM164 347c0 -207 96 -276 234 -276c141 0 226 69 226 276c0 214 -86 282 -231 282c-156 0 -229 -93 -229 -282z" />
    <glyph glyph-name="afii10033" unicode="&#x41f;" horiz-adv-x="779" 
d="M112 0v700h555v-700h-90v620h-375v-620h-90z" />
    <glyph glyph-name="afii10034" unicode="&#x420;" horiz-adv-x="641" 
d="M112 0v694c43 5 113 12 180 12c214 0 293 -74 293 -228c0 -177 -85 -257 -293 -257c-27 0 -61 1 -90 4v-225h-90zM202 304c29 -3 59 -4 90 -4c147 0 199 42 199 169c0 118 -51 157 -195 157c-31 0 -65 -1 -94 -4v-318z" />
    <glyph glyph-name="afii10035" unicode="&#x421;" horiz-adv-x="658" 
d="M579 677v-100c-36 25 -107 51 -190 51c-148 0 -225 -69 -225 -269c0 -219 88 -286 233 -286c94 0 171 37 201 54v-91c-32 -18 -107 -44 -202 -44c-221 0 -326 104 -326 358c0 253 109 358 322 358c90 0 152 -20 187 -31z" />
    <glyph glyph-name="afii10036" unicode="&#x422;" horiz-adv-x="582" 
d="M246 0v620h-221v80h532v-80h-221v-620h-90z" />
    <glyph glyph-name="afii10037" unicode="&#x423;" horiz-adv-x="654" 
d="M163 5v90c15 -10 33 -18 58 -18c27 0 61 13 83 64l-284 559h106l226 -449l193 449h94l-250 -569c-50 -113 -98 -139 -162 -139c-25 0 -46 5 -64 13z" />
    <glyph glyph-name="afii10038" unicode="&#x424;" horiz-adv-x="924" 
d="M417 -20v87h-28c-219 0 -324 96 -324 289c0 205 113 291 331 291h21v73h90v-73h24c220 0 328 -81 328 -291c0 -203 -125 -290 -331 -290h-21v-86h-90zM417 141v432h-19c-181 0 -239 -66 -239 -209c0 -167 83 -223 237 -223h21zM507 141h21c174 0 237 72 237 218
c0 165 -70 214 -240 214h-18v-432z" />
    <glyph glyph-name="afii10039" unicode="&#x425;" horiz-adv-x="656" 
d="M30 0l233 356l-220 344h106l177 -281l189 281h102l-234 -337l243 -363h-106l-198 298l-190 -298h-102z" />
    <glyph glyph-name="afii10040" unicode="&#x426;" horiz-adv-x="770" 
d="M112 0v700h90v-620h353v620h90v-620h90v-210h-84v130h-539z" />
    <glyph glyph-name="afii10041" unicode="&#x427;" horiz-adv-x="679" 
d="M477 0v287c-36 -24 -98 -44 -180 -44c-136 0 -217 59 -217 164v293h90v-251c0 -97 57 -127 145 -127c63 0 122 12 162 39v339h90v-700h-90z" />
    <glyph glyph-name="afii10042" unicode="&#x428;" horiz-adv-x="980" 
d="M112 0v700h90v-620h243v620h90v-620h243v620h90v-700h-756z" />
    <glyph glyph-name="afii10043" unicode="&#x429;" horiz-adv-x="993" 
d="M112 0v700h90v-620h243v620h90v-620h243v620h90v-620h90v-210h-84v130h-762z" />
    <glyph glyph-name="afii10044" unicode="&#x42a;" horiz-adv-x="705" 
d="M182 5v615h-157v80h247v-258c39 4 68 5 100 5c198 0 273 -64 273 -216c0 -161 -72 -239 -298 -239c-39 0 -123 6 -165 13zM272 80c32 -5 68 -7 98 -7c130 0 181 38 181 150c0 115 -41 144 -194 144c-30 0 -55 -1 -85 -4v-283z" />
    <glyph glyph-name="afii10045" unicode="&#x42b;" horiz-adv-x="870" 
d="M112 5v695h90v-258c39 4 68 5 100 5c194 0 263 -68 263 -216c0 -156 -66 -239 -288 -239c-49 0 -123 6 -165 13zM202 80c32 -5 68 -7 98 -7c128 0 171 40 171 150s-37 144 -184 144c-30 0 -55 -1 -85 -4v-283zM668 0v700h90v-700h-90z" />
    <glyph glyph-name="afii10046" unicode="&#x42c;" horiz-adv-x="635" 
d="M112 5v695h90v-258c39 4 68 5 100 5c198 0 273 -64 273 -216c0 -161 -72 -239 -298 -239c-39 0 -123 6 -165 13zM202 80c32 -5 68 -7 98 -7c130 0 181 38 181 150c0 115 -41 144 -194 144c-30 0 -55 -1 -85 -4v-283z" />
    <glyph glyph-name="afii10047" unicode="&#x42d;" horiz-adv-x="679" 
d="M258 73c153 0 245 64 257 242h-354v80h353c-10 167 -90 233 -248 233c-104 0 -176 -35 -206 -56v103c32 13 124 33 216 33c211 0 333 -102 333 -342c0 -260 -118 -374 -351 -374c-100 0 -155 23 -189 36v101c29 -20 94 -56 189 -56z" />
    <glyph glyph-name="afii10048" unicode="&#x42e;" horiz-adv-x="1052" 
d="M674 710c185 0 308 -85 308 -360c0 -289 -144 -360 -319 -360c-202 0 -299 105 -308 325h-153v-315h-90v700h90v-305h154c13 213 119 315 318 315zM445 347c0 -199 75 -277 223 -277c165 0 220 93 220 277c0 212 -77 283 -225 283c-128 0 -218 -63 -218 -283z" />
    <glyph glyph-name="afii10049" unicode="&#x42f;" horiz-adv-x="667" 
d="M40 0l200 278c-99 26 -148 87 -148 206c0 154 82 224 296 224c65 0 125 -6 167 -10v-698h-90v267h-132l-185 -267h-108zM465 347v277c-30 3 -59 4 -96 4c-152 0 -183 -51 -183 -145c0 -93 36 -136 177 -136h102z" />
    <glyph glyph-name="afii10065" unicode="&#x430;" horiz-adv-x="563" 
d="M397 0l-5 76c-27 -48 -84 -87 -160 -87c-106 0 -172 56 -172 158c0 117 59 162 211 162h119v50c0 85 -40 105 -129 105c-60 0 -125 -27 -161 -57v96c44 24 119 37 170 37c140 0 203 -43 203 -180v-360h-76zM145 160c0 -57 30 -91 103 -91c98 0 142 57 142 134v45h-116
c-101 0 -129 -24 -129 -88z" />
    <glyph glyph-name="afii10066" unicode="&#x431;" horiz-adv-x="623" 
d="M517 771v-97c-20 -11 -69 -16 -180 -23c-145 -9 -177 -67 -191 -228l3 -1c46 68 121 101 200 101c131 0 214 -54 214 -246c0 -203 -88 -287 -246 -287c-170 0 -252 101 -252 332c0 276 65 391 239 415c52 7 172 13 213 34zM319 69c105 0 156 59 156 198
c0 141 -55 180 -152 180c-102 0 -172 -58 -172 -161c0 -158 61 -217 168 -217z" />
    <glyph glyph-name="afii10067" unicode="&#x432;" horiz-adv-x="574" 
d="M96 -1v532c38 2 98 6 180 6c170 0 213 -49 213 -125c0 -68 -28 -107 -103 -128c89 -8 128 -38 128 -126c0 -99 -53 -166 -230 -166c-70 0 -149 4 -188 7zM179 69c34 -3 70 -5 108 -5c109 0 144 23 144 93c0 60 -39 80 -129 80h-123v-168zM179 308h123c62 0 103 25 103 80
c0 60 -33 77 -123 77c-51 0 -80 0 -103 -1v-156z" />
    <glyph glyph-name="afii10068" unicode="&#x433;" horiz-adv-x="461" 
d="M96 0v530h335v-78h-252v-452h-83z" />
    <glyph glyph-name="afii10069" unicode="&#x434;" horiz-adv-x="601" 
d="M20 -130v209h60c34 74 56 207 56 394v57h353v-451h80v-209h-78v130h-393v-130h-78zM406 79v373h-191l-1 -37c-3 -128 -16 -250 -52 -336h244z" />
    <glyph glyph-name="afii10070" unicode="&#x435;" horiz-adv-x="582" 
d="M522 235h-378c0 -114 61 -171 177 -171c67 0 123 27 162 58v-86c-26 -19 -85 -47 -164 -47c-171 0 -259 80 -259 284c0 173 84 267 239 267c164 0 223 -101 223 -251v-54zM298 465c-97 0 -154 -50 -154 -158h295c0 108 -43 158 -141 158z" />
    <glyph glyph-name="afii10072" unicode="&#x436;" horiz-adv-x="794" 
d="M126 0h-96l173 274l-158 256h95l132 -225h83v225h83v-225h84l137 225h89l-156 -252l172 -278h-98l-144 240h-84v-240h-83v240h-80z" />
    <glyph glyph-name="afii10073" unicode="&#x437;" horiz-adv-x="510" 
d="M60 21v102c35 -28 100 -59 185 -59c81 0 122 26 122 93c0 59 -34 77 -145 77h-69v66h80c76 0 108 29 108 87c0 54 -23 79 -108 79c-78 0 -122 -23 -163 -55v97c37 16 82 32 178 32c131 0 177 -49 177 -129c0 -74 -18 -116 -84 -135c65 -4 109 -42 109 -114
c0 -120 -64 -173 -229 -173c-48 0 -121 12 -161 32z" />
    <glyph glyph-name="afii10074" unicode="&#x438;" horiz-adv-x="630" 
d="M96 0v530h83v-258c0 -62 -3 -128 -6 -154l4 -2c25 43 54 83 83 123l201 291h73v-530h-83v214c0 77 3 164 6 201l-3 1c-17 -31 -48 -82 -78 -122l-206 -294h-74z" />
    <glyph glyph-name="afii10075" unicode="&#x439;" horiz-adv-x="630" 
d="M96 0v530h83v-258c0 -62 -3 -128 -6 -154l4 -2c25 43 54 83 83 123l201 291h73v-530h-83v214c0 77 3 164 6 201l-3 1c-17 -31 -48 -82 -78 -122l-206 -294h-74zM160 760h76c5 -50 24 -82 79 -82s76 32 81 82h74c-10 -98 -70 -140 -155 -140s-145 42 -155 140z" />
    <glyph glyph-name="afii10076" unicode="&#x43a;" horiz-adv-x="580" 
d="M459 0l-193 240h-87v-240h-83v530h83v-225h88l177 225h95l-202 -252l223 -278h-101z" />
    <glyph glyph-name="afii10077" unicode="&#x43b;" horiz-adv-x="606" 
d="M30 -6v99c9 -3 16 -4 26 -4c42 0 89 15 99 372l2 69h352v-530h-83v450h-194l-1 -32c-12 -376 -82 -429 -161 -429c-16 0 -25 0 -40 5z" />
    <glyph glyph-name="afii10078" unicode="&#x43c;" horiz-adv-x="736" 
d="M96 0v530h110l168 -315l161 315h105v-530h-83v279c0 59 7 119 12 179c-31 -67 -57 -130 -80 -170l-92 -160h-57l-87 159c-23 42 -53 104 -85 170c5 -60 11 -121 11 -182v-275h-83z" />
    <glyph glyph-name="afii10079" unicode="&#x43d;" horiz-adv-x="622" 
d="M96 0v530h83v-222h264v222h83v-530h-83v229h-264v-229h-83z" />
    <glyph glyph-name="afii10080" unicode="&#x43e;" horiz-adv-x="615" 
d="M60 267c0 183 106 273 258 273c144 0 237 -84 237 -276c0 -199 -110 -275 -248 -275c-158 0 -247 103 -247 278zM143 267v-3c0 -126 60 -200 171 -200c99 0 158 60 158 200v3c0 134 -59 199 -165 199c-105 0 -164 -69 -164 -199z" />
    <glyph glyph-name="afii10081" unicode="&#x43f;" horiz-adv-x="615" 
d="M96 0v530h422v-530h-83v452h-256v-452h-83z" />
    <glyph glyph-name="afii10082" unicode="&#x440;" horiz-adv-x="626" 
d="M95 -180v710h76l5 -93c28 69 88 103 185 103c137 0 205 -76 205 -264c0 -206 -75 -287 -219 -287c-90 0 -143 38 -169 82v-251h-83zM178 213c0 -91 55 -149 152 -149c111 0 153 56 153 207c0 145 -53 194 -152 194c-105 0 -153 -63 -153 -146v-106z" />
    <glyph glyph-name="afii10083" unicode="&#x441;" horiz-adv-x="524" 
d="M453 513v-94c-32 23 -86 42 -145 42c-97 0 -162 -45 -162 -193c0 -149 66 -199 182 -199c54 0 107 17 142 46v-90c-28 -22 -83 -36 -154 -36c-160 0 -256 73 -256 286c0 181 87 265 259 265c65 0 103 -11 134 -27z" />
    <glyph glyph-name="afii10084" unicode="&#x442;" horiz-adv-x="462" 
d="M190 0v452h-172v78h426v-78h-171v-452h-83z" />
    <glyph glyph-name="afii10085" unicode="&#x443;" horiz-adv-x="532" 
d="M154 -108c38 0 59 12 91 106l-215 532h96l162 -423l135 423h89l-183 -512c-70 -197 -123 -205 -174 -205c-21 0 -36 2 -47 8v83c14 -8 30 -12 46 -12z" />
    <glyph glyph-name="afii10086" unicode="&#x444;" horiz-adv-x="751" 
d="M417 -180h-83v178c-18 -6 -33 -7 -56 -7c-151 0 -218 74 -218 274c0 174 58 272 235 272c16 0 28 -1 39 -4v217h83v-219c19 5 32 7 56 7c151 0 218 -72 218 -273c0 -193 -71 -274 -231 -274c-12 0 -26 1 -43 4v-175zM288 66c30 0 36 0 46 2v391c-11 2 -18 4 -32 4
c-109 0 -159 -52 -159 -190c0 -144 39 -207 145 -207zM417 69c14 -2 18 -3 32 -3c111 0 159 49 159 191c0 163 -45 206 -154 206c-20 0 -26 -1 -37 -4v-390z" />
    <glyph glyph-name="afii10087" unicode="&#x445;" horiz-adv-x="527" 
d="M25 0l186 271l-174 259h102l127 -195l127 195h97l-176 -252l188 -278h-102l-139 215l-139 -215h-97z" />
    <glyph glyph-name="afii10088" unicode="&#x446;" horiz-adv-x="625" 
d="M96 0v530h83v-451h254v451h83v-451h77v-209h-78v130h-419z" />
    <glyph glyph-name="afii10089" unicode="&#x447;" horiz-adv-x="574" 
d="M65 350v180h82v-171c0 -71 41 -108 123 -108c45 0 91 9 125 24v255h83v-530h-83v205c-35 -19 -86 -29 -131 -29c-127 0 -199 54 -199 174z" />
    <glyph glyph-name="afii10090" unicode="&#x448;" horiz-adv-x="829" 
d="M96 0v530h83v-451h194v451h83v-451h194v451h83v-530h-637z" />
    <glyph glyph-name="afii10091" unicode="&#x449;" horiz-adv-x="842" 
d="M96 0v530h83v-451h194v451h83v-451h194v451h83v-451h77v-209h-78v130h-636z" />
    <glyph glyph-name="afii10092" unicode="&#x44a;" horiz-adv-x="603" 
d="M149 0v452h-131v78h214v-175c30 3 60 4 99 4c153 0 224 -42 224 -174c0 -128 -62 -192 -243 -192c-64 0 -126 3 -163 7zM232 72c27 -4 47 -4 95 -4c111 0 145 30 145 114c0 79 -30 109 -173 109c-21 0 -42 -2 -67 -5v-214z" />
    <glyph glyph-name="afii10093" unicode="&#x44b;" horiz-adv-x="735" 
d="M179 355c26 3 48 4 73 4c169 0 229 -55 229 -174c0 -106 -58 -192 -245 -192c-46 0 -94 2 -140 7v530h83v-175zM179 71c24 -2 36 -3 66 -3c119 0 153 46 153 114c0 63 -24 109 -162 109c-21 0 -36 -2 -57 -5v-215zM556 0v530h83v-530h-83z" />
    <glyph glyph-name="afii10094" unicode="&#x44c;" horiz-adv-x="550" 
d="M96 0v530h83v-175c30 3 60 4 99 4c153 0 224 -42 224 -174c0 -128 -62 -192 -243 -192c-64 0 -126 3 -163 7zM179 72c27 -4 47 -4 95 -4c111 0 145 30 145 114c0 79 -30 109 -173 109c-21 0 -42 -2 -67 -5v-214z" />
    <glyph glyph-name="afii10095" unicode="&#x44d;" horiz-adv-x="556" 
d="M236 64c112 0 169 45 177 171h-258v65h258c-9 121 -70 166 -187 166c-70 0 -114 -21 -159 -54v97c38 18 98 31 162 31c169 0 267 -77 267 -266c0 -193 -85 -285 -257 -285c-87 0 -139 19 -174 36v98c34 -26 98 -59 171 -59z" />
    <glyph glyph-name="afii10096" unicode="&#x44e;" horiz-adv-x="827" 
d="M531 540c151 0 235 -74 235 -275c0 -204 -87 -276 -244 -276c-164 0 -234 93 -240 246h-103v-235h-83v530h83v-220h105c12 151 85 230 247 230zM365 265c0 -141 54 -200 160 -200c96 0 155 43 155 197c0 158 -44 203 -160 203c-111 0 -155 -51 -155 -200z" />
    <glyph glyph-name="afii10097" unicode="&#x44f;" horiz-adv-x="581" 
d="M40 0l147 204c-85 14 -108 79 -108 157c0 113 57 174 239 174c58 0 129 -2 167 -7v-528h-83v190h-130l-136 -190h-96zM402 255v203c-25 3 -46 4 -91 4c-121 0 -149 -26 -149 -103c0 -80 36 -104 129 -104h111z" />
    <glyph glyph-name="afii10071" unicode="&#x451;" horiz-adv-x="582" 
d="M522 235h-378c0 -114 61 -171 177 -171c67 0 123 27 162 58v-86c-26 -19 -85 -47 -164 -47c-171 0 -259 80 -259 284c0 173 84 267 239 267c164 0 223 -101 223 -251v-54zM298 465c-97 0 -154 -50 -154 -158h295c0 108 -43 158 -141 158zM161 690c0 33 19 52 52 52
s52 -19 52 -52s-19 -52 -52 -52s-52 19 -52 52zM337 690c0 33 19 52 52 52s52 -19 52 -52s-19 -52 -52 -52s-52 19 -52 52z" />
    <glyph glyph-name="afii10099" unicode="&#x452;" horiz-adv-x="579" 
d="M401 591h-222v-183c25 59 83 92 173 92c125 0 181 -51 181 -182v-61c0 -171 -32 -340 -171 -429l-53 41c116 81 141 185 141 375v63c0 85 -36 119 -129 119c-94 0 -142 -42 -142 -147v-279h-83v591h-63v64h63v95h83v-95h222v-64z" />
    <glyph glyph-name="afii10100" unicode="&#x453;" horiz-adv-x="461" 
d="M96 0v530h335v-78h-252v-452h-83zM244 625l76 130h114l-116 -130h-74z" />
    <glyph glyph-name="afii10101" unicode="&#x454;" horiz-adv-x="556" 
d="M320 64c73 0 137 33 171 59v-98c-35 -17 -87 -36 -174 -36c-172 0 -257 92 -257 285c0 189 98 266 267 266c64 0 124 -13 162 -31v-97c-45 33 -89 54 -159 54c-117 0 -178 -45 -187 -166h258v-65h-258c8 -126 65 -171 177 -171z" />
    <glyph glyph-name="afii10102" unicode="&#x455;" horiz-adv-x="507" 
d="M419 509v-99c-39 33 -80 56 -145 56c-79 0 -112 -20 -112 -71c0 -122 280 -43 280 -238c0 -112 -67 -168 -195 -168c-83 0 -138 16 -182 42v103c41 -41 115 -70 182 -70c76 0 112 31 112 89c0 120 -280 45 -280 236c0 93 49 151 191 151c73 0 118 -16 149 -31z" />
    <glyph glyph-name="afii10103" unicode="&#x456;" horiz-adv-x="303" 
d="M110 0v530h83v-530h-83zM99 690c0 33 19 52 52 52s52 -19 52 -52s-19 -52 -52 -52s-52 19 -52 52z" />
    <glyph glyph-name="afii10104" unicode="&#x457;" horiz-adv-x="303" 
d="M110 0v530h83v-530h-83zM11 690c0 33 19 52 52 52s52 -19 52 -52s-19 -52 -52 -52s-52 19 -52 52zM187 690c0 33 19 52 52 52s52 -19 52 -52s-19 -52 -52 -52s-52 19 -52 52z" />
    <glyph glyph-name="afii10105" unicode="&#x458;" horiz-adv-x="303" 
d="M110 -8v538h83v-525c0 -125 -41 -191 -155 -191c-35 0 -64 7 -79 13v87c22 -14 51 -21 79 -21c51 0 72 28 72 99zM99 690c0 33 19 52 52 52s52 -19 52 -52s-19 -52 -52 -52s-52 19 -52 52z" />
    <glyph glyph-name="afii10106" unicode="&#x459;" horiz-adv-x="880" 
d="M30 -6v99c9 -3 16 -4 26 -4c42 0 89 15 99 371l2 70h352v-175c30 3 60 4 99 4c153 0 224 -42 224 -174c0 -128 -62 -192 -243 -192c-64 0 -126 3 -163 7v449h-194l-1 -32c-14 -375 -82 -428 -161 -428c-16 0 -25 0 -40 5zM509 72c27 -4 47 -4 95 -4c111 0 145 30 145 114
c0 79 -30 109 -173 109c-21 0 -42 -2 -67 -5v-214z" />
    <glyph glyph-name="afii10107" unicode="&#x45a;" horiz-adv-x="897" 
d="M96 0v530h83v-222h264v222h83v-175c30 3 60 4 99 4c153 0 224 -42 224 -174c0 -128 -62 -192 -243 -192c-64 0 -126 3 -163 7v229h-264v-229h-83zM526 72c27 -4 47 -4 95 -4c111 0 145 30 145 114c0 79 -30 109 -173 109c-21 0 -42 -2 -67 -5v-214z" />
    <glyph glyph-name="afii10108" unicode="&#x45b;" horiz-adv-x="622" 
d="M96 0v591h-63v64h63v95h83v-95h222v-64h-222v-183c25 59 83 92 173 92c125 0 181 -51 181 -182v-318h-83v307c0 85 -36 119 -129 119c-94 0 -142 -42 -142 -147v-279h-83z" />
    <glyph glyph-name="afii10109" unicode="&#x45c;" horiz-adv-x="580" 
d="M459 0l-193 240h-87v-240h-83v530h83v-225h88l177 225h95l-202 -252l223 -278h-101zM273 625l76 130h114l-116 -130h-74z" />
    <glyph glyph-name="afii10110" unicode="&#x45e;" horiz-adv-x="532" 
d="M154 -108c38 0 59 12 91 106l-215 532h96l162 -423l135 423h89l-183 -512c-70 -197 -123 -205 -174 -205c-21 0 -36 2 -47 8v83c14 -8 30 -12 46 -12zM116 760h76c5 -50 24 -82 79 -82s76 32 81 82h74c-10 -98 -70 -140 -155 -140s-145 42 -155 140z" />
    <glyph glyph-name="afii10193" unicode="&#x45f;" horiz-adv-x="612" 
d="M267 -130v130h-171v530h83v-451h254v451h83v-530h-171v-130h-78z" />
    <glyph glyph-name="afii10050" unicode="&#x490;" horiz-adv-x="557" 
d="M112 0v700h330v130h85v-210h-325v-620h-90z" />
    <glyph glyph-name="afii10098" unicode="&#x491;" horiz-adv-x="461" 
d="M96 0v530h257v130h78v-208h-252v-452h-83z" />
    <glyph glyph-name="uni0492" unicode="&#x492;" horiz-adv-x="587" 
d="M46 331v84h96v285h415v-80h-325v-205h182v-84h-182v-331h-90v331h-96z" />
    <glyph glyph-name="uni0493" unicode="&#x493;" horiz-adv-x="471" 
d="M106 0v233h-71v74h71v223h335v-78h-252v-145h147v-74h-147v-233h-83z" />
    <glyph glyph-name="uni049A" unicode="&#x49a;" horiz-adv-x="691" 
d="M112 0v700h90v-308h52l269 308h116l-307 -339l268 -281h78v-210h-84v130h-34l-305 322h-53v-322h-90z" />
    <glyph glyph-name="uni049B" unicode="&#x49b;" horiz-adv-x="580" 
d="M459 0l-193 240h-87v-240h-83v530h83v-225h88l177 225h95l-202 -252l159 -199h64v-209h-77v130h-24z" />
    <glyph glyph-name="uni04A2" unicode="&#x4a2;" horiz-adv-x="803" 
d="M112 0v700h90v-300h386v300h90v-620h90v-210h-84v130h-96v320h-386v-320h-90z" />
    <glyph glyph-name="uni04A3" unicode="&#x4a3;" horiz-adv-x="635" 
d="M96 0v530h83v-222h264v222h83v-451h77v-209h-77v130h-83v229h-264v-229h-83z" />
    <glyph glyph-name="uni04AE" unicode="&#x4ae;" horiz-adv-x="623" 
d="M267 0v267l-247 433h99l197 -347l190 347h96l-245 -432v-268h-90z" />
    <glyph glyph-name="uni04AF" unicode="&#x4af;" horiz-adv-x="514" 
d="M215 -6l-185 536h90l139 -413l138 413h87l-185 -535v-205h-84v204z" />
    <glyph glyph-name="uni04B0" unicode="&#x4b0;" horiz-adv-x="623" 
d="M110 227v78h135l-225 395h99l197 -347l190 347h96l-224 -395h135v-78h-156v-227h-90v227h-157z" />
    <glyph glyph-name="uni04B1" unicode="&#x4b1;" horiz-adv-x="514" 
d="M429 -74h-130v-136h-84v136h-130v74h128l-183 530h90l139 -413l138 413h87l-184 -530h129v-74z" />
    <glyph glyph-name="uni04BA" unicode="&#x4ba;" horiz-adv-x="656" 
d="M117 0v700h90v-286c36 23 98 43 180 43c136 0 206 -59 206 -164v-293h-90v251c0 97 -45 127 -133 127c-65 0 -123 -12 -163 -39v-339h-90z" />
    <glyph glyph-name="uni04BB" unicode="&#x4bb;" horiz-adv-x="622" 
d="M96 0v750h83v-302c25 59 83 92 173 92c125 0 181 -51 181 -182v-358h-83v347c0 85 -36 119 -129 119c-94 0 -142 -42 -142 -147v-319h-83z" />
    <glyph glyph-name="uni04C0" unicode="&#x4c0;" horiz-adv-x="324" 
d="M117 0v700h90v-700h-90z" />
    <glyph glyph-name="uni04CF" unicode="&#x4cf;" horiz-adv-x="275" 
d="M179 0h-83v750h83v-750z" />
    <glyph glyph-name="uni04D8" unicode="&#x4d8;" horiz-adv-x="699" 
d="M65 373h467c0 90 -10 252 -224 252c-70 0 -135 -9 -187 -28v84c58 16 116 28 196 28c216 0 312 -130 312 -362c0 -168 -61 -356 -286 -356c-169 0 -278 96 -278 338v44zM162 289c0 -149 56 -214 181 -214c88 0 181 45 189 216h-370v-2z" />
    <glyph glyph-name="afii10846" unicode="&#x4d9;" horiz-adv-x="582" 
d="M60 294h378c0 114 -61 171 -177 171c-67 0 -123 -27 -162 -58v86c26 19 85 47 164 47c171 0 259 -80 259 -284c0 -173 -84 -267 -239 -267c-164 0 -223 101 -223 251v54zM284 64c97 0 154 50 154 158h-295c0 -108 43 -158 141 -158z" />
    <glyph glyph-name="uni04E8" unicode="&#x4e8;" horiz-adv-x="788" 
d="M70 350c0 245 109 360 335 360c212 0 313 -115 313 -360c0 -260 -123 -360 -325 -360c-185 0 -323 96 -323 360zM398 71c132 0 215 61 225 241h-458c10 -180 103 -241 233 -241zM393 629c-142 0 -216 -77 -228 -233h457c-12 175 -96 233 -229 233z" />
    <glyph glyph-name="uni04E9" unicode="&#x4e9;" horiz-adv-x="615" 
d="M60 267c0 183 106 273 258 273c144 0 237 -84 237 -276c0 -199 -110 -275 -248 -275c-158 0 -247 103 -247 278zM314 64c90 0 147 50 156 166h-326c10 -105 69 -166 170 -166zM307 466c-95 0 -152 -56 -163 -162h326c-10 109 -68 162 -163 162z" />
    <glyph glyph-name="uni1E9E" unicode="&#x1e9e;" horiz-adv-x="719" 
d="M112 0v480c0 163 101 229 236 229c70 0 156 -8 237 -87l-148 -205v-2c168 -12 207 -105 207 -199c0 -130 -84 -225 -247 -225c-25 0 -49 2 -72 7v85c28 -7 52 -8 68 -8c98 0 156 33 156 141c0 91 -48 132 -188 132h-27v48l139 200c-26 17 -69 29 -124 29
c-108 0 -147 -66 -147 -145v-480h-90z" />
    <glyph glyph-name="figuredash" unicode="&#x2012;" horiz-adv-x="707" 
d="M120 312v84h467v-84h-467z" />
    <glyph glyph-name="endash" unicode="&#x2013;" horiz-adv-x="707" 
d="M120 253v84h467v-84h-467z" />
    <glyph glyph-name="emdash" unicode="&#x2014;" horiz-adv-x="877" 
d="M120 253v84h637v-84h-637z" />
    <glyph glyph-name="quoteleft" unicode="&#x2018;" horiz-adv-x="364" 
d="M304 680c-67 -7 -110 -45 -120 -93c44 0 68 -17 68 -63c0 -36 -21 -65 -65 -65c-51 0 -77 34 -77 93c0 115 85 175 145 187z" />
    <glyph glyph-name="quoteright" unicode="&#x2019;" horiz-adv-x="364" 
d="M60 518c67 7 110 45 120 93c-44 0 -68 17 -68 63c0 36 21 65 65 65c51 0 77 -34 77 -93c0 -115 -85 -175 -145 -187z" />
    <glyph glyph-name="quotesinglbase" unicode="&#x201a;" horiz-adv-x="364" 
d="M60 -102c67 7 110 45 120 93c-44 0 -68 17 -68 63c0 36 21 65 65 65c51 0 77 -34 77 -93c0 -115 -85 -175 -145 -187z" />
    <glyph glyph-name="quotedblleft" unicode="&#x201c;" horiz-adv-x="572" 
d="M304 680c-67 -7 -110 -45 -120 -93c44 0 68 -17 68 -63c0 -36 -21 -65 -65 -65c-51 0 -77 34 -77 93c0 115 85 175 145 187zM512 680c-67 -7 -110 -45 -120 -93c44 0 68 -17 68 -63c0 -36 -21 -65 -65 -65c-51 0 -77 34 -77 93c0 115 85 175 145 187z" />
    <glyph glyph-name="quotedblright" unicode="&#x201d;" horiz-adv-x="572" 
d="M60 518c67 7 110 45 120 93c-44 0 -68 17 -68 63c0 36 21 65 65 65c51 0 77 -34 77 -93c0 -115 -85 -175 -145 -187zM268 518c67 7 110 45 120 93c-44 0 -68 17 -68 63c0 36 21 65 65 65c51 0 77 -34 77 -93c0 -115 -85 -175 -145 -187z" />
    <glyph glyph-name="quotedblbase" unicode="&#x201e;" horiz-adv-x="571" 
d="M267 -102c67 7 110 45 120 93c-44 0 -68 17 -68 63c0 36 21 65 65 65c51 0 77 -34 77 -93c0 -115 -85 -175 -145 -187zM60 -102c67 7 110 45 120 93c-44 0 -68 17 -68 63c0 36 21 65 65 65c51 0 77 -34 77 -93c0 -115 -85 -175 -145 -187z" />
    <glyph glyph-name="dagger" unicode="&#x2020;" horiz-adv-x="510" 
d="M211 0v457h-155v73h155v170h89v-170h155v-73h-155v-457h-89z" />
    <glyph glyph-name="daggerdbl" unicode="&#x2021;" horiz-adv-x="510" 
d="M56 170v74h155v213h-155v73h155v170h89v-170h155v-73h-155v-213h155v-74h-155v-170h-89v170h-155z" />
    <glyph glyph-name="bullet" unicode="&#x2022;" horiz-adv-x="400" 
d="M100 356c0 55 23 100 100 100c78 0 101 -45 101 -100c0 -53 -23 -98 -101 -98c-77 0 -100 45 -100 98z" />
    <glyph glyph-name="ellipsis" unicode="&#x2026;" horiz-adv-x="1033" 
d="M110 54c0 36 15 65 65 65c51 0 66 -29 66 -65c0 -35 -15 -64 -66 -64c-50 0 -65 29 -65 64zM451 54c0 36 15 65 65 65c51 0 66 -29 66 -65c0 -35 -15 -64 -66 -64c-50 0 -65 29 -65 64zM792 54c0 36 15 65 65 65c51 0 66 -29 66 -65c0 -35 -15 -64 -66 -64
c-50 0 -65 29 -65 64z" />
    <glyph glyph-name="perthousand" unicode="&#x2030;" horiz-adv-x="1251" 
d="M143 0l507 700h87l-504 -700h-90zM470 147c0 103 67 163 178 163c97 0 163 -55 163 -163c0 -105 -69 -165 -177 -165c-104 0 -164 60 -164 165zM542 147c0 -57 37 -93 101 -93c61 0 97 31 97 93c0 58 -32 91 -99 91s-99 -33 -99 -91zM860 147c0 103 67 163 178 163
c97 0 163 -55 163 -163c0 -105 -69 -165 -177 -165c-104 0 -164 60 -164 165zM932 147c0 -57 37 -93 101 -93c61 0 97 31 97 93c0 58 -32 91 -99 91s-99 -33 -99 -91zM60 547c0 103 67 163 178 163c97 0 163 -55 163 -163c0 -105 -69 -165 -177 -165
c-104 0 -164 60 -164 165zM132 547c0 -57 37 -93 101 -93c61 0 97 31 97 93c0 58 -32 91 -99 91s-99 -33 -99 -91z" />
    <glyph glyph-name="guilsinglleft" unicode="&#x2039;" horiz-adv-x="371" 
d="M198 50l-138 218l141 222h89l-140 -220l141 -220h-93z" />
    <glyph glyph-name="guilsinglright" unicode="&#x203a;" horiz-adv-x="371" 
d="M80 50l140 220l-140 220h93l138 -218l-142 -222h-89z" />
    <glyph glyph-name="fraction" unicode="&#x2044;" horiz-adv-x="334" 
d="M-167 0l577 700h90l-574 -700h-93z" />
    <glyph glyph-name="uni2070" unicode="&#x2070;" horiz-adv-x="450" 
d="M37 592c0 159 69 217 187 217c128 0 189 -58 189 -217c0 -163 -69 -218 -188 -218c-123 0 -188 61 -188 218zM119 592c0 -115 41 -152 109 -152c66 0 101 39 101 152c0 116 -36 151 -105 151c-63 0 -105 -35 -105 -151z" />
    <glyph glyph-name="uni2074" unicode="&#x2074;" horiz-adv-x="450" 
d="M18 469v64l248 267h95v-263h55v-68h-55v-87h-75v87h-268zM286 537v183h-1l-171 -183h172z" />
    <glyph glyph-name="uni2075" unicode="&#x2075;" horiz-adv-x="450" 
d="M70 584l11 216h299v-69h-239l-4 -82c28 1 58 3 106 3c100 0 154 -45 154 -130c0 -93 -66 -148 -176 -148c-46 0 -101 7 -148 18v71c64 -19 97 -20 146 -20c65 0 96 29 96 74s-22 70 -107 70c-52 0 -81 -1 -138 -3z" />
    <glyph glyph-name="uni2076" unicode="&#x2076;" horiz-adv-x="450" 
d="M225 374c-155 0 -189 96 -189 203c0 131 50 232 206 232c41 0 82 -4 122 -13v-69c-43 12 -86 13 -119 13c-71 0 -137 -32 -136 -134c31 26 81 49 134 49c94 0 164 -34 164 -136c0 -93 -77 -145 -182 -145zM115 546c0 -68 38 -108 112 -108c53 0 99 27 99 80
c0 47 -39 71 -94 71c-38 0 -83 -13 -117 -43z" />
    <glyph glyph-name="uni2077" unicode="&#x2077;" horiz-adv-x="450" 
d="M121 382l196 349h-272v69h360v-54l-201 -364h-83z" />
    <glyph glyph-name="uni2078" unicode="&#x2078;" horiz-adv-x="450" 
d="M225 374c-110 0 -188 38 -188 124c0 54 33 90 92 103c-46 12 -78 49 -78 94c0 75 66 114 174 114s174 -39 174 -114c0 -45 -32 -82 -78 -94c59 -13 92 -49 92 -103c0 -86 -78 -124 -188 -124zM225 441c80 0 111 29 111 66c0 31 -19 61 -111 61s-111 -30 -111 -61
c0 -37 31 -66 111 -66zM225 742c-78 0 -102 -23 -102 -56c0 -31 24 -55 102 -55s102 24 102 55c0 33 -24 56 -102 56z" />
    <glyph glyph-name="uni2079" unicode="&#x2079;" horiz-adv-x="450" 
d="M217 809c164 0 190 -96 190 -203c0 -131 -48 -232 -196 -232c-47 0 -95 6 -142 16v71c51 -14 100 -18 139 -18c66 0 128 32 127 134c-30 -35 -87 -57 -138 -57c-79 0 -151 41 -151 143c0 93 73 146 171 146zM331 642c-3 52 -33 103 -116 103c-48 0 -88 -27 -88 -80
s34 -81 83 -81c54 0 93 26 121 58z" />
    <glyph glyph-name="uni2080" unicode="&#x2080;" horiz-adv-x="450" 
d="M37 110c0 159 69 217 187 217c128 0 189 -58 189 -217c0 -163 -69 -218 -188 -218c-123 0 -188 61 -188 218zM119 110c0 -115 41 -152 109 -152c66 0 101 39 101 152c0 116 -36 151 -105 151c-63 0 -105 -35 -105 -151z" />
    <glyph glyph-name="uni2081" unicode="&#x2081;" horiz-adv-x="450" 
d="M221 -100v326l-122 -56l-32 63l173 85h64v-418h-83z" />
    <glyph glyph-name="uni2082" unicode="&#x2082;" horiz-adv-x="450" 
d="M53 -100v75l120 85c87 62 119 92 119 135c0 41 -33 63 -93 63c-46 0 -96 -7 -129 -27v73c44 17 85 23 137 23c94 0 170 -29 170 -116c0 -68 -47 -124 -159 -195l-69 -44v-1h234v-71h-330z" />
    <glyph glyph-name="uni2083" unicode="&#x2083;" horiz-adv-x="450" 
d="M136 88v59h79c62 0 91 14 91 56c0 38 -27 55 -98 55c-46 0 -98 -6 -132 -20v69c39 17 104 20 156 20c99 0 155 -41 155 -107c0 -59 -38 -82 -101 -99v-2c94 -13 111 -59 111 -100c0 -93 -93 -127 -182 -127c-46 0 -101 2 -145 19v71c35 -17 85 -21 137 -21
c74 0 107 19 107 59c0 52 -31 68 -92 68h-86z" />
    <glyph glyph-name="uni2084" unicode="&#x2084;" horiz-adv-x="450" 
d="M18 -13v64l248 267h95v-263h55v-68h-55v-87h-75v87h-268zM286 55v183h-1l-171 -183h172z" />
    <glyph glyph-name="uni2085" unicode="&#x2085;" horiz-adv-x="450" 
d="M70 102l11 216h299v-69h-239l-4 -82c28 1 58 3 106 3c100 0 154 -45 154 -130c0 -93 -66 -148 -176 -148c-46 0 -101 7 -148 18v71c64 -19 97 -20 146 -20c65 0 96 29 96 74s-22 70 -107 70c-52 0 -81 -1 -138 -3z" />
    <glyph glyph-name="uni2086" unicode="&#x2086;" horiz-adv-x="450" 
d="M225 -108c-155 0 -189 96 -189 203c0 131 50 232 206 232c41 0 82 -4 122 -13v-69c-43 12 -86 13 -119 13c-71 0 -137 -32 -136 -134c31 26 81 49 134 49c94 0 164 -34 164 -136c0 -93 -77 -145 -182 -145zM115 64c0 -68 38 -108 112 -108c53 0 99 27 99 80
c0 47 -39 71 -94 71c-38 0 -83 -13 -117 -43z" />
    <glyph glyph-name="uni2087" unicode="&#x2087;" horiz-adv-x="450" 
d="M121 -100l196 349h-272v69h360v-54l-201 -364h-83z" />
    <glyph glyph-name="uni2088" unicode="&#x2088;" horiz-adv-x="450" 
d="M225 -108c-110 0 -188 38 -188 124c0 54 33 90 92 103c-46 12 -78 49 -78 94c0 75 66 114 174 114s174 -39 174 -114c0 -45 -32 -82 -78 -94c59 -13 92 -49 92 -103c0 -86 -78 -124 -188 -124zM225 -41c80 0 111 29 111 66c0 31 -19 61 -111 61s-111 -30 -111 -61
c0 -37 31 -66 111 -66zM225 260c-78 0 -102 -23 -102 -56c0 -31 24 -55 102 -55s102 24 102 55c0 33 -24 56 -102 56z" />
    <glyph glyph-name="uni2089" unicode="&#x2089;" horiz-adv-x="450" 
d="M217 327c164 0 190 -96 190 -203c0 -131 -48 -232 -196 -232c-47 0 -95 6 -142 16v71c51 -14 100 -18 139 -18c66 0 128 32 127 134c-30 -35 -87 -57 -138 -57c-79 0 -151 41 -151 143c0 93 73 146 171 146zM331 160c-3 52 -33 103 -116 103c-48 0 -88 -27 -88 -80
s34 -81 83 -81c54 0 93 26 121 58z" />
    <glyph glyph-name="Euro" unicode="&#x20ac;" horiz-adv-x="580" 
d="M375 708c59 0 100 -10 129 -21v-90c-30 13 -68 31 -131 31c-104 0 -157 -47 -183 -144h270l-16 -78h-267c-1 -15 -2 -31 -2 -47c0 -22 0 -42 2 -61h248l-14 -78h-220c35 -101 101 -147 189 -147c58 0 117 18 144 34v-81c-29 -17 -88 -34 -146 -34
c-140 0 -238 79 -273 228h-75l15 78h48c-1 17 -2 34 -2 52c0 19 2 38 3 56h-59l15 78h57c37 146 125 224 268 224z" />
    <glyph glyph-name="uni20B4" unicode="&#x20b4;" 
d="M110 260v58h114c14 15 63 58 78 74h-192v58h250c41 33 65 75 65 107c0 58 -54 68 -89 68c-68 0 -89 -4 -157 -24v84c58 18 123 24 158 24c165 0 182 -82 182 -138c0 -47 -26 -91 -54 -121h75v-58h-125c-15 -16 -67 -59 -82 -74h207v-58h-258c-37 -31 -50 -70 -50 -101
c0 -56 40 -84 129 -84c39 0 98 4 142 25v-85c-53 -18 -118 -24 -155 -24c-160 0 -211 82 -211 157c0 50 20 85 41 112h-68z" />
    <glyph glyph-name="uni20B8" unicode="&#x20b8;" 
d="M281 0v499h-194v74h477v-74h-193v-499h-90zM87 626v74h477v-74h-477z" />
    <glyph glyph-name="uni20BD" unicode="&#x20bd;" horiz-adv-x="590" 
d="M293 291h-77v-87h197v-79h-197v-125h-86v125h-81v79h81v87h-81v79h81v325c41 4 115 11 179 11c127 0 228 -55 228 -190c0 -148 -77 -225 -244 -225zM302 620c-34 0 -61 -2 -86 -4v-246h68c120 0 163 48 163 129c0 73 -27 121 -145 121z" />
    <glyph glyph-name="afii61352" unicode="&#x2116;" horiz-adv-x="1061" 
d="M100 0v700h88l293 -454c22 -35 36 -62 51 -90c-2 32 -3 64 -3 105v439h90v-700h-90l-272 428c-23 36 -49 86 -73 131c3 -39 6 -74 6 -121v-438h-90zM723 229v84h267v-84h-267zM700 547c0 113 63 163 149 163c85 0 153 -45 153 -163c0 -120 -64 -165 -147 -165
c-92 0 -155 45 -155 165zM772 547c0 -72 36 -93 82 -93c41 0 77 16 77 93c0 68 -33 91 -79 91c-48 0 -80 -23 -80 -91z" />
    <glyph glyph-name="uni2120" unicode="&#x2120;" horiz-adv-x="841" 
d="M398 376v324h72l102 -181h1l101 181h72v-324h-61v234l-93 -159h-40l-92 159h-1v-234h-61zM314 691v-62c-25 15 -58 26 -100 26c-61 0 -81 -13 -81 -38c0 -71 199 -19 199 -144c0 -69 -39 -105 -148 -105c-36 0 -82 6 -114 19v66c25 -19 69 -31 114 -31c61 0 84 14 84 48
c0 70 -198 22 -198 146c0 55 31 91 144 91c38 0 78 -8 100 -16z" />
    <glyph glyph-name="trademark" unicode="&#x2122;" horiz-adv-x="806" 
d="M363 376v324h72l102 -181h1l101 181h72v-324h-61v234l-93 -159h-40l-92 159h-1v-234h-61zM140 376v267h-104v57h274v-57h-105v-267h-65z" />
    <glyph glyph-name="onethird" unicode="&#x2153;" horiz-adv-x="950" 
d="M108 0l577 700h90l-574 -700h-93zM654 190v59h79c62 0 91 14 91 56c0 38 -27 55 -98 55c-46 0 -98 -6 -132 -20v69c39 17 104 20 156 20c99 0 155 -41 155 -107c0 -59 -38 -82 -101 -99v-2c94 -13 111 -59 111 -100c0 -93 -93 -127 -182 -127c-46 0 -101 2 -145 19v71
c35 -17 85 -21 137 -21c74 0 107 19 107 59c0 52 -31 68 -92 68h-86zM199 282v326l-122 -56l-32 63l173 85h64v-418h-83z" />
    <glyph glyph-name="twothirds" unicode="&#x2154;" horiz-adv-x="950" 
d="M157 0l577 700h90l-574 -700h-93zM675 190v59h79c62 0 91 14 91 56c0 38 -27 55 -98 55c-46 0 -98 -6 -132 -20v69c39 17 104 20 156 20c99 0 155 -41 155 -107c0 -59 -38 -82 -101 -99v-2c94 -13 111 -59 111 -100c0 -93 -93 -127 -182 -127c-46 0 -101 2 -145 19v71
c35 -17 85 -21 137 -21c74 0 107 19 107 59c0 52 -31 68 -92 68h-86zM31 282v75l120 85c87 62 119 92 119 135c0 41 -33 63 -93 63c-46 0 -96 -7 -129 -27v73c44 17 85 23 137 23c94 0 170 -29 170 -116c0 -68 -47 -124 -159 -195l-69 -44v-1h234v-71h-330z" />
    <glyph glyph-name="oneeighth" unicode="&#x215b;" horiz-adv-x="950" 
d="M101 0l577 700h90l-574 -700h-93zM733 -6c-110 0 -188 38 -188 124c0 54 33 90 92 103c-46 12 -78 49 -78 94c0 75 66 114 174 114s174 -39 174 -114c0 -45 -32 -82 -78 -94c59 -13 92 -49 92 -103c0 -86 -78 -124 -188 -124zM733 61c80 0 111 29 111 66
c0 31 -19 61 -111 61s-111 -30 -111 -61c0 -37 31 -66 111 -66zM733 362c-78 0 -102 -23 -102 -56c0 -31 24 -55 102 -55s102 24 102 55c0 33 -24 56 -102 56zM195 282v326l-122 -56l-32 63l173 85h64v-418h-83z" />
    <glyph glyph-name="threeeighths" unicode="&#x215c;" horiz-adv-x="950" 
d="M124 0l577 700h90l-574 -700h-93zM735 -6c-110 0 -188 38 -188 124c0 54 33 90 92 103c-46 12 -78 49 -78 94c0 75 66 114 174 114s174 -39 174 -114c0 -45 -32 -82 -78 -94c59 -13 92 -49 92 -103c0 -86 -78 -124 -188 -124zM735 61c80 0 111 29 111 66
c0 31 -19 61 -111 61s-111 -30 -111 -61c0 -37 31 -66 111 -66zM735 362c-78 0 -102 -23 -102 -56c0 -31 24 -55 102 -55s102 24 102 55c0 33 -24 56 -102 56zM105 470v59h79c62 0 91 14 91 56c0 38 -27 55 -98 55c-46 0 -98 -6 -132 -20v69c39 17 104 20 156 20
c99 0 155 -41 155 -107c0 -59 -38 -82 -101 -99v-2c94 -13 111 -59 111 -100c0 -93 -93 -127 -182 -127c-46 0 -101 2 -145 19v71c35 -17 85 -21 137 -21c74 0 107 19 107 59c0 52 -31 68 -92 68h-86z" />
    <glyph glyph-name="fiveeighths" unicode="&#x215d;" horiz-adv-x="950" 
d="M135 0l577 700h90l-574 -700h-93zM745 -6c-110 0 -188 38 -188 124c0 54 33 90 92 103c-46 12 -78 49 -78 94c0 75 66 114 174 114s174 -39 174 -114c0 -45 -32 -82 -78 -94c59 -13 92 -49 92 -103c0 -86 -78 -124 -188 -124zM745 61c80 0 111 29 111 66
c0 31 -19 61 -111 61s-111 -30 -111 -61c0 -37 31 -66 111 -66zM745 362c-78 0 -102 -23 -102 -56c0 -31 24 -55 102 -55s102 24 102 55c0 33 -24 56 -102 56zM55 484l11 216h299v-69h-239l-4 -82c28 1 58 3 106 3c100 0 154 -45 154 -130c0 -93 -66 -148 -176 -148
c-46 0 -101 7 -148 18v71c64 -19 97 -20 146 -20c65 0 96 29 96 74s-22 70 -107 70c-52 0 -81 -1 -138 -3z" />
    <glyph glyph-name="seveneighths" unicode="&#x215e;" horiz-adv-x="950" 
d="M88 0l577 700h90l-574 -700h-93zM738 -6c-110 0 -188 38 -188 124c0 54 33 90 92 103c-46 12 -78 49 -78 94c0 75 66 114 174 114s174 -39 174 -114c0 -45 -32 -82 -78 -94c59 -13 92 -49 92 -103c0 -86 -78 -124 -188 -124zM738 61c80 0 111 29 111 66
c0 31 -19 61 -111 61s-111 -30 -111 -61c0 -37 31 -66 111 -66zM738 362c-78 0 -102 -23 -102 -56c0 -31 24 -55 102 -55s102 24 102 55c0 33 -24 56 -102 56zM126 282l196 349h-272v69h360v-54l-201 -364h-83z" />
    <glyph glyph-name="minus" unicode="&#x2212;" horiz-adv-x="551" 
d="M63 284v79h425v-79h-425z" />
    <glyph glyph-name="infinity" unicode="&#x221e;" 
d="M371 248l-45 48l-47 -50c-31 -36 -69 -46 -105 -46c-92 0 -129 77 -129 147c0 67 37 150 129 150c33 0 73 -11 106 -48l46 -51l49 57c27 31 66 42 102 42c91 0 129 -76 129 -150c0 -66 -37 -147 -129 -147c-33 0 -73 10 -106 48zM370 347l43 -48c17 -19 36 -28 59 -28
c44 0 64 34 64 76c0 49 -29 79 -63 79c-22 0 -46 -10 -69 -37zM282 347l-46 50c-17 18 -33 29 -56 29c-48 0 -64 -42 -64 -79c0 -50 28 -76 62 -76c20 0 44 10 67 34z" />
    <glyph glyph-name="approxequal" unicode="&#x2248;" 
d="M149 158l-31 66c17 42 62 78 112 78c80 0 128 -63 189 -63c37 0 67 40 82 65l31 -64c-17 -42 -61 -79 -112 -79c-77 0 -126 63 -187 63c-38 0 -69 -42 -84 -66zM149 311l-31 64c17 42 62 79 112 79c80 0 128 -63 189 -63c37 0 67 41 82 66l31 -65
c-17 -42 -61 -79 -112 -79c-77 0 -127 63 -187 63c-38 0 -69 -41 -84 -65z" />
    <glyph glyph-name="notequal" unicode="&#x2260;" horiz-adv-x="600" 
d="M88 398v79h250l47 78h82l-47 -78h92v-79h-140l-81 -135h221v-79h-268l-55 -91h-83l55 91h-73v79h120l82 135h-202z" />
    <glyph glyph-name="lessequal" unicode="&#x2264;" horiz-adv-x="550" 
d="M68 71v79h415v-79h-415zM68 361v70l415 173v-84l-316 -123v-2l316 -123v-85z" />
    <glyph glyph-name="greaterequal" unicode="&#x2265;" horiz-adv-x="550" 
d="M68 71v79h415v-79h-415zM68 187v85l315 123v2l-315 123v84l415 -173v-70z" />
    <glyph glyph-name="lozenge" unicode="&#x25ca;" 
d="M325 -9l-245 359l245 359l245 -359zM325 144l145 206l-145 205l-144 -205z" />
    <glyph glyph-name="uniF406" unicode="&#xf406;" 
d="M170 894l52 16c15 -50 48 -80 103 -80s88 30 103 80l52 -16c-20 -82 -75 -124 -155 -124s-135 42 -155 124z" />
    <glyph glyph-name="uniF407" unicode="&#xf407;" 
d="M301 -101l12 101h57l-7 -49c59 -2 105 -20 105 -87c0 -60 -51 -106 -120 -106c-41 0 -62 7 -81 16l8 54c21 -9 37 -13 64 -13c25 0 52 12 52 46c0 31 -29 41 -52 41c-10 0 -29 0 -38 -3z" />
    <glyph glyph-name="uniF408" unicode="&#xf408;" 
d="M170 770l105 140h100l105 -140h-87l-68 88l-68 -88h-87z" />
    <glyph glyph-name="uniF409" unicode="&#xf409;" 
d="M269 -209c30 4 62 20 62 53c-6 -1 -13 -2 -19 -2c-30 0 -55 15 -55 43c0 25 23 47 66 47c38 0 68 -21 68 -70s-30 -108 -117 -114z" />
    <glyph glyph-name="uniF40A" unicode="&#xf40a;" horiz-adv-x="205" 
d="M45 510l46 190h94l-76 -190h-64z" />
    <glyph glyph-name="uniF40B" unicode="&#xf40b;" 
d="M271 840c0 34 20 54 54 54s54 -20 54 -54s-20 -54 -54 -54s-54 20 -54 54z" />
    <glyph glyph-name="uniF40C" unicode="&#xf40c;" 
d="M233 840c0 56 45 92 92 92s92 -36 92 -92c0 -55 -45 -92 -92 -92s-92 37 -92 92zM281 840c0 -27 17 -44 44 -44s44 17 44 44s-17 44 -44 44s-44 -17 -44 -44z" />
    <glyph glyph-name="uniF40D" unicode="&#xf40d;" 
d="M231 780l-61 14c3 66 39 106 89 106c28 0 47 -11 74 -26c22 -12 42 -22 56 -22c15 0 26 10 31 48l60 -15c-6 -68 -47 -105 -89 -105c-21 0 -34 6 -74 27c-26 13 -33 22 -53 22c-15 0 -27 -11 -33 -49z" />
    <glyph glyph-name="uniF40E" unicode="&#xf40e;" 
d="M372 10l54 -5c-45 -34 -84 -75 -84 -131c0 -27 19 -44 54 -44c17 0 38 6 57 17v-60c-23 -11 -49 -19 -83 -19c-70 0 -105 34 -105 93c0 65 55 111 107 149z" />
    <glyph glyph-name="zero.tab" unicode="&#xf4e0;" 
d="M85 349c0 268 81 359 251 359c163 0 229 -105 229 -359c0 -280 -85 -359 -240 -359c-166 0 -240 116 -240 359zM173 349c0 -212 50 -283 156 -283s148 57 148 280c0 232 -39 286 -152 286c-114 0 -152 -63 -152 -283z" />
    <glyph glyph-name="one.tab" unicode="&#xf4e1;" 
d="M125 0v80h206v522l-206 -123v87l230 141h60v-627h128v-80h-418z" />
    <glyph glyph-name="two.tab" unicode="&#xf4e2;" 
d="M83 0v56c287 247 369 302 369 433c0 95 -53 135 -162 135c-79 0 -139 -28 -196 -64v102c53 28 122 46 213 46c165 0 233 -74 233 -205c0 -151 -68 -233 -318 -423h334v-80h-473z" />
    <glyph glyph-name="three.tab" unicode="&#xf4e3;" 
d="M210 318v75h55c120 0 171 43 171 130c0 69 -30 103 -143 103c-87 0 -154 -35 -198 -63v93c41 26 111 52 214 52c144 0 211 -48 212 -170c1 -90 -43 -145 -142 -171c110 -7 176 -62 176 -164c0 -136 -79 -211 -242 -211c-110 0 -184 23 -223 49v110
c39 -35 116 -72 216 -72c120 0 164 40 164 124c0 71 -44 115 -204 115h-56z" />
    <glyph glyph-name="four.tab" unicode="&#xf4e4;" 
d="M67 193v57l315 450h107v-427h104v-80h-104v-193h-84v193h-338zM405 273v329l-226 -329h226z" />
    <glyph glyph-name="five.tab" unicode="&#xf4e5;" 
d="M119 354l33 346h383v-80h-313l-18 -182c15 1 60 1 105 1c186 0 244 -79 244 -211c0 -151 -76 -236 -257 -236c-66 0 -143 9 -189 30v101c42 -28 126 -45 178 -45c136 0 180 50 180 142c0 100 -35 141 -194 141c-57 0 -118 -2 -152 -7z" />
    <glyph glyph-name="six.tab" unicode="&#xf4e6;" 
d="M338 -8c-188 0 -259 121 -259 337c0 286 133 379 316 379c47 0 96 -8 129 -21v-96c-29 16 -66 31 -143 31c-130 0 -222 -74 -222 -269c0 -24 1 -26 2 -32c34 84 93 133 210 133c137 0 201 -97 201 -208c0 -179 -109 -254 -234 -254zM179 256c1 -108 54 -176 165 -176
c84 0 142 48 142 148c0 93 -39 145 -143 145s-146 -61 -164 -117z" />
    <glyph glyph-name="seven.tab" unicode="&#xf4e7;" 
d="M184 0l280 610h-374v90h480v-58l-289 -642h-97z" />
    <glyph glyph-name="eight.tab" unicode="&#xf4e8;" 
d="M84 200c0 67 19 144 129 174c-83 21 -113 64 -113 150c0 114 64 187 225 187c160 0 217 -71 217 -163c0 -85 -14 -147 -111 -173c103 -24 135 -77 135 -169c0 -125 -71 -214 -240 -214c-159 0 -242 80 -242 208zM172 213c0 -94 60 -135 155 -135c112 0 153 47 153 133
c0 84 -58 123 -154 123c-100 0 -154 -47 -154 -121zM183 513c0 -61 42 -112 141 -112c95 0 135 46 135 114c0 77 -35 110 -135 110s-141 -38 -141 -112z" />
    <glyph glyph-name="nine.tab" unicode="&#xf4e9;" 
d="M313 708c188 0 259 -121 259 -337c0 -286 -133 -379 -316 -379c-47 0 -96 8 -129 21v96c29 -16 66 -31 143 -31c130 0 222 74 222 269c0 24 -1 26 -2 32c-34 -84 -88 -133 -205 -133c-137 0 -206 97 -206 208c0 179 109 254 234 254zM473 454c-5 97 -55 167 -166 166
c-84 -1 -140 -48 -142 -148c-2 -93 44 -145 148 -145s147 60 160 127z" />
    <glyph glyph-name="dollar.tab" unicode="&#xf4ec;" 
d="M463 185c0 187 -352 86 -352 331c0 111 53 176 189 189v95h64v-92c66 -2 123 -14 166 -36v-106c-40 37 -110 62 -180 62c-114 0 -146 -33 -146 -99c0 -180 354 -70 354 -338c0 -113 -58 -183 -194 -196v-115h-64v112c-78 2 -155 24 -198 58v118c45 -50 114 -96 208 -96
c106 0 153 38 153 113z" />
    <glyph glyph-name="Euro.tab" unicode="&#xf4ed;" 
d="M415 708c59 0 100 -10 129 -21v-90c-30 13 -68 31 -131 31c-104 0 -157 -47 -183 -144h270l-16 -78h-267c-1 -15 -2 -31 -2 -47c0 -22 0 -42 2 -61h248l-14 -78h-220c35 -101 101 -147 189 -147c58 0 117 18 144 34v-81c-29 -17 -88 -34 -146 -34
c-140 0 -238 79 -273 228h-75l15 78h48c-1 17 -2 34 -2 52c0 19 2 38 3 56h-59l15 78h57c37 146 125 224 268 224z" />
    <glyph glyph-name="cent.tab" unicode="&#xf4ee;" 
d="M322 -120v115c-133 14 -197 116 -197 274c0 156 69 252 197 266v95h57v-93c52 -2 84 -12 106 -18v-76c-23 8 -60 19 -109 19c-103 0 -161 -58 -161 -185c0 -144 62 -209 169 -209c48 0 88 12 109 21v-75c-21 -9 -58 -20 -114 -22v-112h-57z" />
    <glyph glyph-name="sterling.tab" unicode="&#xf4ef;" 
d="M125 0v84h85v258h-85v60h85v78c0 83 17 229 220 229c45 0 86 -8 110 -16v-83c-38 10 -65 16 -111 16c-103 0 -129 -64 -129 -144v-80h159v-60h-159v-258h245v-84h-420z" />
    <glyph glyph-name="yen.tab" unicode="&#xf4fa;" 
d="M148 174v59h132v60l-8 14h-124v59h95l-170 334h104l149 -310l146 310h105l-170 -334h95v-59h-125l-7 -14v-60h132v-59h-132v-174h-90v174h-132z" />
    <glyph glyph-name="florin.tab" unicode="&#xf4fb;" 
d="M64 -210l18 81c11 -2 18 -3 26 -3c48 0 82 12 100 108l87 458h-94l15 76h93l15 76c19 102 66 172 183 172c20 0 37 -2 61 -6l-15 -76c-8 2 -24 6 -44 6c-65 0 -88 -23 -106 -121l-11 -51h130l-15 -76h-128l-85 -450c-23 -118 -59 -198 -189 -198c-16 0 -29 1 -41 4z" />
    <glyph glyph-name="uni20B4.tab" unicode="&#xf4fc;" 
d="M110 260v58h114c14 15 63 58 78 74h-192v58h250c41 33 65 75 65 107c0 58 -54 68 -89 68c-68 0 -89 -4 -157 -24v84c58 18 123 24 158 24c165 0 182 -82 182 -138c0 -47 -26 -91 -54 -121h75v-58h-125c-15 -16 -67 -59 -82 -74h207v-58h-258c-37 -31 -50 -70 -50 -101
c0 -56 40 -84 129 -84c39 0 98 4 142 25v-85c-53 -18 -118 -24 -155 -24c-160 0 -211 82 -211 157c0 50 20 85 41 112h-68z" />
    <glyph glyph-name="uni20BD.tab" unicode="&#xf4fd;" 
d="M323 291h-77v-87h197v-79h-197v-125h-86v125h-81v79h81v87h-81v79h81v325c41 4 115 11 179 11c127 0 228 -55 228 -190c0 -148 -77 -225 -244 -225zM332 620c-34 0 -61 -2 -86 -4v-246h68c120 0 163 48 163 129c0 73 -27 121 -145 121z" />
    <glyph glyph-name="uni20B8.tab" unicode="&#xf5f3;" 
d="M281 0v499h-194v74h477v-74h-193v-499h-90zM87 626v74h477v-74h-477z" />
    <glyph glyph-name="zero.denominator" unicode="&#xf655;" horiz-adv-x="450" 
d="M37 210c0 159 69 217 187 217c128 0 189 -58 189 -217c0 -163 -69 -218 -188 -218c-123 0 -188 61 -188 218zM119 210c0 -115 41 -152 109 -152c66 0 101 39 101 152c0 116 -36 151 -105 151c-63 0 -105 -35 -105 -151z" />
    <glyph glyph-name="one.denominator" unicode="&#xf656;" horiz-adv-x="450" 
d="M221 0v326l-122 -56l-32 63l173 85h64v-418h-83z" />
    <glyph glyph-name="two.denominator" unicode="&#xf657;" horiz-adv-x="450" 
d="M53 0v75l120 85c87 62 119 92 119 135c0 41 -33 63 -93 63c-46 0 -96 -7 -129 -27v73c44 17 85 23 137 23c94 0 170 -29 170 -116c0 -68 -47 -124 -159 -195l-69 -44v-1h234v-71h-330z" />
    <glyph glyph-name="three.denominator" unicode="&#xf658;" horiz-adv-x="450" 
d="M136 188v59h79c62 0 91 14 91 56c0 38 -27 55 -98 55c-46 0 -98 -6 -132 -20v69c39 17 104 20 156 20c99 0 155 -41 155 -107c0 -59 -38 -82 -101 -99v-2c94 -13 111 -59 111 -100c0 -93 -93 -127 -182 -127c-46 0 -101 2 -145 19v71c35 -17 85 -21 137 -21
c74 0 107 19 107 59c0 52 -31 68 -92 68h-86z" />
    <glyph glyph-name="four.denominator" unicode="&#xf659;" horiz-adv-x="450" 
d="M18 87v64l248 267h95v-263h55v-68h-55v-87h-75v87h-268zM286 155v183h-1l-171 -183h172z" />
    <glyph glyph-name="five.denominator" unicode="&#xf65a;" horiz-adv-x="450" 
d="M70 202l11 216h299v-69h-239l-4 -82c28 1 58 3 106 3c100 0 154 -45 154 -130c0 -93 -66 -148 -176 -148c-46 0 -101 7 -148 18v71c64 -19 97 -20 146 -20c65 0 96 29 96 74s-22 70 -107 70c-52 0 -81 -1 -138 -3z" />
    <glyph glyph-name="six.denominator" unicode="&#xf65b;" horiz-adv-x="450" 
d="M225 -8c-155 0 -189 96 -189 203c0 131 50 232 206 232c41 0 82 -4 122 -13v-69c-43 12 -86 13 -119 13c-71 0 -137 -32 -136 -134c31 26 81 49 134 49c94 0 164 -34 164 -136c0 -93 -77 -145 -182 -145zM115 164c0 -68 38 -108 112 -108c53 0 99 27 99 80
c0 47 -39 71 -94 71c-38 0 -83 -13 -117 -43z" />
    <glyph glyph-name="seven.denominator" unicode="&#xf65c;" horiz-adv-x="450" 
d="M121 0l196 349h-272v69h360v-54l-201 -364h-83z" />
    <glyph glyph-name="eight.denominator" unicode="&#xf65d;" horiz-adv-x="450" 
d="M225 -8c-110 0 -188 38 -188 124c0 54 33 90 92 103c-46 12 -78 49 -78 94c0 75 66 114 174 114s174 -39 174 -114c0 -45 -32 -82 -78 -94c59 -13 92 -49 92 -103c0 -86 -78 -124 -188 -124zM225 59c80 0 111 29 111 66c0 31 -19 61 -111 61s-111 -30 -111 -61
c0 -37 31 -66 111 -66zM225 360c-78 0 -102 -23 -102 -56c0 -31 24 -55 102 -55s102 24 102 55c0 33 -24 56 -102 56z" />
    <glyph glyph-name="nine.denominator" unicode="&#xf65e;" horiz-adv-x="450" 
d="M217 427c164 0 190 -96 190 -203c0 -131 -48 -232 -196 -232c-47 0 -95 6 -142 16v71c51 -14 100 -18 139 -18c66 0 128 32 127 134c-30 -35 -87 -57 -138 -57c-79 0 -151 41 -151 143c0 93 73 146 171 146zM331 260c-3 52 -33 103 -116 103c-48 0 -88 -27 -88 -80
s34 -81 83 -81c54 0 93 26 121 58z" />
    <glyph glyph-name="zero.numerator" unicode="&#xf661;" horiz-adv-x="450" 
d="M37 492c0 159 69 217 187 217c128 0 189 -58 189 -217c0 -163 -69 -218 -188 -218c-123 0 -188 61 -188 218zM119 492c0 -115 41 -152 109 -152c66 0 101 39 101 152c0 116 -36 151 -105 151c-63 0 -105 -35 -105 -151z" />
    <glyph glyph-name="one.numerator" unicode="&#xf662;" horiz-adv-x="450" 
d="M221 282v326l-122 -56l-32 63l173 85h64v-418h-83z" />
    <glyph glyph-name="two.numerator" unicode="&#xf663;" horiz-adv-x="450" 
d="M53 282v75l120 85c87 62 119 92 119 135c0 41 -33 63 -93 63c-46 0 -96 -7 -129 -27v73c44 17 85 23 137 23c94 0 170 -29 170 -116c0 -68 -47 -124 -159 -195l-69 -44v-1h234v-71h-330z" />
    <glyph glyph-name="three.numerator" unicode="&#xf664;" horiz-adv-x="450" 
d="M136 470v59h79c62 0 91 14 91 56c0 38 -27 55 -98 55c-46 0 -98 -6 -132 -20v69c39 17 104 20 156 20c99 0 155 -41 155 -107c0 -59 -38 -82 -101 -99v-2c94 -13 111 -59 111 -100c0 -93 -93 -127 -182 -127c-46 0 -101 2 -145 19v71c35 -17 85 -21 137 -21
c74 0 107 19 107 59c0 52 -31 68 -92 68h-86z" />
    <glyph glyph-name="four.numerator" unicode="&#xf665;" horiz-adv-x="450" 
d="M18 369v64l248 267h95v-263h55v-68h-55v-87h-75v87h-268zM286 437v183h-1l-171 -183h172z" />
    <glyph glyph-name="five.numerator" unicode="&#xf666;" horiz-adv-x="450" 
d="M70 484l11 216h299v-69h-239l-4 -82c28 1 58 3 106 3c100 0 154 -45 154 -130c0 -93 -66 -148 -176 -148c-46 0 -101 7 -148 18v71c64 -19 97 -20 146 -20c65 0 96 29 96 74s-22 70 -107 70c-52 0 -81 -1 -138 -3z" />
    <glyph glyph-name="six.numerator" unicode="&#xf667;" horiz-adv-x="450" 
d="M225 274c-155 0 -189 96 -189 203c0 131 50 232 206 232c41 0 82 -4 122 -13v-69c-43 12 -86 13 -119 13c-71 0 -137 -32 -136 -134c31 26 81 49 134 49c94 0 164 -34 164 -136c0 -93 -77 -145 -182 -145zM115 446c0 -68 38 -108 112 -108c53 0 99 27 99 80
c0 47 -39 71 -94 71c-38 0 -83 -13 -117 -43z" />
    <glyph glyph-name="seven.numerator" unicode="&#xf668;" horiz-adv-x="450" 
d="M121 282l196 349h-272v69h360v-54l-201 -364h-83z" />
    <glyph glyph-name="eight.numerator" unicode="&#xf669;" horiz-adv-x="450" 
d="M225 274c-110 0 -188 38 -188 124c0 54 33 90 92 103c-46 12 -78 49 -78 94c0 75 66 114 174 114s174 -39 174 -114c0 -45 -32 -82 -78 -94c59 -13 92 -49 92 -103c0 -86 -78 -124 -188 -124zM225 341c80 0 111 29 111 66c0 31 -19 61 -111 61s-111 -30 -111 -61
c0 -37 31 -66 111 -66zM225 642c-78 0 -102 -23 -102 -56c0 -31 24 -55 102 -55s102 24 102 55c0 33 -24 56 -102 56z" />
    <glyph glyph-name="nine.numerator" unicode="&#xf66a;" horiz-adv-x="450" 
d="M217 709c164 0 190 -96 190 -203c0 -131 -48 -232 -196 -232c-47 0 -95 6 -142 16v71c51 -14 100 -18 139 -18c66 0 128 32 127 134c-30 -35 -87 -57 -138 -57c-79 0 -151 41 -151 143c0 93 73 146 171 146zM331 542c-3 52 -33 103 -116 103c-48 0 -88 -27 -88 -80
s34 -81 83 -81c54 0 93 26 121 58z" />
    <glyph glyph-name="uniF6BA" unicode="&#xf6ba;" horiz-adv-x="467" 
d="M100 312v84h267v-84h-267z" />
    <glyph glyph-name="uniF6BB" unicode="&#xf6bb;" horiz-adv-x="707" 
d="M120 312v84h467v-84h-467z" />
    <glyph glyph-name="uniF6BC" unicode="&#xf6bc;" horiz-adv-x="877" 
d="M120 312v84h637v-84h-637z" />
    <glyph glyph-name="uniF6C3" unicode="&#xf6c3;" 
d="M269 -209c30 4 62 20 62 53c-6 -1 -13 -2 -19 -2c-30 0 -55 15 -55 43c0 25 23 47 66 47c38 0 68 -21 68 -70s-30 -108 -117 -114z" />
    <glyph glyph-name="uniF6C9" unicode="&#xf6c9;" 
d="M287 770l84 140h116l-124 -140h-76z" />
    <glyph glyph-name="uniF6CA" unicode="&#xf6ca;" 
d="M275 770l-105 140h88l67 -88l68 88h87l-105 -140h-100z" />
    <glyph glyph-name="uniF6CB" unicode="&#xf6cb;" 
d="M175 840c0 34 20 54 54 54s54 -20 54 -54s-20 -54 -54 -54s-54 20 -54 54zM367 840c0 34 20 54 54 54s54 -20 54 -54s-20 -54 -54 -54s-54 20 -54 54z" />
    <glyph glyph-name="uniF6CE" unicode="&#xf6ce;" 
d="M163 910h124l78 -140h-80z" />
    <glyph glyph-name="uniF6CF" unicode="&#xf6cf;" 
d="M198 770l56 140h106l-86 -140h-76zM372 770l86 140h120l-126 -140h-80z" />
    <glyph glyph-name="uniF6D0" unicode="&#xf6d0;" 
d="M180 804v72h290v-72h-290z" />
    <glyph glyph-name="uniF6D1" unicode="&#xf6d1;" 
d="M160 910h78c5 -56 31 -80 87 -80s84 24 89 80h76c-10 -101 -72 -140 -165 -140s-155 39 -165 140z" />
    <glyph glyph-name="uniF6D4" unicode="&#xf6d4;" 
d="M170 760h76c5 -50 24 -82 79 -82s76 32 81 82h74c-10 -98 -70 -140 -155 -140s-145 42 -155 140z" />
    <glyph glyph-name="uniFEFF" unicode="&#xfeff;" horiz-adv-x="0" 
 />
    <glyph glyph-name="percent.tab" 
d="M40 0l486 700h87l-484 -700h-89zM59 547c0 113 45 163 119 163c73 0 123 -45 123 -163c0 -120 -46 -165 -117 -165c-79 0 -125 45 -125 165zM230 547c0 68 -16 91 -49 91c-34 0 -50 -23 -50 -91c0 -72 19 -93 52 -93c29 0 46 16 47 93zM359 155c0 113 45 163 119 163
c73 0 123 -45 123 -163c0 -120 -46 -165 -117 -165c-79 0 -125 45 -125 165zM530 155c0 68 -16 91 -49 91c-34 0 -50 -23 -50 -91c0 -72 19 -93 52 -93c29 0 46 16 47 93z" />
    <glyph glyph-name="plus.tab" 
d="M115 303v84h168v168h84v-168h168v-84h-168v-168h-84v168h-168z" />
    <glyph glyph-name="less.tab" 
d="M93 291v70l415 173v-84l-316 -123v-2l316 -123v-85z" />
    <glyph glyph-name="equal.tab" 
d="M112 184v79h425v-79h-425zM112 398v79h425v-79h-425z" />
    <glyph glyph-name="greater.tab" 
d="M142 117v85l315 123v2l-315 123v84l415 -173v-70z" />
    <glyph glyph-name="multiply.tab" 
d="M136 175l138 148l-138 149l55 52l133 -144l135 144l55 -52l-138 -149l138 -148l-55 -51l-135 144l-133 -144z" />
    <glyph glyph-name="divide.tab" 
d="M262 151c0 42 25 66 64 66c38 0 64 -25 64 -66c0 -44 -24 -67 -64 -67c-39 0 -64 24 -64 67zM262 497c0 43 25 66 64 66c38 0 64 -24 64 -66c0 -43 -24 -67 -64 -67c-39 0 -64 25 -64 67zM113 284v79h425v-79h-425z" />
    <glyph glyph-name="perthousand.tab" 
d="M518 480l-461 -225l-25 49l463 226zM27 567c0 99 43 143 114 143c70 0 118 -39 118 -143c0 -105 -44 -145 -112 -145c-76 0 -120 40 -120 145zM99 567c0 -57 17 -73 47 -73c26 0 41 13 42 73c0 53 -14 71 -44 71c-31 0 -45 -18 -45 -71zM128 135c0 99 43 143 114 143
c70 0 118 -39 118 -143c0 -105 -44 -145 -112 -145c-76 0 -120 40 -120 145zM200 135c0 -57 17 -73 47 -73c26 0 41 13 42 73c0 53 -14 71 -44 71c-31 0 -45 -18 -45 -71zM388 135c0 99 43 143 114 143c70 0 118 -39 118 -143c0 -105 -44 -145 -112 -145
c-76 0 -120 40 -120 145zM460 135c0 -57 17 -73 47 -73c26 0 41 13 42 73c0 53 -14 71 -44 71c-31 0 -45 -18 -45 -71z" />
    <glyph glyph-name="minus.tab" 
d="M113 284v79h425v-79h-425z" />
    <glyph glyph-name="f_b" horiz-adv-x="984" 
d="M454 0v670c-40 3 -94 6 -150 6c-77 0 -98 -19 -98 -99v-47h180v-78h-180v-452h-83v452h-83v78h84v60c0 126 63 165 181 165c55 0 107 -5 149 -5h83v-305c28 53 70 95 171 95c140 0 216 -68 216 -264c0 -206 -74 -287 -223 -287c-88 0 -140 31 -168 80l-5 -69h-74z
M535 309v-80c0 -111 59 -165 153 -165c110 0 153 57 153 207c0 153 -49 194 -152 194c-106 0 -153 -61 -154 -156z" />
    <glyph glyph-name="f_f_b" horiz-adv-x="1315" 
d="M123 0v452h-83v78h84v60c0 126 63 165 181 165c41 0 69 -5 82 -9v-87c-18 8 -41 17 -83 17c-77 0 -98 -19 -98 -99v-47h249v60c0 126 63 165 181 165c55 0 107 -5 149 -5h83v-305c28 53 70 95 171 95c140 0 216 -68 216 -264c0 -206 -74 -287 -223 -287
c-88 0 -140 31 -168 80l-5 -69h-74v670c-40 3 -94 6 -150 6c-77 0 -98 -19 -98 -99v-47h180v-78h-180v-452h-83v452h-248v-452h-83zM866 309v-80c0 -111 59 -165 153 -165c110 0 153 57 153 207c0 153 -49 194 -152 194c-106 0 -153 -61 -154 -156z" />
    <glyph glyph-name="f_f_h" horiz-adv-x="1311" 
d="M123 0v452h-83v78h84v60c0 126 63 165 181 165c41 0 69 -5 82 -9v-87c-18 8 -41 17 -83 17c-77 0 -98 -19 -98 -99v-47h249v60c0 126 63 165 181 165c55 0 107 -5 149 -5h83v-302c25 59 83 92 173 92c125 0 181 -51 181 -182v-358h-83v347c0 85 -36 119 -129 119
c-94 0 -142 -42 -142 -147v-319h-83v670c-40 3 -94 6 -150 6c-77 0 -98 -19 -98 -99v-47h180v-78h-180v-452h-83v452h-248v-452h-83z" />
    <glyph glyph-name="f_f_j" horiz-adv-x="978" 
d="M123 0v452h-83v78h84v60c0 126 63 165 181 165c41 0 69 -5 82 -9v-87c-18 8 -41 17 -83 17c-77 0 -98 -19 -98 -99v-47h249v60c0 126 59 165 170 165c36 0 68 -6 85 -9v-87c-23 7 -53 17 -86 17c-68 0 -87 -19 -87 -99v-47h331v-530c0 -122 -43 -186 -155 -186
c-35 0 -64 7 -79 13v87c22 -14 51 -21 79 -21c51 0 72 28 72 99v460h-248v-452h-83v452h-248v-452h-83zM771 702c0 28 13 51 55 51s56 -23 56 -51s-14 -54 -56 -54s-55 26 -55 54z" />
    <glyph glyph-name="f_f_k" horiz-adv-x="1255" 
d="M123 0v452h-83v78h84v60c0 126 63 165 181 165c41 0 69 -5 82 -9v-87c-18 8 -41 17 -83 17c-77 0 -98 -19 -98 -99v-47h249v60c0 126 63 165 181 165c55 0 107 -5 149 -5h83v-446h47l193 226h95l-218 -251l250 -279h-105l-217 239h-45v-239h-83v670c-40 3 -94 6 -150 6
c-77 0 -98 -19 -98 -99v-47h180v-78h-180v-452h-83v452h-248v-452h-83z" />
    <glyph glyph-name="f_h" horiz-adv-x="980" 
d="M454 0v670c-40 3 -94 6 -150 6c-77 0 -98 -19 -98 -99v-47h180v-78h-180v-452h-83v452h-83v78h84v60c0 126 63 165 181 165c55 0 107 -5 149 -5h83v-302c25 59 83 92 173 92c125 0 181 -51 181 -182v-358h-83v347c0 85 -36 119 -129 119c-94 0 -142 -42 -142 -147v-319
h-83z" />
    <glyph glyph-name="f_j" horiz-adv-x="647" 
d="M440 702c0 28 13 51 55 51s56 -23 56 -51s-14 -54 -56 -54s-55 26 -55 54zM454 -8v460h-248v-452h-83v452h-83v78h84v60c0 126 59 165 170 165c36 0 68 -6 85 -9v-87c-23 7 -53 17 -86 17c-68 0 -87 -19 -87 -99v-47h331v-530c0 -122 -43 -186 -155 -186
c-35 0 -64 7 -79 13v87c22 -14 51 -21 79 -21c51 0 72 28 72 99z" />
    <glyph glyph-name="f_k" horiz-adv-x="924" 
d="M454 750h83v-446h47l193 226h95l-218 -251l250 -279h-105l-217 239h-45v-239h-83v670c-40 3 -94 6 -150 6c-77 0 -98 -19 -98 -99v-47h180v-78h-180v-452h-83v452h-83v78h84v60c0 126 63 165 181 165c55 0 107 -5 149 -5z" />
    </font>
</defs>
</svg>
