<?xml version="1.0" standalone="no"?>
<!DOCTYPE svg PUBLIC "-//W3C//DTD SVG 1.1//EN" "http://www.w3.org/Graphics/SVG/1.1/DTD/svg11.dtd" >
<svg xmlns="http://www.w3.org/2000/svg" xmlns:xlink="http://www.w3.org/1999/xlink" version="1.1">
<metadata>
Created by FontForge 20190801 at Mon Jul 22 23:29:47 2019
 By Jimmy Wärting
Copyright (c) 2019 ParaType Inc., ParaType Ltd. All rights reserved.
</metadata>
<defs>
<font id="SBSansDisplay-Light" horiz-adv-x="584" >
  <font-face 
    font-family="SB Sans Display Light"
    font-weight="300"
    font-stretch="normal"
    units-per-em="1000"
    panose-1="2 11 3 3 4 5 4 2 2 4"
    ascent="800"
    descent="-200"
    x-height="500"
    cap-height="700"
    bbox="-330 -250 1191 900"
    underline-thickness="50"
    underline-position="-100"
    stemh="45"
    stemv="45"
    unicode-range="U+0020-FEFF"
  />
<missing-glyph horiz-adv-x="0" 
 />
    <glyph glyph-name="fi" unicode="fi" horiz-adv-x="582" 
d="M24 500h90v74c0 132 71 181 158 181c51 0 80 -17 93 -28v-62c-18 28 -55 46 -96 46c-59 0 -110 -29 -110 -137v-74h167v-42h-167v-458h-45v458h-90v42zM440 0v500h45v-500h-45zM428 726c0 19 14 32 34 32c21 0 34 -13 34 -32s-13 -32 -34 -32c-20 0 -34 13 -34 32z" />
    <glyph glyph-name="fl" unicode="fl" horiz-adv-x="643" 
d="M24 500h90v74c0 132 71 181 158 181c51 0 80 -17 93 -28v-62c-18 28 -55 46 -96 46c-59 0 -110 -29 -110 -137v-74h167v-42h-167v-458h-45v458h-90v42zM625 48v-42c-16 -9 -48 -16 -78 -16c-77 0 -117 39 -117 125v635h45v-623c0 -68 23 -93 80 -93c24 0 54 6 70 14z" />
    <glyph glyph-name="f_f" unicode="ff" horiz-adv-x="637" 
d="M24 500h90v74c0 132 71 181 158 181c51 0 80 -17 93 -28v-62c-18 28 -55 46 -96 46c-59 0 -110 -29 -110 -137v-74h257v74c0 132 71 181 158 181c51 0 80 -17 93 -28v-62c-18 28 -55 46 -96 46c-59 0 -110 -29 -110 -137v-74h167v-42h-167v-458h-45v458h-257v-458h-45
v458h-90v42z" />
    <glyph glyph-name="f_f_i" unicode="ffi" horiz-adv-x="882" 
d="M24 500h90v74c0 132 71 181 158 181c51 0 80 -17 93 -28v-62c-18 28 -55 46 -96 46c-59 0 -110 -29 -110 -137v-74h257v74c0 132 71 181 158 181c51 0 80 -17 93 -28v-62c-18 28 -55 46 -96 46c-59 0 -110 -29 -110 -137v-74h167v-42h-167v-458h-45v458h-257v-458h-45
v458h-90v42zM740 0v500h45v-500h-45zM728 726c0 19 14 32 34 32c21 0 34 -13 34 -32s-13 -32 -34 -32c-20 0 -34 13 -34 32z" />
    <glyph glyph-name="f_f_l" unicode="ffl" horiz-adv-x="939" 
d="M24 500h90v74c0 132 71 181 158 181c51 0 80 -17 93 -28v-62c-18 28 -55 46 -96 46c-59 0 -110 -29 -110 -137v-74h257v74c0 132 71 181 158 181c51 0 80 -17 93 -28v-62c-18 28 -55 46 -96 46c-59 0 -110 -29 -110 -137v-74h167v-42h-167v-458h-45v458h-257v-458h-45
v458h-90v42zM921 48v-42c-16 -9 -48 -16 -78 -16c-77 0 -117 39 -117 125v635h45v-623c0 -68 23 -93 80 -93c24 0 54 6 70 14z" />
    <glyph glyph-name=".notdef" horiz-adv-x="0" 
 />
    <glyph glyph-name="space" unicode=" " horiz-adv-x="260" 
 />
    <glyph glyph-name="exclam" unicode="!" horiz-adv-x="300" 
d="M174 700v-470h-48v470h48zM108 35c0 23 12 41 42 41s42 -18 42 -41s-12 -41 -42 -41c-31 0 -42 18 -42 41z" />
    <glyph glyph-name="quotedbl" unicode="&#x22;" horiz-adv-x="468" 
d="M300 430v270h46v-270h-46zM118 430v270h46v-270h-46z" />
    <glyph glyph-name="numbersign" unicode="#" horiz-adv-x="671" 
d="M35 251h110l76 215h-136l15 42h136l68 192h46l-68 -192h203l68 192h46l-68 -192h120l-15 -42h-120l-76 -215h146l-15 -42h-146l-74 -209h-46l74 209h-203l-74 -209h-46l74 209h-110zM267 466l-76 -215h203l76 215h-203z" />
    <glyph glyph-name="dollar" unicode="$" 
d="M493 562c-41 63 -115 101 -199 100c-114 -2 -168 -43 -168 -121c0 -202 384 -103 384 -358c0 -109 -58 -179 -197 -189v-122h-43v120c-97 2 -160 39 -192 71v75c41 -63 116 -100 199 -99c133 1 183 56 183 140c0 213 -383 115 -383 356c0 100 59 163 191 173v116h44v-115
c91 -4 151 -41 181 -72v-75z" />
    <glyph glyph-name="percent" unicode="%" horiz-adv-x="823" 
d="M64 548c0 97 68 159 168 159c95 0 159 -59 159 -159c0 -99 -67 -162 -166 -162c-96 0 -161 66 -161 162zM105 548c0 -72 51 -121 125 -121c73 0 121 48 121 121c0 74 -48 118 -123 118c-74 0 -123 -44 -123 -118zM432 150c0 97 68 159 168 159c95 0 159 -59 159 -159
c0 -99 -67 -162 -166 -162c-96 0 -161 66 -161 162zM473 150c0 -72 51 -121 125 -121c73 0 121 48 121 121c0 74 -48 118 -123 118c-74 0 -123 -44 -123 -118zM694 700l-504 -700h-53l507 700h50z" />
    <glyph glyph-name="ampersand" unicode="&#x26;" horiz-adv-x="832" 
d="M550 126c87 98 128 256 128 394h46c-1 -144 -44 -311 -137 -419c46 -29 93 -50 139 -61v-52c-58 14 -116 42 -172 79c-56 -51 -128 -83 -216 -83c-166 0 -258 96 -258 227c0 123 81 181 166 224c-21 49 -32 96 -32 139c0 89 57 137 145 137c77 0 127 -45 127 -110
c0 -101 -94 -139 -186 -183c52 -106 145 -217 250 -292zM262 399c-73 -38 -135 -86 -135 -183c0 -103 77 -184 220 -184c67 0 124 23 170 62c-108 82 -202 196 -255 305zM440 593c0 43 -30 74 -82 74c-64 0 -99 -34 -99 -94c0 -37 9 -77 26 -119c81 38 155 69 155 139z" />
    <glyph glyph-name="quoteright" unicode="&#x2019;" horiz-adv-x="293" 
d="M53 523c65 17 96 81 81 118c-3 -3 -7 -5 -13 -5c-28 0 -39 16 -39 37s11 37 39 37c39 0 60 -35 60 -81c0 -73 -57 -123 -102 -136z" />
    <glyph glyph-name="parenleft" unicode="(" horiz-adv-x="305" 
d="M60 286c0 253 130 412 200 469l25 -23c-60 -51 -179 -197 -179 -446c0 -250 119 -396 179 -447l-25 -23c-70 57 -200 216 -200 470z" />
    <glyph glyph-name="parenright" unicode=")" horiz-adv-x="305" 
d="M20 -160c60 51 178 196 179 445c0 250 -119 396 -179 447l25 23c71 -57 199 -215 200 -468c0 -254 -129 -413 -200 -470z" />
    <glyph glyph-name="asterisk" unicode="*" horiz-adv-x="488" 
d="M279 700l-23 -180l165 77l22 -67l-178 -33l124 -134l-57 -41l-88 158l-88 -158l-57 41l124 133l-178 35l22 66l163 -78l-21 181h70z" />
    <glyph glyph-name="plus" unicode="+" 
d="M270 135v188h-188v44h188v188h44v-188h188v-44h-188v-188h-44z" />
    <glyph glyph-name="comma" unicode="," horiz-adv-x="324" 
d="M61 -131c69 18 103 89 87 131c-4 -4 -9 -6 -20 -6c-24 0 -36 18 -36 41s15 41 46 41c43 0 59 -49 59 -90c0 -81 -67 -133 -115 -147z" />
    <glyph glyph-name="hyphen" unicode="-" horiz-adv-x="410" 
d="M77 272v46h256v-46h-256z" />
    <glyph glyph-name="period" unicode="." horiz-adv-x="240" 
d="M78 35c0 23 12 41 42 41s42 -18 42 -41s-12 -41 -42 -41c-31 0 -42 18 -42 41z" />
    <glyph glyph-name="slash" unicode="/" horiz-adv-x="254" 
d="M-20 -180l248 930h46l-248 -930h-46z" />
    <glyph glyph-name="zero" unicode="0" horiz-adv-x="620" 
d="M72 349c0 267 110 358 236 359c151 0 240 -116 240 -359c0 -268 -111 -359 -237 -359c-151 1 -239 116 -239 359zM119 349c0 -223 75 -312 192 -313c100 0 190 68 190 313c0 222 -76 311 -192 313c-100 0 -190 -68 -190 -313z" />
    <glyph glyph-name="one" unicode="1" horiz-adv-x="420" 
d="M242 0v648l-195 -125v51l206 133h34v-707h-45z" />
    <glyph glyph-name="two" unicode="2" horiz-adv-x="560" 
d="M501 0h-452v32c295 248 383 348 383 471c0 101 -63 159 -168 159c-86 1 -149 -36 -192 -94v65c34 37 102 77 207 75c120 -3 200 -74 200 -199c0 -124 -69 -224 -287 -405l-72 -60h381v-44z" />
    <glyph glyph-name="three" unicode="3" horiz-adv-x="560" 
d="M66 633c34 37 102 75 207 75c129 -2 199 -71 199 -170c0 -90 -44 -154 -131 -177c99 -13 162 -74 162 -172c0 -112 -80 -196 -241 -197c-103 1 -169 39 -201 73v75c41 -63 116 -103 199 -102c128 1 197 63 197 150c0 89 -64 146 -188 146h-90v42h69c116 0 177 60 177 149
c0 90 -66 137 -167 137c-86 1 -149 -36 -192 -94v65z" />
    <glyph glyph-name="four" unicode="4" horiz-adv-x="620" 
d="M42 234l361 466h58v-457h122v-44h-122v-199h-45v199h-374v35zM101 243h315v402z" />
    <glyph glyph-name="five" unicode="5" horiz-adv-x="560" 
d="M67 140c42 -63 125 -103 203 -102c119 1 186 67 186 177c0 108 -84 163 -202 163c-61 0 -118 -10 -153 -21l24 343h346v-44h-306l-18 -247c22 6 79 12 116 12c147 0 240 -75 240 -205c0 -143 -89 -224 -234 -224c-98 0 -168 39 -202 73v75z" />
    <glyph glyph-name="six" unicode="6" horiz-adv-x="620" 
d="M518 560c-38 63 -106 103 -182 101c-134 -3 -218 -101 -218 -314c0 -32 2 -62 6 -91c17 102 99 176 221 176c133 0 218 -88 218 -206c0 -157 -110 -234 -235 -234c-165 0 -255 129 -255 345c0 258 104 368 261 371c94 1 154 -39 184 -73v-75zM338 388
c-122 0 -195 -78 -202 -189c28 -95 89 -160 195 -160s185 67 185 181c0 107 -71 168 -178 168z" />
    <glyph glyph-name="seven" unicode="7" horiz-adv-x="530" 
d="M31 651v49h457v-42l-291 -658h-51l290 651h-405z" />
    <glyph glyph-name="eight" unicode="8" horiz-adv-x="620" 
d="M311 -9c-148 0 -253 69 -253 197c0 90 52 161 158 183c-77 15 -134 67 -134 164c0 103 80 176 228 176c144 0 220 -71 220 -171c0 -92 -58 -149 -135 -169c105 -15 167 -77 167 -177c0 -125 -98 -203 -251 -203zM312 37c136 0 203 66 203 159c0 92 -68 152 -206 152
c-136 0 -203 -66 -203 -149c0 -105 79 -162 206 -162zM309 387c107 0 175 59 175 144s-57 134 -175 134s-181 -55 -181 -135c0 -88 75 -143 181 -143z" />
    <glyph glyph-name="nine" unicode="9" horiz-adv-x="620" 
d="M100 140c38 -63 106 -103 183 -101c133 3 217 101 217 314c0 32 -2 62 -7 91c-16 -102 -98 -176 -220 -176c-133 0 -217 88 -217 206c0 157 109 234 234 234c165 0 255 -129 255 -345c0 -258 -104 -368 -261 -371c-94 -1 -154 39 -184 73v75zM280 312
c121 0 194 77 202 187c-27 96 -88 162 -194 162c-107 0 -186 -67 -186 -181c0 -107 72 -168 178 -168z" />
    <glyph glyph-name="colon" unicode=":" horiz-adv-x="264" 
d="M90 35c0 23 12 41 42 41s42 -18 42 -41s-12 -41 -42 -41c-31 0 -42 18 -42 41zM90 458c0 23 12 41 42 41s42 -18 42 -41s-12 -41 -42 -41c-31 0 -42 18 -42 41z" />
    <glyph glyph-name="semicolon" unicode=";" horiz-adv-x="274" 
d="M88 458c0 23 12 41 42 41s42 -18 42 -41s-12 -41 -42 -41c-31 0 -42 18 -42 41zM61 -131c69 18 103 89 87 131c-4 -4 -9 -6 -16 -6c-28 0 -40 18 -40 41s12 41 42 41c47 0 63 -49 63 -90c0 -81 -60 -136 -108 -150z" />
    <glyph glyph-name="less" unicode="&#x3c;" 
d="M63 347l422 251v-52l-341 -199l341 -199v-52z" />
    <glyph glyph-name="equal" unicode="=" 
d="M82 285h420v-44h-420v44zM82 459h420v-44h-420v44z" />
    <glyph glyph-name="greater" unicode="&#x3e;" 
d="M521 347l-422 -251v52l341 199l-341 199v52z" />
    <glyph glyph-name="question" unicode="?" horiz-adv-x="511" 
d="M60 633c34 37 102 78 207 74c111 -6 184 -62 184 -175c0 -185 -204 -188 -204 -302h-44c0 146 202 139 202 300c0 84 -55 133 -153 133c-86 0 -149 -37 -192 -95v65zM184 35c0 23 12 41 41 41c31 0 42 -18 42 -41s-11 -41 -42 -41c-30 0 -41 18 -41 41z" />
    <glyph glyph-name="at" unicode="@" horiz-adv-x="960" 
d="M624 426v75h37v-332c1 -51 18 -69 66 -69c73 0 128 58 129 183c0 225 -148 376 -376 376c-230 0 -375 -150 -376 -372c0 -222 145 -373 368 -376c82 -1 155 29 198 82v-73c-41 -27 -117 -51 -198 -50c-252 4 -412 175 -412 416c2 242 164 414 420 414
c257 0 420 -173 420 -417c-1 -141 -70 -220 -175 -220c-63 0 -97 26 -101 108c-18 -54 -65 -109 -169 -109c-111 0 -188 65 -188 212c0 168 79 231 193 231c84 0 143 -43 164 -103v24zM623 306c0 102 -63 164 -158 164c-94 0 -159 -51 -159 -192c0 -128 64 -180 159 -180
c105 0 158 65 158 164v44z" />
    <glyph glyph-name="A" unicode="A" horiz-adv-x="699" 
d="M323 700h51l313 -700h-52l-92 205h-391l-90 -205h-51zM347 645l-175 -396h352z" />
    <glyph glyph-name="B" unicode="B" horiz-adv-x="690" 
d="M373 0h-273v700h291c137 0 216 -51 216 -170c0 -85 -42 -141 -119 -165c92 -14 140 -70 140 -161c0 -145 -97 -204 -255 -204zM148 44h230c130 0 202 51 202 159c0 90 -63 136 -185 136h-247v-295zM148 380h241c110 0 170 63 170 142c0 93 -58 134 -178 134h-233v-276z
" />
    <glyph glyph-name="C" unicode="C" horiz-adv-x="698" 
d="M658 158v-77c-35 -42 -129 -91 -253 -91c-222 4 -355 141 -355 361c0 207 141 359 357 359c115 0 202 -43 238 -81v-83c-41 71 -133 120 -238 120c-180 0 -307 -124 -307 -316c0 -181 110 -309 301 -316c128 0 218 57 257 124z" />
    <glyph glyph-name="D" unicode="D" horiz-adv-x="745" 
d="M100 700h228c235 0 367 -121 367 -336c0 -263 -172 -364 -381 -364h-214v700zM148 44h161c210 0 336 107 336 315c0 195 -115 297 -326 297h-171v-612z" />
    <glyph glyph-name="E" unicode="E" horiz-adv-x="629" 
d="M529 382v-44h-381v-294h430v-44h-478v700h467v-44h-419v-274h381z" />
    <glyph glyph-name="F" unicode="F" horiz-adv-x="604" 
d="M548 352v-44h-400v-308h-48v700h468v-44h-420v-304h400z" />
    <glyph glyph-name="G" unicode="G" horiz-adv-x="739" 
d="M407 -10c-223 3 -357 140 -357 361c0 206 140 358 355 359c115 0 202 -43 238 -81v-83c-41 71 -133 120 -238 120c-179 -1 -305 -125 -305 -316c0 -186 116 -315 315 -316c100 1 175 36 210 73v201h-225v44h270v-263c-37 -49 -145 -99 -263 -99z" />
    <glyph glyph-name="H" unicode="H" horiz-adv-x="788" 
d="M640 0v338h-492v-338h-48v700h48v-318h492v318h48v-700h-48z" />
    <glyph glyph-name="I" unicode="I" horiz-adv-x="248" 
d="M148 700v-700h-48v700h48z" />
    <glyph glyph-name="J" unicode="J" horiz-adv-x="410" 
d="M310 700v-538c0 -111 -64 -167 -162 -167c-53 0 -99 18 -122 38v66c27 -38 73 -60 117 -60c76 0 119 41 119 126v535h48z" />
    <glyph glyph-name="K" unicode="K" horiz-adv-x="713" 
d="M148 335v-335h-48v700h48v-323h149l300 323h62l-319 -341l357 -359h-64l-334 335h-151z" />
    <glyph glyph-name="L" unicode="L" horiz-adv-x="604" 
d="M148 700v-656h430v-44h-478v700h48z" />
    <glyph glyph-name="M" unicode="M" horiz-adv-x="905" 
d="M757 0v632l-291 -466h-21l-297 459v-625h-48v700h59l298 -467l291 467h57v-700h-48z" />
    <glyph glyph-name="N" unicode="N" horiz-adv-x="798" 
d="M647 0l-499 625v-625h-48v700h51l499 -625v625h48v-700h-51z" />
    <glyph glyph-name="O" unicode="O" horiz-adv-x="814" 
d="M404 710h3c223 -3 357 -141 357 -361c0 -206 -140 -357 -353 -359c-226 2 -361 139 -361 361c0 204 137 355 354 359zM100 350c0 -186 116 -315 315 -316c176 3 299 127 299 316c0 186 -116 317 -315 316c-176 -1 -299 -127 -299 -316z" />
    <glyph glyph-name="P" unicode="P" horiz-adv-x="655" 
d="M303 246h-155v-246h-48v700h222c177 0 277 -67 277 -224c0 -154 -105 -230 -296 -230zM317 656h-169v-366h152c163 0 249 57 249 189c0 129 -81 177 -232 177z" />
    <glyph glyph-name="Q" unicode="Q" horiz-adv-x="814" 
d="M632 -180h-60l-143 171c-7 -1 -15 -1 -22 -1c-223 3 -357 140 -357 361c0 204 137 358 357 359c223 1 357 -141 357 -361c0 -182 -109 -321 -281 -352zM406 666c-176 -1 -306 -127 -306 -316c0 -186 116 -315 315 -316c176 3 299 127 299 316c0 186 -117 317 -308 316z
" />
    <glyph glyph-name="R" unicode="R" horiz-adv-x="681" 
d="M580 0l-184 253c-29 -5 -61 -7 -96 -7h-152v-246h-48v700h219c177 0 277 -67 277 -224c0 -109 -53 -178 -150 -210l193 -266h-59zM314 656h-166v-366h149c163 0 249 57 249 189c0 129 -81 177 -232 177z" />
    <glyph glyph-name="S" unicode="S" horiz-adv-x="631" 
d="M548 547c-41 71 -133 120 -235 120c-120 -2 -191 -49 -191 -130c0 -207 446 -96 446 -357c0 -114 -92 -190 -245 -190c-126 0 -224 49 -261 91v77c41 -67 135 -124 266 -124c107 0 190 46 190 145c0 210 -445 100 -445 356c0 115 103 176 240 176c112 0 199 -43 235 -81
v-83z" />
    <glyph glyph-name="T" unicode="T" horiz-adv-x="614" 
d="M604 700v-44h-273v-656h-48v656h-273v44h594z" />
    <glyph glyph-name="U" unicode="U" horiz-adv-x="750" 
d="M143 700v-413c0 -185 90 -253 239 -253c133 0 225 64 225 241v425h48v-422c0 -208 -113 -288 -278 -288c-187 0 -282 97 -282 289v421h48z" />
    <glyph glyph-name="V" unicode="V" horiz-adv-x="689" 
d="M366 0h-42l-313 700h52l283 -634l281 634h51z" />
    <glyph glyph-name="W" unicode="W" horiz-adv-x="928" 
d="M24 700h50l166 -616l209 616h43l204 -616l160 616h48l-180 -700h-46l-209 622l-214 -622h-47z" />
    <glyph glyph-name="X" unicode="X" horiz-adv-x="652" 
d="M19 0l271 359l-253 341h57l229 -308l243 308h56l-267 -338l278 -362h-57l-254 328l-247 -328h-56z" />
    <glyph glyph-name="Y" unicode="Y" horiz-adv-x="626" 
d="M618 700l-280 -420v-280h-48v280l-282 420h56l252 -373l247 373h55z" />
    <glyph glyph-name="Z" unicode="Z" horiz-adv-x="612" 
d="M46 656v44h537v-30l-486 -626h475v-44h-542v30l487 626h-471z" />
    <glyph glyph-name="bracketleft" unicode="[" horiz-adv-x="328" 
d="M80 -180v930h212v-44h-168v-842h170v-44h-214z" />
    <glyph glyph-name="backslash" unicode="\" horiz-adv-x="278" 
d="M50 750l248 -930h-46l-248 930h46z" />
    <glyph glyph-name="bracketright" unicode="]" horiz-adv-x="329" 
d="M249 750v-930h-212v44h168v842h-171v44h215z" />
    <glyph glyph-name="asciicircum" unicode="^" 
d="M124 351h-51l182 349h74l182 -349h-51l-168 326z" />
    <glyph glyph-name="underscore" unicode="_" horiz-adv-x="260" 
d="M0 -180v44h260v-44h-260z" />
    <glyph glyph-name="quoteleft" unicode="&#x2018;" horiz-adv-x="293" 
d="M240 689c-65 -16 -96 -81 -81 -118c3 3 7 6 13 6c28 0 39 -17 39 -38c0 -20 -11 -37 -39 -37c-40 0 -60 35 -60 82c0 72 57 123 102 135z" />
    <glyph glyph-name="a" unicode="a" horiz-adv-x="517" 
d="M395 238h-148c-102 0 -157 -25 -157 -97c0 -66 51 -106 130 -106c112 0 173 86 175 152v51zM79 460c33 27 93 50 170 50c121 0 191 -43 191 -182v-328h-43v114c-26 -74 -98 -122 -188 -122c-99 0 -165 53 -165 146c0 105 78 138 203 138h148v51c0 100 -46 142 -146 142
c-78 0 -136 -29 -170 -82v73z" />
    <glyph glyph-name="b" unicode="b" horiz-adv-x="592" 
d="M83 750h45v-367c20 62 75 127 197 127c131 0 221 -76 221 -249c0 -197 -93 -272 -227 -272c-101 0 -169 51 -193 123v-112h-43v750zM313 31c111 0 187 59 187 225c0 151 -75 212 -187 212c-114 0 -177 -66 -185 -168v-103c10 -104 81 -166 185 -166z" />
    <glyph glyph-name="c" unicode="c" horiz-adv-x="498" 
d="M450 51c-23 -31 -78 -61 -163 -61c-149 0 -241 87 -241 262c0 170 104 258 239 258c67 0 127 -23 160 -50v-73c-34 53 -92 82 -160 82c-117 0 -193 -73 -193 -217v-3c0 -149 77 -218 195 -218c83 0 138 37 163 82v-62z" />
    <glyph glyph-name="d" unicode="d" horiz-adv-x="593" 
d="M465 750h44v-750h-42v125c-18 -65 -71 -136 -200 -136c-130 0 -220 76 -220 249c0 197 92 272 227 272c98 0 166 -50 191 -120v360zM465 215v61c0 119 -74 192 -186 192c-110 0 -187 -59 -187 -225c0 -151 76 -212 187 -212c120 0 183 73 186 184z" />
    <glyph glyph-name="e" unicode="e" horiz-adv-x="546" 
d="M285 510c135 0 216 -88 216 -236v-37h-409c4 -141 80 -206 195 -206c96 0 157 37 184 82v-62c-25 -31 -86 -61 -184 -61c-149 0 -241 87 -241 262c0 170 104 258 239 258zM285 469c-110 0 -184 -65 -192 -192h363v3c0 124 -70 189 -171 189z" />
    <glyph glyph-name="f" unicode="f" horiz-adv-x="335" 
d="M24 500h90v74c0 132 71 181 158 181c51 0 80 -17 93 -28v-62c-18 28 -55 46 -96 46c-59 0 -110 -29 -110 -137v-74h167v-42h-167v-458h-45v458h-90v42z" />
    <glyph glyph-name="g" unicode="g" horiz-adv-x="593" 
d="M465 23v96c-20 -64 -73 -130 -198 -130c-130 0 -220 76 -220 249c0 197 92 272 227 272c99 0 169 -53 193 -124v19v95h43v-476c0 -147 -79 -211 -231 -211c-86 0 -161 35 -189 64v68c28 -45 91 -90 190 -90c121 0 185 48 185 168zM465 215v61c0 119 -74 192 -186 192
c-110 0 -187 -59 -187 -225c0 -151 76 -212 187 -212c120 0 183 73 186 184z" />
    <glyph glyph-name="h" unicode="h" horiz-adv-x="579" 
d="M457 0v315c0 112 -54 153 -154 153c-118 0 -175 -67 -175 -175v-293h-45v750h45v-356c20 66 81 115 189 115h2c115 -1 183 -58 183 -180v-329h-45z" />
    <glyph glyph-name="i" unicode="i" horiz-adv-x="240" 
d="M86 726c0 19 14 32 34 32c21 0 34 -13 34 -32s-13 -32 -34 -32c-20 0 -34 13 -34 32zM98 0v500h45v-500h-45z" />
    <glyph glyph-name="j" unicode="j" horiz-adv-x="237" 
d="M97 -36v536h45v-534c0 -98 -31 -152 -122 -152c-30 0 -59 10 -74 19v59c19 -22 46 -34 75 -34c49 0 76 24 76 106zM85 726c0 19 14 32 35 32s34 -13 34 -32s-14 -32 -34 -32c-21 0 -35 13 -35 32z" />
    <glyph glyph-name="k" unicode="k" horiz-adv-x="525" 
d="M83 750h45v-473h112l177 223h53l-192 -239l224 -261h-58l-204 237h-112v-237h-45v750z" />
    <glyph glyph-name="l" unicode="l" horiz-adv-x="296" 
d="M278 48v-42c-16 -9 -48 -16 -77 -16c-78 0 -118 39 -118 125v635h45v-623c0 -68 23 -93 80 -93c24 0 54 6 70 14z" />
    <glyph glyph-name="m" unicode="m" horiz-adv-x="847" 
d="M404 0v325c0 89 -37 143 -131 143c-95 0 -145 -70 -145 -164v-304h-45v500h44v-104c16 66 75 114 157 114c90 0 144 -47 160 -119c19 72 78 119 161 119c106 0 165 -59 165 -178v-332h-45v320c0 98 -38 148 -130 148c-99 0 -146 -69 -146 -162v-306h-45z" />
    <glyph glyph-name="n" unicode="n" horiz-adv-x="579" 
d="M457 0v315c0 112 -54 153 -154 153c-118 0 -175 -67 -175 -175v-293h-45v500h44v-106c21 66 82 115 190 115c116 0 185 -57 185 -180v-329h-45z" />
    <glyph glyph-name="o" unicode="o" horiz-adv-x="572" 
d="M46 252c0 170 104 258 239 258c148 -1 240 -88 240 -262c0 -170 -104 -258 -239 -258c-149 1 -240 87 -240 262zM92 252v-3c0 -149 76 -218 194 -218c117 0 193 73 193 217v3c0 149 -77 218 -195 218c-117 -1 -192 -74 -192 -217z" />
    <glyph glyph-name="p" unicode="p" horiz-adv-x="592" 
d="M83 -180v680h43v-111v-12c19 64 73 133 200 133c130 0 220 -76 220 -249c0 -197 -92 -272 -227 -272c-99 0 -166 49 -191 120v-289h-45zM128 283v-60c0 -119 74 -192 186 -192c110 0 187 59 187 225c0 151 -76 212 -187 212c-120 0 -183 -74 -186 -185z" />
    <glyph glyph-name="q" unicode="q" horiz-adv-x="593" 
d="M466 387v113h44v-680h-45v299c-20 -64 -74 -130 -198 -130c-131 0 -221 76 -221 249c0 197 93 272 227 272c100 0 168 -51 193 -123zM279 468c-111 0 -187 -59 -187 -225c0 -151 75 -212 187 -212c123 0 186 77 186 193v61c-4 114 -77 183 -186 183z" />
    <glyph glyph-name="r" unicode="r" horiz-adv-x="358" 
d="M258 468c-89 0 -131 -67 -130 -175v-293h-45v500h44v-106c15 65 59 114 139 115c24 0 52 -8 62 -17v-53c-16 18 -40 28 -70 29z" />
    <glyph glyph-name="s" unicode="s" horiz-adv-x="478" 
d="M408 387c-34 53 -92 82 -160 82h-2c-83 0 -139 -32 -139 -93c0 -141 318 -61 318 -242c0 -91 -66 -143 -189 -144c-88 0 -151 30 -178 61v62c29 -45 93 -82 178 -82c91 0 144 36 144 99c0 142 -318 65 -318 242c0 80 61 138 186 138c67 0 127 -23 160 -50v-73z" />
    <glyph glyph-name="t" unicode="t" horiz-adv-x="409" 
d="M26 500h96v109l46 19v-128h198v-42h-198v-312c0 -87 29 -114 104 -114c47 0 83 11 112 26v-41c-22 -13 -67 -27 -114 -27c-100 0 -148 40 -148 145v323h-96v42z" />
    <glyph glyph-name="u" unicode="u" horiz-adv-x="573" 
d="M122 500v-315c0 -110 52 -152 148 -153h3c116 0 172 67 172 175v293h45v-500h-44v106c-21 -66 -79 -114 -184 -115h-2h-2c-114 2 -181 58 -181 180v329h45z" />
    <glyph glyph-name="v" unicode="v" horiz-adv-x="489" 
d="M228 0l-212 500h50l183 -435l176 435h48l-207 -500h-38z" />
    <glyph glyph-name="w" unicode="w" horiz-adv-x="743" 
d="M165 0l-135 500h47l117 -433l157 433h44l160 -430l113 430h45l-135 -500h-46l-159 440l-162 -440h-46z" />
    <glyph glyph-name="x" unicode="x" horiz-adv-x="482" 
d="M19 0l191 257l-179 243h57l151 -207l156 207h54l-183 -239l197 -261h-56l-169 225l-165 -225h-54z" />
    <glyph glyph-name="y" unicode="y" horiz-adv-x="502" 
d="M249 -2l-223 502h52l195 -443l166 443h49l-213 -553c-38 -99 -78 -134 -132 -134c-27 0 -54 9 -67 19v54c13 -15 38 -29 65 -29c35 0 70 22 108 141z" />
    <glyph glyph-name="z" unicode="z" horiz-adv-x="462" 
d="M427 0h-395v35l334 423h-317v42h377v-35l-337 -423h338v-42z" />
    <glyph glyph-name="braceleft" unicode="{" horiz-adv-x="388" 
d="M34 263v44c78 0 110 45 110 120v189c0 97 40 134 133 134h77v-44h-76c-65 0 -90 -25 -90 -91v-189c0 -78 -23 -125 -101 -141c78 -16 101 -64 101 -141v-189c0 -66 25 -91 90 -91h76v-44h-77c-93 0 -133 37 -133 134v189c0 75 -32 120 -110 120z" />
    <glyph glyph-name="bar" unicode="|" horiz-adv-x="244" 
d="M100 -180v930h44v-930h-44z" />
    <glyph glyph-name="braceright" unicode="}" horiz-adv-x="388" 
d="M354 307v-44c-78 0 -110 -45 -110 -120v-189c0 -97 -40 -134 -133 -134h-77v44h76c65 0 90 25 90 91v189c0 77 23 125 101 141c-78 16 -101 63 -101 141v189c0 66 -25 91 -90 91h-76v44h77c93 0 133 -37 133 -134v-189c0 -75 32 -120 110 -120z" />
    <glyph glyph-name="asciitilde" unicode="~" 
d="M82 300v47c31 29 71 46 111 46c81 0 142 -86 217 -86c34 0 71 16 92 45v-51c-26 -25 -63 -38 -96 -38c-90 0 -146 86 -218 86c-41 0 -74 -19 -106 -49z" />
    <glyph glyph-name="exclamdown" unicode="&#xa1;" horiz-adv-x="299" 
d="M126 -200v470h48v-470h-48zM191 465c0 -23 -12 -41 -41 -41c-31 0 -42 18 -42 41s11 41 42 41c30 0 41 -18 41 -41z" />
    <glyph glyph-name="cent" unicode="&#xa2;" horiz-adv-x="518" 
d="M460 51c-22 -30 -73 -58 -150 -61v-118h-44v120c-131 11 -209 97 -209 260c0 157 88 244 209 256v120h44v-119c61 -3 114 -24 145 -49v-73c-34 53 -92 82 -160 82c-117 0 -193 -73 -193 -217v-3c0 -149 77 -218 195 -218c83 0 138 37 163 82v-62z" />
    <glyph glyph-name="sterling" unicode="&#xa3;" horiz-adv-x="620" 
d="M80 367h84v118c0 137 70 225 207 225c67 0 127 -23 160 -50v-73c-34 53 -92 82 -160 82c-105 0 -162 -67 -162 -177v-125h291v-44h-291v-279h331v-44h-461v44h85v279h-84v44z" />
    <glyph glyph-name="fraction" unicode="&#x2044;" horiz-adv-x="394" 
d="M475 700l-504 -700h-52l507 700h49z" />
    <glyph glyph-name="yen" unicode="&#xa5;" horiz-adv-x="620" 
d="M100 327h157l-239 373h53l242 -373l238 373h52l-239 -373h156v-44h-185v-117h185v-44h-185v-122h-48v122h-187v44h187v117h-187v44z" />
    <glyph glyph-name="florin" unicode="&#x192;" horiz-adv-x="416" 
d="M48 496h89l8 74c14 131 71 181 158 181c51 0 80 -17 93 -28v-62c-18 28 -54 46 -96 46c-59 0 -99 -29 -110 -137l-8 -74h168v-42h-173l-50 -485c-6 -97 -38 -151 -129 -151c-29 0 -58 10 -73 19v59c19 -22 45 -34 75 -34c49 0 76 24 82 105l51 487h-85v42z" />
    <glyph glyph-name="section" unicode="&#xa7;" horiz-adv-x="519" 
d="M420 586c-34 53 -92 82 -160 82c-77 -1 -113 -36 -113 -77c0 -121 294 -80 294 -253c0 -68 -37 -117 -107 -138c50 -22 89 -53 89 -113c0 -70 -53 -124 -167 -125c-67 0 -127 23 -160 50v73c34 -53 92 -82 160 -82c74 0 122 31 122 82c0 126 -300 73 -300 250
c0 71 40 120 115 138c-51 23 -91 54 -91 115c0 65 46 119 158 121c67 0 127 -23 160 -50v-73zM123 343c0 -78 82 -98 160 -124c59 14 113 46 113 114c0 71 -75 94 -149 120c-82 -10 -124 -50 -124 -110z" />
    <glyph glyph-name="currency" unicode="&#xa4;" horiz-adv-x="620" 
d="M146 368c0 39 11 73 31 99l-91 92l31 31l92 -93c28 19 64 30 106 30c37 0 70 -10 96 -27l90 90l31 -31l-90 -90c20 -26 31 -60 31 -101c0 -40 -11 -75 -31 -101l92 -92l-31 -31l-93 92c-27 -19 -62 -30 -103 -30c-38 0 -71 10 -97 28l-92 -92l-31 31l92 92
c-21 27 -33 62 -33 103zM187 368c0 -72 51 -121 125 -121s121 48 121 121c0 74 -48 118 -123 118c-74 0 -123 -44 -123 -118z" />
    <glyph glyph-name="quotesingle" unicode="'" horiz-adv-x="282" 
d="M118 430v270h46v-270h-46z" />
    <glyph glyph-name="quotedblleft" unicode="&#x201c;" horiz-adv-x="493" 
d="M240 689c-65 -16 -96 -81 -81 -118c3 3 7 6 13 6c28 0 39 -17 39 -38c0 -20 -11 -37 -39 -37c-40 0 -60 35 -60 82c0 72 57 123 102 135zM440 689c-65 -16 -96 -81 -81 -118c3 3 7 6 13 6c28 0 39 -17 39 -38c0 -20 -11 -37 -39 -37c-40 0 -60 35 -60 82
c0 72 57 123 102 135z" />
    <glyph glyph-name="guillemotleft" unicode="&#xab;" horiz-adv-x="471" 
d="M415 89v-57l-195 218l195 218v-58l-144 -160zM235 89v-57l-195 218l195 218v-58l-144 -160z" />
    <glyph glyph-name="guilsinglleft" unicode="&#x2039;" horiz-adv-x="291" 
d="M235 89v-57l-195 218l195 218v-58l-144 -160z" />
    <glyph glyph-name="guilsinglright" unicode="&#x203a;" horiz-adv-x="291" 
d="M56 411v57l195 -218l-195 -218v58l144 160z" />
    <glyph glyph-name="endash" unicode="&#x2013;" horiz-adv-x="707" 
d="M120 271v44h467v-44h-467z" />
    <glyph glyph-name="dagger" unicode="&#x2020;" horiz-adv-x="520" 
d="M270 -100h-20l-25 400v1l24 184l-189 -22v70l190 -24l-24 191h70l-24 -191l188 23v-70l-187 23l22 -184v-1z" />
    <glyph glyph-name="daggerdbl" unicode="&#x2021;" horiz-adv-x="520" 
d="M60 463v70l190 -24l-24 191h70l-24 -191l188 23v-70l-187 23l22 -184v-1l-24 -190l189 23v-70l-189 23l23 -185h-70l24 186l-188 -22v70l187 -24l-22 189v1l23 184z" />
    <glyph glyph-name="periodcentered" unicode="&#xb7;" horiz-adv-x="304" 
d="M110 335c0 23 12 41 42 41s42 -18 42 -41s-12 -41 -42 -41c-31 0 -42 18 -42 41z" />
    <glyph glyph-name="paragraph" unicode="&#xb6;" horiz-adv-x="672" 
d="M528 -180v888h-180v-888h-44v423h-12c-148 0 -245 69 -245 253c0 174 97 254 245 254h280v-930h-44zM92 500c0 -162 78 -216 202 -216h10v424h-7c-127 0 -205 -63 -205 -208z" />
    <glyph glyph-name="bullet" unicode="&#x2022;" horiz-adv-x="334" 
d="M104 327c0 35 18 62 63 62c46 0 63 -27 63 -62c0 -34 -17 -62 -63 -62s-63 28 -63 62z" />
    <glyph glyph-name="quotesinglbase" unicode="&#x201a;" horiz-adv-x="293" 
d="M53 -107c65 17 96 81 81 118c-3 -3 -7 -5 -13 -5c-28 0 -39 16 -39 37s11 37 39 37c41 0 60 -42 60 -81c0 -73 -57 -123 -102 -136z" />
    <glyph glyph-name="quotedblbase" unicode="&#x201e;" horiz-adv-x="493" 
d="M253 -107c65 17 96 81 81 118c-3 -3 -7 -5 -13 -5c-28 0 -39 16 -39 37s11 37 39 37c41 0 60 -42 60 -81c0 -73 -57 -123 -102 -136zM53 -107c65 17 96 81 81 118c-3 -3 -7 -5 -13 -5c-28 0 -39 16 -39 37s11 37 39 37c41 0 60 -42 60 -81c0 -73 -57 -123 -102 -136z" />
    <glyph glyph-name="quotedblright" unicode="&#x201d;" horiz-adv-x="493" 
d="M253 523c65 17 96 81 81 118c-3 -3 -7 -5 -13 -5c-28 0 -39 16 -39 37s11 37 39 37c39 0 60 -35 60 -81c0 -73 -57 -123 -102 -136zM53 523c65 17 96 81 81 118c-3 -3 -7 -5 -13 -5c-28 0 -39 16 -39 37s11 37 39 37c39 0 60 -35 60 -81c0 -73 -57 -123 -102 -136z" />
    <glyph glyph-name="guillemotright" unicode="&#xbb;" horiz-adv-x="471" 
d="M56 411v57l195 -218l-195 -218v58l144 160zM236 411v57l195 -218l-195 -218v58l144 160z" />
    <glyph glyph-name="ellipsis" unicode="&#x2026;" horiz-adv-x="933" 
d="M90 35c0 23 12 41 42 41s42 -18 42 -41s-12 -41 -42 -41c-31 0 -42 18 -42 41zM401 35c0 23 12 41 42 41s42 -18 42 -41s-12 -41 -42 -41c-31 0 -42 18 -42 41zM712 35c0 23 12 41 42 41s42 -18 42 -41s-12 -41 -42 -41c-31 0 -42 18 -42 41z" />
    <glyph glyph-name="perthousand" unicode="&#x2030;" horiz-adv-x="1232" 
d="M64 548c0 97 68 159 168 159c95 0 159 -59 159 -159c0 -99 -67 -162 -166 -162c-96 0 -161 66 -161 162zM105 548c0 -72 51 -121 125 -121c73 0 121 48 121 121c0 74 -48 118 -123 118c-74 0 -123 -44 -123 -118zM450 156c0 97 68 159 168 159c95 0 159 -59 159 -159
c0 -99 -67 -162 -166 -162c-96 0 -161 66 -161 162zM491 156c0 -72 51 -121 125 -121c73 0 121 48 121 121c0 74 -48 118 -123 118c-74 0 -123 -44 -123 -118zM700 700l-504 -700h-53l507 700h50zM836 156c0 97 68 159 168 159c95 0 159 -59 159 -159
c0 -99 -67 -162 -166 -162c-96 0 -161 66 -161 162zM877 156c0 -72 51 -121 125 -121c73 0 121 48 121 121c0 74 -48 118 -123 118c-74 0 -123 -44 -123 -118z" />
    <glyph glyph-name="questiondown" unicode="&#xbf;" horiz-adv-x="511" 
d="M451 -133c-34 -37 -102 -78 -207 -74c-111 6 -184 62 -184 175c0 185 204 188 204 302h44c0 -146 -202 -139 -202 -300c0 -84 55 -133 153 -133c86 0 149 37 192 95v-65zM327 465c0 -23 -12 -41 -41 -41c-31 0 -42 18 -42 41s11 41 42 41c30 0 41 -18 41 -41z" />
    <glyph glyph-name="grave" unicode="`" horiz-adv-x="264" 
d="M212 590l-140 160h74l100 -160h-34z" />
    <glyph glyph-name="acute" unicode="&#xb4;" horiz-adv-x="254" 
d="M74 590h-34l100 160h74z" />
    <glyph glyph-name="circumflex" unicode="&#x2c6;" horiz-adv-x="406" 
d="M183 750h40l143 -154h-33l-130 109l-130 -109h-33z" />
    <glyph glyph-name="tilde" unicode="&#x2dc;" horiz-adv-x="431" 
d="M391 724c-19 -80 -56 -106 -100 -106c-62 0 -101 60 -154 60c-34 0 -52 -24 -65 -60h-32c27 88 77 105 105 105c62 0 101 -60 150 -60c26 0 50 14 65 61h31z" />
    <glyph glyph-name="macron" unicode="&#xaf;" horiz-adv-x="380" 
d="M40 641v41h300v-41h-300z" />
    <glyph glyph-name="breve" unicode="&#x2d8;" horiz-adv-x="392" 
d="M196 602c-85 0 -140 53 -156 148h29c21 -68 64 -104 127 -104s108 36 126 104h30c-14 -95 -76 -148 -156 -148z" />
    <glyph glyph-name="dotaccent" unicode="&#x2d9;" horiz-adv-x="148" 
d="M40 726c0 19 14 32 34 32c21 0 34 -13 34 -32s-13 -32 -34 -32c-20 0 -34 13 -34 32z" />
    <glyph glyph-name="dieresis" unicode="&#xa8;" horiz-adv-x="356" 
d="M248 726c0 19 14 32 34 32c21 0 34 -13 34 -32s-13 -32 -34 -32c-20 0 -34 13 -34 32zM40 726c0 19 14 32 34 32c21 0 34 -13 34 -32s-13 -32 -34 -32c-20 0 -34 13 -34 32z" />
    <glyph glyph-name="ring" unicode="&#x2da;" horiz-adv-x="282" 
d="M40 689c0 57 37 99 101 99s101 -42 101 -99c0 -59 -39 -99 -101 -99s-101 41 -101 99zM74 689c0 -38 27 -67 67 -67s67 27 67 67c0 38 -25 67 -67 67c-40 0 -67 -27 -67 -67z" />
    <glyph glyph-name="cedilla" unicode="&#xb8;" horiz-adv-x="269" 
d="M136 0l-22 -65c74 -7 115 -31 115 -77c0 -77 -110 -108 -189 -108v26c66 0 141 26 141 78c0 39 -46 53 -111 54l31 92h35z" />
    <glyph glyph-name="hungarumlaut" unicode="&#x2dd;" horiz-adv-x="420" 
d="M74 590h-34l74 160h67zM228 590h-34l109 160h77z" />
    <glyph glyph-name="ogonek" unicode="&#x2db;" horiz-adv-x="258" 
d="M205 0c-80 -47 -115 -97 -115 -144c0 -46 34 -71 83 -71c14 0 29 2 45 6v-26c-15 -7 -39 -15 -70 -15c-72 0 -108 44 -108 95c0 62 49 120 149 172z" />
    <glyph glyph-name="caron" unicode="&#x2c7;" horiz-adv-x="406" 
d="M223 596h-40l-143 154h33l130 -109l130 109h33z" />
    <glyph glyph-name="emdash" unicode="&#x2014;" horiz-adv-x="907" 
d="M120 271v44h667v-44h-667z" />
    <glyph glyph-name="AE" unicode="&#xc6;" horiz-adv-x="991" 
d="M888 382v-44h-366v-294h418v-44h-466v217h-278l-134 -217h-51l435 700h483v-44h-407v-274h366zM468 656l-245 -395h251v395h-6z" />
    <glyph glyph-name="ordfeminine" unicode="&#xaa;" horiz-adv-x="417" 
d="M83 573v59c22 12 65 32 137 32c73 -2 121 -23 121 -102v-212h-37v66c-21 -40 -67 -71 -129 -71c-69 0 -111 36 -111 94c0 69 56 89 142 89h97v29c0 48 -34 66 -87 69c-55 0 -105 -21 -133 -53zM303 462v37h-96c-68 0 -101 -17 -101 -58c0 -35 27 -58 77 -58
c74 0 114 50 120 79z" />
    <glyph glyph-name="Lslash" unicode="&#x141;" horiz-adv-x="626" 
d="M366 494v-51l-196 -154v-245h430v-44h-478v251l-104 -81l-1 48l105 83v399h48v-361z" />
    <glyph glyph-name="Oslash" unicode="&#xd8;" horiz-adv-x="814" 
d="M230 -86l36 99c-137 49 -216 169 -216 338c0 204 137 359 349 359c41 0 80 -5 115 -14l34 92l42 -15l-33 -90c131 -51 207 -169 207 -334c0 -207 -141 -359 -357 -359c-35 1 -68 4 -98 11l-37 -102zM399 666c-176 -4 -299 -127 -299 -316c0 -140 65 -247 182 -293
l217 596c-31 8 -64 13 -100 13zM415 34c176 3 299 127 299 316c0 136 -62 241 -173 288l-216 -594c27 -6 58 -10 90 -10z" />
    <glyph glyph-name="OE" unicode="&#x152;" horiz-adv-x="1076" 
d="M1014 700v-44h-409v-274h372v-44h-372v-294h420v-44h-608c-235 0 -367 121 -367 336c0 263 172 364 381 364h583zM100 341c0 -195 115 -297 326 -297h131v612h-121c-210 0 -336 -107 -336 -315z" />
    <glyph glyph-name="ordmasculine" unicode="&#xba;" horiz-adv-x="447" 
d="M60 508c0 97 68 159 168 159c95 0 159 -59 159 -159c0 -99 -67 -162 -166 -162c-96 0 -161 66 -161 162zM101 508c0 -72 51 -121 125 -121c73 0 121 48 121 121c0 74 -48 118 -123 118c-74 0 -123 -44 -123 -118z" />
    <glyph glyph-name="ae" unicode="&#xe6;" horiz-adv-x="879" 
d="M804 51c-25 -31 -86 -61 -184 -61c-108 0 -186 46 -220 138c-22 -82 -96 -136 -191 -136c-99 0 -165 53 -165 146c0 105 78 138 203 138h133v39c0 100 -43 143 -122 151c-68 7 -134 -28 -173 -83v76c38 27 106 51 172 49c81 -4 137 -38 159 -106c41 71 115 108 202 108
c135 0 216 -88 216 -236v-37h-409c4 -141 80 -206 195 -206c96 0 157 37 184 82v-62zM618 469c-110 0 -184 -65 -192 -192h363v3c0 124 -70 189 -171 189zM220 35c96 0 154 63 170 123c-6 24 -9 50 -10 80h-133c-102 0 -157 -25 -157 -97c0 -66 51 -106 130 -106z" />
    <glyph glyph-name="dotlessi" unicode="&#x131;" horiz-adv-x="222" 
d="M83 0v500h45v-500h-45z" />
    <glyph glyph-name="lslash" unicode="&#x142;" horiz-adv-x="331" 
d="M298 503v-51l-144 -132v-193c0 -68 23 -93 80 -93c24 0 54 6 70 14v-42c-16 -9 -48 -16 -78 -16c-77 0 -117 39 -117 125v164l-89 -81l-1 48l90 83v421h45v-380z" />
    <glyph glyph-name="oslash" unicode="&#xf8;" horiz-adv-x="572" 
d="M363 500l37 101l37 -14l-37 -100c79 -37 125 -116 125 -239c0 -170 -104 -258 -239 -258c-23 0 -45 3 -65 7l-39 -109l-37 14l38 105c-86 34 -136 115 -136 245c0 170 103 258 238 258c28 0 54 -3 78 -10zM92 252v-3c0 -107 39 -173 106 -202l151 413c-20 6 -42 9 -65 9
c-117 -1 -192 -74 -192 -217zM286 31c117 0 193 73 193 217v3c0 100 -35 164 -93 195l-150 -410c15 -3 32 -5 50 -5z" />
    <glyph glyph-name="oe" unicode="&#x153;" horiz-adv-x="934" 
d="M673 510c135 0 216 -88 216 -236v-37h-409c4 -141 80 -206 195 -206c96 0 157 37 184 82v-62c-25 -31 -86 -61 -184 -61c-101 0 -168 33 -208 106c-23 -54 -81 -107 -200 -107c-130 0 -220 76 -220 249c0 197 92 272 227 272c97 0 167 -42 195 -111
c39 71 113 111 204 111zM279 468c-110 0 -187 -59 -187 -225c0 -151 76 -212 187 -212c88 0 146 40 171 106c-11 33 -16 71 -16 115c0 40 6 75 16 106c-26 69 -88 110 -171 110zM481 277h363v3c0 124 -70 189 -171 189c-110 0 -184 -65 -192 -192z" />
    <glyph glyph-name="germandbls" unicode="&#xdf;" horiz-adv-x="665" 
d="M379 450c-33 -15 -72 -36 -72 -85c0 -121 305 -56 305 -226c0 -91 -66 -148 -189 -149c-85 0 -140 30 -163 61v62c25 -45 80 -82 163 -82c88 0 144 33 144 105c0 131 -306 67 -306 227c0 69 52 104 96 121c73 34 103 65 103 119c0 62 -40 111 -144 111
c-142 0 -187 -73 -188 -214v-500h-45v500c0 157 56 255 239 255c143 0 183 -83 183 -149c0 -86 -57 -124 -126 -156z" />
    <glyph glyph-name="onesuperior" unicode="&#xb9;" horiz-adv-x="273" 
d="M153 450v305l-115 -61v40l128 70h27v-354h-40z" />
    <glyph glyph-name="logicalnot" unicode="&#xac;" 
d="M457 161v162h-375v44h420v-206h-45z" />
    <glyph glyph-name="mu" unicode="&#xb5;" horiz-adv-x="620" 
d="M149 500v-315c0 -110 52 -152 149 -153h3c115 0 171 67 171 175v293h45v-500h-43v106c-21 -66 -81 -115 -187 -115c-60 1 -107 16 -138 48v-219h-45v680h45z" />
    <glyph glyph-name="mu" unicode="&#x3bc;" horiz-adv-x="620" 
d="M149 500v-315c0 -110 52 -152 149 -153h3c115 0 171 67 171 175v293h45v-500h-43v106c-21 -66 -81 -115 -187 -115c-60 1 -107 16 -138 48v-219h-45v680h45z" />
    <glyph glyph-name="trademark" unicode="&#x2122;" horiz-adv-x="933" 
d="M788 350v298l-134 -193h-23l-135 192v-297h-40v350h51l137 -196l135 196h49v-350h-40zM197 350v312h-142v38h323v-38h-141v-312h-40z" />
    <glyph glyph-name="Eth" unicode="&#xd0;" horiz-adv-x="770" 
d="M126 700h228c235 0 367 -121 367 -336c0 -263 -172 -364 -381 -364h-214v338h-119v44h119v318zM366 382v-44h-192v-294h161c210 0 336 107 336 315c0 195 -115 297 -326 297h-171v-274h192z" />
    <glyph glyph-name="onehalf" unicode="&#xbd;" horiz-adv-x="791" 
d="M629 700l-504 -700h-52l507 700h49zM175 350v305l-115 -61v40l128 70h27v-354h-40zM731 36v-36h-293v24c178 102 232 143 232 211c0 47 -32 79 -91 81c-51 2 -101 -21 -129 -53v59c22 12 65 33 133 32c79 -1 127 -42 127 -111c0 -60 -27 -111 -147 -183l-39 -24h207z" />
    <glyph glyph-name="plusminus" unicode="&#xb1;" 
d="M266 262v111h-184v44h184v181h44v-181h192v-44h-192v-111h-44zM82 192h420v-44h-420v44z" />
    <glyph glyph-name="Thorn" unicode="&#xde;" horiz-adv-x="647" 
d="M148 700v-100h166c177 0 277 -67 277 -224c0 -154 -105 -230 -296 -230h-147v-146h-48v700h48zM309 556h-161v-366h144c163 0 249 57 249 189c0 129 -81 177 -232 177z" />
    <glyph glyph-name="onequarter" unicode="&#xbc;" horiz-adv-x="774" 
d="M641 700l-504 -700h-52l507 700h49zM175 350v305l-115 -61v40l128 70h27v-354h-40zM386 118l220 232h40v-227h68v-36h-68v-87h-40v87h-220v31zM441 123h165v173z" />
    <glyph glyph-name="divide" unicode="&#xf7;" 
d="M82 367h420v-44h-420v44zM258 515c0 19 13 32 34 32s34 -13 34 -32s-14 -32 -34 -32c-21 0 -34 13 -34 32zM258 170c0 19 14 32 34 32c21 0 34 -13 34 -32s-13 -32 -34 -32c-20 0 -34 13 -34 32z" />
    <glyph glyph-name="brokenbar" unicode="&#xa6;" horiz-adv-x="283" 
d="M113 -180v380h45v-380h-45zM113 370v380h45v-380h-45z" />
    <glyph glyph-name="degree" unicode="&#xb0;" horiz-adv-x="479" 
d="M76 548c0 97 68 159 168 159c95 0 159 -59 159 -159c0 -99 -67 -162 -166 -162c-96 0 -161 66 -161 162zM117 548c0 -72 51 -121 125 -121c73 0 121 48 121 121c0 74 -48 118 -123 118c-74 0 -123 -44 -123 -118z" />
    <glyph glyph-name="thorn" unicode="&#xfe;" horiz-adv-x="593" 
d="M83 750h45v-370c19 63 72 130 198 130c131 0 220 -76 220 -249c0 -197 -92 -272 -226 -272c-99 0 -167 49 -192 120v-289h-45v930zM128 283v-60c0 -119 74 -192 186 -192c110 0 187 59 187 225c0 151 -75 212 -187 212c-120 0 -183 -74 -186 -185z" />
    <glyph glyph-name="threequarters" unicode="&#xbe;" horiz-adv-x="840" 
d="M707 700l-504 -700h-52l507 700h49zM63 672c22 12 65 32 133 32c84 0 125 -38 125 -92c0 -38 -25 -67 -65 -80c60 -9 87 -37 87 -82c0 -64 -54 -104 -153 -104c-70 1 -112 24 -130 38v59c22 -33 71 -59 133 -59c68 0 110 22 110 69c0 37 -31 57 -101 57h-72v36h52
c69 0 100 23 100 60c0 36 -29 58 -90 60c-51 1 -101 -21 -129 -53v59zM452 118l220 232h40v-227h68v-36h-68v-87h-40v87h-220v31zM507 123h165v173z" />
    <glyph glyph-name="twosuperior" unicode="&#xb2;" horiz-adv-x="412" 
d="M347 486v-36h-293v24c178 102 232 143 232 211c0 47 -32 79 -91 81c-51 2 -101 -21 -129 -53v59c22 12 65 33 133 32c79 -1 127 -42 127 -111c0 -60 -27 -111 -147 -183l-39 -24h207z" />
    <glyph glyph-name="registered" unicode="&#xae;" horiz-adv-x="623" 
d="M311 708c154 0 252 -104 252 -250c-2 -144 -98 -248 -251 -248c-154 0 -252 104 -252 251c1 144 98 246 251 247zM537 458c0 135 -89 226 -226 226c-138 -1 -224 -92 -225 -224c0 -135 89 -225 226 -225s223 90 225 223zM214 328v265h91c84 0 120 -27 120 -89
c0 -39 -27 -66 -68 -75l87 -101h-31l-84 98h-89v-98h-26zM399 504c0 51 -31 67 -95 67h-64v-125h82c47 0 76 22 77 58z" />
    <glyph glyph-name="minus" unicode="&#x2212;" 
d="M82 367h420v-44h-420v44z" />
    <glyph glyph-name="eth" unicode="&#xf0;" horiz-adv-x="572" 
d="M186 549l-19 36l128 66c-44 39 -86 63 -113 76l18 27c33 -13 82 -41 131 -85l103 53l19 -37l-90 -46c67 -70 130 -170 153 -307c6 -25 9 -53 9 -84c0 -170 -104 -257 -238 -258c-149 0 -240 87 -240 262c0 169 102 257 237 258c64 0 118 -21 154 -59
c-30 71 -70 127 -111 170zM92 249c0 -149 76 -218 194 -218c117 0 193 73 193 217v3c0 148 -77 217 -194 218c-117 0 -193 -73 -193 -217v-3z" />
    <glyph glyph-name="multiply" unicode="&#xd7;" 
d="M425 181l-133 133l-133 -133l-31 31l133 133l-133 133l31 31l133 -133l133 133l31 -31l-133 -133l133 -133z" />
    <glyph glyph-name="threesuperior" unicode="&#xb3;" horiz-adv-x="399" 
d="M63 772c22 12 65 32 133 32c84 0 125 -38 125 -92c0 -38 -25 -67 -65 -80c60 -9 87 -37 87 -82c0 -64 -54 -104 -153 -104c-70 1 -112 24 -130 38v59c22 -33 71 -59 133 -59c68 0 110 22 110 69c0 37 -31 57 -101 57h-72v36h52c69 0 100 23 100 60c0 36 -29 58 -90 60
c-51 1 -101 -21 -129 -53v59z" />
    <glyph glyph-name="copyright" unicode="&#xa9;" horiz-adv-x="959" 
d="M60 287c2 241 164 412 419 413c257 0 420 -173 420 -417c-3 -241 -164 -412 -419 -413c-257 0 -420 172 -420 416v1zM479 659c-229 0 -374 -150 -375 -372c0 -225 147 -375 375 -376c229 0 374 149 376 372c0 225 -148 376 -376 376zM635 115c-21 -26 -71 -52 -148 -52
c-135 0 -218 75 -218 225c0 146 94 222 216 222c61 0 116 -20 145 -43v-63c-30 46 -83 71 -145 71c-106 0 -175 -63 -175 -187v-2c0 -128 70 -188 177 -188c75 0 125 32 148 71v-54z" />
    <glyph glyph-name="Aacute" unicode="&#xc1;" horiz-adv-x="699" 
d="M323 700h51l313 -700h-52l-92 205h-391l-90 -205h-51zM347 645l-175 -396h352zM375 740h-45l135 120h88z" />
    <glyph glyph-name="Acircumflex" unicode="&#xc2;" horiz-adv-x="699" 
d="M323 700h51l313 -700h-52l-92 205h-391l-90 -205h-51zM347 645l-175 -396h352zM374 860l155 -114h-39l-140 72l-140 -72h-39l155 114h48z" />
    <glyph glyph-name="Adieresis" unicode="&#xc4;" horiz-adv-x="699" 
d="M323 700h51l313 -700h-52l-92 205h-391l-90 -205h-51zM347 645l-175 -396h352zM420 823c0 19 14 32 34 32c21 0 34 -13 34 -32s-13 -32 -34 -32c-20 0 -34 13 -34 32zM212 823c0 19 14 32 34 32c21 0 34 -13 34 -32s-13 -32 -34 -32c-20 0 -34 13 -34 32z" />
    <glyph glyph-name="Agrave" unicode="&#xc0;" horiz-adv-x="699" 
d="M323 700h51l313 -700h-52l-92 205h-391l-90 -205h-51zM347 645l-175 -396h352zM325 740l-178 120h88l135 -120h-45z" />
    <glyph glyph-name="Aring" unicode="&#xc5;" horiz-adv-x="699" 
d="M232 780c0 52 45 80 119 80c72 0 118 -29 118 -80c0 -45 -36 -73 -95 -79l313 -701h-52l-92 205h-391l-90 -205h-51l312 702c-57 6 -91 34 -91 78zM270 780c0 -32 27 -50 81 -50c52 0 80 18 80 50s-28 50 -80 50c-55 0 -81 -18 -81 -50zM347 645l-175 -396h352z" />
    <glyph glyph-name="Atilde" unicode="&#xc3;" horiz-adv-x="699" 
d="M323 700h51l313 -700h-52l-92 205h-391l-90 -205h-51zM347 645l-175 -396h352zM530 848c-25 -82 -63 -102 -105 -102c-61 0 -104 62 -153 62c-36 0 -59 -36 -70 -62h-32c30 88 77 107 111 107c55 0 102 -62 148 -62c33 0 58 27 71 57h30z" />
    <glyph glyph-name="Ccedilla" unicode="&#xc7;" horiz-adv-x="698" 
d="M658 158v-77c-34 -40 -121 -86 -236 -90l-19 -56c74 -7 115 -31 115 -77c0 -77 -110 -108 -189 -108v26c66 0 141 26 141 78c0 39 -46 53 -111 54l28 83c-211 10 -337 146 -337 360c0 207 141 359 357 359c115 0 202 -43 238 -81v-83c-41 71 -133 120 -238 120
c-180 0 -307 -124 -307 -316c0 -181 110 -309 301 -316c128 0 218 57 257 124z" />
    <glyph glyph-name="Eacute" unicode="&#xc9;" horiz-adv-x="629" 
d="M529 382v-44h-381v-294h430v-44h-478v700h467v-44h-419v-274h381zM370 740h-45l135 120h88z" />
    <glyph glyph-name="Ecircumflex" unicode="&#xca;" horiz-adv-x="629" 
d="M529 382v-44h-381v-294h430v-44h-478v700h467v-44h-419v-274h381zM369 860l155 -114h-39l-140 72l-140 -72h-39l155 114h48z" />
    <glyph glyph-name="Edieresis" unicode="&#xcb;" horiz-adv-x="629" 
d="M529 382v-44h-381v-294h430v-44h-478v700h467v-44h-419v-274h381zM415 823c0 19 14 32 34 32c21 0 34 -13 34 -32s-13 -32 -34 -32c-20 0 -34 13 -34 32zM207 823c0 19 14 32 34 32c21 0 34 -13 34 -32s-13 -32 -34 -32c-20 0 -34 13 -34 32z" />
    <glyph glyph-name="Egrave" unicode="&#xc8;" horiz-adv-x="629" 
d="M529 382v-44h-381v-294h430v-44h-478v700h467v-44h-419v-274h381zM320 740l-178 120h88l135 -120h-45z" />
    <glyph glyph-name="Iacute" unicode="&#xcd;" horiz-adv-x="248" 
d="M148 700v-700h-48v700h48zM149 740h-45l135 120h88z" />
    <glyph glyph-name="Icircumflex" unicode="&#xce;" horiz-adv-x="248" 
d="M148 700v-700h-48v700h48zM148 860l155 -114h-39l-140 72l-140 -72h-39l155 114h48z" />
    <glyph glyph-name="Idieresis" unicode="&#xcf;" horiz-adv-x="248" 
d="M148 700v-700h-48v700h48zM194 823c0 19 14 32 34 32c21 0 34 -13 34 -32s-13 -32 -34 -32c-20 0 -34 13 -34 32zM-14 823c0 19 14 32 34 32c21 0 34 -13 34 -32s-13 -32 -34 -32c-20 0 -34 13 -34 32z" />
    <glyph glyph-name="Igrave" unicode="&#xcc;" horiz-adv-x="248" 
d="M148 700v-700h-48v700h48zM99 740l-178 120h88l135 -120h-45z" />
    <glyph glyph-name="Ntilde" unicode="&#xd1;" horiz-adv-x="798" 
d="M647 0l-499 625v-625h-48v700h51l499 -625v625h48v-700h-51zM579 848c-25 -82 -63 -102 -105 -102c-61 0 -104 62 -153 62c-36 0 -59 -36 -70 -62h-32c30 88 77 107 111 107c55 0 102 -62 148 -62c33 0 58 27 71 57h30z" />
    <glyph glyph-name="Oacute" unicode="&#xd3;" horiz-adv-x="814" 
d="M404 710h3c223 -3 357 -141 357 -361c0 -206 -140 -357 -353 -359c-226 2 -361 139 -361 361c0 204 137 355 354 359zM100 350c0 -186 116 -315 315 -316c176 3 299 127 299 316c0 186 -116 317 -315 316c-176 -1 -299 -127 -299 -316zM432 740h-45l135 120h88z" />
    <glyph glyph-name="Ocircumflex" unicode="&#xd4;" horiz-adv-x="814" 
d="M404 710h3c223 -3 357 -141 357 -361c0 -206 -140 -357 -353 -359c-226 2 -361 139 -361 361c0 204 137 355 354 359zM100 350c0 -186 116 -315 315 -316c176 3 299 127 299 316c0 186 -116 317 -315 316c-176 -1 -299 -127 -299 -316zM431 860l155 -114h-39l-140 72
l-140 -72h-39l155 114h48z" />
    <glyph glyph-name="Odieresis" unicode="&#xd6;" horiz-adv-x="814" 
d="M404 710h3c223 -3 357 -141 357 -361c0 -206 -140 -357 -353 -359c-226 2 -361 139 -361 361c0 204 137 355 354 359zM100 350c0 -186 116 -315 315 -316c176 3 299 127 299 316c0 186 -116 317 -315 316c-176 -1 -299 -127 -299 -316zM477 823c0 19 14 32 34 32
c21 0 34 -13 34 -32s-13 -32 -34 -32c-20 0 -34 13 -34 32zM269 823c0 19 14 32 34 32c21 0 34 -13 34 -32s-13 -32 -34 -32c-20 0 -34 13 -34 32z" />
    <glyph glyph-name="Ograve" unicode="&#xd2;" horiz-adv-x="814" 
d="M404 710h3c223 -3 357 -141 357 -361c0 -206 -140 -357 -353 -359c-226 2 -361 139 -361 361c0 204 137 355 354 359zM100 350c0 -186 116 -315 315 -316c176 3 299 127 299 316c0 186 -116 317 -315 316c-176 -1 -299 -127 -299 -316zM382 740l-178 120h88l135 -120h-45
z" />
    <glyph glyph-name="Otilde" unicode="&#xd5;" horiz-adv-x="814" 
d="M404 710h3c223 -3 357 -141 357 -361c0 -206 -140 -357 -353 -359c-226 2 -361 139 -361 361c0 204 137 355 354 359zM100 350c0 -186 116 -315 315 -316c176 3 299 127 299 316c0 186 -116 317 -315 316c-176 -1 -299 -127 -299 -316zM587 848
c-25 -82 -63 -102 -105 -102c-61 0 -104 62 -153 62c-36 0 -59 -36 -70 -62h-32c30 88 77 107 111 107c55 0 102 -62 148 -62c33 0 58 27 71 57h30z" />
    <glyph glyph-name="Scaron" unicode="&#x160;" horiz-adv-x="631" 
d="M548 547c-41 71 -133 120 -235 120c-120 -2 -191 -49 -191 -130c0 -207 446 -96 446 -357c0 -114 -92 -190 -245 -190c-126 0 -224 49 -261 91v77c41 -67 135 -124 266 -124c107 0 190 46 190 145c0 210 -445 100 -445 356c0 115 103 176 240 176c112 0 199 -43 235 -81
v-83zM340 746h-48l-155 114h39l140 -72l140 72h39z" />
    <glyph glyph-name="Uacute" unicode="&#xda;" horiz-adv-x="750" 
d="M143 700v-413c0 -185 90 -253 239 -253c133 0 225 64 225 241v425h48v-422c0 -208 -113 -288 -278 -288c-187 0 -282 97 -282 289v421h48zM400 740h-45l135 120h88z" />
    <glyph glyph-name="Ucircumflex" unicode="&#xdb;" horiz-adv-x="750" 
d="M143 700v-413c0 -185 90 -253 239 -253c133 0 225 64 225 241v425h48v-422c0 -208 -113 -288 -278 -288c-187 0 -282 97 -282 289v421h48zM399 860l155 -114h-39l-140 72l-140 -72h-39l155 114h48z" />
    <glyph glyph-name="Udieresis" unicode="&#xdc;" horiz-adv-x="750" 
d="M143 700v-413c0 -185 90 -253 239 -253c133 0 225 64 225 241v425h48v-422c0 -208 -113 -288 -278 -288c-187 0 -282 97 -282 289v421h48zM445 823c0 19 14 32 34 32c21 0 34 -13 34 -32s-13 -32 -34 -32c-20 0 -34 13 -34 32zM237 823c0 19 14 32 34 32
c21 0 34 -13 34 -32s-13 -32 -34 -32c-20 0 -34 13 -34 32z" />
    <glyph glyph-name="Ugrave" unicode="&#xd9;" horiz-adv-x="750" 
d="M143 700v-413c0 -185 90 -253 239 -253c133 0 225 64 225 241v425h48v-422c0 -208 -113 -288 -278 -288c-187 0 -282 97 -282 289v421h48zM350 740l-178 120h88l135 -120h-45z" />
    <glyph glyph-name="Yacute" unicode="&#xdd;" horiz-adv-x="626" 
d="M618 700l-280 -420v-280h-48v280l-282 420h56l252 -373l247 373h55zM338 740h-45l135 120h88z" />
    <glyph glyph-name="Ydieresis" unicode="&#x178;" horiz-adv-x="626" 
d="M618 700l-280 -420v-280h-48v280l-282 420h56l252 -373l247 373h55zM383 823c0 19 14 32 34 32c21 0 34 -13 34 -32s-13 -32 -34 -32c-20 0 -34 13 -34 32zM175 823c0 19 14 32 34 32c21 0 34 -13 34 -32s-13 -32 -34 -32c-20 0 -34 13 -34 32z" />
    <glyph glyph-name="Zcaron" unicode="&#x17d;" horiz-adv-x="612" 
d="M46 656v44h537v-30l-486 -626h475v-44h-542v30l487 626h-471zM330 746h-48l-155 114h39l140 -72l140 72h39z" />
    <glyph glyph-name="aacute" unicode="&#xe1;" horiz-adv-x="517" 
d="M395 238h-148c-102 0 -157 -25 -157 -97c0 -66 51 -106 130 -106c112 0 173 86 175 152v51zM79 460c33 27 93 50 170 50c121 0 191 -43 191 -182v-328h-43v114c-26 -74 -98 -122 -188 -122c-99 0 -165 53 -165 146c0 105 78 138 203 138h148v51c0 100 -46 142 -146 142
c-78 0 -136 -29 -170 -82v73zM261 590h-34l100 160h74z" />
    <glyph glyph-name="acircumflex" unicode="&#xe2;" horiz-adv-x="517" 
d="M395 238h-148c-102 0 -157 -25 -157 -97c0 -66 51 -106 130 -106c112 0 173 86 175 152v51zM79 460c33 27 93 50 170 50c121 0 191 -43 191 -182v-328h-43v114c-26 -74 -98 -122 -188 -122c-99 0 -165 53 -165 146c0 105 78 138 203 138h148v51c0 100 -46 142 -146 142
c-78 0 -136 -29 -170 -82v73zM239 750h40l143 -154h-33l-130 109l-130 -109h-33z" />
    <glyph glyph-name="adieresis" unicode="&#xe4;" horiz-adv-x="517" 
d="M395 238h-148c-102 0 -157 -25 -157 -97c0 -66 51 -106 130 -106c112 0 173 86 175 152v51zM79 460c33 27 93 50 170 50c121 0 191 -43 191 -182v-328h-43v114c-26 -74 -98 -122 -188 -122c-99 0 -165 53 -165 146c0 105 78 138 203 138h148v51c0 100 -46 142 -146 142
c-78 0 -136 -29 -170 -82v73zM329 726c0 19 14 32 34 32c21 0 34 -13 34 -32s-13 -32 -34 -32c-20 0 -34 13 -34 32zM121 726c0 19 14 32 34 32c21 0 34 -13 34 -32s-13 -32 -34 -32c-20 0 -34 13 -34 32z" />
    <glyph glyph-name="agrave" unicode="&#xe0;" horiz-adv-x="517" 
d="M395 238h-148c-102 0 -157 -25 -157 -97c0 -66 51 -106 130 -106c112 0 173 86 175 152v51zM79 460c33 27 93 50 170 50c121 0 191 -43 191 -182v-328h-43v114c-26 -74 -98 -122 -188 -122c-99 0 -165 53 -165 146c0 105 78 138 203 138h148v51c0 100 -46 142 -146 142
c-78 0 -136 -29 -170 -82v73zM252 590l-140 160h74l100 -160h-34z" />
    <glyph glyph-name="aring" unicode="&#xe5;" horiz-adv-x="517" 
d="M395 238h-148c-102 0 -157 -25 -157 -97c0 -66 51 -106 130 -106c112 0 173 86 175 152v51zM79 460c33 27 93 50 170 50c121 0 191 -43 191 -182v-328h-43v114c-26 -74 -98 -122 -188 -122c-99 0 -165 53 -165 146c0 105 78 138 203 138h148v51c0 100 -46 142 -146 142
c-78 0 -136 -29 -170 -82v73zM158 689c0 57 37 99 101 99s101 -42 101 -99c0 -59 -39 -99 -101 -99s-101 41 -101 99zM192 689c0 -38 27 -67 67 -67s67 27 67 67c0 38 -25 67 -67 67c-40 0 -67 -27 -67 -67z" />
    <glyph glyph-name="atilde" unicode="&#xe3;" horiz-adv-x="517" 
d="M395 238h-148c-102 0 -157 -25 -157 -97c0 -66 51 -106 130 -106c112 0 173 86 175 152v51zM79 460c33 27 93 50 170 50c121 0 191 -43 191 -182v-328h-43v114c-26 -74 -98 -122 -188 -122c-99 0 -165 53 -165 146c0 105 78 138 203 138h148v51c0 100 -46 142 -146 142
c-78 0 -136 -29 -170 -82v73zM435 724c-19 -80 -56 -106 -100 -106c-62 0 -101 60 -154 60c-34 0 -52 -24 -65 -60h-32c27 88 77 105 105 105c62 0 101 -60 150 -60c26 0 50 14 65 61h31z" />
    <glyph glyph-name="ccedilla" unicode="&#xe7;" horiz-adv-x="498" 
d="M450 51c-22 -30 -74 -59 -154 -61l-18 -55c74 -7 115 -31 115 -77c0 -77 -110 -108 -189 -108v26c66 0 141 26 141 78c0 39 -46 53 -111 54l28 83c-134 9 -216 96 -216 261c0 170 104 258 239 258c67 0 127 -23 160 -50v-73c-34 53 -92 82 -160 82
c-117 0 -193 -73 -193 -217v-3c0 -149 77 -218 195 -218c83 0 138 37 163 82v-62z" />
    <glyph glyph-name="eacute" unicode="&#xe9;" horiz-adv-x="546" 
d="M285 510c135 0 216 -88 216 -236v-37h-409c4 -141 80 -206 195 -206c96 0 157 37 184 82v-62c-25 -31 -86 -61 -184 -61c-149 0 -241 87 -241 262c0 170 104 258 239 258zM285 469c-110 0 -184 -65 -192 -192h363v3c0 124 -70 189 -171 189zM285 590h-34l100 160h74z" />
    <glyph glyph-name="ecircumflex" unicode="&#xea;" horiz-adv-x="546" 
d="M285 510c135 0 216 -88 216 -236v-37h-409c4 -141 80 -206 195 -206c96 0 157 37 184 82v-62c-25 -31 -86 -61 -184 -61c-149 0 -241 87 -241 262c0 170 104 258 239 258zM285 469c-110 0 -184 -65 -192 -192h363v3c0 124 -70 189 -171 189zM263 750h40l143 -154h-33
l-130 109l-130 -109h-33z" />
    <glyph glyph-name="edieresis" unicode="&#xeb;" horiz-adv-x="546" 
d="M285 510c135 0 216 -88 216 -236v-37h-409c4 -141 80 -206 195 -206c96 0 157 37 184 82v-62c-25 -31 -86 -61 -184 -61c-149 0 -241 87 -241 262c0 170 104 258 239 258zM285 469c-110 0 -184 -65 -192 -192h363v3c0 124 -70 189 -171 189zM353 726c0 19 14 32 34 32
c21 0 34 -13 34 -32s-13 -32 -34 -32c-20 0 -34 13 -34 32zM145 726c0 19 14 32 34 32c21 0 34 -13 34 -32s-13 -32 -34 -32c-20 0 -34 13 -34 32z" />
    <glyph glyph-name="egrave" unicode="&#xe8;" horiz-adv-x="546" 
d="M285 510c135 0 216 -88 216 -236v-37h-409c4 -141 80 -206 195 -206c96 0 157 37 184 82v-62c-25 -31 -86 -61 -184 -61c-149 0 -241 87 -241 262c0 170 104 258 239 258zM285 469c-110 0 -184 -65 -192 -192h363v3c0 124 -70 189 -171 189zM276 590l-140 160h74
l100 -160h-34z" />
    <glyph glyph-name="iacute" unicode="&#xed;" horiz-adv-x="222" 
d="M83 0v500h45v-500h-45zM113 590h-34l100 160h74z" />
    <glyph glyph-name="icircumflex" unicode="&#xee;" horiz-adv-x="222" 
d="M83 0v500h45v-500h-45zM91 750h40l143 -154h-33l-130 109l-130 -109h-33z" />
    <glyph glyph-name="idieresis" unicode="&#xef;" horiz-adv-x="222" 
d="M83 0v500h45v-500h-45zM181 726c0 19 14 32 34 32c21 0 34 -13 34 -32s-13 -32 -34 -32c-20 0 -34 13 -34 32zM-27 726c0 19 14 32 34 32c21 0 34 -13 34 -32s-13 -32 -34 -32c-20 0 -34 13 -34 32z" />
    <glyph glyph-name="igrave" unicode="&#xec;" horiz-adv-x="222" 
d="M83 0v500h45v-500h-45zM104 590l-140 160h74l100 -160h-34z" />
    <glyph glyph-name="ntilde" unicode="&#xf1;" horiz-adv-x="579" 
d="M457 0v315c0 112 -54 153 -154 153c-118 0 -175 -67 -175 -175v-293h-45v500h44v-106c21 66 82 115 190 115c116 0 185 -57 185 -180v-329h-45zM466 724c-19 -80 -56 -106 -100 -106c-62 0 -101 60 -154 60c-34 0 -52 -24 -65 -60h-32c27 88 77 105 105 105
c62 0 101 -60 150 -60c26 0 50 14 65 61h31z" />
    <glyph glyph-name="oacute" unicode="&#xf3;" horiz-adv-x="572" 
d="M46 252c0 170 104 258 239 258c148 -1 240 -88 240 -262c0 -170 -104 -258 -239 -258c-149 1 -240 87 -240 262zM92 252v-3c0 -149 76 -218 194 -218c117 0 193 73 193 217v3c0 149 -77 218 -195 218c-117 -1 -192 -74 -192 -217zM288 590h-34l100 160h74z" />
    <glyph glyph-name="ocircumflex" unicode="&#xf4;" horiz-adv-x="572" 
d="M46 252c0 170 104 258 239 258c148 -1 240 -88 240 -262c0 -170 -104 -258 -239 -258c-149 1 -240 87 -240 262zM92 252v-3c0 -149 76 -218 194 -218c117 0 193 73 193 217v3c0 149 -77 218 -195 218c-117 -1 -192 -74 -192 -217zM266 750h40l143 -154h-33l-130 109
l-130 -109h-33z" />
    <glyph glyph-name="odieresis" unicode="&#xf6;" horiz-adv-x="572" 
d="M46 252c0 170 104 258 239 258c148 -1 240 -88 240 -262c0 -170 -104 -258 -239 -258c-149 1 -240 87 -240 262zM92 252v-3c0 -149 76 -218 194 -218c117 0 193 73 193 217v3c0 149 -77 218 -195 218c-117 -1 -192 -74 -192 -217zM356 726c0 19 14 32 34 32
c21 0 34 -13 34 -32s-13 -32 -34 -32c-20 0 -34 13 -34 32zM148 726c0 19 14 32 34 32c21 0 34 -13 34 -32s-13 -32 -34 -32c-20 0 -34 13 -34 32z" />
    <glyph glyph-name="ograve" unicode="&#xf2;" horiz-adv-x="572" 
d="M46 252c0 170 104 258 239 258c148 -1 240 -88 240 -262c0 -170 -104 -258 -239 -258c-149 1 -240 87 -240 262zM92 252v-3c0 -149 76 -218 194 -218c117 0 193 73 193 217v3c0 149 -77 218 -195 218c-117 -1 -192 -74 -192 -217zM279 590l-140 160h74l100 -160h-34z" />
    <glyph glyph-name="otilde" unicode="&#xf5;" horiz-adv-x="572" 
d="M46 252c0 170 104 258 239 258c148 -1 240 -88 240 -262c0 -170 -104 -258 -239 -258c-149 1 -240 87 -240 262zM92 252v-3c0 -149 76 -218 194 -218c117 0 193 73 193 217v3c0 149 -77 218 -195 218c-117 -1 -192 -74 -192 -217zM462 724c-19 -80 -56 -106 -100 -106
c-62 0 -101 60 -154 60c-34 0 -52 -24 -65 -60h-32c27 88 77 105 105 105c62 0 101 -60 150 -60c26 0 50 14 65 61h31z" />
    <glyph glyph-name="scaron" unicode="&#x161;" horiz-adv-x="478" 
d="M408 387c-34 53 -92 82 -160 82h-2c-83 0 -139 -32 -139 -93c0 -141 318 -61 318 -242c0 -91 -66 -143 -189 -144c-88 0 -151 30 -178 61v62c29 -45 93 -82 178 -82c91 0 144 36 144 99c0 142 -318 65 -318 242c0 80 61 138 186 138c67 0 127 -23 160 -50v-73zM259 596
h-40l-143 154h33l130 -109l130 109h33z" />
    <glyph glyph-name="uacute" unicode="&#xfa;" horiz-adv-x="573" 
d="M122 500v-315c0 -110 52 -152 148 -153h3c116 0 172 67 172 175v293h45v-500h-44v106c-21 -66 -79 -114 -184 -115h-4c-114 2 -181 58 -181 180v329h45zM289 590h-34l100 160h74z" />
    <glyph glyph-name="ucircumflex" unicode="&#xfb;" horiz-adv-x="573" 
d="M122 500v-315c0 -110 52 -152 148 -153h3c116 0 172 67 172 175v293h45v-500h-44v106c-21 -66 -79 -114 -184 -115h-4c-114 2 -181 58 -181 180v329h45zM267 750h40l143 -154h-33l-130 109l-130 -109h-33z" />
    <glyph glyph-name="udieresis" unicode="&#xfc;" horiz-adv-x="573" 
d="M122 500v-315c0 -110 52 -152 148 -153h3c116 0 172 67 172 175v293h45v-500h-44v106c-21 -66 -79 -114 -184 -115h-4c-114 2 -181 58 -181 180v329h45zM149 726c0 19 14 32 34 32c21 0 34 -13 34 -32s-13 -32 -34 -32c-20 0 -34 13 -34 32zM357 726c0 19 14 32 34 32
c21 0 34 -13 34 -32s-13 -32 -34 -32c-20 0 -34 13 -34 32z" />
    <glyph glyph-name="ugrave" unicode="&#xf9;" horiz-adv-x="573" 
d="M122 500v-315c0 -110 52 -152 148 -153h3c116 0 172 67 172 175v293h45v-500h-44v106c-21 -66 -79 -114 -184 -115h-4c-114 2 -181 58 -181 180v329h45zM280 590l-140 160h74l100 -160h-34z" />
    <glyph glyph-name="yacute" unicode="&#xfd;" horiz-adv-x="502" 
d="M249 -2l-223 502h52l195 -443l166 443h49l-213 -553c-38 -99 -78 -134 -132 -134c-27 0 -54 9 -67 19v54c13 -15 38 -29 65 -29c35 0 70 22 108 141zM253 590h-34l100 160h74z" />
    <glyph glyph-name="ydieresis" unicode="&#xff;" horiz-adv-x="502" 
d="M249 -2l-223 502h52l195 -443l166 443h49l-213 -553c-38 -99 -78 -134 -132 -134c-27 0 -54 9 -67 19v54c13 -15 38 -29 65 -29c35 0 70 22 108 141zM321 726c0 19 14 32 34 32c21 0 34 -13 34 -32s-13 -32 -34 -32c-20 0 -34 13 -34 32zM113 726c0 19 14 32 34 32
c21 0 34 -13 34 -32s-13 -32 -34 -32c-20 0 -34 13 -34 32z" />
    <glyph glyph-name="zcaron" unicode="&#x17e;" horiz-adv-x="462" 
d="M427 0h-395v35l334 423h-317v42h377v-35l-337 -423h338v-42zM251 596h-40l-143 154h33l130 -109l130 109h33z" />
    <glyph glyph-name="figuredash" unicode="&#x2012;" horiz-adv-x="573" 
d="M97 332v44h379v-44h-379z" />
    <glyph glyph-name="oneeighth" unicode="&#x215b;" horiz-adv-x="807" 
d="M629 700l-504 -700h-52l507 700h49zM175 350v305l-115 -61v40l128 70h27v-354h-40zM596 -4c-94 0 -153 37 -153 100c0 38 23 76 93 91c-43 7 -80 31 -80 78c0 52 43 91 140 91c94 0 134 -38 134 -89c0 -39 -28 -67 -79 -80c59 -10 96 -42 96 -88
c0 -60 -50 -103 -151 -103zM597 34c74 0 112 22 112 67c0 38 -38 66 -113 66c-78 0 -115 -29 -115 -68c0 -43 47 -65 116 -65zM595 201c64 0 98 26 98 60c0 40 -37 57 -98 57c-66 0 -101 -20 -101 -59c0 -32 38 -58 101 -58z" />
    <glyph glyph-name="threeeighths" unicode="&#x215c;" horiz-adv-x="882" 
d="M705 700l-504 -700h-52l507 700h49zM63 672c22 12 65 32 133 32c84 0 125 -38 125 -92c0 -38 -25 -67 -65 -80c60 -9 87 -37 87 -82c0 -64 -54 -104 -153 -104c-70 1 -112 24 -130 38v59c22 -33 71 -59 133 -59c68 0 110 22 110 69c0 37 -31 57 -101 57h-72v36h52
c69 0 100 23 100 60c0 36 -29 58 -90 60c-51 1 -101 -21 -129 -53v59zM671 -4c-94 0 -153 37 -153 100c0 38 23 76 93 91c-43 7 -80 31 -80 78c0 52 43 91 140 91c94 0 134 -38 134 -89c0 -39 -28 -67 -79 -80c59 -10 96 -42 96 -88c0 -60 -50 -103 -151 -103zM672 34
c74 0 112 22 112 67c0 38 -38 66 -113 66c-78 0 -115 -29 -115 -68c0 -43 47 -65 116 -65zM670 201c64 0 98 26 98 60c0 40 -37 57 -98 57c-66 0 -101 -20 -101 -59c0 -32 38 -58 101 -58z" />
    <glyph glyph-name="fiveeighths" unicode="&#x215d;" horiz-adv-x="876" 
d="M699 700l-504 -700h-52l507 700h49zM321 700v-36h-195l-10 -103c12 3 43 6 62 6c107 0 153 -42 153 -108c0 -72 -51 -114 -146 -114c-65 1 -106 25 -125 39v59c22 -33 72 -60 127 -60c73 1 105 28 105 77c0 48 -45 73 -117 73c-49 0 -80 -8 -98 -14l18 181h226zM665 -4
c-94 0 -153 37 -153 100c0 38 23 76 93 91c-43 7 -80 31 -80 78c0 52 43 91 140 91c94 0 134 -38 134 -89c0 -39 -28 -67 -79 -80c59 -10 96 -42 96 -88c0 -60 -50 -103 -151 -103zM666 34c74 0 112 22 112 67c0 38 -38 66 -113 66c-78 0 -115 -29 -115 -68
c0 -43 47 -65 116 -65zM664 201c64 0 98 26 98 60c0 40 -37 57 -98 57c-66 0 -101 -20 -101 -59c0 -32 38 -58 101 -58z" />
    <glyph glyph-name="seveneighths" unicode="&#x215e;" horiz-adv-x="805" 
d="M628 700l-504 -700h-52l507 700h49zM60 700h266v-22l-166 -328h-41l160 314h-219v36zM594 -4c-94 0 -153 37 -153 100c0 38 23 76 93 91c-43 7 -80 31 -80 78c0 52 43 91 140 91c94 0 134 -38 134 -89c0 -39 -28 -67 -79 -80c59 -10 96 -42 96 -88
c0 -60 -50 -103 -151 -103zM595 34c74 0 112 22 112 67c0 38 -38 66 -113 66c-78 0 -115 -29 -115 -68c0 -43 47 -65 116 -65zM593 201c64 0 98 26 98 60c0 40 -37 57 -98 57c-66 0 -101 -20 -101 -59c0 -32 38 -58 101 -58z" />
    <glyph glyph-name="onethird" unicode="&#x2153;" horiz-adv-x="809" 
d="M641 700l-504 -700h-52l507 700h49zM175 350v305l-115 -61v40l128 70h27v-354h-40zM469 322c22 12 65 32 133 32c84 0 125 -38 125 -92c0 -38 -25 -67 -65 -80c60 -9 87 -37 87 -82c0 -64 -54 -104 -153 -104c-70 1 -112 24 -130 38v59c22 -33 71 -59 133 -59
c68 0 110 22 110 69c0 37 -31 57 -101 57h-72v36h52c69 0 100 23 100 60c0 36 -29 58 -90 60c-51 1 -101 -21 -129 -53v59z" />
    <glyph glyph-name="twothirds" unicode="&#x2154;" horiz-adv-x="909" 
d="M741 700l-504 -700h-52l507 700h49zM353 386v-36h-293v24c178 102 232 143 232 211c0 47 -32 79 -91 81c-51 2 -101 -21 -129 -53v59c22 12 65 33 133 32c79 -1 127 -42 127 -111c0 -60 -27 -111 -147 -183l-39 -24h207zM569 322c22 12 65 32 133 32
c84 0 125 -38 125 -92c0 -38 -25 -67 -65 -80c60 -9 87 -37 87 -82c0 -64 -54 -104 -153 -104c-70 1 -112 24 -130 38v59c22 -33 71 -59 133 -59c68 0 110 22 110 69c0 37 -31 57 -101 57h-72v36h52c69 0 100 23 100 60c0 36 -29 58 -90 60c-51 1 -101 -21 -129 -53v59z" />
    <glyph glyph-name="zerosuperior" unicode="&#x2070;" horiz-adv-x="426" 
d="M60 625c0 134 75 179 154 179c91 -2 152 -60 152 -180c0 -134 -75 -179 -154 -179c-91 2 -152 59 -152 180zM100 625c0 -103 49 -140 112 -142c61 0 114 35 114 141c0 103 -49 139 -112 142c-61 0 -114 -35 -114 -141z" />
    <glyph glyph-name="foursuperior" unicode="&#x2074;" horiz-adv-x="398" 
d="M30 568l220 232h40v-227h68v-36h-68v-87h-40v87h-220v31zM85 573h165v173z" />
    <glyph glyph-name="fivesuperior" unicode="&#x2075;" horiz-adv-x="386" 
d="M317 800v-36h-195l-10 -103c12 3 43 6 62 6c107 0 153 -42 153 -108c0 -72 -51 -114 -146 -114c-65 1 -106 25 -125 39v59c22 -33 72 -60 127 -60c73 1 105 28 105 77c0 48 -45 73 -117 73c-49 0 -80 -8 -98 -14l18 181h226z" />
    <glyph glyph-name="sixsuperior" unicode="&#x2076;" horiz-adv-x="415" 
d="M339 708c-21 32 -68 61 -127 58c-67 -3 -114 -51 -114 -139c0 -7 0 -16 1 -28c16 39 67 73 135 73c84 0 125 -46 125 -105c0 -77 -61 -121 -141 -121c-93 0 -158 61 -158 169c0 114 58 186 155 189c67 2 107 -24 124 -37v-59zM104 574c10 -50 47 -90 118 -90
c61 0 100 31 100 82c0 45 -34 74 -94 74c-55 0 -99 -24 -124 -66z" />
    <glyph glyph-name="sevensuperior" unicode="&#x2077;" horiz-adv-x="326" 
d="M30 800h266v-22l-166 -328h-41l160 314h-219v36z" />
    <glyph glyph-name="eightsuperior" unicode="&#x2078;" horiz-adv-x="416" 
d="M209 446c-94 0 -153 37 -153 100c0 38 23 76 93 91c-43 7 -80 31 -80 78c0 52 43 91 140 91c94 0 134 -38 134 -89c0 -39 -28 -67 -79 -80c59 -10 96 -42 96 -88c0 -60 -50 -103 -151 -103zM210 484c74 0 112 22 112 67c0 38 -38 66 -113 66c-78 0 -115 -29 -115 -68
c0 -43 47 -65 116 -65zM208 651c64 0 98 26 98 60c0 40 -37 57 -98 57c-66 0 -101 -20 -101 -59c0 -32 38 -58 101 -58z" />
    <glyph glyph-name="ninesuperior" unicode="&#x2079;" horiz-adv-x="415" 
d="M77 543c21 -32 68 -61 127 -58c66 3 114 51 114 139c0 7 0 16 -1 28c-17 -39 -67 -73 -136 -73c-83 0 -125 46 -125 105c0 77 62 121 142 121c93 0 157 -61 157 -169c0 -114 -58 -186 -154 -189c-67 -2 -107 24 -124 37v59zM311 677c-9 50 -46 90 -117 90
c-62 0 -100 -31 -100 -82c0 -45 34 -74 94 -74c55 0 98 24 123 66z" />
    <glyph glyph-name="zeroinferior" unicode="&#x2080;" horiz-adv-x="426" 
d="M60 75c0 134 75 179 154 179c91 -2 152 -60 152 -180c0 -134 -75 -179 -154 -179c-91 2 -152 59 -152 180zM100 75c0 -103 49 -140 112 -142c61 0 114 35 114 141c0 103 -49 139 -112 142c-61 0 -114 -35 -114 -141z" />
    <glyph glyph-name="oneinferior" unicode="&#x2081;" horiz-adv-x="273" 
d="M153 -100v305l-115 -61v40l128 70h27v-354h-40z" />
    <glyph glyph-name="twoinferior" unicode="&#x2082;" horiz-adv-x="412" 
d="M347 -64v-36h-293v24c178 102 232 143 232 211c0 47 -32 79 -91 81c-51 2 -101 -21 -129 -53v59c22 12 65 33 133 32c79 -1 127 -42 127 -111c0 -60 -27 -111 -147 -183l-39 -24h207z" />
    <glyph glyph-name="threeinferior" unicode="&#x2083;" horiz-adv-x="399" 
d="M63 222c22 12 65 32 133 32c84 0 125 -38 125 -92c0 -38 -25 -67 -65 -80c60 -9 87 -37 87 -82c0 -64 -54 -104 -153 -104c-70 1 -112 24 -130 38v59c22 -33 71 -59 133 -59c68 0 110 22 110 69c0 37 -31 57 -101 57h-72v36h52c69 0 100 23 100 60c0 36 -29 58 -90 60
c-51 1 -101 -21 -129 -53v59z" />
    <glyph glyph-name="fourinferior" unicode="&#x2084;" horiz-adv-x="398" 
d="M30 18l220 232h40v-227h68v-36h-68v-87h-40v87h-220v31zM85 23h165v173z" />
    <glyph glyph-name="fiveinferior" unicode="&#x2085;" horiz-adv-x="386" 
d="M317 250v-36h-195l-10 -103c12 3 43 6 62 6c107 0 153 -42 153 -108c0 -72 -51 -114 -146 -114c-65 1 -106 25 -125 39v59c22 -33 72 -60 127 -60c73 1 105 28 105 77c0 48 -45 73 -117 73c-49 0 -80 -8 -98 -14l18 181h226z" />
    <glyph glyph-name="sixinferior" unicode="&#x2086;" horiz-adv-x="415" 
d="M339 158c-21 32 -68 61 -127 58c-67 -3 -114 -51 -114 -139c0 -7 0 -16 1 -28c16 39 67 73 135 73c84 0 125 -46 125 -105c0 -77 -61 -121 -141 -121c-93 0 -158 61 -158 169c0 114 58 186 155 189c67 2 107 -24 124 -37v-59zM104 24c10 -50 47 -90 118 -90
c61 0 100 31 100 82c0 45 -34 74 -94 74c-55 0 -99 -24 -124 -66z" />
    <glyph glyph-name="seveninferior" unicode="&#x2087;" horiz-adv-x="326" 
d="M30 250h266v-22l-166 -328h-41l160 314h-219v36z" />
    <glyph glyph-name="eightinferior" unicode="&#x2088;" horiz-adv-x="416" 
d="M209 -104c-94 0 -153 37 -153 100c0 38 23 76 93 91c-43 7 -80 31 -80 78c0 52 43 91 140 91c94 0 134 -38 134 -89c0 -39 -28 -67 -79 -80c59 -10 96 -42 96 -88c0 -60 -50 -103 -151 -103zM210 -66c74 0 112 22 112 67c0 38 -38 66 -113 66c-78 0 -115 -29 -115 -68
c0 -43 47 -65 116 -65zM208 101c64 0 98 26 98 60c0 40 -37 57 -98 57c-66 0 -101 -20 -101 -59c0 -32 38 -58 101 -58z" />
    <glyph glyph-name="nineinferior" unicode="&#x2089;" horiz-adv-x="415" 
d="M77 -7c21 -32 68 -61 127 -58c66 3 114 51 114 139c0 7 0 16 -1 28c-17 -39 -67 -73 -136 -73c-83 0 -125 46 -125 105c0 77 62 121 142 121c93 0 157 -61 157 -169c0 -114 -58 -186 -154 -189c-67 -2 -107 24 -124 37v59zM311 127c-9 50 -46 90 -117 90
c-62 0 -100 -31 -100 -82c0 -45 34 -74 94 -74c55 0 98 24 123 66z" />
    <glyph glyph-name="uni00A0" unicode="&#xa0;" horiz-adv-x="260" 
 />
    <glyph glyph-name="uni00AD" unicode="&#xad;" horiz-adv-x="410" 
d="M77 272v46h256v-46h-256z" />
    <glyph glyph-name="Amacron" unicode="&#x100;" horiz-adv-x="699" 
d="M323 700h51l313 -700h-52l-92 205h-391l-90 -205h-51zM347 645l-175 -396h352zM200 781v41h300v-41h-300z" />
    <glyph glyph-name="amacron" unicode="&#x101;" horiz-adv-x="517" 
d="M395 238h-148c-102 0 -157 -25 -157 -97c0 -66 51 -106 130 -106c112 0 173 86 175 152v51zM79 460c33 27 93 50 170 50c121 0 191 -43 191 -182v-328h-43v114c-26 -74 -98 -122 -188 -122c-99 0 -165 53 -165 146c0 105 78 138 203 138h148v51c0 100 -46 142 -146 142
c-78 0 -136 -29 -170 -82v73zM109 641v41h300v-41h-300z" />
    <glyph glyph-name="Abreve" unicode="&#x102;" horiz-adv-x="699" 
d="M323 700h51l313 -700h-52l-92 205h-391l-90 -205h-51zM347 645l-175 -396h352zM350 743c-94 0 -153 53 -172 117h27c27 -42 76 -75 145 -75c65 0 124 33 145 75h27c-20 -67 -86 -117 -172 -117z" />
    <glyph glyph-name="abreve" unicode="&#x103;" horiz-adv-x="517" 
d="M395 238h-148c-102 0 -157 -25 -157 -97c0 -66 51 -106 130 -106c112 0 173 86 175 152v51zM79 460c33 27 93 50 170 50c121 0 191 -43 191 -182v-328h-43v114c-26 -74 -98 -122 -188 -122c-99 0 -165 53 -165 146c0 105 78 138 203 138h148v51c0 100 -46 142 -146 142
c-78 0 -136 -29 -170 -82v73zM259 602c-85 0 -140 53 -156 148h29c21 -68 64 -104 127 -104s108 36 126 104h30c-14 -95 -76 -148 -156 -148z" />
    <glyph glyph-name="Aogonek" unicode="&#x104;" horiz-adv-x="699" 
d="M323 700h51l313 -700h-10c-80 -47 -115 -97 -115 -144c0 -46 34 -71 83 -71c14 0 29 2 45 6v-26c-15 -7 -39 -15 -70 -15c-72 0 -108 44 -108 95c0 56 40 109 122 157l-91 203h-391l-90 -205h-51zM347 645l-175 -396h352z" />
    <glyph glyph-name="aogonek" unicode="&#x105;" horiz-adv-x="517" 
d="M79 460c33 27 93 50 170 50c121 0 191 -43 191 -182v-328h-3c-80 -47 -115 -97 -115 -144c0 -46 34 -71 83 -71c14 0 29 2 45 6v-26c-15 -7 -39 -15 -70 -15c-72 0 -108 44 -108 95c0 57 41 110 125 158v111c-26 -74 -98 -122 -188 -122c-99 0 -165 53 -165 146
c0 105 78 138 203 138h148v51c0 100 -46 142 -146 142c-78 0 -136 -29 -170 -82v73zM395 238h-148c-102 0 -157 -25 -157 -97c0 -66 51 -106 130 -106c112 0 173 86 175 152v51z" />
    <glyph glyph-name="Cacute" unicode="&#x106;" horiz-adv-x="698" 
d="M658 158v-77c-35 -42 -129 -91 -253 -91c-222 4 -355 141 -355 361c0 207 141 359 357 359c115 0 202 -43 238 -81v-83c-41 71 -133 120 -238 120c-180 0 -307 -124 -307 -316c0 -181 110 -309 301 -316c128 0 218 57 257 124zM432 740h-45l135 120h88z" />
    <glyph glyph-name="cacute" unicode="&#x107;" horiz-adv-x="498" 
d="M450 51c-23 -31 -78 -61 -163 -61c-149 0 -241 87 -241 262c0 170 104 258 239 258c67 0 127 -23 160 -50v-73c-34 53 -92 82 -160 82c-117 0 -193 -73 -193 -217v-3c0 -149 77 -218 195 -218c83 0 138 37 163 82v-62zM285 590h-34l100 160h74z" />
    <glyph glyph-name="Ccircumflex" unicode="&#x108;" horiz-adv-x="698" 
d="M658 158v-77c-35 -42 -129 -91 -253 -91c-222 4 -355 141 -355 361c0 207 141 359 357 359c115 0 202 -43 238 -81v-83c-41 71 -133 120 -238 120c-180 0 -307 -124 -307 -316c0 -181 110 -309 301 -316c128 0 218 57 257 124zM431 860l155 -114h-39l-140 72l-140 -72
h-39l155 114h48z" />
    <glyph glyph-name="ccircumflex" unicode="&#x109;" horiz-adv-x="498" 
d="M450 51c-23 -31 -78 -61 -163 -61c-149 0 -241 87 -241 262c0 170 104 258 239 258c67 0 127 -23 160 -50v-73c-34 53 -92 82 -160 82c-117 0 -193 -73 -193 -217v-3c0 -149 77 -218 195 -218c83 0 138 37 163 82v-62zM263 750h40l143 -154h-33l-130 109l-130 -109h-33z
" />
    <glyph glyph-name="Cdotaccent" unicode="&#x10a;" horiz-adv-x="698" 
d="M658 158v-77c-35 -42 -129 -91 -253 -91c-222 4 -355 141 -355 361c0 207 141 359 357 359c115 0 202 -43 238 -81v-83c-41 71 -133 120 -238 120c-180 0 -307 -124 -307 -316c0 -181 110 -309 301 -316c128 0 218 57 257 124zM373 823c0 19 14 32 34 32
c21 0 34 -13 34 -32s-13 -32 -34 -32c-20 0 -34 13 -34 32z" />
    <glyph glyph-name="cdotaccent" unicode="&#x10b;" horiz-adv-x="498" 
d="M450 51c-23 -31 -78 -61 -163 -61c-149 0 -241 87 -241 262c0 170 104 258 239 258c67 0 127 -23 160 -50v-73c-34 53 -92 82 -160 82c-117 0 -193 -73 -193 -217v-3c0 -149 77 -218 195 -218c83 0 138 37 163 82v-62zM249 726c0 19 14 32 34 32c21 0 34 -13 34 -32
s-13 -32 -34 -32c-20 0 -34 13 -34 32z" />
    <glyph glyph-name="Ccaron" unicode="&#x10c;" horiz-adv-x="698" 
d="M658 158v-77c-35 -42 -129 -91 -253 -91c-222 4 -355 141 -355 361c0 207 141 359 357 359c115 0 202 -43 238 -81v-83c-41 71 -133 120 -238 120c-180 0 -307 -124 -307 -316c0 -181 110 -309 301 -316c128 0 218 57 257 124zM431 746h-48l-155 114h39l140 -72l140 72
h39z" />
    <glyph glyph-name="ccaron" unicode="&#x10d;" horiz-adv-x="498" 
d="M450 51c-23 -31 -78 -61 -163 -61c-149 0 -241 87 -241 262c0 170 104 258 239 258c67 0 127 -23 160 -50v-73c-34 53 -92 82 -160 82c-117 0 -193 -73 -193 -217v-3c0 -149 77 -218 195 -218c83 0 138 37 163 82v-62zM303 596h-40l-143 154h33l130 -109l130 109h33z" />
    <glyph glyph-name="Dcaron" unicode="&#x10e;" horiz-adv-x="745" 
d="M100 700h228c235 0 367 -121 367 -336c0 -263 -172 -364 -381 -364h-214v700zM148 44h161c210 0 336 107 336 315c0 195 -115 297 -326 297h-171v-612zM397 746h-48l-155 114h39l140 -72l140 72h39z" />
    <glyph glyph-name="dcaron" unicode="&#x10f;" horiz-adv-x="593" 
d="M465 750h44v-750h-42v125c-18 -65 -71 -136 -200 -136c-130 0 -220 76 -220 249c0 197 92 272 227 272c98 0 166 -50 191 -120v360zM465 215v61c0 119 -74 192 -186 192c-110 0 -187 -59 -187 -225c0 -151 76 -212 187 -212c120 0 183 73 186 184zM555 570l46 180h64
l-66 -180h-44z" />
    <glyph glyph-name="Dcroat" unicode="&#x110;" horiz-adv-x="770" 
d="M126 700h228c235 0 367 -121 367 -336c0 -263 -172 -364 -381 -364h-214v338h-119v44h119v318zM366 382v-44h-192v-294h161c210 0 336 107 336 315c0 195 -115 297 -326 297h-171v-274h192z" />
    <glyph glyph-name="dcroat" unicode="&#x111;" horiz-adv-x="608" 
d="M466 750h44v-100h76v-42h-76v-608h-42v129c-17 -66 -69 -140 -201 -140c-130 0 -220 76 -220 249c0 197 92 272 227 272c99 0 168 -51 192 -123v221h-182v42h182v100zM465 276c0 119 -74 192 -186 192c-110 0 -187 -59 -187 -225c0 -151 76 -212 187 -212
c123 0 186 77 186 193v52z" />
    <glyph glyph-name="Emacron" unicode="&#x112;" horiz-adv-x="629" 
d="M529 382v-44h-381v-294h430v-44h-478v700h467v-44h-419v-274h381zM195 781v41h300v-41h-300z" />
    <glyph glyph-name="emacron" unicode="&#x113;" horiz-adv-x="546" 
d="M285 510c135 0 216 -88 216 -236v-37h-409c4 -141 80 -206 195 -206c96 0 157 37 184 82v-62c-25 -31 -86 -61 -184 -61c-149 0 -241 87 -241 262c0 170 104 258 239 258zM285 469c-110 0 -184 -65 -192 -192h363v3c0 124 -70 189 -171 189zM133 641v41h300v-41h-300z
" />
    <glyph glyph-name="Edotaccent" unicode="&#x116;" horiz-adv-x="629" 
d="M529 382v-44h-381v-294h430v-44h-478v700h467v-44h-419v-274h381zM311 823c0 19 14 32 34 32c21 0 34 -13 34 -32s-13 -32 -34 -32c-20 0 -34 13 -34 32z" />
    <glyph glyph-name="edotaccent" unicode="&#x117;" horiz-adv-x="546" 
d="M285 510c135 0 216 -88 216 -236v-37h-409c4 -141 80 -206 195 -206c96 0 157 37 184 82v-62c-25 -31 -86 -61 -184 -61c-149 0 -241 87 -241 262c0 170 104 258 239 258zM285 469c-110 0 -184 -65 -192 -192h363v3c0 124 -70 189 -171 189zM249 726c0 19 14 32 34 32
c21 0 34 -13 34 -32s-13 -32 -34 -32c-20 0 -34 13 -34 32z" />
    <glyph glyph-name="Eogonek" unicode="&#x118;" horiz-adv-x="629" 
d="M529 382v-44h-381v-294h430v-44h-7c-80 -47 -115 -97 -115 -144c0 -46 34 -71 83 -71c14 0 29 2 45 6v-26c-15 -7 -39 -15 -70 -15c-72 0 -108 44 -108 95c0 56 39 108 119 155h-425v700h467v-44h-419v-274h381z" />
    <glyph glyph-name="eogonek" unicode="&#x119;" horiz-adv-x="546" 
d="M285 510c135 0 216 -88 216 -236v-37h-409c4 -141 80 -206 195 -206c96 0 157 37 184 82v-62c-19 -23 -57 -46 -116 -55c-75 -46 -107 -94 -107 -140s34 -71 83 -71c14 0 29 2 45 6v-26c-15 -7 -39 -15 -70 -15c-72 0 -108 44 -108 95c0 52 33 100 102 145h-13
c-149 0 -241 87 -241 262c0 170 104 258 239 258zM285 469c-110 0 -184 -65 -192 -192h363v3c0 124 -70 189 -171 189z" />
    <glyph glyph-name="Ecaron" unicode="&#x11a;" horiz-adv-x="629" 
d="M529 382v-44h-381v-294h430v-44h-478v700h467v-44h-419v-274h381zM369 746h-48l-155 114h39l140 -72l140 72h39z" />
    <glyph glyph-name="ecaron" unicode="&#x11b;" horiz-adv-x="546" 
d="M285 510c135 0 216 -88 216 -236v-37h-409c4 -141 80 -206 195 -206c96 0 157 37 184 82v-62c-25 -31 -86 -61 -184 -61c-149 0 -241 87 -241 262c0 170 104 258 239 258zM285 469c-110 0 -184 -65 -192 -192h363v3c0 124 -70 189 -171 189zM303 596h-40l-143 154h33
l130 -109l130 109h33z" />
    <glyph glyph-name="Gcircumflex" unicode="&#x11c;" horiz-adv-x="739" 
d="M407 -10c-223 3 -357 140 -357 361c0 206 140 358 355 359c115 0 202 -43 238 -81v-83c-41 71 -133 120 -238 120c-179 -1 -305 -125 -305 -316c0 -186 116 -315 315 -316c100 1 175 36 210 73v201h-225v44h270v-263c-37 -49 -145 -99 -263 -99zM431 860l155 -114h-39
l-140 72l-140 -72h-39l155 114h48z" />
    <glyph glyph-name="gcircumflex" unicode="&#x11d;" horiz-adv-x="593" 
d="M465 23v96c-20 -64 -73 -130 -198 -130c-130 0 -220 76 -220 249c0 197 92 272 227 272c99 0 169 -53 193 -124v114h43v-476c0 -147 -79 -211 -231 -211c-86 0 -161 35 -189 64v68c28 -45 91 -90 190 -90c121 0 185 48 185 168zM465 215v61c0 119 -74 192 -186 192
c-110 0 -187 -59 -187 -225c0 -151 76 -212 187 -212c120 0 183 73 186 184zM277 750h40l143 -154h-33l-130 109l-130 -109h-33z" />
    <glyph glyph-name="Gbreve" unicode="&#x11e;" horiz-adv-x="739" 
d="M407 -10c-223 3 -357 140 -357 361c0 206 140 358 355 359c115 0 202 -43 238 -81v-83c-41 71 -133 120 -238 120c-179 -1 -305 -125 -305 -316c0 -186 116 -315 315 -316c100 1 175 36 210 73v201h-225v44h270v-263c-37 -49 -145 -99 -263 -99zM407 743
c-94 0 -153 53 -172 117h27c27 -42 76 -75 145 -75c65 0 124 33 145 75h27c-20 -67 -86 -117 -172 -117z" />
    <glyph glyph-name="gbreve" unicode="&#x11f;" horiz-adv-x="593" 
d="M465 23v96c-20 -64 -73 -130 -198 -130c-130 0 -220 76 -220 249c0 197 92 272 227 272c99 0 169 -53 193 -124v114h43v-476c0 -147 -79 -211 -231 -211c-86 0 -161 35 -189 64v68c28 -45 91 -90 190 -90c121 0 185 48 185 168zM465 215v61c0 119 -74 192 -186 192
c-110 0 -187 -59 -187 -225c0 -151 76 -212 187 -212c120 0 183 73 186 184zM297 602c-85 0 -140 53 -156 148h29c21 -68 64 -104 127 -104s108 36 126 104h30c-14 -95 -76 -148 -156 -148z" />
    <glyph glyph-name="Gdotaccent" unicode="&#x120;" horiz-adv-x="739" 
d="M407 -10c-223 3 -357 140 -357 361c0 206 140 358 355 359c115 0 202 -43 238 -81v-83c-41 71 -133 120 -238 120c-179 -1 -305 -125 -305 -316c0 -186 116 -315 315 -316c100 1 175 36 210 73v201h-225v44h270v-263c-37 -49 -145 -99 -263 -99zM373 823
c0 19 14 32 34 32c21 0 34 -13 34 -32s-13 -32 -34 -32c-20 0 -34 13 -34 32z" />
    <glyph glyph-name="gdotaccent" unicode="&#x121;" horiz-adv-x="593" 
d="M465 23v96c-20 -64 -73 -130 -198 -130c-130 0 -220 76 -220 249c0 197 92 272 227 272c99 0 169 -53 193 -124v114h43v-476c0 -147 -79 -211 -231 -211c-86 0 -161 35 -189 64v68c28 -45 91 -90 190 -90c121 0 185 48 185 168zM465 215v61c0 119 -74 192 -186 192
c-110 0 -187 -59 -187 -225c0 -151 76 -212 187 -212c120 0 183 73 186 184zM263 726c0 19 14 32 34 32c21 0 34 -13 34 -32s-13 -32 -34 -32c-20 0 -34 13 -34 32z" />
    <glyph glyph-name="uni0122" unicode="&#x122;" horiz-adv-x="739" 
d="M407 -10c-223 3 -357 140 -357 361c0 206 140 358 355 359c115 0 202 -43 238 -81v-83c-41 71 -133 120 -238 120c-179 -1 -305 -125 -305 -316c0 -186 116 -315 315 -316c100 1 175 36 210 73v201h-225v44h270v-263c-37 -49 -145 -99 -263 -99zM347 -224
c61 14 90 70 76 103c-3 -3 -7 -5 -13 -5c-26 0 -36 14 -36 33c0 18 11 32 37 32c41 0 56 -38 56 -71c0 -64 -53 -108 -96 -118z" />
    <glyph glyph-name="uni0123" unicode="&#x123;" horiz-adv-x="593" 
d="M465 23v96c-20 -64 -73 -130 -198 -130c-130 0 -220 76 -220 249c0 197 92 272 227 272c99 0 169 -53 193 -124v114h43v-476c0 -147 -79 -211 -231 -211c-86 0 -161 35 -189 64v68c28 -45 91 -90 190 -90c121 0 185 48 185 168zM465 215v61c0 119 -74 192 -186 192
c-110 0 -187 -59 -187 -225c0 -151 76 -212 187 -212c120 0 183 73 186 184zM357 763c-61 -14 -90 -70 -76 -103c3 3 7 5 13 5c26 0 36 -14 36 -33c0 -18 -11 -32 -37 -32c-41 0 -56 38 -56 71c0 64 53 108 96 118z" />
    <glyph glyph-name="Hcircumflex" unicode="&#x124;" horiz-adv-x="788" 
d="M640 0v338h-492v-338h-48v700h48v-318h492v318h48v-700h-48zM418 860l155 -114h-39l-140 72l-140 -72h-39l155 114h48z" />
    <glyph glyph-name="hcircumflex" unicode="&#x125;" horiz-adv-x="579" 
d="M457 0v315c0 112 -54 153 -154 153c-118 0 -175 -67 -175 -175v-293h-45v750h45v-356c20 66 81 115 189 115h2c115 -1 183 -58 183 -180v-329h-45zM85 890h40l143 -154h-33l-130 109l-130 -109h-33z" />
    <glyph glyph-name="Hbar" unicode="&#x126;" horiz-adv-x="795" 
d="M14 536v44h93v120h48v-120h486v120h48v-120h92v-44h-92v-536h-48v338h-486v-338h-48v536h-93zM155 536v-154h486v154h-486z" />
    <glyph glyph-name="hbar" unicode="&#x127;" horiz-adv-x="610" 
d="M488 0v315c0 111 -53 152 -151 153h-3c-118 0 -175 -67 -175 -175v-293h-45v608h-92v42h92v100h45v-100h165v-42h-165v-214c20 66 81 115 189 115h2c115 -1 183 -58 183 -180v-329h-45z" />
    <glyph glyph-name="Imacron" unicode="&#x12a;" horiz-adv-x="248" 
d="M148 700v-700h-48v700h48zM-26 781v41h300v-41h-300z" />
    <glyph glyph-name="imacron" unicode="&#x12b;" horiz-adv-x="222" 
d="M83 0v500h45v-500h-45zM-39 641v41h300v-41h-300z" />
    <glyph glyph-name="Iogonek" unicode="&#x12e;" horiz-adv-x="248" 
d="M148 700v-700h-24c-80 -47 -115 -97 -115 -144c0 -46 34 -71 83 -71c14 0 29 2 45 6v-26c-15 -7 -39 -15 -70 -15c-72 0 -108 44 -108 95c0 61 46 117 141 167v688h48z" />
    <glyph glyph-name="iogonek" unicode="&#x12f;" horiz-adv-x="240" 
d="M136 0c-80 -47 -115 -97 -115 -144c0 -46 34 -71 83 -71c14 0 29 2 45 6v-26c-15 -7 -39 -15 -70 -15c-72 0 -108 44 -108 95c0 57 42 111 127 159v496h45v-500h-7zM86 726c0 19 14 32 34 32c21 0 34 -13 34 -32s-13 -32 -34 -32c-20 0 -34 13 -34 32z" />
    <glyph glyph-name="Idotaccent" unicode="&#x130;" horiz-adv-x="248" 
d="M148 700v-700h-48v700h48zM90 823c0 19 14 32 34 32c21 0 34 -13 34 -32s-13 -32 -34 -32c-20 0 -34 13 -34 32z" />
    <glyph glyph-name="Jcircumflex" unicode="&#x134;" horiz-adv-x="410" 
d="M310 700v-538c0 -111 -64 -167 -162 -167c-53 0 -99 18 -122 38v66c27 -38 73 -60 117 -60c76 0 119 41 119 126v535h48zM309 860l155 -114h-39l-140 72l-140 -72h-39l155 114h48z" />
    <glyph glyph-name="jcircumflex" unicode="&#x135;" horiz-adv-x="225" 
d="M97 -36v536h45v-534c0 -98 -31 -152 -122 -152c-30 0 -59 10 -74 19v59c19 -22 46 -34 75 -34c49 0 76 24 76 106zM93 750h40l143 -154h-33l-130 109l-130 -109h-33z" />
    <glyph glyph-name="uni0136" unicode="&#x136;" horiz-adv-x="713" 
d="M148 335v-335h-48v700h48v-323h149l300 323h62l-319 -341l357 -359h-64l-334 335h-151zM297 -224c61 14 90 70 76 103c-3 -3 -7 -5 -13 -5c-26 0 -36 14 -36 33c0 18 11 32 37 32c41 0 56 -38 56 -71c0 -64 -53 -108 -96 -118z" />
    <glyph glyph-name="uni0137" unicode="&#x137;" horiz-adv-x="525" 
d="M83 750h45v-473h112l177 223h53l-192 -239l224 -261h-58l-204 237h-112v-237h-45v750zM203 -224c61 14 90 70 76 103c-3 -3 -7 -5 -13 -5c-26 0 -36 14 -36 33c0 18 11 32 37 32c41 0 56 -38 56 -71c0 -64 -53 -108 -96 -118z" />
    <glyph glyph-name="Lacute" unicode="&#x139;" horiz-adv-x="604" 
d="M148 700v-656h430v-44h-478v700h48zM150 740h-45l135 120h88z" />
    <glyph glyph-name="lacute" unicode="&#x13a;" horiz-adv-x="296" 
d="M278 48v-42c-16 -9 -48 -16 -77 -16c-78 0 -118 39 -118 125v635h45v-623c0 -68 23 -93 80 -93c24 0 54 6 70 14zM128 780h-45l135 120h88z" />
    <glyph glyph-name="uni013B" unicode="&#x13b;" horiz-adv-x="604" 
d="M148 700v-656h430v-44h-478v700h48zM242 -224c61 14 90 70 76 103c-3 -3 -7 -5 -13 -5c-26 0 -36 14 -36 33c0 18 11 32 37 32c41 0 56 -38 56 -71c0 -64 -53 -108 -96 -118z" />
    <glyph glyph-name="uni013C" unicode="&#x13c;" horiz-adv-x="296" 
d="M278 48v-42c-16 -9 -48 -16 -77 -16c-78 0 -118 39 -118 125v635h45v-623c0 -68 23 -93 80 -93c24 0 54 6 70 14zM88 -224c61 14 90 70 76 103c-3 -3 -7 -5 -13 -5c-26 0 -36 14 -36 33c0 18 11 32 37 32c41 0 56 -38 56 -71c0 -64 -53 -108 -96 -118z" />
    <glyph glyph-name="Lcaron" unicode="&#x13d;" horiz-adv-x="604" 
d="M148 700v-656h430v-44h-478v700h48zM365 520l46 180h64l-66 -180h-44z" />
    <glyph glyph-name="lcaron" unicode="&#x13e;" horiz-adv-x="296" 
d="M278 48v-42c-16 -9 -48 -16 -77 -16c-78 0 -118 39 -118 125v635h45v-623c0 -68 23 -93 80 -93c24 0 54 6 70 14zM236 570l46 180h64l-66 -180h-44z" />
    <glyph glyph-name="Ldot" unicode="&#x13f;" horiz-adv-x="604" 
d="M148 700v-656h430v-44h-478v700h48zM386 406c0 19 14 32 34 32c21 0 34 -13 34 -32s-13 -32 -34 -32c-20 0 -34 13 -34 32z" />
    <glyph glyph-name="ldot" unicode="&#x140;" horiz-adv-x="317" 
d="M278 48v-42c-16 -9 -48 -16 -77 -16c-78 0 -118 39 -118 125v635h45v-623c0 -68 23 -93 80 -93c24 0 54 6 70 14zM231 416c0 19 14 32 35 32s34 -13 34 -32s-14 -32 -34 -32c-21 0 -35 13 -35 32z" />
    <glyph glyph-name="Nacute" unicode="&#x143;" horiz-adv-x="798" 
d="M647 0l-499 625v-625h-48v700h51l499 -625v625h48v-700h-51zM424 740h-45l135 120h88z" />
    <glyph glyph-name="nacute" unicode="&#x144;" horiz-adv-x="579" 
d="M457 0v315c0 112 -54 153 -154 153c-118 0 -175 -67 -175 -175v-293h-45v500h44v-106c21 66 82 115 190 115c116 0 185 -57 185 -180v-329h-45zM292 590h-34l100 160h74z" />
    <glyph glyph-name="uni0145" unicode="&#x145;" horiz-adv-x="798" 
d="M647 0l-499 625v-625h-48v700h51l499 -625v625h48v-700h-51zM339 -224c61 14 90 70 76 103c-3 -3 -7 -5 -13 -5c-26 0 -36 14 -36 33c0 18 11 32 37 32c41 0 56 -38 56 -71c0 -64 -53 -108 -96 -118z" />
    <glyph glyph-name="uni0146" unicode="&#x146;" horiz-adv-x="579" 
d="M457 0v315c0 112 -54 153 -154 153c-118 0 -175 -67 -175 -175v-293h-45v500h44v-106c21 66 82 115 190 115c116 0 185 -57 185 -180v-329h-45zM230 -224c61 14 90 70 76 103c-3 -3 -7 -5 -13 -5c-26 0 -36 14 -36 33c0 18 11 32 37 32c41 0 56 -38 56 -71
c0 -64 -53 -108 -96 -118z" />
    <glyph glyph-name="Ncaron" unicode="&#x147;" horiz-adv-x="798" 
d="M647 0l-499 625v-625h-48v700h51l499 -625v625h48v-700h-51zM423 746h-48l-155 114h39l140 -72l140 72h39z" />
    <glyph glyph-name="ncaron" unicode="&#x148;" horiz-adv-x="579" 
d="M457 0v315c0 112 -54 153 -154 153c-118 0 -175 -67 -175 -175v-293h-45v500h44v-106c21 66 82 115 190 115c116 0 185 -57 185 -180v-329h-45zM310 596h-40l-143 154h33l130 -109l130 109h33z" />
    <glyph glyph-name="Omacron" unicode="&#x14c;" horiz-adv-x="814" 
d="M404 710h3c223 -3 357 -141 357 -361c0 -206 -140 -357 -353 -359c-226 2 -361 139 -361 361c0 204 137 355 354 359zM100 350c0 -186 116 -315 315 -316c176 3 299 127 299 316c0 186 -116 317 -315 316c-176 -1 -299 -127 -299 -316zM257 781v41h300v-41h-300z" />
    <glyph glyph-name="omacron" unicode="&#x14d;" horiz-adv-x="572" 
d="M46 252c0 170 104 258 239 258c148 -1 240 -88 240 -262c0 -170 -104 -258 -239 -258c-149 1 -240 87 -240 262zM92 252v-3c0 -149 76 -218 194 -218c117 0 193 73 193 217v3c0 149 -77 218 -195 218c-117 -1 -192 -74 -192 -217zM136 641v41h300v-41h-300z" />
    <glyph glyph-name="Ohungarumlaut" unicode="&#x150;" horiz-adv-x="814" 
d="M404 710h3c223 -3 357 -141 357 -361c0 -206 -140 -357 -353 -359c-226 2 -361 139 -361 361c0 204 137 355 354 359zM100 350c0 -186 116 -315 315 -316c176 3 299 127 299 316c0 186 -116 317 -315 316c-176 -1 -299 -127 -299 -316zM353 740h-40l82 120h76zM507 740
h-40l123 120h90z" />
    <glyph glyph-name="ohungarumlaut" unicode="&#x151;" horiz-adv-x="572" 
d="M46 252c0 170 104 258 239 258c148 -1 240 -88 240 -262c0 -170 -104 -258 -239 -258c-149 1 -240 87 -240 262zM92 252v-3c0 -149 76 -218 194 -218c117 0 193 73 193 217v3c0 149 -77 218 -195 218c-117 -1 -192 -74 -192 -217zM190 590h-34l74 160h67zM344 590h-34
l109 160h77z" />
    <glyph glyph-name="Racute" unicode="&#x154;" horiz-adv-x="681" 
d="M580 0l-184 253c-29 -5 -61 -7 -96 -7h-152v-246h-48v700h219c177 0 277 -67 277 -224c0 -109 -53 -178 -150 -210l193 -266h-59zM314 656h-166v-366h149c163 0 249 57 249 189c0 129 -81 177 -232 177zM366 740h-45l135 120h88z" />
    <glyph glyph-name="racute" unicode="&#x155;" horiz-adv-x="358" 
d="M258 468c-89 0 -131 -67 -130 -175v-293h-45v500h44v-106c15 65 59 114 139 115c24 0 52 -8 62 -17v-53c-16 18 -40 28 -70 29zM201 590h-34l100 160h74z" />
    <glyph glyph-name="uni0156" unicode="&#x156;" horiz-adv-x="681" 
d="M580 0l-184 253c-29 -5 -61 -7 -96 -7h-152v-246h-48v700h219c177 0 277 -67 277 -224c0 -109 -53 -178 -150 -210l193 -266h-59zM314 656h-166v-366h149c163 0 249 57 249 189c0 129 -81 177 -232 177zM281 -224c61 14 90 70 76 103c-3 -3 -7 -5 -13 -5
c-26 0 -36 14 -36 33c0 18 11 32 37 32c41 0 56 -38 56 -71c0 -64 -53 -108 -96 -118z" />
    <glyph glyph-name="uni0157" unicode="&#x157;" horiz-adv-x="358" 
d="M258 468c-89 0 -131 -67 -130 -175v-293h-45v500h44v-106c15 65 59 114 139 115c24 0 52 -8 62 -17v-53c-16 18 -40 28 -70 29zM45 -224c61 14 90 70 76 103c-3 -3 -7 -5 -13 -5c-26 0 -36 14 -36 33c0 18 11 32 37 32c41 0 56 -38 56 -71c0 -64 -53 -108 -96 -118z" />
    <glyph glyph-name="Rcaron" unicode="&#x158;" horiz-adv-x="681" 
d="M580 0l-184 253c-29 -5 -61 -7 -96 -7h-152v-246h-48v700h219c177 0 277 -67 277 -224c0 -109 -53 -178 -150 -210l193 -266h-59zM314 656h-166v-366h149c163 0 249 57 249 189c0 129 -81 177 -232 177zM365 746h-48l-155 114h39l140 -72l140 72h39z" />
    <glyph glyph-name="rcaron" unicode="&#x159;" horiz-adv-x="358" 
d="M258 468c-89 0 -131 -67 -130 -175v-293h-45v500h44v-106c15 65 59 114 139 115c24 0 52 -8 62 -17v-53c-16 18 -40 28 -70 29zM219 596h-40l-143 154h33l130 -109l130 109h33z" />
    <glyph glyph-name="Sacute" unicode="&#x15a;" horiz-adv-x="631" 
d="M548 547c-41 71 -133 120 -235 120c-120 -2 -191 -49 -191 -130c0 -207 446 -96 446 -357c0 -114 -92 -190 -245 -190c-126 0 -224 49 -261 91v77c41 -67 135 -124 266 -124c107 0 190 46 190 145c0 210 -445 100 -445 356c0 115 103 176 240 176c112 0 199 -43 235 -81
v-83zM341 740h-45l135 120h88z" />
    <glyph glyph-name="sacute" unicode="&#x15b;" horiz-adv-x="478" 
d="M408 387c-34 53 -92 82 -160 82h-2c-83 0 -139 -32 -139 -93c0 -141 318 -61 318 -242c0 -91 -66 -143 -189 -144c-88 0 -151 30 -178 61v62c29 -45 93 -82 178 -82c91 0 144 36 144 99c0 142 -318 65 -318 242c0 80 61 138 186 138c67 0 127 -23 160 -50v-73zM241 590
h-34l100 160h74z" />
    <glyph glyph-name="Scircumflex" unicode="&#x15c;" horiz-adv-x="631" 
d="M548 547c-41 71 -133 120 -235 120c-120 -2 -191 -49 -191 -130c0 -207 446 -96 446 -357c0 -114 -92 -190 -245 -190c-126 0 -224 49 -261 91v77c41 -67 135 -124 266 -124c107 0 190 46 190 145c0 210 -445 100 -445 356c0 115 103 176 240 176c112 0 199 -43 235 -81
v-83zM340 860l155 -114h-39l-140 72l-140 -72h-39l155 114h48z" />
    <glyph glyph-name="scircumflex" unicode="&#x15d;" horiz-adv-x="478" 
d="M408 387c-34 53 -92 82 -160 82h-2c-83 0 -139 -32 -139 -93c0 -141 318 -61 318 -242c0 -91 -66 -143 -189 -144c-88 0 -151 30 -178 61v62c29 -45 93 -82 178 -82c91 0 144 36 144 99c0 142 -318 65 -318 242c0 80 61 138 186 138c67 0 127 -23 160 -50v-73zM219 750
h40l143 -154h-33l-130 109l-130 -109h-33z" />
    <glyph glyph-name="Scedilla" unicode="&#x15e;" horiz-adv-x="631" 
d="M548 547c-41 71 -133 120 -235 120c-120 -2 -191 -49 -191 -130c0 -207 446 -96 446 -357c0 -112 -89 -187 -238 -190l-18 -55c74 -7 115 -31 115 -77c0 -77 -110 -108 -189 -108v26c66 0 141 26 141 78c0 39 -46 53 -111 54l28 83c-113 7 -200 51 -234 90v77
c41 -67 135 -124 266 -124c107 0 190 46 190 145c0 210 -445 100 -445 356c0 115 103 176 240 176c112 0 199 -43 235 -81v-83z" />
    <glyph glyph-name="scedilla" unicode="&#x15f;" horiz-adv-x="478" 
d="M408 387c-34 53 -92 82 -160 82h-2c-83 0 -139 -32 -139 -93c0 -141 318 -61 318 -242c0 -87 -60 -138 -172 -143l-19 -56c74 -7 115 -31 115 -77c0 -77 -110 -108 -189 -108v26c66 0 141 26 141 78c0 39 -46 53 -111 54l28 83c-79 3 -135 31 -160 60v62
c29 -45 93 -82 178 -82c91 0 144 36 144 99c0 142 -318 65 -318 242c0 80 61 138 186 138c67 0 127 -23 160 -50v-73z" />
    <glyph glyph-name="uni0162" unicode="&#x162;" horiz-adv-x="614" 
d="M604 700v-44h-273v-656h-6l-22 -65c74 -7 115 -31 115 -77c0 -77 -110 -108 -189 -108v26c66 0 141 26 141 78c0 39 -46 53 -111 54l31 92h-7v656h-273v44h594z" />
    <glyph glyph-name="uni0163" unicode="&#x163;" horiz-adv-x="409" 
d="M26 500h96v109l46 19v-128h198v-42h-198v-312c0 -87 29 -114 104 -114c47 0 83 11 112 26v-41c-21 -12 -61 -25 -105 -27l-18 -55c74 -7 115 -31 115 -77c0 -77 -110 -108 -189 -108v26c66 0 141 26 141 78c0 39 -46 53 -111 54l28 83c-83 7 -123 48 -123 144v323h-96v42
z" />
    <glyph glyph-name="Tcaron" unicode="&#x164;" horiz-adv-x="614" 
d="M604 700v-44h-273v-656h-48v656h-273v44h594zM331 746h-48l-155 114h39l140 -72l140 72h39z" />
    <glyph glyph-name="tcaron" unicode="&#x165;" horiz-adv-x="430" 
d="M26 500h96v109l46 19v-128h198v-42h-198v-312c0 -87 29 -114 104 -114c47 0 83 11 112 26v-41c-22 -13 -67 -27 -114 -27c-100 0 -148 40 -148 145v323h-96v42zM288 570l46 180h64l-66 -180h-44z" />
    <glyph glyph-name="Umacron" unicode="&#x16a;" horiz-adv-x="750" 
d="M143 700v-413c0 -185 90 -253 239 -253c133 0 225 64 225 241v425h48v-422c0 -208 -113 -288 -278 -288c-187 0 -282 97 -282 289v421h48zM225 781v41h300v-41h-300z" />
    <glyph glyph-name="umacron" unicode="&#x16b;" horiz-adv-x="573" 
d="M122 500v-315c0 -110 52 -152 148 -153h3c116 0 172 67 172 175v293h45v-500h-44v106c-21 -66 -79 -114 -184 -115h-4c-114 2 -181 58 -181 180v329h45zM137 641v41h300v-41h-300z" />
    <glyph glyph-name="Ubreve" unicode="&#x16c;" horiz-adv-x="750" 
d="M143 700v-413c0 -185 90 -253 239 -253c133 0 225 64 225 241v425h48v-422c0 -208 -113 -288 -278 -288c-187 0 -282 97 -282 289v421h48zM375 743c-94 0 -153 53 -172 117h27c27 -42 76 -75 145 -75c65 0 124 33 145 75h27c-20 -67 -86 -117 -172 -117z" />
    <glyph glyph-name="ubreve" unicode="&#x16d;" horiz-adv-x="573" 
d="M122 500v-315c0 -110 52 -152 148 -153h3c116 0 172 67 172 175v293h45v-500h-44v106c-21 -66 -79 -114 -184 -115h-4c-114 2 -181 58 -181 180v329h45zM287 602c-85 0 -140 53 -156 148h29c21 -68 64 -104 127 -104s108 36 126 104h30c-14 -95 -76 -148 -156 -148z" />
    <glyph glyph-name="Uring" unicode="&#x16e;" horiz-adv-x="750" 
d="M143 700v-413c0 -185 90 -253 239 -253c133 0 225 64 225 241v425h48v-422c0 -208 -113 -288 -278 -288c-187 0 -282 97 -282 289v421h48zM257 780c0 52 45 80 119 80c72 0 118 -29 118 -80s-46 -80 -118 -80c-74 0 -119 29 -119 80zM295 780c0 -32 27 -50 81 -50
c52 0 80 18 80 50s-28 50 -80 50c-55 0 -81 -18 -81 -50z" />
    <glyph glyph-name="uring" unicode="&#x16f;" horiz-adv-x="573" 
d="M122 500v-315c0 -110 52 -152 148 -153h3c116 0 172 67 172 175v293h45v-500h-44v106c-21 -66 -79 -114 -184 -115h-4c-114 2 -181 58 -181 180v329h45zM186 689c0 57 37 99 101 99s101 -42 101 -99c0 -59 -39 -99 -101 -99s-101 41 -101 99zM220 689
c0 -38 27 -67 67 -67s67 27 67 67c0 38 -25 67 -67 67c-40 0 -67 -27 -67 -67z" />
    <glyph glyph-name="Uhungarumlaut" unicode="&#x170;" horiz-adv-x="750" 
d="M143 700v-413c0 -185 90 -253 239 -253c133 0 225 64 225 241v425h48v-422c0 -208 -113 -288 -278 -288c-187 0 -282 97 -282 289v421h48zM321 740h-40l82 120h76zM475 740h-40l123 120h90z" />
    <glyph glyph-name="uhungarumlaut" unicode="&#x171;" horiz-adv-x="573" 
d="M122 500v-315c0 -110 52 -152 148 -153h3c116 0 172 67 172 175v293h45v-500h-44v106c-21 -66 -79 -114 -184 -115h-4c-114 2 -181 58 -181 180v329h45zM345 590h-34l109 160h77zM191 590h-34l74 160h67z" />
    <glyph glyph-name="Uogonek" unicode="&#x172;" horiz-adv-x="750" 
d="M143 700v-413c0 -185 90 -253 239 -253c133 0 225 64 225 241v425h48v-422c0 -183 -87 -267 -221 -284c-72 -45 -104 -93 -104 -138c0 -46 34 -71 83 -71c14 0 29 2 45 6v-26c-15 -7 -39 -15 -70 -15c-72 0 -108 44 -108 95c0 52 33 100 102 145h-5
c-187 0 -282 97 -282 289v421h48z" />
    <glyph glyph-name="uogonek" unicode="&#x173;" horiz-adv-x="573" 
d="M122 500v-315c0 -110 52 -152 148 -153h3c116 0 172 67 172 175v293h45v-500h-4c-80 -47 -115 -97 -115 -144c0 -46 34 -71 83 -71c14 0 29 2 45 6v-26c-15 -7 -39 -15 -70 -15c-72 0 -108 44 -108 95c0 57 41 110 125 158v103c-21 -66 -79 -114 -184 -115h-4
c-114 2 -181 58 -181 180v329h45z" />
    <glyph glyph-name="Zacute" unicode="&#x179;" horiz-adv-x="612" 
d="M46 656v44h537v-30l-486 -626h475v-44h-542v30l487 626h-471zM331 740h-45l135 120h88z" />
    <glyph glyph-name="zacute" unicode="&#x17a;" horiz-adv-x="462" 
d="M427 0h-395v35l334 423h-317v42h377v-35l-337 -423h338v-42zM233 590h-34l100 160h74z" />
    <glyph glyph-name="Zdotaccent" unicode="&#x17b;" horiz-adv-x="612" 
d="M46 656v44h537v-30l-486 -626h475v-44h-542v30l487 626h-471zM272 823c0 19 14 32 34 32c21 0 34 -13 34 -32s-13 -32 -34 -32c-20 0 -34 13 -34 32z" />
    <glyph glyph-name="zdotaccent" unicode="&#x17c;" horiz-adv-x="462" 
d="M427 0h-395v35l334 423h-317v42h377v-35l-337 -423h338v-42zM197 726c0 19 14 32 34 32c21 0 34 -13 34 -32s-13 -32 -34 -32c-20 0 -34 13 -34 32z" />
    <glyph glyph-name="uni018F" unicode="&#x18f;" horiz-adv-x="783" 
d="M147 546v83c47 50 145 81 238 81c217 0 348 -139 348 -361c0 -207 -135 -358 -342 -359c-184 0 -341 113 -341 341v51h634c-12 168 -120 284 -299 284c-105 0 -197 -49 -238 -120zM390 34c169 0 291 119 296 304h-588v-7c0 -192 127 -296 292 -297z" />
    <glyph glyph-name="uni01DD" unicode="&#x1dd;" horiz-adv-x="553" 
d="M79 454c30 29 93 56 182 56c149 0 241 -87 241 -262c0 -170 -104 -258 -239 -258s-216 88 -216 236v37h409c-4 140 -80 206 -195 206c-88 0 -150 -37 -182 -85v70zM263 31c110 0 183 64 192 192h-363v-3c0 -124 70 -189 171 -189z" />
    <glyph glyph-name="Gcaron" unicode="&#x1e6;" horiz-adv-x="739" 
d="M407 -10c-223 3 -357 140 -357 361c0 206 140 358 355 359c115 0 202 -43 238 -81v-83c-41 71 -133 120 -238 120c-179 -1 -305 -125 -305 -316c0 -186 116 -315 315 -316c100 1 175 36 210 73v201h-225v44h270v-263c-37 -49 -145 -99 -263 -99zM431 746h-48l-155 114h39
l140 -72l140 72h39z" />
    <glyph glyph-name="gcaron" unicode="&#x1e7;" horiz-adv-x="593" 
d="M465 23v96c-20 -64 -73 -130 -198 -130c-130 0 -220 76 -220 249c0 197 92 272 227 272c99 0 169 -53 193 -124v114h43v-476c0 -147 -79 -211 -231 -211c-86 0 -161 35 -189 64v68c28 -45 91 -90 190 -90c121 0 185 48 185 168zM465 215v61c0 119 -74 192 -186 192
c-110 0 -187 -59 -187 -225c0 -151 76 -212 187 -212c120 0 183 73 186 184zM317 596h-40l-143 154h33l130 -109l130 109h33z" />
    <glyph glyph-name="uni0218" unicode="&#x218;" horiz-adv-x="631" 
d="M548 547c-41 71 -133 120 -235 120c-120 -2 -191 -49 -191 -130c0 -207 446 -96 446 -357c0 -114 -92 -190 -245 -190c-126 0 -224 49 -261 91v77c41 -67 135 -124 266 -124c107 0 190 46 190 145c0 210 -445 100 -445 356c0 115 103 176 240 176c112 0 199 -43 235 -81
v-83zM256 -224c61 14 90 70 76 103c-3 -3 -7 -5 -13 -5c-26 0 -36 14 -36 33c0 18 11 32 37 32c41 0 56 -38 56 -71c0 -64 -53 -108 -96 -118z" />
    <glyph glyph-name="uni0219" unicode="&#x219;" horiz-adv-x="478" 
d="M408 387c-34 53 -92 82 -160 82h-2c-83 0 -139 -32 -139 -93c0 -141 318 -61 318 -242c0 -91 -66 -143 -189 -144c-88 0 -151 30 -178 61v62c29 -45 93 -82 178 -82c91 0 144 36 144 99c0 142 -318 65 -318 242c0 80 61 138 186 138c67 0 127 -23 160 -50v-73zM179 -224
c61 14 90 70 76 103c-3 -3 -7 -5 -13 -5c-26 0 -36 14 -36 33c0 18 11 32 37 32c41 0 56 -38 56 -71c0 -64 -53 -108 -96 -118z" />
    <glyph glyph-name="uni021A" unicode="&#x21a;" horiz-adv-x="614" 
d="M604 700v-44h-273v-656h-48v656h-273v44h594zM238 -224c61 14 90 70 76 103c-3 -3 -7 -5 -13 -5c-26 0 -36 14 -36 33c0 18 11 32 37 32c41 0 56 -38 56 -71c0 -64 -53 -108 -96 -118z" />
    <glyph glyph-name="uni021B" unicode="&#x21b;" horiz-adv-x="409" 
d="M26 500h96v109l46 19v-128h198v-42h-198v-312c0 -87 29 -114 104 -114c47 0 83 11 112 26v-41c-22 -13 -67 -27 -114 -27c-100 0 -148 40 -148 145v323h-96v42zM206 -224c61 14 90 70 76 103c-3 -3 -7 -5 -13 -5c-26 0 -36 14 -36 33c0 18 11 32 37 32
c41 0 56 -38 56 -71c0 -64 -53 -108 -96 -118z" />
    <glyph glyph-name="uni0237" unicode="&#x237;" horiz-adv-x="225" 
d="M97 -36v536h45v-534c0 -98 -31 -152 -122 -152c-30 0 -59 10 -74 19v59c19 -22 46 -34 75 -34c49 0 76 24 76 106z" />
    <glyph glyph-name="uni0259" unicode="&#x259;" horiz-adv-x="553" 
d="M79 454c30 29 93 56 182 56c149 0 241 -87 241 -262c0 -170 -104 -258 -239 -258s-216 88 -216 236v37h409c-4 140 -80 206 -195 206c-88 0 -150 -37 -182 -85v70zM263 31c110 0 183 64 192 192h-363v-3c0 -124 70 -189 171 -189z" />
    <glyph glyph-name="uni02BC" unicode="&#x2bc;" horiz-adv-x="180" 
d="M45 520l46 180h64l-66 -180h-44z" />
    <glyph glyph-name="acutecomb" unicode="&#x301;" horiz-adv-x="0" 
d="M-296 590h-34l100 160h74z" />
    <glyph glyph-name="uni0394" unicode="&#x394;" horiz-adv-x="620" 
d="M338 700l248 -700h-552l248 700h56zM310 649l-215 -605h429z" />
    <glyph glyph-name="uni0394" unicode="&#x2206;" horiz-adv-x="620" 
d="M338 700l248 -700h-552l248 700h56zM310 649l-215 -605h429z" />
    <glyph glyph-name="uni03A9" unicode="&#x3a9;" horiz-adv-x="851" 
d="M424 710c229 0 371 -135 371 -351c0 -149 -71 -265 -198 -315h201v-44h-353v50c182 0 300 124 300 300c0 184 -110 315 -321 316c-203 -1 -319 -121 -319 -311c0 -158 101 -304 301 -305v-50h-352v44h198c-128 50 -197 168 -197 317c0 206 131 348 369 349z" />
    <glyph glyph-name="uni03A9" unicode="&#x2126;" horiz-adv-x="851" 
d="M424 710c229 0 371 -135 371 -351c0 -149 -71 -265 -198 -315h201v-44h-353v50c182 0 300 124 300 300c0 184 -110 315 -321 316c-203 -1 -319 -121 -319 -311c0 -158 101 -304 301 -305v-50h-352v44h198c-128 50 -197 168 -197 317c0 206 131 348 369 349z" />
    <glyph glyph-name="pi" unicode="&#x3c0;" horiz-adv-x="686" 
d="M650 48v-42c-16 -9 -48 -16 -78 -16c-78 0 -118 39 -118 125v343h-275v-458h-45v458h-82v42h528v-42h-81v-331c0 -68 23 -93 81 -93c24 0 54 6 70 14z" />
    <glyph glyph-name="uni0401" unicode="&#x401;" horiz-adv-x="629" 
d="M529 382v-44h-381v-294h430v-44h-478v700h467v-44h-419v-274h381zM415 823c0 19 14 32 34 32c21 0 34 -13 34 -32s-13 -32 -34 -32c-20 0 -34 13 -34 32zM207 823c0 19 14 32 34 32c21 0 34 -13 34 -32s-13 -32 -34 -32c-20 0 -34 13 -34 32z" />
    <glyph glyph-name="uni0402" unicode="&#x402;" horiz-adv-x="840" 
d="M603 700v-44h-275v-251c41 20 120 38 195 38c174 0 265 -62 265 -188v-93c0 -111 -65 -167 -162 -167c-54 0 -99 18 -122 38v66c27 -38 73 -60 116 -60c77 0 120 41 120 126v71c0 115 -70 163 -225 163c-67 0 -145 -15 -187 -37v-362h-48v656h-270v44h593z" />
    <glyph glyph-name="uni0403" unicode="&#x403;" horiz-adv-x="574" 
d="M560 700v-44h-412v-656h-48v700h460zM312 740h-45l135 120h88z" />
    <glyph glyph-name="uni0404" unicode="&#x404;" horiz-adv-x="707" 
d="M510 382v-44h-401c5 -175 114 -297 301 -304c128 0 218 57 257 124v-77c-35 -42 -129 -91 -253 -91c-222 4 -355 141 -355 361c0 207 141 359 357 359c115 0 202 -43 238 -81v-83c-41 71 -133 120 -238 120c-170 0 -292 -111 -306 -284h400z" />
    <glyph glyph-name="uni0405" unicode="&#x405;" horiz-adv-x="631" 
d="M548 547c-41 71 -133 120 -235 120c-120 -2 -191 -49 -191 -130c0 -207 446 -96 446 -357c0 -114 -92 -190 -245 -190c-126 0 -224 49 -261 91v77c41 -67 135 -124 266 -124c107 0 190 46 190 145c0 210 -445 100 -445 356c0 115 103 176 240 176c112 0 199 -43 235 -81
v-83z" />
    <glyph glyph-name="uni0406" unicode="&#x406;" horiz-adv-x="248" 
d="M148 700v-700h-48v700h48z" />
    <glyph glyph-name="uni0407" unicode="&#x407;" horiz-adv-x="248" 
d="M148 700v-700h-48v700h48zM194 823c0 19 14 32 34 32c21 0 34 -13 34 -32s-13 -32 -34 -32c-20 0 -34 13 -34 32zM-14 823c0 19 14 32 34 32c21 0 34 -13 34 -32s-13 -32 -34 -32c-20 0 -34 13 -34 32z" />
    <glyph glyph-name="uni0408" unicode="&#x408;" horiz-adv-x="410" 
d="M310 700v-538c0 -111 -64 -167 -162 -167c-53 0 -99 18 -122 38v66c27 -38 73 -60 117 -60c76 0 119 41 119 126v535h48z" />
    <glyph glyph-name="uni0409" unicode="&#x409;" horiz-adv-x="1112" 
d="M585 0v656h-356l-6 -163c-19 -450 -100 -500 -181 -500c-13 0 -21 1 -30 4v53c9 -5 17 -6 27 -6c53 0 123 47 138 458l6 198h450v-246h150c177 0 277 -67 277 -224c0 -154 -105 -230 -296 -230h-179zM778 410h-145v-366h128c163 0 249 57 249 189c0 129 -81 177 -232 177
z" />
    <glyph glyph-name="uni040A" unicode="&#x40a;" horiz-adv-x="1135" 
d="M614 0v357h-466v-357h-48v700h48v-299h466v299h48v-299h145c186 0 276 -45 276 -197c0 -146 -85 -204 -276 -204h-193zM806 357h-144v-313h142c162 0 229 38 229 162c0 117 -68 151 -227 151z" />
    <glyph glyph-name="uni040B" unicode="&#x40b;" horiz-adv-x="841" 
d="M603 700v-44h-275v-252c41 21 120 39 196 39c174 0 265 -62 265 -188v-255h-48v236c0 115 -70 163 -225 163c-67 0 -147 -16 -188 -37v-362h-48v656h-270v44h593z" />
    <glyph glyph-name="uni040C" unicode="&#x40c;" horiz-adv-x="713" 
d="M148 335v-335h-48v700h48v-323h149l300 323h62l-319 -341l357 -359h-64l-334 335h-151zM359 740h-45l135 120h88z" />
    <glyph glyph-name="uni040E" unicode="&#x40e;" horiz-adv-x="679" 
d="M246 38c38 0 67 25 94 82l-322 580h56l293 -523l243 523h51l-274 -585c-45 -94 -82 -123 -139 -123c-25 0 -43 6 -59 14v60c12 -16 32 -28 57 -28zM478 880h44c-8 -92 -80 -131 -176 -131c-86 0 -178 21 -187 131h47c6 -58 49 -91 138 -91s128 35 134 91z" />
    <glyph glyph-name="uni040F" unicode="&#x40f;" horiz-adv-x="769" 
d="M100 0v700h48v-656h473v656h48v-700h-262v-130h-45v130h-262z" />
    <glyph glyph-name="uni0410" unicode="&#x410;" horiz-adv-x="699" 
d="M323 700h51l313 -700h-52l-92 205h-391l-90 -205h-51zM347 645l-175 -396h352z" />
    <glyph glyph-name="uni0411" unicode="&#x411;" horiz-adv-x="657" 
d="M100 0v700h463v-44h-415v-214h155c196 0 296 -61 296 -218c0 -154 -105 -224 -296 -224h-203zM304 398h-156v-354h152c163 0 249 51 249 183c0 129 -84 171 -245 171z" />
    <glyph glyph-name="uni0412" unicode="&#x412;" horiz-adv-x="690" 
d="M373 0h-273v700h291c137 0 216 -51 216 -170c0 -85 -42 -141 -119 -165c92 -14 140 -70 140 -161c0 -145 -97 -204 -255 -204zM148 44h230c130 0 202 51 202 159c0 90 -63 136 -185 136h-247v-295zM148 380h241c110 0 170 63 170 142c0 93 -58 134 -178 134h-233v-276z
" />
    <glyph glyph-name="uni0413" unicode="&#x413;" horiz-adv-x="574" 
d="M560 700v-44h-412v-656h-48v700h460z" />
    <glyph glyph-name="uni0414" unicode="&#x414;" horiz-adv-x="759" 
d="M8 44h84c40 99 74 295 77 511l2 145h464v-656h96v-174h-46v130h-631v-130h-46v174zM213 552c-4 -197 -33 -394 -74 -508h448v612h-372z" />
    <glyph glyph-name="uni0415" unicode="&#x415;" horiz-adv-x="629" 
d="M529 382v-44h-381v-294h430v-44h-478v700h467v-44h-419v-274h381z" />
    <glyph glyph-name="uni0416" unicode="&#x416;" horiz-adv-x="990" 
d="M516 700v-326h173l193 326h52l-200 -340l235 -360h-58l-221 336h-174v-336h-48v336h-171l-218 -336h-58l232 356l-200 344h55l188 -326h172v326h48z" />
    <glyph glyph-name="uni0417" unicode="&#x417;" horiz-adv-x="643" 
d="M65 546v83c36 38 123 81 238 81c139 -1 242 -58 242 -178c0 -79 -41 -141 -130 -167c106 -13 166 -74 166 -168c0 -118 -97 -206 -266 -207c-130 0 -228 49 -265 91v77c41 -67 135 -124 270 -124c129 2 211 64 211 164c0 88 -64 140 -208 140h-111v42h110
c120 0 174 61 174 142c0 97 -91 143 -193 144c-105 1 -197 -49 -238 -120z" />
    <glyph glyph-name="uni0418" unicode="&#x418;" horiz-adv-x="795" 
d="M148 700v-634l494 634h53v-700h-48v636l-494 -636h-53v700h48z" />
    <glyph glyph-name="uni0419" unicode="&#x419;" horiz-adv-x="795" 
d="M148 700v-634l494 634h53v-700h-48v636l-494 -636h-53v700h48zM536 880h44c-8 -92 -80 -131 -176 -131c-86 0 -178 21 -187 131h47c6 -58 49 -91 138 -91s128 35 134 91z" />
    <glyph glyph-name="uni041A" unicode="&#x41a;" horiz-adv-x="713" 
d="M148 335v-335h-48v700h48v-323h149l300 323h62l-319 -341l357 -359h-64l-334 335h-151z" />
    <glyph glyph-name="uni041B" unicode="&#x41b;" horiz-adv-x="753" 
d="M605 0v656h-376l-6 -163c-19 -450 -100 -500 -181 -500c-13 0 -21 1 -30 4v53c9 -5 17 -6 27 -6c53 0 123 47 138 458l6 198h470v-700h-48z" />
    <glyph glyph-name="uni041C" unicode="&#x41c;" horiz-adv-x="905" 
d="M757 0v632l-291 -466h-21l-297 459v-625h-48v700h59l298 -467l291 467h57v-700h-48z" />
    <glyph glyph-name="uni041D" unicode="&#x41d;" horiz-adv-x="788" 
d="M640 0v338h-492v-338h-48v700h48v-318h492v318h48v-700h-48z" />
    <glyph glyph-name="uni041E" unicode="&#x41e;" horiz-adv-x="814" 
d="M404 710h3c223 -3 357 -141 357 -361c0 -206 -140 -357 -353 -359c-226 2 -361 139 -361 361c0 204 137 355 354 359zM100 350c0 -186 116 -315 315 -316c176 3 299 127 299 316c0 186 -116 317 -315 316c-176 -1 -299 -127 -299 -316z" />
    <glyph glyph-name="uni041F" unicode="&#x41f;" horiz-adv-x="781" 
d="M633 0v656h-485v-656h-48v700h581v-700h-48z" />
    <glyph glyph-name="uni0420" unicode="&#x420;" horiz-adv-x="655" 
d="M303 246h-155v-246h-48v700h222c177 0 277 -67 277 -224c0 -154 -105 -230 -296 -230zM317 656h-169v-366h152c163 0 249 57 249 189c0 129 -81 177 -232 177z" />
    <glyph glyph-name="uni0421" unicode="&#x421;" horiz-adv-x="698" 
d="M658 158v-77c-35 -42 -129 -91 -253 -91c-222 4 -355 141 -355 361c0 207 141 359 357 359c115 0 202 -43 238 -81v-83c-41 71 -133 120 -238 120c-180 0 -307 -124 -307 -316c0 -181 110 -309 301 -316c128 0 218 57 257 124z" />
    <glyph glyph-name="uni0422" unicode="&#x422;" horiz-adv-x="614" 
d="M604 700v-44h-273v-656h-48v656h-273v44h594z" />
    <glyph glyph-name="uni0423" unicode="&#x423;" horiz-adv-x="679" 
d="M246 38c38 0 67 25 94 82l-322 580h56l293 -523l243 523h51l-274 -585c-45 -94 -82 -123 -139 -123c-25 0 -43 6 -59 14v60c12 -16 32 -28 57 -28z" />
    <glyph glyph-name="uni0424" unicode="&#x424;" horiz-adv-x="934" 
d="M488 720v-53h29c230 0 349 -116 349 -309c0 -205 -127 -311 -352 -311h-26v-67h-48v67h-29c-230 0 -349 116 -349 309c0 205 127 311 352 311h26v53h48zM516 625h-28v-536h27c201 0 301 92 301 263c0 186 -111 273 -300 273zM112 362c0 -186 111 -273 300 -273h28v536
h-27c-201 0 -301 -92 -301 -263z" />
    <glyph glyph-name="uni0425" unicode="&#x425;" horiz-adv-x="652" 
d="M19 0l271 359l-253 341h57l229 -308l243 308h56l-267 -338l278 -362h-57l-254 328l-247 -328h-56z" />
    <glyph glyph-name="uni0426" unicode="&#x426;" horiz-adv-x="793" 
d="M100 0v700h48v-656h473v656h48v-656h96v-174h-46v130h-619z" />
    <glyph glyph-name="uni0427" unicode="&#x427;" horiz-adv-x="689" 
d="M118 700v-233c0 -115 70 -163 224 -163c74 0 161 18 199 43v353h48v-700h-48v304c-37 -23 -124 -44 -206 -44c-174 0 -265 62 -265 188v252h48z" />
    <glyph glyph-name="uni0428" unicode="&#x428;" horiz-adv-x="1000" 
d="M521 700v-656h331v656h48v-700h-800v700h48v-656h325v656h48z" />
    <glyph glyph-name="uni0429" unicode="&#x429;" horiz-adv-x="1024" 
d="M521 700v-656h331v656h48v-656h96v-174h-46v130h-850v700h48v-656h325v656h48z" />
    <glyph glyph-name="uni042A" unicode="&#x42a;" horiz-adv-x="725" 
d="M14 656v44h217v-246h164c177 0 277 -67 277 -224c0 -154 -105 -230 -296 -230h-193v656h-169zM390 410h-159v-366h142c163 0 250 57 250 189c0 129 -82 177 -233 177z" />
    <glyph glyph-name="uni042B" unicode="&#x42b;" horiz-adv-x="848" 
d="M148 700v-246h158c177 0 277 -67 277 -224c0 -154 -105 -230 -296 -230h-187v700h48zM301 410h-153v-366h136c163 0 249 57 249 189c0 129 -81 177 -232 177zM700 0v700h48v-700h-48z" />
    <glyph glyph-name="uni042C" unicode="&#x42c;" horiz-adv-x="643" 
d="M148 700v-246h166c177 0 277 -67 277 -224c0 -154 -105 -230 -296 -230h-195v700h48zM309 410h-161v-366h144c163 0 249 57 249 189c0 129 -81 177 -232 177z" />
    <glyph glyph-name="uni042D" unicode="&#x42d;" horiz-adv-x="721" 
d="M55 546v83c37 38 130 80 250 81c226 0 367 -142 367 -361c0 -207 -138 -359 -366 -359c-125 0 -219 49 -255 91v77c40 -67 130 -124 260 -124c190 2 307 126 311 304h-437v44h436c-12 167 -125 283 -316 284c-111 0 -208 -49 -250 -120z" />
    <glyph glyph-name="uni042E" unicode="&#x42e;" horiz-adv-x="1052" 
d="M651 -10c-214 4 -340 136 -345 348h-158v-338h-48v700h48v-318h159c12 188 139 323 330 328c228 0 365 -138 365 -361c0 -204 -137 -355 -351 -359zM953 350c0 186 -116 315 -316 316c-168 -4 -284 -128 -284 -316c0 -186 111 -315 301 -316c175 4 299 127 299 316z" />
    <glyph glyph-name="uni042F" unicode="&#x42f;" horiz-adv-x="681" 
d="M533 0v246h-177c-26 0 -50 1 -72 4l-178 -250h-58l187 259c-101 27 -156 94 -156 211c0 154 105 230 296 230h206v-700h-48zM129 467c0 -129 81 -177 232 -177h172v366h-155c-163 0 -249 -57 -249 -189z" />
    <glyph glyph-name="uni0430" unicode="&#x430;" horiz-adv-x="517" 
d="M395 238h-148c-102 0 -157 -25 -157 -97c0 -66 51 -106 130 -106c112 0 173 86 175 152v51zM79 460c33 27 93 50 170 50c121 0 191 -43 191 -182v-328h-43v114c-26 -74 -98 -122 -188 -122c-99 0 -165 53 -165 146c0 105 78 138 203 138h148v51c0 100 -46 142 -146 142
c-78 0 -136 -29 -170 -82v73z" />
    <glyph glyph-name="uni0431" unicode="&#x431;" horiz-adv-x="587" 
d="M500 774v-52c-20 -11 -73 -18 -167 -32c-205 -30 -222 -161 -235 -330c33 89 111 143 217 143c135 0 225 -79 225 -246c0 -172 -89 -267 -238 -267c-151 0 -242 100 -242 321c0 287 63 385 239 420c51 10 169 20 201 43zM108 275c0 -158 76 -241 193 -241s192 74 192 218
c0 139 -72 209 -188 209s-197 -75 -197 -186z" />
    <glyph glyph-name="uni0432" unicode="&#x432;" horiz-adv-x="533" 
d="M83 0v500h217c120 0 163 -46 163 -118c0 -60 -33 -102 -97 -117c62 -5 122 -33 122 -117c0 -99 -54 -148 -184 -148h-221zM128 41h178c98 0 137 36 137 102c0 68 -45 96 -134 96h-181v-198zM128 279h154c100 0 136 41 136 96c0 59 -40 84 -123 84h-167v-180z" />
    <glyph glyph-name="uni0433" unicode="&#x433;" horiz-adv-x="453" 
d="M83 0v500h335v-42h-290v-458h-45z" />
    <glyph glyph-name="uni0434" unicode="&#x434;" horiz-adv-x="565" 
d="M9 44h61c39 86 57 209 57 389v67h333v-456h80v-174h-44v130h-443v-130h-44v174zM169 401c-1 -145 -16 -269 -53 -357h298v414h-244z" />
    <glyph glyph-name="uni0435" unicode="&#x435;" horiz-adv-x="546" 
d="M285 510c135 0 216 -88 216 -236v-37h-409c4 -141 80 -206 195 -206c96 0 157 37 184 82v-62c-25 -31 -86 -61 -184 -61c-149 0 -241 87 -241 262c0 170 104 258 239 258zM285 469c-110 0 -184 -65 -192 -192h363v3c0 124 -70 189 -171 189z" />
    <glyph glyph-name="uni0436" unicode="&#x436;" horiz-adv-x="716" 
d="M337 0v237h-115l-150 -237h-52l165 258l-151 242h52l135 -223h116v223h45v-223h115l136 223h50l-149 -241l162 -259h-53l-146 237h-115v-237h-45z" />
    <glyph glyph-name="uni0437" unicode="&#x437;" horiz-adv-x="480" 
d="M44 51v62c28 -45 92 -82 183 -82c103 2 163 43 163 109c0 64 -47 99 -157 99h-75v38h73c84 0 133 37 133 96c0 58 -38 94 -132 96c-78 0 -144 -29 -183 -82v73c38 27 106 50 183 50c127 -2 178 -53 178 -130c0 -60 -36 -97 -93 -116c66 -10 118 -46 118 -119
c0 -101 -81 -153 -208 -155c-93 0 -157 30 -183 61z" />
    <glyph glyph-name="uni0438" unicode="&#x438;" horiz-adv-x="587" 
d="M123 0h-40v500h45v-429l335 429h41v-500h-45v432z" />
    <glyph glyph-name="uni0439" unicode="&#x439;" horiz-adv-x="587" 
d="M123 0h-40v500h45v-429l335 429h41v-500h-45v432zM397 737h43c0 -88 -63 -130 -140 -130c-90 0 -151 42 -151 130h44c0 -61 39 -92 105 -92c59 0 99 29 99 92z" />
    <glyph glyph-name="uni043A" unicode="&#x43a;" horiz-adv-x="539" 
d="M83 0v500h45v-223h127l176 223h54l-193 -239l224 -261h-57l-204 237h-127v-237h-45z" />
    <glyph glyph-name="uni043B" unicode="&#x43b;" horiz-adv-x="550" 
d="M422 0v458h-243l-2 -70c-13 -370 -80 -394 -140 -394c-11 0 -23 2 -30 5v49c7 -3 17 -6 27 -6c46 0 92 35 102 389l2 69h329v-500h-45z" />
    <glyph glyph-name="uni043C" unicode="&#x43c;" horiz-adv-x="660" 
d="M532 0v439l-191 -275h-21l-192 274v-438h-45v500h53l196 -278l194 278h51v-500h-45z" />
    <glyph glyph-name="uni043D" unicode="&#x43d;" horiz-adv-x="582" 
d="M454 0v234h-326v-234h-45v500h45v-224h326v224h45v-500h-45z" />
    <glyph glyph-name="uni043E" unicode="&#x43e;" horiz-adv-x="572" 
d="M46 252c0 170 104 258 239 258c148 -1 240 -88 240 -262c0 -170 -104 -258 -239 -258c-149 1 -240 87 -240 262zM92 252v-3c0 -149 76 -218 194 -218c117 0 193 73 193 217v3c0 149 -77 218 -195 218c-117 -1 -192 -74 -192 -217z" />
    <glyph glyph-name="uni043F" unicode="&#x43f;" horiz-adv-x="574" 
d="M446 0v458h-318v-458h-45v500h408v-500h-45z" />
    <glyph glyph-name="uni0440" unicode="&#x440;" horiz-adv-x="592" 
d="M83 -180v680h43v-123c19 64 73 133 200 133c130 0 220 -76 220 -249c0 -197 -92 -272 -227 -272c-99 0 -166 49 -191 120v-289h-45zM128 283v-60c0 -119 74 -192 186 -192c110 0 187 59 187 225c0 151 -76 212 -187 212c-120 0 -183 -74 -186 -185z" />
    <glyph glyph-name="uni0441" unicode="&#x441;" horiz-adv-x="498" 
d="M450 51c-23 -31 -78 -61 -163 -61c-149 0 -241 87 -241 262c0 170 104 258 239 258c67 0 127 -23 160 -50v-73c-34 53 -92 82 -160 82c-117 0 -193 -73 -193 -217v-3c0 -149 77 -218 195 -218c83 0 138 37 163 82v-62z" />
    <glyph glyph-name="uni0442" unicode="&#x442;" horiz-adv-x="438" 
d="M197 0v458h-181v42h408v-42h-182v-458h-45z" />
    <glyph glyph-name="uni0443" unicode="&#x443;" horiz-adv-x="502" 
d="M249 -2l-223 502h52l195 -443l166 443h49l-213 -553c-38 -99 -78 -134 -132 -134c-27 0 -54 9 -67 19v54c13 -15 38 -29 65 -29c35 0 70 22 108 141z" />
    <glyph glyph-name="uni0444" unicode="&#x444;" horiz-adv-x="667" 
d="M311 750h45v-246h19c149 0 245 -70 245 -254c0 -174 -96 -254 -245 -254h-19v-176h-45v176h-19c-148 0 -245 70 -245 254c0 174 97 254 245 254h19v246zM373 462h-17v-424h15c127 0 204 64 204 208c0 162 -78 216 -202 216zM92 254c0 -162 78 -216 202 -216h17v424h-14
c-127 0 -205 -64 -205 -208z" />
    <glyph glyph-name="uni0445" unicode="&#x445;" horiz-adv-x="482" 
d="M19 0l191 257l-179 243h57l151 -207l156 207h54l-183 -239l197 -261h-56l-169 225l-165 -225h-54z" />
    <glyph glyph-name="uni0446" unicode="&#x446;" horiz-adv-x="587" 
d="M83 0v500h45v-456h310v456h45v-456h79v-174h-43v130h-436z" />
    <glyph glyph-name="uni0447" unicode="&#x447;" horiz-adv-x="534" 
d="M406 0v199c-37 -19 -106 -31 -154 -31c-124 0 -194 52 -194 162v170h45v-165c0 -83 52 -125 151 -125c55 0 117 12 152 30v260h45v-500h-45z" />
    <glyph glyph-name="uni0448" unicode="&#x448;" horiz-adv-x="741" 
d="M83 0v500h45v-456h220v456h45v-456h220v456h45v-500h-575z" />
    <glyph glyph-name="uni0449" unicode="&#x449;" horiz-adv-x="762" 
d="M83 0v500h45v-456h220v456h45v-456h220v456h45v-456h79v-174h-44v130h-610z" />
    <glyph glyph-name="uni044A" unicode="&#x44a;" horiz-adv-x="561" 
d="M150 0v458h-134v42h179v-178h122c129 0 207 -34 207 -154c0 -117 -62 -168 -209 -168h-165zM479 168c-1 87 -55 113 -164 113h-120v-239h118c112 0 166 30 166 126z" />
    <glyph glyph-name="uni044B" unicode="&#x44b;" horiz-adv-x="653" 
d="M83 0v500h45v-178h108c129 0 206 -35 207 -154c0 -117 -62 -168 -209 -168h-151zM398 168c-2 86 -56 112 -163 112h-107v-238h105c111 0 165 30 165 126zM525 0v500h45v-500h-45z" />
    <glyph glyph-name="uni044C" unicode="&#x44c;" horiz-adv-x="494" 
d="M457 168c0 -117 -62 -168 -209 -168h-165v500h45v-178h122c130 0 207 -34 207 -154zM412 168c-1 87 -55 113 -163 113h-121v-239h119c111 0 165 30 165 126z" />
    <glyph glyph-name="uni044D" unicode="&#x44d;" horiz-adv-x="509" 
d="M50 387v73c35 27 100 50 172 50c149 0 241 -87 241 -262c0 -170 -104 -258 -239 -258c-90 0 -149 30 -173 61v62c26 -45 85 -82 173 -82c113 0 188 68 193 203h-263v42h262c-8 132 -83 193 -194 193c-73 0 -135 -29 -172 -82z" />
    <glyph glyph-name="uni044E" unicode="&#x44e;" horiz-adv-x="755" 
d="M83 0v500h45v-224h111c10 153 106 232 229 232c148 -1 240 -88 240 -262c0 -170 -104 -258 -239 -258c-138 1 -225 82 -230 246h-111v-234h-45zM470 29c116 0 192 73 192 217v3c0 148 -77 217 -194 218c-112 0 -185 -73 -185 -217v-3c0 -149 74 -218 187 -218z" />
    <glyph glyph-name="uni044F" unicode="&#x44f;" horiz-adv-x="519" 
d="M391 0v186h-158l-146 -186h-53l150 191c-74 15 -123 64 -123 142c0 116 62 167 209 167h166v-500h-45zM271 458c-111 0 -165 -30 -165 -125c1 -69 53 -109 135 -109h150v234h-120z" />
    <glyph glyph-name="uni0451" unicode="&#x451;" horiz-adv-x="546" 
d="M285 510c135 0 216 -88 216 -236v-37h-409c4 -141 80 -206 195 -206c96 0 157 37 184 82v-62c-25 -31 -86 -61 -184 -61c-149 0 -241 87 -241 262c0 170 104 258 239 258zM285 469c-110 0 -184 -65 -192 -192h363v3c0 124 -70 189 -171 189zM353 726c0 19 14 32 34 32
c21 0 34 -13 34 -32s-13 -32 -34 -32c-20 0 -34 13 -34 32zM145 726c0 19 14 32 34 32c21 0 34 -13 34 -32s-13 -32 -34 -32c-20 0 -34 13 -34 32z" />
    <glyph glyph-name="uni0452" unicode="&#x452;" horiz-adv-x="596" 
d="M500 -36v251c0 111 -53 152 -151 153h-3c-118 0 -175 -67 -172 -175v-193h-45v534h-103v42h103v174h45v-174h154v-42h-154v-240c17 66 78 115 186 115h2c115 -1 183 -58 183 -180v-263c0 -98 -31 -152 -123 -152c-29 0 -58 10 -73 19v59c19 -22 45 -34 75 -34
c49 0 76 24 76 106z" />
    <glyph glyph-name="uni0453" unicode="&#x453;" horiz-adv-x="453" 
d="M83 0v500h335v-42h-290v-458h-45zM229 590h-34l100 160h74z" />
    <glyph glyph-name="uni0454" unicode="&#x454;" horiz-adv-x="499" 
d="M346 276v-42h-250c5 -139 81 -203 195 -203c83 0 138 37 163 82v-62c-23 -31 -78 -61 -163 -61c-149 0 -241 87 -241 262c0 170 104 258 239 258c67 0 127 -23 160 -50v-73c-34 53 -92 82 -160 82c-111 0 -185 -65 -193 -193h250z" />
    <glyph glyph-name="uni0455" unicode="&#x455;" horiz-adv-x="478" 
d="M408 387c-34 53 -92 82 -160 82h-2c-83 0 -139 -32 -139 -93c0 -141 318 -61 318 -242c0 -91 -66 -143 -189 -144c-88 0 -151 30 -178 61v62c29 -45 93 -82 178 -82c91 0 144 36 144 99c0 142 -318 65 -318 242c0 80 61 138 186 138c67 0 127 -23 160 -50v-73z" />
    <glyph glyph-name="uni0456" unicode="&#x456;" horiz-adv-x="240" 
d="M86 726c0 19 14 32 34 32c21 0 34 -13 34 -32s-13 -32 -34 -32c-20 0 -34 13 -34 32zM98 0v500h45v-500h-45z" />
    <glyph glyph-name="uni0457" unicode="&#x457;" horiz-adv-x="222" 
d="M83 0v500h45v-500h-45zM181 726c0 19 14 32 34 32c21 0 34 -13 34 -32s-13 -32 -34 -32c-20 0 -34 13 -34 32zM-27 726c0 19 14 32 34 32c21 0 34 -13 34 -32s-13 -32 -34 -32c-20 0 -34 13 -34 32z" />
    <glyph glyph-name="uni0458" unicode="&#x458;" horiz-adv-x="237" 
d="M97 -36v536h45v-534c0 -98 -31 -152 -122 -152c-30 0 -59 10 -74 19v59c19 -22 46 -34 75 -34c49 0 76 24 76 106zM85 726c0 19 14 32 35 32s34 -13 34 -32s-14 -32 -34 -32c-21 0 -35 13 -35 32z" />
    <glyph glyph-name="uni0459" unicode="&#x459;" horiz-adv-x="800" 
d="M409 0v458h-230l-2 -70c-13 -370 -80 -394 -140 -394c-11 0 -23 2 -30 5v49c7 -3 17 -6 27 -6c46 0 92 35 102 389l2 69h316v-178h102c128 0 206 -35 207 -154c0 -117 -62 -168 -209 -168h-145zM554 280h-100v-238h98c111 0 165 30 166 125c-1 87 -55 113 -164 113z" />
    <glyph glyph-name="uni045A" unicode="&#x45a;" horiz-adv-x="827" 
d="M428 0v275h-300v-275h-45v500h45v-183h300v183h45v-181h110c128 0 205 -34 207 -151c0 -117 -62 -168 -209 -168h-153zM582 277h-109v-235h107c109 0 163 29 165 122c-1 87 -55 113 -163 113z" />
    <glyph glyph-name="uni045B" unicode="&#x45b;" horiz-adv-x="596" 
d="M129 750h45v-174h154v-42h-154v-244c22 66 84 118 177 119c116 0 185 -57 185 -180v-229h-45v215c0 109 -51 151 -147 153h-2c-115 0 -166 -82 -168 -183v-185h-45v534h-103v42h103v174z" />
    <glyph glyph-name="uni045C" unicode="&#x45c;" horiz-adv-x="539" 
d="M83 0v500h45v-223h127l176 223h54l-193 -239l224 -261h-57l-204 237h-127v-237h-45zM272 590h-34l100 160h74z" />
    <glyph glyph-name="uni045E" unicode="&#x45e;" horiz-adv-x="502" 
d="M249 -2l-223 502h52l195 -443l166 443h49l-213 -553c-38 -99 -78 -134 -132 -134c-27 0 -54 9 -67 19v54c13 -15 38 -29 65 -29c35 0 70 22 108 141zM354 737h43c0 -88 -63 -130 -140 -130c-90 0 -151 42 -151 130h44c0 -61 39 -92 105 -92c59 0 99 29 99 92z" />
    <glyph glyph-name="uni045F" unicode="&#x45f;" horiz-adv-x="583" 
d="M83 0v500h45v-456h327v456h45v-500h-187v-130h-43v130h-187z" />
    <glyph glyph-name="uni0490" unicode="&#x490;" horiz-adv-x="585" 
d="M520 830h46v-174h-411v-656h-48v700h413v130z" />
    <glyph glyph-name="uni0491" unicode="&#x491;" horiz-adv-x="452" 
d="M83 0v500h290v130h44v-172h-289v-458h-45z" />
    <glyph glyph-name="uni0492" unicode="&#x492;" 
d="M570 700v-44h-412v-274h287v-44h-287v-338h-48v338h-119v44h119v318h460z" />
    <glyph glyph-name="uni0493" unicode="&#x493;" horiz-adv-x="475" 
d="M358 276v-42h-214v-234h-45v234h-82v42h82v224h341v-42h-296v-182h214z" />
    <glyph glyph-name="uni049A" unicode="&#x49a;" horiz-adv-x="731" 
d="M148 336v-336h-48v700h48v-326h158l303 326h62l-319 -341l312 -314h44v-175h-46v130h-17l-335 336h-162z" />
    <glyph glyph-name="uni049B" unicode="&#x49b;" horiz-adv-x="547" 
d="M83 0v500h45v-223h133l176 223h54l-193 -239l188 -219h38v-172h-44v130h-15l-204 237h-133v-237h-45z" />
    <glyph glyph-name="uni04A2" unicode="&#x4a2;" horiz-adv-x="799" 
d="M633 0v338h-485v-338h-48v700h48v-318h485v318h48v-656h94v-174h-46v130h-96z" />
    <glyph glyph-name="uni04A3" unicode="&#x4a3;" horiz-adv-x="585" 
d="M440 0v234h-312v-234h-45v500h45v-224h312v224h45v-456h80v-174h-44v130h-81z" />
    <glyph glyph-name="uni04AE" unicode="&#x4ae;" horiz-adv-x="626" 
d="M618 700l-280 -420v-280h-48v280l-282 420h56l252 -373l247 373h55z" />
    <glyph glyph-name="uni04AF" unicode="&#x4af;" horiz-adv-x="489" 
d="M225 -180v190l-209 490h50l183 -435l176 435h48l-203 -490v-190h-45z" />
    <glyph glyph-name="uni04B0" unicode="&#x4b0;" horiz-adv-x="626" 
d="M535 320v-44h-196v-276h-48v276h-197v44h169l-255 380h56l252 -373l247 373h55l-254 -380h171z" />
    <glyph glyph-name="uni04B1" unicode="&#x4b1;" horiz-adv-x="489" 
d="M77 44h132l-193 456h50l183 -435l176 435h48l-189 -456h135v-44h-149v-180h-45v180h-148v44z" />
    <glyph glyph-name="uni04BA" unicode="&#x4ba;" horiz-adv-x="682" 
d="M557 0v233c0 115 -70 163 -224 163c-74 0 -159 -18 -197 -43v-353h-48v700h48v-304c37 23 122 44 204 44c174 0 265 -62 265 -188v-252h-48z" />
    <glyph glyph-name="uni04BB" unicode="&#x4bb;" horiz-adv-x="579" 
d="M457 0v315c0 112 -54 153 -154 153c-118 0 -175 -67 -175 -175v-293h-45v750h45v-356c20 66 81 115 189 115h2c115 -1 183 -58 183 -180v-329h-45z" />
    <glyph glyph-name="uni04C0" unicode="&#x4c0;" horiz-adv-x="248" 
d="M148 700v-700h-48v700h48z" />
    <glyph glyph-name="uni04CF" unicode="&#x4cf;" horiz-adv-x="211" 
d="M83 750h45v-750h-45v750z" />
    <glyph glyph-name="uni04D8" unicode="&#x4d8;" horiz-adv-x="783" 
d="M147 546v83c47 50 145 81 238 81c217 0 348 -139 348 -361c0 -207 -135 -358 -342 -359c-184 0 -341 113 -341 341v51h634c-12 168 -120 284 -299 284c-105 0 -197 -49 -238 -120zM390 34c169 0 291 119 296 304h-588v-7c0 -192 127 -296 292 -297z" />
    <glyph glyph-name="uni04D9" unicode="&#x4d9;" horiz-adv-x="553" 
d="M79 454c30 29 93 56 182 56c149 0 241 -87 241 -262c0 -170 -104 -258 -239 -258s-216 88 -216 236v37h409c-4 140 -80 206 -195 206c-88 0 -150 -37 -182 -85v70zM263 31c110 0 183 64 192 192h-363v-3c0 -124 70 -189 171 -189z" />
    <glyph glyph-name="uni04E8" unicode="&#x4e8;" horiz-adv-x="814" 
d="M399 710c228 0 365 -138 365 -361c0 -207 -141 -359 -357 -359c-223 3 -357 140 -357 361c0 204 137 355 349 359zM415 34c172 3 294 121 299 304h-614c5 -180 120 -303 315 -304zM101 382h611c-12 168 -126 283 -313 284c-166 -4 -285 -113 -298 -284z" />
    <glyph glyph-name="uni04E9" unicode="&#x4e9;" horiz-adv-x="572" 
d="M47 252c0 170 103 258 238 258c148 -1 240 -88 240 -262c0 -170 -104 -258 -239 -258c-149 1 -239 87 -239 262zM286 31c113 0 188 68 193 203h-387c5 -139 80 -203 194 -203zM92 276h386c-8 132 -83 193 -194 193c-110 -1 -184 -66 -192 -193z" />
    <glyph glyph-name="uni1E9E" unicode="&#x1e9e;" horiz-adv-x="701" 
d="M355 462v51l171 109c-54 28 -118 44 -179 44c-140 0 -204 -54 -204 -182v-484h-48v503c0 139 86 207 252 207c102 0 188 -38 226 -68v-41c-1 -1 -2 -1 -159 -98c140 -10 231 -83 231 -253c0 -178 -99 -260 -250 -260h-9c-47 0 -101 10 -120 23v53c28 -22 70 -34 122 -34
h2c128 0 206 66 206 214c0 162 -85 216 -219 216h-22z" />
    <glyph glyph-name="Euro" unicode="&#x20ac;" horiz-adv-x="620" 
d="M48 467h64c31 177 136 241 254 241c107 0 164 -39 188 -73l-20 -75c-25 63 -91 102 -171 102c-89 0 -171 -47 -199 -195h353l-11 -44h-348c-2 -23 -3 -48 -3 -74c0 -24 1 -46 3 -66h310l-11 -44h-294c25 -143 101 -202 207 -203c87 0 141 36 180 94v-65
c-30 -37 -89 -75 -181 -75c-140 0 -232 81 -258 249h-74l11 44h57c-2 21 -2 43 -2 66c0 26 1 51 3 74h-70z" />
    <glyph glyph-name="uni20B4" unicode="&#x20b4;" horiz-adv-x="620" 
d="M100 307h420v-44h-277c-45 -27 -91 -63 -91 -117c0 -53 43 -108 150 -108c97 0 166 41 207 105v-82c-28 -27 -92 -69 -203 -69c-153 0 -204 74 -204 142c0 62 44 103 85 129h-87v44zM100 455h275c56 31 83 66 83 109c0 61 -52 98 -150 98c-93 0 -161 -44 -189 -100v75
c26 36 97 71 192 71c146 0 197 -65 197 -132c0 -55 -28 -91 -74 -121h86v-44h-420v44z" />
    <glyph glyph-name="uni20B8" unicode="&#x20b8;" 
d="M37 494v44h512v-44h-233v-494h-48v494h-231zM37 656v44h512v-44h-512z" />
    <glyph glyph-name="uni20BD" unicode="&#x20bd;" horiz-adv-x="620" 
d="M40 302h108v398h146c177 0 277 -61 277 -218c0 -154 -105 -224 -296 -224h-79v-87h264v-44h-264v-127h-48v127h-108v44h108v87h-108v44zM288 656h-92v-354h76c163 0 249 51 249 183c0 129 -81 171 -233 171z" />
    <glyph glyph-name="uni2116" unicode="&#x2116;" horiz-adv-x="1242" 
d="M645 0l-497 623v-623h-48v700h49l498 -624v624h48v-700h-50zM795 508c0 97 68 159 169 159c94 0 158 -59 158 -159c0 -99 -67 -162 -166 -162c-95 0 -161 66 -161 162zM836 508c0 -72 51 -121 125 -121s121 48 121 121c0 74 -48 118 -123 118c-74 0 -123 -44 -123 -118z
M1134 276v-42h-342v42h342z" />
    <glyph glyph-name="uni2120" unicode="&#x2120;" horiz-adv-x="948" 
d="M824 350v297l-134 -192h-23l-134 191v-296h-41v350h51l138 -196l135 196h48v-350h-40zM375 678v-59c-28 32 -78 53 -133 53c-83 0 -120 -21 -120 -61c0 -103 282 -28 282 -166c0 -65 -55 -107 -177 -107c-84 0 -134 24 -155 38v59c26 -33 85 -60 159 -59
c89 0 131 25 131 64c0 103 -283 26 -283 167c0 61 37 103 163 103c68 0 111 -20 133 -32z" />
    <glyph glyph-name="uni2215" unicode="&#x2215;" horiz-adv-x="254" 
d="M-20 -180l248 930h46l-248 -930h-46z" />
    <glyph glyph-name="infinity" unicode="&#x221e;" 
d="M154 500c77 0 110 -64 138 -119c28 55 60 119 138 119c92 0 132 -71 132 -150s-40 -150 -132 -150c-77 0 -110 64 -138 118c-28 -54 -61 -118 -138 -118c-92 0 -132 71 -132 150s40 150 132 150zM312 350c36 -66 63 -110 118 -110c61 0 92 44 92 110s-31 110 -92 110
c-55 0 -82 -44 -118 -110zM272 350c-36 66 -63 110 -118 110c-60 0 -91 -44 -91 -110s31 -110 91 -110c55 0 82 44 118 110z" />
    <glyph glyph-name="approxequal" unicode="&#x2248;" 
d="M82 400v47c31 29 71 46 111 46c81 0 142 -86 217 -86c34 0 71 16 92 45v-51c-26 -25 -63 -38 -96 -38c-90 0 -146 86 -218 86c-41 0 -74 -19 -106 -49zM82 200v47c31 29 71 46 111 46c81 0 142 -86 217 -86c34 0 71 16 92 45v-51c-26 -25 -63 -38 -96 -38
c-90 0 -146 86 -218 86c-41 0 -74 -19 -106 -49z" />
    <glyph glyph-name="notequal" unicode="&#x2260;" 
d="M148 0l79 223h-145v44h160l59 166h-219v44h235l79 223h45l-79 -223h140v-44h-156l-59 -166h215v-44h-230l-79 -223h-45z" />
    <glyph glyph-name="lessequal" unicode="&#x2264;" 
d="M81 407l422 251v-52l-341 -199l341 -199v-52zM82 125h420v-44h-420v44z" />
    <glyph glyph-name="greaterequal" unicode="&#x2265;" 
d="M504 407l-422 -251v52l341 199l-341 199v52zM82 125h420v-44h-420v44z" />
    <glyph glyph-name="lozenge" unicode="&#x25ca;" horiz-adv-x="580" 
d="M259 0l-182 350l182 350h62l182 -350l-182 -350h-62zM290 36l163 314l-163 314l-162 -314z" />
    <glyph glyph-name="uniF400" unicode="&#xf400;" horiz-adv-x="0" 
d="M-296 590h-34l100 160h74z" />
    <glyph glyph-name="uniF406" unicode="&#xf406;" horiz-adv-x="424" 
d="M212 743c-94 0 -153 53 -172 117h27c27 -42 76 -75 145 -75c65 0 124 33 145 75h27c-20 -67 -86 -117 -172 -117z" />
    <glyph glyph-name="uniF407" unicode="&#xf407;" horiz-adv-x="269" 
d="M136 0l-22 -65c74 -7 115 -31 115 -77c0 -77 -110 -108 -189 -108v26c66 0 141 26 141 78c0 39 -46 53 -111 54l31 92h35z" />
    <glyph glyph-name="uniF408" unicode="&#xf408;" horiz-adv-x="438" 
d="M243 860l155 -114h-39l-140 72l-140 -72h-39l155 114h48z" />
    <glyph glyph-name="uniF409" unicode="&#xf409;" horiz-adv-x="200" 
d="M40 -224c61 14 90 70 76 103c-3 -3 -7 -5 -13 -5c-26 0 -36 14 -36 33c0 18 11 32 37 32c41 0 56 -38 56 -71c0 -64 -53 -108 -96 -118z" />
    <glyph glyph-name="uniF40A" unicode="&#xf40a;" horiz-adv-x="180" 
d="M45 520l46 180h64l-66 -180h-44z" />
    <glyph glyph-name="uniF40B" unicode="&#xf40b;" horiz-adv-x="148" 
d="M40 823c0 19 14 32 34 32c21 0 34 -13 34 -32s-13 -32 -34 -32c-20 0 -34 13 -34 32z" />
    <glyph glyph-name="uniF40C" unicode="&#xf40c;" horiz-adv-x="317" 
d="M40 780c0 52 45 80 119 80c72 0 118 -29 118 -80s-46 -80 -118 -80c-74 0 -119 29 -119 80zM78 780c0 -32 27 -50 81 -50c52 0 80 18 80 50s-28 50 -80 50c-55 0 -81 -18 -81 -50z" />
    <glyph glyph-name="uniF40D" unicode="&#xf40d;" horiz-adv-x="440" 
d="M400 848c-25 -82 -63 -102 -105 -102c-61 0 -104 62 -153 62c-36 0 -59 -36 -70 -62h-32c30 88 77 107 111 107c55 0 102 -62 148 -62c33 0 58 27 71 57h30z" />
    <glyph glyph-name="uniF40E" unicode="&#xf40e;" horiz-adv-x="258" 
d="M189 17l16 -17c-80 -47 -115 -97 -115 -144c0 -46 34 -71 83 -71c14 0 29 2 45 6v-26c-15 -7 -39 -15 -70 -15c-72 0 -108 44 -108 95c0 62 49 120 149 172z" />
    <glyph glyph-name="zero.tab" unicode="&#xf4e0;" 
d="M54 349c0 267 110 358 236 359c151 0 240 -116 240 -359c0 -268 -111 -359 -237 -359c-151 1 -239 116 -239 359zM101 349c0 -223 75 -312 192 -313c100 0 190 68 190 313c0 222 -76 311 -192 313c-100 0 -190 -68 -190 -313z" />
    <glyph glyph-name="one.tab" unicode="&#xf4e1;" 
d="M103 0v44h197v604l-195 -125v51l206 133h34v-663h163v-44h-405z" />
    <glyph glyph-name="two.tab" unicode="&#xf4e2;" 
d="M513 0h-452v32c295 248 383 348 383 471c0 101 -63 159 -168 159c-86 1 -149 -36 -192 -94v65c34 37 102 77 207 75c120 -3 200 -74 200 -199c0 -124 -69 -224 -287 -405l-72 -60h381v-44z" />
    <glyph glyph-name="three.tab" unicode="&#xf4e3;" 
d="M78 633c34 37 102 75 207 75c129 -2 199 -71 199 -170c0 -90 -44 -154 -131 -177c99 -13 162 -74 162 -172c0 -112 -80 -196 -241 -197c-103 1 -169 39 -201 73v75c41 -63 116 -103 199 -102c128 1 197 63 197 150c0 89 -64 146 -188 146h-90v42h69c116 0 177 60 177 149
c0 90 -66 137 -167 137c-86 1 -149 -36 -192 -94v65z" />
    <glyph glyph-name="four.tab" unicode="&#xf4e4;" 
d="M24 234l361 466h58v-457h122v-44h-122v-199h-45v199h-374v35zM83 243h315v402z" />
    <glyph glyph-name="five.tab" unicode="&#xf4e5;" 
d="M79 140c42 -63 125 -103 203 -102c119 1 186 67 186 177c0 108 -84 163 -202 163c-61 0 -118 -10 -153 -21l24 343h346v-44h-306l-18 -247c22 6 79 12 116 12c147 0 240 -75 240 -205c0 -143 -89 -224 -234 -224c-98 0 -168 39 -202 73v75z" />
    <glyph glyph-name="six.tab" unicode="&#xf4e6;" 
d="M500 560c-38 63 -106 103 -182 101c-134 -3 -218 -101 -218 -314c0 -32 2 -62 6 -91c17 102 99 176 221 176c133 0 218 -88 218 -206c0 -157 -110 -234 -235 -234c-165 0 -255 129 -255 345c0 258 104 368 261 371c94 1 154 -39 184 -73v-75zM320 388
c-122 0 -195 -78 -202 -189c28 -95 89 -160 195 -160s185 67 185 181c0 107 -71 168 -178 168z" />
    <glyph glyph-name="seven.tab" unicode="&#xf4e7;" 
d="M58 651v49h457v-42l-291 -658h-51l290 651h-405z" />
    <glyph glyph-name="eight.tab" unicode="&#xf4e8;" 
d="M293 -9c-148 0 -253 69 -253 197c0 90 52 161 158 183c-77 15 -134 67 -134 164c0 103 80 176 228 176c144 0 220 -71 220 -171c0 -92 -58 -149 -135 -169c105 -15 167 -77 167 -177c0 -125 -98 -203 -251 -203zM294 37c136 0 203 66 203 159c0 92 -68 152 -206 152
c-136 0 -203 -66 -203 -149c0 -105 79 -162 206 -162zM291 387c107 0 175 59 175 144s-57 134 -175 134s-181 -55 -181 -135c0 -88 75 -143 181 -143z" />
    <glyph glyph-name="nine.tab" unicode="&#xf4e9;" 
d="M82 140c38 -63 106 -103 183 -101c133 3 217 101 217 314c0 32 -2 62 -7 91c-16 -102 -98 -176 -220 -176c-133 0 -217 88 -217 206c0 157 109 234 234 234c165 0 255 -129 255 -345c0 -258 -104 -368 -261 -371c-94 -1 -154 39 -184 73v75zM262 312
c121 0 194 77 202 187c-27 96 -88 162 -194 162c-107 0 -186 -67 -186 -181c0 -107 72 -168 178 -168z" />
    <glyph glyph-name="dollar.tab" unicode="&#xf4ec;" 
d="M492 562c-41 63 -115 101 -199 100c-114 -2 -168 -43 -168 -121c0 -202 384 -103 384 -358c0 -109 -58 -179 -197 -189v-122h-43v120c-97 2 -160 39 -192 71v75c41 -63 116 -100 199 -99c133 1 183 56 183 140c0 213 -383 115 -383 356c0 100 59 163 191 173v116h44v-115
c91 -4 151 -41 181 -72v-75z" />
    <glyph glyph-name="Euro.tab" unicode="&#xf4ed;" 
d="M41 467h59c32 177 137 241 254 241c107 0 164 -39 188 -73l-19 -75c-26 63 -92 102 -172 102c-89 0 -171 -47 -198 -195h341l-12 -44h-335c-2 -23 -3 -48 -3 -74c0 -24 1 -46 3 -66h298l-12 -44h-281c24 -143 100 -202 206 -203c88 0 142 36 180 94v-65
c-30 -37 -89 -75 -181 -75c-140 0 -232 81 -258 249h-70l12 44h52c-2 21 -2 43 -2 66c0 26 1 51 3 74h-65z" />
    <glyph glyph-name="cent.tab" unicode="&#xf4ee;" 
d="M494 51c-22 -29 -71 -56 -145 -60v-115h-44v115c-134 9 -215 96 -215 261c0 160 92 247 216 257v119h44v-119c58 -4 109 -25 139 -49v-73c-34 53 -92 82 -160 82c-117 0 -193 -73 -193 -217v-3c0 -149 77 -218 195 -218c83 0 138 37 163 82v-62z" />
    <glyph glyph-name="sterling.tab" unicode="&#xf4ef;" 
d="M62 367h84v118c0 137 70 225 207 225c67 0 127 -23 160 -50v-73c-34 53 -92 82 -160 82c-105 0 -162 -67 -162 -177v-125h291v-44h-291v-279h331v-44h-461v44h85v279h-84v44z" />
    <glyph glyph-name="yen.tab" unicode="&#xf4fa;" 
d="M82 315h169l-228 385h53l220 -373l214 373h52l-227 -385h167v-44h-185v-105h185v-44h-185v-122h-48v122h-187v44h187v105h-187v44z" />
    <glyph glyph-name="florin.tab" unicode="&#xf4fb;" 
d="M170 496h89l8 74c14 131 71 181 158 181c51 0 80 -17 93 -28v-62c-18 28 -54 46 -96 46c-59 0 -99 -29 -110 -137l-8 -74h168v-42h-173l-50 -485c-6 -97 -38 -151 -129 -151c-29 0 -58 10 -73 19v59c19 -22 45 -34 75 -34c49 0 76 24 82 105l51 487h-85v42z" />
    <glyph glyph-name="uni20B4.tab" unicode="&#xf4fc;" 
d="M82 307h420v-44h-277c-45 -27 -91 -63 -91 -117c0 -53 43 -108 150 -108c97 0 166 41 207 105v-82c-28 -27 -92 -69 -203 -69c-153 0 -204 74 -204 142c0 62 44 103 85 129h-87v44zM82 455h275c56 31 83 66 83 109c0 61 -52 98 -150 98c-93 0 -161 -44 -189 -100v75
c26 36 97 71 192 71c146 0 197 -65 197 -132c0 -55 -28 -91 -74 -121h86v-44h-420v44z" />
    <glyph glyph-name="uni20BD.tab" unicode="&#xf4fd;" 
d="M30 302h108v398h128c177 0 277 -61 277 -218c0 -154 -105 -224 -296 -224h-61v-93h264v-44h-264v-121h-48v121h-108v44h108v93h-108v44zM261 656h-75v-354h58c163 0 249 51 249 183c0 129 -81 171 -232 171z" />
    <glyph glyph-name="uni20B8.tab" unicode="&#xf5f3;" 
d="M36 494v44h512v-44h-233v-494h-48v494h-231zM36 656v44h512v-44h-512z" />
    <glyph glyph-name="zero.denominator" unicode="&#xf655;" horiz-adv-x="426" 
d="M60 175c0 134 75 179 154 179c91 -2 152 -60 152 -180c0 -134 -75 -179 -154 -179c-91 2 -152 59 -152 180zM100 175c0 -103 49 -140 112 -142c61 0 114 35 114 141c0 103 -49 139 -112 142c-61 0 -114 -35 -114 -141z" />
    <glyph glyph-name="one.denominator" unicode="&#xf656;" horiz-adv-x="273" 
d="M153 0v305l-115 -61v40l128 70h27v-354h-40z" />
    <glyph glyph-name="two.denominator" unicode="&#xf657;" horiz-adv-x="412" 
d="M347 36v-36h-293v24c178 102 232 143 232 211c0 47 -32 79 -91 81c-51 2 -101 -21 -129 -53v59c22 12 65 33 133 32c79 -1 127 -42 127 -111c0 -60 -27 -111 -147 -183l-39 -24h207z" />
    <glyph glyph-name="three.denominator" unicode="&#xf658;" horiz-adv-x="399" 
d="M63 322c22 12 65 32 133 32c84 0 125 -38 125 -92c0 -38 -25 -67 -65 -80c60 -9 87 -37 87 -82c0 -64 -54 -104 -153 -104c-70 1 -112 24 -130 38v59c22 -33 71 -59 133 -59c68 0 110 22 110 69c0 37 -31 57 -101 57h-72v36h52c69 0 100 23 100 60c0 36 -29 58 -90 60
c-51 1 -101 -21 -129 -53v59z" />
    <glyph glyph-name="four.denominator" unicode="&#xf659;" horiz-adv-x="398" 
d="M30 118l220 232h40v-227h68v-36h-68v-87h-40v87h-220v31zM85 123h165v173z" />
    <glyph glyph-name="five.denominator" unicode="&#xf65a;" horiz-adv-x="386" 
d="M317 350v-36h-195l-10 -103c12 3 43 6 62 6c107 0 153 -42 153 -108c0 -72 -51 -114 -146 -114c-65 1 -106 25 -125 39v59c22 -33 72 -60 127 -60c73 1 105 28 105 77c0 48 -45 73 -117 73c-49 0 -80 -8 -98 -14l18 181h226z" />
    <glyph glyph-name="six.denominator" unicode="&#xf65b;" horiz-adv-x="415" 
d="M339 258c-21 32 -68 61 -127 58c-67 -3 -114 -51 -114 -139c0 -7 0 -16 1 -28c16 39 67 73 135 73c84 0 125 -46 125 -105c0 -77 -61 -121 -141 -121c-93 0 -158 61 -158 169c0 114 58 186 155 189c67 2 107 -24 124 -37v-59zM104 124c10 -50 47 -90 118 -90
c61 0 100 31 100 82c0 45 -34 74 -94 74c-55 0 -99 -24 -124 -66z" />
    <glyph glyph-name="seven.denominator" unicode="&#xf65c;" horiz-adv-x="326" 
d="M30 350h266v-22l-166 -328h-41l160 314h-219v36z" />
    <glyph glyph-name="eight.denominator" unicode="&#xf65d;" horiz-adv-x="416" 
d="M209 -4c-94 0 -153 37 -153 100c0 38 23 76 93 91c-43 7 -80 31 -80 78c0 52 43 91 140 91c94 0 134 -38 134 -89c0 -39 -28 -67 -79 -80c59 -10 96 -42 96 -88c0 -60 -50 -103 -151 -103zM210 34c74 0 112 22 112 67c0 38 -38 66 -113 66c-78 0 -115 -29 -115 -68
c0 -43 47 -65 116 -65zM208 201c64 0 98 26 98 60c0 40 -37 57 -98 57c-66 0 -101 -20 -101 -59c0 -32 38 -58 101 -58z" />
    <glyph glyph-name="nine.denominator" unicode="&#xf65e;" horiz-adv-x="415" 
d="M77 93c21 -32 68 -61 127 -58c66 3 114 51 114 139c0 7 0 16 -1 28c-17 -39 -67 -73 -136 -73c-83 0 -125 46 -125 105c0 77 62 121 142 121c93 0 157 -61 157 -169c0 -114 -58 -186 -154 -189c-67 -2 -107 24 -124 37v59zM311 227c-9 50 -46 90 -117 90
c-62 0 -100 -31 -100 -82c0 -45 34 -74 94 -74c55 0 98 24 123 66z" />
    <glyph glyph-name="zero.numerator" unicode="&#xf661;" horiz-adv-x="426" 
d="M60 525c0 134 75 179 154 179c91 -2 152 -60 152 -180c0 -134 -75 -179 -154 -179c-91 2 -152 59 -152 180zM100 525c0 -103 49 -140 112 -142c61 0 114 35 114 141c0 103 -49 139 -112 142c-61 0 -114 -35 -114 -141z" />
    <glyph glyph-name="one.numerator" unicode="&#xf662;" horiz-adv-x="273" 
d="M153 350v305l-115 -61v40l128 70h27v-354h-40z" />
    <glyph glyph-name="two.numerator" unicode="&#xf663;" horiz-adv-x="412" 
d="M347 386v-36h-293v24c178 102 232 143 232 211c0 47 -32 79 -91 81c-51 2 -101 -21 -129 -53v59c22 12 65 33 133 32c79 -1 127 -42 127 -111c0 -60 -27 -111 -147 -183l-39 -24h207z" />
    <glyph glyph-name="three.numerator" unicode="&#xf664;" horiz-adv-x="399" 
d="M63 672c22 12 65 32 133 32c84 0 125 -38 125 -92c0 -38 -25 -67 -65 -80c60 -9 87 -37 87 -82c0 -64 -54 -104 -153 -104c-70 1 -112 24 -130 38v59c22 -33 71 -59 133 -59c68 0 110 22 110 69c0 37 -31 57 -101 57h-72v36h52c69 0 100 23 100 60c0 36 -29 58 -90 60
c-51 1 -101 -21 -129 -53v59z" />
    <glyph glyph-name="four.numerator" unicode="&#xf665;" horiz-adv-x="398" 
d="M30 468l220 232h40v-227h68v-36h-68v-87h-40v87h-220v31zM85 473h165v173z" />
    <glyph glyph-name="five.numerator" unicode="&#xf666;" horiz-adv-x="386" 
d="M317 700v-36h-195l-10 -103c12 3 43 6 62 6c107 0 153 -42 153 -108c0 -72 -51 -114 -146 -114c-65 1 -106 25 -125 39v59c22 -33 72 -60 127 -60c73 1 105 28 105 77c0 48 -45 73 -117 73c-49 0 -80 -8 -98 -14l18 181h226z" />
    <glyph glyph-name="six.numerator" unicode="&#xf667;" horiz-adv-x="415" 
d="M339 608c-21 32 -68 61 -127 58c-67 -3 -114 -51 -114 -139c0 -7 0 -16 1 -28c16 39 67 73 135 73c84 0 125 -46 125 -105c0 -77 -61 -121 -141 -121c-93 0 -158 61 -158 169c0 114 58 186 155 189c67 2 107 -24 124 -37v-59zM104 474c10 -50 47 -90 118 -90
c61 0 100 31 100 82c0 45 -34 74 -94 74c-55 0 -99 -24 -124 -66z" />
    <glyph glyph-name="seven.numerator" unicode="&#xf668;" horiz-adv-x="326" 
d="M30 700h266v-22l-166 -328h-41l160 314h-219v36z" />
    <glyph glyph-name="eight.numerator" unicode="&#xf669;" horiz-adv-x="416" 
d="M209 346c-94 0 -153 37 -153 100c0 38 23 76 93 91c-43 7 -80 31 -80 78c0 52 43 91 140 91c94 0 134 -38 134 -89c0 -39 -28 -67 -79 -80c59 -10 96 -42 96 -88c0 -60 -50 -103 -151 -103zM210 384c74 0 112 22 112 67c0 38 -38 66 -113 66c-78 0 -115 -29 -115 -68
c0 -43 47 -65 116 -65zM208 551c64 0 98 26 98 60c0 40 -37 57 -98 57c-66 0 -101 -20 -101 -59c0 -32 38 -58 101 -58z" />
    <glyph glyph-name="nine.numerator" unicode="&#xf66a;" horiz-adv-x="415" 
d="M77 443c21 -32 68 -61 127 -58c66 3 114 51 114 139c0 7 0 16 -1 28c-17 -39 -67 -73 -136 -73c-83 0 -125 46 -125 105c0 77 62 121 142 121c93 0 157 -61 157 -169c0 -114 -58 -186 -154 -189c-67 -2 -107 24 -124 37v59zM311 577c-9 50 -46 90 -117 90
c-62 0 -100 -31 -100 -82c0 -45 34 -74 94 -74c55 0 98 24 123 66z" />
    <glyph glyph-name="uniF6BA" unicode="&#xf6ba;" horiz-adv-x="410" 
d="M77 327v46h256v-46h-256z" />
    <glyph glyph-name="uniF6BB" unicode="&#xf6bb;" horiz-adv-x="707" 
d="M120 328v44h467v-44h-467z" />
    <glyph glyph-name="uniF6BC" unicode="&#xf6bc;" horiz-adv-x="907" 
d="M120 328v44h667v-44h-667z" />
    <glyph glyph-name="uniF6C3" unicode="&#xf6c3;" horiz-adv-x="200" 
d="M40 -224c61 14 90 70 76 103c-3 -3 -7 -5 -13 -5c-26 0 -36 14 -36 33c0 18 11 32 37 32c41 0 56 -38 56 -71c0 -64 -53 -108 -96 -118z" />
    <glyph glyph-name="uniF6C9" unicode="&#xf6c9;" horiz-adv-x="303" 
d="M85 740h-45l135 120h88z" />
    <glyph glyph-name="uniF6CA" unicode="&#xf6ca;" horiz-adv-x="438" 
d="M243 746h-48l-155 114h39l140 -72l140 72h39z" />
    <glyph glyph-name="uniF6CB" unicode="&#xf6cb;" horiz-adv-x="356" 
d="M248 823c0 19 14 32 34 32c21 0 34 -13 34 -32s-13 -32 -34 -32c-20 0 -34 13 -34 32zM40 823c0 19 14 32 34 32c21 0 34 -13 34 -32s-13 -32 -34 -32c-20 0 -34 13 -34 32z" />
    <glyph glyph-name="uniF6CE" unicode="&#xf6ce;" horiz-adv-x="303" 
d="M218 740l-178 120h88l135 -120h-45z" />
    <glyph glyph-name="uniF6CF" unicode="&#xf6cf;" horiz-adv-x="447" 
d="M80 740h-40l82 120h76zM234 740h-40l123 120h90z" />
    <glyph glyph-name="uniF6D0" unicode="&#xf6d0;" horiz-adv-x="380" 
d="M40 781v41h300v-41h-300z" />
    <glyph glyph-name="uniF6D1" unicode="&#xf6d1;" horiz-adv-x="443" 
d="M359 880h44c-8 -92 -80 -131 -176 -131c-86 0 -178 21 -187 131h47c6 -58 49 -91 138 -91s128 35 134 91z" />
    <glyph glyph-name="uniF6D4" unicode="&#xf6d4;" horiz-adv-x="371" 
d="M288 737h43c0 -88 -63 -130 -140 -130c-90 0 -151 42 -151 130h44c0 -61 39 -92 105 -92c59 0 99 29 99 92z" />
    <glyph glyph-name="uniFEFF" unicode="&#xfeff;" horiz-adv-x="0" 
 />
    <glyph glyph-name="percent.tab" 
d="M533 700l-431 -700h-52l434 700h49zM53 588c0 69 45 119 121 119c77 0 122 -50 122 -119c0 -70 -47 -119 -122 -119c-74 0 -121 49 -121 119zM94 588c0 -46 32 -80 80 -80s80 32 80 80c0 46 -29 81 -80 81c-47 0 -80 -33 -80 -81zM287 109c0 68 46 119 122 119
s121 -51 121 -119c0 -71 -46 -119 -121 -119c-74 0 -122 49 -122 119zM329 109c0 -46 32 -81 80 -81s80 33 80 81c0 46 -30 80 -80 80c-48 0 -80 -33 -80 -80z" />
    <glyph glyph-name="plus.tab" 
d="M270 135v188h-188v44h188v188h44v-188h188v-44h-188v-188h-44z" />
    <glyph glyph-name="less.tab" 
d="M63 347l422 251v-52l-341 -199l341 -199v-52z" />
    <glyph glyph-name="equal.tab" 
d="M82 285h420v-44h-420v44zM82 459h420v-44h-420v44z" />
    <glyph glyph-name="greater.tab" 
d="M521 347l-422 -251v52l341 199l-341 199v52z" />
    <glyph glyph-name="multiply.tab" 
d="M425 181l-133 133l-133 -133l-31 31l133 133l-133 133l31 31l133 -133l133 133l31 -31l-133 -133l133 -133z" />
    <glyph glyph-name="divide.tab" 
d="M82 367h420v-44h-420v44zM258 515c0 19 13 32 34 32s34 -13 34 -32s-14 -32 -34 -32c-21 0 -34 13 -34 32zM258 170c0 19 14 32 34 32c21 0 34 -13 34 -32s-13 -32 -34 -32c-20 0 -34 13 -34 32z" />
    <glyph glyph-name="perthousand.tab" 
d="M361 700l-305 -700h-42l307 700h40zM17 595c0 62 38 107 101 107c64 0 101 -45 101 -107c0 -63 -38 -107 -101 -107c-62 0 -101 44 -101 107zM51 595c0 -41 27 -72 67 -72s67 29 67 72c0 42 -25 72 -67 72c-39 0 -67 -29 -67 -72zM141 102c0 61 38 107 101 107
c64 0 101 -46 101 -107c0 -64 -38 -107 -101 -107c-62 0 -101 44 -101 107zM175 102c0 -42 27 -73 67 -73s67 29 67 73c0 41 -25 72 -67 72c-39 0 -67 -30 -67 -72zM368 102c0 61 37 107 101 107s101 -46 101 -107c0 -64 -39 -107 -101 -107s-101 44 -101 107zM402 102
c0 -42 27 -73 67 -73s67 29 67 73c0 41 -25 72 -67 72c-40 0 -67 -30 -67 -72z" />
    <glyph glyph-name="minus.tab" 
d="M82 367h420v-44h-420v44z" />
    <glyph glyph-name="f_b" horiz-adv-x="937" 
d="M428 750h44v-370c19 63 72 130 198 130c130 0 220 -76 220 -249c0 -197 -92 -272 -227 -272c-101 0 -170 52 -193 126v-115h-42v750zM472 223c0 -119 74 -192 186 -192c110 0 187 59 187 225c0 151 -76 212 -187 212c-123 0 -186 -77 -186 -193v-52zM24 500h90v74
c0 132 71 181 158 181c51 0 80 -17 93 -28v-62c-18 28 -55 46 -96 46c-59 0 -110 -29 -110 -137v-74h167v-42h-167v-458h-45v458h-90v42z" />
    <glyph glyph-name="f_f_b" horiz-adv-x="1238" 
d="M728 750h45v-367c21 62 75 127 198 127c130 0 220 -76 220 -249c0 -197 -92 -272 -227 -272c-102 0 -170 52 -193 126v-115h-43v750zM959 468c-121 0 -183 -74 -186 -185v-69c3 -114 76 -183 185 -183c111 0 187 59 187 225c0 151 -75 212 -186 212zM24 500h90v74
c0 132 71 181 158 181c51 0 80 -17 93 -28v-62c-18 28 -55 46 -96 46c-59 0 -110 -29 -110 -137v-74h255v74c0 132 72 181 159 181c51 0 80 -17 93 -28v-62c-18 28 -55 46 -97 46c-58 0 -109 -29 -109 -137v-74h167v-42h-167v-458h-46v458h-255v-458h-45v458h-90v42z" />
    <glyph glyph-name="f_f_h" horiz-adv-x="1222" 
d="M24 500h90v74c0 132 71 181 158 181c51 0 80 -17 93 -28v-62c-18 28 -55 46 -96 46c-59 0 -110 -29 -110 -137v-74h255v74c0 132 72 181 159 181c51 0 80 -17 93 -28v-62c-18 28 -55 46 -97 46c-58 0 -109 -29 -109 -137v-74h167v-42h-167v-458h-46v458h-255v-458h-45
v458h-90v42zM1100 0v315c0 111 -53 152 -151 153h-3c-118 0 -175 -67 -175 -175v-293h-45v750h45v-356c20 66 81 115 189 115h2c115 -1 183 -58 183 -180v-329h-45z" />
    <glyph glyph-name="f_f_j" horiz-adv-x="876" 
d="M24 500h90v74c0 132 71 181 158 181c51 0 80 -17 93 -28v-62c-18 28 -55 46 -96 46c-59 0 -110 -29 -110 -137v-74h256v74c0 132 71 181 158 181c51 0 80 -17 93 -28v-62c-18 28 -54 46 -96 46c-59 0 -110 -29 -110 -137v-74h167v-42h-167v-458h-45v458h-256v-458h-45
v458h-90v42zM736 -36v536h45v-534c0 -98 -31 -152 -122 -152c-30 0 -59 10 -74 19v59c19 -22 46 -34 75 -34c49 0 76 24 76 106zM724 726c0 19 14 32 35 32s34 -13 34 -32s-14 -32 -34 -32c-21 0 -35 13 -35 32z" />
    <glyph glyph-name="f_f_k" horiz-adv-x="1156" 
d="M24 500h90v74c0 132 71 181 158 181c51 0 80 -17 93 -28v-62c-18 28 -55 46 -96 46c-59 0 -110 -29 -110 -137v-74h255v74c0 132 72 181 159 181c51 0 80 -17 93 -28v-62c-18 28 -55 46 -97 46c-58 0 -109 -29 -109 -137v-74h167v-42h-167v-458h-46v458h-255v-458h-45
v458h-90v42zM732 750h45v-473h94l176 223h54l-193 -239l225 -261h-58l-204 237h-94v-237h-45v750z" />
    <glyph glyph-name="f_h" horiz-adv-x="927" 
d="M805 0v315c0 111 -53 152 -151 153h-3c-118 0 -175 -67 -175 -175v-293h-45v750h45v-356c20 66 81 115 189 115h2c115 -1 183 -58 183 -180v-329h-45zM24 500h90v74c0 132 71 181 158 181c51 0 80 -17 93 -28v-62c-18 28 -55 46 -96 46c-59 0 -110 -29 -110 -137v-74h167
v-42h-167v-458h-45v458h-90v42z" />
    <glyph glyph-name="f_j" horiz-adv-x="574" 
d="M24 500h90v74c0 132 71 181 158 181c51 0 80 -17 93 -28v-62c-18 28 -55 46 -96 46c-59 0 -110 -29 -110 -137v-74h167v-42h-167v-458h-45v458h-90v42zM435 -36v536h45v-534c0 -98 -32 -152 -123 -152c-29 0 -58 10 -73 19v59c19 -22 45 -34 75 -34c49 0 76 24 76 106z
M423 726c0 19 14 32 34 32c21 0 34 -13 34 -32s-13 -32 -34 -32c-20 0 -34 13 -34 32z" />
    <glyph glyph-name="f_k" horiz-adv-x="855" 
d="M431 750h45v-473h94l177 223h53l-192 -239l224 -261h-58l-204 237h-94v-237h-45v750zM24 500h90v74c0 132 71 181 158 181c51 0 80 -17 93 -28v-62c-18 28 -55 46 -96 46c-59 0 -110 -29 -110 -137v-74h167v-42h-167v-458h-45v458h-90v42z" />
    </font>
</defs>
</svg>
